<?xml version="1.0" encoding="UTF-8"?>
<!-- Generator: visioncortex VTracer 0.6.12 -->
<svg version="1.1" xmlns="http://www.w3.org/2000/svg" width="600" height="600">
<path d="M0 0 C0.8822255551815061 -0.005813763141631512 1.7644511103630052 -0.011627526283263023 2.6734107732772827 -0.017617464065551758 C5.644726042787326 -0.03227457963593139 8.615222642173585 -0.01830546511907727 11.586532592773438 -0.00457000732421875 C13.732184907968694 -0.009176652338737767 15.877834072111995 -0.015527970865520047 18.023476600646973 -0.023478984832763672 C23.931430561073924 -0.04022778948483108 29.839127160544678 -0.031900661878680125 35.747082233428955 -0.01953411102294922 C42.113902328435586 -0.010508650577705225 48.48067720289738 -0.024440888945044037 54.84748840332031 -0.03545379638671875 C66.60308886239895 -0.05223991133100725 78.35859739434582 -0.05074662986561407 90.11420235037804 -0.03980792313814163 C100.97348768572783 -0.029752643832203773 111.83274282642674 -0.02711564458550697 122.69203186035156 -0.03189849853515625 C123.41186286397277 -0.03220403891057089 124.13169386759401 -0.03250957928597842 124.87333793193102 -0.032824378460645676 C127.79523777183564 -0.03406969655585357 130.7171375971174 -0.035343293153800914 133.63903740420938 -0.03666343353688717 C161.0585267447436 -0.04890426922484181 188.4779636149443 -0.03779793584651259 215.89744485914707 -0.01627584546804428 C240.26738697921553 0.002707122038842158 264.6372454997446 0.0010086345274515907 289.00718688964844 -0.01811981201171875 C316.3759600525965 -0.03953020240023619 343.7446868419211 -0.04803621627371513 371.1134672164917 -0.03567075729370117 C374.0300973151074 -0.034387853620287956 376.9467274259555 -0.03313649503253657 379.8633575439453 -0.03189849853515625 C380.581526177004 -0.03158218909054966 381.29969481006265 -0.03126587964594307 382.0396261289716 -0.030939985066652298 C392.8930937396127 -0.02638672455347546 403.74652786908274 -0.03171745673731152 414.59999084472656 -0.04181671142578125 C426.93871652345973 -0.05324064941227391 439.2773293931872 -0.05003646608969348 451.6160452365875 -0.028693735599517822 C457.9153353113637 -0.018157908831327063 464.21445541383423 -0.014104652052822075 470.51374435424805 -0.02729034423828125 C476.2749091990188 -0.03916753584608301 482.0357457453722 -0.03272892226688384 487.7968806028366 -0.011380136013031006 C489.88630499373596 -0.006894210504320597 491.9757568495793 -0.009224598466275324 494.065163731575 -0.01888328790664673 C496.8956386596391 -0.03096884362485497 499.7249748998926 -0.01865210027594344 502.5553894042969 0 C503.37508472800255 -0.009364664554595947 504.1947800517082 -0.018729329109191895 505.0393146276474 -0.028377771377563477 C508.6412919336475 0.019376663924774107 511.08792244274866 0.4020878850691645 514.2835134267807 2.107494354248047 C516.952271409358 5.313821594290744 516.9041680294873 7.191464159714727 516.9069004058838 11.340652465820313 C516.9141676098109 12.031237546801563 516.9214348137378 12.72182262778282 516.9289222359657 13.433334529399872 C516.9472430145257 15.759024827987233 516.9297861493169 18.083080455835372 516.9126129150391 20.40876007080078 C516.918371366921 22.088163878290885 516.9263106228431 23.767561394886584 516.9362491369247 25.446945667266846 C516.9571838544632 30.07079688116164 516.9467773744817 34.69413425527708 516.9313180446625 39.31798768043518 C516.9200354569873 44.30103484658406 516.9374518431007 49.28399176804682 516.9512176513672 54.26702117919922 C516.973487712885 64.03229713734854 516.9686321027198 73.79738129325966 516.9541544467211 83.56266486644745 C516.9428770086204 91.49685804223202 516.9413248195708 99.4309973432969 516.9467735290527 107.36519622802734 C516.9471566116438 107.92913381472229 516.9471566116438 107.92913381472229 516.9490952417254 110.78299978375435 C516.9506938173396 113.07402973954945 516.9523148822553 115.36505967976058 516.9539581984282 117.65608960390091 C516.9682267422425 139.15508330627563 516.9518056324948 160.6539705290373 516.9249563664198 182.1529467701912 C516.9026166098912 200.612742241849 516.9064964273819 219.07238052230548 516.9295501708984 237.53217315673828 C516.956288651818 258.9525681764679 516.9668533419757 280.37286979553306 516.9514888525009 301.79327917099 C516.9498960534034 304.0760303987365 516.9483242011247 306.3587816411971 516.9467735290527 308.6415328979492 C516.9463878402487 309.2031579376757 516.9463878402487 309.2031579376757 516.9444360211492 312.04532101750374 C516.9401131633717 319.9728916846961 516.9474181793756 327.9004032649956 516.959171295166 335.82796478271484 C516.9731731555452 345.48489103504744 516.9694451368314 355.1416140026452 516.9427675753832 364.798516869545 C516.9295982013602 369.7286527716954 516.9245299932056 374.6584493600727 516.9410133361816 379.5885829925537 C516.9558615192853 384.09773487726625 516.9478101622612 388.6062314525412 516.9211255759001 393.11532348394394 C516.9155187045794 394.7505201022329 516.9184301896428 396.385771558866 516.9305045157671 398.02093321084976 C516.9456174810807 400.2367783287325 516.9302170441564 402.45035205804425 516.9069004058838 404.66607666015625 C516.906494525075 405.28241777181626 516.906494525075 405.28241777181626 516.9044405221939 408.40147733688354 C516.2776947021484 411.5033645629883 516.2776947021484 411.5033645629883 513.9586499929428 413.9006314277649 C510.4931473566644 415.97238395733496 507.5614637455068 416.0377623644583 503.64170837402344 415.9574661254883 C502.8899533081054 415.9580502319336 502.1381982421875 415.9586343383789 501.36366271972656 415.95923614501953 C498.89051883241905 415.95645986618723 496.41859553563563 415.92539130995425 493.94566345214844 415.8939895629883 C492.226457299628 415.886525506139 490.5072426167857 415.8808333502634 488.78802490234375 415.87683868408203 C484.2718083343045 415.8615952271086 479.7561095855315 415.8223247892595 475.24009704589844 415.7780227661133 C470.62835188969075 415.73704209914365 466.0165227386086 415.71882171583684 461.40464782714844 415.6986770629883 C452.36210310726045 415.6558290716361 443.31994203223564 415.5875935330538 434.27769470214844 415.5033645629883 C434.2865771484375 416.4569233703613 434.29545959472654 417.41048217773437 434.3046112060547 418.39293670654297 C434.385726416507 427.38287612838207 434.44567413089504 436.37274122269474 434.4849433898926 445.36296367645264 C434.5058109739802 449.9848703944642 434.5341133400221 454.60648149395206 434.57945251464844 459.2282180786133 C434.62294005266983 463.6891628496742 434.6468380489904 468.149823422536 434.6572036743164 472.61096382141113 C434.6645898469317 474.31223079459846 434.6790134657821 476.01348235684543 434.7006149291992 477.7146282196045 C434.72968840152794 480.0992191027482 434.7336491845347 482.4826383943432 434.73179626464844 484.8673782348633 C434.74617736816407 485.56940872192376 434.7605584716797 486.27143920898436 434.77537536621094 486.99474334716797 C434.7353343902166 491.76269956556985 433.64500282624255 494.1543138735574 430.27769470214844 497.5033645629883 C427.2599053286097 499.01225924975756 425.65446832863756 499.0036273224682 422.27769470214844 498.5033645629883 C415.96058476054026 494.0253217860301 410.58857783649796 487.93763702178376 405.15736389160156 482.4581985473633 C403.67837560950625 480.96622213362457 402.196089685222 479.47758903004217 400.71299743652344 477.9896926879883 C397.0332208335313 474.2966830190776 393.3589684276269 470.5981934387744 389.68455505371094 466.8998489379883 C386.5672384121838 463.7626615276073 383.4477838227454 460.6276285442258 380.32557678222656 457.4953079223633 C378.8790440166874 456.04238548401594 377.4356030335856 454.5864417557145 375.99229431152344 453.1303176879883 C375.54502990722654 452.6814016723633 375.54502990722654 452.6814016723633 373.28160095214844 450.4096145629883 C372.50631042480467 449.6290872192383 371.73101989746095 448.84855987548826 370.93223571777344 448.0443801879883 C369.524315457174 446.6966717292079 368.10232524171823 445.3590345398543 366.5974549651146 444.12051808834076 C362.5260912048072 440.75556905744526 359.1678092536964 437.24152724371453 355.8888101577759 433.09607124328613 C348.26129975287137 423.8193969018706 341.2314932115897 415.83749320815014 328.7514595463872 414.24118031561375 C321.3362907525279 413.55682865415116 313.89485034592377 413.71841412437124 306.46112883090973 413.9240140914917 C302.2289219893942 414.01618832067385 297.99742713880175 413.9785364059533 293.76454162597656 413.9576644897461 C286.4551302603358 413.9386762156161 279.14994863324756 413.99875413876924 271.84147453308105 414.1143684387207 C261.27034608805616 414.2811196439878 250.70161665653472 414.32050475020003 240.12931466847658 414.329578474164 C222.96464475765936 414.34732994603763 205.8020157083618 414.4599176859112 188.63829040527344 414.6361770629883 C171.9925428305114 414.80685702308995 155.34722814813483 414.9423143680446 138.70079040527344 415.0238723754883 C137.67290987245738 415.0289269094169 136.64502933964133 415.03398144334557 135.58600091189146 415.039189144969 C124.36661097729643 415.09353076775034 113.14719298844503 415.1400405694606 101.92775821685791 415.1840076446533 C98.95398905469784 415.1958023060679 95.98022011495726 415.2076495014024 93.00645142048597 415.21956150233746 C91.04656105593205 415.2273664297097 89.08667019324525 415.2350472895818 87.12677884846926 415.2426020652056 C74.66412018189357 415.29128386921246 62.202308272889766 415.3738017253552 49.74012744426727 415.49313521385193 C43.46515360907003 415.55282118126513 37.190105328214685 415.5993751603594 30.914993695914745 415.6419099420309 C25.95171668727866 415.6765790317062 20.98900891660149 415.7280922318659 16.02603718265891 415.79276736825705 C13.018187423109609 415.82778589308515 10.010411722317514 415.84619879787317 7.002395637333393 415.85970778763294 C5.623362802910805 415.8693031002642 4.24435758489733 415.88583448037826 2.865501694381237 415.909918949008 C0.9941275005935921 415.94174052216704 -0.8776495879771886 415.94642821334935 -2.74929141998291 415.94972038269043 C-3.2694311383366568 415.9549237412214 -3.2694311383366568 415.9549237412214 -5.901653349399567 415.9812558889389 C-9.609768545370116 415.3530053567339 -11.20521542045045 414.2917097746025 -13.722305297851563 411.5033645629883 C-14.349051117897034 408.40147733688354 -14.349051117897034 408.40147733688354 -14.351511001586914 404.66607666015625 C-14.358778205513957 403.975491579175 -14.366045409440993 403.2849064981937 -14.373532831668854 402.5733945965767 C-14.391853610228829 400.24770429798957 -14.374396745020064 397.92364867014106 -14.357223510742188 395.5979690551758 C-14.362981962624133 393.91856524768565 -14.370921218546144 392.23916773109 -14.380859732627869 390.5597834587097 C-14.401794450166328 385.935932244815 -14.391387970184837 381.31259487069957 -14.3759286403656 376.6887414455414 C-14.364646052690489 371.7056942793923 -14.382062438803786 366.72273735792993 -14.395828247070313 361.73970794677734 C-14.418098308588142 351.974431988628 -14.413242698422913 342.2093478327169 -14.398765042424202 332.4440642595291 C-14.387487604323532 324.5098710837446 -14.385935415273899 316.57573178267967 -14.39138412475586 308.6415328979492 C-14.392150289937852 307.5136577245593 -14.392916455119845 306.38578255116937 -14.39370583742857 305.2237293422222 C-14.395304413042673 302.93269938642715 -14.396925477958426 300.641669446216 -14.398568794131279 298.35063952207565 C-14.412837337945533 276.851645819701 -14.396416228197992 255.35275859693922 -14.369566962122917 233.85378235578537 C-14.347227205594365 215.39398688412751 -14.351107023084978 196.9343486036711 -14.374160766601563 178.47455596923828 C-14.400899247521174 157.05416094950866 -14.411463937678782 135.63385933044353 -14.39609944820404 114.21344995498657 C-14.394506649106631 111.93069872724001 -14.39293479682786 109.64794748477948 -14.39138412475586 107.36519622802734 C-14.390612747147678 106.24194614857436 -14.389841369539496 105.11869606912137 -14.389046616852283 103.96140810847282 C-14.38472375907486 96.03383744128018 -14.3920287750787 88.10632586098117 -14.40378189086914 80.17876434326172 C-14.417783751248265 70.52183809092908 -14.414055732534507 60.86511512333128 -14.387378171086311 51.20821225643158 C-14.37420879706341 46.27807635428114 -14.369140588908806 41.34827976590384 -14.385623931884766 36.41814613342285 C-14.400472114988531 31.90899424871013 -14.39242075796436 27.400497673435495 -14.365736171603203 22.891405642032623 C-14.360129300282594 21.256209023743693 -14.363040785345923 19.620957567110537 -14.375115111470222 17.9857959151268 C-14.390228076783892 15.769950797244235 -14.374827639859532 13.556377067932146 -14.351511001586914 11.340652465820313 C-14.351105120778087 10.724311354160307 -14.351105120778087 10.724311354160307 -14.349051117897034 7.605251789093018 C-13.722305297851563 4.503364562988281 -13.722305297851563 4.503364562988281 -11.728124022483826 2.107494354248047 C-7.7930974293520805 0.007469713469248518 -4.351244108141515 -0.049711082019712194 0 0 Z M3.2776947021484375 18.50336456298828 C3.2776947021484375 143.9033645629883 3.2776947021484375 269.3033645629883 3.2776947021484375 398.5033645629883 C174.27769470211308 398.56586456298834 174.27769470211308 398.56586456298834 228.32066345214844 398.5309524536133 C250.05699157721972 398.56281280517595 250.05699157721972 398.56281280517595 260.22471618652344 398.5866012573242 C267.3436444999056 398.6008422905492 274.46224784283675 398.5959722477581 281.58116149902344 398.5781784057617 C289.7895806369789 398.55772696636785 297.99756343612734 398.5614265491777 306.205945789814 398.59506860002875 C310.4058401609895 398.6115197419905 314.60494833164927 398.61705372189215 318.8048152923584 398.5915433168411 C322.6037262330359 398.5686757227881 326.40114665043217 398.57804154533187 330.19995307922363 398.6130027770996 C332.2221604270067 398.6232546154524 334.2444520762682 398.5990719207071 336.2665252685547 398.57362270355225 C342.2632551810263 398.65987965923324 346.29661119288903 398.8493795593441 350.94722843170166 402.86100006103516 C352.08394809021036 404.0502874529594 353.19620241526553 405.2636426118867 354.27769470214844 406.5033645629883 C355.3608186936012 407.56334316603 356.4500956293775 408.6171192079849 357.5487976074219 409.6609420776367 C358.6249866404549 410.7372762222626 359.6985119494895 411.8162789901547 360.76963806152344 412.8976516723633 C361.36416778564455 413.49364166259767 361.9586975097656 414.08963165283205 362.5712432861328 414.7036819458008 C363.84526445650937 415.9814725009909 365.1181306932958 417.2604154800291 366.3899211883545 418.54042625427246 C368.4005203864861 420.5639014658677 370.4143258268899 422.5841372116944 372.428955078125 424.60359954833984 C376.693868416186 428.87986954806894 380.95480119594333 433.16009213455317 385.21519470214844 437.4408645629883 C390.1780643909419 442.42732467363317 395.14254646443123 447.41215747249737 400.1112232208252 452.39283180236816 C402.0992542446035 454.3873643103571 404.08426316083194 456.3848720026346 406.0691833496094 458.3824996948242 C407.27648014094405 459.59342554541223 408.4839156018682 460.8042131634639 409.69151306152344 462.0148391723633 C410.24574447631835 462.57423690795895 410.79997589111326 463.1336346435546 411.3710021972656 463.7099838256836 C412.65439676153153 464.99355823064184 413.96327278781087 466.25158187747115 415.27769470214844 467.5033645629883 C415.6076947021484 467.5033645629883 415.93769470214846 467.5033645629883 416.27769470214844 467.5033645629883 C416.2813403320313 466.7104501342774 416.28498596191406 465.9175357055665 416.2887420654297 465.10059356689453 C416.3266187868517 457.6257631262627 416.38346694445426 450.1514312718405 416.46159744262695 442.6769218444824 C416.5010964913407 438.834221385241 416.5332727212826 434.99175089365093 416.54869079589844 431.1488723754883 C416.5638419193144 427.43978441157014 416.5982584983422 423.73132857180053 416.64600372314453 420.02252197265625 C416.6608337432058 418.60801184379744 416.6687366542564 417.19341146924825 416.6695785522461 415.77882385253906 C416.6719446855288 413.7965975263394 416.7012877648731 411.8144590715674 416.73179626464844 409.8324661254883 C416.7406787109375 408.70439544677737 416.74956115722654 407.5763247680664 416.7587127685547 406.41407012939453 C417.27769470214844 403.5033645629883 417.27769470214844 403.5033645629883 421.27769470214844 399.5033645629883 C447.01769470214845 399.1733645629883 472.75769470214846 398.84336456298826 499.27769470214844 398.5033645629883 C499.27769470214844 273.1033645629883 499.27769470214844 147.70336456298827 499.27769470214844 18.50336456298828 C335.59769470214843 18.50336456298828 171.91769470214842 18.50336456298828 3.2776947021484375 18.50336456298828 Z " fill="#FFFFFF" transform="translate(48.72230529785156,50.49663543701172)"/>
<path d="M0 0 C0.35680149883032186 -0.0011761151254177094 0.35680149883032186 -0.0011761151254177094 2.1624333262443542 -0.007127970457077026 C4.577934434375166 -0.013838719840208569 6.993382007896912 -0.013359127098212298 9.408891677856445 -0.012949943542480469 C11.148433610714193 -0.016247266697476448 12.887974776775138 -0.019972552949738542 14.627514958381653 -0.02409142255783081 C19.42673910562462 -0.03413429576379201 24.225950745789547 -0.03783187352871664 29.02518391609192 -0.040480732917785645 C34.19364980291769 -0.04437695041707457 39.362105720192005 -0.053955655963193294 44.53056526184082 -0.06269359588623047 C57.020772135272665 -0.08247600033278957 69.51097984289422 -0.09252587124144895 82.0011984705925 -0.10142138600349426 C87.87725101452637 -0.10580085009105744 93.7533026511407 -0.11116849117834704 99.62935447692871 -0.1164102554321289 C119.15205574580892 -0.1334233137465901 138.6747564437393 -0.14791916147210316 158.1974639892578 -0.15515899658203125 C163.26615970071782 -0.15706901118394967 168.33485540758994 -0.15898932749340133 173.40355110168457 -0.16094493865966797 C174.6634102906287 -0.16142867885530165 175.9232694795728 -0.16191241905093534 177.221306219697 -0.16241081804037094 C197.6462618790962 -0.17071737020845035 218.07115908929154 -0.19606448976843183 238.49608920514584 -0.22852561622858047 C259.44660292927944 -0.26155175740036896 280.39708690149496 -0.2796036736530141 301.3476268053055 -0.2828032374382019 C313.1184807404774 -0.2849723216071567 324.88924941301553 -0.2937791646074146 336.66007804870605 -0.31926441192626953 C346.6811537702075 -0.3409106601387464 356.7021235277171 -0.3490518511759433 366.7232199758291 -0.3392976298928261 C371.8396354861178 -0.33473540847340644 376.95583208630444 -0.3367501800199193 382.0722179412842 -0.35605907440185547 C386.75157590195704 -0.37356682458860746 391.43055325054786 -0.3727947449762894 396.10991455614567 -0.357161782681942 C397.80709291019696 -0.35476674879795667 399.5042967757189 -0.3592063318159262 401.2014359086752 -0.37099043279886246 C403.5005642093478 -0.38597176405676237 405.7983196545305 -0.3765344124574739 408.097412109375 -0.3607635498046875 C409.37674491763113 -0.36174035847187724 410.6560777258873 -0.3627171671390528 411.9741781949997 -0.3637235760688782 C415.7379291103097 0.22187753535814636 416.8770846241895 1.1647761863432606 419.17454719543457 4.134221076965332 C420.89639805390595 7.577922793908144 420.3185865061283 11.54831340322022 420.3149890899658 15.338521003723145 C420.31647465109825 15.821512468755245 420.31647465109825 15.821512468755245 420.32399249076843 18.265742003917694 C420.3327079473677 21.523098469258514 420.33419013591845 24.78041830707666 420.33568000793457 28.037785530090332 C420.3403061638287 30.364914428136586 420.3453305464069 32.69204256393536 420.3507251739502 35.01916980743408 C420.3638705713116 41.355961576894174 420.370298280154 47.692742742030646 420.37473583221436 54.02954602241516 C420.3776630705129 57.985171668938506 420.3817672018231 61.94079439167112 420.38624000549316 65.89641857147217 C420.39835196026286 76.84504819800657 420.40873300507326 87.7936752804157 420.4121150970459 98.74231147766113 C420.4123346631229 99.4433072919771 420.41255422919994 100.14430310629308 420.41278044879436 100.86654121801257 C420.4129987265169 101.56923039469868 420.41321700423964 102.27191957138479 420.4134418964386 102.99590235948563 C420.4138853650803 104.41985690690268 420.4143319284743 105.84381145335925 420.41478157043457 107.26776599884033 C420.4150030001998 107.97409914456307 420.41522442996506 108.68043229028581 420.41545256972313 109.40816947072744 C420.41940069631846 120.85367900362084 420.4368544808822 132.2991248720421 420.46014109253883 143.74460981041193 C420.4838476523853 155.4911787191612 420.49631663942023 167.23771567552865 420.4974830150604 178.98430889844894 C420.49853296012634 185.58133243637587 420.5044809905844 192.17826622601297 420.5223026275635 198.77526760101318 C420.5387368265972 204.97960207654808 420.5409614326752 211.18377889325802 420.5321636199951 217.38812732696533 C420.53139075173885 219.6678016895039 420.5357686424386 221.94748436602094 420.54562187194824 224.2271375656128 C420.5582674155387 227.33460482476823 420.55250467784117 230.44150745423292 420.5420398712158 233.54897022247314 C420.54606807351115 234.00208337217566 420.54606807351115 234.00208337217566 420.5664532184601 236.2951105237007 C420.528888325515 241.05089618298985 420.30945053050016 244.29213880928756 417.17454719543457 248.13422107696533 C414.69803158571295 249.37247888182617 413.2105882706984 249.1990038586992 410.44486713409424 249.10249423980713 C409.44045178592205 249.0703500533104 408.43603643774986 249.03820586681366 407.4011842608452 249.00508761405945 C406.2891166549921 248.96445641756054 405.17704904913904 248.92382522106175 404.03128242492676 248.88196277618408 C401.5848095601659 248.80266971802416 399.13833204946843 248.72351991356186 396.69185066223145 248.6444902420044 C396.03306608200074 248.6222743701935 396.03306608200074 248.6222743701935 392.69921684265137 248.50984859466553 C385.49262619759634 248.26726766670873 378.285288374188 248.0490568169024 371.07779121398926 247.83533191680908 C370.31123535081747 247.8125470644236 369.5446794876456 247.789762212038 368.75489465892315 247.76628690958023 C356.6176337662139 247.4089445353103 344.4802359164836 247.13914095153535 332.3395404815674 246.93066883087158 C331.5154203268141 246.91649283140896 330.6913001720607 246.90231683194634 329.8422066792846 246.88771125674248 C321.3055602908094 246.74232625294383 312.76877223578947 246.60854532194423 304.2317809276283 246.48513565957546 C299.83953618093676 246.42123871197248 295.4473384842621 246.3545252800696 291.05516242980957 246.28607654571533 C290.18109116710724 246.27250072270635 289.30701990440485 246.25892489969726 288.40646163374186 246.24493768811226 C276.125168709082 246.0486508367078 263.8550758016751 245.70893614626857 251.58068551123142 245.25584012269974 C230.4709701621308 244.47697426630396 209.37402851720697 243.9699177235783 188.24876594543457 243.99359607696533 C187.84163032859567 243.9937787282467 187.84163032859567 243.9937787282467 185.78127735853195 243.9947030544281 C148.40053450422363 244.04974426728455 113.49970631727308 244.16519967010413 85.18451118469238 272.0136766433716 C74.6521434458412 282.96785527160483 65.65666649903488 295.0990041479405 58.064162254333496 308.2457513809204 C55.66959263228051 311.9060957223759 53.19532449832923 315.5549088653429 48.85814094543457 316.79828357696533 C48.48753547668457 316.79183826446535 48.48753547668457 316.79183826446535 46.61204719543457 316.75922107696533 C45.86825813293456 316.77211170196534 45.12446907043457 316.78500232696535 44.35814094543457 316.79828357696533 C41.07614683488788 315.800181611325 40.04585257031505 313.9528759298265 38.17454719543457 311.13422107696533 C37.69352912902832 308.1791887283325 37.69352912902832 308.1791887283325 37.72044563293457 304.87518787384033 C37.72074775695802 303.63427890777587 37.72104988098144 302.3933699417114 37.72136116027832 301.114857673645 C37.741784418626025 299.7710451142821 37.762648346784374 298.4272391897969 37.78392219543457 297.08343982696533 C37.791388533291126 295.70053902641996 37.797079613073464 294.3176275999313 37.80107307434082 292.93471240997314 C37.8162988984993 289.3061923096118 37.85555295470064 285.67831919676865 37.89988899230957 282.0500535964966 C37.940908467061064 278.34317239921313 37.959098241111974 274.63618600230694 37.97923469543457 270.92914295196533 C38.02205140312199 263.6638749883876 38.09026419134565 256.3991389084406 38.17454719543457 249.13422107696533 C37.61966621398926 249.14310352325435 37.064785232543954 249.1519859695435 36.49308967590332 249.16113758087158 C30.718231080613606 249.24962701062725 24.9435650356463 249.30996161131253 19.16819953918457 249.35394763946533 C17.01284652639636 249.3740638349783 14.857548089240339 249.40136032613287 12.70237922668457 249.43597888946533 C9.604423246771944 249.4844959338306 6.507188735620701 249.5071898093916 3.4089221954345703 249.52484607696533 C2.445247268676752 249.5454912185669 1.4815723419189482 249.56613636016846 0.4886951446533203 249.58740711212158 C-6.207516596390448 249.58965340925045 -6.207516596390448 249.58965340925045 -9.40260124206543 247.23480701446533 C-12.339446894661876 242.89907949302744 -11.970728165176524 239.02242061234847 -11.96589469909668 233.92992115020752 C-11.968865821361547 232.9639382201433 -11.9718369436264 231.99795529007912 -11.974898099899292 231.00270015001297 C-11.983613556498568 227.74534368467204 -11.985095745049307 224.48802384685405 -11.98658561706543 221.23065662384033 C-11.991211772959602 218.9035277257941 -11.996236155537744 216.57639958999528 -12.001630783081055 214.24927234649658 C-12.014776180442496 207.91248057703655 -12.021203889284791 201.57569941190002 -12.025641441345215 195.2388961315155 C-12.028568679643698 191.28327048499204 -12.032672810953912 187.32764776225952 -12.037145614624023 183.3720235824585 C-12.049257569393717 172.4233939559241 -12.05963861420409 161.4747668735149 -12.063020706176758 150.52613067626953 C-12.06324027225375 149.82513486195356 -12.063459838330743 149.12413904763758 -12.063686057925224 148.4019009359181 C-12.06390433564782 147.69921175923199 -12.064122613370415 146.99652258254588 -12.064347505569458 146.27253979444504 C-12.064790974211192 144.84858524702798 -12.06523753760517 143.4246307005714 -12.06568717956543 142.00067615509033 C-12.065908609330648 141.2943430093676 -12.066130039095881 140.58800986364483 -12.066358178853989 139.86027268320322 C-12.070306305449265 128.41476315030985 -12.087760090013035 116.96931728188855 -12.111046701669693 105.52383234351873 C-12.134753261516195 93.77726343476945 -12.14722224855106 82.03072647840202 -12.148388624191284 70.28413325548172 C-12.149438569257129 63.68710971755473 -12.155386599715328 57.09017592791773 -12.173208236694336 50.49317455291748 C-12.189642435728103 44.2888400773827 -12.191867041805992 38.08466326067264 -12.183069229125977 31.880314826965332 C-12.182296360869714 29.600640464426732 -12.186674251569428 27.32095778790972 -12.196527481079102 25.04130458831787 C-12.209173024669496 21.933837329162756 -12.203410286972058 18.826934699697503 -12.19294548034668 15.71947193145752 C-12.201001884937284 14.813245632052428 -12.209058289527889 13.907019332647323 -12.217358827590942 12.97333163022995 C-12.179793934645915 8.217545970940762 -11.960356139631045 4.976303344643128 -8.82545280456543 1.134221076965332 C-5.88590647863181 -0.3355520860014849 -3.283544198750434 0.004591721949438465 0 0 Z M6.17454719543457 17.134221076965332 C6.17454719543457 88.08422107696532 6.17454719543457 159.0342210769653 6.17454719543457 232.13422107696533 C13.599547195434567 232.29922107696535 13.599547195434567 232.29922107696535 51.17454719543457 233.13422107696533 C54.48010974208023 236.439783623611 54.55214742012117 236.71567891708287 54.60692024230957 241.06464099884033 C54.61681732177735 241.56504650115966 54.61681732177735 241.56504650115966 54.66690254211426 244.09740161895752 C54.673292465209954 245.1756067276001 54.67968238830565 246.25381183624268 54.68626594543457 247.36468982696533 C54.70421714782714 248.47024723052982 54.72216835021973 249.5758046340942 54.74066352844238 250.71486377716064 C54.79490146901375 254.25044392451292 54.82870612006363 257.78588804068426 54.86204719543457 261.32172107696533 C54.89520828559304 263.716922354899 54.929696800336956 266.1121056509264 54.96556282043457 268.50726795196533 C55.050635652613295 274.38279701600214 55.11892837552978 280.25834339677317 55.17454719543457 286.13422107696533 C59.08547713609826 282.8311246513175 62.92424368797779 279.5112601867803 66.54954719543457 275.89203357696533 C67.30751594543457 275.1353538894653 68.06548469543458 274.37867420196534 68.84642219543457 273.59906482696533 C69.23056282043456 273.21299060821536 69.23056282043456 273.21299060821536 71.17454719543457 271.25922107696533 C71.94282844543457 270.4948070144653 72.71110969543457 269.7303929519653 73.50267219543457 268.94281482696533 C76.98188315932384 265.4576868376273 80.38364567833926 261.9529314742449 83.59251594543457 258.21625232696533 C87.97274799110892 253.12977577205186 92.73247163938868 248.4305493942212 97.48704719543457 243.69672107696533 C98.39261360168456 242.78728748321532 99.29818000793458 241.8778538894653 100.23118782043457 240.94086170196533 C101.09550422668457 240.07783435821534 101.95982063293457 239.21480701446535 102.85032844543457 238.32562732696533 C103.63319221496582 237.54389148712158 104.41605598449706 236.76215564727784 105.22264289855957 235.95673084259033 C108.23040219906667 233.1483602136616 109.98031805839315 233.00755993433484 113.99653244018555 232.99555587768555 C115.02114944100379 232.9900814336538 116.04576644182205 232.98460698962208 117.1014324426651 232.97896665334702 C117.66854352653027 232.97847759991885 117.66854352653027 232.97847759991885 120.5384693145752 232.97600269317627 C121.73665900588037 232.97106471598147 122.93484869718552 232.96612673878667 124.16934716701508 232.96103912591934 C127.5054987105238 232.94829555957244 130.8416082038466 232.94002999649229 134.1777744293213 232.93361246585846 C137.77151378054145 232.92562322733738 141.36523175752242 232.9119203931216 144.9589557647705 232.89890003204346 C151.18876795574315 232.87711628574561 157.4185822862778 232.85897875778517 163.64841270446777 232.84329509735107 C172.65577859773452 232.82061372774768 181.663120843863 232.79246851957862 190.67046670615673 232.7629758194089 C205.28314456627322 232.71527862502796 219.89583207975215 232.67202021837142 234.50853157043457 232.63153553009033 C248.70613036710802 232.59219141805625 262.9037205289708 232.5507564208026 277.10130500793457 232.50653553009033 C277.98489739894865 232.50378602445124 278.8684897899628 232.50103651881216 279.7788577079773 232.4982036948204 C286.68879824481604 232.4766854237505 293.5987383996309 232.45504560642735 300.5086784362793 232.43336737155914 C334.39728397506883 232.32708136630447 368.28591195471756 232.23140020181665 402.17454719543457 232.13422107696533 C402.17454719543457 161.18422107696534 402.17454719543457 90.23422107696533 402.17454719543457 17.134221076965332 C271.49454719543456 17.134221076965332 140.81454719543456 17.134221076965332 6.17454719543457 17.134221076965332 Z " fill="#FFFFFF" transform="translate(95.82545280456543,100.86577892303467)"/>
<path d="M0 0 C104.28 0 208.56 0 316 0 C316 5.939999999999998 316 11.879999999999995 316 18 C211.72000000000003 18 107.44 18 0 18 C0 12.060000000000002 0 6.1200000000000045 0 0 Z " fill="#FFFFFF" transform="translate(150,167)"/>
<path d="M0 0 C82.5 0 165 0 250 0 C250 5.610000000000014 250 11.219999999999999 250 17 C167.5 17 85 17 0 17 C0 11.389999999999986 0 5.780000000000001 0 0 Z " fill="#FFFFFF" transform="translate(150,217)"/>
<path d="M0 0 C66 0 132 0 200 0 C200 5.939999999999998 200 11.879999999999995 200 18 C134 18 68 18 0 18 C0 12.060000000000002 0 6.1200000000000045 0 0 Z " fill="#FFFFFF" transform="translate(150,266)"/>
</svg>
