<?xml version="1.0" encoding="UTF-8"?>
<!-- Generator: visioncortex VTracer 0.6.12 -->
<svg version="1.1" xmlns="http://www.w3.org/2000/svg" width="600" height="600">
<path d="M0 0 C1.0687098973989464 -0.010008133649819229 2.137419794797893 -0.020016267299652668 3.2385148406028748 -0.030327677726745605 C4.42719287693501 -0.03628239274024736 5.615870913267145 -0.042237107753749115 6.840569496154785 -0.04837226867675781 C8.092102389931682 -0.05839904904365767 9.34363528370858 -0.06842582941055753 10.633093416690826 -0.07875645160675049 C14.123190852422454 -0.10635947657152656 17.613302076196334 -0.127420800227398 21.103451132774353 -0.14727234840393066 C24.09325507318505 -0.16504097737573886 27.08302865171686 -0.1864665380495154 30.072808854281902 -0.20781205594539642 C58.42589679417978 -0.4091727242297907 86.77973515830254 -0.5126827695474105 115.13338470458984 -0.5963287353515625 C118.82647545446349 -0.6074172025285236 122.5195655154771 -0.6187094305490035 126.21265506744385 -0.6301898956298828 C127.13057581134137 -0.6330344296991797 128.04849655523896 -0.6358789637684765 128.99423307925463 -0.6388096958398819 C143.8543249485732 -0.6862596838707447 158.71370431733317 -0.7825427625365364 173.57340835779905 -0.8977609723806381 C188.82637253404062 -1.015047209755238 204.07896663207447 -1.0830058683794164 219.33237034082413 -1.1044598817825317 C227.8980580747858 -1.117858565065859 236.46242035849292 -1.153579967711238 245.02765560150146 -1.2456951141357422 C252.32530198310315 -1.3241647740603923 259.621468207062 -1.3585919171033822 266.91953026503325 -1.335670217871666 C270.6424396584723 -1.3253700869366156 274.36213606259275 -1.3359664779170828 278.084511756897 -1.403768539428711 C301.58396673252724 -1.810368392080207 301.58396673252724 -1.810368392080207 307.00287914276123 2.992868423461914 C309.6913512833588 6.066200905947454 311.3967002796329 9.450851244219876 313.09473514556885 13.159360885620117 C314.1784975399958 14.710857281264822 315.29156554746874 16.243252687518094 316.45801639556885 17.733579635620117 C317.44318303499875 19.10316976530379 318.42625487401847 20.474269126355352 319.40723514556885 21.846860885620117 C320.5178556681976 23.3924744462785 321.6285344455753 24.938046148619918 322.73926639556885 26.483579635620117 C323.0168176651001 26.870540084838865 323.0168176651001 26.870540084838865 324.42139530181885 28.828794479370117 C327.1374955638671 32.61167937891969 329.86656023945824 36.38517985411988 332.59473514556885 40.15936088562012 C335.8361567238714 44.64538714679537 339.0761548413714 49.132409408004435 342.30957889556885 53.62420463562012 C348.4343363320472 62.127508649371634 354.61057873187616 70.58982685767324 360.83765506744385 79.01849174499512 C365.03791247752065 84.70971393318968 369.20319324652064 90.42527540879877 373.34473514556885 96.15936088562012 C373.8938757705689 96.91926322937013 374.44301639556886 97.67916557312012 375.00879764556885 98.46209526062012 C381.11659062186413 106.93394516301956 381.11659062186413 106.93394516301956 380.90186405181885 109.14861869812012 C379.97935388857445 111.44680191181646 378.9633808412193 112.62184832125286 377.18067264556885 114.33123588562012 C376.58383670806893 114.91389213562013 375.9870007705688 115.49654838562012 375.37207889556885 116.09686088562012 C374.74430545806877 116.6949858856201 374.1165320205689 117.29311088562014 373.46973514556885 117.90936088562012 C369.80643470861435 121.43987644532893 366.21568638536905 124.95525644805656 362.91504764556885 128.83123588562012 C357.30249342967824 135.34954892108334 351.0351411492355 141.273311352998 344.91944217681885 147.31414604187012 C339.41925765436616 152.753020205903 333.9849090355403 158.17597308554377 328.96387577056885 164.06756401062012 C324.07693084052835 169.53665285082218 318.71032582902245 174.59003918714671 313.49219608306885 179.74139213562012 C303.31205757044626 189.80293921247335 303.31205757044626 189.80293921247335 299.62598514556885 194.12811088562012 C294.1349536208228 200.56312119549204 287.93378863047366 206.37342318222682 281.91944217681885 212.31414604187012 C276.41925765436616 217.75302020590294 270.9849090355403 223.17597308554377 265.96387577056885 229.06756401062012 C261.07693084052835 234.53665285082218 255.7103258290225 239.59003918714666 250.49219608306885 244.74139213562012 C240.31205757044603 254.80293921247363 240.31205757044603 254.80293921247363 236.62598514556885 259.1281108856201 C231.13495362082278 265.563121195492 224.93378863047366 271.3734231822268 218.91944217681885 277.3141460418701 C208.2807915314387 287.83420803235896 208.2807915314387 287.83420803235896 204.59473514556885 292.1593608856201 C199.1175647268085 298.58617501556967 192.92293372678478 304.3841452074677 186.91944217681885 310.3141460418701 C181.37917405192752 315.79265699787146 175.89611102618954 321.25368453105875 170.83838748931885 327.1886577606201 C167.14249076869953 331.36581798588463 163.11904111473768 335.23672105911226 159.15723514556885 339.1593608856201 C158.28260623931885 340.0294780731201 157.40797733306886 340.8995952606201 156.50684452056885 341.7960796356201 C154.37176065094752 343.91949638027086 152.2343630907008 346.04052466069055 150.09473514556885 348.1593608856201 C146.11386349599155 346.5575830701425 143.4398034063609 343.77705494563276 140.48145389556885 340.7765483856201 C139.94881427764892 340.2434505462646 139.416174659729 339.7103527069092 138.86739444732666 339.16110038757324 C137.74133593461409 338.0320257110396 136.61770394562126 336.9005264791891 135.49634647369385 335.7667827606201 C133.80364770370545 334.0560021778203 132.10326025578433 332.3531859704315 130.40137577056885 330.6515483856201 C121.44942582273336 321.66945719216903 121.44942582273336 321.66945719216903 117.55176639556885 317.1046733856201 C112.7401852904909 311.47163876160755 107.36297777322977 306.36018541749746 102.09473514556885 301.1593608856201 C90.3748173029418 289.5894237100834 90.3748173029418 289.5894237100834 86.62598514556885 285.1906108856201 C81.6405191787492 279.3480793409695 76.05510417700552 274.0528877429617 70.59473514556885 268.6593608856201 C58.31432379108239 256.52927808749865 58.31432379108239 256.52927808749865 52.96387577056885 250.25115776062012 C48.574841372843196 245.3392916791529 43.781216284073366 240.78586877372334 39.09473514556885 236.15936088562012 C33.20529336554668 230.34528673349587 27.357500008984346 224.56899331635407 21.981453895568848 218.26873588562012 C17.58426368429224 213.35262260593197 12.787339468996322 208.79191359978984 8.094735145568848 204.15936088562012 C-3.625182697058335 192.58942371008322 -3.625182697058335 192.58942371008322 -7.374014854431152 188.19061088562012 C-12.359480821250855 182.34807934096943 -17.944895822994454 177.05288774296173 -23.405264854431152 171.65936088562012 C-35.68567620891754 159.5292780874987 -35.68567620891754 159.5292780874987 -41.03612422943115 153.25115776062012 C-45.42515862715682 148.33929167915284 -50.218783715926605 143.78586877372334 -54.90526485443115 139.15936088562012 C-66.98113862956848 127.2380229723218 -66.98113862956848 127.2380229723218 -72.45213985443115 120.81756401062012 C-75.16355927373722 117.72348459262167 -78.2478935677758 115.01050962802205 -81.28026485443115 112.23748588562012 C-81.81651485443115 111.55170463562013 -82.35276485443116 110.86592338562014 -82.90526485443115 110.15936088562012 C-82.50081404386525 107.14750950731852 -81.39533353760021 105.123990185178 -79.63963985443115 102.68279838562012 C-79.40410396575928 102.35219413757324 -79.40410396575928 102.35219413757324 -78.21214962005615 100.67913627624512 C-77.95526363372802 100.32524833679199 -77.95526363372802 100.32524833679199 -76.65526485443115 98.53436088562012 C-76.1202233505249 97.78726860046385 -75.58518184661865 97.04017631530763 -75.03392696380615 96.27044486999512 C-73.33057213399213 93.89555372698794 -71.61848837783009 91.52713986246641 -69.90526485443115 89.15936088562012 C-68.82812533087301 87.66349506629123 -67.75129656591551 86.16740542202879 -66.67479610443115 84.67107963562012 C-63.9704207383956 80.91630919987801 -61.25710852593272 77.16808101184913 -58.54198360443115 73.42107963562012 C-56.92017421252632 71.17996355468239 -55.302613536255976 68.93584774041813 -53.68651485443115 66.69061088562012 C-47.5575937057873 58.17899601783756 -41.37577450800926 49.70940933785164 -35.14256954193115 41.27386283874512 C-31.1339178503751 35.84301996201083 -27.16342748815964 30.386114729186914 -23.217764854431152 24.909360885620117 C-19.04979065566738 19.124106021979514 -14.868295016117031 13.349414348518735 -10.655264854431152 7.596860885620117 C-10.189027061462411 6.95909721374511 -9.72278926849367 6.3213335418701035 -9.242423057556152 5.664243698120117 C-5.113920283645456 0.03666867763710968 -5.113920283645456 0.03666867763710968 0 0 Z M17.094735145568848 17.159360885620117 C18.531919099871914 20.752320771377754 19.60679009253812 23.169645038162116 21.698250770568848 26.245786666870117 C22.221182136535646 27.020024795532237 22.744113502502444 27.794262924194328 23.282891273498535 28.591962814331055 C23.849862251281735 29.421157302856443 24.416833229064935 30.25035179138183 25.000985145568848 31.104673385620117 C25.593938789367684 31.98015327453612 26.18689243316652 32.855633163452154 26.79781436920166 33.75764274597168 C28.7259234605402 36.60275540401349 30.66036008349994 39.4435056799085 32.59473514556885 42.28436088562012 C34.57642234001571 45.20577691183945 36.55642124555564 48.12833228394828 38.53633975982666 51.050947189331055 C39.85325395794348 52.99464190254645 41.17070753704908 54.93797127804041 42.488701820373535 56.88093376159668 C48.001434575355745 65.00983897679839 53.468772200976645 73.16812959956292 58.90723514556885 81.34686088562012 C59.65983829179822 82.47788370005497 60.41244242070192 83.60890586060123 61.16504764556885 84.73992729187012 C62.80934745334562 87.21236353196164 64.45271893311738 89.6854077267003 66.09473514556885 92.15936088562012 C70.16997355697922 90.31668659002804 72.50179458975859 87.63850394148864 75.28223514556885 84.22186088562012 C75.52393436431885 83.93053276062011 75.52393436431885 83.93053276062011 76.74707889556885 82.45623588562012 C78.2038231488894 80.69664216910923 79.6506815006004 78.92937686755303 81.09473514556885 77.15936088562012 C81.86430545806883 76.21963432312012 82.63387577056886 75.27990776062012 83.42676639556885 74.31170463562012 C84.88042944202633 72.533259214819 86.33223286279065 70.75329226160477 87.78223514556885 68.97186088562012 C90.81840880290139 65.27921724832379 93.91323484874374 61.638143002878394 97.00879764556885 57.99529838562012 C99.90718337458844 54.578765487166834 102.76628614930166 51.134312509605536 105.59473514556885 47.65936088562012 C108.88297693795073 43.61952096926524 112.22221775270674 39.62867559605667 115.59473514556885 35.65936088562012 C119.18355084238237 31.430698371264782 122.7523091388232 27.187387380451554 126.28223514556885 22.909360885620117 C126.65026248931883 22.463345260620116 126.65026248931883 22.463345260620116 128.51270389556885 20.206235885620117 C130.09473514556885 18.159360885620117 130.09473514556885 18.159360885620117 130.09473514556885 17.159360885620117 C92.80473514556886 17.159360885620117 55.514735145568864 17.159360885620117 17.094735145568848 17.159360885620117 Z M168.09473514556885 17.159360885620117 C171.92790917763017 22.27025959503524 175.72365111275684 27.179453643138118 179.90723514556885 31.971860885620117 C184.29515984370505 37.04330097484288 188.58960873586057 42.175651871133084 192.81739139556885 47.38201713562012 C195.3767756824118 50.50332455919698 197.9806730554406 53.58386118468488 200.59473514556885 56.65936088562012 C204.70922744167808 61.501151664590736 208.75204083562483 66.39500499484205 212.76270389556885 71.32342338562012 C215.89789477551489 75.13606757128315 219.08887273351405 78.90009652909819 222.29004764556885 82.65740776062012 C224.9480366511292 85.78191696037172 227.5488358482462 88.9428634050866 230.09473514556885 92.15936088562012 C233.4312652957143 91.04718416890495 233.75191536606428 90.60057880249536 235.58057498931885 87.78997611999512 C236.05383716583253 87.07139930725097 236.52709934234622 86.35282249450682 237.01470279693604 85.61247062683105 C237.52322284698488 84.82228034973144 238.03174289703372 84.03209007263183 238.55567264556885 83.21795463562012 C239.0945259475708 82.39501411437988 239.63337924957273 81.57207359313963 240.18856143951416 80.72419548034668 C241.95669112215876 78.02004639746121 243.71324076353932 75.30857917630414 245.46973514556885 72.59686088562012 C246.68161595561827 70.73828848672059 247.89426759900175 68.88021849012495 249.10767459869385 67.02264213562012 C251.57499867726483 63.24362512034932 254.03818565620332 59.46195940041201 256.49854373931885 55.67840385437012 C259.8315097983148 50.5571804003676 263.1867430438911 45.45096809644434 266.55176639556885 40.35076713562012 C267.5337135355134 38.8612741127252 268.51564753230133 37.371772425115296 269.49756717681885 35.88226127624512 C270.88444339564967 33.778721028415845 272.2716434028326 31.67539957574496 273.6601037979126 29.572904586791992 C274.92567353970907 27.65524594643324 276.1883277051271 25.735701248488454 277.45020389556885 23.815610885620117 C278.1581409072876 22.741177291870116 278.86607791900633 21.666743698120115 279.59546756744385 20.559751510620117 C281.09473514556885 18.159360885620117 281.09473514556885 18.159360885620117 281.09473514556885 17.159360885620117 C243.80473514556888 17.159360885620117 206.51473514556886 17.159360885620117 168.09473514556885 17.159360885620117 Z M148.09473514556885 23.159360885620117 C146.3705477382507 25.017347668462094 144.75821190190618 26.886537770395847 143.15723514556885 28.846860885620117 C142.16133241303396 30.046238272629807 141.16523317223005 31.245452511825334 140.16895389556885 32.44451713562012 C139.65896854400637 33.062139205932624 139.14898319244384 33.67976127624513 138.62354373931885 34.31609916687012 C136.71697539904682 36.61482017757817 134.78413419624042 38.89032821998123 132.84839725494385 41.16448783874512 C128.30210968614028 46.50619458905709 123.83536912575602 51.90658199567588 119.40723514556885 57.34686088562012 C116.37106148823625 61.039504522916474 113.27623544239395 64.68057876836184 110.18067264556885 68.32342338562012 C106.54559931887508 72.6083422232312 102.98314635962512 76.94841494307161 99.44239139556885 81.31170463562012 C97.67932299801896 83.4502684655933 95.89868236728879 85.56314306790378 94.09082889556885 87.66326713562012 C93.58293827056886 88.25494682312012 93.07504764556884 88.84662651062013 92.55176639556885 89.45623588562012 C91.55466957177484 90.61481625671237 90.55349004329548 91.76989804216987 89.54786014556885 92.92107963562012 C86.09473514556885 96.93818207115021 86.09473514556885 96.93818207115021 86.09473514556885 99.15936088562012 C127.67473514556889 99.15936088562012 169.25473514556887 99.15936088562012 212.09473514556885 99.15936088562012 C208.72240989592547 93.53881880288117 208.72240989592547 93.53881880288117 206.49317264556885 90.99529838562012 C206.0077600479126 90.43640922546388 205.52234745025635 89.87752006530764 205.02222537994385 89.30169486999512 C204.5099036026001 88.71847465515137 203.99758182525636 88.13525444030762 203.46973514556885 87.53436088562012 C202.38411604918122 86.2839121388094 201.29948908571788 85.03260138545744 200.21582889556885 83.78045463562012 C199.94955692291262 83.47293266296387 199.94955692291262 83.47293266296387 198.60205936431885 81.91668510437012 C195.79402534847634 78.64291949924632 193.0907123598775 75.28460588190254 190.37207889556885 71.93670463562012 C187.8126946087259 68.8153972120432 185.2087972356971 65.73486058655536 182.59473514556885 62.65936088562012 C178.476024050633 57.81260557158981 174.42872583338487 52.9140519462685 170.41504764556885 47.97967338562012 C167.34080875717706 44.24297224518429 164.20193185013113 40.562905701716204 161.05982303619385 36.88323783874512 C157.69580813817828 32.924413986633425 154.51023481808187 28.859686845497293 151.43457889556885 24.671079635620117 C150.99243045806884 24.17221244812012 150.55028202056883 23.673345260620124 150.09473514556885 23.159360885620117 C149.43473514556888 23.159360885620117 148.77473514556885 23.159360885620117 148.09473514556885 23.159360885620117 Z M-0.9052648544311523 24.159360885620117 C-2.6719787100738586 26.575829399204963 -4.39070208093375 29.01024654563787 -6.092764854431152 31.471860885620117 C-10.648990258795578 37.99885106151683 -15.291333990576732 44.45131498942459 -20.030264854431152 50.84686088562012 C-24.45040179429634 56.817944111305025 -28.837098585669906 62.80749045644632 -33.13475704193115 68.86736869812012 C-35.49045805355965 72.18702953209123 -37.868849915952126 75.48849988936567 -40.26854610443115 78.77654838562012 C-40.850477256774894 79.57568656921387 -41.43240840911865 80.37482475280763 -42.03197383880615 81.19817924499512 C-43.16533685260592 82.75317039296087 -44.3014040391642 84.3061956059662 -45.44066524505615 85.85687065124512 C-45.962654991149904 86.57415336608886 -46.484644737243656 87.29143608093261 -47.02245235443115 88.03045463562012 C-47.48248653411865 88.65879203796385 -47.94252071380615 89.28712944030764 -48.41649532318115 89.93450736999512 C-50.40637995179728 92.90823951505558 -52.13003538154041 96.05270930806131 -53.90526485443115 99.15936088562012 C-19.915264854431143 99.15936088562012 14.074735145568866 99.15936088562012 49.09473514556885 99.15936088562012 C43.47055013878281 89.03582787340525 43.47055013878281 89.03582787340525 41.10303592681885 85.55535697937012 C40.570763893127435 84.76867134094238 40.03849185943602 83.98198570251463 39.49009037017822 83.17146110534668 C38.92907627105711 82.35020240783692 38.36806217193603 81.52894371032716 37.79004764556885 80.68279838562012 C37.19318149566652 79.80204139709474 36.59631534576414 78.92128440856933 35.98136234283447 78.01383781433105 C34.063972496535655 75.18519207804613 32.141834220504734 72.35980815813167 30.219735145568848 69.53436088562012 C27.600003236858356 65.67280010381106 24.983374796673644 61.80914684760168 22.368172645568848 57.94451713562012 C21.73189945220946 57.00458412170411 21.095626258850103 56.06465110778808 20.440072059631348 55.096235275268555 C14.867472434339135 46.85083730047813 9.403828352976063 38.540726823654325 4.044442176818848 30.154966354370117 C3.782037391662584 29.746414108276383 3.782037391662584 29.746414108276383 2.4541101455688477 27.678892135620117 C2.015506629943843 26.989001998901358 1.5769031143188386 26.299111862182627 1.1250085830688477 25.588315963745117 C0.7850183486938533 25.11676078796387 0.445028114318859 24.64520561218262 0.09473514556884766 24.159360885620117 C-0.23526485443113643 24.159360885620117 -0.5652648544311489 24.159360885620117 -0.9052648544311523 24.159360885620117 Z M298.09473514556885 24.159360885620117 C297.23713572867194 25.288415633092512 296.42742529198136 26.453839932017047 295.63648319244385 27.630552291870117 C295.1198511123657 28.39561592102052 294.6032190322876 29.160679550170897 294.07093143463135 29.94892692565918 C293.5051538467407 30.794385757446292 292.9393762588501 31.639844589233405 292.35645389556885 32.51092338562012 C291.76755374908447 33.3851847076416 291.1786536026001 34.25944602966308 290.57190799713135 35.160200119018555 C288.6384904100661 38.03256660151041 286.71016410600885 40.90830810813168 284.78223514556885 43.78436088562012 C283.4631615143758 45.74794272474094 282.143906365833 47.711402638055205 280.82447147369385 49.67474174499512 C278.17147785836363 53.624038024447856 275.5208943232453 57.574936961644255 272.87207889556885 61.52703666687012 C269.99008574687343 65.82640499037169 267.1016853903785 70.12138780147455 264.20891666412354 74.41351127624512 C262.32840349435986 77.20513736400949 260.4518174104854 79.99938355327461 258.5765771865845 82.79455375671387 C257.7152138559009 84.07714493833242 256.8524045956143 85.35876626884956 255.98813724517822 86.63940238952637 C254.80443339319055 88.39445894536544 253.62653308934517 90.15326253247187 252.45020389556885 91.91326713562012 C251.7968909072876 92.88594535827639 251.14357791900636 93.8586235809326 250.47046756744385 94.86077690124512 C249.09473514556885 97.15936088562012 249.09473514556885 97.15936088562012 249.09473514556885 99.15936088562012 C283.08473514556886 99.15936088562012 317.07473514556887 99.15936088562012 352.09473514556885 99.15936088562012 C347.59773495203297 91.28961054693227 347.59773495203297 91.28961054693227 344.99317264556885 87.81170463562012 C344.4259045791626 87.04914360046388 343.85863651275633 86.28658256530761 343.27417850494385 85.50091361999512 C342.6787121963501 84.70757621765136 342.08324588775633 83.91423881530761 341.46973514556885 83.09686088562012 C340.2072255346885 81.39953219220777 338.9455109581437 79.70161185548054 337.68457889556885 78.00311088562012 C337.06953495025635 77.17553276062011 336.45449100494386 76.34795463562011 335.82080936431885 75.49529838562012 C333.52365226943033 72.38650077828021 331.2697297470529 69.24876112073821 329.03223514556885 66.09686088562012 C324.7489321916966 60.066281582274 320.41867884563646 54.070801196836044 316.07788944244385 48.08148002624512 C313.2353956742504 44.15119629073649 310.4165867447039 40.20640827884543 307.63379764556885 36.23357963562012 C307.0812732315063 35.445076217651376 306.52874881744384 34.656572799682635 305.95948123931885 33.84417533874512 C304.8994822088756 32.32789913266356 303.84241574745215 30.809567740894806 302.78858280181885 29.288999557495117 C301.5816009196065 27.561880696640458 300.34171177395535 25.85782905187071 299.09473514556885 24.159360885620117 C298.76473514556886 24.159360885620117 298.4347351455689 24.159360885620117 298.09473514556885 24.159360885620117 Z M-49.90526485443115 117.15936088562012 C-47.76091612201881 120.73327543964069 -46.4464987830473 122.86669845273269 -43.64647579193115 125.62933158874512 C-43.00861141204834 126.26381721496583 -42.370747032165525 126.89830284118653 -41.7135534286499 127.55201530456543 C-41.02916194915771 128.22294715881347 -40.34477046966552 128.89387901306154 -39.63963985443115 129.58514213562012 C-38.928016929626466 130.2915634918213 -38.21639400482178 130.9979848480225 -37.4832067489624 131.7258129119873 C-35.21194160870772 133.9793167973823 -32.93411022626914 136.22602479861422 -30.655264854431152 138.47186088562012 C-28.39154033414414 140.70780223409997 -26.12935288576469 142.9452438154322 -23.870169639587402 145.1857738494873 C-22.467199629985544 146.576667676537 -21.06156727074881 147.96488334412345 -19.652762413024902 149.34986686706543 C-15.79134714208115 153.17251254823975 -12.158102115319792 157.11475632708692 -8.609915733337402 161.2286205291748 C-5.911037927917192 164.28545308094215 -3.0271782370784024 167.14175467926265 -0.12401485443115234 170.00311088562012 C0.4931641006469647 170.6165032196045 1.1103430557250817 171.2298955535889 1.7462244033813477 171.86187553405762 C3.693275525659999 173.7968614644309 5.643559212994319 175.72853493793957 7.594735145568848 177.65936088562012 C21.974120690047357 191.88877518776735 21.974120690047357 191.88877518776735 27.139657020568848 197.98162651062012 C32.35316053942958 203.7888756849755 38.04931195532805 209.1717742421859 43.59473514556885 214.65936088562012 C57.97412069004747 228.88877518776746 57.97412069004747 228.88877518776746 63.13965702056885 234.98162651062012 C68.35316053942961 240.7888756849755 74.04931195532802 246.17177424218585 79.59473514556885 251.65936088562012 C94.14759169522128 266.06043695971124 94.14759169522128 266.06043695971124 99.29639530181885 272.1339702606201 C103.63869765160453 277.0245133360779 108.39002516128744 281.5551020241471 113.03223514556885 286.1593608856201 C114.10864168169951 287.23073975825525 115.18481528664364 288.3023527082606 116.26075077056885 289.3742046356201 C118.86940259204073 291.9719572619983 121.48117985818487 294.5665405053129 124.09473514556885 297.1593608856201 C125.28735615700526 293.5814978513108 124.83462901744912 292.7334669457261 123.56617069244385 289.2721538543701 C123.20303272247315 288.26735984802247 122.83989475250246 287.2625658416748 122.46575260162354 286.2273235321045 C122.05843402862547 285.12981773376464 121.6511154556274 284.0323119354248 121.23145389556885 282.9015483856201 C120.81313800811768 281.75239952087406 120.3948221206665 280.6032506561279 119.96382999420166 279.41927909851074 C118.81817171147748 276.27771880002524 117.66437693469823 273.13937675889156 116.5069055557251 270.00216484069824 C115.28924908411784 266.69568345664595 114.08225030161384 263.38531557781107 112.87403202056885 260.0753765106201 C110.18491038703633 252.71467833072956 107.48078161393721 245.35954549830433 104.77392673492432 238.0053539276123 C103.7372242774081 235.1876725057807 102.70232257312304 232.3693307111439 101.66748905181885 229.55096244812012 C98.76043524179892 221.63366112837264 95.85333641658877 213.7163868109251 92.93653202056885 205.80267143249512 C88.74696879631114 194.42863585930058 84.59676225774842 183.04091030383387 80.48145389556885 171.63982963562012 C80.0016523074668 170.31118368893732 79.52184478309431 168.98253988594962 79.04203128814697 167.65389823913574 C77.16393452758399 162.4520923897419 75.28600988153929 157.25023189043094 73.41578006744385 152.04559135437012 C72.12759302749649 148.46154353785175 70.83597464311458 144.87874685612724 69.54395389556885 141.29607963562012 C69.16760303497313 140.24502540588378 68.79125217437746 139.19397117614744 68.40349674224854 138.1110668182373 C65.83917777101755 131.01159841927375 63.00597944742759 124.1463472100811 60.09473514556885 117.15936088562012 C23.794735145568836 117.15936088562012 -12.505264854431175 117.15936088562012 -49.90526485443115 117.15936088562012 Z M79.09473514556885 117.15936088562012 C82.46935735479181 128.40810158303 82.46935735479181 128.40810158303 84.21338748931885 133.15740776062012 C84.6066925430298 134.2330599212646 84.99999759674071 135.30871208190916 85.4052209854126 136.41695976257324 C85.82612003326415 137.5591396331787 86.24701908111572 138.7013195037842 86.68067264556885 139.87811088562012 C87.3695353115038 141.75915502704106 88.05839614062859 143.64019984217225 88.74718570709229 145.52127075195313 C89.47991133028705 147.52071651496715 90.21402707864385 149.51964674337034 90.9485559463501 151.51843070983887 C93.29337274507708 157.89952116214295 95.62943838038689 164.28381756855134 97.96613025665283 170.6678867340088 C98.50151485978012 172.1304742640745 99.03701005766291 173.59302131515483 99.57261371612549 175.05552864074707 C104.56504911346016 188.68789417437114 109.51034303650817 202.33687218933358 114.4406213760376 215.991849899292 C123.06958109480968 239.88979027994708 131.80442029559708 263.74705310261277 140.60889530181885 287.5807476043701 C141.03749851226803 288.74114051818844 141.46610172271727 289.90153343200683 141.90769290924072 291.09708976745605 C142.70982645546331 293.26807582579954 143.512471565733 295.4388729644911 144.31571292877197 297.6094493865967 C144.66914768218993 298.56556617736817 145.0225824356079 299.52168296813966 145.38672733306885 300.5067729949951 C145.69422916412356 301.33777015686036 146.0017309951782 302.1687673187256 146.3185510635376 303.02494621276855 C146.93746653082098 304.7268907452657 147.5220509789168 306.441308385664 148.09473514556885 308.1593608856201 C148.75473514556882 308.1593608856201 149.41473514556884 308.1593608856201 150.09473514556885 308.1593608856201 C150.3392642593384 307.4795314788818 150.58379337310794 306.79970207214353 150.83573246002197 306.099271774292 C171.66815561984458 248.1891676660265 171.66815561984458 248.1891676660265 179.15723514556885 227.97186088562012 C186.47522866235227 208.21367316492427 193.62931855098918 188.39628856814386 200.79239749908447 168.5815715789795 C201.2286142349243 167.3748983001709 201.66483097076417 166.16822502136233 202.11426639556885 164.92498588562012 C202.54476291656493 163.7340230560303 202.97525943756102 162.54306022644045 203.41880130767822 161.31600761413574 C205.97204972391694 154.25517475630318 208.5334301463207 147.19738603231468 211.10645389556885 140.14373588562012 C211.39798343658447 139.34422004699707 211.6895129776001 138.54470420837401 211.98987674713135 137.72096061706543 C213.28977162796974 134.15691267427997 214.59146641791904 130.59353792722231 215.89600467681885 127.03118705749512 C216.32896854400633 125.84500785827638 216.7619324111938 124.65882865905763 217.20801639556885 123.43670463562012 C217.5770911026001 122.42857719421386 217.94616580963134 121.4204497528076 218.32642459869385 120.38177299499512 C219.09473514556885 118.15936088562009 219.09473514556885 118.15936088562009 219.09473514556885 117.15936088562012 C172.89473514556886 117.15936088562012 126.69473514556887 117.15936088562012 79.09473514556885 117.15936088562012 Z M238.09473514556885 117.15936088562012 C235.02983160821037 124.51512937528045 232.0602074268519 131.77227636569262 229.40723514556885 139.26482963562012 C228.7125759673093 141.20753878424642 228.01791439492013 143.15024707679925 227.32325077056885 145.09295463562012 C227.14233890533444 145.60076469421386 227.14233890533444 145.60076469421386 226.22681522369385 148.17059135437012 C219.14243458907873 168.04719089207617 211.91349456264192 187.86800025174864 204.59473514556885 207.65936088562012 C196.85511352915188 228.59486031136692 189.22375244254772 249.56671466870318 181.69043827056885 270.5773296356201 C181.334143409729 271.57086952209477 180.97784854888914 272.5644094085693 180.61075687408447 273.58805656433105 C179.95411880088386 275.42005310582596 179.2981168958293 277.25227786517564 178.64292240142822 279.0847911834717 C178.34971103668215 279.90354225158694 178.05649967193602 280.72229331970215 177.75440311431885 281.5658550262451 C177.61694675445557 281.95205513000485 177.61694675445557 281.95205513000485 176.9213342666626 283.90646171569824 C176.36439940226632 285.42438988871476 175.78223018942788 286.93326728458527 175.1768274307251 288.432523727417 C172.99501506004367 293.8602006290446 172.99501506004367 293.8602006290446 174.09473514556885 297.1593608856201 C177.81508863640522 293.46394531134604 181.53197740654628 289.7650900669362 185.24585819244385 286.0631694793701 C186.50665729353778 284.80736268535674 187.7683569070819 283.5524592483234 189.03101444244385 282.2985210418701 C200.890900901907 270.51842012645557 200.890900901907 270.51842012645557 204.52832889556885 266.2218608856201 C210.88293321254645 258.7446860360392 218.16602250863167 252.03850313684097 225.13379764556885 245.14080619812012 C238.095946649192 232.29751859945293 238.095946649192 232.29751859945293 243.15723514556885 226.31951713562012 C248.97556984859432 219.83254316228727 255.36917811004935 213.84084705064254 261.56104373931885 207.71356010437012 C274.03469778143847 195.3584947171418 274.03469778143847 195.3584947171418 277.59473514556885 191.15936088562012 C283.7473979498003 183.90217454384015 290.8040239545957 177.40010687420414 297.56104373931885 170.71356010437012 C299.4806485630641 168.81220521390043 301.39711413913403 166.9077242473448 303.31348514556885 165.00311088562012 C303.88973636627196 164.43515800476075 304.4659875869751 163.86720512390139 305.05970096588135 163.28204154968262 C308.0170906593935 160.3421752288757 310.8419185725039 157.34058923873943 313.56787967681885 154.18401908874512 C316.97580311917886 150.24317542718074 320.588813678937 146.56904496100202 324.30567264556885 142.92107963562012 C325.64564353276626 141.59373401147752 326.9854836368203 140.26625634933805 328.32520389556885 138.93865776062012 C330.41041733440665 136.87840361987696 332.4972221205129 134.81980824926518 334.58643436431885 132.76360893249512 C336.6221898270144 130.75793735899697 338.6517764884631 128.74618621437102 340.68067264556885 126.73357963562012 C341.3097653579712 126.11794654846193 341.9388580703735 125.50231346130371 342.5870141983032 124.8680248260498 C342.8759907913208 124.58073760986326 342.8759907913208 124.58073760986326 344.33838748931885 123.12689018249512 C344.5931938552857 122.87581253051758 344.5931938552857 122.87581253051758 345.8826684951782 121.6052074432373 C347.09473514556885 120.15936088562009 347.09473514556885 120.15936088562009 348.09473514556885 117.15936088562012 C311.79473514556884 117.15936088562012 275.4947351455688 117.15936088562012 238.09473514556885 117.15936088562012 Z " fill="#FFFFFF" transform="translate(150.90526485443115,125.84063911437988)"/>
</svg>
