<?xml version="1.0" encoding="UTF-8"?>
<!-- Generator: visioncortex VTracer 0.6.12 -->
<svg version="1.1" xmlns="http://www.w3.org/2000/svg" width="601" height="601">
<path d="M0 0 C17.086583727304856 14.327259647118979 27.26423314992644 32.97989543921099 30.515625 55.109375 C30.621960679540166 57.240179235623344 30.68340597656112 59.37352760223456 30.70849609375 61.5068359375 C30.724559020996082 62.75543395996095 30.740621948242165 64.00403198242188 30.757171630859375 65.29046630859375 C30.76866144324265 66.6415538363307 30.779269585371196 67.99264910731358 30.7890625 69.34375 C30.79438617706296 70.03185005187987 30.79970985412598 70.71995010375977 30.805194854736328 71.42890167236328 C30.83182668180683 75.07140482832182 30.851232815106414 78.71387490225365 30.86572265625 82.3564453125 C30.879047226082264 85.35154861918849 30.906885292158563 88.34596827188011 30.94775390625 91.3408203125 C30.997374978670223 94.97884006840906 31.021878247405596 98.61624167114798 31.028949737548828 102.25458526611328 C31.03561125609167 103.63076805305752 31.050698388325543 105.00693980611243 31.074840545654297 106.38292694091797 C31.24238624499924 116.50972375122683 29.908783050300144 123.91398808834072 23.26953125 131.765625 C16.697142846280485 137.29533502951088 12.288414440041379 139.46028657760166 3.515625 139.109375 C3.3931640624999773 139.8376953125 3.2707031250000114 140.566015625 3.14453125 141.31640625 C0.3954934691684002 153.52486595990422 -8.567840927242969 163.489824243346 -18.63671875 170.359375 C-32.95353461758299 179.1576377005174 -49.070194795879274 182.49805139652398 -65.605712890625 178.97802734375 C-81.60089475385473 175.15642061712225 -94.54640812474253 166.01794590282418 -103.484375 152.109375 C-109.9098514153226 140.31794221656224 -110.79902412316275 129.28778719571835 -110.78515625 116.12109375 C-110.7890524273611 114.57086575608471 -110.79338896432557 113.02063881317508 -110.79814147949219 111.47041320800781 C-110.80557024485077 108.23194915836461 -110.805337266039 104.99359418493174 -110.800048828125 101.755126953125 C-110.79426481576942 97.63670720815202 -110.8111754859849 93.51873875705584 -110.83439350128174 89.40039348602295 C-110.84923804106242 86.20102902551065 -110.84998799387111 83.00177051026148 -110.84688377380371 79.80237770080566 C-110.84739182215432 78.28556234404834 -110.8525307308181 76.76874022817242 -110.86269569396973 75.2519588470459 C-110.96090054492743 58.54879397679812 -107.9622392106414 43.79083836504691 -96.214599609375 31.232421875 C-84.17411824572838 19.052843321996477 -69.75587195155231 12.956820926916322 -52.546875 12.796875 C-35.50973064641249 12.780213661394953 -21.135480571056576 18.939529604570907 -8.73828125 30.66015625 C0.1572312337374342 40.326510370109844 5.655102548977595 52.394257668350974 5.629150390625 65.552001953125 C5.629112625122048 66.19247718811036 5.629112625122048 66.19247718811036 5.6289215087890625 69.43367004394531 C5.623815653988686 70.82166584581734 5.618599671767697 72.20966124634992 5.61328125 73.59765625 C5.6114147471596425 75.0254053791115 5.60999194007627 76.45315515130085 5.6089935302734375 77.88090515136719 C5.605186645223114 81.62751044934026 5.595372068537131 85.37407660489299 5.58428955078125 89.12066650390625 C5.574036024275415 92.94827749251309 5.569487480253713 96.77589484293401 5.564453125 100.603515625 C5.55374807336608 108.10548653908893 5.536693732320373 115.60742527194662 5.515625 123.109375 C11.265625 120.484375 11.265625 120.484375 13.515625 117.109375 C13.789779663085938 114.46455383300776 13.789779663085938 114.46455383300776 13.822021484375 111.239501953125 C13.838008880615234 110.03006423950194 13.853996276855469 108.82062652587891 13.870468139648438 107.57453918457031 C13.873149490356468 106.91835350036621 13.873149490356468 106.91835350036621 13.88671875 103.59765625 C13.895697120297768 102.2277975285181 13.904819166333084 100.85793974192057 13.914077758789063 99.48808288574219 C13.930585875527186 96.60718414376396 13.938268746821905 93.72640164473 13.941162109375 90.845458984375 C13.94543775533441 87.91930369685497 13.96605383563957 84.99404229988642 14.002685546875 82.068115234375 C14.386152778497603 50.91344619062201 14.386152778497603 50.91344619062201 8.515625 38.109375 C8.038752441406245 37.06273681640624 7.561879882812491 36.016098632812486 7.070556640625 34.937744140625 C3.7159335707285095 27.988119958592478 -1.0750642734722078 22.546713243245563 -6.484375 17.109375 C-7.0760546875000045 16.48289062500001 -7.667734375000009 15.856406249999992 -8.27734375 15.2109375 C-20.537474984493088 3.2485136464769226 -38.79543904920877 -1.8725633810056337 -55.484375 -1.890625 C-65.21729778972019 -1.3010757120764254 -73.56849083297692 1.283025811401373 -82.484375 5.109375 C-84.13437499999998 5.769374999999997 -85.78437500000001 6.429374999999993 -87.484375 7.109375 C-91.114375 3.4793750000000045 -94.74437499999999 -0.15062500000000512 -98.484375 -3.890625 C-73.12259468212079 -29.25240531787918 -25.508320386616845 -19.704031915410624 0 0 Z M-87.296875 45.359375 C-94.40750602699802 55.357234930683205 -95.08947468598302 65.44865965735008 -95.015625 77.36328125 C-95.01832702322713 78.91544333888686 -95.02221531262086 80.4676037649077 -95.0272216796875 82.01976013183594 C-95.03308170816763 85.25479428022933 -95.02466694977443 88.48938329701602 -95.005859375 91.724365234375 C-94.98305211992806 95.84535113518416 -94.99622558863655 99.96529565316152 -95.02014923095703 104.08624362945557 C-95.034686384488 107.28557513318512 -95.02996562452319 110.48466455681373 -95.01963806152344 113.68400382995605 C-95.01699355534492 115.20246444630234 -95.02015921810613 116.7209479482897 -95.02955627441406 118.23938179016113 C-95.08559085113933 129.83272407322937 -93.5258625379276 138.64737612090977 -86.484375 148.109375 C-86.2059375 148.52187500000002 -86.2059375 148.52187500000002 -84.796875 150.609375 C-77.48689818101025 158.51205264215105 -66.82498381146405 163.58688125729373 -56.13671875 164.34765625 C-41.89163562275655 164.63225833140655 -30.812123168666687 161.09721508014968 -20.37890625 151.08984375 C-16.79170198644465 147.22158018332073 -15.095760971642108 144.167766913651 -13.484375 139.109375 C-18.025702969118925 138.96379090156208 -22.566428405785246 138.87520166541748 -27.109375 138.796875 C-28.39457031249998 138.75498046875 -29.679765625000016 138.7130859375 -31.00390625 138.669921875 C-41.66340299052638 138.5318454923507 -41.66340299052638 138.5318454923507 -45.171875 141.56640625 C-45.935 142.4055859375 -46.698125000000005 143.244765625 -47.484375 144.109375 C-52.517719263943206 145.60073626339056 -56.04055372431884 145.06297143979532 -60.75390625 143.06640625 C-64.23367982602002 141.1419265070544 -65.26596392332601 138.76460823002196 -66.484375 135.109375 C-66.88004515220393 129.8667454832977 -66.32029701182216 126.56582387572053 -63.484375 122.109375 C-60.50090008212965 118.78165297622155 -57.01667858452805 118.39122562372762 -52.734375 118.0390625 C-49.390330019628834 118.1435639056366 -47.23659120225727 119.27456419849517 -44.484375 121.109375 C-44.08565185546877 121.63442626953125 -43.686928710937536 122.1594775390625 -43.276123046875 122.700439453125 C-40.50375548469651 124.88048212942041 -37.56518690298253 124.47866352156336 -34.19140625 124.40234375 C-33.48537765502931 124.39809890747068 -32.77934906005862 124.39385406494142 -32.05192565917969 124.38948059082031 C-29.799851968659823 124.37270533879428 -27.548677575210718 124.33505742609134 -25.296875 124.296875 C-23.76889314529126 124.28182657127098 -22.240897244139603 124.26813843815606 -20.712890625 124.255859375 C-16.969706279981096 124.22280588726966 -13.227193041545092 124.17103331867037 -9.484375 124.109375 C-9.437829350189418 116.57219887426476 -9.402393637454509 109.03503784580761 -9.38075065612793 101.4977502822876 C-9.37035786352368 97.9970647070574 -9.356282100486624 94.49647819387397 -9.33349609375 90.995849609375 C-9.307407037452549 86.96206769476859 -9.297865020806569 82.92838821813433 -9.2890625 78.89453125 C-9.278739929199219 77.6504298400879 -9.268417358398438 76.40632843017579 -9.257781982421875 75.12452697753906 C-9.256089164215382 61.89520912103973 -11.908863112278823 50.92812960504685 -20.984375 40.859375 C-31.04577189079913 31.40244187589616 -43.38912611329437 28.52165721424953 -56.7890625 28.76953125 C-69.27596830558105 29.377479593261626 -79.40846799344104 36.02003478081815 -87.296875 45.359375 Z " fill="#FFFFFF" transform="translate(351.484375,114.890625)"/>
<path d="M0 0 C2.494401504291602 2.206294339662179 4.913209400935216 4.472590225342117 7.3203125 6.7734375 C7.663847656250027 7.07958984375 7.663847656250027 7.07958984375 9.40234375 8.62890625 C26.22885700076131 24.194260716680617 34.71066736434386 48.36040424819919 36.3203125 70.7734375 C36.44334110518923 74.36588975819399 36.44749975080538 77.95308859556303 36.433837890625 81.54736328125 C36.43398391723633 82.57294845581055 36.434129943847665 83.5985336303711 36.43428039550781 84.65519714355469 C36.43358956329291 88.00973707260056 36.425836375165375 91.36421989671351 36.41796875 94.71875 C36.416101619770075 97.05858326902285 36.414679109694816 99.39841693130722 36.41368103027344 101.73825073242188 C36.409879089784795 107.87020971740299 36.400068819712715 114.0021446844296 36.38897705078125 120.13409423828125 C36.378712800107905 126.40189285488617 36.37417270047598 132.6696953853288 36.369140625 138.9375 C36.358444309985885 151.21615633436727 36.34139602365735 163.49479491290379 36.3203125 175.7734375 C31.040312500000027 175.7734375 25.760312499999998 175.7734375 20.3203125 175.7734375 C20.314446258544933 174.45371444702153 20.308580017089866 173.13399139404294 20.302536010742188 171.77427673339844 C20.245109331085075 159.2848246736021 20.172244701889667 146.79554340069956 20.08459758758545 134.30626583099365 C20.040033776235532 127.88672601115331 20.000747241989416 121.46724761832797 19.973876953125 115.047607421875 C19.94770394352406 108.84236034494393 19.907203866457564 102.63735144519472 19.857126235961914 96.43225288391113 C19.84055170893373 94.0750482654725 19.828979244887364 91.71780254142163 19.82269859313965 89.36054801940918 C19.74032330257478 61.26343129892547 15.042497845214939 38.53064987031155 -4.9296875 17.37109375 C-16.676325296820323 6.275192990219466 -31.822497023119297 -1.2813190979047704 -47.6796875 -4.2265625 C-48.025800781249984 -4.291660156249975 -48.025800781249984 -4.291660156249975 -49.77734375 -4.62109375 C-51.75039253424143 -4.924951365642926 -53.68710170981922 -5.1036553391103325 -55.6796875 -5.2265625 C-56.10185546874999 -5.252988281249998 -56.10185546874999 -5.252988281249998 -58.23828125 -5.38671875 C-80.88015503728332 -6.093317253538032 -101.78214716035029 1.9557738115946108 -118.32958984375 17.382568359375 C-134.89380973125014 33.446236028778515 -142.81740094769864 53.930319602487714 -143.2255859375 76.779296875 C-143.28040504745573 81.39212021090839 -143.28744728827664 86.00408408314263 -143.2890625 90.6171875 C-143.30407046398057 93.08297802375944 -143.3208030211426 95.54875859358958 -143.33917236328125 98.0145263671875 C-143.38256406119623 104.45217390626061 -143.4027821811633 110.88968590395041 -143.41790771484375 117.32745361328125 C-143.43758101594034 123.91760174382568 -143.4795391025659 130.5076056458775 -143.51953125 137.09765625 C-143.59452773859041 149.98953853437558 -143.64500363680787 162.88138806441384 -143.6796875 175.7734375 C-148.9596875 175.7734375 -154.2396875 175.7734375 -159.6796875 175.7734375 C-159.749517337584 161.85523718124477 -159.80266524286475 147.93707925710817 -159.8351240158081 134.01873874664307 C-159.85071071695947 127.55433988663094 -159.8718198969293 121.09006180109725 -159.906005859375 114.625732421875 C-159.93885037543504 108.37520617122982 -159.95659297345088 102.12479533601436 -159.96431922912598 95.87418937683105 C-159.96981802101493 93.50184248488233 -159.98055433932532 91.1295011622459 -159.9968776702881 88.75720405578613 C-160.2091537991552 56.59737945083748 -153.7632287178735 29.320678227585972 -130.6796875 5.7734375 C-95.69453571093169 -28.475669018029407 -37.688905472032616 -31.315854400960006 0 0 Z " fill="#FFFFFF" transform="translate(362.6796875,328.2265625)"/>
</svg>
