<?xml version="1.0" encoding="UTF-8"?>
<!-- Generator: visioncortex VTracer 0.6.12 -->
<svg version="1.1" xmlns="http://www.w3.org/2000/svg" width="600" height="600">
<path d="M0 0 C0.8595025634765534 0.0002114868164113659 1.7190051269531068 0.00042297363280852096 2.60455322265625 0.000640869140625 C16.441905701124256 0.03456619475421974 29.664214931759204 0.9419929390381157 43.125 4.375 C43.93598144531251 4.578188476562502 44.746962890625014 4.7813769531250045 45.58251953125 4.99072265625 C52.63449713422415 6.80384454449198 59.60581243531624 8.729002065809766 66.017333984375 12.2568359375 C68.03341411369206 13.326411634508247 70.0603444155559 14.269037819532386 72.15234375 15.1796875 C72.88509521484377 15.499536132812494 73.61784667968749 15.819384765625003 74.372802734375 16.14892578125 C75.11602783203125 16.471030273437492 75.8592529296875 16.793134765625 76.625 17.125 C77.35726806640628 17.4432373046875 78.0895361328125 17.761474609375 78.843994140625 18.08935546875 C80.60356176153743 18.853008232839613 82.36417345575785 19.614254551274016 84.125 20.375 C84.125 21.034999999999997 84.125 21.694999999999993 84.125 22.375 C84.82625000000002 22.636679687499992 85.52749999999997 22.898359375 86.25 23.16796875 C93.73037873999374 26.308508193828885 100.61528389989002 30.393022519880617 106.125 36.375 C107.25647135485468 37.187060780996205 108.40368657338968 37.97745771559312 109.5625 38.75 C112.86894955039412 41.023632337255805 115.20351566466542 43.64609379894878 117.71875 46.75 C119.125 48.375 119.125 48.375 121.75 50.4375 C124.58512284945698 52.75036337718859 126.13022670644523 55.32050339424424 128.125 58.375 C128.90875 59.15875 129.6925 59.942499999999995 130.5 60.75 C135.85745041072374 66.10745041072371 139.73552456916235 72.21696415710954 143.5 78.75 C143.85811767578127 79.36931396484374 144.2162353515625 79.98862792968748 144.585205078125 80.626708984375 C147.125 85.12324271163703 147.125 85.12324271163703 147.125 87.375 C147.78500000000003 87.70499999999998 148.445 88.035 149.125 88.375 C152.08400227496918 93.07106838780533 153.78698018275003 98.13707429998959 155.12109375 103.4921875 C156.5854153789815 106.23850277303148 158.19009914021825 106.40589179663584 161.125 107.375 C162.4241803269303 107.91542897320474 163.7181055692056 108.4685875526813 165.0078125 109.03125 C165.70003906250003 109.3316015625 166.392265625 109.631953125 167.10546875 109.94140625 C167.8131640625 110.24949218749998 168.520859375 110.55757812500002 169.25 110.875 C169.96542968749998 111.18308593749998 170.680859375 111.49117187500002 171.41796875 111.80859375 C174.50999970814502 113.15521657850053 177.31164339248585 114.49942892832391 180.125 116.375 C180.125 117.035 180.125 117.695 180.125 118.375 C180.85976562500002 118.65085937499998 181.59453125000005 118.92671875000002 182.3515625 119.2109375 C189.3355263889241 122.14223501957659 194.67991567974127 126.49205496816526 199.421875 132.34765625 C201.12500000000023 134.3750000000002 201.12500000000023 134.3750000000002 203.51953125 136.7421875 C210.32645286062916 143.6205460690615 222.125 156.26472976812093 222.125 166.375 C222.78499999999997 166.375 223.44500000000005 166.375 224.125 166.375 C235.76895335668655 197.87093940743068 238.0181762075715 233.10534404001902 224.125 264.375 C222.28407230277435 267.8237663578516 220.24546587812495 271.0936086690469 218.125 274.375 C217.47107150274235 275.55806147977137 216.8244702249856 276.74522239938585 216.1875 277.9375 C212.46421832207852 284.4997839573365 207.50539381097474 290.13256500469134 202.125 295.375 C201.11666174741822 296.5554279810223 200.11712643018507 297.7434139911513 199.125 298.9375 C196.69710109231733 301.80342190649134 194.2284276856151 304.21984188498953 191.125 306.375 C190.46499999999992 306.375 189.80500000000006 306.375 189.125 306.375 C188.79500000000007 307.365 188.46499999999992 308.355 188.125 309.375 C185.99997639603566 310.887091625678 183.92400338421385 312.2397338273046 181.6875 313.5625 C181.38811523437494 313.746513671875 181.38811523437494 313.746513671875 179.873046875 314.677734375 C175.40429325139144 317.375 175.40429325139144 317.375 173.125 317.375 C173.125 318.035 173.125 318.695 173.125 319.375 C169.79750976548223 320.70265777659785 166.46212966289517 322.0092818072138 163.125 323.3125 C162.1904296875 323.68568359375 161.255859375 324.0588671875 160.29296875 324.443359375 C154.83260293420625 326.56259226154936 149.97235854901032 327.94058539081647 144.125 328.375 C144.125 329.035 144.125 329.695 144.125 330.375 C131.28893651356645 333.2389142999433 118.20518304542492 332.62755266123463 105.13671875 332.5703125 C102.62181206316012 332.56657678497527 100.10690390906728 332.5637324542208 97.59199523925781 332.5617370605469 C91.68146682874624 332.5549178580898 85.77101604177301 332.53920441328626 79.86051923036575 332.5190380811691 C72.459760697447 332.49434400213505 65.05899241219214 332.48371678936485 57.658203125 332.47265625 C44.48043063645798 332.4512838301302 31.30272013073386 332.4175924829003 18.125 332.375 C18.135473632812477 333.614755859375 18.14594726562501 334.85451171875 18.15673828125 336.1318359375 C18.193263185294825 340.7836613921194 18.21601735731423 345.4354744794494 18.23486328125 350.08740234375 C18.244847476310497 352.09100484282584 18.258439551944605 354.0945930526562 18.27587890625 356.09814453125 C18.3866248179977 369.1596476520846 18.453733371534042 381.65454655970467 14 394.125 C13.646796875000007 395.13046875 13.293593750000014 396.1359375 12.9296875 397.171875 C12.664140625000016 397.89890625 12.398593749999975 398.6259375 12.125 399.375 C11.464999999999975 399.375 10.805000000000007 399.375 10.125 399.375 C10.021875000000023 399.849375 10.021875000000023 399.849375 9.5 402.25 C7.377124486433274 409.6424246607182 3.3085227589294277 415.8504711520029 -2.875 420.375 C-3.9341557743413205 421.6102159690208 -4.973756920282142 422.86230661450395 -6 424.125 C-14.383913095077162 433.8669983696577 -26.58285973405924 440.8250431620629 -38.875 444.375 C-40.19499999999999 444.375 -41.514999999999986 444.375 -42.875 444.375 C-42.875 445.0350000000001 -42.875 445.69499999999994 -42.875 446.375 C-48.82361300509649 448.25808987251366 -55.49242226602439 447.7186623050437 -61.6787109375 447.780029296875 C-63.28830706161568 447.8013941955285 -64.89779411379061 447.8352338981814 -66.5068359375 447.882568359375 C-78.5935090656312 448.2338669887715 -87.8726904083984 446.37519923541504 -98.875 441.375 C-99.98560791015626 440.8871704101563 -101.0962158203125 440.39934082031255 -102.240478515625 439.896728515625 C-121.9134340163792 431.03121893837533 -136.3716714186465 413.9791266467633 -144.0625 394 C-147.24259683685162 384.75583186696576 -148.12800524258924 376.1157018396857 -147.875 366.375 C-143.915 365.715 -139.955 365.055 -135.875 364.375 C-135.875 365.035 -135.875 365.695 -135.875 366.375 C-134.225 366.375 -132.575 366.375 -130.875 366.375 C-130.3716645751808 368.97856240576124 -129.8722062199764 371.5827665142679 -129.375 374.1875 C-129.2319140625 374.92548828125 -129.088828125 375.6634765625 -128.94140625 376.423828125 C-128.36573718740107 379.45294390677054 -127.875 382.2841959990114 -127.875 385.375 C-127.215 385.375 -126.555 385.375 -125.875 385.375 C-125.66746093750001 386.053046875 -125.45992187499999 386.73109375 -125.24609375 387.4296875 C-122.8355854297476 394.71164150511396 -119.58314509061245 400.34897668957933 -114.875 406.375 C-114.62492187499998 406.72498046875 -114.62492187499998 406.72498046875 -113.359375 408.49609375 C-108.23671176831701 415.1322711183166 -101.15678054202431 418.57801130485404 -93.875 422.375 C-93.08222656250001 422.8107031249999 -92.289453125 423.24640625000006 -91.47265625 423.6953125 C-82.95258313092421 428.2505991181197 -75.0243141082376 428.7158457582632 -65.5625 428.6875 C-65.03043945312498 428.695556640625 -65.03043945312498 428.695556640625 -62.337890625 428.736328125 C-55.874473493356504 428.74027163758797 -50.29711508805781 427.97090125854936 -44.128173828125 426.020263671875 C-41.875 425.375 -41.875 425.375 -38.875 425.375 C-38.875 424.7149999999999 -38.875 424.05500000000006 -38.875 423.375 C-38.136367187500014 423.057890625 -37.39773437500003 422.74078125000005 -36.63671875 422.4140625 C-21.24778417445077 415.3355436736355 -10.356231399159697 403.4255705514243 -4.4375 387.5625 C-2.199201866302758 380.0299624450463 -1.5771921225594951 372.17302830842374 -0.875 364.375 C-0.214999999999975 364.375 0.4449999999999932 364.375 1.125 364.375 C1.125 353.815 1.125 343.255 1.125 332.375 C-42.435 332.375 -85.995 332.375 -130.875 332.375 C-130.875 342.605 -130.875 352.835 -130.875 363.375 C-143.87500000000006 364.375 -143.87500000000006 364.375 -146.875 363.375 C-147.205 364.035 -147.535 364.695 -147.875 365.375 C-147.875 354.485 -147.875 343.595 -147.875 332.375 C-152.28359375 332.398203125 -156.6921875 332.42140625 -161.234375 332.4453125 C-164.78089790723598 332.45820195130375 -168.3274140694154 332.46903780574365 -171.8739471435547 332.47850036621094 C-175.60042125153583 332.488999604095 -179.32680226516538 332.5029965637938 -183.05322265625 332.52587890625 C-186.65182651735543 332.54783454813935 -190.25034090694717 332.55961574383304 -193.84900665283203 332.564754486084 C-195.86939956040263 332.5701717967933 -197.88975718534454 332.5857470472352 -199.91009521484375 332.6015930175781 C-211.75999956662326 332.6030132563661 -222.04925505498272 331.22741156254864 -232.875 326.375 C-234.26763115939477 325.7681570450602 -235.6609149631129 325.16281062620965 -237.0546875 324.55859375 C-241.00097571973672 322.84457129292343 -244.93935946860083 321.1133226168463 -248.875 319.375 C-248.875 318.715 -248.875 318.055 -248.875 317.375 C-249.596875 317.1133203125 -250.31875 316.851640625 -251.0625 316.58203125 C-257.8386408825516 313.6739374545716 -263.9569460602363 308.82473544676515 -268.875 303.375 C-269.486015625 302.70984375 -270.09703125 302.0446875 -270.7265625 301.359375 C-275.875 295.6571215139442 -275.875 295.6571215139442 -275.875 293.375 C-276.865 293.045 -277.855 292.715 -278.875 292.375 C-280.69921875 289.72265625 -280.69921875 289.72265625 -282.5625 286.4375 C-283.1851171875 285.3559765625 -283.807734375 284.274453125 -284.44921875 283.16015625 C-285.875 280.375 -285.875 280.375 -285.875 278.375 C-286.53499999999997 278.375 -287.195 278.375 -287.875 278.375 C-288.82434989091826 275.83725563139643 -289.75927850399336 273.2954773885761 -290.6875 270.75 C-290.94853515625 270.056484375 -291.2095703125 269.36296875 -291.478515625 268.6484375 C-295.83205167663124 256.60902915968643 -297.41185495339846 244.82921409188896 -297.3125 232.0625 C-297.30979095458986 231.38656799316402 -297.3070819091797 230.71063598632816 -297.3042907714844 230.01422119140625 C-297.2084486753586 214.20890345123678 -294.0447493233732 200.91436828253927 -287.875 186.375 C-287.21500000000003 186.375 -286.555 186.375 -285.875 186.375 C-285.619765625 185.506171875 -285.36453125 184.63734375 -285.1015625 183.7421875 C-281.71117205392477 174.43480990599738 -275.02919540077033 167.01595964375855 -267.875 160.375 C-267.070625 159.50874999999996 -266.26625 158.6425 -265.4375 157.75 C-262.49163846749593 155.01968931133766 -259.3504791066408 152.94484175675274 -255.9609375 150.8046875 C-253.875 149.37499999999997 -253.875 149.37499999999997 -252.5703125 147.92578125 C-249.8963906145161 145.4798204469191 -246.63949187538643 144.17673010315247 -243.375 142.6875 C-242.6982421875 142.36716796875 -242.021484375 142.0468359375 -241.32421875 141.716796875 C-238.34330839984256 140.33805234420726 -236.197247963076 139.375 -232.875 139.375 C-232.875 138.715 -232.875 138.055 -232.875 137.375 C-230.52216625088562 136.7239584864098 -228.16791551360492 136.07907877797533 -225.8125 135.4375 C-225.15572265625002 135.25509765625 -224.49894531249998 135.0726953125 -223.822265625 134.884765625 C-223.16806640625 134.70751953125 -222.5138671875 134.5302734375 -221.83984375 134.34765625 C-221.24808349609376 134.18531494140626 -220.6563232421875 134.0229736328125 -220.046630859375 133.855712890625 C-213.1656036093339 132.33252653252146 -206.48131269820098 132.24241649439833 -199.47265625 132.27734375 C-198.93380546569824 132.2780512237549 -198.93380546569824 132.2780512237549 -196.20689392089844 132.28163146972656 C-192.78373371247184 132.28720389367209 -189.36064025474042 132.299751322219 -185.9375 132.3125 C-183.6087249067001 132.31751856294002 -181.2799487824422 132.32208084677387 -178.951171875 132.326171875 C-173.25909202373208 132.3371642908656 -167.56705078293155 132.35387486307366 -161.875 132.375 C-161.8144140625 131.77171875 -161.753828125 131.1684375 -161.69140625 130.546875 C-161.6076171875 129.74765625 -161.523828125 128.9484375 -161.4375 128.125 C-161.39689453124998 127.73054687500002 -161.39689453124998 127.73054687500002 -161.19140625 125.734375 C-160.89865006990848 123.55135360771271 -160.45435581332939 121.4976818034589 -159.875 119.375 C-159.215 119.375 -158.555 119.375 -157.875 119.375 C-157.7654296875 118.39015625000002 -157.655859375 117.40531249999998 -157.54296875 116.390625 C-156.92675093945823 112.11043846255461 -155.6452903347378 108.18513061266691 -154.1875 104.125 C-153.92130859375 103.37919677734374 -153.6551171875 102.6333935546875 -153.380859375 101.864990234375 C-151.10838725410102 95.67918744645735 -148.28387737293053 90.01789361472055 -144.875 84.375 C-144.3916015625 83.537109375 -143.908203125 82.69921875 -143.41015625 81.8359375 C-138.04307920384335 72.63930150048492 -132.02398341836982 64.25878257057917 -124.875 56.375 C-124.20082031250001 55.59769531250001 -123.526640625 54.820390625000016 -122.83203125 54.01953125 C-119.39297916221841 50.06429873628497 -116.06817147948462 46.54821084933971 -111.875 43.375 C-111.070625 42.57062500000001 -110.26625000000001 41.766250000000014 -109.4375 40.9375 C-106.69330458953291 38.19330458953294 -103.93809531447008 35.757407466810065 -100.875 33.375 C-100.215 33.375 -99.555 33.375 -98.875 33.375 C-98.875 32.715 -98.875 32.05500000000001 -98.875 31.375 C-96.44366945941101 29.73636603468819 -94.02728465063657 28.22578665730603 -91.5 26.75 C-91.1506640625 26.539882812499997 -91.1506640625 26.539882812499997 -89.3828125 25.4765625 C-84.1464082792208 22.375 -84.1464082792208 22.375 -81.875 22.375 C-81.875 21.715000000000003 -81.875 21.055000000000007 -81.875 20.375 C-81.3005615234375 20.11807373046875 -80.72612304687499 19.861147460937502 -80.13427734375 19.596435546875 C-77.50558184727655 18.419799027548834 -74.87778601314085 17.241166188091697 -72.25 16.0625 C-71.79818359374997 15.860439453124997 -71.79818359374997 15.860439453124997 -69.51171875 14.837890625 C-68.62871093749999 14.441503906250006 -67.74570312499998 14.045117187499997 -66.8359375 13.63671875 C-66.4009997558594 13.441627197265632 -66.4009997558594 13.441627197265632 -64.199951171875 12.454345703125 C-62.41748546340739 11.62684587144011 -60.67303404724595 10.717048009840909 -58.94921875 9.7734375 C-54.24311897273583 7.632670384039926 -49.32448198360339 6.531967925070887 -44.3125 5.3125 C-43.30380859374998 5.056621093749996 -42.29511718750001 4.800742187500006 -41.255859375 4.537109375 C-27.42160041122412 1.115922638249316 -14.190664711868862 -0.03222903254756204 0 0 Z M-62.875 31.375 C-62.875 32.035 -62.875 32.69499999999999 -62.875 33.375 C-63.563359375000005 33.47039062499999 -64.25171875000001 33.565781249999986 -64.9609375 33.6640625 C-68.50355986512534 34.52834838532547 -71.29977033653506 36.006426597146685 -74.5 37.75 C-75.626640625 38.355859374999994 -76.75328124999999 38.96171874999999 -77.9140625 39.5859375 C-80.39568324743058 41.085386447655935 -81.92706151090673 42.313746529546734 -83.875 44.375 C-85.50653930821917 45.56157404234119 -87.15442821820116 46.72579312627158 -88.8125 47.875 C-99.10108465863797 55.309419825990716 -108.57223182519564 63.91876374971196 -115.875 74.375 C-115.875 75.035 -115.875 75.695 -115.875 76.375 C-116.535 76.375 -117.195 76.375 -117.875 76.375 C-121.31656057292574 80.81280179140424 -124.18630111602269 85.44872620586705 -126.875 90.375 C-127.1495703125 90.86097656250001 -127.1495703125 90.86097656250001 -128.5390625 93.3203125 C-131.87886457860472 99.33195624148851 -134.7828873695146 105.21100066863357 -136.953125 111.7421875 C-137.87499999999997 114.37499999999994 -137.87499999999997 114.37499999999994 -139.31640625 117.40234375 C-141.6233812428854 122.70709098878694 -142.4815818745513 128.40972273368058 -143.5625 134.0625 C-143.78744140625 135.18978515625 -144.0123828125 136.3170703125 -144.244140625 137.478515625 C-145.10508197142164 141.87742870504496 -145.875 145.87953319208043 -145.875 150.375 C-146.543263092041 150.37055877685546 -147.21152618408203 150.36611755371095 -147.90003967285156 150.36154174804688 C-154.92560666113934 150.31691084678872 -161.95113265157053 150.28697049956003 -168.976806640625 150.26513671875 C-171.59043008348738 150.25514814367403 -174.20404255367094 150.24155266402258 -176.817626953125 150.22412109375 C-197.27109015162156 150.0912302569931 -215.677468306729 150.49908956173496 -234.875 158.375 C-234.875 159.035 -234.875 159.695 -234.875 160.375 C-235.65875 160.56062499999996 -236.4425 160.74625000000003 -237.25 160.9375 C-246.72123635954586 164.69333510809577 -253.85151636256535 171.7468196350784 -260.2734375 179.453125 C-261.35841586594074 180.75509903912888 -262.4689405560053 182.0361284017073 -263.6015625 183.296875 C-269.2388121525228 189.90263891000473 -271.93211390528467 197.34486873545666 -274.875 205.375 C-275.45820996542864 206.70838729999213 -276.0415136249029 208.04173363290317 -276.625 209.375 C-281.69996239951416 223.45197903674762 -280.83892906068814 241.10485538152273 -276.875 255.375 C-276.21500000000003 255.375 -275.555 255.375 -274.875 255.375 C-275.205 256.365 -275.53499999999997 257.355 -275.875 258.375 C-275.21500000000003 258.375 -274.555 258.375 -273.875 258.375 C-273.771875 259.00406250000003 -273.771875 259.00406250000003 -273.25 262.1875 C-270.1211670523152 275.8309144181358 -259.589627046421 288.9637053379785 -247.875 296.375 C-247.31296875 296.9821484375 -246.7509375 297.589296875 -246.171875 298.21484375 C-230.84043372321804 312.6336992364973 -208.10282077719424 314.56579410019606 -188.20703125 314.47265625 C-187.62661827087402 314.4719487762451 -187.62661827087402 314.4719487762451 -184.6893768310547 314.46836853027344 C-181.0220570991007 314.46282057853256 -177.3548009337622 314.45027805203404 -173.6875 314.4375 C-171.18424568029445 314.4324782641616 -168.6809903930295 314.42791654209356 -166.177734375 314.423828125 C-160.07679883787938 314.4128682524689 -153.975910155058 314.3956401478207 -147.875 314.375 C-147.875 309.425 -147.875 304.475 -147.875 299.375 C-148.77536987304688 299.3677087402344 -148.77536987304688 299.3677087402344 -153.331787109375 299.330810546875 C-159.3110065855547 299.2789649029103 -165.28995398690842 299.21362788571116 -171.26892757415771 299.13928508758545 C-174.89060639400066 299.09473884280726 -178.51217680186062 299.0554492666203 -182.134033203125 299.028564453125 C-185.63558407160005 299.002372698257 -189.13671415492018 298.9618615982087 -192.63800239562988 298.9118137359619 C-194.61020968899732 298.8872436628541 -196.58258032327853 298.87714149089476 -198.55491638183594 298.8673553466797 C-205.5542587364997 298.7538475030809 -211.41754147608282 298.1284321357969 -217.875 295.375 C-218.9616796875 294.9521875 -220.048359375 294.529375 -221.16796875 294.09375 C-229.92749321573893 290.4055291723205 -229.92749321573893 290.4055291723205 -233.5 288.5625 C-235.87500000000006 287.375 -235.87500000000006 287.375 -237.875 287.375 C-238.130234375 286.7781640625 -238.38546875 286.181328125 -238.6484375 285.56640625 C-240.00495702298664 283.1428156372755 -241.32029894077516 282.0102352871652 -243.5 280.3125 C-256.66300068640453 269.0606427889355 -262.18032165093473 253.21293196707518 -263.5078125 236.37109375 C-263.678819823231 233.85202433471306 -263.84274385815274 231.332465223864 -264 228.8125 C-264.0863671875 227.51763671875 -264.172734375 226.2227734375 -264.26171875 224.888671875 C-264.47233017220134 221.71779990741345 -264.6765921349641 218.5466549872217 -264.875 215.375 C-263.885 215.375 -262.895 215.375 -261.875 215.375 C-261.7409375 214.93929687499997 -261.7409375 214.93929687499997 -261.0625 212.734375 C-257.1540034216572 200.85460250530025 -251.7916647861437 191.1627682418732 -241.953125 183.09375 C-239.87499999999997 181.375 -239.87499999999997 181.375 -238.046875 179.41015625 C-225.33823458709048 167.50152017962978 -208.01067361582034 165.59838332727747 -191.44140625 166.0390625 C-176.58840436877614 166.74195669877582 -161.0569645000872 173.32836260475813 -150.875 184.375 C-150.2665625 184.9976171875 -149.658125 185.620234375 -149.03125 186.26171875 C-145.0144498702826 190.62904153254652 -142.34126205453933 194.95383397364077 -139.91796875 200.37109375 C-138.875 202.375 -138.875 202.375 -136.875 203.375 C-136.10596361020316 205.42963307160818 -135.4329325529819 207.52071924996255 -134.8125 209.625 C-134.4708984375 210.76453125 -134.129296875 211.9040625 -133.77734375 213.078125 C-127.76207716000854 235.05598215131073 -131.25471679953773 258.5919920277362 -130.875 281.375 C-87.315 281.375 -43.754999999999995 281.375 1.125 281.375 C1.125 265.205 1.125 249.03499999999997 1.125 232.375 C0.464999999999975 232.375 -0.19499999999999318 232.375 -0.875 232.375 C-0.7361149439483938 229.1038326830295 -0.58769507997539 225.83316599528507 -0.4375 222.5625 C-0.41784179687499545 222.09811523437497 -0.41784179687499545 222.09811523437497 -0.318359375 219.748046875 C-0.27646484374997726 218.85537109375002 -0.23457031250001137 217.9626953125 -0.19140625 217.04296875 C-0.15474853515627274 216.22078857421877 -0.11809082031248863 215.3986083984375 -0.080322265625 214.551513671875 C0.125 212.3750000000001 0.125 212.3750000000001 1.125 209.375 C1.3162678092634224 207.59537777467955 1.504269762967624 205.81528364072943 1.66845703125 204.032958984375 C3.3908389808526636 186.03752866222612 8.345276768050155 169.96908110643 17.8671875 154.5546875 C19.125 152.37499999999997 19.125 152.37499999999997 19.125 150.375 C19.785000000000025 150.375 20.444999999999993 150.375 21.125 150.375 C22.084910726898045 149.00369896157423 23.035185435396272 147.62471025719333 23.9375 146.21484375 C27.807031549278804 140.21961559305817 31.905812652074133 135.39457690186055 37.48828125 130.91796875 C39.125 129.375 39.125 129.375 40.125 126.375 C41.76708245586093 125.649887987704 43.438937916364296 124.99096823972366 45.125 124.375 C46.69359359599548 123.43957624424854 48.23642468151348 122.45955343670997 49.75 121.4375 C50.50539062500002 120.9334765625 51.26078124999998 120.42945312500001 52.0390625 119.91015625 C54.124999999999886 118.37500000000006 54.124999999999886 118.37500000000006 55.490966796875 116.90673828125 C57.34633909843893 115.16751733100168 59.02584196849199 114.33988397107794 61.35546875 113.33203125 C61.75668945312498 113.156396484375 61.75668945312498 113.156396484375 63.787109375 112.267578125 C64.62048828125 111.91115234375002 65.45386718750001 111.55472656249998 66.3125 111.1875 C66.734990234375 111.003486328125 66.734990234375 111.003486328125 68.873046875 110.072265625 C70.95437797330862 109.16682780257196 73.0383188178028 108.2680220851241 75.125 107.375 C75.125 106.715 75.125 106.055 75.125 105.375 C75.81464843750001 105.25382812499998 76.50429687500002 105.13265625 77.21484375 105.0078125 C83.2229901271794 103.93640093754004 89.17675157152712 102.7401717704692 95.125 101.375 C90.06652790280685 91.08287062475858 82.09798923715095 81.258346168679 72.125 75.375 C71.46499999999997 75.375 70.805 75.375 70.125 75.375 C69.79500000000002 74.38499999999999 69.46499999999997 73.39500000000001 69.125 72.375 C66.85720580228326 70.79405730864136 64.63569369932532 69.37960862011394 62.25 68 C61.564541015625025 67.600068359375 60.87908203124999 67.20013671875 60.1728515625 66.7880859375 C49.183442566452584 60.4577338204507 38.449674795943 56.93443885182427 26.18603515625 53.92529296875 C24.125000000000114 53.37500000000003 24.125000000000114 53.37500000000003 21.16015625 52.27734375 C16.914422784338853 51.01509866561426 12.785141073496561 50.81748213853581 8.375 50.625 C7.457751464843739 50.58334716796875 6.540502929687477 50.54169433593751 5.595458984375 50.498779296875 C-5.378595272638677 50.12531919249659 -16.457617715004744 50.71038725942853 -26.875 54.375 C-28.040312500000027 54.66117187500001 -29.205624999999998 54.947343750000016 -30.40625 55.2421875 C-39.35563969141913 57.45568502646901 -47.26500487497549 60.796642260741464 -55.375 65.1875 C-56.281855468749995 65.6726708984375 -57.18871093749999 66.157841796875 -58.123046875 66.65771484375 C-63.6657225360899 69.75790723684676 -68.3285470820773 73.26414777293493 -72.97021484375 77.598388671875 C-74.5971671901736 79.1158626817346 -76.25261637576375 80.50189208813293 -78 81.875 C-83.82552327003162 86.94067240872315 -88.63039504918288 92.94378037754979 -92.875 99.375 C-92.875 100.035 -92.875 100.695 -92.875 101.375 C-93.535 101.375 -94.195 101.375 -94.875 101.375 C-96.36843624251043 104.0756942836841 -97.84206492596064 106.78672374805487 -99.3125 109.5 C-99.73337890625001 110.26054687499999 -100.15425781249999 111.02109375 -100.587890625 111.8046875 C-102.85258965324687 116.0079688964262 -104.44962881849301 119.53350255230231 -104.875 124.375 C-105.535 124.375 -106.195 124.375 -106.875 124.375 C-113.09153560900381 141.383693874381 -114.2797061864789 159.4135487299671 -114.875 177.375 C-116.7915879999602 177.40212152830134 -118.70828730177621 177.42145097023018 -120.625 177.4375 C-121.15867187499998 177.44330078125 -121.15867187499998 177.44330078125 -123.859375 177.47265625 C-126.43297083362236 177.3893144160096 -128.41956491042185 177.04445352913967 -130.875 176.375 C-131.19093719109586 157.8853834626372 -130.7224330776146 140.8179180805322 -124.5263671875 123.228515625 C-123.92566055849736 121.51915853077656 -123.35589486489727 119.79901174810539 -122.7890625 118.078125 C-120.12065053131582 110.47031215311318 -116.38318107748833 103.77564220727663 -112.177001953125 96.933837890625 C-108.875 91.55504227767261 -108.875 91.55504227767261 -108.875 89.375 C-108.215 89.375 -107.555 89.375 -106.875 89.375 C-105.21874999999991 87.32812499999989 -105.21874999999991 87.32812499999989 -103.375 84.625 C-102.76656249999999 83.74328125 -102.15812500000001 82.86156249999999 -101.53125 81.953125 C-100.14814795912383 79.80018314391916 -98.95656386980474 77.68954668138215 -97.875 75.375 C-97.215 75.375 -96.555 75.375 -95.875 75.375 C-95.33875 74.67374999999998 -94.80250000000001 73.9725 -94.25 73.25 C-91.71898286347727 70.1861371505251 -89.10059978491927 68.17664359835129 -85.875 65.90234375 C-83.67472296367336 64.22205406014899 -81.82945614012763 62.333243845825564 -79.875 60.375 C-72.55844246091903 54.41966246818993 -64.29978747455255 50.367045395837266 -55.8388671875 46.33203125 C-54.52128675232001 45.68994829302517 -53.21442705988295 45.025420710671966 -51.9189453125 44.33984375 C-47.03314840905131 41.767608269906276 -42.221991305198685 40.103086778392424 -36.875 38.75 C-36.04178222656253 38.53835205078124 -35.20856445312501 38.326704101562484 -34.35009765625 38.108642578125 C-1.9797914601763296 30.168814375789665 34.27227451117517 32.552041963319766 63.77734375 48.640625 C67.12500000000006 50.375 67.12500000000006 50.375 70.50390625 51.421875 C71.36886718749997 51.736406250000016 72.233828125 52.0509375 73.125 52.375 C73.45499999999998 53.36500000000001 73.78500000000003 54.35499999999999 74.125 55.375 C76.140731825405 56.88241684334636 78.1400620820126 58.26378729242427 80.25 59.625 C85.46208852696736 63.10256451281862 89.89264049953061 66.7288623360769 94.125 71.375 C94.90875 72.138125 95.6925 72.90125 96.5 73.6875 C97.36624999999998 74.574375 98.23250000000002 75.46125 99.125 76.375 C99.79402343750002 77.05949218749998 100.46304687499997 77.743984375 101.15234375 78.44921875 C105.65881869025162 83.23301522503635 108.70845369321682 87.50134432538931 111.5625 93.4375 C114.69663377777971 98.92062521287127 114.69663377777971 98.92062521287127 118.23095703125 100.044921875 C123.53924020224872 100.87937404523234 128.77884700320288 100.72341381709896 134.125 100.375 C133.33585079223212 98.76959340557141 132.54358235277698 97.1657198398587 131.75 95.5625 C131.309140625 94.66917968749999 130.86828125 93.77585937499998 130.4140625 92.85546875 C129.12499999999994 90.37499999999989 129.12499999999994 90.37499999999989 127.125 87.375 C126.46499999999997 87.375 125.805 87.375 125.125 87.375 C125.02187500000002 86.80910156250002 124.91874999999999 86.24320312499998 124.8125 85.66015625 C121.40196009451847 74.3239866778028 109.47255374362453 62.99110497603448 100.32421875 56.0703125 C98.125 54.375 98.125 54.375 95.6875 51.875 C87.40025897173405 43.78988680169172 76.38874132392397 36.41925441187135 65.125 33.375 C65.125 32.715 65.125 32.05500000000001 65.125 31.375 C41.405936454849495 22.073996655518386 41.405936454849495 22.073996655518386 32.125 22.375 C32.125 21.715000000000003 32.125 21.055000000000007 32.125 20.375 C-0.66962121068957 14.288791018556708 -32.235737029219706 18.156868658728982 -62.875 31.375 Z M52.01953125 141.42578125 C51.39433593749999 142.0690234375 50.76914062499998 142.712265625 50.125 143.375 C49.69187499999998 143.7875 49.69187499999998 143.7875 47.5 145.875 C33.125 161.00657894736844 33.125 161.00657894736844 33.125 166.375 C32.464999999999975 166.375 31.805000000000007 166.375 31.125 166.375 C26.519976414145276 174.35050893379946 24.082609938985115 182.67051422335152 21.67431640625 191.486328125 C21.204198377700152 193.10269837782744 20.633098042598647 194.6891063121913 20.04296875 196.265625 C17.2205008597939 205.82598432171937 17.993189221479838 216.2231820747612 18.02734375 226.1015625 C18.029212487362088 227.70152746044766 18.03063423479523 229.301492999238 18.031631469726563 230.90145874023438 C18.03542078563345 235.08035912847294 18.045219791477564 239.2592238872361 18.05633544921875 243.4381103515625 C18.066627312642026 247.71524575085817 18.07114563270079 251.99238699531787 18.076171875 256.26953125 C18.086845834130827 264.63803705008064 18.10387834498698 273.00651407301007 18.125 281.375 C31.182343006671886 281.4215124535823 44.23966602725642 281.45696482420294 57.297075271606445 281.47862434387207 C63.36132882875978 281.48902419863686 69.42552535024186 281.5031134671764 75.48974609375 281.52587890625 C81.35122100061983 281.54774341922143 87.21264133177829 281.55959713169136 93.07415390014648 281.564754486084 C95.30104301871364 281.5684259480885 97.52792943617476 281.5755948000236 99.75479507446289 281.5864601135254 C131.10296974605302 281.7332143378707 131.10296974605302 281.7332143378707 142.125 276.375 C143.1214453125 275.9019140625 144.11789062499997 275.428828125 145.14453125 274.94140625 C161.93338771477653 266.47857173399507 172.92600094272848 253.7481110752127 178.93359375 236.0390625 C179.13017578125 235.43449218749998 179.13017578125 235.43449218749998 180.125 232.375 C180.50398437499996 231.44429687500002 180.88296875000003 230.51359374999998 181.2734375 229.5546875 C182.49826167221931 224.98126146244698 182.3749267748924 220.58657869451133 182.3125 215.875 C182.31185546874997 214.9507421875 182.31121093749994 214.026484375 182.310546875 213.07421875 C182.2804638744044 208.40132599081653 182.08222510876067 203.9696805220513 181.125 199.375 C180.46500000000003 199.375 179.805 199.375 179.125 199.375 C179.03218749999996 198.38113281250003 178.93937500000004 197.387265625 178.84375 196.36328125 C178.21524311350845 192.02156440737872 176.60300049551677 188.44881661271017 174.625 184.5625 C174.27042724609373 183.86398925781248 173.91585449218746 183.165478515625 173.550537109375 182.44580078125 C168.5689940020735 173.01843461228475 161.67982319286187 165.3443160791628 152.125 160.375 C151.46500000000003 160.375 150.805 160.375 150.125 160.375 C150.125 159.71500000000003 150.125 159.055 150.125 158.375 C141.5367362933381 154.26610520700882 133.11967084805627 152.06274566245816 123.8359375 150.171875 C120.125 149.375 120.125 149.375 118.125 148.375 C117.81258545340802 145.66053021310145 117.61163407908117 143.03590638758394 117.5 140.3125 C117.46132812500002 139.55388671875 117.42265624999999 138.7952734375 117.3828125 138.013671875 C117.28826438295073 136.13452804864556 117.20553243762276 134.25479663608968 117.125 132.375 C138.48078697412677 134.19659350172125 158.73006429665344 139.4891096272984 174.125 155.375 C175.01187500000003 156.22062499999998 175.89875 157.06625 176.8125 157.9375 C182.28183553763415 163.70247529642518 186.4845074172846 169.27120695142702 190.125 176.375 C190.78499999999997 176.375 191.44499999999994 176.375 192.125 176.375 C199.88614542516723 201.25470022819576 202.78620031302682 225.5160374179216 192.89453125 250.30078125 C192.125 252.375 192.125 252.375 192.125 254.375 C191.46500000000003 254.375 190.80500000000006 254.375 190.125 254.375 C189.7730859375 255.07624999999996 189.42117187500003 255.77750000000003 189.05859375 256.5 C186.1050112093576 262.17581396844076 183.0755415051293 266.9963947818133 178.640625 271.62109375 C177.125 273.375 177.125 273.375 176.171875 275.47265625 C174.83271135709958 277.9061364518377 173.64716721060847 278.28629472923376 171.125 279.375 C169.5257654129922 280.3493680927465 167.94255986529254 281.3504510684362 166.375 282.375 C165.57578124999998 282.890625 164.7765625 283.40625 163.953125 283.9375 C163.34984375 284.411875 162.74656249999998 284.88625 162.125 285.375 C162.125 286.03499999999997 162.125 286.695 162.125 287.375 C161.266484375 287.6547265625 160.40796875 287.934453125 159.5234375 288.22265625 C156.22882579672313 289.33979470111115 152.99235636431638 290.5524559407439 149.75 291.8125 C148.61562500000002 292.2494921875 147.48125 292.68648437499996 146.3125 293.13671875 C144.4544372687979 293.8585396884695 142.59888048740805 294.58700539569907 140.75 295.33203125 C132.99558340195267 298.40653626836644 125.45108512165211 298.5331824113646 117.232666015625 298.580322265625 C116.15875106811524 298.590221862793 115.08483612060547 298.600121459961 113.97837829589844 298.6103210449219 C110.44524301505982 298.64179055981714 106.91209431159547 298.6666357793676 103.37890625 298.69140625 C100.92268025526869 298.7119883444893 98.46645770345401 298.7329851428018 96.01023864746094 298.75437927246094 C89.5576964776418 298.80947024834876 83.1051230294841 298.85893660303896 76.65252685546875 298.9072265625 C70.06324492547623 298.9575364902631 63.47400819853755 299.01317294320256 56.884765625 299.068359375 C43.96488240253109 299.17578219826964 31.04495986511705 299.27726222465515 18.125 299.375 C18.125 304.325 18.125 309.275 18.125 314.375 C31.11325997278192 314.4215983505235 44.10149964448516 314.45700770234123 57.089826583862305 314.47862434387207 C63.12257745911336 314.4890057804672 69.15527061176397 314.5030604076024 75.18798828125 314.52587890625 C81.02354616648 314.5478103610933 86.85904896879998 314.559610883496 92.69464492797852 314.564754486084 C94.9070637048651 314.5684141582716 97.1194798998809 314.5755590282986 99.33187484741211 314.5864601135254 C117.50883240290415 314.67235848666735 134.73055330807358 314.1358617661364 152.125 308.375 C152.125 307.71500000000003 152.125 307.055 152.125 306.375 C152.98867187500002 306.271875 153.85234375 306.16875 154.7421875 306.0625 C166.66289416595316 303.6398159662728 179.80719550056165 293.7791572716187 187.125 284.375 C188.05312500000002 283.67375000000004 188.98125000000005 282.97249999999997 189.9375 282.25 C194.48118777483774 278.6359670128528 197.38112578105074 273.41626002948976 200.125 268.375 C200.125 267.71500000000003 200.125 267.055 200.125 266.375 C200.78499999999997 266.375 201.44499999999994 266.375 202.125 266.375 C205.8588452239528 258.77040189388276 208.94152755457822 251.40472787867282 211.265625 243.25 C212.125 240.3750000000001 212.125 240.3750000000001 213.171875 237.875 C215.75984401115466 231.08688456090601 215.3084585200902 223.83687796033473 215.3125 216.6875 C215.32474609375004 215.56666015625 215.33699218749996 214.44582031250002 215.349609375 213.291015625 C215.36582514208953 203.97776005992932 214.51003784926695 195.13709273070407 210.96875 186.4609375 C209.97407921830631 184.0018902897017 209.12031535133008 181.505665971168 208.25 179 C206.28884316406425 173.56501109420907 203.82543879328614 168.4770585397742 201.125 163.375 C200.46500000000003 163.375 199.80500000000006 163.375 199.125 163.375 C198.8968359375 162.50359375 198.66867187499997 161.6321875 198.43359375 160.734375 C193.60278550085093 148.33289710666207 176.85050118120324 134.79754406161447 165.125 129.375 C163.4699936266702 128.9879046717842 161.80404224227345 128.63901900982745 160.125 128.375 C160.125 127.715 160.125 127.055 160.125 126.375 C125.27868728337887 111.50802341095255 80.20748685496886 113.910110787228 52.01953125 141.42578125 Z M-223.875 190.375 C-223.875 191.03499999999997 -223.875 191.695 -223.875 192.375 C-224.596875 192.6225 -225.31875 192.87 -226.0625 193.125 C-231.81618619096707 195.682193862652 -234.80448028062648 199.35536807610413 -238 204.6875 C-238.66257812499998 205.77675781250002 -239.32515625 206.866015625 -240.0078125 207.98828125 C-244.875 216.8164225941423 -244.875 216.8164225941423 -244.875 221.375 C-245.535 221.375 -246.195 221.375 -246.875 221.375 C-247.32486365029257 238.49481113613342 -244.94802650247865 252.45057602101366 -233.5625 265.875 C-229.1906178858823 270.4107345953964 -224.47678826892837 273.54590894471903 -218.875 276.375 C-218.318125 276.66375 -218.318125 276.66375 -215.5 278.125 C-206.33742128031116 281.28450990334096 -196.93829050763594 281.66255007556913 -187.328125 281.5703125 C-186.75951751708985 281.5688975524902 -186.75951751708985 281.5688975524902 -183.88201904296875 281.5617370605469 C-180.29623299680642 281.55065858079183 -176.7107088833761 281.5255777349689 -173.125 281.5 C-170.6744828070493 281.48995424054726 -168.22396164808762 281.48083120379 -165.7734375 281.47265625 C-159.80711276619925 281.4524724721455 -153.8413450513816 281.41330036052955 -147.875 281.375 C-147.875 265.205 -147.875 249.03499999999997 -147.875 232.375 C-148.535 232.375 -149.195 232.375 -149.875 232.375 C-149.82859374999998 231.72015625 -149.78218750000002 231.0653125 -149.734375 230.390625 C-149.22833814448734 217.59512165346604 -153.59925738813047 207.99613744102032 -161.875 198.375 C-171.598789146564 188.1661238665326 -183.18730558738125 184.1503798012625 -197.02734375 183.4140625 C-207.02638181621535 183.3125494231856 -215.03906066121294 185.81788167960195 -223.875 190.375 Z M-130.875 299.375 C-130.875 304.325 -130.875 309.275 -130.875 314.375 C-87.315 314.375 -43.754999999999995 314.375 1.125 314.375 C1.125 309.425 1.125 304.475 1.125 299.375 C-42.435 299.375 -85.995 299.375 -130.875 299.375 Z " fill="#000000" transform="translate(331.875,96.625)"/>
<path d="M0 0 C18.703528432856444 -1.2973545733773335 36.116309203330104 5.140969522379152 51.0234375 16.25390625 C53.1234534146638 18.092292274963143 55.07805308149108 19.978564064533003 57 22 C57.51691406250001 22.4833984375 58.033828125000014 22.966796875 58.56640625 23.46484375 C61.0548793379711 25.797344165790605 62.4912750391 27.982550078200006 64 31 C64.99000000000001 31.329999999999984 65.98000000000002 31.660000000000025 67 32 C68.60546875 34.21484375000006 68.60546875 34.21484375000006 70.1875 36.9375 C70.71730468750002 37.83339843750002 71.24710937500004 38.72929687499999 71.79296875 39.65234375 C73 42 73 42 73 44 C73.66000000000008 44 74.31999999999994 44 75 44 C84.98180143585125 70.4925799115046 86.28093640459838 95.55891190542769 75 122 C74.33999999999992 122 73.68000000000006 122 73 122 C72.89558593750007 122.55171875000002 72.79117187499992 123.10343749999998 72.68359375 123.671875 C71.85439615553184 126.49588509316015 70.57200350053722 128.72554915802573 69.0625 131.25 C68.53785156250001 132.14203125 68.01320312500002 133.0340625 67.47265625 133.953125 C67.22966796874994 134.29085937499997 67.22966796874994 134.29085937499997 66 136 C65.33999999999992 136 64.68000000000006 136 64 136 C63.752500000000055 136.556875 63.504999999999995 137.11374999999998 63.25 137.6875 C60.53348383380006 142.71305490746988 56.987523817944464 146.01162379066238 52.375 149.3125 C51.41335937500003 150.0098828125 50.45171875 150.707265625 49.4609375 151.42578125 C47 153 47 153 45 153 C45 153.65999999999997 45 154.32 45 155 C28.66580126414499 162.39700066822218 28.66580126414499 162.39700066822218 20.72265625 164.4921875 C19 165 19 165 18 166 C12.036925509774733 167.14928198779876 6.164503919486947 167.13522729688054 0.107666015625 167.113525390625 C-0.9662489318847634 167.11367141723633 -2.0401638793945267 167.11381744384767 -3.1466217041015625 167.1139678955078 C-6.679799932127253 167.1132738225822 -10.212924783245796 167.10550510362043 -13.74609375 167.09765625 C-16.202315991223372 167.0957902761437 -18.65853860556365 167.09436721908963 -21.114761352539063 167.09336853027344 C-27.567342473002952 167.0895574895775 -34.01990094732162 167.07973927305932 -40.47247314453125 167.06866455078125 C-47.06172377216308 167.05842003754464 -53.65097807237487 167.05386439836542 -60.240234375 167.048828125 C-73.16016588985593 167.0381157290094 -86.08008173812652 167.02124956725277 -99 167 C-98.99555877685549 167.9254864501953 -98.99111755371092 168.85097290039062 -98.98654174804688 169.80450439453125 C-98.94629129553579 178.57157708087755 -98.91592785107292 187.33861825591748 -98.89637565612793 196.10576248168945 C-98.88598543787322 200.61188991542116 -98.87191435050318 205.11794031865736 -98.84912109375 209.6240234375 C-98.8272214562462 213.9812367353611 -98.81539566727264 218.33837643045138 -98.81024551391602 222.69564056396484 C-98.80658023576791 224.3492218699729 -98.79942388119662 226.00279963388363 -98.78853988647461 227.6563491821289 C-98.71450458943337 239.3817710007545 -99.13076269570814 250.56613554798275 -103.125 261.75 C-103.478203125 262.75546875 -103.83140624999999 263.7609375 -104.1953125 264.796875 C-104.46085937499998 265.52390625 -104.72640625000003 266.2509375 -105 267 C-105.66000000000003 267 -106.32 267 -107 267 C-107.10312499999998 267.474375 -107.10312499999998 267.474375 -107.625 269.875 C-109.74787551356673 277.2674246607182 -113.81647724107057 283.4754711520029 -120 288 C-121.05915577434132 289.2352159690208 -122.09875692028214 290.48730661450395 -123.125 291.75 C-131.50891309507716 301.4919983696577 -143.70785973405924 308.4500431620629 -156 312 C-157.32 312 -158.64 312 -160 312 C-160 312.6600000000001 -160 313.31999999999994 -160 314 C-165.9486130050965 315.88308987251366 -172.61742226602445 315.3436623050437 -178.8037109375 315.405029296875 C-180.41330706161568 315.4263941955285 -182.0227941137906 315.4602338981814 -183.6318359375 315.507568359375 C-195.71850906563117 315.8588669887715 -204.9976904083984 314.00019923541504 -216 309 C-217.11060791015626 308.5121704101563 -218.2212158203125 308.02434082031255 -219.365478515625 307.521728515625 C-239.03843401637917 298.65621893837533 -253.4966714186465 281.6041266467633 -261.1875 261.625 C-264.36759683685165 252.3808318669657 -265.2530052425892 243.7407018396858 -265 234 C-263.02 233.67000000000002 -263.02 233.67000000000002 -253 232 C-253 232.65999999999997 -253 233.32 -253 234 C-251.35 234 -249.7 234 -248 234 C-247.4966645751808 236.60356240576118 -246.99720621997636 239.20776651426803 -246.5 241.8125 C-246.3569140625 242.55048828125 -246.213828125 243.28847656250002 -246.06640625 244.048828125 C-245.4907371874011 247.07794390677049 -245 249.90919599901144 -245 253 C-244.34 253 -243.68 253 -243 253 C-242.7924609375 253.678046875 -242.584921875 254.35609375 -242.37109375 255.0546875 C-239.96058542974757 262.3366415051141 -236.70814509061248 267.97397668957933 -232 274 C-231.74992187499998 274.34998046875 -231.74992187499998 274.34998046875 -230.484375 276.12109375 C-225.361711768317 282.7572711183166 -218.28178054202428 286.20301130485404 -211 290 C-210.2072265625 290.4357031249999 -209.414453125 290.87140625000006 -208.59765625 291.3203125 C-200.07758313092427 295.8755991181197 -192.1493141082376 296.3408457582632 -182.6875 296.3125 C-182.15543945312498 296.320556640625 -182.15543945312498 296.320556640625 -179.462890625 296.361328125 C-172.9994734933565 296.36527163758797 -167.4221150880578 295.59590125854936 -161.253173828125 293.645263671875 C-159 293 -159 293 -156 293 C-156 292.3399999999999 -156 291.68000000000006 -156 291 C-155.2613671875 290.682890625 -154.52273437500003 290.36578125000005 -153.76171875 290.0390625 C-138.37278417445077 282.9605436736355 -127.4812313991597 271.0505705514243 -121.5625 255.1875 C-119.32420186630276 247.6549624450463 -118.7021921225595 239.79802830842374 -118 232 C-117.33999999999997 232 -116.68 232 -116 232 C-116 210.55 -116 189.10000000000002 -116 167 C-159.56 167 -203.12 167 -248 167 C-248 172.27999999999997 -248 177.56 -248 183 C-253.61 183 -259.22 183 -265 183 C-265 177.72000000000003 -265 172.44 -265 167 C-266.80073974609377 167.01571044921877 -268.6014794921875 167.0314208984375 -270.456787109375 167.047607421875 C-276.4358073767885 167.0961684796839 -282.41477133625335 167.13053811898033 -288.3939275741577 167.1554365158081 C-292.0157424763861 167.17102947906795 -295.637342135828 167.1921495264928 -299.259033203125 167.226318359375 C-302.7603775019169 167.259141488789 -306.2615160008956 167.27690079776562 -309.7630023956299 167.28463172912598 C-311.73537617093416 167.2927950532321 -313.70766825575055 167.31617711355784 -315.67991638183594 167.3398895263672 C-322.71519635792754 167.34119557543022 -328.51812130244946 166.78995853453432 -335 164 C-336.0634765625 163.58878906250004 -337.126953125 163.17757812499997 -338.22265625 162.75390625 C-341.1576301105513 161.52258984357888 -344.08386033047873 160.27531448762443 -347 159 C-347.781171875 158.6583984375 -348.56234374999997 158.31679687500002 -349.3671875 157.96484375 C-353.7809239611535 155.90787600300962 -356.7169599870665 153.68341074621804 -360 150 C-360.6909375 149.26523437499998 -361.38187500000004 148.53046875 -362.09375 147.7734375 C-379.87969945982974 128.62389858158332 -382.5663235195711 108.13847178540561 -382 83 C-381.01 83 -380.02 83 -379 83 C-378.88656249999997 82.36062500000003 -378.88656249999997 82.36062500000003 -378.3125 79.125 C-375.73346666972435 67.69844955058431 -368.9200390474626 57.71242110092163 -359.7734375 50.484375 C-358 49 -358 49 -355.73046875 46.5859375 C-342.7922604228955 34.332584263171384 -325.59229616014363 32.2112389131259 -308.56640625 32.6640625 C-293.64821045623046 33.37004189483855 -278.2683088762213 39.98425789535361 -268 51 C-267.3915625 51.56203125000002 -266.783125 52.12406249999998 -266.15625 52.703125 C-261.6935137452792 56.87115225676757 -258.37931808600035 61.34226667107748 -256 67 C-256 67.99000000000001 -256 68.98000000000002 -256 70 C-255.505 70.16499999999996 -255.505 70.16499999999996 -253 71 C-251.8671875 73.765625 -251.8671875 73.765625 -250.875 77.25 C-250.542421875 78.38953125 -250.20984375 79.52906250000001 -249.8671875 80.703125 C-244.07389274554055 102.72808343587292 -248 126.22586866170354 -248 149 C-204.44 149 -160.88 149 -116 149 C-116 132.82999999999998 -116 116.65999999999997 -116 100 C-110.38999999999999 100 -104.77999999999997 100 -99 100 C-99 116.17000000000002 -99 132.34000000000003 -99 149 C-74.10579900607758 148.83065169391887 -74.10579900607758 148.83065169391887 -63.42578125 148.7421875 C-56.16229925945754 148.68207566741245 -48.8988419822673 148.62394004248438 -41.63525390625 148.578125 C-35.773698431025196 148.54102305694164 -29.912281696583136 148.49459819256003 -24.050846099853516 148.44193649291992 C-21.82399067749776 148.423524024198 -19.5971056658816 148.40836858232842 -17.37020492553711 148.39665603637695 C14.253011169488161 148.2245065848884 14.253011169488161 148.2245065848884 25 143 C25.996445312499986 142.5269140625 26.992890624999973 142.053828125 28.01953125 141.56640625 C46.311821942257154 132.34572886961894 55.7195817145718 118.94126151688062 62 100 C62.17563476562498 99.5338024902344 62.17563476562498 99.5338024902344 63.064453125 97.174560546875 C64.06489398164615 93.77979737908527 64.22894318915314 91.03903486107566 64.1953125 87.5078125 C64.18886718750002 86.30898437500002 64.18242187500005 85.11015624999999 64.17578125 83.875 C64.15902343750008 82.63749999999999 64.14226562499994 81.39999999999998 64.125 80.125 C64.12048828125 79.49464843750002 64.12048828125 79.49464843750002 64.09765625 76.3046875 C64.07415808407791 73.20292959829396 64.04130334487013 70.10156348171546 64 67 C63.33999999999992 67 62.68000000000001 67 62 67 C61.78085937499998 66.26136718750001 61.56171875000001 65.52273437500003 61.3359375 64.76171875 C56.479523393077045 49.22514191199855 49.446172337320036 37.640938721041266 35.125 29.41015625 C34.423749999999984 28.944804687499982 33.722500000000025 28.47945312500002 33 28 C33 27.339999999999975 33 26.680000000000007 33 26 C23.846844092876836 22.813345721223783 14.656693709139518 20.15739097314878 5.09375 18.52734375 C3 18 3 18 0 16 C-0.22107787301376902 13.211471095052929 -0.2810753535728736 10.653468190702114 -0.1875 7.875 C-0.17396484375001364 7.120898437499989 -0.16042968750002728 6.366796875000006 -0.146484375 5.58984375 C-0.111099849247978 3.7262587270590473 -0.057291669682058455 1.8630402215136428 0 0 Z M-341 58 C-341 58.65999999999997 -341 59.31999999999999 -341 60 C-341.721875 60.2475 -342.44375 60.495000000000005 -343.1875 60.75 C-348.9411861909671 63.307193862652014 -351.9294802806265 66.98036807610413 -355.125 72.3125 C-355.787578125 73.40175781250002 -356.45015624999996 74.49101562499999 -357.1328125 75.61328125 C-362 84.4414225941423 -362 84.4414225941423 -362 89 C-362.65999999999997 89 -363.32 89 -364 89 C-364.44986365029257 106.11981113613342 -362.0730265024787 120.07557602101366 -350.6875 133.5 C-346.31561788588226 138.03573459539638 -341.6017882689284 141.17090894471903 -336 144 C-335.443125 144.28875 -335.443125 144.28875 -332.625 145.75 C-323.46242128031116 148.90950990334096 -314.06329050763594 149.28755007556913 -304.453125 149.1953125 C-303.8845175170899 149.19389755249023 -303.8845175170899 149.19389755249023 -301.00701904296875 149.18673706054688 C-297.42123299680645 149.17565858079183 -293.8357088833761 149.15057773496892 -290.25 149.125 C-287.7994828070493 149.11495424054726 -285.34896164808765 149.10583120379 -282.8984375 149.09765625 C-276.9321127661992 149.07747247214547 -270.9663450513816 149.03830036052955 -265 149 C-265 132.82999999999998 -265 116.65999999999997 -265 100 C-265.65999999999997 100 -266.32 100 -267 100 C-266.95359375 99.34515625 -266.9071875 98.6903125 -266.859375 98.015625 C-266.35333814448734 85.22012165346604 -270.72425738813047 75.62113744102032 -279 66 C-288.723789146564 55.79112386653259 -300.3123055873813 51.77537980126249 -314.15234375 51.0390625 C-324.15138181621535 50.9375494231856 -332.16406066121294 53.44288167960195 -341 58 Z " fill="#BC02F6" transform="translate(449,229)"/>
<path d="M0 0 C1.7171724526102992 1.6145817797658424 3.3928524294614704 3.2758676842922796 5 5 C5.6084374999999795 5.562031250000018 6.216875000000016 6.1240624999999795 6.84375 6.703125 C11.306486254720824 10.871152256767573 14.620681913999647 15.342266671077482 17 21 C17 21.99000000000001 17 22.980000000000018 17 24 C17.495000000000005 24.16500000000002 17.495000000000005 24.16500000000002 20 25 C21.13281250000003 27.765625000000057 21.13281250000003 27.765625000000057 22.125 31.25 C22.2912890625 31.819765625000002 22.2912890625 31.819765625000002 23.1328125 34.703125 C24.708616292496032 40.69401869759753 25.139298044504727 46.024524041240625 25.113525390625 52.196533203125 C25.113671417236333 53.11409896850586 25.113817443847665 54.031664733886714 25.113967895507813 54.97703552246094 C25.113272750808477 58.00164170673389 25.10549897319609 61.026185858715166 25.09765625 64.05078125 C25.095790657091044 66.15113796341029 25.09436742016038 68.25149511257382 25.093368530273438 70.35185241699219 C25.089554487536645 75.87396449830624 25.079733684601877 81.39605018593932 25.06866455078125 86.91815185546875 C25.058426516192156 92.55545698024969 25.053865781718088 98.19276637859969 25.048828125 103.830078125 C25.038110430739778 114.88673033199069 25.02104735215019 125.94336296920687 25 137 C19.389999999999986 137 13.780000000000001 137 8 137 C8 131.72000000000003 8 126.44 8 121 C6.199260253906232 121.01571044921877 4.3985205078125205 121.03142089843749 2.543212890625 121.047607421875 C-3.435807376788489 121.09616847968391 -9.414771336253352 121.13053811898033 -15.393927574157715 121.1554365158081 C-19.015742476386123 121.17102947906795 -22.63734213582802 121.19214952649281 -26.259033203125 121.226318359375 C-29.760377501916878 121.259141488789 -33.2615160008956 121.27690079776562 -36.76300239562988 121.28463172912598 C-38.73537617093416 121.29279505323211 -40.70766825575055 121.31617711355784 -42.67991638183594 121.33988952636719 C-49.715196357927525 121.34119557543022 -55.51812130244943 120.78995853453432 -62 118 C-63.0634765625 117.58878906250004 -64.126953125 117.17757812499997 -65.22265625 116.75390625 C-68.15763011055128 115.52258984357888 -71.08386033047873 114.27531448762443 -74 113 C-74.39058593749999 112.82919921874998 -74.39058593749999 112.82919921874998 -76.3671875 111.96484375 C-80.7809239611535 109.90787600300962 -83.71695998706653 107.68341074621804 -87 104 C-87.6909375 103.26523437499998 -88.38187500000001 102.53046875000001 -89.09375 101.7734375 C-106.87969945982974 82.62389858158332 -109.56632351957109 62.13847178540561 -109 37 C-108.01 37 -107.02 37 -106 37 C-105.773125 35.72125 -105.54625 34.442499999999995 -105.3125 33.125 C-102.73346666972436 21.698449550584314 -95.92003904746258 11.712421100921631 -86.7734375 4.484375 C-85 3 -85 3 -82.73046875 0.5859375 C-60.38056599797143 -20.58092318933177 -23.48881032370582 -16.552517342208773 0 0 Z M-68 12 C-68 12.660000000000025 -68 13.319999999999993 -68 14 C-68.721875 14.247500000000002 -69.44375 14.495000000000005 -70.1875 14.75 C-75.94118619096706 17.307193862652014 -78.92948028062646 20.980368076104128 -82.125 26.3125 C-82.787578125 27.401757812500023 -83.45015624999999 28.49101562499999 -84.1328125 29.61328125 C-89 38.44142259414224 -89 38.44142259414224 -89 43 C-89.66 43 -90.32 43 -91 43 C-91.44986365029256 60.11981113613342 -89.07302650247865 74.07557602101366 -77.6875 87.5 C-73.31561788588229 92.03573459539638 -68.60178826892839 95.17090894471903 -63 98 C-62.44312500000001 98.28875 -62.44312500000001 98.28875 -59.625 99.75 C-50.46242128031116 102.90950990334096 -41.06329050763594 103.28755007556913 -31.453125 103.1953125 C-30.884517517089847 103.19389755249023 -30.884517517089847 103.19389755249023 -28.00701904296875 103.18673706054688 C-24.421232996806424 103.17565858079183 -20.8357088833761 103.15057773496892 -17.25 103.125 C-14.799482807049287 103.11495424054726 -12.348961648087624 103.10583120378999 -9.8984375 103.09765625 C-3.9321127661992534 103.07747247214547 2.0336549486183912 103.03830036052955 8 103 C8 86.82999999999998 8 70.65999999999997 8 54 C7.340000000000003 54 6.680000000000007 54 6 54 C6.046406250000018 53.34515625 6.0928124999999795 52.690312500000005 6.140625 52.015625 C6.6466618555126615 39.22012165346604 2.275742611869532 29.621137441020323 -6 20 C-15.723789146564002 9.791123866532587 -27.312305587381246 5.775379801262488 -41.15234375 5.0390625 C-51.15138181621535 4.937549423185601 -59.16406066121296 7.442881679601953 -68 12 Z " fill="#BB01F5" transform="translate(176,275)"/>
<path d="M0 0 C1.0531640625000023 0.4911328124999841 2.1063281250000045 0.9822656249999966 3.19140625 1.48828125 C6.065561969688645 3.0352885706112716 7.764828795896619 4.6526214061323685 10 7 C11.686891471228819 8.258431816395955 13.397083357305064 9.486018602674193 15.125 10.6875 C29.025941247669948 20.706529463081267 43.47027122625718 34.410813678771575 49 51 C45.69999999999999 51.16499999999999 45.69999999999999 51.16499999999999 29 52 C29 51.34 29 50.68000000000001 29 50 C28.422500000000014 49.79374999999999 27.845000000000027 49.587500000000006 27.25 49.375 C24.770435021533842 47.85971029093736 23.767160323478834 46.25934392490828 22.2421875 43.8359375 C17.661577056213957 37.06585288182566 12.136388629763701 32.01630158448134 5.296875 27.60546875 C3 26.00000000000003 3 26.00000000000003 1.05078125 24.015625 C-9.93192438692165 13.221194316854167 -26.460844194664332 9.102809059066203 -40.93896484375 5.55029296875 C-43 5 -43 5 -45.96484375 3.90234375 C-50.21057721566115 2.6400986656142607 -54.33985892650344 2.4424821385358086 -58.75 2.25 C-59.66724853515626 2.2083471679687534 -60.58449707031252 2.166694335937507 -61.529541015625 2.123779296875 C-72.50359527263873 1.750319192496562 -83.58261771500469 2.335387259428529 -94 6 C-95.16531250000003 6.286171875000008 -96.330625 6.572343750000016 -97.53125 6.8671875 C-106.48063969141907 9.080685026469013 -114.39000487497555 12.421642260741493 -122.5 16.8125 C-123.40685546875 17.297670898437502 -124.31371093749999 17.782841796875005 -125.248046875 18.28271484375 C-130.81199859881804 21.394807606245564 -135.4857867858898 24.919965870411005 -140.14404296875 29.272216796875 C-142 31 -142 31 -144.625 33 C-150.44567141050152 37.901618029896014 -154.76531304643353 43.86867211914699 -158.73828125 50.3125 C-159.1546484375 50.86937499999999 -159.571015625 51.42624999999998 -160 52 C-160.66 52 -161.32 52 -162 52 C-162.2565234375 52.66773437500001 -162.513046875 53.33546875000002 -162.77734375 54.0234375 C-164.53638319286935 58.305827453566906 -166.53919244584745 62.46584190203254 -168.521484375 66.6484375 C-169.82204832457313 69.40971977085587 -171.03373305812156 72.10119917436464 -172 75 C-172.66 75 -173.32 75 -174 75 C-174.46311695484633 77.03058972509547 -174.92110765665038 79.06240332741919 -175.36328125 81.09765625 C-175.80011648614732 83.08887453501501 -176.25692435966616 85.075784885661 -176.73046875 87.05859375 C-178.84347911638594 96.508147723533 -179.69175539228237 105.87027520712581 -180.353515625 115.51953125 C-180.42505859375 116.55851562500004 -180.4966015625 117.59749999999997 -180.5703125 118.66796875 C-180.6297705078125 119.59891357421873 -180.689228515625 120.52985839843751 -180.75048828125 121.489013671875 C-180.97584791476334 123.75694305610665 -181.37879545065547 125.81168036203553 -182 128 C-183.8940997761193 128.2235460660811 -185.79043480021636 128.42819950882824 -187.6875 128.625 C-188.7432421875 128.741015625 -189.798984375 128.85703124999998 -190.88671875 128.9765625 C-194.13716345999566 129.0010325981932 -196.10230796211533 128.4085256288048 -199 127 C-199.31601508197593 108.50582504866964 -198.84564582127584 91.43782459751992 -192.64697265625 73.8447265625 C-192.05700493869983 72.16253936483616 -191.5012295618684 70.46845954685244 -190.94921875 68.7734375 C-188.46933219159823 61.64939975040946 -185.0494198437629 55.21472581827646 -181.3125 48.6875 C-181.06846435546873 48.25965209960938 -181.06846435546873 48.25965209960938 -179.83349609375 46.094482421875 C-179.3689501953125 45.30404541015625 -178.904404296875 44.5136083984375 -178.42578125 43.69921875 C-178.00723876953126 42.98596435546875 -177.5886962890625 42.272709960937505 -177.157470703125 41.537841796875 C-176.77550537109374 41.03035400390624 -176.3935400390625 40.52286621093751 -176 40 C-175.34 40 -174.68 40 -174 40 C-173.7421875 39.2742578125 -173.484375 38.54851562499999 -173.21875 37.80078125 C-171.94757500724398 34.87952333395489 -170.45983598310306 32.69127351231177 -168.5 30.1875 C-167.8915625 29.397304687499997 -167.28312499999998 28.607109374999993 -166.65625 27.79296875 C-166.1096875 27.201289062499995 -165.563125 26.60960937499999 -165 26 C-164.34 26 -163.68 26 -163 26 C-162.7589453125 25.41089843750001 -162.517890625 24.82179687499999 -162.26953125 24.21484375 C-160.75619150197502 21.574647943445655 -159.14051788435088 20.347637384746122 -156.6875 18.5625 C-154.0978666128694 16.626440753430927 -151.82555227186145 14.821079253191215 -149.5625 12.5 C-141.9090331187333 5.033203042666656 -132.50567904675813 0.5075227477087765 -122.9638671875 -4.04296875 C-121.64628675232001 -4.685051706974832 -120.33942705988295 -5.349579289328034 -119.0439453125 -6.03515625 C-114.15814840905125 -8.607391730093752 -109.34699130519869 -10.271913221607605 -104 -11.625 C-103.16678222656253 -11.836647949218758 -102.333564453125 -12.048295898437487 -101.47509765625 -12.266357421875 C-67.19315859032383 -20.675073267120766 -30.962530767831595 -16.944488833270754 0 0 Z " fill="#BB01F5" transform="translate(399,146)"/>
<path d="M0 0 C5.610000000000014 0 11.220000000000027 0 17 0 C17.045444266753407 7.876540142218175 17.08202630859421 15.75300675236383 17.10362434387207 23.629642486572266 C17.113997809575608 27.288301364746644 17.12803706811917 30.946864784880972 17.15087890625 34.60546875 C17.17283986533289 38.14571806753054 17.184616821209204 41.68587640518166 17.189754486083984 45.22618865966797 C17.195170018396084 47.213343345944736 17.210744344784075 49.20046217129652 17.226593017578125 51.18756103515625 C17.227834154877087 61.37862213959181 16.322250421965578 71.09769881849627 12.875 80.75 C12.521796875000007 81.75546874999998 12.168593750000014 82.76093750000001 11.8046875 83.796875 C11.539140624999959 84.52390624999998 11.273593750000032 85.25093750000002 11 86 C10.340000000000032 86 9.680000000000007 86 9 86 C8.793749999999989 86.94875000000002 8.587499999999977 87.89749999999998 8.375 88.875 C6.252124486433274 96.26742466071812 2.183522758929371 102.47547115200291 -4 107 C-5.0591557743413205 108.23521596902071 -6.098756920282085 109.48730661450395 -7.125 110.75 C-15.508913095077219 120.49199836965772 -27.707859734059184 127.45004316206303 -40 131 C-41.31999999999999 131 -42.639999999999986 131 -44 131 C-44 131.65999999999997 -44 132.31999999999994 -44 133 C-49.94861300509649 134.88308987251366 -56.61742226602439 134.34366230504372 -62.8037109375 134.405029296875 C-64.41330706161568 134.42639419552847 -66.02279411379061 134.4602338981814 -67.6318359375 134.507568359375 C-79.71850906563117 134.8588669887714 -88.9976904083984 133.00019923541504 -100 128 C-101.11060791015626 127.51217041015627 -102.2212158203125 127.02434082031255 -103.365478515625 126.521728515625 C-123.0384340163792 117.65621893837533 -137.4966714186465 100.60412664676329 -145.1875 80.625 C-148.36759683685165 71.38083186696565 -149.25300524258924 62.74070183968581 -149 53 C-145.04 52.34000000000003 -141.08 51.68000000000001 -137 51 C-137 51.65999999999997 -137 52.31999999999999 -137 53 C-135.35 53 -133.7 53 -132 53 C-131.4966645751808 55.60356240576118 -130.99720621997636 58.20776651426797 -130.5 60.8125 C-130.3569140625 61.55048828125001 -130.213828125 62.28847656250002 -130.06640625 63.048828125 C-129.49073718740112 66.07794390677032 -129 68.9091959990115 -129 72 C-128.34 72 -127.68 72 -127 72 C-126.79246093750001 72.678046875 -126.58492187499999 73.35609375000001 -126.37109375 74.0546875 C-123.96058542974754 81.33664150511413 -120.7081450906125 86.97397668957933 -116 93 C-115.49984375 93.69996093750001 -114.9996875 94.39992187500002 -114.484375 95.12109375 C-109.36171176831706 101.75727111831657 -102.28178054202425 105.20301130485404 -95 109 C-94.60361328125 109.21785156249996 -94.60361328125 109.21785156249996 -92.59765625 110.3203125 C-84.0775831309243 114.87559911811968 -76.14931410823749 115.34084575826319 -66.6875 115.3125 C-66.15543945312498 115.320556640625 -66.15543945312498 115.320556640625 -63.462890625 115.361328125 C-56.99947349335662 115.36527163758797 -51.422115088057694 114.59590125854936 -45.253173828125 112.645263671875 C-43 112 -43 112 -40 112 C-40 111.34000000000003 -40 110.68000000000006 -40 110 C-39.261367187500014 109.68289062500003 -38.52273437500003 109.36578125000005 -37.76171875 109.0390625 C-22.37278417445077 101.96054367363553 -11.481231399159697 90.05057055142436 -5.5625 74.1875 C-3.324201866302758 66.65496244504624 -2.702192122559495 58.79802830842374 -2 51 C-1.3400000000000318 51 -0.6800000000000068 51 0 51 C0 34.170000000000016 0 17.339999999999975 0 0 Z " fill="#BB01F5" transform="translate(333,410)"/>
<path d="M0 0 C5.609999999999999 0 11.219999999999999 0 17 0 C17.350625000000008 2.021250000000009 17.70125 4.042500000000018 18.0625 6.125 C20.81274356382869 18.835237778628823 26.662441129569032 31.048346340918783 37.484375 38.7734375 C39.943429724733164 40.3010321017282 42.424331568559865 41.68023601033644 45 43 C46.11375000000001 43.577499999999986 47.22749999999999 44.15499999999997 48.375 44.75 C57.4187589029431 47.868537552738985 66.83673752937534 48.310005786987404 76.328125 48.4140625 C76.88563446044921 48.42374557495117 76.88563446044921 48.42374557495117 79.70697021484375 48.472747802734375 C83.22123895746304 48.531883467308376 86.73554164896603 48.57866185940128 90.25 48.625 C92.65235697240365 48.663240674860845 95.05470112596885 48.70229580609339 97.45703125 48.7421875 C103.30458172076916 48.837529676429995 109.15219618356852 48.921800405585884 115 49 C115 54.94 115 60.879999999999995 115 67 C107.33244639486452 67.06803972482373 99.66500686136641 67.12296741099095 91.99722385406494 67.1554365158081 C88.43594114172419 67.17102776592628 84.87487742310566 67.19214455493841 81.313720703125 67.226318359375 C77.21042901088973 67.26544384609201 73.10736386449616 67.2797631704488 69.00390625 67.29296875 C67.73793106079103 67.30845260620117 66.47195587158203 67.32393646240234 65.16761779785156 67.33988952636719 C58.18309220677875 67.34120777592824 52.4372970373862 66.75887292439194 46 64 C45.46826171875 63.79439453125002 45.46826171875 63.79439453125002 42.77734375 62.75390625 C39.84236988944872 61.522589843578885 36.916139669521286 60.27531448762443 34 59 C33.218828125 58.65839843750001 32.43765625 58.31679687500002 31.6328125 57.96484375 C27.21907603884648 55.90787600300962 24.283040012933483 53.683410746218044 21 50 C20.65453124999999 49.63261718749999 20.65453124999999 49.63261718749999 18.90625 47.7734375 C5.7605212931084395 33.619869592246744 -0.23694098481591652 19.429160754905013 0 0 Z " fill="#BD03F7" transform="translate(68,329)"/>
<path d="M0 0 C0.3300000000000125 0.660000000000025 0.6599999999999966 1.3199999999999932 1 2 C2.6500000000000057 2 4.300000000000011 2 6 2 C6.50333542481917 4.603562405761124 7.002793780023637 7.207766514267973 7.5 9.8125 C7.64308593749999 10.550488281250011 7.786171875000008 11.288476562500023 7.93359375 12.048828125 C8.509262812598877 15.077943906770258 9 17.9091959990115 9 21 C9.659999999999997 21 10.319999999999993 21 11 21 C11.20753906249999 21.678046875000007 11.415078125000008 22.356093750000014 11.62890625 23.0546875 C14.039414570252461 30.33664150511413 17.291854909387496 35.973976689579274 22 42 C22.500156250000003 42.69996093750001 23.000312500000007 43.39992187500002 23.515625 44.12109375 C28.641034291939036 50.760828514557375 35.71953567879078 54.19449536644595 43 58 C43.7463671875 58.42410156250003 44.492734375 58.848203125000055 45.26171875 59.28515625 C50.856858513505955 62.370107524218156 56.79422711614734 63.5895970718517 63 65 C63 70.94000000000005 63 76.88 63 83 C56.07734190343683 83 52.196496212738765 82.84294013110843 46.1875 80.375 C45.498093261718736 80.10139648437496 44.8086865234375 79.82779296875003 44.098388671875 79.5458984375 C42.054862599897376 78.7206237377469 40.02596205550384 77.86739373934586 38 77 C36.930078124999994 76.54367187499997 35.86015624999999 76.08734374999995 34.7578125 75.6171875 C15.059558527601837 66.47343565604865 0.5830386830882333 49.8111964313436 -7.1875 29.625 C-10.367596836851646 20.38083186696565 -11.25300524258924 11.740701839685812 -11 2 C-9.185000000000002 1.670000000000016 -9.185000000000002 1.670000000000016 0 0 Z " fill="#BC02F6" transform="translate(195,461)"/>
<path d="M0 0 C5.939999999999998 0 11.879999999999995 0 18 0 C18 11.220000000000027 18 22.439999999999998 18 34 C12.389999999999986 34 6.780000000000001 34 1 34 C0.17211055622300364 22.6165201480664 -0.08918028769420516 11.415076824858204 0 0 Z " fill="#AB01E0" transform="translate(183,378)"/>
<path d="M0 0 C5.610000000000014 0 11.219999999999999 0 17 0 C17 10.560000000000002 17 21.120000000000005 17 32 C4 33 4 33 1 32 C0.6699999999999875 32.65999999999997 0.3400000000000034 33.31999999999999 0 34 C0 22.779999999999973 0 11.560000000000002 0 0 Z " fill="#BA01F4" transform="translate(184,428)"/>
<path d="M0 0 C5.610000000000014 0 11.220000000000027 0 17 0 C17 5.940000000000055 17 11.879999999999995 17 18 C11.389999999999986 18 5.779999999999973 18 0 18 C0 12.059999999999945 0 6.1200000000000045 0 0 Z " fill="#0C0010" transform="translate(258,526)"/>
<path d="M0 0 C5.939999999999998 0 11.879999999999995 0 18 0 C18 5.610000000000014 18 11.220000000000027 18 17 C12.060000000000002 17 6.1200000000000045 17 0 17 C0 11.389999999999986 0 5.779999999999973 0 0 Z " fill="#060008" transform="translate(67,312)"/>
<path d="M0 0 C5.610000000000014 0 11.220000000000027 0 17 0 C16.670000000000016 5.939999999999998 16.339999999999975 11.879999999999995 16 18 C10.720000000000027 18.329999999999984 5.439999999999998 18.660000000000025 0 19 C0 12.730000000000018 0 6.4599999999999795 0 0 Z " fill="#8D01B8" transform="translate(333,410)"/>
<path d="M0 0 C5.280000000000001 0 10.560000000000002 0 16 0 C16 5.279999999999973 16 10.560000000000002 16 16 C10.719999999999999 16 5.439999999999998 16 0 16 C0 10.720000000000027 0 5.439999999999998 0 0 Z " fill="#000001" transform="translate(184,379)"/>
</svg>
