<?xml version="1.0" encoding="UTF-8"?>
<!-- Generator: visioncortex VTracer 0.6.12 -->
<svg version="1.1" xmlns="http://www.w3.org/2000/svg" width="600" height="600">
<path d="M0 0 C6.930000000000007 0 13.86 0 21 0 C21.204960937500005 2.3009765625000114 21.409921874999995 4.601953124999994 21.62109375 6.97265625 C21.822556561143927 9.220010654567346 22.024651769803484 11.467307363964835 22.226806640625 13.714599609375 C22.366138942011247 15.267274861323415 22.50482164184406 16.820008557396363 22.642822265625 18.372802734375 C22.842171357043554 20.61458042307092 23.04391498806119 22.856132198239692 23.24609375 25.09765625 C23.306553802490242 25.783361968994143 23.36701385498047 26.469067687988286 23.429306030273438 27.175552368164063 C23.819941289072375 31.47450765518809 24.37929075329214 35.72899211946125 25 40 C25.10751985567927 42.67939480352743 25.047082096648282 45.31632049104772 25 48 C25.659999999999997 48 26.319999999999993 48 27 48 C27.085642089843745 48.62978759765625 27.171284179687504 49.25957519531249 27.259521484375 49.908447265625 C27.65194050723798 52.79316428244425 28.04471752786293 55.6778324488165 28.4375 58.5625 C28.572207031250002 59.553144531249984 28.706914062500005 60.54378906249997 28.845703125 61.564453125 C29.10904385497568 63.497759459699466 29.373814608769933 65.43087164010598 29.64013671875 67.36376953125 C29.861971211158064 68.98885016152292 30.078327415055256 70.61470284191233 30.28564453125 72.24169921875 C30.893068415637856 76.89306841563786 30.893068415637856 76.89306841563786 32 78 C32.284471492853754 79.54448658685521 32.5141447729649 81.09916954341077 32.71875 82.65625 C32.84636718749999 83.59597656250003 32.973984375 84.535703125 33.10546875 85.50390625 C33.36848958333334 87.50130208333331 33.63151041666666 89.49869791666669 33.89453125 91.49609375 C34.02214843749999 92.43582031250003 34.149765625 93.375546875 34.28125 94.34375 C34.39533203125001 95.21193359375002 34.5094140625 96.08011718749998 34.626953125 96.974609375 C35 99 35 99 36 100 C36.35805941751828 102.0550805223948 36.65984736905277 104.12002049187225 36.9375 106.1875 C37.110234375000005 107.443046875 37.28296875000001 108.69859374999999 37.4609375 109.9921875 C37.73175782427052 112.00019710431843 38.00112657281997 114.00839845802614 38.2705078125 116.0166015625 C38.53113388104782 117.94902539438738 38.79673915434344 119.88077564425748 39.0625 121.8125 C39.140488281249986 122.39322265625003 39.140488281249986 122.39322265625003 39.53515625 125.33203125 C40 128 40 128 41 129 C41.358462618793226 131.12818353090273 41.66008053680491 133.26599323229237 41.9375 135.40625 C42.110234375000005 136.7069140625 42.28296875000001 138.007578125 42.4609375 139.34765625 C42.73176422270828 141.4280978926227 43.00112972778132 143.50872582161782 43.2705078125 145.58935546875 C43.53111142440767 147.59126503294982 43.79672715477028 149.59252014300893 44.0625 151.59375 C44.2184765625 152.79708984374997 44.374453125 154.0004296875 44.53515625 155.240234375 C45 158 45 158 46 159 C46.67591744417575 162.326973433636 47.089453578501775 165.70138068935478 47.5625 169.0625 C47.701074218749994 169.99255859375 47.83964843749999 170.9226171875 47.982421875 171.880859375 C48.757692445717026 177.31539150372078 49.1486857492543 182.5115564731787 49 188 C49.66 188 50.31999999999999 188 51 188 C51.05796752929689 188.4366296386719 51.05796752929689 188.4366296386719 51.351318359375 190.646240234375 C51.78218747787622 193.8763589983114 52.2168238956489 197.10594151773358 52.654052734375 200.335205078125 C52.8427486438984 201.73474037261764 53.029927686321 203.13448103407484 53.215576171875 204.534423828125 C53.482202716300264 206.5430104627954 53.75468276093096 208.55081737594617 54.02734375 210.55859375 C54.18968505859374 211.76829833984374 54.352026367187506 212.97800292968748 54.519287109375 214.224365234375 C55 217 55 217 56 218 C56.329999999999984 146.06 56.66 74.12 57 0 C63.599999999999994 0 70.19999999999999 0 77 0 C76.998156414032 0.8454844808578628 76.998156414032 0.8454844808578628 76.98882675170898 5.124148368835449 C76.90223834029786 45.243624477779235 76.83625949177986 85.36308999851542 76.79573868215084 125.48264027759433 C76.79073571772028 130.418195895787 76.78555844197646 135.35375131677188 76.7802734375 140.289306640625 C76.7797488166392 140.78060699451714 76.7797488166392 140.78060699451714 76.77709391713142 143.26688454300165 C76.75967778720846 159.18735873259402 76.72813345331764 175.10777528246376 76.6913888156414 191.028215251863 C76.65401299365394 207.35804499777117 76.63177126366992 223.6878445088676 76.62364602088928 240.01771527528763 C76.61815127041348 250.09815376629348 76.60078235994757 260.1784293517702 76.56833413243294 270.2588177099824 C76.54722769142262 277.166681474351 76.5407911588201 284.07446073856784 76.54599449038506 290.98235442489386 C76.54856232169055 294.97083548446 76.54456284634503 298.9590314235466 76.52317810058594 302.9474620819092 C76.50375005862475 306.59752643568976 76.50270515731131 310.2471132329515 76.5164044201374 313.89719931036234 C76.51890174895601 315.84604137597717 76.50161604588376 317.7948776150906 76.48367476463318 319.74363869428635 C76.49163895845413 320.89963108122356 76.49960315227509 322.05562346816055 76.50780868530273 323.2466459274292 C76.50628980398179 324.2441712349653 76.50477092266084 325.2416965425015 76.50320601463318 326.2694498896599 C77.13904059926489 329.7642148150892 78.57763335584377 331.45192828886957 81 334 C81.66 334.3299999999999 82.32 334.6600000000001 83 335 C83 335.6600000000001 83 336.31999999999994 83 337 C89.72814304234925 338.5688655714305 96.0432701880139 339.2894817531535 102.94287109375 339.25396728515625 C103.89174383163453 339.2570872664452 104.84061656951906 339.2602072477341 105.8182430267334 339.2634217739105 C108.97003936249973 339.27134339963595 112.1216400291089 339.26510100953965 115.2734375 339.2587890625 C117.54437369787732 339.26150151476304 119.81530901524616 339.26506387469635 122.08624267578125 339.2694091796875 C128.23490823399328 339.27850514752936 134.38350646339157 339.27500042189104 140.53217315673828 339.26865100860596 C146.97636593938648 339.26357657157973 153.42055307714782 339.2682864759272 159.86474609375 339.27142333984375 C171.37770378798706 339.27529142402307 182.8906271554605 339.26908817557137 194.40357947349548 339.25890466570854 C204.82701081144933 339.2499700640275 215.25039759055107 339.25152238837984 225.673828125 339.2607421875 C237.79928612341428 339.2714625633985 249.92470917923265 339.27542001738334 262.05017280578613 339.269517660141 C268.4610920638241 339.26640459224313 274.8719806772182 339.26597041117657 281.28289794921875 339.27259063720703 C287.31087031082814 339.27838095096877 293.33875877779474 339.2743362958911 299.3667221069336 339.26280212402344 C301.57495738653387 339.2601645630091 303.78319976333506 339.26090513706004 305.9914321899414 339.2653274536133 C309.0134254338494 339.270820058621 312.03515246300344 339.2639038230943 315.05712890625 339.25396728515625 C315.49050410270695 339.2561980068683 315.49050410270695 339.2561980068683 317.6836452484131 339.2674868106842 C323.65072971040325 339.22962134339866 329.1926017040627 338.3541666978142 335 337 C335 336.3399999999999 335 335.68000000000006 335 335 C335.804375 334.77312499999994 336.60875 334.54625 337.4375 334.3125 C338.283125 333.879375 339.12875 333.44624999999996 340 333 C341.0493992703 329.4239377667161 341.12446374130354 325.9705384739823 341.1230478286743 322.26226329803467 C341.12503887712955 321.10975430667395 341.1270299255848 319.95724531531334 341.1290813088417 318.76981180906296 C341.1276248881221 318.13897839218384 341.1276248881221 318.13897839218384 341.12025451660156 314.9465789794922 C341.1206906495286 313.5893289787721 341.12156633361553 312.2320790600372 341.12284368276596 310.8748295903206 C341.125080366609 307.1463993581564 341.1210786314485 303.41799783586686 341.11606562137604 299.68957126140594 C341.1117494759244 295.66849002234886 341.1132083746602 291.647410418293 341.1139678955078 287.62632751464844 C341.11449238982567 280.6599101111783 341.11135334636424 273.69350206957347 341.1057300567627 266.727087020874 C341.09760500112804 256.6548049977725 341.0949988023838 246.5825275041866 341.09374206513166 236.51024255901575 C341.0915531318306 220.1688538008841 341.0848973304492 203.82747003283794 341.075439453125 187.486083984375 C341.0662612440401 171.6114097593138 341.0591824065304 155.73673688934548 341.054931640625 139.862060546875 C341.0546689171344 138.8836396148056 341.0544061936438 137.90521868273618 341.0541355088353 136.89714863151312 C341.0528304767818 131.98872644066728 341.0515667674757 127.08030424021769 341.0503236055374 122.17188203334808 C341.03995592728813 81.44791785073926 341.0222676004458 40.72395928946548 341 0 C347.6 0 354.2 0 361 0 C361.16499999999996 35.97 361.16499999999996 35.97 362 218 C363.8636485475437 216.13635145245632 363.6359602143111 213.0675222740041 363.97265625 210.55859375 C364.14990234375 209.25341796875 364.3271484375 207.9482421875 364.509765625 206.603515625 C364.6941010037399 205.21485577182602 364.8783445953688 203.82618373167452 365.0625 202.4375 C365.25026491791897 201.04486976037867 365.4384110075144 199.65229085588192 365.626953125 198.259765625 C366.0883992004199 194.8403318866321 366.5459010525941 191.4204159075279 367 188 C367.66 188 368.32 188 369 188 C369.0605859375 187.08218750000003 369.121171875 186.164375 369.18359375 185.21875 C370.3554983763862 168.05485454892778 370.3554983763862 168.05485454892778 371.93359375 163.0234375 C373.4578309649069 157.81199787950868 373.97097226807597 152.43820753127352 374.625 147.0625 C374.7590625 145.99708984375002 374.893125 144.93167968750004 375.03125 143.833984375 C375.3590583011105 141.2232254054412 375.6818351286099 138.61194868867625 376 136 C376.66 136 377.32 136 378 136 C378.048984375 135.1633984375 378.09796875 134.326796875 378.1484375 133.46484375 C378.71997778512144 124.56655275923004 379.7271519759544 115.82343193367518 381 107 C381.66 107 382.32 107 383 107 C382.98517578125 106.45279296875003 382.98517578125 106.45279296875003 382.91015625 103.68359375 C382.9113201157424 98.40313487684432 383.6606531915717 93.27640671889299 384.4375 88.0625 C384.504853515625 87.58393554687501 384.504853515625 87.58393554687501 384.845703125 85.162109375 C385.86862801079735 78.13137198920265 385.86862801079735 78.13137198920265 387 77 C387.37056207239107 74.86037572320254 387.6838351852404 72.71077652288596 387.97265625 70.55859375 C388.14990234375 69.25341796875 388.3271484375 67.9482421875 388.509765625 66.603515625 C388.6941010037399 65.21485577182602 388.8783445953688 63.82618373167452 389.0625 62.4375 C389.25026491791897 61.04486976037873 389.4384110075144 59.652290855881915 389.626953125 58.259765625 C390.0883992004199 54.84033188663204 390.5459010525941 51.42041590752797 391 48 C391.66 48 392.32 48 393 48 C392.98517578125 47.488886718749995 392.98517578125 47.488886718749995 392.91015625 44.90234375 C392.9115851660652 38.41935156227811 393.73181960182626 31.998961678226294 394.4375 25.5625 C394.504853515625 24.91700195312501 394.504853515625 24.91700195312501 394.845703125 21.650390625 C394.97783203125 20.426425781250003 395.1099609375 19.202460937500007 395.24609375 17.94140625 C395.3665405273438 16.82451416015624 395.4869873046875 15.70762207031251 395.611083984375 14.556884765625 C396 12 396 12 397 11 C397.23363880903474 9.151080535910069 397.41303634718037 7.29511968504417 397.5625 5.4375 C397.706875 3.6431249999999977 397.85125 1.8487499999999955 398 0 C404.6 0 411.2 0 418 0 C418.0272332769619 3.6250517555926365 418.0469511396511 7.2498942729494615 418.0625 10.875 C418.07087890625 11.88820312499999 418.0792578125 12.901406250000008 418.087890625 13.9453125 C418.1083019721429 20.313652808578723 418.0643027823226 26.703495427657828 417 33 C416.67 33.329999999999984 416.34 33.66 416 34 C415.62904629323907 36.21272284708334 415.31593734815203 38.43519270295707 415.02734375 40.66015625 C414.9399745178223 41.324622650146495 414.85260528564453 41.98908905029296 414.76258850097656 42.67369079589844 C414.4835715271569 44.80279555533622 414.2104763817406 46.932613165471054 413.9375 49.0625 C413.74973755163876 50.50330590219684 413.561591505024 51.94406187081978 413.373046875 53.384765625 C412.91090674198136 56.922607778095255 412.4540756846284 60.4611127150053 412 64 C411.34 64 410.68 64 410 64 C410.01546874999997 64.54140625000002 410.01546874999997 64.54140625000002 410.09375 67.28125 C410.09375 72.75719209828992 409.2879476650191 78.09084575905808 408.5 83.5 C408.3569140625 84.51320312500002 408.213828125 85.52640624999998 408.06640625 86.5703125 C407.71584417624393 89.04761782120966 407.36027153429274 91.52409137071152 407 94 C406.67 94 406.34 94 406 94 C405.9571789550781 94.32798583984373 405.9571789550781 94.32798583984373 405.740478515625 95.98779296875 C405.35153498846427 98.95069700212417 404.95708727132404 101.91284253061872 404.5625 104.875 C404.495146484375 105.39126953125003 404.495146484375 105.39126953125003 404.154296875 108.00390625 C404.02216796875 108.99003906249999 403.8900390625 109.97617187499998 403.75390625 110.9921875 C403.6334594726562 111.90339355468751 403.5130126953125 112.81459960937502 403.388916015625 113.75341796875 C403 116.00000000000006 403 116.00000000000006 402 118 C401.24976582469947 121.33288625175794 400.74522871074157 124.66708628058893 400.31640625 128.0546875 C400.19330078125 128.9995703125 400.0701953125 129.944453125 399.943359375 130.91796875 C399.6905064145716 132.8811450684031 399.44048201807675 134.84468787750643 399.193359375 136.80859375 C398.667065937309 140.81714998526297 398.1102945229472 144.61461291203676 396.99609375 148.5078125 C395.6344063071495 153.28172847611108 395.1017176067996 158.0804626433091 394.5 163 C393.2684619273011 173.0688387482196 393.2684619273011 173.0688387482196 392.0078125 177.44140625 C390.5646984973709 182.5370529802135 390.0135977468143 187.68861749939902 389.375 192.9375 C389.2409375 194.00291015624998 389.106875 195.06832031249996 388.96875 196.166015625 C388.6409416988895 198.7767745945588 388.3181648713901 201.3880513113237 388 204 C387.34 204 386.68 204 386 204 C386.01546874999997 204.54140625000002 386.01546874999997 204.54140625000002 386.09375 207.28125 C386.09375 212.75719209828992 385.2879476650191 218.0908457590582 384.5 223.5 C384.3569140625 224.51320312500002 384.213828125 225.52640625000004 384.06640625 226.5703125 C383.71584417624393 229.04761782120949 383.36027153429274 231.52409137071157 383 234 C382.67 234 382.34 234 382 234 C380.68 243.57 379.36 253.14 378 263 C377.34 263 376.68 263 376 263 C375.9394140625 263.9178125 375.878828125 264.835625 375.81640625 265.78125 C374.64652064808547 282.91557450803975 374.64652064808547 282.91557450803975 373.05859375 288.03515625 C371.6265448537188 292.93160953818995 371.1178448673045 297.94860899698335 370.5 303 C369.742158613633 309.19597792809896 368.8406629608345 315.0142782010071 367 321 C366.43749156646163 323.47452104478566 365.8953980934064 325.953781826924 365.375 328.4375 C365.2448046875 329.05560546874995 365.2448046875 329.05560546874995 364.5859375 332.18359375 C364.392578125 333.1130078125 364.19921875 334.04242187499995 364 335 C363.34 335 362.68 335 362 335 C361.0473851252154 339.763074373923 360.9166664275505 344.1666527979297 361 349 C357.6666666666666 349 354.3333333333334 349 351 349 C350.67 349.99 350.34 350.98 350 352 C346.9374999999999 353.1875 346.9374999999999 353.1875 344 354 C344 354.6600000000001 344 355.31999999999994 344 356 C336.6052492515279 359.12026872000865 330.34348940015565 360.5851417049113 322.336181640625 360.5079345703125 C321.8290024232864 360.51105455160143 321.8290024232864 360.51105455160143 319.2623682022095 360.52684354782104 C315.89472121922677 360.54268068293254 312.52780741070563 360.5302054401143 309.16015625 360.517578125 C306.73305848092025 360.5230033456386 304.30596400761925 360.5301282448545 301.8788757324219 360.538818359375 C295.9897678989206 360.5551212786064 290.1008475042201 360.5527946980726 284.2117450237274 360.5411677956581 C279.4223251552983 360.53210631416346 274.63296237273295 360.53092115479603 269.8435363769531 360.53526306152344 C269.1599131304026 360.53587599366904 268.476289883852 360.53648892581464 267.77195078134537 360.5371204316616 C266.38285468359516 360.5383994307283 264.9937586021737 360.5396962860043 263.60466253757477 360.5410107970238 C250.60222588163447 360.55239631686686 237.59990233171567 360.53933484325876 224.59748423099518 360.5178093314171 C213.45913861519455 360.49994016099413 202.32095979562683 360.5030448413802 191.1826171875 360.521484375 C178.22430777918845 360.5429270533389 165.26609731134295 360.55129787073747 152.30777263641357 360.539035320282 C150.92400298054443 360.5377612254939 149.54023330927998 360.53650374040194 148.15646362304688 360.53526306152344 C147.47575697481633 360.53464595943683 146.79505032658577 360.53402885735034 146.0937162041664 360.5333930552006 C141.3142536925339 360.5299503214128 136.53485433832043 360.5357451624368 131.75540161132813 360.54518127441406 C125.31368356562507 360.5576205738645 118.8722055451525 360.5486685208223 112.43051528930664 360.5256042480469 C110.07112269474067 360.52033036680416 107.71170352786183 360.52180818963507 105.35232162475586 360.53065490722656 C102.12246786543534 360.5416458943081 98.89360935131148 360.52780306475677 95.663818359375 360.5079345703125 C95.20111305713652 360.51239601373675 95.20111305713652 360.51239601373675 92.859543800354 360.5349736213684 C85.96258800352393 360.45312825607164 80.33266177873799 358.67211257481176 74 356 C74 355.3399999999999 74 354.68000000000006 74 354 C73.54624999999999 353.87625 73.54624999999999 353.87625 71.25 353.25 C67.89648511144844 351.9601865813263 66.32291763880028 350.6802895832311 64 348 C64 348.6600000000001 64 349.31999999999994 64 350 C63.40187499999999 349.83500000000004 62.80375000000001 349.6700000000001 62.1875 349.5 C60 349 60 349 57 349 C57.04640624999999 348.35933593749996 57.09281250000001 347.7186718749999 57.140625 347.05859375 C57.36546449894405 341.6704757574478 57.0999519801895 338.52492797028424 54.0234375 333.91015625 C50.88677503614679 328.0558511170831 50.71026441463522 320.51905067070743 51 314 C50.34 314 49.68000000000001 314 49 314 C48.49209841248168 310.48026000919265 47.99511477271017 306.9590595770691 47.5 303.4375 C47.42845703124999 302.94217773437504 47.42845703124999 302.94217773437504 47.06640625 300.435546875 C46.34079377186424 295.235324115027 45.82326589109252 290.25047581879295 46 285 C45.34 285 44.68000000000001 285 44 285 C43.4935767008061 281.2925145348021 42.99600844996428 277.58389201324644 42.5 273.875 C42.35691406250001 272.82828125 42.21382812499999 271.7815625 42.06640625 270.703125 C41.411142463684826 265.7730450839143 40.79292598510372 260.98703252541867 41 256 C40.34 256 39.68000000000001 256 39 256 C38.94203247070311 255.5633703613281 38.94203247070311 255.5633703613281 38.648681640625 253.353759765625 C38.21781252212378 250.12364100168867 37.7831761043511 246.89405848226636 37.345947265625 243.664794921875 C37.1572513561016 242.26525962738236 36.97007231367898 240.86551896592516 36.784423828125 239.465576171875 C36.517797283699736 237.4569895372046 36.24531723906904 235.44918262405383 35.97265625 233.44140625 C35.81031494140625 232.23170166015626 35.647973632812494 231.02199707031252 35.480712890625 229.775634765625 C35 227 35 227 34 226 C33.6534709791072 224.038785182462 33.36356434285344 222.06751260198803 33.09765625 220.09375 C32.92943359374999 218.87429687500003 32.76121093750001 217.65484375 32.587890625 216.3984375 C32.41451171874999 215.111953125 32.2411328125 213.82546875000003 32.0625 212.5 C30.097637812211985 197.94657208436865 30.097637812211985 197.94657208436865 28.439697265625 190.966796875 C27.473805652236024 186.64629557713124 27.031901570771453 182.23024686150484 26.46484375 177.84375 C26 175 26 175 25 174 C24.32376838197412 170.48427478939715 23.911029496186742 166.9230726843466 23.4375 163.375 C23.298925781250006 162.3888671875 23.160351562499997 161.40273437500002 23.017578125 160.38671875 C22.31577505103232 155.2078960662385 21.831669086397085 150.22557705706424 22 145 C21.340000000000003 145 20.680000000000007 145 20 145 C19.492098412481695 141.4802600091927 18.995114772710167 137.95905957706907 18.5 134.4375 C18.356914062499996 133.44685546874996 18.213828124999992 132.45621093750003 18.06640625 131.435546875 C17.34079377186424 126.23532411502703 16.823265891092518 121.25047581879295 17 116 C16.340000000000003 116 15.680000000000007 116 15 116 C14.884064941406251 115.12674072265622 14.768129882812502 114.2534814453125 14.648681640625 113.353759765625 C14.217812522123793 110.12364100168867 13.783176104351085 106.89405848226636 13.345947265625 103.664794921875 C13.157251356101597 102.26525962738236 12.970072313678983 100.86551896592516 12.784423828125 99.465576171875 C12.517797283699721 97.4569895372046 12.245317239069038 95.44918262405378 11.97265625 93.44140625 C11.810314941406247 92.23170166015626 11.647973632812494 91.02199707031252 11.480712890625 89.775634765625 C11 87 11 87 10 86 C9.653470979107183 84.038785182462 9.363564342853437 82.06751260198803 9.09765625 80.09375 C9.013544921874995 79.48402343750001 9.013544921874995 79.48402343750001 8.587890625 76.3984375 C8.414511718749992 75.11195312500001 8.241132812499998 73.82546875000003 8.0625 72.5 C6.1120187079906 58.053089137512075 6.1120187079906 58.053089137512075 4.439697265625 51.0029296875 C3.7050152840178185 47.65627173241654 3.321789549976174 44.27679792935433 2.9375 40.875 C1.2934782608695627 26.88043478260869 1.2934782608695627 26.88043478260869 0 23 C-0.0820979194353555 21.226861494861737 -0.1074629406162586 19.450792251542993 -0.09765625 17.67578125 C-0.09443359374999716 16.64775390624999 -0.09121093749999432 15.619726562500006 -0.087890625 14.560546875 C-0.0795117187499983 13.488691406250013 -0.07113281249999659 12.416835937499997 -0.0625 11.3125 C-0.05798828125000455 10.229042968750008 -0.053476562499994884 9.145585937499987 -0.048828125 8.029296875 C-0.03703757076981162 5.3528410647465705 -0.01910207971761224 2.676413613767295 0 0 Z M61 344 C62 346 62 346 62 346 Z M356 344 C357 346 357 346 357 346 Z " fill="#010001" transform="translate(91,205)"/>
<path d="M0 0 C0.40903367757798037 -0.0036336019635143657 0.40903367757798037 -0.0036336019635143657 2.478991985321045 -0.022021830081939697 C5.232247070815163 -0.04033305641350182 7.984119791381943 -0.022888453027007927 10.73736572265625 -0.0057125091552734375 C12.72627857952422 -0.011471280082943736 14.715186123654263 -0.019410747471084733 16.704082489013672 -0.02934873104095459 C22.178835319081912 -0.05027871839526199 27.653154030947945 -0.03987883080087329 33.12790870666504 -0.024417638778686523 C39.028479118686846 -0.013133245883807376 44.9289733859209 -0.030552366726482205 50.82952880859375 -0.04431724548339844 C61.72367843248736 -0.0652974567823037 72.61767843481823 -0.06343455044653012 83.51183605194092 -0.04975990392267704 C93.5754308202645 -0.037189587846512495 103.6389746778128 -0.03389511571191406 113.70257568359375 -0.03987312316894531 C114.36972550958393 -0.040255048638215385 115.03687533557414 -0.040636974107471246 115.72424182295799 -0.041030473075807095 C118.43231767597737 -0.04258712692215738 121.1403935043489 -0.04417912336093366 123.84846930205822 -0.04582929192110896 C149.26015356754002 -0.06112950498858538 174.67174936455777 -0.047248760454323246 200.08341997861862 -0.02034480683505535 C222.66766022567697 0.003383831753055233 245.2517595191723 0.0012607180165673526 267.83599853515625 -0.022649765014648438 C293.20074756404824 -0.04941417996363384 318.5654184072306 -0.060044487945617675 343.93017959594727 -0.044588446617126465 C346.6333643417793 -0.04298482294248629 349.33654910823077 -0.04142062430709359 352.03973388671875 -0.03987312316894531 C352.372538344115 -0.03967542976606353 352.372538344115 -0.03967542976606353 354.0567305982113 -0.03867498133331537 C364.1148071557888 -0.032983986434004464 374.17282725487144 -0.03964572453037363 384.23089599609375 -0.05227088928222656 C395.66567888878706 -0.06627384158785787 407.10029010522516 -0.06254230718910492 418.5350532531738 -0.03586716949939728 C424.372621688918 -0.02269940747648036 430.20990358436615 -0.017627125531276988 436.04747009277344 -0.03411293029785156 C441.38682037150807 -0.04896400999020045 446.72561732414215 -0.04090422391148252 452.06491708755493 -0.014225170016288757 C454.000908187953 -0.008619630675184453 455.9369456176596 -0.011526740970936089 457.87290716171265 -0.02360410988330841 C460.4967139614313 -0.0387224853213155 463.11860430329546 -0.023307373286186817 465.7423095703125 0 C466.12167466878896 -0.005852915346622467 466.12167466878896 -0.005852915346622467 468.04149198532104 -0.035472214221954346 C471.97425215044836 0.03476794445859355 473.7148901013429 0.5057638507963702 476.8395252227783 2.9740806818008423 C479.3813265727181 6.29594628662727 479.5039308651984 8.11356403262792 479.51812744140625 12.267877578735352 C479.5225082397461 12.590971527099612 479.5225082397461 12.590971527099612 479.544677734375 14.226022720336914 C479.5665892033102 16.350694315655318 479.55215227948224 18.473264976392954 479.53521728515625 20.59795570373535 C479.538587892034 22.08099197158984 479.5434425522035 23.56402554194061 479.5497131347656 25.04705238342285 C479.5570731359662 28.150714265349208 479.54640848887254 31.253655183490693 479.52301025390625 34.35723304748535 C479.49452133368686 38.32889376450407 479.5109302281327 42.298865166642884 479.54087257385254 46.270463943481445 C479.558970149561 49.3315438706924 479.5531766219317 52.39222549354338 479.54023361206055 55.453317642211914 C479.5369063131965 56.91729877922421 479.5409629558176 58.381316481208984 479.5526313781738 59.84525489807129 C479.56538276501783 61.89465045272212 479.54591226543926 63.941339183146994 479.51812744140625 65.99053382873535 C479.5141494750976 67.15459754943848 479.5101715087891 68.3186612701416 479.5060729980469 69.51799964904785 C478.6530506199133 73.69795280482549 477.20305206835747 74.99716137738037 473.87115478515625 77.62920570373535 C470.96381233422596 78.12090693229885 468.6442727411985 78.30318343538374 465.7423095703125 78.2584114074707 C464.9242422151565 78.26567861139773 464.1061748600007 78.27294581532479 463.26331758499146 78.28043323755264 C460.5100624994975 78.29874446388419 457.7581897789305 78.28129986049771 455.00494384765625 78.26412391662598 C453.0160309907883 78.26988268755366 451.02712344665827 78.27782215494179 449.0382270812988 78.28776013851166 C443.5634742512307 78.30869012586595 438.0891555393645 78.29829023827159 432.61440086364746 78.28282904624939 C426.71383045162554 78.27154465335451 420.8133361843917 78.28896377419719 414.91278076171875 78.3027286529541 C404.0186311378251 78.323708864253 393.1246311354944 78.32184595791722 382.2304735183716 78.30817131139338 C372.16687875004794 78.29560099531722 362.1033348924998 78.29230652318262 352.03973388671875 78.29828453063965 C351.37258406072857 78.29866645610892 350.70543423473833 78.29904838157819 350.0180677473545 78.29944188054651 C347.30999189433504 78.30099853439287 344.6019160659636 78.30259053083165 341.8938402682543 78.30424069939181 C316.4821560027725 78.31954091245927 291.0705602057547 78.30566016792503 265.6588895916939 78.27875621430576 C243.0746493446356 78.25502757571763 220.4905500511402 78.25715068945414 197.90631103515625 78.28106117248535 C172.54156200626431 78.30782558743434 147.17689116308185 78.31845589541632 121.81212997436523 78.30299985408783 C119.1089452285332 78.30139623041319 116.40576046208162 78.29983203177778 113.70257568359375 78.29828453063965 C113.36977122619749 78.29808683723678 113.36977122619749 78.29808683723678 111.68557897210121 78.29708638880402 C101.62750241452375 78.29139539390471 91.56948231544095 78.29805713200108 81.51141357421875 78.31068229675293 C70.0766306815255 78.32468524905858 58.6420194650873 78.32095371465982 47.20725631713867 78.2942785769701 C41.36968788139444 78.28111081494717 35.53240598594644 78.27603853300198 29.694839477539063 78.29252433776855 C24.35548919880449 78.30737541746089 19.016692246170223 78.29931563138217 13.677392482757568 78.27263657748699 C11.74140138235947 78.26703103814589 9.805363952652868 78.26993814844164 7.8694024085998535 78.28201551735401 C5.245595608881686 78.29713389279203 2.623705267016703 78.28171878075688 0 78.2584114074707 C-0.37936509847641275 78.26426432281733 -0.37936509847641275 78.26426432281733 -2.299182415008545 78.29388362169266 C-6.231942580136007 78.22364346301211 -7.972580531030367 77.75264755667433 -11.09721565246582 75.28433072566986 C-13.639017002405538 71.96246512084343 -13.761621294885906 70.14484737484275 -13.77581787109375 65.99053382873535 C-13.78457946777344 65.34434593200683 -13.793341064453124 64.69815803527831 -13.8023681640625 64.03238868713379 C-13.824279632997694 61.90771709181547 -13.80984270916975 59.78514643107772 -13.79290771484375 57.66045570373535 C-13.79627832172158 56.177419435880864 -13.801132981890994 54.69438586553008 -13.807403564453125 53.21135902404785 C-13.814763565653678 50.10769714212151 -13.804098918560044 47.004756223979996 -13.78070068359375 43.90117835998535 C-13.752211763374326 39.92951764296666 -13.76862065782015 35.95954624082782 -13.798563003540039 31.987947463989258 C-13.816660579248492 28.92686753677829 -13.810867051619212 25.866185913927296 -13.797924041748047 22.80509376525879 C-13.794596742883968 21.341112628246492 -13.798653385505013 19.87709492626172 -13.810321807861328 18.413156509399414 C-13.823073194705394 16.363760954748514 -13.803602695126692 14.317072224323766 -13.77581787109375 12.267877578735352 C-13.771839904785153 11.103813858032225 -13.767861938476564 9.9397501373291 -13.763763427734375 8.740411758422852 C-12.224943405554704 1.1999347759103358 -6.876310253227437 -0.10608899440377684 0 0 Z M6.87115478515625 20.62920570373535 C6.541154785156252 32.83920570373536 6.211154785156253 45.04920570373537 5.87115478515625 57.62920570373535 C155.69115478515624 57.62920570373535 305.51115478515624 57.62920570373535 459.87115478515625 57.62920570373535 C459.87115478515625 45.419205703735344 459.87115478515625 33.20920570373535 459.87115478515625 20.62920570373535 C310.38115478515624 20.62920570373535 160.89115478515623 20.62920570373535 6.87115478515625 20.62920570373535 Z " fill="#000000" transform="translate(67.12884521484375,90.37079429626465)"/>
<path d="M0 0 C6.930000000000007 0 13.860000000000014 0 21 0 C21.022807436324968 42.17568411831317 21.040507017189896 84.35136736291918 21.05106532946229 126.52705642953515 C21.05231605185702 131.5050981767235 21.05361037262412 136.4831399116851 21.054931640625 141.461181640625 C21.0551939510554 142.452229571864 21.0554562614858 143.443277503103 21.055726520717144 144.46435718983412 C21.060079067789786 160.51601532134316 21.06796434789493 176.5676698752627 21.07715279608965 192.61932588368654 C21.086500857027545 209.08703017271534 21.09205805931606 225.55473258668883 21.09408849477768 242.02243942022324 C21.095461319119806 252.18572105444127 21.099798958027236 262.3489925767677 21.107916466891766 272.51227109879255 C21.11319812366054 279.4794688733258 21.114801048827587 286.4466614120699 21.113501377403736 293.41386104375124 C21.112860229037153 297.4348892677684 21.113850399674106 301.4558998078661 21.119205474853516 305.47692489624023 C21.124073386203804 309.1590253729962 21.124316321752815 312.8410962795424 21.12089889496565 316.523198120296 C21.12027664981713 318.4844527887618 21.124588004648956 320.44570711226413 21.129081308841705 322.4069567322731 C21.127090260386467 323.57738140285016 21.12509921193123 324.7478060734272 21.123047828674316 325.95369815826416 C21.123427549004532 326.95957731306555 21.123807269334804 327.96545646786694 21.124198496341705 329.0018168091774 C20.985390704167003 332.35267210543157 20.474288916581486 335.6799775839295 20 339 C13.399999999999977 339 6.800000000000011 339 0 339 C0 227.13 0 115.25999999999999 0 0 Z " fill="#BC02F6" transform="translate(318,205)"/>
<path d="M0 0 C6.600000000000023 0 13.199999999999989 0 20 0 C20 111.87 20 223.74 20 339 C13.399999999999977 339 6.800000000000011 339 0 339 C0 227.13 0 115.25999999999999 0 0 Z " fill="#BC02F6" transform="translate(375,205)"/>
<path d="M0 0 C6.600000000000023 0 13.199999999999989 0 20 0 C20 111.87 20 223.74 20 339 C13.399999999999977 339 6.800000000000011 339 0 339 C0 227.13 0 115.25999999999999 0 0 Z " fill="#BC02F6" transform="translate(262,205)"/>
<path d="M0 0 C6.599999999999994 0 13.199999999999989 0 20 0 C20 111.87 20 223.74 20 339 C13.400000000000006 339 6.800000000000011 339 0 339 C0 227.13 0 115.25999999999999 0 0 Z " fill="#BC02F6" transform="translate(205,205)"/>
<path d="M0 0 C6.600000000000023 0 13.199999999999989 0 20 0 C20.04643777044015 28.808739698366168 20.082060572297905 57.61747027830364 20.10362434387207 86.42623996734619 C20.105677183312423 89.0973924251985 20.107746456141854 91.76854485886594 20.10986328125 94.439697265625 C20.1103879021108 95.10356183461846 20.110912522971603 95.76742640361192 20.111453041434288 96.45140808075666 C20.119580236481852 106.48820562520314 20.133644592972757 116.52498149722658 20.15087890625 126.561767578125 C20.17090842858795 138.23203944819454 20.18373897505171 149.90229407869515 20.18817698955536 161.57258266210556 C20.19076827853104 167.74318416562255 20.196793046469054 173.9137363798871 20.21146011352539 180.084321975708 C20.225195676480553 185.9110993788322 20.229190927093725 191.73780793351955 20.226215362548828 197.56459999084473 C20.22675847452058 199.68513108537513 20.230639578836644 201.80566486952762 20.23841094970703 203.9261817932129 C20.303226852170837 222.55065441928645 19.093518828727326 241.0042779419457 16.375 259.4375 C16.240937499999973 260.38302734375 16.106875000000002 261.3285546875 15.96875 262.302734375 C15.651329866405206 264.5360117435063 15.3286387863796 266.7683516480014 15 269 C14.339999999999975 269 13.680000000000007 269 13 269 C13.029648437499986 270.0944140625 13.059296874999973 271.188828125 13.08984375 272.31640625 C13.088679884257601 277.5968651231558 12.339346808428274 282.7235932811069 11.5625 287.9375 C11.427792968749998 288.89462890625 11.293085937499995 289.8517578125 11.154296875 290.837890625 C10.131371989202648 297.86862801079735 10.131371989202648 297.86862801079735 9 299 C8.751130452001917 300.43963472214034 8.556694582999171 301.8887777965337 8.38671875 303.33984375 C8.274973144531259 304.23421142578127 8.163227539062518 305.1285791015625 8.048095703125 306.050048828125 C7.9290991210937705 307.0029077148438 7.810102539062484 307.9557666015626 7.6875 308.9375 C6.702926506667438 316.4032722973658 5.575478496004621 323.2664846598085 2 330 C1.339999999999975 329.6700000000001 0.6800000000000068 329.3399999999999 0 329 C0 220.43 0 111.86000000000001 0 0 Z " fill="#BB01F5" transform="translate(432,205)"/>
<path d="M0 0 C6.599999999999994 0 13.199999999999989 0 20 0 C20 108.89999999999998 20 217.8 20 330 C19.340000000000003 330 18.680000000000007 330 18 330 C14.508642594306224 323.42490559638384 13.27941457227908 316.6621882892673 12.25 309.375 C12.122624511718755 308.48079345703127 11.995249023437509 307.58658691406254 11.864013671875 306.665283203125 C11.16921123541934 301.3965676005415 10.876155891759936 296.31291224349843 11 291 C10.340000000000003 291 9.680000000000007 291 9 291 C8.492098412481681 287.48026000919265 7.995114772710167 283.9590595770691 7.5 280.4375 C7.35691406250001 279.44685546875 7.213828124999992 278.4562109375 7.06640625 277.435546875 C6.340793771864213 272.2353241150269 5.823265891092518 267.25047581879306 6 262 C5.340000000000003 262 4.680000000000007 262 4 262 C3.488430539906915 258.54327799217253 2.992934681961401 255.08442447971117 2.5 251.625 C2.3569140625000102 250.6594921875 2.213828124999992 249.693984375 2.06640625 248.69921875 C1.181349061797107 242.41952727179842 0.812053258890785 236.33972201722992 1 230 C0.3400000000000034 230 -0.3199999999999932 230 -1 230 C-0.6699999999999875 154.10000000000002 -0.3400000000000034 78.19999999999999 0 0 Z " fill="#BB01F5" transform="translate(148,205)"/>
<path d="M0 0 C1.3022753906249989 -0.0070092773437480105 2.6045507812499977 -0.014018554687503126 3.9462890625 -0.021240234375 C7.4856072361939425 -0.03931859859356024 11.024453766603699 -0.0324716665522331 14.56377911567688 -0.019723892211914063 C18.286666813542922 -0.00951715278866061 22.009517141726008 -0.019010479259861768 25.732406616210938 -0.0252685546875 C31.980368735631373 -0.03252192583902769 38.22814099897272 -0.023017398051216276 44.47607421875 -0.00390625 C51.67726740250623 0.017867742228091288 58.878007574951084 0.010798238426261264 66.07918983697891 -0.011211872100830078 C72.2876236444634 -0.029420734679199256 78.49592186787919 -0.031897820811565225 84.70437377691269 -0.021457195281982422 C88.40125852557753 -0.015253470026522109 92.09793099699857 -0.014299914379897416 95.79480171203613 -0.0276031494140625 C99.91815732030489 -0.04140794617244836 104.04074363310588 -0.0222229702439094 108.1640625 0 C109.37317794799804 -0.00809692382812699 110.58229339599609 -0.016193847656246874 111.82804870605469 -0.0245361328125 C119.19767123573314 0.048781068736985844 124.90464258441824 1.2197795297617162 131.517333984375 4.517578125 C131.517333984375 5.177578124999997 131.517333984375 5.837578125 131.517333984375 6.517578125 C132.21858398437496 6.703203125000002 132.91983398437503 6.888828125000003 133.642333984375 7.080078125 C140.2103855848917 10.364103925258334 145.15231227322676 18.03677276157194 147.767333984375 24.705078125 C148.75718613813177 29.736826573263585 148.6439077720853 34.391339722732326 148.517333984375 39.517578125 C141.91733398437498 39.517578125 135.317333984375 39.517578125 128.517333984375 39.517578125 C127.86629231770837 36.45768229166666 127.21525065104163 33.39778645833334 126.564208984375 30.337890625 C125.517333984375 27.517578125000014 125.517333984375 27.517578125000014 123.407958984375 26.134765625 C123.096005859375 26.0329296875 123.096005859375 26.0329296875 121.517333984375 25.517578125 C121.517333984375 24.857578125000003 121.517333984375 24.197578125 121.517333984375 23.517578125 C114.48944159712312 21.682626113368002 108.05199023414866 21.231034515519568 100.806396484375 21.2587890625 C99.66861755371093 21.25528442382813 98.53083862304686 21.251779785156245 97.35858154296875 21.2481689453125 C93.61976920325156 21.239409107208083 89.8811480535391 21.245180556143865 86.142333984375 21.251953125 C83.53116825257416 21.250604827240835 80.92000276594388 21.248662919699896 78.308837890625 21.24615478515625 C72.84511262755757 21.242526746916212 67.38144161630419 21.247283596650533 61.917724609375 21.2568359375 C55.62097894356123 21.267718269083886 49.32436284580041 21.26419186478907 43.02762031555176 21.253183126449585 C36.94448265227459 21.242977712070186 30.8614019600019 21.24410347784203 24.77825927734375 21.24994659423828 C22.201151343356457 21.251277305962248 19.624040084649778 21.24965570993554 17.04693603515625 21.24498748779297 C13.440626412167433 21.239887985074787 9.834562864272357 21.247680798942454 6.228271484375 21.2587890625 C5.171381225585947 21.254740600585933 4.114490966796865 21.25069213867188 3.02557373046875 21.24652099609375 C-9.779340822747713 21.319301299260445 -9.779340822747713 21.319301299260445 -14.482666015625 23.517578125 C-15.632232666015625 25.48531723022461 -15.632232666015625 25.48531723022461 -16.482666015625 27.517578125 C-16.977666015625005 28.095078125 -17.47266601562501 28.672578125 -17.982666015625 29.267578125 C-19.482666015625 31.517578125 -19.482666015625 31.517578125 -21.482666015625 39.517578125 C-28.082666015624994 39.517578125 -34.68266601562499 39.517578125 -41.482666015625 39.517578125 C-41.643325001178425 33.01088921008623 -41.66456410736751 27.654166508025853 -39.482666015625 21.517578125 C-38.822666015625 21.517578125 -38.16266601562501 21.517578125 -37.482666015625 21.517578125 C-37.374384765624995 20.9413671875 -37.26610351562499 20.36515625 -37.154541015625 19.771484375 C-35.65788627968337 14.750729824777181 -31.965888092272195 10.506392842764797 -27.670166015625 7.642578125 C-26.94829101562499 7.271328124999997 -26.226416015625006 6.900078125 -25.482666015625 6.517578125 C-25.152666015625016 5.857578125000003 -24.822666015625003 5.197578125 -24.482666015625 4.517578125 C-16.544611401548252 0.4032219560348267 -8.775036474770502 -0.058861170491660175 0 0 Z " fill="#000000" transform="translate(246.482666015625,34.482421875)"/>
<path d="M0 0 C2.009937046103232 2.009937046103232 2.8994091892987797 3.5921123245508397 4.125 6.125 C4.478203124999993 6.849453124999968 4.831406249999986 7.57390625000005 5.1953125 8.3203125 C5.4608593750000125 8.874609374999977 5.726406249999997 9.428906249999955 6 10 C5.40187499999999 9.835000000000036 4.803750000000008 9.669999999999959 4.1875 9.5 C2 9 2 9 -1 9 C-1.09765625 2.84765625 -1.09765625 2.84765625 -1 1 C-0.6699999999999875 0.6699999999999591 -0.3400000000000034 0.34000000000003183 0 0 Z " fill="#BC02F5" transform="translate(149,545)"/>
<path d="M0 0 C0.660000000000025 0.3300000000000409 1.3199999999999932 0.6599999999999682 2 1 C2 3.6399999999999864 2 6.279999999999973 2 9 C0.01999999999998181 9 -1.9599999999999795 9 -4 9 C-2.8010030163706574 5.916864899238931 -1.5229952261394715 2.937205078983311 0 0 Z " fill="#BB01F3" transform="translate(450,545)"/>
</svg>
