<?xml version="1.0" encoding="UTF-8"?>
<!-- Generator: visioncortex VTracer 0.6.12 -->
<svg version="1.1" xmlns="http://www.w3.org/2000/svg" width="600" height="600">
<path d="M0 0 C2.2398744184562247 1.136034869319701 3.3697257093054986 2.272960917850156 4.96484375 4.21484375 C5.570703125000023 4.943164062499989 6.176562499999989 5.671484375000006 6.80078125 6.421875 C7.494296874999975 7.261054687500007 8.187812500000007 8.100234375000014 8.90234375 8.96484375 C9.719609375000005 9.896835937499986 10.536875000000009 10.828828125000001 11.37890625 11.7890625 C23.511915311504083 25.645510348649566 33.455091298942705 40.614530090576125 41.90234375 56.96484375 C42.28487304687502 57.6933251953125 42.667402343749984 58.42180664062499 43.0615234375 59.17236328125 C59.819930624252265 91.39622296558045 67.35825564800768 127.14446024628376 67.27734375 163.27734375 C67.2767999267578 164.19593170166013 67.2762561035156 165.11451965332031 67.27569580078125 166.06094360351563 C67.11949301038146 223.70039807218097 45.86306924442425 279.3727948969045 6.21484375 321.44140625 C4.288623195860168 323.54332935468636 2.556208525254874 325.64725692678104 0.90234375 327.96484375 C-3.414960379795559 327.490747268457 -5.434130861048743 324.9308767200941 -8.34765625 321.90234375 C-9.239687500000002 320.9832421875 -10.131718750000005 320.064140625 -11.05078125 319.1171875 C-11.388515625000025 318.76205078124997 -11.388515625000025 318.76205078124997 -13.09765625 316.96484375 C-11.476084597403712 312.9444974633855 -8.625363777641894 310.20887445102625 -5.66015625 307.15234375 C25.049349458036318 274.63858482955936 42.67793013324297 230.9560715548448 47.90234375 186.96484375 C47.96808593749995 186.44728515625002 47.96808593749995 186.44728515625002 48.30078125 183.828125 C53.99854115387052 129.85339942414515 36.829194177150555 73.11473497089011 2.90234375 30.96484375 C-7.511368293207113 18.378633503851546 -7.511368293207113 18.378633503851546 -13.09765625 12.96484375 C-11.565175760677334 9.380816799164762 -9.430196145433456 6.936342413244688 -6.72265625 4.15234375 C-5.951796875000014 3.341523437500001 -5.180937500000027 2.5307031250000023 -4.38671875 1.6953125 C-2.09765625 -0.03515625 -2.09765625 -0.03515625 0 0 Z " fill="#FFFFFF" transform="translate(465.09765625,136.03515625)"/>
<path d="M0 0 C4.317304129795559 0.474096481542972 6.3364746110487715 3.0339670299059662 9.25 6.0625 C10.142031250000002 6.981601562500003 11.034062500000005 7.900703125000007 11.953125 8.84765625 C12.628593749999993 9.557929687500007 13.304062499999986 10.268203125000014 14 11 C12.378428347403712 15.020346286614426 9.527707527641894 17.75596929897378 6.5625 20.8125 C-24.14700570803629 53.32625892044061 -41.77558638324294 97.00877219515516 -47 141 C-47.131484375 142.03511718749996 -47.26296875 143.07023437500004 -47.3984375 144.13671875 C-53.09619740387055 198.1114443258548 -35.92685042715057 254.85010877910986 -2 297 C8.413712043206829 309.58621024614814 8.413712043206829 309.58621024614814 14 315 C12.467519510677334 318.5840269508352 10.3325398954334 321.02850133675537 7.625 323.8125 C6.854140625000014 324.6233203125 6.083281249999999 325.434140625 5.2890625 326.26953125 C3 328 3 328 0.90234375 327.96484375 C-1.337530668456111 326.82880888068036 -2.4673819593054986 325.6918828321498 -4.0625 323.75 C-4.668359374999994 323.0216796875 -5.274218749999989 322.293359375 -5.8984375 321.54296875 C-6.245195312500002 321.12337890624997 -6.245195312500002 321.12337890624997 -8 319 C-8.408632812500002 318.53400390625 -8.408632812500002 318.53400390625 -10.4765625 316.17578125 C-22.60957156150411 302.31933340135043 -32.552747548942705 287.3503136594239 -41 271 C-41.38252929687499 270.2715185546875 -41.76505859375 269.543037109375 -42.1591796875 268.79248046875 C-58.91758687425222 236.56862078441952 -66.45591189800767 200.8203835037163 -66.375 164.6875 C-66.37445617675782 163.76891204833987 -66.37391235351562 162.85032409667969 -66.37335205078125 161.90390014648438 C-66.2171492603815 104.26444567781908 -44.960725494424224 48.59204885309549 -5.3125 6.5234375 C-3.38627944586014 4.421514395313608 -1.653864775254931 2.3175868232190737 0 0 Z " fill="#FFFFFF" transform="translate(134,136)"/>
<path d="M0 0 C4.8804992469311514 3.941941699444385 9.058058300555615 8.119500753068849 13 13 C12.477929687499994 13.5478515625 11.955859374999989 14.095703125 11.41796875 14.66015625 C-16.505248202745634 44.73507468421815 -31.44264839013087 83.34842639830435 -30.1318359375 124.44482421875 C-28.423785054020072 157.54938078634427 -16.373763287987032 188.063435172577 4.87890625 213.44140625 C7.71985323151992 216.8683312461244 10.36218191402719 220.4152728575241 13 224 C9.039999999999992 227.96000000000004 5.079999999999984 231.91999999999996 1 236 C-3.8360686647044417 232.03719404560957 -7.950384673533733 228.03392424981428 -11.8125 223.125 C-12.068540039062498 222.80108276367184 -12.068540039062498 222.80108276367184 -13.3642578125 221.161865234375 C-18.824914563936403 214.12302796359927 -23.583126024106036 206.7304821916315 -28 199 C-28.35545898437499 198.3810888671875 -28.71091796875001 197.76217773437497 -29.0771484375 197.12451171875 C-49.55399839428307 160.75647257015356 -54.355050202223936 114.08566766997404 -43.154296875 73.97119140625 C-39.363180042976666 61.03430705748249 -34.670541913198974 48.72438105728767 -28 37 C-27.363203124999984 35.87593749999999 -26.726406249999997 34.751874999999984 -26.0703125 33.59375 C-18.74815877044651 21.243129251355555 -9.818196565970965 10.4240001838713 0 0 Z " fill="#FFFFFF" transform="translate(182,182)"/>
<path d="M0 0 C4.840821077626572 3.9065025292493374 8.968653742646723 7.987693611705879 12.8125 12.875 C13.326030273437482 13.526459960937501 13.83956054687502 14.177919921875002 14.36865234375 14.84912109375 C42.46785080184179 51.142834023401434 53.02309975430052 95.37075059801725 48.5390625 140.71875 C47.95751596534615 145.21193311505516 47.075393904628754 149.60066129924598 46 154 C45.796005859374986 154.842724609375 45.59201171874997 155.68544921875002 45.3818359375 156.5537109375 C42.38621920734357 168.55798001773377 38.46051110561717 179.90032254414916 33 191 C32.693364257812505 191.63099609375 32.38672851562501 192.26199218750003 32.07080078125 192.912109375 C25.9039136780346 205.45688127392032 18.0816284793421 216.48658282336805 9.125 227.1875 C8.672780761718741 227.72842285156253 8.220561523437482 228.269345703125 7.754638671875 228.82666015625 C5.307998358064481 231.6834309272889 3.0526683552989198 233.7104987335258 0 236 C-3.9599999999999795 232.03999999999996 -7.920000000000016 228.08000000000004 -12 224 C-8.565252358033433 219.29981901625627 -5.002478959689881 214.83573627333988 -1.1875 210.4375 C18.09752668137827 187.68073318805762 30.025542323730008 155.74214298876188 31 126 C31.039960937499984 124.806328125 31.079921874999968 123.61265624999999 31.12109375 122.3828125 C31.65280689499093 98.13729389422593 26.448804459192274 74.86038463328674 16 53 C15.670966796875007 52.311479492187516 15.341933593750014 51.622958984375 15.0029296875 50.91357421875 C8.072983651220568 36.684038962800344 -1.7244000829124388 24.908171866531404 -12 13 C-8.195245784592203 8.439691756000627 -4.250303790970122 4.14910608166133 0 0 Z " fill="#FFFFFF" transform="translate(417,182)"/>
<path d="M0 0 C7.983948779541379 4.853551596196041 14.856600313673823 12.059588044350676 17.546875 21.1953125 C19.506808067202257 31.50537707226181 18.085507368302387 40.4446908924657 12.88671875 49.578125 C7.578960082937442 57.354952462047095 -0.6076588524142608 62.50347187978605 -9.828125 64.3203125 C-18.950784890704313 65.28482279681452 -27.506154902000617 63.94396869858019 -35.078125 58.5703125 C-43.063772020325814 52.00147382199003 -48.16377760697492 44.997681705405 -49.2109375 34.47265625 C-49.65862079703891 24.251160917879133 -48.129591124218564 16.088453783647196 -41.578125 8.0078125 C-31.055028271129004 -3.1462193646490846 -14.051728788056039 -6.742943680174562 0 0 Z M-28.140625 20.4453125 C-31.346514020175505 24.463247287818888 -32.35497668150663 28.209851189385518 -31.828125 33.3203125 C-30.20591009880451 38.65853130277122 -27.567146454242334 42.28247823446003 -22.828125 45.3203125 C-18.75765152965289 46.677136990115685 -15.084207826465445 46.84503504024917 -10.828125 46.3203125 C-5.857110097476436 43.787908681733256 -2.3338193302876107 40.331701160575165 0.171875 35.3203125 C0.7629398727475518 29.63699641588886 0.444309164852541 25.17254246857442 -2.828125 20.3203125 C-6.762608174319951 16.59290738748632 -10.363346232072786 14.582523007226314 -15.765625 14.0078125 C-21.046603508384635 14.54668785799845 -24.497397901884938 16.69774476900335 -28.140625 20.4453125 Z " fill="#FFFFFF" transform="translate(315.828125,268.6796875)"/>
<path d="M0 0 C17.80635180473604 13.725729516150693 27.067432885352446 37.26836459070893 30 59 C30.278715431495073 62.92192428603755 30.334490582329693 66.81910373254811 30.3125 70.75 C30.31004272460939 71.27456787109372 30.31004272460939 71.27456787109372 30.297607421875 73.92919921875 C29.94725161459752 97.2754728585627 21.304745081549754 120.99271653073538 5 138 C4.175000000000011 138.65999999999997 4.175000000000011 138.65999999999997 0 142 C-3.9599999999999795 138.03999999999996 -7.920000000000016 134.08000000000004 -12 130 C-11.154375000000016 128.88625000000002 -10.308749999999975 127.77249999999998 -9.4375 126.625 C-8.290609857844288 125.0841193619508 -7.144847477019653 123.54239890860003 -6 122 C-5.4237890625000205 121.24074218750002 -4.847578124999984 120.48148437499998 -4.25390625 119.69921875 C8.467851637838635 102.38742794940003 13.678742592899027 81.68066487105938 11.375 60.4375 C8.706626477106283 43.63204821011982 2.0132558922209682 28.94646823264935 -9.27734375 16.2421875 C-11 14 -11 14 -11 11 C-9.214229539924474 8.996806188454258 -7.43695694980255 7.156654344099479 -5.5 5.3125 C-4.975351562500009 4.8013867187499955 -4.450703125000018 4.290273437499991 -3.91015625 3.763671875 C-2.613390964169639 2.502272915146847 -1.3075388323164816 1.2502278770039368 0 0 Z " fill="#FFFFFF" transform="translate(370,229)"/>
<path d="M0 0 C4.8804992469311514 3.941941699444385 9.058058300555615 8.119500753068849 13 13 C12.515312499999993 13.487265624999992 12.030624999999986 13.974531250000013 11.53125 14.4765625 C-3.7665542526397076 30.656932382599678 -11.072864128469718 51.93778281549368 -11 74 C-9.92829592048949 93.5089835214597 -2.66972238736048 111.1896612870101 10.27734375 125.7578125 C12 128 12 128 12 131 C10.214229539924418 133.00319381154577 8.43695694980255 134.84334565590052 6.5 136.6875 C5.975351562500009 137.19861328125 5.45070312499999 137.7097265625 4.91015625 138.236328125 C3.613390964169639 139.49772708485318 2.30753883231651 140.7497721229961 1 142 C-16.806351804736067 128.27427048384925 -26.067432885352474 104.73163540929107 -29 83 C-29.278715431495044 79.07807571396256 -29.334490582329664 75.18089626745183 -29.3125 71.25 C-29.30758544921875 70.2008642578125 -29.302670898437498 69.151728515625 -29.297607421875 68.07080078125 C-28.908690809049602 42.15499325790023 -18.457809802488157 18.083665009194476 0 0 Z " fill="#FFFFFF" transform="translate(229,229)"/>
</svg>
