<?xml version="1.0" encoding="UTF-8"?>
<!-- Generator: visioncortex VTracer 0.6.12 -->
<svg version="1.1" xmlns="http://www.w3.org/2000/svg" width="600" height="600">
<path d="M0 0 C8.665071909043704 5.260936516205106 11.896956209970739 30.80656543422674 14.2509765625 39.874267578125 C16.628542123079754 48.94982566944253 16.628542123079754 48.94982566944253 18.24609375 53.046875 C20.818152021198685 59.56778922516634 22.308647742268377 66.46821315823135 24.056640625 73.244140625 C25.671459318694488 79.39052179988616 27.52507203449011 85.30968852369264 29.761474609375 91.255615234375 C31.59931072977585 96.47408939496987 32.926071408598546 101.83495096622988 34.3125 107.1875 C36.237555819094524 114.57186045905439 38.242585791655614 121.85273148603713 40.75 129.0625 C43.06 128.7325 45.370000000000005 128.4025 47.75 128.0625 C47.75 127.4025 47.75 126.7425 47.75 126.0625 C48.443354492187495 125.82652099609373 49.136708984375005 125.5905419921875 49.85107421875 125.347412109375 C63.32445552220487 120.75122723258892 76.70320413393823 116.0254579054938 89.93408203125 110.77197265625 C92.4801729799803 109.77722402798832 95.04995823398878 108.85428791953024 97.625 107.9375 C102.35946501014587 106.24146451618248 106.97891001269818 104.31786402079894 111.61328125 102.3671875 C114.9996606211891 100.95865610525885 118.39888373696121 99.59119884252578 121.8125 98.25 C122.8759765625 97.8310546875 123.939453125 97.412109375 125.03515625 96.98046875 C127.75 96.0625 127.75 96.0625 130.75 96.0625 C130.75 95.4025 130.75 94.7425 130.75 94.0625 C134.6850464915233 92.72184762187086 138.62341645556714 91.39123929248106 142.5625 90.0625 C143.68205078125 89.6809375 144.8016015625 89.299375 145.955078125 88.90625 C147.02822265625 88.5453125 148.1013671875 88.18437499999999 149.20703125 87.8125 C150.19678955078126 87.47734374999999 151.1865478515625 87.1421875 152.206298828125 86.796875 C154.75 86.0625 154.75 86.0625 157.75 86.0625 C157.75 85.4025 157.75 84.7425 157.75 84.0625 C162.5171919309638 82.77439895445693 167.28607692386905 81.49284210382402 172.056640625 80.21728515625 C173.67886625328646 79.78255202924518 175.3006170214639 79.34604285770502 176.921875 78.90771484375 C179.2539777233831 78.27753267401229 181.58772047781255 77.65378326568572 183.921875 77.03125 C184.64493835449218 76.83438598632813 185.36800170898437 76.63752197265626 186.11297607421875 76.4346923828125 C189.48357572382073 75.54207865126699 192.23239827147265 75.0625 195.75 75.0625 C195.75 74.4025 195.75 73.7425 195.75 73.0625 C199.71463228588374 72.36516425052048 203.67989845958962 71.67155875507686 207.645751953125 70.981201171875 C208.9909772187288 70.74651461651018 210.3360342111879 70.51086115597343 211.680908203125 70.274169921875 C242.2964046131479 64.88884831460805 271.3865228433024 66.72896167113242 301.75 73.0625 C301.75 73.7225 301.75 74.3825 301.75 75.0625 C302.25015625000003 75.10310546875002 302.25015625000003 75.10310546875002 304.78125 75.30859375 C311.74656895586895 76.17925861948362 318.4939627689916 78.2757371083278 325.25 80.125 C326.6587206492006 80.50635293230198 328.0675738501717 80.8872165718503 329.4765625 81.267578125 C332.90258948718355 82.19357795449628 336.3267710311893 83.12620233687642 339.75 84.0625 C339.75 84.7225 339.75 85.3825 339.75 86.0625 C340.29454833984374 86.1735205078125 340.8390966796875 86.284541015625 341.400146484375 86.39892578125 C347.0003949943029 87.58567789786252 352.3891789674532 89.11256885013523 357.8125 90.9375 C358.56337890625 91.18113281249998 359.3142578125 91.42476562500002 360.087890625 91.67578125 C363.75764788379286 92.90009093184446 367.2188133534229 94.23595389703087 370.65234375 96.0234375 C375.34511966110006 98.45733168459483 380.2515337589831 100.11970547360909 385.25 101.8125 C386.1678125 102.1283203125 387.085625 102.44414062499999 388.03125 102.76953125 C390.2691858906891 103.53882171242435 392.5087179970125 104.30302558413052 394.75 105.0625 C394.75 105.7225 394.75 106.3825 394.75 107.0625 C396.0326171875 107.32417968750002 397.315234375 107.58585937499998 398.63671875 107.85546875 C403.75614114452344 108.99545352172282 408.6290493263731 110.60960556152497 413.5625 112.375 C414.44123779296876 112.68550292968752 415.3199755859375 112.996005859375 416.225341796875 113.31591796875 C421.84268121722107 115.32103848053666 427.34445065636726 117.51327188412466 432.8203125 119.87890625 C436.30948792722205 121.2885331225977 439.85949162776467 122.46636892221042 443.4375 123.625 C449.0715232758829 125.45663719668619 454.3984687245656 127.52756413268895 459.75 130.0625 C460.08 127.0925 460.41 124.1225 460.75 121.0625 C461.41 121.0625 462.06999999999994 121.0625 462.75 121.0625 C462.84539062499994 120.01191406250001 462.94078125 118.961328125 463.0390625 117.87890625 C463.80443161935284 111.77878009347364 465.5073498152726 105.9191290850255 467.125 100 C467.42921875 98.85466796875 467.73343750000004 97.70933593749999 468.046875 96.529296875 C469.24760887307934 92.09325228834575 470.41241187708624 87.84272331977718 472.24072265625 83.6171875 C473.72199242098145 80.12846414599 474.74541587503995 76.76516346715269 475.6875 73.09765625 C475.7706042480469 72.779154586792 475.7706042480469 72.779154586792 476.191162109375 71.16734313964844 C476.71596858841224 69.15453219358284 477.23371518666886 67.14001216309987 477.75 65.125 C481.62733934059725 50.03211107522648 481.62733934059725 50.03211107522648 484.0126953125 44.064697265625 C485.70040116707 39.481625837370444 486.8475119974694 34.71000246263387 488.125 30 C495.4857678896301 3.32673211036996 495.4857678896301 3.32673211036996 498.75 0.0625 C500.921875 0.234375 500.921875 0.234375 503.5 0.8125 C504.38945312500005 1.0110156249999989 505.27890625 1.2095312499999977 506.1953125 1.4140625 C509.1046414905171 2.152516035819332 511.9333699338291 3.0247941861475596 514.75 4.0625 C513.3989855235412 12.45049145423441 511.3860930459108 20.565027002505914 509.125 28.75 C508.96257812499994 29.34522460937501 508.96257812499994 29.34522460937501 508.140625 32.357421875 C507.3478784673414 35.26027314900006 506.5509381222141 38.161900349567304 505.75 41.0625 C505.09000000000003 41.0625 504.42999999999995 41.0625 503.75 41.0625 C503.62093261718746 42.07385009765625 503.49186523437504 43.085200195312495 503.35888671875 44.127197265625 C502.78207998917526 47.85516345408345 501.976384949064 51.38377403686741 501.0078125 55.02734375 C500.9232933044434 55.345845413207996 500.9232933044434 55.345845413207996 500.4955749511719 56.95765686035156 C500.139499134787 58.29513708527344 499.78141060281405 59.63208296897892 499.42138671875 60.968505859375 C498.87773952549867 62.989814302200756 498.3427467367675 65.01327397849411 497.80859375 67.037109375 C494.938454007362 77.81661246239833 494.938454007362 77.81661246239833 493.25390625 82.03515625 C490.7483382645007 88.32890440405185 489.2725390132273 95.01746978128358 487.5625 101.5625 C487.19113394807937 102.97145404770569 486.8193922383084 104.38030913736588 486.447265625 105.7890625 C485.54384193293004 109.21241126173243 484.6455137341038 112.63707242127404 483.75 116.0625 C483.0899999999999 116.0625 482.43000000000006 116.0625 481.75 116.0625 C481.646875 117.01125000000002 481.54375000000005 117.95999999999998 481.4375 118.9375 C480.6375126103659 123.73742433780455 479.1482731199196 128.40158960026776 477.75 133.0625 C483.855 132.89749999999998 483.855 132.89749999999998 514.75 132.0625 C514.8349435592586 139.39596061599295 514.9149341990819 146.72753991775116 514.9570007324219 154.06106567382813 C514.9777342487653 157.47941095469474 515.0051931317981 160.89733042300378 515.0517578125 164.3154296875 C515.4082615676379 192.64699281640077 513.8824553731945 224.00247308778813 502.7890625 250.53173828125 C501.01487857649374 254.85297666260954 499.52378420559376 259.2731036962413 498 263.6875 C497.6841796875 264.5962890625 497.36835937499995 265.505078125 497.04296875 266.44140625 C496.27656328707167 268.647725006915 495.5122685097033 270.85474929946815 494.75 273.0625 C494.0899999999999 273.0625 493.43000000000006 273.0625 492.75 273.0625 C492.3787500000001 274.3 492.00749999999994 275.5375 491.625 276.8125 C490.3330497662314 280.6822852072507 488.7541916404681 284.28504384094873 486.9375 287.9375 C486.4283203125 288.9623046875 485.91914062499995 289.987109375 485.39453125 291.04296875 C483.75 294.0625 483.75 294.0625 481.88671875 296.67578125 C479.01237410219323 300.87576600145155 477.3911574334677 304.0323299091086 478.125 309.14453125 C479.4013158873677 315.3846810885082 481.45550447673065 321.29727963968 483.6796875 327.25390625 C486.0034349663092 333.5699855254703 487.77201119593667 339.99964726711806 489.5 346.5 C489.8158203125 347.65693359375 490.13164062500005 348.8138671875 490.45703125 350.005859375 C490.7548046874999 351.11638671875 491.0525781250001 352.2269140625 491.359375 353.37109375 C491.627177734375 354.36939208984376 491.89498046874996 355.3676904296875 492.1708984375 356.396240234375 C492.75 359.06249999999994 492.75 359.06249999999994 492.75 363.0625 C493.4100000000001 363.0625 494.06999999999994 363.0625 494.75 363.0625 C495.0069262695313 364.05056640625 495.26385253906255 365.0386328125 495.528564453125 366.056640625 C496.4915528239994 369.7553623273258 497.4601735019014 373.45259028573554 498.430419921875 377.1494140625 C498.84795113215114 378.7434188838093 499.263995393173 380.33781402176913 499.678466796875 381.9326171875 C500.27773796179827 384.23739533803536 500.8825112235942 386.5406725481438 501.48828125 388.84375 C501.5789713287354 389.1949591064453 501.5789713287354 389.1949591064453 502.0379180908203 390.9722900390625 C503.1386334846793 395.1320881295565 504.4858660544345 399.105610872947 506.0342559814453 403.11883544921875 C507.1471816531164 406.14108100014835 507.96631812898363 409.2248957429242 508.79296875 412.3359375 C508.8796305084229 412.6608467102051 508.8796305084229 412.6608467102051 509.3181915283203 414.3050842285156 C509.6788322298552 415.66071934865164 510.037519094255 417.01687570084596 510.394287109375 418.37353515625 C510.9420591696063 420.45482279543876 511.4969414742785 422.5341227395276 512.052734375 424.61328125 C514.75 434.77893544044 514.75 434.77893544044 514.75 437.0625 C514.09 437.0625 513.43 437.0625 512.75 437.0625 C512.75 437.7225000000001 512.75 438.38249999999994 512.75 439.0625 C512.1119140625 439.1114843749999 511.47382812499995 439.16046875000006 510.81640625 439.2109375 C510.40326171874995 439.2483203125 510.40326171874995 439.2483203125 508.3125 439.4375 C507.4887890625 439.507109375 506.66507812500004 439.57671875000005 505.81640625 439.6484375 C505.1344921875 439.7850781249999 504.45257812499995 439.9217187500001 503.75 440.0625 C503.41999999999996 440.7225000000001 503.09000000000003 441.38249999999994 502.75 442.0625 C500.1874999999998 442.6875 500.1874999999998 442.6875 497.75 443.0625 C493.6862554709296 430.69120744969786 489.6998378909402 418.3086017238974 486.25 405.75 C486.12262451171875 405.29133544921876 486.12262451171875 405.29133544921876 485.47802734375 402.97021484375 C485.2480908203124 402.1176611328125 485.0181542968751 401.265107421875 484.78125 400.38671875 C484.58080078125 399.6451049804688 484.3803515625 398.9034912109375 484.173828125 398.139404296875 C483.75 396.06249999999994 483.75 396.06249999999994 483.75 392.0625 C483.0899999999999 392.0625 482.43000000000006 392.0625 481.75 392.0625 C481.4878369140624 391.0482495117187 481.2256738281251 390.0339990234375 480.95556640625 388.989013671875 C479.9809942630145 385.22481280294835 478.99895307710017 381.46259427115234 478.0146484375 377.700927734375 C477.5897565211982 376.07287813599567 477.1668894430095 374.444298685999 476.74609375 372.815185546875 C476.1407431489372 370.47302125196114 475.5281256452006 368.13286178160575 474.9140625 365.79296875 C474.8207917785644 365.4288564300537 474.8207917785644 365.4288564300537 474.3487854003906 363.5862274169922 C473.4785244644222 360.296911742499 472.6566210754004 357.92243161310046 470.75 355.0625 C470.1293149243089 353.0360883588318 469.5739162324179 350.98932642760235 469.05859375 348.93359375 C468.90616210937503 348.333857421875 468.90616210937503 348.333857421875 468.134765625 345.298828125 C467.82216796875 344.04521484375 467.50957031250005 342.7916015625 467.1875 341.5 C466.56312835052483 339.0190446270346 465.9369205791688 336.53855038572186 465.30859375 334.05859375 C465.03329833984367 332.95700927734373 464.75800292968756 331.8554248046875 464.474365234375 330.720458984375 C463.75 328.06250000000006 463.75 328.06250000000006 462.75 326.0625 C462.5128125 326.4440625 462.5128125 326.4440625 461.3125 328.375 C453.92860085782434 339.42484906839667 444.6762625404017 349.97526856768474 434.5234375 358.54296875 C432.9936877335356 359.8537014794156 431.5494568501642 361.2630431498358 430.125 362.6875 C427.4742154949295 365.3382845050705 424.6338171877498 367.66954531229277 421.75 370.0625 C421.44255859375 370.3783203125 421.44255859375 370.3783203125 419.88671875 371.9765625 C415.92052499360994 375.8484957100773 411.25945952992896 378.8593521592965 406.75 382.0625 C405.83734375 382.7237890625 404.9246875 383.385078125 403.984375 384.06640625 C403.12328125 384.6838671875 402.2621875 385.301328125 401.375 385.9375 C400.604140625 386.491796875 399.83328125 387.04609375 399.0390625 387.6171875 C396.68121763160343 389.1059291404552 394.3655031225284 390.1105677681257 391.75 391.0625 C391.75 391.7225 391.75 392.3825 391.75 393.0625 C388.96189779715235 394.5691971980895 386.1689604203897 396.06669803860166 383.375 397.5625 C382.5809375 397.9917578125 381.786875 398.421015625 380.96875 398.86328125 C380.5884765625 399.06630859375 380.5884765625 399.06630859375 378.6640625 400.09375 C377.9623291015625 400.47080078125 377.260595703125 400.8478515625 376.53759765625 401.236328125 C374.75 402.0625 374.75 402.0625 372.75 402.0625 C372.75 402.7225 372.75 403.3825 372.75 404.0625 C372.1609790039063 404.314189453125 371.5719580078125 404.56587890625 370.965087890625 404.8251953125 C368.2472749187006 405.986967847467 365.5298857750925 407.1497286220597 362.8125 408.3125 C362.34940429687504 408.51037109375 362.34940429687504 408.51037109375 360.005859375 409.51171875 C359.08740234375 409.9048828125 358.1689453125 410.298046875 357.22265625 410.703125 C356.2963037109375 411.0990283203125 355.369951171875 411.494931640625 354.41552734375 411.90283203125 C352.0227195566282 412.94385025700825 349.65929813309145 414.033494125178 347.29296875 415.1328125 C342.0174060000055 417.48821580867525 336.5382356826545 419.0724790138324 331 420.6875 C328.98378617479403 421.28186036524494 326.9681393475431 421.8781482522408 324.953125 422.4765625 C324.073017578125 422.7338916015625 323.19291015625 422.991220703125 322.2861328125 423.25634765625 C319.7500000000001 424.06249999999994 319.7500000000001 424.06249999999994 317.17431640625 425.101318359375 C278.3074242602629 440.5110821437406 213.0509854044891 438.1060510759404 174.883544921875 422.8837890625 C172.30668877063965 421.8918513015713 169.69795794355787 421.0435106679722 167.0703125 420.1953125 C166.0583984375 419.8666015625 165.046484375 419.537890625 164.00390625 419.19921875 C161.92732325980705 418.5277643249563 159.84920101823823 417.8610507642947 157.76953125 417.19921875 C151.89715804497385 415.28155685204354 146.4463349757303 413.0666000416854 140.96923828125 410.208984375 C138.0866917334959 408.7198272145761 135.1289798665082 407.4725499456719 132.125 406.25 C131.101484375 405.8310546875 130.07796875 405.412109375 129.0234375 404.98046875 C128.273203125 404.6775390625 127.52296874999999 404.374609375 126.75 404.0625 C126.75 403.4025 126.75 402.7425 126.75 402.0625 C125.901796875 401.807265625 125.05359375 401.55203125 124.1796875 401.2890625 C120.51247907434006 399.9775551587048 117.28425443295356 398.31606876917846 113.875 396.4375 C112.72257812499998 395.805859375 111.57015625 395.17421875 110.3828125 394.5234375 C109.9483984375 394.28238281250003 109.9483984375 394.28238281250003 107.75 393.0625 C107.75 392.4025 107.75 391.7425 107.75 391.0625 C107.01652343749998 390.794375 106.283046875 390.52625 105.52734375 390.25 C102.8094528644477 389.08792007143757 100.7043581069425 387.7869592244161 98.3125 386.0625 C97.453984375 385.446328125 96.59546875000001 384.83015625 95.7109375 384.1953125 C94.733828125 383.491484375 93.75671875 382.78765625 92.75 382.0625 C91.5557141345787 381.22509642452553 90.36034822428135 380.38923165248275 89.1640625 379.5546875 C87.92175615060597 378.68246091852654 86.67956786910653 377.8100661486138 85.4375 376.9375 C84.85105712890623 376.53015625 84.2646142578125 376.1228125 83.660400390625 375.703125 C79.99504191150069 373.10929163483286 76.88200036785727 370.3026869090613 73.75 367.0625 C72.80125 366.299375 71.8525 365.53625 70.875 364.75 C67.66737458794903 362.1360738930073 65.07713629283151 359.10331631644993 62.39453125 355.96484375 C59.67354231938921 352.817286483474 56.68091745617414 349.9599185325618 53.6875 347.07421875 C47.111320405877876 340.6424485050731 41.397873946609906 334.02233202832593 36.75 326.0625 C35.78941237661972 329.3951878222262 34.83194661571389 332.7287650457223 33.875 336.0625 C33.605585937499995 336.9970703125 33.33617187499999 337.931640625 33.05859375 338.89453125 C31.519539182264822 344.26245327893 30.06822115913114 349.6360361993048 28.75 355.0625 C28.090000000000003 355.0625 27.430000000000007 355.0625 26.75 355.0625 C26.664921875000005 356.0834375 26.57984375000001 357.104375 26.4921875 358.15625 C25.744118993841795 364.11979963505763 24.044767818763262 369.8422465907603 22.42138671875 375.61669921875 C21.876718433473485 377.5563802883004 21.34201720961697 379.4986063635018 20.80859375 381.44140625 C19.240149155708707 387.07964388077943 17.62569918640807 392.6101060006511 15.478515625 398.0537109375 C13.835089358561817 402.5852495836975 12.694994778393642 407.28757797381667 11.4375 411.9375 C8.55295180837841 422.44234078061385 5.335924347995217 432.77759610080494 1.75 443.0625 C-0.23000000000000398 442.7325000000001 -2.210000000000001 442.4024999999999 -4.25 442.0625 C-4.25 441.4024999999999 -4.25 440.74250000000006 -4.25 440.0625 C-5.528750000000002 439.93875 -6.8075000000000045 439.81500000000005 -8.125 439.6875 C-11.999999999999993 439.3125 -11.999999999999993 439.3125 -14.25 437.0625 C-13.921864326019417 429.44506471116506 -11.898372964291774 422.32009516627045 -9.875 415 C-9.570781249999996 413.86755859375 -9.2665625 412.7351171875 -8.953125 411.568359375 C-6.457977484834274 402.41415364094115 -6.457977484834274 402.41415364094115 -4.7734375 398.19140625 C-2.344676652130495 392.01109175403894 -0.9057230058524368 385.48347458367164 0.75 379.0625 C4.5791345139953705 364.21292956767644 4.5791345139953705 364.21292956767644 6.97265625 358.22265625 C8.927528422392662 352.7902727759641 10.258845505958348 347.13684395755723 11.75 341.5625 C13.792557879208601 333.9268591476114 15.850026962373619 326.4207649201842 18.75 319.0625 C19.366237910359303 317.1771054409245 19.95434216854086 315.2820184415791 20.5 313.375 C20.76296875 312.4842578125 21.025937499999998 311.593515625 21.296875 310.67578125 C22.067212301780216 306.23306008714684 20.963771083370986 303.038641023509 18.6875 299.25 C16.15034215868505 294.83787507360773 13.798021637965604 290.35234306086767 11.5 285.8125 C11.146716308593753 285.12696044921876 10.793432617187499 284.4414208984375 10.429443359375 283.735107421875 C8.643835893288497 280.1894197105644 7.27529433578276 277.0485570185868 6.75 273.0625 C6.090000000000003 273.0625 5.43 273.0625 4.75 273.0625 C4.657066650390625 272.7962280273438 4.657066650390625 272.7962280273438 4.186767578125 271.44873046875 C3.6299747337991803 269.85402085544825 3.0727235775100255 268.25947122386265 2.51513671875 266.6650390625 C1.8729937203238194 264.8264891961706 1.2327336704966996 262.9872807328382 0.59423828125 261.1474609375 C-0.7698647401623901 257.2283169833568 -2.1464925190477757 253.32833258339264 -3.65234375 249.4609375 C-6.434837471593738 242.29579392298865 -8.274634202025517 235.1352449296644 -9.875 227.625 C-10.069165039062497 226.727490234375 -10.263330078125001 225.82998046875002 -10.46337890625 224.9052734375 C-11.126899384224814 221.63325642397535 -11.69963432738983 218.35559533365324 -12.25 215.0625 C-12.379480285644533 214.30498443603517 -12.508960571289066 213.54746887207034 -12.642364501953125 212.76699829101563 C-15.412486055234154 196.07258580844814 -15.625579928040764 179.55020418004403 -15.45599365234375 162.66949462890625 C-15.42463037870015 159.2022484994028 -15.41129522335708 155.7349279164872 -15.396484375 152.267578125 C-15.366460330847168 145.53218422004852 -15.307677384357532 138.7979367733078 -15.25 132.0625 C-3.039999999999999 132.3925 9.170000000000002 132.7225 21.75 133.0625 C16.74999999999997 116.06249999999994 16.74999999999997 116.06249999999994 13.75 108.0625 C13.068766710609196 105.71833221711529 12.422409947399302 103.36372825107969 11.8125 101 C11.646291503906255 100.36441162109375 11.480083007812496 99.7288232421875 11.308837890625 99.073974609375 C10.609439036910302 96.39891361087865 9.91988978608019 93.72134087772565 9.2294921875 91.0439453125 C5.890281962916106 78.13359015040822 5.890281962916106 78.13359015040822 3.52734375 72.21826171875 C1.5760559341399727 66.80686994298239 0.24113498416308232 61.17758941804442 -1.25 55.625 C-5.163782455942979 41.11016393688817 -5.163782455942979 41.11016393688817 -7.52197265625 34.255126953125 C-8.987242203427847 29.84212031221145 -10.201936314974105 25.356587785933414 -11.4375 20.875 C-11.71013671875 19.91658203125 -11.9827734375 18.958164062500003 -12.263671875 17.970703125 C-13.57085301797175 13.230123892217733 -14.6258164667748 9.03162883846683 -14.25 4.0625 C-13.259999999999998 3.7325000000000017 -12.270000000000003 3.4025000000000034 -11.25 3.0625 C-10.590000000000003 3.3924999999999983 -9.93 3.7224999999999966 -9.25 4.0625 C-9.25 3.4025000000000034 -9.25 2.742500000000007 -9.25 2.0625 C-3.214285714285708 0.0892857142857082 -3.214285714285708 0.0892857142857082 0 0 Z M184.0439453125 96.235107421875 C179.2536383088843 97.96290121021616 174.33162881731658 99.28833052587919 169.4375 100.6875 C167.29544641877789 101.3042483243971 165.15351359468488 101.92141625516857 163.01171875 102.5390625 C162.07287841796875 102.80799316406251 161.1340380859375 103.07692382812502 160.166748046875 103.35400390625 C158.34994377478657 103.88661992782801 156.54611019443917 104.4637966018536 154.75 105.0625 C154.75 105.7225 154.75 106.3825 154.75 107.0625 C153.47125 107.24812500000002 152.1925 107.43375 150.875 107.625 C140.96704170552425 109.5896308173069 131.32728966915963 113.89427704767417 122.1875 118.125 C115.27630932751157 121.31585214516099 107.93943842660195 123.58622958900048 100.75 126.0625 C100.75 126.7225 100.75 127.3825 100.75 128.0625 C99.4828515625 128.317734375 98.215703125 128.57296875 96.91015625 128.8359375 C91.51070783934261 130.0358149245905 86.38398133915658 131.81173417544753 81.1875 133.6875 C80.73084960937501 133.849921875 80.73084960937501 133.849921875 78.419921875 134.671875 C76.19488059165987 135.4640362945923 73.97167825001117 136.26096590028436 71.75 137.0625 C71.75 137.7225 71.75 138.3825 71.75 139.0625 C70.5137890625 139.31 69.277578125 139.5575 68.00390625 139.8125 C63.176616861913686 140.8837640642442 58.5628082839724 142.39572912282165 53.883544921875 143.982177734375 C43.13897796471878 147.61403998977306 33.11806572544985 150.44566891122588 21.75 151.0625 C21.319211425781248 151.08852294921874 21.319211425781248 151.08852294921874 19.13916015625 151.22021484375 C13.34470560368213 151.56391096523646 7.55017952070817 151.83667333833307 1.75 152.0625 C1.381257071169692 172.5072468318137 1.0364703915785825 194.29122128308848 6.75 214.0625 C7.587510552539925 217.76114332097512 8.350169441473938 221.47528831040404 9.125 225.1875 C10.920372427426223 233.64487867588707 12.937905419003826 241.877576666486 15.75 250.0625 C16.409999999999997 250.0625 17.069999999999993 250.0625 17.75 250.0625 C17.935625 251.21749999999997 18.121250000000003 252.3725 18.3125 253.5625 C22.195977199248617 270.7569300821905 32.59119188431794 288.8401686380451 42.75 303.0625 C43.79523333590433 304.6434810759156 44.83684575967786 306.2268614339358 45.875 307.8125 C48.02364364353576 311.0354654653037 50.291436566024515 314.0661258148424 52.75 317.0625 C53.1315625 317.5974609375 53.513125 318.132421875 53.90625 318.68359375 C58.11061134277118 324.5623664414911 62.98002732562644 329.73507590222977 67.91015625 335 C70.07645851410365 337.3182614767569 72.16090923875512 339.6825633422919 74.1875 342.125 C76.54761793956311 344.8305010526699 78.804479359293 347.01699955506456 81.75 349.0625 C82.41 349.0625 83.07 349.0625 83.75 349.0625 C83.97816406250001 349.63484375 84.206328125 350.2071875 84.44140625 350.796875 C88.99779299930026 358.68554459580344 100.18857373121557 365.16824349092786 107.75 370.0625 C108.41 370.0625 109.07 370.0625 109.75 370.0625 C109.75 370.7225 109.75 371.3825 109.75 372.0625 C110.65621093750002 372.570390625 111.56242187499998 373.07828125 112.49609375 373.6015625 C123.56847292712962 379.8470121005304 123.56847292712962 379.8470121005304 128.4375 383.25 C133.72145941923455 386.8684712720837 140.21976563957486 391.0625 146.75 391.0625 C146.75 391.7225 146.75 392.3825 146.75 393.0625 C165.44882839421078 400.4972193506394 165.44882839421078 400.4972193506394 172.51171875 402.359375 C174.7499999999999 403.06249999999994 174.7499999999999 403.06249999999994 177.8046875 404.48046875 C182.73775401027208 406.6323847674367 187.93201709447015 407.5696788207668 193.1875 408.625 C194.24267822265625 408.841884765625 195.2978564453125 409.05876953125 196.385009765625 409.2822265625 C203.89693591889088 410.78884128821016 211.37690697762923 411.9216699464235 218.99609375 412.703125 C221.75 413.0625 221.75 413.0625 222.75 414.0625 C231.68098055064797 415.3318275293292 240.75122351574646 415.2147690196492 249.75 415.1875 C251.026171875 415.1913671875 252.30234374999998 415.195234375 253.6171875 415.19921875 C275.6357951637666 415.1767048362334 275.6357951637666 415.1767048362334 277.75 413.0625 C279.521381087214 412.7521023761053 281.3025433703598 412.497234627226 283.0859375 412.265625 C283.64522949218747 412.1898522949219 283.64522949218747 412.1898522949219 286.4755859375 411.806396484375 C287.679892578125 411.64341064453123 288.88419921875 411.4804248046875 290.125 411.3125 C298.6977084407957 410.09907105755445 307.1301926800349 408.7376249884912 315.5 406.5 C316.2416943359375 406.302451171875 316.983388671875 406.10490234375 317.74755859375 405.9013671875 C322.26175339568937 404.63426140956835 326.4460381568345 402.93696301993066 330.75 401.0625 C334.4953628446526 399.7720808686491 338.2609230603366 398.558979344189 342.03125 397.34375 C345.70725177184096 396.07722838113045 349.19836003386604 394.6369383355027 352.75 393.0625 C352.75 392.4025 352.75 391.7425 352.75 391.0625 C353.4344921875 390.96453125 354.118984375 390.8665625 354.82421875 390.765625 C362.8680627227111 388.8325249798558 370.90719888457187 383.8435346453463 377.796875 379.3203125 C381.0668247246346 377.21446487733533 384.4664293549661 375.3222489073311 387.84375 373.39453125 C388.4728125 372.9549609375 389.101875 372.515390625 389.75 372.0625 C389.75 371.4025 389.75 370.7425 389.75 370.0625 C390.11996093749997 369.92908203125 390.11996093749997 369.92908203125 391.9921875 369.25390625 C394.69501168277736 368.08625557613726 396.5906689679046 366.8370190619322 398.875 365 C399.25785156250004 364.69255859375 399.25785156250004 364.69255859375 401.1953125 363.13671875 C402.038359375 362.4522265625 402.88140625 361.767734375 403.75 361.0625 C404.737421875 360.2851953125 405.72484375 359.507890625 406.7421875 358.70703125 C407.734765625 357.9168359375 408.72734375 357.126640625 409.75 356.3125 C410.678125 355.57515625 411.60625 354.8378125 412.5625 354.078125 C414.75 352.0625 414.75 352.0625 415.75 349.0625 C417.0733863197689 348.3762996860458 418.4094994758742 347.71463539011523 419.75 347.0625 C423.9462549546705 343.89199625647115 427.29762329738276 340.4314103386381 430.6953125 336.4296875 C432.6964874436651 334.12415134817286 434.76890516286636 331.89781658879565 436.8603515625 329.67431640625 C441.16794582374547 325.07848702126955 445.12363837642545 320.48281875434225 448.43359375 315.09765625 C449.75 313.0625 449.75 313.0625 451.6640625 310.703125 C453.9282835698326 307.8368076906239 455.79757807903053 304.8749204039792 457.6875 301.75 C459.8271685583014 298.2164986377499 461.9779674503461 294.7004087533727 464.25 291.25 C471.70126300233346 279.3079084541728 479.89278099713215 264.1090529182421 481.75 250.0625 C482.4100000000001 250.0625 483.06999999999994 250.0625 483.75 250.0625 C487.54924994663634 237.13070750621728 491.2232939909529 224.34159166606264 493.2421875 211 C493.75 208.0625 493.75 208.0625 494.75 207.0625 C495.1393409664971 204.72645420101725 495.4672066317012 202.41215596689386 495.75 200.0625 C495.83685058593755 199.34336425781248 495.923701171875 198.62422851562502 496.01318359375 197.88330078125 C497.77803480285706 182.62213901244218 497.889202483802 167.4111800216771 497.75 152.0625 C496.8935791015625 152.0123876953125 496.03715820312505 151.962275390625 495.15478515625 151.91064453125 C491.9301359567223 151.7186026275374 488.7059483200279 151.52026548380104 485.48193359375 151.31787109375 C484.0953650879295 151.2320741549194 482.70864574958136 151.14867555496966 481.32177734375 151.06787109375 C468.31924900127467 150.30743441812507 457.0069033615422 148.0359185409898 444.672607421875 143.85888671875 C442.6899101962066 143.18831515675416 440.7037052287633 142.52906882560205 438.716796875 141.87109375 C432.61696118981956 139.83400326746005 426.6537809446532 137.68593718265794 420.817626953125 134.97802734375 C417.0950885239683 133.32971950228847 413.2398268286853 132.0813543692166 409.375 130.8125 C408.97861328125 130.6784375 408.97861328125 130.6784375 406.97265625 130 C406.59173828125 129.873671875 406.59173828125 129.873671875 404.6640625 129.234375 C403.9829541015625 129.00846679687498 403.301845703125 128.78255859375 402.60009765625 128.5498046875 C400.75 128.0625 400.75 128.0625 397.75 128.0625 C397.75 127.4025 397.75 126.7425 397.75 126.0625 C393.981816898353 124.72159206556793 390.21004478610564 123.39108210194797 386.4375 122.0625 C385.36564453125 121.6809375 384.2937890625 121.299375 383.189453125 120.90625 C382.16142578125 120.5453125 381.1333984375 120.18437499999999 380.07421875 119.8125 C379.60028686523435 119.644921875 379.60028686523435 119.644921875 377.201904296875 118.796875 C374.75 118.0625 374.75 118.0625 371.75 118.0625 C371.75 117.4025 371.75 116.7425 371.75 116.0625 C367.6704442794963 114.55208243345902 363.58578164291526 113.05598549625773 359.5 111.5625 C358.3411328125 111.1332421875 357.182265625 110.703984375 355.98828125 110.26171875 C355.43076171875 110.05869140625 355.43076171875 110.05869140625 352.609375 109.03125 C352.0961669921875 108.84272460937501 352.0961669921875 108.84272460937501 349.4990234375 107.888671875 C346.75 107.0625 346.75 107.0625 342.75 107.0625 C342.75 106.4025 342.75 105.7425 342.75 105.0625 C341.5640625 104.6873828125 340.378125 104.31226562500001 339.15625 103.92578125 C338.38176513671874 103.68077880859374 337.6072802734375 103.43577636718749 336.809326171875 103.183349609375 C335.08070599149124 102.63737408545526 333.35169144282395 102.09264583769149 331.622314453125 101.549072265625 C327.64035719190315 100.29689132967422 323.66135149461644 99.04027494673883 319.69921875 97.7265625 C308.5466884331847 94.09011959295952 297.2498711750034 91.367365195628 285.75 89.0625 C284.9193603515625 88.8944384765625 284.088720703125 88.726376953125 283.23291015625 88.55322265625 C251.4058219956296 82.38716361690072 214.3599638543759 84.52677597580634 184.0439453125 96.235107421875 Z " fill="#FEFEFE" transform="translate(50.25,78.9375)"/>
<path d="M0 0 C128.37 0 256.74 0 389 0 C389 5.610000000000014 389 11.220000000000027 389 17 C369.4323116593915 18.00192549045829 349.9109867938653 18.14036832354884 330.32471120357513 18.116065621376038 C325.8758930297227 18.111680124232464 321.4270759578465 18.113213188280156 316.97825622558594 18.113967895507813 C309.3006447812198 18.114488079707257 301.62304194315607 18.111394639527646 293.94543266296387 18.105730056762695 C282.8453834177843 18.09754578331018 271.74533826394406 18.09499279859523 260.6452863290906 18.093742065131664 C242.62900038626998 18.091562337989046 224.61271901356025 18.0849317341075 206.596435546875 18.075439453125 C189.11238629753132 18.066237264896245 171.6283382968344 18.059170216152438 154.144287109375 18.054931640625 C153.06358880631626 18.054668917134393 151.98289050325752 18.054406193643786 150.86944376677275 18.054135508835316 C145.44700769863428 18.05283031573333 140.0245716217646 18.051566644975537 134.60213553905487 18.050323605537415 C89.73475383317282 18.039984644380525 44.867377226416636 18.022320755042244 0 18 C0 12.060000000000002 0 6.1200000000000045 0 0 Z " fill="#BD03F7" transform="translate(101,295)"/>
<path d="M0 0 C109.56 0 219.12 0 332 0 C332 5.610000000000014 332 11.220000000000027 332 17 C222.44 17 112.88 17 0 17 C0 11.389999999999986 0 5.779999999999973 0 0 Z " fill="#BD03F7" transform="translate(134,345)"/>
<path d="M0 0 C0.9133712768554574 0.0018228149414198924 1.8267425537109148 0.003645629882811363 2.767791748046875 0.005523681640625 C28.778889197847207 0.0924870022732307 56.22921834096991 1.978349142606703 80.742919921875 11.302001953125 C83.37045476186836 12.287357276377008 86.01017916371603 13.17133821456548 88.68359375 14.0234375 C98.39011290097034 17.126544645450878 107.44579879839262 20.467169576472457 116.4375 25.3125 C117.76670333956832 25.96542417673217 119.09896565055965 26.612143572162466 120.43359375 27.25390625 C127.64505255043878 30.733096993325262 134.24537563202068 34.152396360017235 140.4375 39.3125 C139.1098102478398 45.10605528215373 136.7720509644684 49.41249190335748 133.4375 54.3125 C128.98100826277852 52.6031607035315 124.68750281563769 50.60042933636592 120.375 48.5625 C119.61912597656249 48.207604980468744 118.86325195312497 47.85270996093749 118.08447265625 47.487060546875 C113.77634784880541 45.45467590900324 109.53273041471914 43.33559688390048 105.3125 41.125 C99.7017772827437 38.27707453799957 93.97129598148024 36.35680292669963 87.98046875 34.48828125 C84.43749999999994 33.31249999999997 84.43749999999994 33.31249999999997 81.0390625 31.82421875 C76.95789152930882 30.11118928616324 72.90198719819529 28.921907345454258 68.625 27.8125 C67.80982910156251 27.59819335937499 66.99465820312503 27.383886718750006 66.15478515625 27.1630859375 C59.479509926189735 25.46252590770945 52.772992634865886 24.225852939363165 45.961669921875 23.212890625 C40.52572979041918 22.400729790419177 40.52572979041918 22.400729790419177 39.4375 21.3125 C27.44724615889936 19.238447746998304 15.42881876904039 18.99754821573427 3.2900390625 19.0517578125 C0.4405388941342494 19.062488556030303 -2.408331128794998 19.051787768919837 -5.2578125 19.0390625 C-16.447106754576623 19.030842188749887 -27.51509288518423 19.40153965504311 -38.5625 21.3125 C-38.727499999999964 21.477499999999992 -38.727499999999964 21.477499999999992 -39.5625 22.3125 C-40.96794331494971 22.620491043692 -42.38487547570952 22.87643034946825 -43.8046875 23.109375 C-44.69712158203123 23.260839843750006 -45.589555664062516 23.41230468750001 -46.509033203125 23.568359375 C-47.475427246093744 23.73142578125001 -48.44182128906249 23.894492187499992 -49.4375 24.0625 C-76.15745865003012 28.759171650319757 -76.15745865003012 28.759171650319757 -87.171875 34.19921875 C-90.70820784592945 35.84604041844753 -94.34916385945218 37.19228289702485 -98 38.5625 C-98.71180419921876 38.83312255859374 -99.4236083984375 39.103745117187486 -100.156982421875 39.382568359375 C-105.31651947463769 41.3125 -105.31651947463769 41.3125 -107.5625 41.3125 C-107.5625 41.9725 -107.5625 42.63249999999999 -107.5625 43.3125 C-107.82204467773437 43.42319824218748 -107.82204467773437 43.42319824218748 -109.135498046875 43.9833984375 C-111.5105239541551 45.001758681513905 -113.88021729086677 46.03200081114022 -116.25 47.0625 C-116.65831054687499 47.23652343750001 -116.65831054687499 47.23652343750001 -118.724609375 48.1171875 C-123.2034413588886 50.07554318526303 -126.84753066092489 52.064555377837166 -130.5625 55.3125 C-132.6875 56.25 -132.6875 56.25 -134.5625 56.3125 C-137.25257479371865 54.09500591328597 -138.7247589177186 51.510245976885784 -140.3125 48.4375 C-140.76109375 47.594453125 -141.2096875 46.75140625 -141.671875 45.8828125 C-142.75491412145152 42.757199596863614 -142.8443148790723 41.369902804946804 -141.5625 38.3125 C-139.04296875 36.50390625 -139.04296875 36.50390625 -135.75 34.875 C-134.5756640625 34.283320312499995 -133.401328125 33.69164062499999 -132.19140625 33.08203125 C-131.88920166015626 32.93483642578124 -131.88920166015626 32.93483642578124 -130.35986328125 32.18994140625 C-128.65611497149084 31.358201196351274 -126.96623214719412 30.498232569733972 -125.27734375 29.63671875 C-110.90151985111663 22.3125 -110.90151985111663 22.3125 -106.5625 22.3125 C-106.5625 21.652500000000003 -106.5625 20.992500000000007 -106.5625 20.3125 C-104.48046875 19.618489583333343 -102.3984375 18.924479166666657 -100.31640625 18.23046875 C-99.67186996459961 18.015623321533212 -99.02733367919922 17.800777893066396 -98.36326599121094 17.579421997070313 C-94.91470336914063 16.429901123046875 -91.46614074707031 15.280380249023438 -88.017578125 14.130859375 C-87.35183776855467 13.908793182373046 -86.68609741210938 13.686726989746091 -86.00018310546875 13.457931518554688 C-84.66807376202382 13.014203929063257 -83.33559329968787 12.571588938638712 -82.00274658203125 12.130081176757813 C-79.34282809191387 11.247890101332075 -76.68868768689828 10.35791235212082 -74.0517578125 9.408935546875 C-67.57493939576199 7.092067222559564 -60.95255802002606 5.927016131914513 -54.1875 4.75 C-53.051835937500016 4.541816406250007 -51.916171875 4.333632812500014 -50.74609375 4.119140625 C-33.85684749270865 1.1293129024273298 -17.140408278575023 -0.07162851083290889 0 0 Z " fill="#BD03F7" transform="translate(298.5625,195.6875)"/>
<path d="M0 0 C35.20305269710926 -0.022804286568600673 70.40610369349665 -0.04050538740875709 105.60916222259402 -0.05106532946228981 C109.76361141577331 -0.05231606148419132 113.9180605943061 -0.05361038131047735 118.072509765625 -0.054931640625 C118.89959850527345 -0.0551939510554007 119.72668724492189 -0.055456261485801406 120.57883927971125 -0.05572652071714401 C133.97733980694602 -0.06007982967668113 147.37583605096268 -0.06796552712410175 160.7743340358138 -0.0771527960896492 C174.51869873808795 -0.08649874105753952 188.26306119450697 -0.09205761033183535 202.00742894411087 -0.09408849477767944 C210.49090950163327 -0.09546175965158454 218.97437795318592 -0.09980177756102648 227.45785478502512 -0.1079164668917656 C233.2724129673487 -0.11319551467556721 239.08696487557802 -0.11480164315457841 244.9015252813697 -0.11350137740373611 C248.25802438931578 -0.11285981925908573 251.6144852094825 -0.11439873367652353 254.97098350524902 -0.11920547485351563 C258.60825147360885 -0.12416016726223233 262.24546709652986 -0.1229916391236543 265.8827362060547 -0.1202545166015625 C266.9459646767378 -0.12316735804080281 268.0091931474209 -0.12608019948004312 269.10464066267014 -0.12908130884170532 C270.07949647963045 -0.12709026038646698 271.0543522965908 -0.12509921193122864 272.0587491989136 -0.1230478286743164 C272.8983108490705 -0.12342754900453201 273.73787249922754 -0.12380726933480446 274.60287541151047 -0.12419849634170532 C277.149228661707 0.007731753069549541 279.5150783425958 0.44169117575160044 282 1 C282.0268467883402 3.6459001397507222 282.0467635655835 6.291530955963765 282.0625 8.9375 C282.07087890625 9.692246093749986 282.0792578125 10.446992187499973 282.087890625 11.224609375 C282.09652440867285 13.149943134040711 282.0522433276509 15.075355809340806 282 17 C281 18 281 18 279.07402127981186 18.124198496341705 C278.2207896977663 18.12381877601149 277.3675581157207 18.123439055681217 276.48847103118896 18.123047828674316 C275.9980584284663 18.124043352901936 275.9980584284663 18.124043352901936 273.5162734389305 18.129081308841705 C272.97105162411924 18.127624888122057 272.97105162411924 18.127624888122057 270.21189880371094 18.120254516601563 C269.6377324846387 18.120681729018713 269.6377324846387 18.120681729018713 266.7321029305458 18.12284368276596 C263.5305051501109 18.124211820694768 260.32894731315605 18.12106452020754 257.12735426425934 18.116065621376038 C253.6801685218827 18.111764294798377 250.23298478844106 18.1132073177115 246.78579711914063 18.113967895507813 C240.80859874782067 18.114493333931193 234.83141125634302 18.111344472375492 228.85421562194824 18.105730056762695 C220.21209673961198 18.097617727738395 211.56998314096484 18.09500011187555 202.9278608635068 18.093742065131664 C188.90804032424398 18.091551124363036 174.88822558911625 18.084889900158146 160.868408203125 18.075439453125 C147.24601266616025 18.066266423004038 133.62361870325424 18.059185057133902 120.001220703125 18.054931640625 C119.16213766925034 18.054668917134393 118.32305463537574 18.054406193643786 117.45854484289885 18.054135508835316 C113.24929146470402 18.0528305117993 109.0400380753207 18.051566794118685 104.83078467845917 18.050323605537415 C69.88718560696407 18.039949681509427 34.943593432625335 18.02225611243375 0 18 C0 12.060000000000002 0 6.1200000000000045 0 0 Z " fill="#BD03F7" transform="translate(167,394)"/>
<path d="M0 0 C2.171875 0.171875 2.171875 0.171875 4.75 0.75 C5.6394531250000455 0.9485156249999989 6.528906249999977 1.1470312499999977 7.4453125 1.3515625 C10.354641490517452 2.090016035819403 13.183369933828999 2.962294186147531 16 4 C14.648985523541228 12.387991454234424 12.636093045910798 20.50252700250587 10.375 28.6875 C10.050156249999986 29.877949218750004 9.725312499999973 31.068398437500008 9.390625 32.294921875 C8.597878467341275 35.19777314900017 7.80093812221412 38.099400349567304 7 41 C6.340000000000032 41 5.67999999999995 41 5 41 C4.870932617187464 42.01135009765625 4.741865234375041 43.022700195312495 4.60888671875 44.064697265625 C4.032079989175259 47.79266345408351 3.226384949064027 51.32127403686732 2.2578125 54.96484375 C2.173293304443405 55.283345413207996 2.173293304443405 55.283345413207996 1.745574951171875 56.89515686035156 C1.3894991347870018 58.23263708527344 1.0314106028140486 59.56958296897892 0.67138671875 60.906005859375 C0.12773952549866863 62.92731430220073 -0.4072532632325192 64.95077397849411 -0.94140625 66.974609375 C-3.8115459926380026 77.75411246239827 -3.8115459926380026 77.75411246239827 -5.49609375 81.97265625 C-8.001661735499283 88.2664044040518 -9.477460986772712 94.95496978128358 -11.1875 101.5 C-11.558866051920631 102.90895404770569 -11.930607761691704 104.31780913736588 -12.302734375 105.7265625 C-13.206158067069964 109.14991126173248 -14.104486265896298 112.57457242127401 -15 116 C-15.659999999999968 116 -16.32000000000005 116 -17 116 C-17.103124999999977 116.94875000000002 -17.206249999999955 117.89749999999998 -17.3125 118.875 C-19.031324582338925 131.0313245823389 -19.031324582338925 131.0313245823389 -22 134 C-27.886000418059893 133.853413782692 -33.42016268629641 132.81951216751204 -39 131 C-38.670000000000016 127.69999999999999 -38.339999999999975 124.4 -38 121 C-37.339999999999975 121 -36.67999999999995 121 -36 121 C-35.90460937499995 119.94941406250001 -35.809218750000014 118.898828125 -35.7109375 117.81640625 C-34.94556838064716 111.71628009347361 -33.242650184727495 105.85662908502553 -31.625 99.9375 C-31.320781249999982 98.79216796875 -31.016562499999964 97.64683593749999 -30.703125 96.466796875 C-29.502391126920656 92.03075228834581 -28.337588122913758 87.78022331977715 -26.50927734375 83.5546875 C-25.028007579018663 80.06596414599016 -24.004584124960047 76.7026634671526 -23.0625 73.03515625 C-22.89629150390624 72.39815292358398 -22.730083007812482 71.76114959716796 -22.558837890625 71.10484313964844 C-22.034031411587762 69.09203219358284 -21.516284813331254 67.0775121630999 -21 65.0625 C-17.122660659402527 49.969611075226084 -17.122660659402527 49.969611075226084 -14.7373046875 44.002197265625 C-13.049598832929973 39.419125837370416 -11.902488002530617 34.647502462633895 -10.625 29.9375 C-3.2642321103699032 3.2642321103699032 -3.2642321103699032 3.2642321103699032 0 0 Z " fill="#BC02F6" transform="translate(549,79)"/>
<path d="M0 0 C8.665071909043704 5.260936516205106 11.896956209970739 30.80656543422674 14.2509765625 39.874267578125 C16.628542123079768 48.94982566944256 16.628542123079768 48.94982566944256 18.24609375 53.046875 C20.8181520211987 59.56778922516634 22.308647742268377 66.46821315823135 24.056640625 73.244140625 C25.671459318694488 79.39052179988616 27.52507203449011 85.30968852369264 29.761474609375 91.255615234375 C31.59931072977585 96.47408939496987 32.926071408598546 101.83495096622988 34.3125 107.1875 C36.08942993326713 114.00366138481621 37.853201645937816 120.74413477997228 40.312255859375 127.35107421875 C40.75 129.0625 40.75 129.0625 39.75 131.0625 C33.884878195594126 133.18336993820034 27.907817987311915 133.2579862853115 21.75 133.0625 C21.586933593750004 132.4953125 21.586933593750004 132.4953125 20.76171875 129.625 C20.320475595378667 128.10411933939028 19.879060104725056 126.58328867014194 19.4375 125.0625 C19.330830078125004 124.69060546875 19.330830078125004 124.69060546875 18.791015625 122.80859375 C17.762489118306547 119.27783111508217 16.673388195237436 115.86664392611664 15.33203125 112.4375 C12.671469064609504 105.51849695592043 11.078313724429734 98.21376541912994 9.2294921875 91.0439453125 C5.890281962916106 78.13359015040822 5.890281962916106 78.13359015040822 3.52734375 72.21826171875 C1.5760559341399727 66.80686994298239 0.24113498416308232 61.17758941804442 -1.25 55.625 C-5.163782455942979 41.11016393688817 -5.163782455942979 41.11016393688817 -7.52197265625 34.255126953125 C-8.987242203427847 29.84212031221145 -10.201936314974105 25.356587785933414 -11.4375 20.875 C-11.71013671875 19.91658203125 -11.9827734375 18.958164062500003 -12.263671875 17.970703125 C-13.57085301797175 13.230123892217733 -14.6258164667748 9.03162883846683 -14.25 4.0625 C-13.259999999999998 3.7325000000000017 -12.270000000000003 3.4025000000000034 -11.25 3.0625 C-10.590000000000003 3.3924999999999983 -9.93 3.7224999999999966 -9.25 4.0625 C-9.25 3.4025000000000034 -9.25 2.742500000000007 -9.25 2.0625 C-3.214285714285708 0.0892857142857082 -3.214285714285708 0.0892857142857082 0 0 Z " fill="#BC02F6" transform="translate(50.25,78.9375)"/>
<path d="M0 0 C2.1396547572724103 2.1396547572723534 2.446407940053632 3.0130835058581056 3.18359375 5.8515625 C3.3891992187500364 6.6211328124999795 3.594804687499959 7.390703125000016 3.806640625 8.18359375 C4.01482421875005 8.9892578125 4.223007812499986 9.794921875 4.4375 10.625 C6.762427202338472 19.528664427882916 6.762427202338472 19.528664427882916 8.4296875 23.7578125 C10.637694940322376 29.44972253075065 12.112767017832084 35.35872337360149 13.6875 41.25 C14.007832031250018 42.42046875 14.328164062500036 43.590937499999995 14.658203125 44.796875 C14.960488281250036 45.92093749999998 15.262773437499959 47.045000000000016 15.57421875 48.203125 C15.848386230468805 49.220517578125 16.122553710937495 50.237910156249995 16.405029296875 51.2861328125 C17 54 17 54 17 58 C17.659999999999968 58 18.32000000000005 58 19 58 C19.256926269531277 58.98806640625003 19.513852539062555 59.9761328125 19.778564453125 60.994140625 C20.74155282399954 64.69286232732583 21.71017350190141 68.39009028573548 22.680419921875 72.0869140625 C23.097951132151138 73.68091888380928 23.51399539317299 75.27531402176913 23.928466796875 76.8701171875 C24.527737961798266 79.1748953380353 25.132511223594292 81.4781725481439 25.73828125 83.78125 C25.9196614074707 84.48366821289062 26.101041564941397 85.18608642578124 26.287918090820313 85.9097900390625 C27.388633484679303 90.06958812955651 28.735866054434496 94.04311087294712 30.284255981445313 98.05633544921875 C31.397181653116377 101.07858100014857 32.21631812898363 104.1623957429241 33.04296875 107.2734375 C33.2162922668457 107.92325592041016 33.3896157836914 108.57307434082031 33.56819152832031 109.24258422851563 C33.928832229855175 110.59821934865164 34.287519094255 111.95437570084596 34.644287109375 113.31103515625 C35.19205916960618 115.39232279543836 35.74694147427863 117.47162273952807 36.302734375 119.55078125 C39 129.7164354404399 39 129.7164354404399 39 132 C38.34000000000003 132 37.67999999999995 132 37 132 C37 132.65999999999997 37 133.31999999999994 37 134 C36.36191406249998 134.04898437500003 35.723828124999955 134.09796875000006 35.06640625 134.1484375 C34.240117187500005 134.22320312500005 33.41382812500001 134.29796875 32.5625 134.375 C31.738789062500018 134.44460937500003 30.915078125000036 134.51421875000005 30.06640625 134.5859375 C29.384492187499973 134.72257812500004 28.702578124999945 134.85921874999997 28 135 C27.66999999999996 135.65999999999997 27.340000000000032 136.31999999999994 27 137 C24.437499999999886 137.625 24.437499999999886 137.625 22 138 C17.93625547092961 125.62870744969803 13.949837890940103 113.24610172389737 10.5 100.6875 C10.245249023437509 99.77017089843753 9.990498046875018 98.852841796875 9.72802734375 97.90771484375 C9.498090820312541 97.05516113281249 9.268154296874968 96.20260742187497 9.03125 95.32421875 C8.830800781249991 94.58260498046877 8.630351562499982 93.84099121093749 8.423828125 93.076904296875 C8 91 8 91 8 87 C7.340000000000032 87 6.67999999999995 87 6 87 C5.737836914062541 85.98574951171872 5.475673828124968 84.9714990234375 5.20556640625 83.926513671875 C4.230994263014509 80.16231280294852 3.2489530771001682 76.40009427115223 2.2646484375 72.638427734375 C1.8397565211981828 71.01037813599567 1.4168894430094952 69.381798685999 0.99609375 67.752685546875 C0.3907431489371902 65.41052125196109 -0.22187435479941087 63.07036178160587 -0.8359375 60.73046875 C-0.9292082214356014 60.36635643005371 -0.9292082214356014 60.36635643005371 -1.401214599609375 58.52372741699219 C-2.271475535577679 55.23441174249939 -3.093378924599847 52.85993161310029 -5 50 C-6.399440220994734 45.616632637383816 -7.4813212380284995 41.1436629810961 -8.625 36.6875 C-8.949843750000014 35.46353515625003 -9.274687500000027 34.23957031250001 -9.609375 32.978515625 C-9.916171875000032 31.79322265625001 -10.22296874999995 30.607929687500018 -10.5390625 29.38671875 C-10.819594726562514 28.30608154296874 -11.100126953125027 27.225444335937482 -11.38916015625 26.112060546875 C-12.28165041172133 21.565068825654578 -12.749958571809657 18.296044910505998 -10.390625 14.21875 C-9.684218750000014 13.321562500000027 -8.977812500000027 12.424374999999998 -8.25 11.5 C-7.522968750000018 10.555117187500002 -6.795937500000036 9.610234375000005 -6.046875 8.63671875 C-5.37140624999995 7.7666015625 -4.695937500000014 6.896484375 -4 6 C-2.6242416218896096 4.023292220462281 -1.3106528474488641 2.020589806483713 0 0 Z " fill="#BC02F6" transform="translate(526,384)"/>
<path d="M0 0 C0.6599999999999966 0 1.3199999999999932 0 2 0 C3.1954247778942033 1.6812501186640247 4.307128428596215 3.42248083067102 5.375 5.1875 C8.772331081081091 10.777381756756768 8.772331081081091 10.777381756756768 11.2890625 13.23828125 C14.3937793359581 18.249776234069373 12.566790375049436 23.458868872838252 11.33935546875 28.9619140625 C10.584300176151814 32.03034071737136 9.773026694147205 35.077556929931745 8.9375 38.125 C8.655839843750002 39.176874999999995 8.374179687500003 40.22874999999999 8.083984375 41.3125 C7.3962441047376615 43.87695524504602 6.7014927522297825 46.43927930975178 6 49 C5.340000000000003 49 4.680000000000007 49 4 49 C3.9149218750000045 50.0209375 3.829843750000009 51.041875000000005 3.7421875 52.09375 C2.994118993841795 58.05729963505769 1.2947678187633187 63.77974659076017 -0.32861328125 69.55419921875 C-0.8732815665265576 71.4938802883006 -1.4079827903830164 73.43610636350172 -1.94140625 75.37890625 C-3.509850844291293 81.01714388077949 -5.124300813591944 86.54760600065111 -7.271484375 91.9912109375 C-8.914910641438198 96.52274958369753 -10.055005221606343 101.22507797381661 -11.3125 105.875 C-14.197048191621604 116.3798407806139 -17.41407565200477 126.71509610080489 -21 137 C-22.980000000000004 136.66999999999996 -24.96 136.34000000000003 -27 136 C-27 135.34000000000003 -27 134.68000000000006 -27 134 C-28.278750000000002 133.87625000000003 -29.557499999999997 133.75250000000005 -30.875 133.625 C-34.749999999999986 133.25 -34.749999999999986 133.25 -37 131 C-36.67186432601942 123.38256471116495 -34.648372964291795 116.25759516627056 -32.625 108.9375 C-32.320781249999996 107.80505859375 -32.0165625 106.67261718750001 -31.703125 105.505859375 C-29.207977484834274 96.3516536409411 -29.207977484834274 96.3516536409411 -27.5234375 92.12890625 C-25.094676652130474 85.94859175403889 -23.65572300585245 79.4209745836717 -22 73 C-18.170865486004615 58.15042956767644 -18.170865486004615 58.15042956767644 -15.77734375 52.16015625 C-13.82247157760738 46.72777277596424 -12.491154494041652 41.07434395755723 -11 35.5 C-8.957098381806432 27.86307415712821 -6.89119894608109 20.36237703452764 -4 13 C-3.2503031735384837 10.673181755999053 -2.519425642826974 8.340167645220276 -1.8125 6 C-1.4683203124999977 4.865625000000023 -1.1241406249999955 3.7312499999999886 -0.76953125 2.5625 C-0.642558593749996 2.1396874999999795 -0.642558593749996 2.1396874999999795 0 0 Z " fill="#BC02F6" transform="translate(73,385)"/>
</svg>
