<?xml version="1.0" encoding="UTF-8"?>
<!-- Generator: visioncortex VTracer 0.6.12 -->
<svg version="1.1" xmlns="http://www.w3.org/2000/svg" width="600" height="600">
<path d="M0 0 C1.1416022551059655 -0.004457843899729141 2.283204510211931 -0.008915687799451177 3.459400773048401 -0.013508617877960205 C4.091874973177909 -0.013416436612608607 4.091874973177909 -0.013416436612608607 7.292577743530273 -0.012949943542480469 C8.641537913012883 -0.016247765777350764 9.990497094267454 -0.019973159193199308 11.339455008506775 -0.02409142255783081 C15.059209101124793 -0.03412912661425338 18.778947056973863 -0.03783106392510405 22.49871277809143 -0.040480732917785645 C26.505691700168285 -0.04437862853900043 30.51265778095248 -0.053957410787425886 34.51962852478027 -0.06269359588623047 C44.20375014752622 -0.0824740822236194 53.887872842050086 -0.09252687725275877 63.57200962305069 -0.10142138600349426 C68.13057305535341 -0.1058022772156022 72.68913532081245 -0.11116965501246057 77.2476978302002 -0.1164102554321289 C92.39885847885097 -0.13342521493513004 107.55001839565722 -0.14791933196968188 122.70118713378906 -0.15515899658203125 C126.6347573692833 -0.15706895055301828 130.56832759882877 -0.15898927223565096 134.50189781188965 -0.16094493865966797 C134.99074389122427 -0.1611868087574848 134.99074389122427 -0.1611868087574848 137.46460132300854 -0.16241081804037094 C153.3020956417472 -0.17071084238953915 169.1395144207189 -0.19604609485888602 184.9769757539034 -0.22852561622858047 C201.2311775963961 -0.2615883749431944 217.4853410465936 -0.2796071069959183 233.73957669734955 -0.2828032374382019 C242.86802563325017 -0.28496921782224405 251.99636446359153 -0.2937305540297217 261.1247806549072 -0.31926441192626953 C268.89937716106647 -0.3409608357477367 276.67383683038685 -0.34902711185227275 284.4484601765871 -0.3392976298928261 C288.41504407845827 -0.3347496403211281 292.38134559364903 -0.33666783693909963 296.34789085388184 -0.35605907440185547 C299.98138792896157 -0.37366859719222845 303.61439615833706 -0.3727114096316697 307.2478982657194 -0.357161782681942 C309.18050264660036 -0.35365761534606577 311.1131120210287 -0.36982870122604083 313.0456453561783 -0.386766254901886 C322.9252756609773 -0.31350970725853955 329.5149997727154 2.1739364067391733 336.65375328063965 9.134221076965332 C336.65375328063965 10.124221076965334 336.65375328063965 11.114221076965336 336.65375328063965 12.134221076965332 C337.3137532806397 12.134221076965332 337.97375328063964 12.134221076965332 338.65375328063965 12.134221076965332 C341.2032397568396 15.977724506302593 340.93183144862655 19.954343086095946 340.9054355621338 24.39268970489502 C340.9083424437046 25.236916791200642 340.91124932527543 26.081143877506257 340.91424429416656 26.950953602790833 C340.9215820220884 29.798816647781095 340.9145833885825 32.64646678207781 340.9077205657959 35.49432849884033 C340.91002350471973 37.54908165706962 340.9131989024237 39.603833993073124 340.91717505455017 41.65858459472656 C340.92555460437774 47.31983074524402 340.92138347650496 52.981009809417 340.91520261764526 58.64225625991821 C340.91069201712793 64.74184698799048 340.91765495021343 70.84142588498966 340.92316246032715 76.94101428985596 C340.9315575678973 88.20443993089744 340.93080783659246 99.46783810372375 340.92533952370286 110.7312630712986 C340.9203128957327 121.13571614009521 340.918992914062 131.54016133069916 340.92138481140137 141.9446153640747 C340.9214611964952 142.2893879834935 340.9214611964952 142.2893879834935 340.9218477513641 144.0341463908553 C340.92247040521437 146.83307593356096 340.9231072029363 149.632005472449 340.92376727890223 152.4309350065887 C340.92988839563986 178.6991774887628 340.9243334154364 204.9674062803711 340.9135734848678 231.23564665019512 C340.9040819312517 254.58498348113665 340.90493117157706 277.93429849904913 340.91449546813965 301.28363513946533 C340.9251994770039 327.5031390876146 340.9294543281882 353.72263093489215 340.92327094078064 379.94213676452637 C340.9226294840046 382.73603343688586 340.922003805045 385.529930112438 340.92138481140137 388.32382678985596 C340.92122665667904 389.01178003571926 340.92106850195677 389.6997332815826 340.9209055546671 390.4085335955024 C340.918628436806 400.8076898169153 340.9212952018869 411.20683730468875 340.9263439178467 421.6059923171997 C340.93205453495494 433.4276119325219 340.93045654099404 445.24920577431885 340.91978242993355 457.07082438468933 C340.91451278136805 463.10665681292903 340.9124909086967 469.1424448786775 340.91908073425293 475.17827701568604 C340.9250156214688 480.6975525952979 340.92180597652674 486.21674245320537 340.9111256301403 491.73601019382477 C340.90888111093057 493.7386394807438 340.9100512489318 495.7412759267945 340.9148772060871 497.74390065670013 C340.92091128705135 500.45462259555757 340.91476919004094 503.1650463880054 340.9054355621338 505.87575244903564 C340.9101178944111 506.66306503415103 340.9148002266884 507.45037761926653 340.91962444782257 508.26154816150665 C340.89345992457595 512.0333819151367 340.7753350023951 514.9358096716456 338.65375328063965 518.1342210769653 C337.9937532806396 518.1342210769653 337.33375328063966 518.1342210769653 336.65375328063965 518.1342210769653 C336.56609703063964 518.7297679519653 336.47844078063963 519.3253148269654 336.38812828063965 519.9389085769653 C335.45401542576735 522.7313097707857 334.27625839627444 523.5556553736336 331.90375328063965 525.2592210769653 C331.22828453063966 525.7567992019654 330.55281578063966 526.2543773269654 329.85687828063965 526.7670335769653 C325.55822532093663 529.4346373640151 321.9912322925704 530.3843275360472 316.9411563873291 530.3942832946777 C315.79419768571853 530.4013488858939 314.64723898410796 530.4084144771099 313.4655239582062 530.4156941771507 C312.20999620199206 530.4132790929079 310.9544684457779 530.410864008665 309.6608943939209 530.4083757400513 C308.310055816419 530.4128290562708 306.95921984910376 530.4181434104622 305.60838770866394 530.4242444634438 C301.8973236125986 530.4384237544145 298.1863432722093 530.4400877705164 294.4752559661865 530.4396475553513 C290.47239003961835 530.4412958267679 286.4695586132999 530.4543625294983 282.4667110443115 530.4658403396606 C273.71461633179194 530.4886885976526 264.9625458698026 530.4966107364628 256.2104253768921 530.5016667842865 C250.74498508606342 530.5049239538721 245.27955183429663 530.5114465498712 239.814115524292 530.5186681747437 C224.6799918031685 530.5382337411379 209.54587462562836 530.5546382488689 194.4117374420166 530.557544708252 C193.9275190284103 530.557638493199 193.9275190284103 530.557638493199 191.4770803898573 530.5581131018698 C189.51384782838454 530.558479350984 187.5506152664343 530.5588430492712 185.58738270401955 530.5592042133212 C184.6128396818042 530.5593870244176 183.63829665958883 530.5595698355138 182.63422203063965 530.5597581863403 C182.14635535880922 530.5598484608904 182.14635535880922 530.5598484608904 179.67745432257652 530.5603053048253 C163.86666743212857 530.563847037698 148.05601673385604 530.5908695558899 132.2452770769596 530.6282560750842 C116.01017986289702 530.6663386461805 99.77515022808552 530.6857021804968 83.54000735282898 530.6860042214394 C74.4255235292863 530.6865887955204 65.3112021787368 530.6950808911765 56.196760177612305 530.7240018844604 C48.435778347227 530.7485150793589 40.67501824852161 530.7557991018297 32.91400817036629 530.7407543584704 C28.955325275619344 530.733585189884 24.997080230969345 530.7344427341953 21.0384464263916 530.7571649551392 C17.411085505105746 530.7777859390902 13.7844981730793 530.7751265073438 10.157145351171494 530.7542901113629 C8.230387845679047 530.7491540767322 6.303612568747894 530.7685509620525 4.376956224441528 530.7889518141747 C-4.6880799826213035 530.7013189041071 -10.209669911944275 528.5354064519519 -17.15874671936035 522.8217210769653 C-22.11572866152879 516.7317146908726 -23.944317281994444 511.25340782321155 -23.85519790649414 503.46558380126953 C-23.86161086261272 502.625592007935 -23.868023818731302 501.78560021460055 -23.874631106853485 500.92015412449837 C-23.891210308917948 498.1105072725902 -23.87939111574056 495.30171546433166 -23.867639541625977 492.49205493927 C-23.873681922930743 490.4553330366557 -23.881460566274356 488.41861566979367 -23.890824675559998 486.3819063305855 C-23.911410926436858 480.7887621541181 -23.90701445990139 475.1958740015528 -23.898463487625122 469.60270869731903 C-23.893533755505217 463.56915282230455 -23.91155142349477 457.53565897204174 -23.926538467407227 451.50212574005127 C-23.952050180756004 439.6830132066024 -23.955629261535222 427.8639723409673 -23.950937941670418 416.04484268277884 C-23.947271392820753 406.43842361313216 -23.950793273587678 396.8320312290464 -23.959386825561523 387.2256155014038 C-23.960591631900854 385.8450411790212 -23.961794029169525 384.4644668545342 -23.962994031608105 383.0838925279677 C-23.96480855744693 381.0034439619142 -23.966625891949803 378.92299539881833 -23.968458733987063 376.8425468488131 C-23.985316306084428 357.5011294366627 -23.993990253062847 338.15972206737575 -23.985645294189453 318.81829833984375 C-23.985332542164258 318.08927090226206 -23.98501979013905 317.36024346468037 -23.98469756077975 316.60912428656593 C-23.983086017301204 312.91420311357 -23.98139447487084 309.21928198021715 -23.979670956730843 305.52436085790396 C-23.979499868983396 305.1574557051016 -23.979499868983396 305.1574557051016 -23.978634061291814 303.3006932651624 C-23.97794074942827 301.8167506609569 -23.977243689702348 300.3328080584978 -23.976542888209224 298.84886545781046 C-23.965829346503696 275.76057396162463 -23.98168731828372 252.67243524644266 -24.01861000061035 229.58417224884033 C-24.060054333217337 203.63813216753078 -24.081494564238696 177.6921867277449 -24.073459029197693 151.74611169099808 C-24.07266835012355 148.97883245664238 -24.071945253927538 146.21155321208352 -24.071264266967773 143.44427394866943 C-24.0710828035418 142.7629112672759 -24.07090134011581 142.08154858588242 -24.07071437779814 141.37953855050728 C-24.068383694412375 131.09949101653845 -24.081669379413285 120.81953913429561 -24.102888107299805 110.5395154953003 C-24.127000178538808 98.84587388086163 -24.129544906162707 87.15240538639812 -24.105307772755623 75.4587537869811 C-24.093517991744463 69.49277923419265 -24.091364525662158 63.527216121062054 -24.115312576293945 57.56126880645752 C-24.136989149067574 52.09768329164817 -24.130873875362624 46.63485374387963 -24.10278920829296 41.171303905546665 C-24.09748383763838 39.19693278033071 -24.10226458005981 37.22250280367436 -24.11826093494892 35.248189352452755 C-24.265195220039644 15.757248344566932 -24.265195220039644 15.757248344566932 -17.34624671936035 7.134221076965332 C-14.643121719360352 4.782658576965332 -14.643121719360352 4.782658576965332 -12.096246719360352 3.509221076965332 C-11.670856094360346 3.2862132644653315 -11.670856094360346 3.2862132644653315 -9.518121719360352 2.157658576965332 C-8.801402969360339 1.8199242019653354 -8.084684219360355 1.4821898269653317 -7.346246719360352 1.134221076965332 C-4.759226800778492 -0.15928888232559046 -2.898403617015191 0.005229547287868286 0 0 Z M-4.346246719360352 20.134221076965332 C-6.6556646938709605 24.36801816889799 -6.628108452305526 28.524600491801465 -6.600722312927246 33.22903823852539 C-6.603928790986544 34.04342924982309 -6.607135269045841 34.85782026112079 -6.610438913106918 35.69688978791237 C-6.618767970228333 38.437255962477494 -6.612804469342734 41.177405234250955 -6.606943130493164 43.91777515411377 C-6.6099624840360605 45.89771991802584 -6.613850875083614 47.87766351642226 -6.618535697460175 49.857605040073395 C-6.628852228666176 55.30750003387871 -6.626624596756869 60.757329512813754 -6.622355103492737 66.20722997188568 C-6.61989451010146 72.08121130752838 -6.628893706977664 77.95517659486356 -6.636392593383789 83.82915210723877 C-6.649160018165389 95.34017640474903 -6.650930757541062 106.85117739863892 -6.648592330515385 118.36220758408308 C-6.64676056252884 127.71558683090257 -6.6485168311335485 137.0689609028031 -6.6528167724609375 146.4223394393921 C-6.65341916910927 147.7655350026595 -6.654020367782294 149.10873056646474 -6.654620375484228 150.45192613080144 C-6.655527615620855 152.47592268403878 -6.65643628109288 154.4999192365056 -6.657352726673707 156.52391578559764 C-6.66578376382418 175.3448410176918 -6.67011688895164 194.16576366594006 -6.665946006774902 212.98669052124023 C-6.665789630762305 213.69638205543626 -6.665633254749707 214.40607358963229 -6.665472140070051 215.13727092789486 C-6.664666341741736 218.73437268097098 -6.66382057075981 222.33147442387445 -6.662958838045597 225.92857616394758 C-6.6627877502981505 226.6429883203935 -6.662616662550704 227.35740047683942 -6.662440390326083 228.09346148651093 C-6.662093735569641 229.53817650813994 -6.6617452057187165 230.98289152932028 -6.661394803784788 232.4276065500453 C-6.656036705547336 254.91112572845708 -6.663969917563463 277.3946056968565 -6.682428359985352 299.87811756134033 C-6.7031361764747714 325.13115791620817 -6.713873445652098 350.38417397952037 -6.709852874279022 375.637223303318 C-6.709457518877684 378.3289111818994 -6.709095973599602 381.0205990631038 -6.7087554931640625 383.7122869491577 C-6.708664761451075 384.37506213997955 -6.708574029738088 385.03783733080144 -6.708480548579246 385.72069661831483 C-6.707313747140432 395.7333497581261 -6.714005184992743 405.7459779846308 -6.724567413330078 415.75862407684326 C-6.736455042199935 427.1431945681226 -6.737915558233453 438.52770733875053 -6.725777246057987 449.91227858513594 C-6.719870255254648 455.7235838438477 -6.718839260498925 461.5347833881711 -6.730779647827148 467.3460817337036 C-6.741576577060101 472.6625292236841 -6.73860928084008 477.9787819449841 -6.724517963826656 483.2952200844884 C-6.7218538946860065 485.22181324707196 -6.724290727554887 487.1484213733329 -6.732253827154636 489.07499992102385 C-6.742307527092805 491.68809146969215 -6.733982905850496 494.30049911165816 -6.720976829528809 496.9135627746582 C-6.728286175429815 497.66645726710556 -6.735595521330822 498.4193517595529 -6.74312636256218 499.19506123661995 C-6.694424959061678 503.89608952324727 -6.019185946295181 507.2329952813984 -3.3462467193603516 511.13422107696533 C0.1318108243908398 513.1512048668532 3.1849876653962497 513.3850685105676 7.1560869216918945 513.3886966705322 C8.256128181815143 513.3945288640261 9.356169441938391 513.4003610575198 10.489545285701752 513.4063699841499 C11.692646124958998 513.4025906604529 12.895746964216244 513.3988113367557 14.135305404663086 513.3949174880981 C15.417579575181009 513.3987430351972 16.69985374569893 513.4025685822965 18.020984709262848 513.4065100550652 C21.57822920598079 513.4168042033423 25.13537307553645 513.4146046523073 28.692625880241394 513.4103294610977 C32.52978218732221 513.407864816721 36.366914102827025 513.4168731230311 40.20406150817871 513.4243669509888 C47.72055321794517 513.43712308493 55.23700922006043 513.4389065193224 62.75350993126631 513.4365666881204 C68.8622301734024 513.4347844563251 74.97093956467654 513.4365311289412 81.07965850830078 513.4407911300659 C81.9487121506408 513.4413863190637 82.8177657929808 513.4419815080613 83.71315439417958 513.4425947330892 C85.4785703387385 513.4438064691883 87.2439862816531 513.4450206032609 89.00940222293139 513.4462371096015 C105.56924519229312 513.4571160883673 122.12906780339307 513.4549484112056 138.68891192227602 513.448852263391 C153.84210432947503 513.4436822983129 168.99523246756036 513.4549400089211 184.1484121605754 513.4739504829049 C199.70435622399043 513.4933167910762 215.26026986397028 513.5015870368846 230.81622606515884 513.497827231884 C239.55106537954111 513.4959134127046 248.28584998131964 513.4984203469786 257.02067947387695 513.5125417709351 C264.4563572012967 513.5244411375091 271.89194653557973 513.5258766965569 279.32762544602156 513.513751603663 C283.12178522854106 513.5078528434466 286.9157832136938 513.506790887305 290.7099323272705 513.5187540054321 C294.8218229877625 513.5315683971372 298.9333267093687 513.5211721894755 303.0452175140381 513.5084428787231 C303.64565257281066 513.5121300211549 303.64565257281066 513.5121300211549 306.68421787023544 513.5307891964912 C317.30779328585703 513.4613570803199 317.30779328585703 513.4613570803199 321.65375328063965 510.13422107696533 C323.93662017778786 505.880405124497 323.9356650490957 501.7524368475572 323.90822887420654 497.0394039154053 C323.9114353522658 496.22501290410764 323.91464183032514 495.4106218928098 323.9179454743862 494.5715523660183 C323.9262745315076 491.8311861914534 323.92031103062203 489.0910369196795 323.91444969177246 486.3506669998169 C323.9174690453154 484.37072223590485 323.92135743636294 482.39077863750845 323.92604225873947 480.41083711385727 C323.9363587899455 474.9609421200519 323.93413115803617 469.51111264111694 323.92986166477203 464.061212182045 C323.92740107138076 458.187230846402 323.93640026825693 452.3132655590672 323.9438991546631 446.4392900466919 C323.9566665794447 434.9282657491815 323.95843731882036 423.4172647552918 323.9560988917947 411.9062345698476 C323.9542671238081 402.552855323028 323.9560233924129 393.1994812511275 323.96032333374023 383.8461027145386 C323.96092573038857 382.50290715127113 323.9615269290616 381.15971158746595 323.9621269367635 379.8165160231292 C323.9630341769002 377.79251946989194 323.96394284237215 375.768522917425 323.964859287953 373.744526368333 C323.9732903251035 354.9236011362387 323.9776234502309 336.1026784879907 323.9734525680542 317.28175163269043 C323.9732961920416 316.5720600984944 323.973139816029 315.8623685642984 323.97297870134935 315.1311712260358 C323.97217290302103 311.5340694729599 323.9713271320391 307.9369677300561 323.9704653993249 304.3398659899831 C323.97029431157745 303.62545383353716 323.97012322383 302.91104167709125 323.9699469516054 302.17498066741973 C323.9696002968489 300.7302656457907 323.969251766998 299.2855506246104 323.9689013650641 297.84083560388535 C323.96354326682666 275.3573164254735 323.97147647884276 252.87383645707422 323.98993492126465 230.39032459259033 C324.0106427377541 205.1372842377226 324.0213800069314 179.8842681744102 324.0173594355583 154.63121885061264 C324.016964080157 151.93953097203132 324.0166025348789 149.24784309082682 324.01626205444336 146.55615520477295 C324.01621668858684 146.224767609362 324.01621668858684 146.224767609362 324.01598710985854 144.54774553561583 C324.01482030841976 134.53509239580478 324.02151174627204 124.52246416929972 324.0320739746094 114.5098180770874 C324.0439616034792 103.12524758580804 324.04542211951275 91.74073481518018 324.0332838073373 80.35616356879473 C324.02737681653394 74.54485831008276 324.0263458217782 68.73365876575977 324.03828620910645 62.92236042022705 C324.04908313833937 57.60591293024645 324.0461158421194 52.2896602089466 324.03202452510595 46.97322206944227 C324.02936045596533 45.0466289068587 324.0317972888342 43.120020780597756 324.03976038843393 41.19344223290682 C324.0498140883721 38.58035068423891 324.0414894671298 35.96794304227235 324.0284833908081 33.35487937927246 C324.03579273670914 32.60198488682508 324.0431020826101 31.84909039437771 324.0506329238415 31.073380917310715 C324.00188249104133 26.36761995137848 323.1629923839949 23.12281516996316 320.65375328063965 19.134221076965332 C316.8100794758898 16.8158872774996 313.16779432446975 16.89102531446504 308.75214195251465 16.907170295715332 C308.0784154510498 16.90687824249268 307.40468894958497 16.906586189270016 306.7105464935303 16.906285285949707 C304.49747114068975 16.90767169760086 302.28473811775814 16.923199965210536 300.07172203063965 16.938908576965332 C298.5318730306088 16.942641165397603 296.9920216472671 16.945486977303815 295.45216941833496 16.947484016418457 C291.40959620419443 16.95510113537697 287.3671678905393 16.97473299786523 283.32465171813965 16.996891975402832 C279.1954398832436 17.017391896525744 275.06620451780134 17.02649458513305 270.93695640563965 17.036564826965332 C262.8424890494224 17.057980812552238 254.7481392174958 17.092093415554515 246.65375328063965 17.134221076965332 C246.52315513610836 17.814040412902827 246.39255699157718 18.493859748840336 246.25800132751465 19.194279670715332 C246.08309165954586 20.08969470977783 245.90818199157718 20.98510974884033 245.72797203063965 21.907658576965332 C245.642047958374 22.350693244934078 245.642047958374 22.350693244934078 245.20722007751465 24.592717170715332 C243.74444829188002 31.309723914630894 240.71057488763608 35.55467201286348 236.07953453063965 40.43500232696533 C234.65375328063965 42.13422107696532 234.65375328063965 42.13422107696532 234.65375328063965 44.13422107696533 C233.82875328063966 44.40234607696533 233.00375328063967 44.67047107696533 232.15375328063965 44.94672107696533 C228.6537532806397 46.134221076965304 228.6537532806397 46.134221076965304 225.14064598083496 47.683186531066895 C219.9201423383538 49.63501605545086 214.88180290490607 49.56240846919968 209.36347007751465 49.53827381134033 C208.81089027404784 49.541705436706536 208.81089027404784 49.541705436706536 206.01450157165527 49.55907154083252 C202.37719269857052 49.577306116584765 198.7403166192098 49.57350599896094 195.10297203063965 49.56781482696533 C192.562428010029 49.57237876829133 190.02188522426718 49.57768497535854 187.48134422302246 49.583699226379395 C182.16123415893128 49.59262424558784 176.84128025352777 49.59045023421234 171.52118492126465 49.58026599884033 C165.39649394397264 49.56879963056787 159.272241629476 49.58284254830198 153.14760845899582 49.60966247320175 C147.22732077117678 49.63460435105708 141.30716778379724 49.63697777439232 135.38682556152344 49.6305456161499 C132.8811406068785 49.630392786506064 130.3754470572182 49.63640522319602 127.86979293823242 49.648837089538574 C124.35694256529541 49.66380925432452 120.84504190801755 49.6530224957647 117.33222007751465 49.63593006134033 C116.82061080932618 49.64076404571533 116.82061080932618 49.64076404571533 114.23155784606934 49.66522693634033 C106.14443754710632 49.58333767328568 98.29651644997409 48.11466367005714 91.90375328063965 42.88422107696533 C91.16125328063964 41.97672107696533 90.41875328063963 41.069221076965334 89.65375328063965 40.13422107696533 C89.07883140563965 39.58121326446533 88.50390953063965 39.028205451965334 87.91156578063965 38.45843982696533 C82.00447079587272 32.539089458412576 79.65375328063965 25.491155150416873 79.65375328063965 17.134221076965332 C69.58748524332631 17.064647303269204 59.52127460879902 17.01137231315427 49.45481491088867 16.978784561157227 C44.780318520550736 16.963142429351592 40.10598688896317 16.941930693394056 35.43158531188965 16.907902717590332 C30.91877820144856 16.875257449074653 26.406129369596727 16.857357132763703 21.893213272094727 16.849589347839355 C20.173255379141523 16.844055113805 18.453305944806857 16.833248046727434 16.733415603637695 16.817030906677246 C14.320442016364808 16.79518768829059 11.90811875276927 16.792256990582736 9.495061874389648 16.793644905090332 C8.787275924682604 16.782859077453608 8.079489974975587 16.7720732498169 7.350255966186523 16.760960578918457 C2.7297631415899275 16.78963384999308 -0.5091308555155081 17.525754681273362 -4.346246719360352 20.134221076965332 Z M97.65375328063965 17.134221076965332 C98.90192846312141 24.623272171855845 98.90192846312141 24.623272171855845 101.65375328063965 28.134221076965332 C104.52875328063965 29.821721076965332 104.52875328063965 29.821721076965332 107.65375328063965 31.134221076965332 C108.34027473449706 31.48660846710206 109.0267961883545 31.83899585723877 109.73412132263184 32.20206165313721 C113.99131254500065 33.56126753046884 118.05078051637412 33.39574872931999 122.49286460876465 33.36127185821533 C123.47870536804203 33.36156391143798 124.46454612731935 33.36185596466065 125.48026084899902 33.36215686798096 C128.7321922371093 33.360765795877 131.98389326423057 33.34521487570443 135.23578453063965 33.32953357696533 C137.4930820446881 33.32580266118168 139.75038117979835 33.32295605969344 142.00768089294434 33.32095813751221 C147.944112613686 33.313327894743466 153.8804462182884 33.293684529316664 159.81683921813965 33.27155017852783 C165.87639602958507 33.25107870281349 171.93596871884813 33.241953628406634 177.99555015563965 33.23187732696533 C189.88166093302476 33.21043815023934 201.76769894242273 33.176309456847974 213.65375328063965 33.13422107696533 C213.65375328063965 32.474221076965335 213.65375328063965 31.81422107696534 213.65375328063965 31.134221076965332 C214.17969078063965 31.09297107696534 214.17969078063965 31.09297107696534 216.84125328063965 30.884221076965332 C221.13586327492754 30.03937976661362 222.7399348809214 29.3717970766523 225.65375328063965 26.134221076965332 C226.64375328063966 23.164221076965333 227.63375328063967 20.194221076965334 228.65375328063965 17.134221076965332 C185.42375328063963 17.134221076965332 142.1937532806396 17.134221076965332 97.65375328063965 17.134221076965332 Z " fill="#FFFFFF" transform="translate(141.34624671936035,34.86577892303467)"/>
<path d="M0 0 C0.8499714750051339 -0.003224446177483742 1.6999429500102963 -0.006448892354967484 2.575671136379242 -0.00977104902267456 C3.50970456898213 -0.008222447037695702 4.443738001585018 -0.0066738450527168425 5.406075477600098 -0.005078315734863281 C6.398119712471953 -0.007343872189522926 7.3901639473438365 -0.009609428644182572 8.41227012872696 -0.011943638324737549 C11.75177474889287 -0.018297100134603284 15.091238926817567 -0.017453412719035555 18.43074893951416 -0.01662921905517578 C20.8187601374716 -0.019619849335271056 23.206770850422345 -0.023022153206483154 25.594780921936035 -0.02680683135986328 C31.417068366950758 -0.034739858259726475 37.23934344390773 -0.037861882133071845 43.0616360232234 -0.038419209420681 C47.79313015194998 -0.038894106430547026 52.52462093534473 -0.040947532895458494 57.25611400604248 -0.044119834899902344 C70.66514800706824 -0.05292742946876672 84.07417399930893 -0.05753900266986989 97.48321091383696 -0.05678936094045639 C97.84475732479245 -0.05676938284187827 97.84475732479245 -0.05676938284187827 99.67440128326416 -0.05666828155517578 C100.39837492652237 -0.05662740088999385 101.12234856978057 -0.05658652022481192 101.86826080828905 -0.05654440075159073 C113.60536038218186 -0.05613781548059649 125.34242789390044 -0.06571020942271844 137.0795181915164 -0.07980664819478989 C149.12556696175818 -0.09416023491947101 161.17160008321696 -0.10107740613081262 173.2176576256752 -0.10021287202835083 C179.98284385714584 -0.09988056743206641 186.74799647011366 -0.10264229243675516 193.51317501068115 -0.11339092254638672 C199.87344203790894 -0.12304299527094997 206.2336378803716 -0.12317100635377187 212.5939073562622 -0.1158742904663086 C214.93205143882267 -0.11482487565028521 217.2701998866483 -0.11721233869364767 219.60833644866943 -0.12323474884033203 C222.79262854087165 -0.13090724864697734 225.97667187878903 -0.12634138520891725 229.1609582901001 -0.11860370635986328 C229.6268596455455 -0.12117548793554533 229.6268596455455 -0.12117548793554533 231.98460286855698 -0.13419026136398315 C232.8371820908785 -0.12959146559238377 233.6897613132 -0.12499266982078439 234.56817626953125 -0.1202545166015625 C235.30320749223233 -0.12047188460826419 236.0382387149334 -0.12068925261498009 236.79554361104965 -0.12091320753097534 C239.15790972258867 0.16645358107540176 240.79010752419777 0.959907385149279 242.84700870513916 2.128634452819824 C242.84700870513916 2.788634452819821 242.84700870513916 3.4486344528198174 242.84700870513916 4.128634452819824 C243.44513370513914 4.355509452819831 244.04325870513918 4.582384452819824 244.65950870513916 4.816134452819824 C247.49445948882624 6.517104923032065 248.36143548972422 8.19169006166102 249.84700870513916 11.128634452819824 C250.22420686483383 13.626708865165767 250.22420686483383 13.626708865165767 250.22732543945313 16.31582736968994 C250.23576538026333 17.345584019422517 250.24420532107354 18.375340669155122 250.25290101766586 19.436302065849304 C250.24689097225667 20.560901819467546 250.24088092684747 21.685501573085787 250.2346887588501 22.8441801071167 C250.23738152772188 23.44412888586521 250.23738152772188 23.44412888586521 250.25100857019424 26.480233311653137 C250.26284290176568 29.807658391910422 250.261215432572 33.13458285101211 250.25384175777435 36.4619882106781 C250.24911489781857 40.051730188172286 250.26161570664158 43.641418252506185 250.27185916900635 47.2311429977417 C250.2890624791131 54.26270601167781 250.28988395348478 61.294179725065675 250.28464626520872 68.32575832307339 C250.2806058885231 74.04116844618477 250.28204654799833 79.75655216218729 250.2873945236206 85.47196102142334 C250.28814294565467 86.28521871604025 250.2888913676888 87.09847641065716 250.28966246917844 87.93637827783823 C250.29119393934366 89.58848849575571 250.29273228663817 91.24059870731224 250.29427743703127 92.8927089124918 C250.30800822123945 108.38912158749656 250.30256091256683 123.88548379150916 250.29109222441912 139.38189531862736 C250.28116099648025 153.55799123082357 250.2940975547404 167.73395660135589 250.3180264160037 181.910032376647 C250.34241126503468 196.4659277985067 250.35202669342254 211.02176240549738 250.34537369012833 225.5776778459549 C250.341879870453 233.74974018741602 250.34412414102633 241.92170214122604 250.3616247177124 250.09374904632568 C250.37633910570122 257.0510939843151 250.37699230173922 264.008267861585 250.35955380648375 270.9656094163656 C250.3510346959066 274.51488554157766 250.3489160535305 278.0638559908998 250.3642053604126 281.61311626434326 C250.38057972271974 285.46194157634505 250.3659204070379 289.310294027969 250.3482141494751 293.1591215133667 C250.3578191560507 294.2792598235607 250.36742416262626 295.39939813375474 250.37732023000717 296.55348002910614 C250.31672363916078 302.9437314875238 249.9026561209575 307.0688728946766 245.84700870513916 312.1286344528198 C240.282796601923 316.4152263715828 235.69483433857 316.70153140715286 228.8203821182251 316.62983989715576 C227.8263313156366 316.6353742939234 226.8322805130482 316.640908690691 225.80810695886612 316.64661079645157 C222.48545016010382 316.66019711423854 219.16354711932803 316.64525855515376 215.84090518951416 316.6303434371948 C213.4555463158655 316.63412730394225 211.07018963827 316.6396279008399 208.6848382949829 316.6467161178589 C202.88373643992895 316.65922892376466 197.08287521414059 316.6531077519214 191.28178387135267 316.63804053515196 C184.52337688071225 316.6211567576902 177.76502386211666 316.62439363284295 171.00660229474306 316.6281346157193 C158.94693138163382 316.6340093801615 146.8873649733581 316.61985613877437 134.82772159576416 316.5951871871948 C123.13041613476298 316.571262185395 111.4332502578934 316.56418547711803 99.73592472076416 316.5746793746948 C86.99121319375325 316.586092453336 74.246566183259 316.58801425130963 61.50185543298721 316.5735812783241 C60.14254701750656 316.5720554707598 58.783238595895966 316.5705351142452 57.423930168151855 316.56902027130127 C56.75516055982558 316.56826245706526 56.08639095149934 316.5675046428293 55.39735559746623 316.56672386452556 C50.688241124227915 316.56198446276693 45.97915549593108 316.5638299926419 41.27004146575928 316.5680856704712 C34.93100154420543 316.5728548047443 28.592155022112564 316.5627560997893 22.253151893615723 316.5411310195923 C19.925527531922825 316.53556240183156 17.597884587501994 316.5350985226031 15.270258903503418 316.54008388519287 C12.095507900383325 316.5460313535944 8.921349262881051 316.53354131973214 5.746651649475098 316.51631450653076 C5.2850273749232315 316.51931952923536 5.2850273749232315 316.51931952923536 2.9489287734031677 316.5345267653465 C-2.8760243126033345 316.47696608804574 -7.355724626412012 315.7398596326307 -11.79752254486084 311.5934782028198 C-14.953493724467023 307.4664389679502 -16.277550430841217 305.4521404053058 -16.281625747680664 300.3022050857544 C-16.284850193858148 299.27657148480415 -16.28807464003563 298.2509378838539 -16.29139679670334 297.19422447681427 C-16.28984819471836 296.0588398396969 -16.28829959273338 294.9234552025795 -16.286704063415527 293.75366497039795 C-16.288969619870187 292.55421398997305 -16.291235176324847 291.3547630095482 -16.2935693860054 290.1189650297165 C-16.298822180337623 286.77912573190804 -16.299551280959662 283.4393400713948 -16.298375010490417 280.09950041770935 C-16.298171542842965 276.50160281938105 -16.303684601045916 272.903713353253 -16.308432579040527 269.3058195114136 C-16.31675154272972 262.2528171036151 -16.319487984806585 255.19982305135323 -16.320044957101345 248.14681614935398 C-16.320519546670766 242.41558423497452 -16.32257143036057 236.68435508621167 -16.325745582580566 230.95312404632568 C-16.334555699908805 214.71596824293994 -16.339164422018513 198.4788190589952 -16.33841510862112 182.24166084825993 C-16.338375152423964 181.36566584870218 -16.338335196226836 180.48967084914443 -16.33829402923584 179.58713054656982 C-16.338253148570658 178.71007004842158 -16.338212267905476 177.83300955027346 -16.338170148432255 176.92937146127224 C-16.337763617120288 162.71229781765055 -16.347333998065267 148.49525065085612 -16.361432395875454 134.27818466722965 C-16.375783171658014 119.69190007817542 -16.38270329101468 105.10562841266045 -16.381838619709015 90.51933658123016 C-16.381506190261803 82.3255548471032 -16.384273278349127 74.13180086467747 -16.39501667022705 65.93802547454834 C-16.40410463628575 58.961902970815316 -16.406311016443254 51.985820796769275 -16.399507246911526 45.00969494879246 C-16.396233333266025 41.44873871296079 -16.396216570519215 37.88785992846812 -16.404860496520996 34.326910972595215 C-16.4141257150238 30.470428137195114 -16.40797216968096 26.614059499290732 -16.400229454040527 22.75757122039795 C-16.40537301719189 21.6266480267048 -16.410516580343256 20.49572483301162 -16.415816009044647 19.330531239509583 C-16.411217213273062 18.299682143926617 -16.40661841750145 17.26883304834365 -16.401880264282227 16.206746101379395 C-16.40209763228893 15.316246911287294 -16.40231500029563 14.425747721195222 -16.40253895521164 13.50826370716095 C-15.942597278318772 9.122365365792433 -14.02140738980313 6.7067287774059565 -10.71549129486084 3.941134452819824 C-10.118655357360836 3.43195476531983 -9.521819419860833 2.9227750778198214 -8.90689754486084 2.398165702819824 C-6.008714120412009 0.3003714646330309 -3.4627736440492356 0.003319319056686254 0 0 Z M1.8470087051391602 18.128634452819824 C1.8470087051391602 110.52863445281983 1.8470087051391602 202.92863445281984 1.8470087051391602 298.1286344528198 C17.687008705139164 298.1286344528198 33.52700870513917 298.1286344528198 49.84700870513916 298.1286344528198 C49.84700870513916 272.71863445281986 49.84700870513916 247.30863445281983 49.84700870513916 221.12863445281982 C50.50700870513916 220.79863445281978 51.16700870513915 220.46863445281986 51.84700870513916 220.12863445281982 C52.31172135875252 218.4166929998313 52.69192686935091 216.68163411518026 53.03450870513916 214.94113445281982 C56.62386218255992 200.03559267220066 64.78680170491666 187.34372314209003 77.53450870513916 178.69113445281982 C78.96878996599406 177.8315739783883 80.40609198824887 176.97702466930662 81.84700870513916 176.12863445281982 C82.44384464263919 175.69164226531984 83.04068058013917 175.25465007781986 83.65560245513916 174.80441570281982 C96.19587683899442 165.82396114405896 113.09012072384166 165.74750022850833 127.84700870513916 167.12863445281982 C132.0524007594887 167.83344876360468 136.02615726438637 168.9443236737427 140.08138370513916 170.25363445281982 C142.84700870513916 171.12863445281982 142.84700870513916 171.12863445281982 145.84700870513916 171.12863445281982 C145.84700870513916 171.7886344528198 145.84700870513916 172.44863445281982 145.84700870513916 173.12863445281982 C147.6581177509317 174.2825101667238 149.52374080597565 175.35129586726327 151.40950870513916 176.37863445281982 C158.5901745498142 180.45529044473193 163.80554143828385 184.5933991068963 168.84700870513916 191.12863445281982 C169.50700870513913 191.45863445281987 170.16700870513915 191.7886344528198 170.84700870513916 192.12863445281982 C172.1246195026315 194.46706688533402 173.31862753206826 196.79294555027616 174.47200870513916 199.19113445281982 C174.79685245513917 199.85435710906984 175.1216962051392 200.51757976531985 175.45638370513916 201.20090007781982 C176.25865985712397 202.84084691790645 177.05353750481544 204.4844093719351 177.84700870513916 206.12863445281982 C178.50700870513913 206.12863445281982 179.16700870513915 206.12863445281982 179.84700870513916 206.12863445281982 C179.51700870513912 207.11863445281983 179.1870087051392 208.10863445281984 178.84700870513916 209.12863445281982 C179.50700870513913 209.12863445281982 180.16700870513915 209.12863445281982 180.84700870513916 209.12863445281982 C182.97744763918593 219.1608666278512 183.1896707298123 228.94361481930923 183.26107120513916 239.14425945281982 C183.27982141241512 240.85347671894812 183.2993975596513 242.56268510357143 183.31975650787354 244.27188396453857 C183.37067735057485 248.73016356900035 183.410515036167 253.1884730557506 183.4478998184204 257.6468839645386 C183.49530071632284 263.0178257048374 183.55672384282678 268.38862386833415 183.6157464981079 273.75944805145264 C183.70346934690212 281.88245093638625 183.7735830037409 290.0054331718073 183.84700870513916 298.1286344528198 C200.01700870513918 298.1286344528198 216.1870087051392 298.1286344528198 232.84700870513916 298.1286344528198 C232.84700870513916 205.72863445281985 232.84700870513916 113.32863445281981 232.84700870513916 18.128634452819824 C156.61700870513914 18.128634452819824 80.38700870513912 18.128634452819824 1.8470087051391602 18.128634452819824 Z M83.97200870513916 195.62863445281982 C83.27075870513914 196.4536344528198 82.56950870513913 197.2786344528198 81.84700870513916 198.12863445281982 C81.44482120513919 198.57207195281978 81.44482120513919 198.57207195281978 79.40950870513916 200.81613445281982 C58.70352023961752 226.30546835499678 67.84700870513916 269.31902377167387 67.84700870513916 298.1286344528198 C99.85700870513915 298.1286344528198 131.86700870513914 298.1286344528198 164.84700870513916 298.1286344528198 C166.0284193047109 256.7792634678092 166.0284193047109 256.7792634678092 166.03450870513916 245.19113445281982 C166.04675479888914 243.87564617156983 166.05900089263918 242.56015789031983 166.07161808013916 241.20480632781982 C166.09781793233998 223.69457177359322 163.35443034217076 209.96216984419118 150.84700870513916 197.12863445281982 C132.4988333164336 180.73063938237487 102.91851859186113 179.15340846436595 83.97200870513916 195.62863445281982 Z " fill="#BC02F6" transform="translate(183.15299129486084,116.87136554718018)"/>
<path d="M0 0 C0 0.6599999999999966 0 1.3199999999999932 0 2 C0.3299999999999841 2.092812500000008 0.3299999999999841 2.092812500000008 2 2.5625 C12.168080198098437 7.434705094922151 19.39201868976312 17.312675817978402 23.2734375 27.640625 C27.4891034470744 41.330206892650125 26.400259494872557 57.773258581585054 19.75 70.3671875 C12.550468992783408 82.18914466525905 2.4576575278503014 90.14893899888091 -10.7578125 94.1328125 C-15.414979441912806 95.225629582838 -19.980737890821388 95.38415405395233 -24.75 95.375 C-25.628173828125 95.37338867187498 -26.50634765625 95.37177734375001 -27.4111328125 95.3701171875 C-34.51937888832356 95.23659212309224 -40.505747315395524 93.97610634837781 -47 91 C-47.76699218750002 90.6764453125 -48.53398437499999 90.35289062499999 -49.32421875 90.01953125 C-53.74676594494815 88.01671412844308 -56.71239276153898 85.63367115829902 -60 82 C-61.02023633041085 81.04103112546238 -62.041096179649344 80.0827252779348 -63.0625 79.125 C-73.05406906906848 69.08232316075726 -75.27223607966678 56.10086578267402 -75.244384765625 42.588134765625 C-75.08271124780458 30.946584792895578 -71.73735515275249 23.476236486588817 -65 14 C-64.57203125000001 13.361914062500006 -64.14406250000002 12.723828125000011 -63.703125 12.06640625 C-57.80526133753551 4.184384750471821 -46.78108490575403 -2.5596737130870224 -37.16796875 -4.6328125 C-24.26059253305573 -6.128858572000922 -11.852099445113652 -5.926049722556826 0 0 Z M-47 21 C-54.4180502048107 28.5586027350071 -56.98508725015142 37.575987855832295 -57 48 C-56.27077132443952 56.10106765031702 -52.824243570661565 63.706151565734245 -46.8125 69.25 C-39.67707326631404 74.79462813288583 -32.14786814689302 78.30962015266408 -23 78 C-19.609262552846758 77.52622572656216 -16.3146140031281 76.85333679655 -13 76 C-13 75.34 -13 74.68 -13 74 C-12.31937499999998 73.93812500000001 -11.638750000000016 73.87625 -10.9375 73.8125 C-5.442702094716424 72.29266228151732 -1.4583216829441312 69.23128931251856 1.4375 64.3125 C3 61 3 61 3 59 C3.659999999999968 58.670000000000016 4.319999999999993 58.34 5 58 C8.540997982489785 51.334592032960416 8.513726890106227 43.68304133262427 6.859375 36.484375 C5.346704191807248 32.11138120904275 2.801526642364024 28.63988872985456 0 25 C-0.40347656250003183 24.421210937500007 -0.8069531250000068 23.842421875000014 -1.22265625 23.24609375 C-6.117259187229706 16.625935878967283 -12.937221661868307 14.731341221693128 -20.703125 13.296875 C-30.49482309018066 12.03128136929638 -39.30831949672768 14.99544112697913 -47 21 Z " fill="#BD03F7" transform="translate(325,172)"/>
<path d="M0 0 C71.61000000000001 0 143.22000000000003 0 217 0 C217 5.939999999999998 217 11.879999999999995 217 18 C145.39 18 73.78 18 0 18 C0 12.060000000000002 0 6.1200000000000045 0 0 Z " fill="#FFFFFF" transform="translate(167,498)"/>
<path d="M0 0 C55.110000000000014 0 110.22000000000003 0 167 0 C167 5.939999999999998 167 11.879999999999995 167 18 C111.88999999999999 18 56.78 18 0 18 C0 12.060000000000002 0 6.1200000000000045 0 0 Z " fill="#FFFFFF" transform="translate(167,465)"/>
</svg>
