<?xml version="1.0" encoding="UTF-8"?>
<!-- Generator: visioncortex VTracer 0.6.12 -->
<svg version="1.1" xmlns="http://www.w3.org/2000/svg" width="600" height="600">
<path d="M0 0 C4.005572208291085 1.7243718923584908 7.163246361465269 4.347279879718371 10.55078125 7.0625 C12.080661526031008 8.26086528844806 13.6119293130306 9.457461192447283 15.14453125 10.65234375 C15.902500000000032 11.245151367187503 16.660468750000007 11.837958984375007 17.44140625 12.44873046875 C20.424807819198804 14.751342336344308 23.472321315455247 16.951889614106634 26.55078125 19.125 C27.109267578125014 19.52033935546875 27.667753906250027 19.9156787109375 28.2431640625 20.322998046875 C29.409898595702032 21.148638958075153 30.576896890748912 21.973907249966985 31.744140625 22.798828125 C44.01162637297739 31.502718222049793 56.12541701026214 40.420169867311785 68.22216796875 49.35888671875 C72.18319275581177 52.28456093864024 76.14838719014932 55.20457278448126 80.11328125 58.125 C84.87709595601723 61.63388924322612 89.63999923457499 65.14397802531414 94.3984375 68.66015625 C102.10867582125707 74.35464599053626 109.83491713780921 80.02382942894286 117.61328125 85.625 C127.80669990773708 92.96524221297358 137.90729415856714 100.42954358060831 148.0087890625 107.8955078125 C156.51421859517183 114.18001735296048 165.0313674645481 120.44519634911589 173.61328125 126.625 C182.18071224437455 132.7943746478188 190.68307919515826 139.049393309842 199.173828125 145.32373046875 C201.69883439255955 147.18817164589714 204.22603531253122 149.04960120437627 206.75390625 150.91015625 C207.59896728515628 151.53220947265626 208.4440283203125 152.1542626953125 209.314697265625 152.795166015625 C210.91661211112796 153.974224423466 212.5186531633509 155.1531113907436 214.120849609375 156.331787109375 C218.97126516467688 159.90367467645896 223.8004993089504 163.50256368566534 228.61328125 167.125 C227.80051009079364 170.87839814294452 226.3116044300367 173.2509534239493 224.05078125 176.375 C223.41011718749996 177.26703125 222.76945312499993 178.1590625 222.109375 179.078125 C221.86251953124997 179.415859375 221.86251953124997 179.415859375 220.61328125 181.125 C216.95408038662822 179.4673379221352 213.79013690196462 177.22072422516712 210.55078125 174.875 C210.25441772460937 174.661982421875 210.25441772460937 174.661982421875 208.754638671875 173.583984375 C202.440754445423 169.0307102216387 196.17987761415162 164.40440123047932 189.923583984375 159.7724609375 C189.14700439453122 159.197861328125 188.3704248046875 158.62326171875 187.5703125 158.03125 C186.87913330078123 157.51884765625 186.18795410156253 157.0064453125 185.475830078125 156.478515625 C183.88304570056897 155.3210380277827 182.25153661078946 154.2171702405263 180.61328125 153.125 C180.28328125000002 244.20499999999998 179.95328124999997 335.28499999999997 179.61328125 429.125 C60.483281250000005 429.125 -58.64671875000002 429.125 -181.38671875 429.125 C-181.71671874999998 338.045 -182.04671875 246.96500000000003 -182.38671875 153.125 C-201.38671874999784 167.12499999999838 -201.38671874999784 167.12499999999838 -207.0390625 171.3359375 C-208.46716883276306 172.3910028645743 -209.89553311662115 173.44571921094087 -211.32421875 174.5 C-212.06349609375002 175.056875 -212.8027734375 175.61375 -213.564453125 176.1875 C-214.27794921875 176.710859375 -214.9914453125 177.23421875 -215.7265625 177.7734375 C-216.33878662109373 178.2289599609375 -216.9510107421875 178.684482421875 -217.581787109375 179.15380859375 C-219.38671875 180.125 -219.38671875 180.125 -223.38671875 180.125 C-225.34375000000003 178.07812499999997 -225.34375000000003 178.07812499999997 -227.19921875 175.375 C-227.8244140625 174.49328125 -228.449609375 173.6115625 -229.09375 172.703125 C-230.38671875 170.125 -230.38671875 170.125 -230.19384765625 168.151123046875 C-229.17000669203392 165.58099111643665 -228.00883559542723 164.73066498923453 -225.765625 163.12890625 C-225.0036279296875 162.57662353515624 -224.241630859375 162.0243408203125 -223.45654296875 161.455322265625 C-222.6291259765625 160.87194091796874 -221.801708984375 160.2885595703125 -220.94921875 159.6875 C-220.10117675781248 159.07640380859374 -219.253134765625 158.4653076171875 -218.37939453125 157.835693359375 C-215.72173713993593 155.92278036016495 -213.05442581704142 154.0238632214494 -210.38671875 152.125 C-207.94490216376033 150.37049202028481 -205.50603170367035 148.611972757951 -203.068115234375 146.85205078125 C-201.5442108648901 145.7522328505685 -200.01900472597862 144.65421614886296 -198.492431640625 143.55810546875 C-193.86474839089752 140.22791806117095 -189.32932061112805 136.81407652509105 -184.91796875 133.19921875 C-183.38671875 132.125 -183.38671875 132.125 -181.38671875 132.125 C-181.38671875 91.535 -181.38671875 50.94499999999999 -181.38671875 9.125 C-161.25671875 9.125 -141.12671875 9.125 -120.38671875 9.125 C-120.38671875 14.405000000000001 -120.38671875 19.685000000000002 -120.38671875 25.125 C-135.23671875 25.125 -150.08671875 25.125 -165.38671875 25.125 C-165.38671875 56.14500000000001 -165.38671875 87.16500000000002 -165.38671875 119.125 C-144.7679342196144 104.23365561694376 -144.7679342196144 104.23365561694376 -137.94921875 99.1875 C-137.17392822265623 98.61523681640625 -136.39863769531252 98.0429736328125 -135.599853515625 97.453369140625 C-133.1948273977648 95.67812123874188 -130.79064838286524 93.90173233770267 -128.38671875 92.125 C-118.34576989164552 84.70378504680119 -108.28605470810578 77.31328193965498 -98.15380859375 70.01708984375 C-89.514222707958 63.78837597317789 -80.95186934680638 57.45545985813696 -72.38671875 51.125 C-62.34955832334899 43.70658505767702 -52.29513190823744 36.316693900280754 -42.164794921875 29.02587890625 C-37.44646793034076 25.625627066197012 -32.75220432767594 22.194733078398244 -28.07470703125 18.738525390625 C-25.684291895928936 16.972643911227465 -23.289602963077527 15.21268309334998 -20.89453125 13.453125 C-17.995239003729523 11.32096546993489 -15.117122227476898 9.16468557017349 -12.25390625 6.984375 C-11.006707096840842 6.051820235327924 -9.759323331698738 5.119512298458403 -8.51171875 4.1875 C-7.959033203124989 3.7560668945312443 -7.406347656249977 3.324633789062503 -6.8369140625 2.880126953125 C-4.539874367700577 1.183823963554289 -2.883626878671919 0.15102464831015538 0 0 Z M-1.38671875 19.125 C-2.1163281249999955 19.696054687499995 -2.845937499999991 20.267109375000004 -3.59765625 20.85546875 C-10.725962665456677 26.402553324197243 -17.975053887384377 31.756518732795328 -25.310302734375 37.0263671875 C-30.84186080905056 41.002481397175984 -36.34315562382949 45.01707442836073 -41.82421875 49.0625 C-42.61062744140622 49.64281982421875 -43.3970361328125 50.223139648437495 -44.207275390625 50.821044921875 C-46.6009254368974 52.58835124242481 -48.993942394522776 54.356510993689255 -51.38671875 56.125 C-61.427667608354454 63.546214953198785 -71.48738279189425 70.93671806034502 -81.61962890625 78.23291015625 C-90.25921479204203 84.46162402682211 -98.8215681531936 90.79454014186302 -107.38671875 97.125 C-116.68975943906293 104.00083072534491 -125.99916186182418 110.86480731921702 -135.38671875 117.625 C-141.90936897542173 122.32351308354077 -148.40892486982804 127.05230298199484 -154.88671875 131.8125 C-155.70656250000002 132.413203125 -156.52640625 133.01390625 -157.37109375 133.6328125 C-157.75007812500002 133.91189453125 -157.75007812500002 133.91189453125 -159.66796875 135.32421875 C-160.33892578125 135.81752685546877 -161.0098828125 136.31083496093748 -161.701171875 136.819091796875 C-163.38671874999997 138.125 -163.38671874999997 138.125 -165.38671875 140.125 C-165.38671875 141.115 -165.38671875 142.10500000000002 -165.38671875 143.125 C-165.76828125 143.0940625 -165.76828125 143.0940625 -167.69921875 142.9375 C-170.38671875 143.125 -170.38671875 143.125 -172.19921875 144.625 C-172.59109375 145.12 -172.98296875 145.615 -173.38671875 146.125 C-170.74671875 146.125 -168.10671875 146.125 -165.38671875 146.125 C-165.38671875 234.565 -165.38671875 323.005 -165.38671875 414.125 C-131.06671875 414.125 -96.74671875000001 414.125 -61.38671875 414.125 C-61.095641280644 373.6428411849512 -61.095641280644 373.6428411849512 -60.982421875 356.609375 C-60.90435975983189 344.8730217514635 -60.825178733411235 333.13668400765556 -60.738525390625 321.400390625 C-60.6754066238521 312.85089259433767 -60.61623111365219 304.3013775995046 -60.561663210392 295.75182056427 C-60.53267322568445 291.23079157642974 -60.50179537958658 286.70979434343695 -60.46618461608887 282.1888122558594 C-60.4326286289529 277.92075008221343 -60.40440345276579 273.65268370357967 -60.38001251220703 269.38455963134766 C-60.37023705418676 267.8303114529431 -60.35862611598037 266.27607337306165 -60.34488868713379 264.7218551635742 C-60.25566627213368 254.46749605139473 -60.6521771253623 244.35639003240874 -61.38671875 234.125 C-56.10671875 234.125 -50.82671875 234.125 -45.38671875 234.125 C-45.47046752929688 235.3939208984375 -45.47046752929688 235.3939208984375 -45.894287109375 241.8154296875 C-46.747961142910015 257.34598684024564 -46.41262162356887 272.91528330736236 -46.28618359565735 288.46153354644775 C-46.2513705477522 292.89235776902376 -46.22309763323278 297.3232240942546 -46.19407653808594 301.75408935546875 C-46.13837074538378 310.11162802085505 -46.07693940114274 318.46911398441154 -46.01335519552231 326.8265960216522 C-45.94114650160461 336.3552638974048 -45.87546650180752 345.88397346359807 -45.81028473377228 355.41269159317017 C-45.67626566078667 374.9835173584524 -45.533349643768446 394.55426438274236 -45.38671875 414.125 C-35.81671875000001 414.125 -26.246718750000014 414.125 -16.38671875 414.125 C-16.232542078361348 393.01842946842737 -16.084291184362428 371.9118265470307 -15.943755149841309 350.80516052246094 C-15.878345493274594 341.00354691513644 -15.810893926041558 331.2019555273214 -15.738525390625 321.400390625 C-15.675406623852098 312.85089259433767 -15.61623111365219 304.3013775995046 -15.561663210391998 295.75182056427 C-15.532673225684448 291.23079157642974 -15.50179537958661 286.70979434343695 -15.466184616088867 282.1888122558594 C-15.432628628952898 277.92075008221343 -15.404403452765791 273.65268370357967 -15.380012512207031 269.38455963134766 C-15.37023705418676 267.8303114529431 -15.358626115980371 266.27607337306165 -15.344888687133789 264.7218551635742 C-15.25566627213368 254.46749605139473 -15.6521771253623 244.35639003240874 -16.38671875 234.125 C-11.106718750000027 234.125 -5.826718749999998 234.125 -0.38671875 234.125 C-0.5542163085937091 236.4953442382813 -0.7217138671875318 238.86568847656247 -0.894287109375 241.307861328125 C-1.789652487933779 256.70152740424805 -1.410513185406387 272.15073292873916 -1.2861835956573486 287.5620687007904 C-1.2514025905578023 292.0235956863178 -1.2231085722157786 296.4851641365937 -1.1940765380859375 300.9467315673828 C-1.1383407240351744 309.3645101489933 -1.0769141557508988 317.78223682265985 -1.0133551955223083 326.1999595761299 C-0.9411804824856631 335.79631804379704 -0.8754835420783138 345.39271760779803 -0.8102847337722778 354.9891256093979 C-0.6762169036481396 374.7011392172159 -0.5333091752499399 394.41307526588207 -0.38671875 414.125 C9.183281249999993 414.125 18.753281249999986 414.125 28.61328125 414.125 C28.767457921638652 393.01842946842737 28.915708815637572 371.9118265470307 29.05624485015869 350.80516052246094 C29.121654506725406 341.00354691513644 29.189106073958442 331.2019555273214 29.261474609375 321.400390625 C29.324593376147902 312.85089259433767 29.38376888634781 304.3013775995046 29.438336789608 295.75182056427 C29.467326774315552 291.23079157642974 29.49820462041339 286.70979434343695 29.533815383911133 282.1888122558594 C29.567371371047102 277.92075008221343 29.59559654723421 273.65268370357967 29.61998748779297 269.38455963134766 C29.62976294581324 267.8303114529431 29.64137388401963 266.27607337306165 29.65511131286621 264.7218551635742 C29.74433372786632 254.46749605139473 29.3478228746377 244.35639003240874 28.61328125 234.125 C33.89328124999997 234.125 39.17328125 234.125 44.61328125 234.125 C44.44578369140629 236.4953442382813 44.27828613281247 238.86568847656247 44.105712890625 241.307861328125 C43.21034751206622 256.70152740424805 43.58948681459361 272.15073292873916 43.71381640434265 287.5620687007904 C43.7485974094422 292.0235956863178 43.77689142778422 296.4851641365937 43.80592346191406 300.9467315673828 C43.861659275964826 309.3645101489933 43.9230858442491 317.78223682265985 43.98664480447769 326.1999595761299 C44.07235966473547 337.5966176358827 44.14910551686819 348.9933360496246 44.226399421691895 360.3900537490845 C44.348111371139794 378.30175988615605 44.48165244796087 396.2133576302154 44.61328125 414.125 C83.88328124999998 414.125 123.15328125000002 414.125 163.61328125 414.125 C163.83376450291576 379.3551302201886 164.0183933660819 344.5859391556024 164.1239345446229 309.81558057665825 C164.1364415146473 305.71006029770024 164.14938474689097 301.6045415022775 164.16259765625 297.4990234375 C164.16522076055406 296.68169347345827 164.16784386485813 295.8643635094166 164.17054645717144 295.02226597070694 C164.21405229357345 281.7904599722924 164.29289331569703 268.55908872034365 164.3848092108965 255.32754057645798 C164.47834633588275 241.74930006991332 164.53387343336954 228.17128714084106 164.5541661977768 214.59273767471313 C164.56788353300595 206.21468306783936 164.61119368096234 197.83785724098243 164.69244591891766 189.46018093824387 C164.74533370611255 183.7141470734927 164.76127667489624 177.96874777766024 164.74829502403736 172.22248822450638 C164.7418926128467 168.90720147843882 164.75712988202724 165.59451084505028 164.80533599853516 162.2795066833496 C164.8551008580414 158.68100495987733 164.8431398617438 155.08775902199244 164.81582641601563 151.4891357421875 C164.84495483040808 150.4463186407089 164.87408324480054 149.40350153923035 164.90409433841705 148.32908391952515 C164.81127881125502 143.80552662653866 164.57095974630323 141.1763192481891 161.45587611198425 137.75664615631104 C158.9217072419255 135.7061843862362 156.34866791739773 133.8949827767376 153.61328125 132.125 C152.1924527039281 131.0881756562598 150.7759859255218 130.04529977955627 149.3671875 128.9921875 C147.97172114834945 127.99245779539675 146.57453940398392 126.99511881075503 145.17578125 126 C143.60230428014307 124.87187483544744 142.02940666042252 123.74294125649112 140.45703125 122.61328125 C139.65781249999998 122.03916503906248 138.85859375 121.46504882812502 138.03515625 120.87353515625 C134.06216004480814 118.00512801697741 130.11803088477018 115.09795398227246 126.17578125 112.1875 C125.38961425781253 111.60734130859373 124.603447265625 111.02718261718752 123.79345703125 110.429443359375 C120.60074367634286 108.07223381584492 117.40928791416144 105.71332453409079 114.2177734375 103.3544921875 C105.71234390482823 97.06998264703952 97.19519503545189 90.80480365088408 88.61328125 84.625 C78.41986259226297 77.28475778702645 68.31926834143286 69.82045641939169 58.2177734375 62.3544921875 C48.98408794326042 55.53188736087094 39.728440191931554 48.744068832294516 30.408935546875 42.0390625 C23.892758156729883 37.344372987602156 17.428182522645443 32.58118897788262 10.98046875 27.79296875 C6.9244497491630455 24.789549835885424 2.8426612814526493 21.87948476570722 -1.38671875 19.125 Z " fill="#FEFEFE" transform="translate(301.38671875,68.875)"/>
<path d="M0 0 C0 88.44 0 176.88 0 268 C34.31999999999999 268 68.63999999999999 268 104 268 C104 208.60000000000002 104 149.2 104 88 C109.28 88 114.56 88 120 88 C120 147.39999999999998 120 206.8 120 268 C129.57 268 139.14 268 149 268 C149 208.60000000000002 149 149.2 149 88 C154.27999999999997 88 159.56 88 165 88 C165 147.39999999999998 165 206.8 165 268 C174.57 268 184.14 268 194 268 C194 208.60000000000002 194 149.2 194 88 C199.27999999999997 88 204.56 88 210 88 C210.02319818686885 111.2100226784471 210.04101978500898 134.42004254177147 210.05181217193604 157.6300745010376 C210.05695755964314 168.40809080431802 210.06396661883144 179.1860997492647 210.075439453125 189.964111328125 C210.08544014167535 199.36365448777497 210.09186619861453 208.76319231518102 210.09408849477768 218.16274064779282 C210.09538648623004 223.1347614965756 210.09841421943452 228.10676709722543 210.1057300567627 233.07878303527832 C210.112575422791 237.76956928935306 210.114599830394 242.4603341791326 210.1131076812744 247.15112495422363 C210.1133802136692 248.86219906154224 210.11533437631613 250.57327396941196 210.11920547485352 252.28434371948242 C210.12427649829544 254.64381636405744 210.12295021540763 257.0032112223367 210.12025451660156 259.36268615722656 C210.12071541309354 260.0194636583328 210.12071541309354 260.0194636583328 210.12304782867432 263.3431558609009 C209.94969502014635 269.90383246191885 209.43656203453486 276.45156948197723 209 283 C134.75 283 60.5 283 -16 283 C-16.28231944346328 213.72866734832854 -16.28231944346328 213.72866734832854 -16.341796875 184.828125 C-16.35550217850961 178.2128893981889 -16.36964560828551 171.59765495417088 -16.384521484375 164.982421875 C-16.38636772572994 164.15329937696458 -16.38821396708488 163.32417687892917 -16.390116155147552 162.46992945671082 C-16.420569236732064 149.08078091236678 -16.475760067761087 135.6918426035952 -16.540069572627544 122.30281876027584 C-16.605508753186612 108.56411213357632 -16.644406873124723 94.82551563573787 -16.658619463443756 81.08665955066681 C-16.66822893756398 72.60753467077797 -16.698588449904918 64.1290037440665 -16.75541526824236 55.650061681866646 C-16.792390753212715 49.8373003624082 -16.803606822305582 44.02484650771726 -16.794509641826153 38.21197609603405 C-16.790021299216832 34.85675242866955 -16.80075608435733 31.503405091076957 -16.83443832397461 28.148221969604492 C-16.869172941799334 24.510486752397924 -16.860929819451954 20.87531042703631 -16.841781616210938 17.237518310546875 C-16.862171506285662 16.177202681303015 -16.8825613963604 15.116887052059184 -16.903569161891937 14.02444064617157 C-16.833712180030133 9.128271237855557 -16.588835713486574 5.84786833063103 -13.009888648986816 2.2976551055908203 C-8.821837983611942 -1.2500986830744125 -6.243859537111746 0 0 0 Z " fill="#BC02F6" transform="translate(136,215)"/>
<path d="M0 0 C20.129999999999995 0 40.25999999999999 0 61 0 C61 5.280000000000001 61 10.560000000000002 61 16 C46.150000000000006 16 31.30000000000001 16 16 16 C16.11601562499999 22.765 16.232031250000006 29.53 16.3515625 36.5 C16.402675865861312 40.7930650007152 16.450814226910467 45.08575341711648 16.48828125 49.37890625 C16.548000021502162 56.189434534423526 16.618540073192804 62.998614943589445 16.75439453125 69.80810546875 C16.863275090357916 75.3001172122299 16.922887824305292 80.79068347361067 16.948772430419922 86.28369140625 C16.96721083002936 88.37620805057304 17.00322008629081 90.46864793315609 17.057300567626953 92.560546875 C17.464195886724497 108.9559973248596 17.464195886724497 108.9559973248596 13.84783935546875 114.00439453125 C11.31291657516121 116.05965869121286 8.904597917496147 117.53283917319587 6 119 C5.637113800048823 119.27678588867187 5.637113800048823 119.27678588867187 3.800689697265625 120.677490234375 C2 122 2 122 0 122 C0 81.74000000000001 0 41.47999999999999 0 0 Z " fill="#BC02F6" transform="translate(120,78)"/>
<path d="M0 0 C5.279999999999973 0 10.560000000000002 0 16 0 C16 5.279999999999973 16 10.560000000000002 16 16 C10.720000000000027 16 5.439999999999998 16 0 16 C0 10.720000000000027 0 5.439999999999998 0 0 Z " fill="#FFFFFF" transform="translate(330,303)"/>
<path d="M0 0 C5.279999999999973 0 10.560000000000002 0 16 0 C16 5.279999999999973 16 10.560000000000002 16 16 C10.720000000000027 16 5.439999999999998 16 0 16 C0 10.720000000000027 0 5.439999999999998 0 0 Z " fill="#FFFFFF" transform="translate(285,303)"/>
<path d="M0 0 C5.280000000000001 0 10.560000000000002 0 16 0 C16 5.279999999999973 16 10.560000000000002 16 16 C10.719999999999999 16 5.439999999999998 16 0 16 C0 10.720000000000027 0 5.439999999999998 0 0 Z " fill="#FFFFFF" transform="translate(240,303)"/>
</svg>
