<?xml version="1.0" encoding="UTF-8"?>
<!-- Generator: visioncortex VTracer 0.6.12 -->
<svg version="1.1" xmlns="http://www.w3.org/2000/svg" width="2500" height="2500">
<path d="M0 0 C104.94000000000005 0 209.8800000000001 0 318 0 C318 20.79000000000002 318 41.579999999999984 318 63 C276.09000000000015 63 234.17999999999984 63 191 63 C191 88.07999999999998 191 113.15999999999997 191 139 C195.95000000000005 139 200.9000000000001 139 206 139 C208.86520960592952 139.12084475621418 211.7295238386937 139.2740721754152 214.58984375 139.48046875 C215.3250776672362 139.53324981689457 216.06031158447263 139.58603088378902 216.8178253173828 139.64041137695313 C219.19174195760706 139.8147323705366 221.5646226398644 139.9995850579395 223.9375 140.1875 C224.77059692382818 140.25246673583985 225.60369384765636 140.3174334716797 226.4620361328125 140.38436889648438 C310.37692339799196 147.01282497524858 394.4671994609298 165.67769000844964 480 201 C480.6442291259766 201.27009887695317 481.2884582519532 201.54019775390623 481.95220947265625 201.8184814453125 C511.6642722664865 214.27858638964722 541.0394849171353 227.96144544549725 569 244 C570.1153613281249 244.639052734375 571.23072265625 245.27810546875003 572.3798828125 245.9365234375 C619.6025869934917 273.06562293191826 663.988514761953 304.2326899409197 705.3935546875 339.6318359375 C707.0295484244514 341.02516555784587 708.6741236774669 342.4077996920554 710.3203125 343.7890625 C722.7219656303023 354.24107196679677 734.5027391612296 365.3654700576117 745.8828125 376.91796875 C747.835336044679 378.83807031699985 749.8430520869008 380.61280386427995 751.9375 382.375 C755.8560245868905 385.7269909116775 759.2715006164906 389.48174872486095 762.713623046875 393.30712890625 C765.9566420026856 396.8997919620057 769.3018999882684 400.35426112735945 772.75 403.75 C776.41526968568 407.37892848483034 779.9177174826768 411.0625404797072 783.265625 414.984375 C785.25912580825 417.30114620958784 787.3155438817635 419.55419984276136 789.375 421.8125 C793.273633965903 426.1326079081625 796.9750385760854 430.58071380951696 800.6328125 435.10546875 C802.6841016996077 437.6137283158571 804.7746732755481 440.0813843306747 806.887451171875 442.537841796875 C813.4012973706808 450.12546303651607 819.4577961213754 458.0275555689716 825.48486328125 466.00439453125 C826.8420340289858 467.79194104945736 828.2109755967986 469.569013076092 829.58984375 471.33984375 C850.4360952348457 498.13251381074974 868.9626713129892 526.6540907563344 886 556 C886.5452734375003 556.9350537109375 887.0905468749997 557.870107421875 887.65234375 558.83349609375 C897.0036178415594 574.9263212015567 905.6238684043869 591.3844426909704 914 608 C914.2622436523438 608.5190893554687 914.2622436523438 608.5190893554687 915.58935546875 611.14599609375 C952.6116499585814 684.9375853388588 977.0646069186623 766.2448951459774 998 927 C998.0413003540039 927.7376358032227 998.0826007080077 928.4752716064454 998.1251525878906 929.2352600097656 C998.9859967313432 944.8459171741667 999.2018661310922 960.4300210556557 999.1875 976.0625 C999.1868957519532 977.287109375 999.1862915039064 978.51171875 999.1856689453125 979.7734375 C999.1579622711679 1000.5764193748257 998.6897750469225 1021.2637412543036 997 1042 C996.9368359375003 1042.7795806884765 996.8736718749997 1043.5591613769532 996.80859375 1044.3623657226563 C991.3945874090723 1110.2709263711758 978.449592423588 1175.109560306059 958 1238 C957.7744140625 1238.6939587402344 957.548828125 1239.3879174804688 957.31640625 1240.1029052734375 C944.7505052805072 1278.624342710268 928.7961800480671 1315.6074631083973 911 1352 C910.5750927734375 1352.8770458984375 910.150185546875 1353.754091796875 909.71240234375 1354.65771484375 C903.0356632384237 1368.4319625818484 895.6589257270025 1381.7496932017107 888 1395 C887.5512451171876 1395.7800439453124 887.1024902343752 1396.560087890625 886.64013671875 1397.36376953125 C867.9943783880699 1429.7266074803451 846.8280229347602 1460.4645880667217 824 1490 C823.4695507812503 1490.6878759765625 822.9391015624997 1491.375751953125 822.392578125 1492.08447265625 C816.6467968996458 1499.5223215930548 810.7208458249338 1506.7746693756753 804.61328125 1513.91796875 C802.2091868716152 1516.7363502939918 799.8823200578272 1519.6117195316062 797.5625 1522.5 C793.1906829153666 1527.8764716390913 788.5163621946697 1532.9309639225796 783.7890625 1537.9921875 C781.5549162622435 1540.3877302552667 779.3844445956815 1542.8271877995487 777.25 1545.3125 C774.385824645181 1548.6285476802154 771.3390947221499 1551.7070809579243 768.1875 1554.75 C766.3029910082016 1556.6883521058496 764.5413553358937 1558.6683687704465 762.77734375 1560.71484375 C758.8900481348089 1565.1883928472582 754.7631553856629 1569.3845304220006 750.5625 1573.5625 C750.2063964843751 1573.920537109375 750.2063964843751 1573.920537109375 748.404296875 1575.732421875 C744.3105344711526 1579.8187478348805 740.1110794372842 1583.7118469532477 735.730224609375 1587.488037109375 C733.7253335254991 1589.2400182695899 731.8490527698862 1591.0849096311895 730 1593 C726.8288397003464 1596.2143473076255 723.5441724729524 1599.2175096285148 720.12109375 1602.16015625 C717.775089415451 1604.1950881865978 715.4826354961879 1606.2829096661922 713.1875 1608.375 C708.9442399242525 1612.2003632501057 704.5914050274362 1615.8509408951952 700.1484375 1619.44140625 C697.8218854621268 1621.322624085659 695.5203319056172 1623.2312975152004 693.2265625 1625.15234375 C683.2246010335625 1633.5090333721078 672.9546863215983 1641.428449176964 662.47021484375 1649.16943359375 C660.1227606069901 1650.9090275715348 657.7882614152873 1652.664531526084 655.45703125 1654.42578125 C617.2095561214742 1683.1830004202266 575.7424712577308 1707.5904996000681 533 1729 C531.8235693359375 1729.5902294921875 530.6471386718749 1730.180458984375 529.43505859375 1730.78857421875 C457.4073744097718 1766.7181676089967 380.10635308442306 1790.9234892389295 210 1815 C209.2623641967773 1815.0413003540039 208.5247283935546 1815.0826007080077 207.76473999023438 1815.1251525878906 C192.15408282583303 1815.9859967313432 176.56997894434426 1816.2018661310922 160.9375 1816.1875 C159.712890625 1816.1868957519532 158.48828125 1816.1862915039064 157.2265625 1816.1856689453125 C136.42358062517405 1816.157962271168 115.73625874569643 1815.6897750469225 95 1814 C94.22041931152353 1813.9368359375003 93.44083862304683 1813.8736718749997 92.63763427734375 1813.80859375 C10.843312579907888 1807.0896641911622 -70.19022168432548 1789.0319997995293 -251.26806640625 1708.56884765625 C-253.93179587213194 1707.0391670889794 -256.60901354205316 1705.5368259973147 -259.29296875 1704.04296875 C-271.59412383865856 1697.1703843945086 -283.4194425392591 1689.7043187776628 -295.14794921875 1681.89794921875 C-297.9702332156752 1680.0198088496268 -300.7988687142065 1678.1515875006883 -303.62890625 1676.28515625 C-332.1966814932782 1657.400984806815 -359.24787656350236 1636.6359509731603 -385.31298828125 1614.4326171875 C-386.98350402730637 1613.0140084468546 -388.66101042165997 1611.6040619848611 -390.33984375 1610.1953125 C-406.19886981996774 1596.8273105453306 -420.92063891708904 1582.2462476800097 -435.560546875 1567.56982421875 C-438.1537928350866 1564.9711468600417 -440.752439476791 1562.3779541891017 -443.3515625 1559.78515625 C-445.02896706632157 1558.1070918785567 -446.70606194314973 1556.4287178690674 -448.3828125 1554.75 C-448.76462173461914 1554.3692028808593 -448.76462173461914 1554.3692028808593 -450.6968078613281 1552.442138671875 C-454.7963085736851 1548.3248241887393 -458.73504543139813 1544.1229282235495 -462.522216796875 1539.7158966064453 C-464.58428064227064 1537.3215749311782 -466.7309720717998 1535.0083921849036 -468.875 1532.6875 C-472.9688020852591 1528.1985194329059 -476.8546966743979 1523.5875652443542 -480.66796875 1518.859375 C-482.70448606327466 1516.3623386962863 -484.78257977316434 1513.9084605197722 -486.884033203125 1511.466064453125 C-493.3161798031729 1503.9739644723365 -499.3227570149064 1496.1919181284682 -505.26123046875 1488.30517578125 C-507.03257796215723 1485.9568097277888 -508.8144688831028 1483.6167283058192 -510.59765625 1481.27734375 C-531.2574020031543 1454.0792191621942 -549.9935912891535 1425.6172674072511 -567 1396 C-567.55365234375 1395.0369091796874 -568.1073046875 1394.073818359375 -568.677734375 1393.08154296875 C-607 1326.1486691134548 -607 1326.1486691134548 -607 1316 C-583.24 1316 -559.48 1316 -535 1316 C-530.71 1324.58 -526.42 1333.16 -522 1342 C-518.2242352430997 1348.832336226772 -514.455091582576 1355.630898409558 -510.529296875 1362.37255859375 C-509.5639771488785 1364.0310469226963 -508.60365204232994 1365.692461753831 -507.650390625 1367.35791015625 C-480.9792702188553 1413.9516715616896 -448.0481306817097 1458.039775791758 -411.510009765625 1497.346435546875 C-410.4262435432636 1498.533234030958 -409.3581541987337 1499.7344206015064 -408.300537109375 1500.944580078125 C-401.0158600767138 1509.226939209569 -393.18634885186157 1516.9644730695638 -385.379638671875 1524.750732421875 C-382.93618078205077 1527.1888163165402 -380.4981319328182 1529.63221788828 -378.060546875 1532.076171875 C-376.4872997939583 1533.648758327396 -374.91374263234286 1535.221034643103 -373.33984375 1536.79296875 C-372.6219114685059 1537.512925262451 -371.9039791870117 1538.2328817749024 -371.16429138183594 1538.9746551513672 C-367.1444703067617 1542.9761413412125 -363.0306685266047 1546.808773718431 -358.7303161621094 1550.507797241211 C-356.3322490042599 1552.5758600074641 -354.0133622727766 1554.7263807309032 -351.6875 1556.875 C-346.80112001696375 1561.3268865508921 -341.7646445687453 1565.5330312989454 -336.61962890625 1569.6806640625 C-334.81015192019765 1571.1546486317836 -333.0196639539347 1572.6499025432126 -331.23046875 1574.1484375 C-320.44082640115516 1583.164934277125 -309.3293477228274 1591.6742885860008 -298 1600 C-297.22479003906255 1600.571376953125 -296.449580078125 1601.14275390625 -295.65087890625 1601.7314453125 C-260.41335712846126 1627.650015226323 -222.7432449984733 1650.7184302221137 -183.3857421875 1669.83154296875 C-180.56279929218454 1671.2141263392964 -177.7550685535382 1672.6259701029403 -174.9453125 1674.03515625 C-100.43669331001797 1711.0837885065803 -18.72286533249371 1734.3162291882809 84 1747 C84.8086047363281 1747.083567504883 85.61720947265621 1747.1671350097658 86.4503173828125 1747.2532348632813 C110.45080921080853 1749.6957307783496 134.4337239797028 1750.280261894858 158.5405044555664 1750.309627532959 C160.63937715264638 1750.3124356164044 162.73823059395818 1750.317949276041 164.83709716796875 1750.3236389160156 C192.14222275571092 1750.377188512528 219.30604382824822 1748.9979602337776 246.4375 1745.8125 C247.3452416992186 1745.7077334594724 248.25298339843766 1745.6029669189456 249.188232421875 1745.4950256347656 C334.2314836762657 1735.5974348355012 416.15243742330404 1711.44955659873 555 1642 C555.7811718749999 1641.5380322265626 556.5623437500001 1641.076064453125 557.3671875 1640.60009765625 C576.8242217409772 1629.0842684491236 595.8195536681499 1616.439665738551 614 1603 C614.6234228515625 1602.5396435546875 615.246845703125 1602.079287109375 615.88916015625 1601.60498046875 C637.2415904674529 1585.805117864478 657.979518237403 1569.2017452973337 677.55078125 1551.23046875 C679.6914744821929 1549.2809698096776 681.8635106188403 1547.3829669551249 684.0625 1545.5 C688.0959627527038 1542.0026826029728 691.8044996208328 1538.2101242370165 695.5546875 1534.4140625 C697.6853144541271 1532.3106640053506 699.8548042253335 1530.3246975476548 702.125 1528.375 C708.3129016901996 1523.0586337591242 713.8417166604413 1517.248024570648 719.15234375 1511.06640625 C721.1891059195443 1508.7885052189451 723.3247407487493 1506.645814117562 725.5 1504.5 C728.8926839867743 1501.1474322090153 732.0910068397982 1497.7052431775626 735.1953125 1494.0859375 C737.2165127578585 1491.7497449941636 739.2937883893526 1489.4703514898797 741.375 1487.1875 C745.1959713834165 1482.9491115746978 748.8424733142997 1478.6012089666328 752.4296875 1474.1640625 C754.3518046082395 1471.7871518953266 756.2996526856705 1469.4332405703258 758.2578125 1467.0859375 C765.6123334025147 1458.2568259403397 772.7176798721923 1449.298473757779 779.51123046875 1440.0302734375 C780.5017181205435 1438.679519860538 781.4955256880717 1437.331194311749 782.49267578125 1435.9853515625 C802.9943710995376 1408.3097189163595 821.3818466203525 1379.153601366381 838 1349 C838.2951953125003 1348.4671337890625 838.2951953125003 1348.4671337890625 839.7890625 1345.7705078125 C880.2868436303265 1272.4221329461375 908.1087600021947 1191.9769828317928 923 1105 C923.0595184326171 1104.649012451172 923.0595184326171 1104.649012451172 923.3607177734375 1102.872802734375 C926.4023671713862 1084.8415938941323 928.553731901573 1066.7680968891648 930.25 1048.5625 C930.2915873718262 1048.1172799682618 930.2915873718262 1048.1172799682618 930.5020446777344 1045.8641967773438 C930.7416060235428 1043.2654213283704 930.9740538754986 1040.6661259590128 931.203125 1038.06640625 C931.2363410186767 1037.69915184021 931.2363410186767 1037.69915184021 931.4044342041016 1035.8406219482422 C932.167311092735 1026.9000308958232 932.5276773927135 1017.974129538447 933 1009 C888.7799999999997 1009 844.56 1009 799 1009 C799 987.8800000000001 799 966.76 799 945 C843.2200000000003 945 887.44 945 933 945 C930.6338499214157 907.1415987426476 930.6338499214157 907.1415987426476 929.25 894.875 C929.1672985839841 894.1271624755859 929.0845971679687 893.3793249511718 928.9993896484375 892.6088256835938 C920.7210588892813 818.3332669602573 902.0007274441869 745.8894831019375 873 677 C872.8646282958985 676.6781069946289 872.8646282958985 676.6781069946289 872.1795654296875 675.0491333007813 C852.6486128885736 628.777624716332 828.4281106630087 584.3941921242192 800 543 C799.4672949218748 542.2202783203124 798.93458984375 541.440556640625 798.3857421875 540.63720703125 C785.8740883010132 522.3658151019752 772.491480468703 504.79216125342543 758.40478515625 487.708984375 C757.0987359870874 486.1201167726124 755.8047191909418 484.52137947011306 754.51171875 482.921875 C750.2012000098177 477.5914235009145 745.7614450416356 472.4238456214755 741.13671875 467.36328125 C738.550414747338 464.50274391616006 736.0681154433523 461.5610872502616 733.60546875 458.59375 C731.8609062036294 456.8619214868146 730.2061543638306 456.0456621634503 728 455 C727.5295438003541 455.4750651645661 727.0590876007079 455.9501303291321 726.5743751525879 456.4395914077759 C715.1376856434124 467.9865988472882 703.6872757117699 479.5198022469767 692.2213172912598 491.0377435684204 C686.6768426490337 496.6080235468096 681.1371511004118 502.18291013337785 675.6083984375 507.768798828125 C670.7907346097061 512.6362262878334 665.964409432034 517.4948646188312 661.1273858547211 522.3430566191673 C658.5653892321245 524.91158393875 656.0080086941196 527.4843617189418 653.4609451293945 530.067705154419 C650.6205864640231 532.9481925929936 647.7610706677394 535.8088832268827 644.8994140625 538.668212890625 C644.0535272216796 539.5320761108399 643.2076403808594 540.3959393310547 642.3361206054688 541.2859802246094 C641.9463201904296 541.6723439788818 641.9463201904296 541.6723439788818 639.9736938476563 543.6275787353516 C639.2989413833618 544.3069401645661 638.6241889190674 544.9863015937805 637.9289894104004 545.6862497329712 C636 547 636 547 633.8813629150391 546.8179473876953 C631.2657137302087 545.680759341329 629.6966619894979 544.0553667665115 627.6904296875 542.031005859375 C626.8498602294922 541.1902098083497 626.0092907714843 540.3494137573242 625.1432495117188 539.4831390380859 C624.6942227172851 539.0263703155517 624.6942227172851 539.0263703155517 622.421875 536.71484375 C621.4953009033204 535.784024810791 620.5687268066406 534.8532058715821 619.6140747070313 533.8941802978516 C617.1546001334552 531.4232687887242 614.7042689859443 528.9434803132598 612.2557373046875 526.4617309570313 C609.7540794913102 523.9293474720912 607.2438737826308 521.4054686963968 604.734375 518.880859375 C599.8145198748737 513.9288604719985 594.9042724653705 508.96743051224666 590 504 C591.4309384540638 500.73637023598144 593.1787086525408 498.5738497734992 595.6952209472656 496.06427001953125 C596.4636582946778 495.29308334350594 597.2320956420899 494.5218966674804 598.0238189697266 493.7273406982422 C598.8675456237793 492.8908045959472 599.711272277832 492.05426849365233 600.58056640625 491.1923828125 C601.468433380127 490.3042237854004 602.3563003540039 489.41606475830076 603.2710723876953 488.50099182128906 C605.702368914087 486.0691218093041 608.1397796410104 483.6434647891667 610.5783352851868 481.2188768386841 C613.1270380311084 478.6826820833511 615.6700728936096 476.1408171455048 618.2137145996094 473.59954833984375 C623.0297628391418 468.7897146583949 627.85088632718 463.9850016896437 632.6738542318344 459.18210768699646 C638.165044584096 453.71327705981525 643.6505526105414 448.238761928475 649.1355907917023 442.7637619972229 C660.4174165488403 431.50283769525436 671.706356671205 420.24907310879405 683 409 C682.0558103888293 407.8852584478916 681.1097188855088 406.7721276439113 680.162841796875 405.65966796875 C679.6361943054198 405.03961883544923 679.1095468139649 404.41956970214846 678.5669403076172 403.7807312011719 C672.1393274832392 396.47614490022465 664.1902869732139 390.4219584500904 656.63720703125 384.33251953125 C654.7761193216363 382.8177839632406 652.9324279357488 381.28328214683165 651.08984375 379.74609375 C642.2515858744503 372.38275664635785 633.2827115142359 365.2716259965848 624.00390625 358.47119140625 C622.0479614772523 357.03521148415234 620.1019092748943 355.58659010114457 618.15625 354.13671875 C595.0712712704064 337.0718300886232 570.8763396426818 321.3169582126193 546 307 C545.1964306640625 306.5373876953124 544.392861328125 306.07477539062506 543.56494140625 305.59814453125 C538.4179768123786 302.65405012731026 533.2256780214586 299.8017123048663 528 297 C527.1748388671874 296.5565624999999 526.3496777343751 296.1131250000001 525.49951171875 295.65625 C452.9666054295658 256.8498650635611 374.78452983693796 229.0396184438589 287 214 C286.6450244140624 213.94101531982415 286.6450244140624 213.94101531982415 284.8486328125 213.64251708984375 C262.68779836581507 209.98686685374446 240.42664244944945 207.71678412370989 218.0546875 205.796875 C217.29115463256835 205.73044296264652 216.5276217651367 205.66401092529293 215.74095153808594 205.59556579589844 C207.49846474364404 204.9078047474751 199.2652150736319 204.48618912197833 191 204 C191 248.22000000000003 191 292.44000000000005 191 338 C169.8800000000001 338 148.76 338 127 338 C127 293.78 127 249.55999999999995 127 204 C10.22339547744923 212.54462959921102 -98.85335771970699 239.3510802238793 -226 307 C-226.97195312500003 307.56380371093746 -227.94390625000005 308.1276074218749 -228.9453125 308.70849609375 C-253.12997534948386 322.77806578343836 -276.60528530536385 338.2188648900827 -299 355 C-299.7033447265625 355.5260986328125 -300.40668945312495 356.05219726562495 -301.13134765625 356.59423828125 C-311.01997942166895 364.0168326854076 -320.67820296389414 371.70250685573774 -330.23095703125 379.55126953125 C-331.83366232225603 380.86378032297375 -333.44561218484455 382.1649824886806 -335.05859375 383.46484375 C-340.68445769036657 388.0054346465513 -346.08459549442523 392.73152459257494 -351.40625 397.625 C-354.8852750015734 400.81061325445285 -358.43311042709274 403.91346518332944 -362 407 C-360.5126630186476 410.4645113541055 -358.55162947231145 412.68486448377007 -355.8804473876953 415.326416015625 C-355.018009185791 416.18437774658196 -354.1555709838867 417.04233947753914 -353.2669982910156 417.9263000488281 C-352.30933784037757 418.86890931947664 -351.3516021609862 419.81144216506686 -350.393798828125 420.75390625 C-349.3865028035556 421.75245048311285 -348.3796837098429 422.7514760233323 -347.37330627441406 423.7509460449219 C-345.207543064207 425.9002328414049 -343.03886030619185 428.0465147075222 -340.8679904937744 430.1906433105469 C-337.4378703687968 433.57940425057666 -334.0169885941996 436.9773872463021 -330.5978240966797 440.377197265625 C-320.87468790914863 450.0427446200106 -311.1415730819265 459.6981664347279 -301.393798828125 469.3388671875 C-296.00865050874404 474.6650207823898 -290.63243243743113 480.00002175479256 -285.2659322619438 485.3449659347534 C-281.8668926232509 488.7293341590615 -278.4570490063694 492.10230676307674 -275.03895342350006 495.46742248535156 C-272.9190964547456 497.5596161802223 -270.809725430551 499.6621347692849 -268.7032527923584 501.76779556274414 C-267.72193986067884 502.74452511650804 -266.73630473828155 503.7169334802263 -265.7461700439453 504.68471908569336 C-264.3989065399329 506.0027806586862 -263.06823984822176 507.3377443183948 -261.7386016845703 508.673583984375 C-260.98809445381164 509.41688461303715 -260.23758722305297 510.1601852416992 -259.464337348938 510.92601013183594 C-258 513 -258 513 -258.1608486175537 515.1402616500854 C-259.3198481908828 517.7088517747553 -260.92487999192633 519.3220163376182 -262.905517578125 521.325439453125 C-263.7334028625488 522.1692366027833 -264.56128814697263 523.0130337524414 -265.4142608642578 523.8824005126953 C-265.8647554779053 524.3329958343506 -265.8647554779053 524.3329958343506 -268.14453125 526.61328125 C-269.06586349487304 527.5422270202637 -269.9871957397461 528.4711727905274 -270.9364471435547 529.4282684326172 C-272.88582001754116 531.3910768461382 -274.84101917151247 533.3478571646247 -276.800048828125 535.301025390625 C-279.3123404022456 537.8074078479403 -281.8058665725724 540.3315926590199 -284.2949266433716 542.8610200881958 C-286.6709120842402 545.2690220562425 -289.06493190599804 547.6587861704118 -291.45703125 550.05078125 C-292.3519477844238 550.9620930480957 -293.24686431884766 551.8734048461914 -294.1688995361328 552.8123321533203 C-295.00624130249025 553.6403684997558 -295.8435830688477 554.4684048461914 -296.706298828125 555.321533203125 C-297.4405256652832 556.0578144836426 -298.1747525024414 556.7940957641601 -298.9312286376953 557.5526885986328 C-301 559 -301 559 -302.8548421859741 558.8423652648926 C-305.6935041454906 557.7276732744787 -307.2383237285994 556.1303165504423 -309.39129638671875 553.9694671630859 C-310.26345291137693 553.1014346313476 -311.1356094360351 552.2334020996094 -312.03419494628906 551.3390655517578 C-312.9926628514921 550.3699806374717 -313.95098626699837 549.4007527993123 -314.9091796875 548.431396484375 C-315.9238906781095 547.4158392518868 -316.9392627763127 546.4009422082945 -317.9552459716797 545.3866577148438 C-320.71167928028456 542.6310858936497 -323.45875873694445 539.8663556783724 -326.20427227020264 537.0999095439911 C-329.07501215579373 534.2104285432038 -331.95423773303344 531.3294288609554 -334.83258056640625 528.4475250244141 C-340.28191390728307 522.9888636893999 -345.723554172738 517.5225993728352 -351.1624834537506 512.0535736680031 C-357.35484655741584 505.82769008028174 -363.55572022903664 499.6103127807021 -369.75732946395874 493.3936413526535 C-382.5143906022332 480.6052140972532 -395.26070524625766 467.8061242349647 -408 455 C-411.8976687537204 456.79126684949983 -414.3686295529244 459.26776379282774 -417.1875 462.4375 C-417.6708984375 462.97318603515623 -418.154296875 463.50887207031246 -418.65234375 464.060791015625 C-422.4699458216853 468.3248264874695 -426.11542409767367 472.7165998093426 -429.703125 477.17578125 C-431.7255113037721 479.6624909398422 -433.79204745196375 482.10326283692837 -435.882568359375 484.53271484375 C-442.363905489825 492.07981014187453 -448.41089715049986 499.92607840173264 -454.39453125 507.87109375 C-455.92324540730965 509.898220795581 -457.460439752213 511.91860437163564 -459 513.9375 C-481.1632331281536 543.1035203628041 -500.79576937924014 574.071159984287 -518.5 606.125 C-519.1215698242188 607.248095703125 -519.7431396484375 608.37119140625 -520.383544921875 609.5283203125 C-525.5160612201403 618.9098254259981 -530.2081827819591 628.4163655639182 -535 638 C-558.76 638 -582.52 638 -607 638 C-605.4656345487859 633.3969036463578 -603.7759202710661 629.1191936729871 -601.7265625 624.75 C-601.4068397521972 624.063342590332 -601.0871170043945 623.376685180664 -600.7577056884766 622.6692199707031 C-599.7183976262344 620.4437976875856 -598.6726162351189 618.2215224150843 -597.625 616 C-597.2668521118164 615.2387884521485 -596.9087042236329 614.4775769042968 -596.5397033691406 613.6932983398438 C-590.8926565788366 601.7162402038527 -584.9113625613667 589.9979335286715 -578.38818359375 578.470703125 C-576.9812664437503 575.9666578281311 -575.6054506826052 573.4478186663376 -574.23828125 570.921875 C-564.5984686205186 553.1262216087185 -554.141229509707 535.8928840418008 -543 519 C-542.5854052734375 518.3678759765625 -542.170810546875 517.735751953125 -541.74365234375 517.08447265625 C-527.3731753908439 495.18416196107603 -512.0678988394571 473.87565166793297 -495.380859375 453.6806640625 C-493.5178045546472 451.41311289854866 -491.69562664080127 449.11418652556586 -489.875 446.8125 C-482.8784807618754 438.0484390596123 -475.5761761125633 429.549111806419 -468.03515625 421.25 C-466.226224572496 419.25010624521633 -464.4510819918819 417.2273056773573 -462.6875 415.1875 C-452.62784283586143 403.6862202980835 -441.9690850599088 392.80993685979035 -431.1533203125 382.02294921875 C-428.7364600792372 379.6114903391169 -426.32504709621526 377.1946756122645 -423.9140625 374.77734375 C-422.35448748564727 373.2184289790787 -420.79460259796053 371.65982413751533 -419.234375 370.1015625 C-418.88011444091796 369.7462898254395 -418.88011444091796 369.7462898254395 -417.08734130859375 367.9483947753906 C-413.1014936091052 363.9809853474569 -409.0199866827611 360.18404986166934 -404.75538635253906 356.51727294921875 C-402.17134463607067 354.28374949133195 -399.68677803737523 351.9529988432055 -397.1875 349.625 C-392.5430840257468 345.3344512970308 -387.76241200733944 341.2712758569122 -382.8359375 337.3046875 C-380.29774193593676 335.241966587056 -377.8016353303839 333.14157473019065 -375.31591796875 331.0166015625 C-331.8255259941236 293.85089927533807 -283.09016682927654 262.39409550987534 -232.716796875 235.45458984375 C-230.92138648868195 234.49331602260668 -229.12836261310326 233.52756997830522 -227.337890625 232.55712890625 C-150.42723027983243 190.9042309867151 -64.6679512460023 163.40437988503754 95.1875 140.25 C95.98147186279311 140.1847915649414 96.77544372558577 140.1195831298828 97.59347534179688 140.05239868164063 C99.88865676526461 139.86648543005026 102.18434066691407 139.68941884948526 104.48046875 139.515625 C105.78910888671862 139.415400390625 107.09774902343747 139.31517578125 108.446044921875 139.2119140625 C114.62441423394057 138.92440939500023 120.81494492424622 139 127 139 C127 113.92000000000002 127 88.84000000000003 127 63 C85.09000000000015 63 43.179999999999836 63 0 63 C0 42.20999999999998 0 21.420000000000016 0 0 Z " fill="#FFFFFF" transform="translate(1252,342)"/>
<path d="M0 0 C10.965329393143065 0 21.717216733043415 0.022522582302826777 32.625 0.75 C33.274415588378815 0.7932339477539472 33.92383117675786 0.8364678955077807 34.592926025390625 0.881011962890625 C104.76596710889999 5.650053589925278 172.1752197439796 24.50510851906006 235 56 C235.48565429687505 56.242182617187495 235.48565429687505 56.242182617187495 237.943359375 57.4677734375 C258.56268604843945 67.80505810934824 278.2188163725441 79.61395313273465 297 93 C297.7146240234374 93.5035400390625 298.42924804687505 94.007080078125 299.16552734375 94.52587890625 C311.57332130558416 103.27024009634818 323.583239704662 112.43503405884849 334.96875 122.484375 C335.605224609375 123.0431030273437 336.24169921875 123.60183105468752 336.8974609375 124.177490234375 C338.1018452370306 125.24045302482796 339.2983281587358 126.31245987574084 340.4853515625 127.394775390625 C343.67147176646995 130.21448219170304 344.5735670996894 131 349 131 C351.0728546116695 129.21665022236255 352.8929963235164 127.48372833682095 354.75 125.5 C355.0033007812499 125.23767578125 355.0033007812499 125.23767578125 356.28515625 123.91015625 C357.5326508651517 122.61558636635198 358.76757306512854 121.3089223997946 360 120 C364.077104094745 121.62013003436505 366.80913562304113 124.53738099821294 369.83203125 127.6015625 C370.3868669128419 128.15685638427738 370.9417025756836 128.71215026855475 371.5133514404297 129.28427124023438 C372.6864878944227 130.46042442201656 373.8571972944162 131.63900275782578 375.025634765625 132.81982421875 C376.790757340701 134.60303453711492 378.56358023457483 136.37828023732504 380.337890625 138.15234375 C385.60150030842215 143.4328979271686 390.78263542256946 148.72813579601313 395.624267578125 154.40380859375 C397.4638614012533 156.5381944705225 399.4281749385682 158.52592625543548 401.4375 160.5 C402.1168359375001 161.17031250000002 402.796171875 161.84062500000005 403.49609375 162.53125 C403.99238281249995 163.01593750000006 404.4886718749999 163.500625 405 164 C403.37233979998155 168.12647118625932 400.3841992835146 170.87616495221732 397.284423828125 173.9267578125 C396.7004080200195 174.5094593811035 396.116392211914 175.09216094970702 395.5146789550781 175.69252014160156 C393.58335128212957 177.61735925496646 391.645146012183 179.5351220741834 389.70703125 181.453125 C388.35851479412986 182.79536665207684 387.01051512595586 184.13812769008234 385.6630096435547 185.48138427734375 C382.1106931821696 189.02039394318763 378.5528635618291 192.55380443509432 374.993408203125 196.08563232421875 C369.31320719421865 201.7227533355482 363.63958050700785 207.3664693120536 357.9693660736084 213.01363372802734 C355.9960517366212 214.9768050816009 354.01931294155133 216.93647781015716 352.0421905517578 218.89581298828125 C350.8155232719412 220.11564264676292 349.58897022594147 221.3355871935845 348.362548828125 222.5556640625 C347.8204627990722 223.09101272583007 347.2783767700196 223.62636138916014 346.71986389160156 224.1779327392578 C343.9322880797331 226.95738347540703 341.2795194915079 229.80045316397627 338.7130584716797 232.78594970703125 C334.44725976835616 237.71076910873364 329.8471303152728 242.27734961778242 325.228515625 246.869140625 C324.2632595066866 247.83247297845605 323.29823420323714 248.79603665378045 322.3334197998047 249.7598114013672 C320.2701999731198 251.81989224856557 318.2054426677573 253.87841465086876 316.1394500732422 255.9357147216797 C312.86609548360934 259.19543952962727 309.59665453085813 262.45907126223847 306.3277587890625 265.7232666015625 C298.79920410120576 273.2398269658456 291.2656241528746 280.75134402947106 283.7319869995117 288.26280975341797 C276.821975486567 295.152589593431 269.9130555460979 302.04345492204993 263.00818967819214 308.938392162323 C259.76507682817146 312.17655259219873 256.51954908937864 315.41226624214573 253.27208709716797 318.6460647583008 C251.24561167618936 320.66502940743794 249.2212564677361 322.6861100340511 247.19744300842285 324.70774269104004 C245.82529192356196 326.07715906540693 244.45062218984276 327.4440503446542 243.0758514404297 328.8108367919922 C239.43713654336148 332.4492435677248 235.86131413934936 336.0916424980851 232.5057373046875 339.9942626953125 C228.29323053587655 344.8924345238038 223.7159674934669 349.4080071625806 219.13671875 353.9609375 C218.16161057174554 354.93412198052283 217.18673316144873 355.90753773076676 216.21206665039063 356.88116455078125 C214.12756578561266 358.962526107028 212.04152723830407 361.04232923607947 209.95425415039063 363.12091064453125 C206.64729548501896 366.4142412748447 203.34424885699127 369.7114772970324 200.041748046875 373.00927734375 C192.43578771419925 380.60324254609486 184.82480245490592 388.1921649697895 177.21376037597656 395.7810363769531 C170.23283583703073 402.7417301575558 163.25300225519754 409.703508875697 156.27722263336182 416.6693592071533 C153.00065804550695 419.94097085660064 149.7216782568596 423.21013575102484 146.44076538085938 426.4773864746094 C144.39353145355062 428.51711051783286 142.34841691647466 430.55894975838396 140.3038444519043 432.6013412475586 C138.91737975955607 433.98507071622316 137.52839650198393 435.3662752387427 136.13931274414063 436.74737548828125 C131.76184453415044 441.1244767292833 127.5227865507618 445.55434917320486 123.50759887695313 450.2675476074219 C120.99899634331928 453.1503001272465 118.28544746093849 455.8214669894908 115.5625 458.5 C115.02173828125001 459.0362500000001 114.48097656250002 459.5725 113.923828125 460.125 C112.6182338335991 461.4190403596185 111.3094700361462 462.7098817377871 110 464 C110.51949218749996 465.1743359375 111.03898437499993 466.34867187500004 111.57421875 467.55859375 C126.97653829427873 502.8922394256292 129.78567193219988 538.1274000060732 115.9736328125 574.580078125 C103.55413004045181 605.4482103909331 78.20103194237186 629.1192672703878 48.03125 642.3984375 C32.85468349802659 648.6843665819185 16.669007220852336 651.3914515587821 0.3125 651.3125 C-0.917749023437409 651.3068603515626 -2.1479980468750455 651.301220703125 -3.41552734375 651.29541015625 C-38.94214821605442 650.8235904707662 -68.65763868128192 635.3064411236719 -93.4296875 610.57421875 C-107.1358938313283 596.0854781471598 -116.69429984240492 577.1125789767916 -122 558 C-122.3196875000001 556.8875390624999 -122.63937499999997 555.7750781250002 -122.96875 554.62890625 C-127.65715476575656 534.8117138836305 -127.10096870187613 510.41692036217637 -121 491 C-120.75862304687507 490.2191503906249 -120.51724609374992 489.43830078125006 -120.2685546875 488.6337890625 C-115.24340326289666 472.8503889276135 -108.00402967768446 458.46981741467334 -97 446 C-96.291015625 445.1711328125 -95.58203125 444.342265625 -94.8515625 443.48828125 C-74.50229004672042 420.17586912369916 -45.1929274814338 403.5669119274701 -14 401 C12.323348107368247 399.4952261112908 37.47993197092819 402.79945309469485 60.58203125 416.09375 C63 417 63 417 64.78424072265625 416.4093322753906 C67.86849718651479 414.4475929183477 70.31696577343473 411.944252402825 72.8701171875 409.35693359375 C73.44616195678714 408.78118087768553 74.02220672607427 408.20542816162106 74.61570739746094 407.6122283935547 C76.51421037189834 405.712334632339 78.40553521515858 403.80546009125646 80.296875 401.8984375 C81.61351582448583 400.5780656613956 82.93059957246214 399.25813535840507 84.24810791015625 397.9386291503906 C87.71145036633129 394.4676572374133 91.16874417555391 390.99072070234547 94.62481689453125 387.51251220703125 C98.15379979989166 383.96305615347933 101.68846419854958 380.4192679930138 105.22265625 376.875 C112.15401308282003 369.92220537032244 119.07899377311128 362.9630969093232 126 356 C123.09051287106718 353.0475709684756 120.42126766466959 350.3978133057785 116.875 348.23828125 C116.09761474609377 347.76430908203133 115.32022949218754 347.29033691406244 114.519287109375 346.802001953125 C113.68792236328136 346.31046630859373 112.85655761718749 345.81893066406246 112 345.3125 C111.11771728515623 344.7906713867187 110.23543457031246 344.2688427734374 109.326416015625 343.731201171875 C75.59179817565882 324.0991754514737 40.10430275997874 315.0281726228427 1.271240234375 313.2177734375 C-1 313 -1 313 -2 312 C-2.0940514180285845 310.00568270257213 -2.117432494267632 308.0080045707314 -2.113525390625 306.011474609375 C-2.1134876251221613 305.3708483123778 -2.1134876251221613 305.3708483123778 -2.1132965087890625 302.12889099121094 C-2.1081890942386963 300.72004152252566 -2.1029730867469425 299.3111924439147 -2.09765625 297.90234375 C-2.095792021801799 296.46887765628026 -2.094368141812083 295.03541092713 -2.0933685302734375 293.60194396972656 C-2.0895437224182842 289.82240043251545 -2.079713766003124 286.0428951024644 -2.06866455078125 282.26336669921875 C-2.0584496289045546 278.4093070164881 -2.0538707376176717 274.5552411821884 -2.048828125 270.701171875 C-2.0380914558813856 263.1340971328941 -2.0210154906469597 255.56705391227297 -2 248 C8.432426581490745 247.8747845198684 18.685154469541885 247.94890581965478 29.0625 249.1875 C29.633192138671802 249.2544104003905 29.633192138671802 249.2544104003905 32.521240234375 249.593017578125 C83.64330389108977 255.9193949834198 131.1633689962257 275.698189138428 172 307 C175.25763629468975 305.5700007327059 177.43035226831125 303.8224367817022 179.9423828125 301.31640625 C180.32262603759773 300.939315185547 180.32262603759773 300.939315185547 182.24688720703125 299.031005859375 C183.05744567871102 298.2163989257813 183.86800415039056 297.40179199218755 184.703125 296.5625 C185.54091491699228 295.72662353515625 186.37870483398433 294.8907470703125 187.24188232421875 294.029541015625 C189.00941902539853 292.26336443362766 190.77443601782602 290.4946631184862 192.537109375 288.7236328125 C195.2464827367471 286.003531190501 197.96637765079822 283.2942800115793 200.6875 280.5859375 C202.40168356855474 278.87043283432104 204.11524690287683 277.15430813985313 205.828125 275.4375 C206.23745269775395 275.03019653320325 206.23745269775395 275.03019653320325 208.30889892578125 272.968994140625 C209.05677673339846 272.2148120117188 209.80465454101568 271.46062988281255 210.5751953125 270.68359375 C211.23819641113278 270.01900146484377 211.90119750976555 269.35440917968754 212.58428955078125 268.669677734375 C214 267 214 267 214 265 C212.465576171875 263.58642578125 212.465576171875 263.58642578125 210.29296875 261.9453125 C209.48843261718753 261.3364721679686 208.68389648437505 260.7276318359375 207.85498046875 260.100341796875 C206.97471191406248 259.4484790039062 206.09444335937496 258.7966162109374 205.1875 258.125 C204.28402832031247 257.4531567382812 203.38055664062495 256.78131347656245 202.44970703125 256.089111328125 C145.88127004835587 214.5120486370422 77.41562597415896 191.19225615835978 7.297119140625 189.289794921875 C6.352155761718677 189.2637719726563 5.407192382812582 189.23774902343746 4.43359375 189.2109375 C3.5988452148437773 189.1933740234375 2.7640966796875546 189.17581054687503 1.904052734375 189.15771484375 C0 189 0 189 -1 188 C-1.0940514180285845 186.00568270257213 -1.1174324942676321 184.0080045707315 -1.113525390625 182.011474609375 C-1.1134876251221613 181.37084831237792 -1.1134876251221613 181.37084831237792 -1.1132965087890625 178.12889099121094 C-1.1081890942386963 176.72004152252566 -1.1029730867469425 175.3111924439147 -1.09765625 173.90234375 C-1.095792021801799 172.46887765628037 -1.0943681418120832 171.03541092713 -1.0933685302734375 169.60194396972656 C-1.0895437224182842 165.82240043251568 -1.079713766003124 162.04289510246429 -1.06866455078125 158.26336669921875 C-1.0584496289045546 154.40930701648813 -1.0538707376176717 150.55524118218852 -1.048828125 146.701171875 C-1.0380914558813856 139.134097132894 -1.0210154906469597 131.56705391227285 -1 124 C22.066728772996385 123.85547415723738 22.066728772996385 123.85547415723738 31.75 124.6875 C32.763283691406286 124.77290039062495 33.77656738281257 124.85830078125002 34.820556640625 124.9462890625 C112.22266312394731 132.0613266223113 189.53111484599663 160.4773071950425 250 210 C251.06875955709643 210.86619503280315 252.13777821143526 211.73207045687616 253.20703125 212.59765625 C255.81677865526194 214.7172705391812 258.41249777779194 216.85325466935046 261 219 C267.93826821290963 213.24271361056424 274.3657531633514 207.0757055391931 280.25390625 200.2421875 C284.12056830202437 195.7929774928682 288.24613766988 191.64151081109742 292.4375 187.5 C293.1690429687501 186.77296875000002 293.90058593749995 186.04593750000004 294.654296875 185.296875 C296.43389824300243 183.52890501348782 298.2158091804117 181.76333622450227 300 180 C297.01062080272595 175.93152782419781 293.6189120029135 172.90507451012058 289.625 169.875 C288.35911020656295 168.90008331032163 287.09349234543834 167.9248134414779 285.828125 166.94921875 C285.18681640625005 166.4572802734375 284.5455078125001 165.965341796875 283.884765625 165.45849609375 C282.13122126303233 164.10154350069365 280.3979143172271 162.72371504679427 278.671875 161.33203125 C211.13197406125119 106.99201256090828 126.23680107922473 75.31585406681359 40.3125 67.1875 C39.13518310546874 67.07567382812499 37.95786621093748 66.96384765624998 36.744873046875 66.8486328125 C24.497320194061558 65.79972822451714 12.312968723568247 65.49251874894276 0 65 C0 43.549999999999955 0 22.100000000000023 0 0 Z M-47 485 C-58.12176580284472 498.4096719108584 -63.3605463352917 514.625803315791 -62.20703125 531.9697265625 C-60.450386992004496 549.1964407718051 -51.70404349026148 564.0855915412333 -38.5234375 575.0625 C-25.580614359130777 584.5949919640689 -10.109236194274445 589.6218574901475 6 588 C21.03378772351266 585.5992967636266 33.2216602904582 579.9239929488599 44 569 C44.721874999999955 568.2884374999999 45.44374999999991 567.576875 46.1875 566.84375 C58.119481929885296 554.36940525512 61.98342250144378 538.7930060375147 62 522 C60.82928698742262 504.35416204678677 52.20440141167751 490.32446242649894 39.69140625 478.2890625 C13.89932670274743 456.3526929576342 -24.710042917811506 460.4698462261342 -47 485 Z " fill="#FEFEFE" transform="translate(1415,785)"/>
<path d="M0 0 C191.73000000000002 0 383.46000000000004 0 581 0 C581 20.789999999999964 581 41.57999999999993 581 63 C389.27 63 197.53999999999996 63 0 63 C0 42.210000000000036 0 21.420000000000073 0 0 Z " fill="#BD03F7" transform="translate(349,1507)"/>
<path d="M0 0 C191.73000000000002 0 383.46000000000004 0 581 0 C581 20.789999999999964 581 41.57999999999993 581 63 C389.27 63 197.53999999999996 63 0 63 C0 42.210000000000036 0 21.420000000000073 0 0 Z " fill="#BD03F7" transform="translate(255,1289)"/>
<path d="M0 0 C191.73000000000002 0 383.46000000000004 0 581 0 C581 20.789999999999964 581 41.57999999999993 581 63 C389.27 63 197.53999999999996 63 0 63 C0 42.210000000000036 0 21.420000000000073 0 0 Z " fill="#BD03F7" transform="translate(348,1072)"/>
<path d="M0 0 C10.965329393143065 0 21.717216733043415 0.022522582302826777 32.625 0.75 C33.274415588378815 0.7932339477539472 33.92383117675786 0.8364678955077807 34.592926025390625 0.881011962890625 C104.76596710890021 5.650053589925278 172.1752197439796 24.50510851906006 235 56 C235.48565429687505 56.242182617187495 235.48565429687505 56.242182617187495 237.943359375 57.4677734375 C258.56268604843945 67.80505810934824 278.2188163725441 79.61395313273465 297 93 C297.7146240234374 93.5035400390625 298.42924804687505 94.007080078125 299.16552734375 94.52587890625 C310.143085205802 102.26228484805165 320.6973933154941 110.38762409412334 331 119 C331.666767578125 119.55171874999996 332.33353515625004 120.10343750000004 333.0205078125 120.671875 C334.9789588873423 122.29396897200297 336.92845963610034 123.92614210707495 338.875 125.5625 C339.46442382812506 126.0511352539063 340.0538476562501 126.53977050781248 340.6611328125 127.043212890625 C343.55753781392195 129.50722231474026 345.44116924152377 131.55052629869795 347 135 C341.3469163095049 140.76881371553998 335.68054050241335 146.52409134285358 329.99658584594727 152.2624750137329 C327.3578514211117 154.92732962386867 324.72397832537126 157.59664516129556 322.1005859375 160.276611328125 C319.56979469733324 162.861635664068 317.02706570550936 165.43433657458468 314.4755172729492 167.99886894226074 C313.5030779820395 168.98056376388922 312.53505857398795 169.96665679760838 311.57154083251953 170.95710945129395 C310.2237731030448 172.34104328678222 308.85884167347376 173.70819960102529 307.4931640625 175.074462890625 C306.7203912353516 175.85833877563482 305.9476184082032 176.64221466064453 305.15142822265625 177.44984436035156 C303 179 303 179 300.89764404296875 178.88694763183594 C297.75869437882966 177.41982107489503 295.3601294110031 175.05087516048968 292.8125 172.75 C223.1881359758911 111.6195509954681 132.0407435113002 75.86490129185665 40.3125 67.1875 C39.13518310546874 67.07567382812499 37.95786621093748 66.96384765624998 36.744873046875 66.8486328125 C24.49732019406133 65.79972822451703 12.312968723568929 65.49251874894276 0 65 C0 43.549999999999955 0 22.100000000000023 0 0 Z " fill="#BD03F7" transform="translate(1415,785)"/>
<path d="M0 0 C3.272840727372113 1.434087651412142 5.440813187165304 3.1918750530651323 7.959247589111328 5.713151931762695 C8.740525600910132 6.490447846651023 9.521803612708936 7.267743761539464 10.326756715774536 8.068594098091125 C11.17889587163927 8.92655893683434 12.031035027504004 9.784523775577554 12.90899658203125 10.668487548828125 C13.818962905407034 11.576745022535306 14.72892922878259 12.485002496242487 15.666470289230347 13.420782923698425 C18.19309575323814 15.942931942050791 20.713435282439377 18.47128219645799 23.23280620574951 21.000674962997437 C25.950346345878415 23.726842989765146 28.673654534520892 26.447238098748812 31.396270751953125 29.1683349609375 C36.11292854862404 33.88394348876386 40.82590738822455 38.60320332778724 45.536415100097656 43.324954986572266 C52.34704268275823 50.151828902340185 59.163178847005156 56.973180853275835 65.98067697882652 63.793192848563194 C77.04116362397235 74.8580579558951 88.09717552527354 85.92738306933393 99.150390625 96.99951171875 C109.8882831215592 107.75575909640929 120.628271845369 118.5099062454716 131.37109375 129.26123046875 C132.0331558743119 129.9238180400431 132.69521799862378 130.5864056113362 133.37734261155128 131.26907159388065 C136.69868948732483 134.59302852337612 140.0200776935967 137.9169441507438 143.34148645401 141.24083924293518 C170.90073539283367 168.82082539158807 198.4527298832868 196.40804953680652 226 224 C224.4144136027271 227.33786194903496 222.67734713180425 229.59011955497851 220.07275390625 232.233642578125 C219.2649649047853 233.05741897583005 218.45717590332015 233.8811953735351 217.62490844726563 234.7299346923828 C217.18793136596696 235.16959312438962 217.18793136596696 235.16959312438962 214.9765625 237.39453125 C214.07884124755856 238.3012809753418 213.18111999511711 239.2080307006836 212.25619506835938 240.1422576904297 C210.35740243176724 242.05555303170036 208.45634947435929 243.96628824351774 206.5517578125 245.873779296875 C204.10961121134278 248.32132955393593 201.68405956794413 250.7846564352302 199.26210975646973 253.25217151641846 C196.94881235434968 255.60229510450222 194.61781851645264 257.9347402958682 192.2890625 260.26953125 C191.8541096496583 260.7142502593995 191.8541096496583 260.7142502593995 189.65298461914063 262.9647979736328 C189.24593795776354 263.368805770874 189.24593795776354 263.368805770874 187.18603515625 265.413330078125 C186.47258941650398 266.1318464660644 185.75914367675796 266.85036285400383 185.02407836914063 267.5906524658203 C183 269 183 269 181.12112265825272 268.81176739931107 C178.458557502443 267.7927864442878 177.05658202838367 266.43498219306343 175.03795909881592 264.42106914520264 C174.25606438815612 263.648231074214 173.47416967749587 262.8753930032253 172.66858118772507 262.07913559675217 C172.24217054992914 261.65006099611514 172.24217054992914 261.65006099611514 170.0842742919922 259.4786834716797 C169.1736024028064 258.5741026860476 168.26293051362018 257.6695219004155 167.32466250658035 256.73752957582474 C164.79381351888742 254.22312228037367 162.2724476250978 251.69938771686975 159.75253474712372 249.17402684688568 C157.03469249361115 246.45351968015632 154.3082807143128 243.74162407912013 151.58299255371094 241.02857971191406 C146.244568583812 235.71123301651915 140.91445227901522 230.38563303844603 135.5874485000968 225.05684777349234 C131.259651900486 220.72774498389344 126.9293130272672 216.40120147672485 122.59714698791504 212.07647132873535 C121.35065045020838 210.83207390771486 120.10415466965878 209.58767572826014 118.85765963792801 208.34327679872513 C118.2373100451382 207.72397073365744 117.61696045234794 207.10466466858986 116.9778123870492 206.4665917530656 C105.24054326886153 194.7482334382994 93.51327595404746 183.0199045834745 81.78886929899454 171.28867933899164 C71.05190621517886 160.54613711043476 60.30179138653193 149.81686576458196 49.545504592359066 139.09367509931326 C38.51038113011441 128.0922436667264 27.484522699433 117.08160435358684 16.468546211719513 106.06099969148636 C10.279949896096923 99.87015453231129 4.08763018931154 93.68314295412017 -2.1144962310791016 87.50584983825684 C-7.392968123908986 82.24833288543311 -12.662731157307462 76.98227771279528 -17.92124781757593 71.70479866117239 C-20.60646569326377 69.01038795150293 -23.295620691702197 66.32023302420396 -25.995697021484375 63.64070510864258 C-28.917139467602965 60.741251727655026 -31.81900314276527 57.82297887861978 -34.71919250488281 54.90226745605469 C-35.15117994695902 54.47653893798588 -35.15117994695902 54.47653893798588 -37.33729821443558 52.32209461927414 C-37.72172620147467 51.931763962805235 -37.72172620147467 51.931763962805235 -39.66716480255127 49.956454277038574 C-40.33975953876961 49.28413192451001 -41.01235427498818 48.61180957198144 -41.70533066987991 47.91911381483078 C-43 46 -43 46 -42.81547325849533 43.88244038820267 C-41.681325883777845 41.26437192047433 -40.056018622057536 39.69730800753155 -38.031005859375 37.6904296875 C-37.190209808349664 36.84986022949215 -36.34941375732433 36.009290771484416 -35.48313903808594 35.14324951171875 C-34.569601593017524 34.24519592285151 -33.65606414794911 33.34714233398438 -32.71484375 32.421875 C-32.24943428039546 31.958587951660206 -32.24943428039546 31.958587951660206 -29.894180297851563 29.61407470703125 C-27.4232687887245 27.154600133455574 -24.943480313259442 24.704268985943827 -22.46173095703125 22.2557373046875 C-19.929347472091422 19.754079491310335 -17.40546869639661 17.243873782630658 -14.880859375 14.734375 C-9.928860471998405 9.81451987487344 -4.967430512246892 4.9042724653706955 0 0 Z " fill="#FFFFFF" transform="translate(1982,517)"/>
<path d="M0 0 C23.066728772996385 -0.1445258427625049 23.066728772996385 -0.1445258427625049 32.75 0.6875 C33.763283691406286 0.7729003906249545 34.77656738281257 0.8583007812500227 35.820556640625 0.9462890625 C113.22266312394731 8.061326622311299 190.53111484599663 36.4773071950425 251 86 C252.06875955709643 86.86619503280315 253.13777821143526 87.73207045687616 254.20703125 88.59765625 C256.81677865526194 90.71727053918107 259.41249777779194 92.85325466935058 262 95 C260.7099610686687 97.8110954727058 259.33470820605726 99.94486542491359 257.21875 102.1953125 C256.6360937499999 102.81672119140626 256.0534375 103.43812988281252 255.453125 104.078369140625 C254.80859375 104.75375732421878 254.1640625 105.42914550781256 253.5 106.125 C252.82453125000006 106.83841552734373 252.14906250000013 107.55183105468745 251.453125 108.286865234375 C240.5256609197304 119.74088216204382 229.2347562602065 130.84883567625343 218 142 C214.1366155803421 140.5372735289734 211.59860402872482 138.9974289054694 208.5 136.25 C153.76004498613838 90.53553354740507 78.81086472882043 67.20297980955911 8.297119140625 65.289794921875 C7.352155761718677 65.26377197265629 6.407192382812582 65.23774902343746 5.43359375 65.2109375 C4.598845214843777 65.19337402343751 3.7640966796875546 65.17581054687503 2.904052734375 65.15771484375 C1 65 1 65 0 64 C-0.09405141802858452 62.00568270257213 -0.11743249426763214 60.00800457073149 -0.113525390625 58.011474609375 C-0.11344985961909515 56.73022201538083 -0.1133743286131903 55.448969421386664 -0.1132965087890625 54.12889099121094 C-0.10818909423869627 52.72004152252566 -0.1029730867469425 51.311192443914706 -0.09765625 49.90234375 C-0.09579202180179891 48.46887765628037 -0.0943681418120832 47.03541092712999 -0.0933685302734375 45.60194396972656 C-0.08954372241828423 41.82240043251579 -0.07971376600312396 38.042895102464286 -0.06866455078125 34.26336669921875 C-0.05844962890455463 30.409307016488242 -0.05387073761767169 26.55524118218841 -0.048828125 22.701171875 C-0.038091455881158254 15.134097132893999 -0.021015490646959734 7.567053912272968 0 0 Z " fill="#BD03F7" transform="translate(1414,909)"/>
<path d="M0 0 C10.432426581490745 -0.125215480131601 20.685154469541885 -0.051094180345216955 31.0625 1.1875 C32.20388427734383 1.3213208007812227 33.345268554687436 1.4551416015624454 34.521240234375 1.593017578125 C86.06112691072349 7.971100762133574 134.17118685925175 27.949092937602245 175 60 C173.40165360326955 63.99085087762478 170.6039305513168 66.6352707703877 167.58203125 69.578125 C167.04656173706053 70.10839294433595 166.51109222412106 70.6386608886719 165.9593963623047 71.18499755859375 C164.24846248221388 72.87817055677033 162.53101231767073 74.56452208495602 160.8125 76.25 C153.96733499102038 82.98298117314766 147.22701686783967 89.68195633886785 141 97 C139.3047435615524 98.8929427827602 137.57355601215318 100.72864993964981 135.8125 102.5625 C134.99394531250005 103.4300390625001 134.1753906250001 104.29757812499997 133.33203125 105.19140625 C132.56246093749996 105.78824218749992 131.79289062499993 106.38507812500006 131 107 C126.52892528591929 106.41164131632786 123.20194296077148 103.59943385937686 119.5625 101.125 C103.377867108803 90.43899238594031 86.34927137181921 82.24295354566402 68 76 C67.63430908203122 75.8751220703125 67.63430908203122 75.8751220703125 65.78369140625 75.2431640625 C45.43852914838021 68.44730490663983 24.665450562150454 66.33554377365022 3.334716796875 65.233642578125 C1 65 1 65 0 64 C-0.09405141802858452 62.00568270257213 -0.11743249426763214 60.00800457073137 -0.113525390625 58.011474609375 C-0.11344985961909515 56.73022201538083 -0.1133743286131903 55.448969421386664 -0.1132965087890625 54.12889099121094 C-0.10818909423869627 52.72004152252566 -0.1029730867469425 51.311192443914706 -0.09765625 49.90234375 C-0.09579202180179891 48.468877656280256 -0.0943681418120832 47.03541092712999 -0.0933685302734375 45.60194396972656 C-0.08954372241828423 41.82240043251568 -0.07971376600312396 38.04289510246417 -0.06866455078125 34.26336669921875 C-0.05844962890455463 30.409307016488356 -0.05387073761767169 26.55524118218841 -0.048828125 22.701171875 C-0.038091455881158254 15.134097132893885 -0.021015490646959734 7.567053912272968 0 0 Z " fill="#BD03F7" transform="translate(1413,1033)"/>
</svg>
