<?xml version="1.0" encoding="UTF-8"?>
<!-- Generator: visioncortex VTracer 0.6.12 -->
<svg version="1.1" xmlns="http://www.w3.org/2000/svg" width="600" height="600">
<path d="M0 0 C5.610000000000014 0.3300000000000125 11.220000000000027 0.6599999999999966 17 1 C17 64.69 17 128.38 17 194 C-136.12 194 -289.24 194 -447 194 C-447 133.61 -447 73.22000000000003 -447 11 C-304.77 11 -162.53999999999996 11 -16 11 C-16 60.5 -16 110 -16 161 C-49 161 -82 161 -116 161 C-116 155.06 -116 149.12 -116 143 C-88.61000000000001 143 -61.22000000000003 143 -33 143 C-33.164999999999964 124.19 -33.164999999999964 124.19 -34 29 C-164.68 29 -295.36 29 -430 29 C-430 77.50999999999999 -430 126.01999999999998 -430 176 C-288.1 176 -146.2 176 0 176 C0 117.91999999999996 0 59.839999999999975 0 0 Z " fill="#BC02F6" transform="translate(515,198)"/>
<path d="M0 0 C0.8847480547428148 -0.0058137631416457225 1.7694961094856296 -0.011627526283263023 2.681054711341858 -0.017617464065551758 C5.666960261662183 -0.03229840091563574 8.652054177880132 -0.01829447007901308 11.637954711914063 -0.00457000732421875 C13.791706250975338 -0.009175714492386078 15.945454652631298 -0.015526397604588738 18.099196434020996 -0.023478984832763672 C24.034143013612294 -0.0402407009539445 29.9688336810662 -0.03189486347378079 35.90378141403198 -0.01953411102294922 C42.29786671414685 -0.010513879720491559 48.69190684299156 -0.02443826933918558 55.08598327636719 -0.03545379638671875 C66.89351416400811 -0.052245001347984044 78.70095355071898 -0.050744091815829506 90.50848892331123 -0.03980792313814163 C101.4154937185076 -0.029755131507016586 112.32246845340251 -0.027114479594075647 123.22947692871094 -0.03189849853515625 C123.95229449026286 -0.03220403891057799 124.6751120518148 -0.03250957928597131 125.419833175838 -0.032824378460645676 C128.35380946557464 -0.03406968374335406 131.28778574074195 -0.03534327891890143 134.22176199778914 -0.03666343353688717 C161.7581154756761 -0.048906000966496777 189.29441671501547 -0.03779519535206077 216.83076213300228 -0.01627584546804428 C241.3079435047399 0.0027073137931381552 265.7850416452921 0.0010088343817358236 290.26222229003906 -0.01811981201171875 C317.7474409386251 -0.0395272856944473 345.2326134134705 -0.04803784708025205 372.71783924102783 -0.03567075729370117 C375.64654349231074 -0.03438784144211127 378.57524775577986 -0.03313648367816313 381.5039520263672 -0.03189849853515625 C382.225100883767 -0.03158218909055677 382.9462497411668 -0.031265879645957284 383.68925159424543 -0.030939985066652298 C394.59077489758283 -0.026385517213157073 405.49226487835847 -0.03171969765571703 416.39378356933594 -0.04181671142578125 C428.7863606798426 -0.053237351201318006 441.1788254678858 -0.050043286512391205 453.5713927745819 -0.028693735599517822 C459.89890548846347 -0.01815354438133454 466.2262489217335 -0.014111996572722774 472.55376052856445 -0.02729034423828125 C478.3395848328412 -0.039158609465317795 484.1250820132809 -0.032743901571677725 489.9108763933182 -0.011380136013031006 C492.0104070376767 -0.006890377949900994 494.10996499235785 -0.009233036230796188 496.2094782590866 -0.01888328790664673 C499.0511948151077 -0.030948919697578958 501.89177308308524 -0.018672789480831398 504.7334289550781 0 C505.55924583077433 -0.009364664554595947 506.38506270647053 -0.018729329109191895 507.23590433597565 -0.028377771377563477 C510.77330020606485 0.01846614070146302 512.9455342907037 0.20677923782375274 515.8748345375061 2.269524574279785 C517.5032214134031 4.707760804191452 517.8674963178171 5.851243342074753 517.8700790405273 8.7481689453125 C517.8805100297927 9.593164677619939 517.8909410190582 10.438160409927377 517.9016880989075 11.308762073516846 C517.892765212059 12.232100768089282 517.8838423252106 13.155439462661747 517.8746490478516 14.106758117675781 C517.8808890104294 15.091489672660828 517.8871289730072 16.076221227645874 517.8935580253601 17.090793132781982 C517.9095487635775 20.39978243194912 517.8968596620986 23.70804130528549 517.8842926025391 27.01703643798828 C517.889710998439 29.3854948018749 517.8968320603725 31.753949796282825 517.9055328369141 34.122398376464844 C517.9219039548012 39.893152591138346 517.9194731547793 45.663673578712604 517.9078822731972 51.43443500995636 C517.8988526449386 56.12396841549702 517.8976218936565 60.81344349121443 517.9019775390625 65.50298309326172 C517.9025904712081 66.17014830082655 517.9032034033537 66.83731350839139 517.9038349092007 67.52469584345818 C517.9051137967571 68.87998379977824 517.9064106493477 70.23527173926254 517.9077252745628 71.5905596613884 C517.9191343996091 84.30232631039314 517.9060122067659 97.0139776194257 517.8845238089561 109.72572535276413 C517.8666524809524 120.63554957724426 517.8697564965488 131.5452035668568 517.8881988525391 142.45502471923828 C517.9095997511496 155.12096157741428 517.9180357336311 167.7867973171892 517.905749797821 180.4527497291565 C517.9044755867627 181.80308181460214 517.9032181042961 183.15341391593927 517.9019775390625 184.50374603271484 C517.901360436976 185.1681538078189 517.9007433348894 185.83256158292295 517.9001075327396 186.51710292696953 C517.8966522740213 191.20158927845694 517.9024867316367 195.88601154838352 517.9118957519531 200.57048797607422 C517.9234280421467 206.87423088762546 517.9154761439535 213.17765148620128 517.8923187255859 219.48135948181152 C517.8870176518183 221.79853466324334 517.888569146765 224.11573684822827 517.8973693847656 226.4329013824463 C517.908252904101 229.5889607657914 517.8946476707213 232.74397852430326 517.8746490478516 235.89997100830078 C517.8835719347001 236.8233097028732 517.8924948215484 237.7466483974457 517.9016880989075 238.69796705245972 C517.8912571096421 239.54296278476716 517.8808261203766 240.3879585170746 517.8700790405273 241.25856018066406 C517.8694296312332 241.9869738054275 517.8687802219391 242.71538743019107 517.8681111335754 243.46587419509888 C517.100479693418 246.585244152158 515.9939867709109 247.6533003107258 513.3667144775391 249.50336456298828 C510.3661198434012 249.89523277850708 507.7336644722956 250.0407514377389 504.7334289550781 250.00672912597656 C503.84868090033535 250.0125428891182 502.96393284559247 250.01835665225985 502.05237424373627 250.02434659004211 C499.0664686934159 250.0390275268922 496.0813747771979 250.02502359605558 493.09547424316406 250.01129913330078 C490.94172270410286 250.01590484046892 488.78797430244686 250.02225552358118 486.63423252105713 250.03020811080933 C480.699285941466 250.04696982693054 474.76459527401187 250.03862398945034 468.82964754104614 250.0262632369995 C462.4355622409315 250.01724300569708 456.0415221120865 250.03116739531572 449.64744567871094 250.04218292236328 C437.83991479107016 250.05897412732452 426.03247540435916 250.0574732177924 414.2249400317669 250.0465370491147 C403.3179352365705 250.0364842574836 392.4109605016757 250.0338436055706 381.5039520263672 250.03862762451172 C380.78113446481524 250.0389331648871 380.05831690326335 250.0392387052625 379.31359577924013 250.0395535044372 C376.37961948950357 250.04079880971994 373.44564321433626 250.04207240489546 370.511666957289 250.04339255951345 C342.975313479402 250.05563512694306 315.43901224006265 250.0445243213286 287.90266682207584 250.0230049714446 C263.42548545033833 250.0040218121834 238.94838730978597 250.0057202915948 214.47120666503906 250.02484893798828 C186.98598801645295 250.04625641167104 159.5008155416076 250.05476697305681 132.0155897140503 250.04239988327026 C129.0868854627674 250.0411169674187 126.15818119929824 250.03986560965473 123.22947692871094 250.03862762451172 C122.50832807131113 250.03831131506712 121.78717921391129 250.03799500562252 121.04417736083269 250.03766911104321 C110.14265405749535 250.03311464318972 99.2411640767196 250.03844882363228 88.33964538574219 250.04854583740234 C75.94706827523568 250.0599664771779 63.554603487192296 250.05677241248895 51.162036180496216 250.03542286157608 C44.834523466614826 250.0248826703579 38.50718003334467 250.0208411225493 32.17966842651367 250.03401947021484 C26.393844122236914 250.04588773544185 20.608346941797294 250.03947302754824 14.822552561759949 250.0181092619896 C12.723021917401475 250.01361950392646 10.62346396272035 250.01596216220736 8.523950695991516 250.0256124138832 C5.68223413997034 250.03767804567417 2.841655871993119 250.0254019154574 0 250.00672912597656 C-0.8258168756961837 250.01609379053116 -1.6516337513923673 250.02545845508575 -2.502475380897522 250.03510689735413 C-6.039871250986508 249.98826298527513 -8.21210533562573 249.7999498881527 -11.141405582427979 247.73720455169678 C-12.769792458324943 245.29896832178514 -13.134067362738953 244.15548578390178 -13.136650085449219 241.25856018066406 C-13.147081074714663 240.41356444835662 -13.1575120639801 239.56856871604919 -13.168259143829346 238.69796705245972 C-13.159336256980893 237.7746283578873 -13.150413370132448 236.8512896633148 -13.141220092773438 235.89997100830078 C-13.14746005535126 234.91523945331573 -13.153700017929076 233.9305078983307 -13.160129070281982 232.91593599319458 C-13.176119808499408 229.60694669402767 -13.16343070702046 226.29868782069093 -13.150863647460938 222.98969268798828 C-13.156282043360875 220.6212343241017 -13.163403105294336 218.25277932969374 -13.172103881835938 215.88433074951172 C-13.188474999723063 210.11357653483833 -13.186044199701143 204.34305554726393 -13.174453318119049 198.5722941160202 C-13.165423689860525 193.8827607104795 -13.16419293857836 189.1932856347621 -13.168548583984375 184.50374603271484 C-13.169161516129968 183.83658082515 -13.169774448275568 183.16941561758517 -13.170405954122543 182.4820332825184 C-13.171684841678989 181.12674532619832 -13.17298169426951 179.77145738671402 -13.17429631948471 178.41616946458817 C-13.185705444530996 165.70440281558348 -13.172583251687826 152.99275150655086 -13.151094853878021 140.28100377321243 C-13.133223525874307 129.3711795487323 -13.136327541470706 118.46152555911976 -13.154769897460938 107.55170440673828 C-13.176170796071446 94.88576754856228 -13.184606778552954 82.21993180878735 -13.17232084274292 69.55397939682007 C-13.171046631684604 68.20364731137445 -13.169789149218019 66.8533152100373 -13.168548583984375 65.50298309326172 C-13.1682400329411 65.17077920570969 -13.1682400329411 65.17077920570969 -13.166678577661514 63.489626199007034 C-13.163223318943245 58.80513984751963 -13.169057776558631 54.12071757759304 -13.178466796875 49.436241149902344 C-13.189999087068578 43.13249823835105 -13.182047188875366 36.829077639775306 -13.158889770507813 30.52536964416504 C-13.153588696740194 28.208194462733246 -13.155140191686868 25.890992277748268 -13.1639404296875 23.573827743530273 C-13.174823949022844 20.417768360185164 -13.161218715643123 17.262750601673304 -13.141220092773438 14.106758117675781 C-13.15014297962189 13.183419423103345 -13.159065866470335 12.26008072853088 -13.168259143829346 11.308762073516846 C-13.157828154563902 10.463766341209407 -13.147397165298464 9.618770608901968 -13.136650085449219 8.7481689453125 C-13.136000676155092 8.019755320549024 -13.135351266860965 7.291341695785519 -13.134682178497314 6.5408549308776855 C-11.46803020354104 -0.23180161701696989 -5.907684196858369 -0.06699243188924697 0 0 Z M4.3667144775390625 17.50336456298828 C4.3667144775390625 88.45336456298827 4.3667144775390625 159.40336456298826 4.3667144775390625 232.50336456298828 C168.04671447753907 232.50336456298828 331.7267144775391 232.50336456298828 500.36671447753906 232.50336456298828 C500.36671447753906 161.5533645629883 500.36671447753906 90.6033645629883 500.36671447753906 17.50336456298828 C336.68671447753906 17.50336456298828 173.00671447753905 17.50336456298828 4.3667144775390625 17.50336456298828 Z " fill="#FFFFFF" transform="translate(47.63328552246094,175.49663543701172)"/>
<path d="M0 0 C86.46000000000004 0 172.92000000000002 0 262 0 C262 27.720000000000027 262 55.44 262 84 C152.44 84 42.879999999999995 84 -70 84 C-70 67.17000000000002 -70 50.339999999999975 -70 33 C28.670000000000016 33 127.34000000000003 33 229 33 C229 38.94 229 44.879999999999995 229 51 C135.94 51 42.879999999999995 51 -53 51 C-53 55.94999999999999 -53 60.89999999999998 -53 66 C45.34 66 143.68 66 245 66 C245 50.15999999999997 245 34.31999999999999 245 18 C241.60887939453124 18.002618408203148 241.60887939453124 18.002618408203148 224.44775390625 18.015869140625 C202.68643770695405 18.03195768529747 180.92512120102828 18.04305895228339 159.16380057483912 18.05106532946229 C155.77716911821892 18.05231586621221 152.39053767966243 18.05361020507098 149.00390625 18.054931640625 C148.32975828453903 18.0551939510554 147.65561031907794 18.0554562614858 146.96103362739086 18.055726520717144 C136.08032715490765 18.06006437303114 125.19962602724365 18.067941456413678 114.31892271339893 18.07715279608965 C103.13397377672482 18.086541929374107 91.94902665097396 18.091991964533975 80.76407372951508 18.09408849477768 C74.49024900120537 18.0953869755366 68.21643634966762 18.098417890642622 61.9426155090332 18.105730056762695 C56.02476119947255 18.112570772106494 50.106923821481786 18.11460074303676 44.18906593322754 18.113107681274414 C42.029348705719315 18.113380417343535 39.86963084931352 18.115337392029346 37.709917068481445 18.119205474853516 C25.093075453949467 18.140673892820757 12.592298257870794 17.81993019706431 0 17 C0 11.389999999999986 0 5.780000000000001 0 0 Z " fill="#BC02F6" transform="translate(204,242)"/>
<path d="M0 0 C33 0 66 0 100 0 C100 5.939999999999998 100 11.879999999999995 100 18 C72.61000000000001 18 45.22 18 17 18 C17 44.73000000000002 17 71.46000000000004 17 99 C21.137044677734366 98.99738159179685 21.137044677734366 98.99738159179685 42.072998046875 98.984130859375 C68.5362026873313 98.96808649475372 94.99940719593991 98.95695994639306 121.46261541172862 98.94893467053771 C125.57200078158002 98.94768393914268 129.68138613662407 98.94638961925511 133.790771484375 98.945068359375 C134.60888837970793 98.9448060489446 135.42700527504087 98.9445437385142 136.2699135914445 98.94427347928286 C149.52291729849782 98.9399202199121 162.77591667512593 98.93203454964657 176.02891781181097 98.92284720391035 C189.62412087431102 98.9135011211809 203.2193216662671 98.90794236044013 216.8145278096199 98.90591150522232 C225.20588002928594 98.90453826900705 233.59722000953388 98.90019840603878 241.98856846243143 98.89208353310823 C247.74005230915645 98.88680431543469 253.49152981300745 98.88519839553567 259.24301590770483 98.88649862259626 C262.56305677687476 98.88714015349473 265.88307166712815 98.8856014864541 269.20310974121094 98.88079452514648 C272.80096634944846 98.8758394887933 276.39877004463835 98.87700848773545 279.9966278076172 98.87974548339844 C281.0481834334135 98.8768326419592 282.0997390592098 98.87391980051996 283.18316000699997 98.8709186911583 C284.14756563723085 98.87290973961353 285.1119712674618 98.87490078806877 286.10560131073 98.87695217132568 C286.93604967296125 98.87657245099547 287.7664980351925 98.8761927306652 288.62211149930954 98.8758015036583 C291 99 291 99 296 100 C296 105.27999999999997 296 110.56 296 116 C293.53266841453706 117.23366579273147 291.9226119920756 117.12422238808176 289.16239738464355 117.12304782867432 C288.1342969882488 117.12503887712955 287.1061965918541 117.1270299255848 286.04694163799286 117.1290813088417 C284.90882852196694 117.12616846740247 283.770715405941 117.12325562596322 282.5981140136719 117.12025451660156 C281.3958407700062 117.1211089414358 280.1935675263405 117.12196336627005 278.95486176013947 117.12284368276596 C275.60729613061875 117.12421041066852 272.25978842610715 117.12106843096791 268.91222977638245 117.11606562137604 C265.30623259546053 117.11176019302411 261.7002373081432 117.1132076112973 258.09423828125 117.11396789550781 C251.8431340333865 117.11449307177213 245.5920401969778 117.11134693042851 239.34093856811523 117.1057300567627 C230.30281754374795 117.09761420249981 221.26470157036994 117.09499974845698 212.22657729685307 117.09374206513166 C197.56397185187444 117.09155168146879 182.90137195984084 117.08489195963239 168.23876953125 117.075439453125 C153.99267606457707 117.06626498753246 139.74658410439702 117.0591843218188 125.50048828125 117.054931640625 C125.0616626548022 117.05480027887972 125.0616626548022 117.05480027887972 122.84093903005123 117.05413550883532 C118.4381633595427 117.05283050208499 114.03538767833464 117.05156678672734 109.63261198997498 117.05032360553741 C73.08840306184254 117.0399514139649 36.54420440104832 117.02151333423359 0 117 C0 78.38999999999999 0 39.77999999999997 0 0 Z " fill="#BC02F6" transform="translate(101,242)"/>
<path d="M0 0 C5.939999999999998 0 11.879999999999995 0 18 0 C18 11.220000000000027 18 22.439999999999998 18 34 C12.060000000000002 34 6.1200000000000045 34 0 34 C0 22.779999999999973 0 11.560000000000002 0 0 Z " fill="#FFFFFF" transform="translate(498,457)"/>
<path d="M0 0 C5.939999999999998 0 11.879999999999995 0 18 0 C18 11.220000000000027 18 22.439999999999998 18 34 C12.060000000000002 34 6.1200000000000045 34 0 34 C0 22.779999999999973 0 11.560000000000002 0 0 Z " fill="#FFFFFF" transform="translate(432,457)"/>
<path d="M0 0 C5.939999999999998 0 11.879999999999995 0 18 0 C18 11.220000000000027 18 22.439999999999998 18 34 C12.060000000000002 34 6.1200000000000045 34 0 34 C0 22.779999999999973 0 11.560000000000002 0 0 Z " fill="#FFFFFF" transform="translate(299,457)"/>
<path d="M0 0 C5.939999999999998 0 11.879999999999995 0 18 0 C18 11.220000000000027 18 22.439999999999998 18 34 C12.060000000000002 34 6.1200000000000045 34 0 34 C0 22.779999999999973 0 11.560000000000002 0 0 Z " fill="#FFFFFF" transform="translate(233,457)"/>
<path d="M0 0 C5.939999999999998 0 11.879999999999995 0 18 0 C18 11.220000000000027 18 22.439999999999998 18 34 C12.060000000000002 34 6.1200000000000045 34 0 34 C0 22.779999999999973 0 11.560000000000002 0 0 Z " fill="#FFFFFF" transform="translate(167,457)"/>
<path d="M0 0 C5.939999999999998 0 11.879999999999995 0 18 0 C18 11.219999999999999 18 22.439999999999998 18 34 C12.060000000000002 34 6.1200000000000045 34 0 34 C0 22.78 0 11.560000000000002 0 0 Z " fill="#FFFFFF" transform="translate(498,110)"/>
<path d="M0 0 C5.939999999999998 0 11.879999999999995 0 18 0 C18 11.219999999999999 18 22.439999999999998 18 34 C12.060000000000002 34 6.1200000000000045 34 0 34 C0 22.78 0 11.560000000000002 0 0 Z " fill="#FFFFFF" transform="translate(432,110)"/>
<path d="M0 0 C5.939999999999998 0 11.879999999999995 0 18 0 C18 11.219999999999999 18 22.439999999999998 18 34 C12.060000000000002 34 6.1200000000000045 34 0 34 C0 22.78 0 11.560000000000002 0 0 Z " fill="#FFFFFF" transform="translate(299,110)"/>
<path d="M0 0 C5.939999999999998 0 11.879999999999995 0 18 0 C18 11.219999999999999 18 22.439999999999998 18 34 C12.060000000000002 34 6.1200000000000045 34 0 34 C0 22.78 0 11.560000000000002 0 0 Z " fill="#FFFFFF" transform="translate(233,110)"/>
<path d="M0 0 C5.939999999999998 0 11.879999999999995 0 18 0 C18 11.219999999999999 18 22.439999999999998 18 34 C12.060000000000002 34 6.1200000000000045 34 0 34 C0 22.78 0 11.560000000000002 0 0 Z " fill="#FFFFFF" transform="translate(167,110)"/>
<path d="M0 0 C5.610000000000014 0 11.220000000000027 0 17 0 C17 11.220000000000027 17 22.439999999999998 17 34 C11.389999999999986 34 5.779999999999973 34 0 34 C0 22.779999999999973 0 11.560000000000002 0 0 Z " fill="#FFFFFF" transform="translate(366,457)"/>
<path d="M0 0 C5.609999999999999 0 11.219999999999999 0 17 0 C17 11.220000000000027 17 22.439999999999998 17 34 C11.39 34 5.780000000000001 34 0 34 C0 22.779999999999973 0 11.560000000000002 0 0 Z " fill="#FFFFFF" transform="translate(101,457)"/>
<path d="M0 0 C5.610000000000014 0 11.220000000000027 0 17 0 C17 11.219999999999999 17 22.439999999999998 17 34 C11.389999999999986 34 5.779999999999973 34 0 34 C0 22.78 0 11.560000000000002 0 0 Z " fill="#FFFFFF" transform="translate(366,110)"/>
<path d="M0 0 C5.609999999999999 0 11.219999999999999 0 17 0 C17 11.219999999999999 17 22.439999999999998 17 34 C11.39 34 5.780000000000001 34 0 34 C0 22.78 0 11.560000000000002 0 0 Z " fill="#FFFFFF" transform="translate(101,110)"/>
</svg>
