<?xml version="1.0" encoding="UTF-8"?>
<!-- Generator: visioncortex VTracer 0.6.12 -->
<svg version="1.1" xmlns="http://www.w3.org/2000/svg" width="600" height="600">
<path d="M0 0 C0.990205900669082 -0.006448892354967484 1.9804118013381924 -0.012897784709927862 3.000623941421509 -0.01954209804534912 C3.540841482877738 -0.017993496060370262 3.540841482877738 -0.017993496060370262 6.274669647216797 -0.010156631469726563 C6.851453322172176 -0.012422187924386208 6.851453322172176 -0.012422187924386208 9.770328283309937 -0.023887276649475098 C12.968344621801037 -0.0343566594175897 16.166219529856903 -0.03585724969608606 19.3642475605011 -0.033498525619506836 C22.81495984957877 -0.03309026156054529 26.26563863373434 -0.04413049147693471 29.71633529663086 -0.05361366271972656 C36.47583097244464 -0.07022319945804156 43.23529176562835 -0.07572320706734814 49.99480614066124 -0.076838418841362 C55.49041988429798 -0.07778901597135501 60.98602212718296 -0.08189989918945884 66.48163223266602 -0.08823966979980469 C82.067026900153 -0.10585277944071692 97.65239402939733 -0.1150785560463703 113.23779872059822 -0.11357872188091278 C113.65786283120514 -0.11353876568377075 113.65786283120514 -0.11353876568377075 115.78364181518555 -0.11333656311035156 C116.62479749411341 -0.1132548017799877 117.46595317304138 -0.11317304044961674 118.33259841799736 -0.11308880150318146 C131.96091900786 -0.11227611764677903 145.58912901710698 -0.13140913137476673 159.217417627573 -0.15961329638957977 C173.21509086845953 -0.18835298247017107 187.21271020322695 -0.20215296090788826 201.2104136943817 -0.20042574405670166 C209.06732143026125 -0.1997621650683854 216.9241132759563 -0.20524020084179284 224.7809944152832 -0.22678184509277344 C231.47147747671806 -0.2450080503806049 238.16179212921998 -0.2493293192840227 244.85228928923607 -0.23576299846172333 C248.26410585869007 -0.2292402078916851 251.67559948091667 -0.22909060878036058 255.0873851776123 -0.24646949768066406 C258.7911335123691 -0.2618984511850826 262.494035321838 -0.25262780714814426 266.1977653503418 -0.23720741271972656 C267.2692775464058 -0.24749453902244767 268.3407897424698 -0.25778166532516167 269.4447720050812 -0.2683805227279663 C279.5905135670309 -0.17512353037805894 287.5188155548773 3.409919228444018 294.99018478393555 10.257268905639648 C298.99018478393555 15.012198483104413 298.99018478393555 15.012198483104413 298.99018478393555 18.25726890563965 C299.6501847839356 18.25726890563965 300.31018478393554 18.25726890563965 300.99018478393555 18.25726890563965 C302.2925182664286 22.214956334140318 302.12857119617127 26.212633673574764 302.1160259246826 30.32832908630371 C302.117479365468 31.152295688390737 302.11893280625344 31.97626229047775 302.120430290699 32.8251975774765 C302.1240984813328 35.60408666302257 302.1206000541397 38.382921177878785 302.1171684265137 41.16180992126465 C302.1183199193215 43.16706463736024 302.11990763375906 45.17231914281345 302.1218956708908 47.17757320404053 C302.1260851057264 52.701983910790034 302.12400001988624 58.22637742853455 302.12090945243835 63.75078821182251 C302.11865402075694 69.70313479142429 302.12213568603426 75.65547834105966 302.1248893737793 81.60782432556152 C302.129086795454 92.59919941850791 302.1287121246718 103.59056938007967 302.12597790546715 114.58194467425346 C302.1234645287511 124.73512341013478 302.122804630503 134.88830012770836 302.1240005493164 145.04147911071777 C302.12403874186333 145.377933649458 302.12403874186333 145.377933649458 302.1242320192978 147.08059752732515 C302.12454334654785 149.81200369925742 302.1248617454449 152.54340987021178 302.12519178306684 155.27481603994966 C302.12825229701326 180.90900652205946 302.12547492042495 206.54319349680654 302.1200948860496 232.17738343775272 C302.1153491152137 254.96280286856427 302.1157737355615 277.748216711138 302.12055587768555 300.53363609313965 C302.1259079556456 326.12028495318816 302.1280352658429 351.70693071316873 302.12494361400604 377.2935800552368 C302.12462288592695 380.0200729363071 302.12431004642633 382.7465658181954 302.1240005493164 385.4730587005615 C302.12392147195527 386.1444141406566 302.1238423945941 386.81576958075163 302.1237609209493 387.50746912509203 C302.12262239294046 397.65544400584247 302.12395568805795 407.8034166490634 302.12648010253906 417.9513912200928 C302.12933549322514 429.4875413965553 302.12853623808917 441.02368529193865 302.1231993585825 452.5598347187042 C302.12056464992537 458.4498368883922 302.11955341748126 464.33982769328145 302.1228485107422 470.229829788208 C302.1258161684593 475.61585172216706 302.1242107347336 481.0018516968614 302.1188709586859 486.38787162303925 C302.1177487960346 488.34204965468496 302.11833354917957 490.296229520647 302.1207467466593 492.2504063844681 C302.1237642064288 494.8957006373528 302.1206921000347 497.5409185362083 302.1160259246826 500.1862087249756 C302.11836709082127 500.9542691648006 302.1207082569599 501.72232960462566 302.123120367527 502.51366460323334 C302.1110871756667 505.9003572385684 302.0553207991659 509.0204056338372 300.99018478393555 512.2572689056396 C300.3301847839355 512.2572689056396 299.67018478393555 512.2572689056396 298.99018478393555 512.2572689056396 C298.76330978393554 512.9585189056396 298.53643478393553 513.6597689056397 298.30268478393555 514.3822689056396 C294.58986608085405 522.5151098742944 288.50949109486885 525.7677548454524 280.66019636392593 529.3082232475281 C277.90535450639754 530.28742151141 275.89794832276203 530.5116048058137 272.98874950408936 530.5201244354248 C272.0003937000036 530.527806725502 271.0120378959179 530.5354890155792 269.9937319159508 530.5434041023254 C268.9153431922197 530.5416711378098 267.83695446848867 530.5399381732941 266.725887298584 530.5381526947021 C266.1501619723439 530.541123816967 266.1501619723439 530.541123816967 263.23664289712906 530.5561594963074 C260.0444269916956 530.5705015725665 256.8523423634455 530.5758766718741 253.6600991487503 530.5773544311523 C250.21545645596882 530.5810617587213 246.7708601447137 530.5961597587119 243.32624435424805 530.6096248626709 C235.79498963224756 530.6367696724599 228.2637562354671 530.6488380633832 220.7324607372284 530.6576461791992 C216.02682021683586 530.6631758201794 211.32118788506557 530.6716515081904 206.61555290222168 530.6806545257568 C193.57884709842352 530.70503908294 180.54214784610338 530.7256365195127 167.50541973114014 530.7324047088623 C166.6712800971046 530.7328438410163 165.8371404630691 530.7332829731703 164.97772387042642 530.7337354123592 C164.55967173604296 530.7339536900818 164.55967173604296 530.7339536900818 162.44407457113266 530.7350583076477 C160.74989060235498 530.7359452301704 159.0557066368139 530.7368383567784 157.36152267456055 530.7377376556396 C156.9413383007422 530.7379590854049 156.9413383007422 530.7379590854049 154.81495071202517 530.7390796542168 C141.20800477957096 530.7469701135667 127.60127342667863 530.7818614961092 113.99441032856703 530.8284566998482 C100.01367214358743 530.8759443244943 86.03304146959675 530.9008112248882 72.05222135782242 530.9031405448914 C64.20688379361314 530.9049709059647 56.36182568252411 530.9163951788883 48.51656532287598 530.9527797698975 C41.833802375026806 530.9836642450144 35.151405204992585 530.9937748874506 28.468584410846233 530.9773035645485 C25.062314104764084 530.9695184489099 21.656779400165988 530.9712084679544 18.250600814819336 530.999418258667 C14.54756295076362 531.0249032819104 10.84639441236834 531.0130816988334 7.143367767333984 530.9922542572021 C6.080594095587742 531.0083670663834 5.017820423841471 531.0244798755646 3.922841489315033 531.0410809516907 C-5.293600863428509 530.9204087602753 -12.853975944956233 527.705731279538 -19.947315216064453 521.8197689056396 C-26.197529656229534 514.0543509648285 -29.323264910688437 508.3347148045947 -29.2670841217041 498.0165491104126 C-29.268837158977988 497.60753770366307 -29.268837158977988 497.60753770366307 -29.27770859003067 495.53769209980965 C-29.28702769567704 492.79096707433905 -29.282097940773042 490.0444538309755 -29.277240753173828 487.29771995544434 C-29.280976749095032 485.31080032317027 -29.28557806652509 483.32388216055153 -29.290971398353577 481.33696633577347 C-29.3032229846512 475.8723225693827 -29.302938387003394 470.40773992433856 -29.30058264732361 464.9430855512619 C-29.300175028644787 459.05133865425114 -29.311208350690663 453.15961149737785 -29.320697784423828 447.2678737640381 C-29.33732041464114 435.7232294222616 -29.342807895156824 424.1786055022814 -29.343922540545464 412.63395019620657 C-29.344841587529203 403.2515388235455 -29.348958064414575 393.8691340733277 -29.355323791503906 384.4867248535156 C-29.357118875481063 381.78611209772265 -29.358898503348343 379.085499331859 -29.360673546791077 376.38488656282425 C-29.36111564305145 375.7135084505961 -29.36155773931182 375.042130338368 -29.36201323242858 374.35040743486024 C-29.37432177756017 355.4655394977451 -29.38221434369504 336.58067385913296 -29.38132667541504 317.6958017349243 C-29.381311096684072 317.3397939433088 -29.381311096684072 317.3397939433088 -29.381232258863747 315.5381787554361 C-29.381066043550703 311.9293786239507 -29.380867961430198 308.32057849453315 -29.380662843585014 304.7117783650756 C-29.380622953157882 303.9950562611129 -29.38058306273072 303.27833415715025 -29.380541963502765 302.53989320155233 C-29.380461089220574 301.09050647122876 -29.380377493480495 299.64111974105447 -29.380291180685163 298.19173301104456 C-29.37906563024376 275.6408800003268 -29.39407952634025 253.09008712986304 -29.421436309814453 230.53925132751465 C-29.4521580736145 205.20413689518682 -29.46936875894866 179.8690619768542 -29.467509865760803 154.53392773866653 C-29.467360603618488 151.8323719105826 -29.46726319092022 149.1308160853469 -29.467201232910156 146.42926025390625 C-29.46717792420648 145.76406753152142 -29.467154615502807 145.09887480913662 -29.467130600474775 144.413524731528 C-29.467072869025372 134.3722896603616 -29.47777023410822 124.33110389909109 -29.493865966796875 114.28988265991211 C-29.512055420855006 102.86917923067466 -29.51644343389856 91.44857437427508 -29.502847120165825 80.0278627499938 C-29.496306326545323 74.19994521333165 -29.496240537647964 68.37221691143453 -29.513553619384766 62.5443172454834 C-29.52923991477357 57.20920029809807 -29.526466014482224 51.874423334574246 -29.508985355496407 46.53931490331888 C-29.505905684338842 44.60933193132263 -29.509584097956065 42.679323863760885 -29.52070550620556 40.749370478093624 C-29.61947619584808 22.393405236227174 -29.61947619584808 22.393405236227174 -25.009815216064453 15.257268905639648 C-24.6417807519436 14.610840155482293 -24.273746287822718 13.964411405324938 -23.894559264183044 13.298393905162811 C-19.350146146887255 5.518614328986594 -8.89717000477276 0.014696490656234573 0 0 Z M70.99018478393555 17.25726890563965 C73.27265871728986 26.38716463905694 73.27265871728986 26.38716463905694 77.24241161346436 29.2385835647583 C83.74416881029424 33.028116931147494 89.57784616458929 33.698445027750154 96.93525314331055 33.66132164001465 C97.89732177734373 33.66818489074707 98.85939041137692 33.67504814147949 99.85061264038086 33.682119369506836 C103.01057079879945 33.700324760142934 106.17002950829755 33.69655879392894 109.33002853393555 33.69086265563965 C111.53906031458473 33.695427372093576 113.74809067553622 33.70073380935193 115.95711898803711 33.70674705505371 C120.57944647587436 33.715665830209105 125.20160107278633 33.71326890050264 129.82392501831055 33.70331382751465 C135.73296100433168 33.69182457193676 141.64139935576338 33.71204177989466 147.5503568649292 33.741230964660645 C152.11014185080933 33.7596196795993 156.66978431404755 33.75929515929407 161.2295970916748 33.75359344482422 C163.40758795096627 33.75344056550078 165.58558867501296 33.759457170616614 167.7635440826416 33.77188491821289 C170.8146461910252 33.78684370719458 173.86465291003918 33.77608156340017 176.91572189331055 33.75897789001465 C177.80586990356448 33.76864585876464 178.69601791381837 33.77831382751465 179.61314010620117 33.78827476501465 C186.28048669054596 33.710424412097794 192.41239902549518 32.28110896828309 197.61880016326904 27.880810737609863 C200.9269376820954 24.26593684799157 201.14258063766476 22.34289378326457 201.99018478393555 17.25726890563965 C158.76018478393553 17.25726890563965 115.53018478393551 17.25726890563965 70.99018478393555 17.25726890563965 Z M-6.970752716064453 21.94086265563965 C-7.43739334106445 22.51965171813965 -7.904033966064446 23.09844078063965 -8.384815216064453 23.69476890563965 C-8.866924591064446 24.27097984313965 -9.34903396606444 24.84719078063965 -9.845752716064453 25.44086265563965 C-12.524681901154224 29.621070947809898 -12.152774060587376 34.22740986592363 -12.141242980957031 39.03883647918701 C-12.143295614719392 39.831513565480705 -12.145348248481753 40.6241906517744 -12.147463083267212 41.44088825583458 C-12.153145155286666 44.11336526291055 -12.151674346742311 46.78579093094157 -12.150257110595703 49.45827293395996 C-12.152840047389077 51.38714348212292 -12.155853006816386 53.316013494688576 -12.159260511398315 55.2448827624321 C-12.167342036013878 60.55827028724093 -12.169120722798311 65.87164431203024 -12.1698579788208 71.18503725528717 C-12.171706508748883 76.91044772095205 -12.179252783321175 82.63585114668604 -12.185993194580078 88.36125755310059 C-12.199584763694759 100.88588369873094 -12.205602389060687 113.4105066470297 -12.210003852844238 125.93513894081116 C-12.212764625701595 133.75188912680437 -12.217001650200416 141.5686380724639 -12.221508026123047 149.3853874206543 C-12.233701280261556 171.01758357290146 -12.244036192617244 192.64977822279454 -12.247383117675781 214.28197765350342 C-12.24760475062854 215.68090760089365 -12.247826534733093 217.07983754825997 -12.248048469424248 218.47876749560237 C-12.248269110159328 219.88108572113012 -12.248489592524322 221.28340394668282 -12.248709917068481 222.68572217226028 C-12.24915247152967 225.49904048508006 -12.249599586240322 228.31235879712733 -12.250049591064453 231.12567710876465 C-12.250158981941638 231.8232166305836 -12.250268372818823 232.5207561524026 -12.250381078571081 233.23943323548883 C-12.254012578823222 255.86263416163456 -12.26993638641514 278.4858030614901 -12.293239954859018 301.1089917207137 C-12.317829158353163 325.02396609324074 -12.33154878619493 348.9389201083459 -12.332751035690308 372.853907763958 C-12.33366874826035 385.89186555330406 -12.3394453265947 398.9297814029876 -12.35757064819336 411.9677276611328 C-12.372947512655571 423.06792531529146 -12.378106350374964 434.1680680687629 -12.369832545518875 445.2682743445039 C-12.365917613447948 450.93388120832924 -12.366896755513238 456.5993774290199 -12.380889892578125 462.26497077941895 C-12.393578078373793 467.44951057438516 -12.392476131881779 472.63385600796875 -12.380299180746078 477.81839533895254 C-12.37833335694009 479.6959132931174 -12.381461217588452 481.5734447779747 -12.390143543481827 483.45094368606806 C-12.401188050873913 486.0002588497555 -12.393781852042906 488.548882247386 -12.381752014160156 491.0981779098511 C-12.389347207546223 491.8294790908694 -12.396942400932318 492.5607802718878 -12.404767751693726 493.3142420947552 C-12.346060893869605 499.065258433042 -11.129618349512697 503.7882638638971 -7.326221466064453 508.21820640563965 C-6.74743240356446 508.68484703063973 -6.168643341064467 509.1514876556396 -5.572315216064453 509.63226890563965 C-4.996104278564445 510.1143782806396 -4.419893341064437 510.59648765563963 -3.826221466064453 511.09320640563965 C-0.5071471161004126 513.2202691073371 2.7904394339840337 513.3827497259979 6.661102294921875 513.3886966705322 C7.601166307926178 513.3925378155709 8.541230320930481 513.3963789606094 9.509781122207642 513.4003365039825 C10.539337890148147 513.3994700217247 11.56889465808868 513.3986035394669 12.629650115966797 513.3977108001709 C13.725898873805988 513.4006819224358 14.822147631645208 513.4036530447006 15.951616048812866 513.4067142009735 C19.63798256005552 513.4154103274197 23.32431663093911 513.4169102263119 27.010692596435547 513.4184017181396 C29.648516630264083 513.4230292333837 32.286337700960445 513.4280331670063 34.92416000366211 513.4334468841553 C42.09984958484628 513.4470246708097 49.275533574615395 513.4530540727178 56.451233863830566 513.4574575424194 C60.93253891829045 513.4602209266452 65.41384181823537 513.4644584603707 69.89514541625977 513.4689617156982 C82.30474461378782 513.4811537057884 94.71434208624527 513.4914531276954 107.12394714355469 513.494836807251 C107.91808158978819 513.495056373328 108.71221603602169 513.495275939405 109.53041516244411 513.4955021589994 C109.92842762954535 513.4956112978607 109.92842762954535 513.4956112978607 111.94261193275452 513.4961636066437 C113.55563751941827 513.4966070713506 115.16866310523301 513.4970536346966 116.78168869018555 513.4975032806396 C117.58180357426409 513.4977247104049 118.38191845834251 513.4979461401701 119.20627924799919 513.4981742799282 C132.16926521618342 513.5021217926947 145.13219495340684 513.5195746921115 158.0951592028141 513.5428628027439 C171.40687278695304 513.5665842342232 184.7185581646237 513.5790390199228 198.03029322624207 513.5802047252655 C205.50319401567373 513.581121046069 212.9760215378331 513.5868625136957 220.44890213012695 513.6050243377686 C226.81259514866298 513.6204360243972 233.1761922561194 513.6255395145703 239.53990039229393 513.6172862350941 C242.78547928935586 513.6133834531748 246.0308250119292 513.6159280662632 249.27638816833496 513.6283435821533 C252.79868671873368 513.641027500149 256.32048988074 513.6352050623198 259.8427848815918 513.6247615814209 C260.86341876268386 513.6328179860116 261.88405264377593 513.6408743906021 262.93561482429504 513.6491749286652 C269.41814885673625 513.6042310948028 275.80731976106443 513.1698269201991 280.83002853393555 508.57367515563965 C281.19225509643553 507.9948860931397 281.5544816589356 507.41609703063966 281.92768478393555 506.81976890563965 C282.30795822143557 506.2435579681396 282.68823165893554 505.6673470306396 283.08002853393555 505.07367515563965 C285.27450072353747 500.6941491120135 285.1331312426984 496.2819598971414 285.1216125488281 491.4757013320923 C285.12366518259046 490.6830242457986 285.12571781635285 489.8903471595049 285.1278326511383 489.0736495554447 C285.13351472315776 486.4011725483689 285.1320439146134 483.7287468803378 285.1306266784668 481.05626487731934 C285.13320961526017 479.12739432915646 285.13622257468745 477.19852431659075 285.1396300792694 475.2696550488472 C285.147711603885 469.9562675240382 285.1494902906694 464.64289349924917 285.1502275466919 459.3295005559921 C285.15207607662 453.60409009032713 285.1596223511923 447.8786866645933 285.1663627624512 442.1532802581787 C285.17995433156585 429.62865411254836 285.1859719569318 417.1040311642496 285.19037342071533 404.57939887046814 C285.1931341935727 396.762648684475 285.1973712180715 388.94589973881546 285.20187759399414 381.129150390625 C285.2140708481326 359.49695423837784 285.2244057604883 337.86475958848473 285.2277526855469 316.2325601577759 C285.22797431849966 314.83363021038565 285.22819610260416 313.43470026301935 285.22841803729534 312.0357703156769 C285.22863867803045 310.63345209014915 285.2288591603954 309.2311338645965 285.2290794849396 307.828815639019 C285.22952203940076 305.01549732619907 285.2299691541114 302.20217901415214 285.23041915893555 299.38886070251465 C285.23052854981273 298.6913211806957 285.2306379406899 297.9937816588767 285.2307506464422 297.27510457579046 C285.2343821466943 274.65190364964474 285.2503059542862 252.02873474978924 285.2736095227301 229.40554609056562 C285.29819872622426 205.49057171803847 285.311918354066 181.57561770293353 285.3131206035614 157.66063004732132 C285.3140383161315 144.62267225797532 285.31981489446576 131.58475640829164 285.33794021606445 118.54681015014648 C285.35331708052666 107.44661249598806 285.35847591824603 96.34646974251626 285.35020211338997 85.24626346677542 C285.34628718131904 79.58065660295028 285.3472663233843 73.91516038225936 285.3612594604492 68.24956703186035 C285.3739476462449 63.06502723689434 285.3728456997529 57.880681803310566 285.3606687486172 52.696142472326756 C285.3587029248112 50.8186245181619 285.3618307854595 48.94109303330458 285.3705131113529 47.06359412521124 C285.381557618745 44.514278961523615 285.374151419914 41.96565556389335 285.36212158203125 39.41635990142822 C285.3697167754173 38.68505872040987 285.3773119688034 37.95375753939152 285.3851373195648 37.200295716524124 C285.32014599063456 30.83364268180034 283.73506430488953 26.37941967436749 279.67768478393555 21.44476890563965 C273.51594165400235 16.42939659057776 266.8160850148678 16.98992756617146 259.24799728393555 17.06195640563965 C258.686242980957 17.063371353149414 258.686242980957 17.063371353149414 255.84342575073242 17.070531845092773 C252.26723551775638 17.081695875159454 248.69129888748722 17.10679389925682 245.11518478393555 17.13226890563965 C242.68550090968944 17.14230357125404 240.25581309637596 17.15142857179284 237.82612228393555 17.15961265563965 C231.88072376175415 17.18162286784971 225.9354723968999 17.215063019750545 219.99018478393555 17.25726890563965 C219.85741134643558 17.99332359313965 219.7246379089355 18.72937828063965 219.58784103393555 19.48773765563965 C219.41123947143558 20.463557968139646 219.23463790893555 21.439378280639644 219.05268478393555 22.44476890563965 C218.87866134643554 23.40769859313965 218.70463790893552 24.37062828063965 218.52534103393555 25.36273765563965 C218.03781128733385 27.999668620835905 217.5234737324272 30.629259402712265 216.99018478393555 33.25726890563965 C217.5954801940918 33.26456016540527 217.5954801940918 33.26456016540527 220.65864181518555 33.30145835876465 C225.1652845969886 33.35958575482573 229.6714352782816 33.43681780586326 234.17768478393555 33.51972007751465 C236.12519446800053 33.55290155068896 238.0727987495402 33.580954480532 240.02045822143555 33.60370445251465 C242.82587993290326 33.63737524425085 245.6304400682033 33.689697177153676 248.43549728393555 33.74555015563965 C249.30135452270508 33.751940078735345 250.16721176147462 33.758330001831055 251.05930709838867 33.76491355895996 C256.0693319696348 33.88579302429311 259.7659076476178 34.2928305807916 263.99018478393555 37.25726890563965 C269.62049444056015 43.3686663088086 269.69465818608063 48.35101343697832 269.59145736694336 56.450246810913086 C269.59572949111464 57.677209940552714 269.60000161528586 58.90417307019234 269.60440319776535 60.16831690073013 C269.6112018062226 63.56211391978049 269.5956303747451 66.95446092416734 269.57051289081573 70.34808218479156 C269.5488800167862 74.01193248875802 269.5562303010684 77.67573962806254 269.5600242614746 81.33963584899902 C269.56264347847656 87.68351807693207 269.5469828764815 94.02714278041222 269.518835067749 100.3709602355957 C269.4781650152791 109.5429607470279 269.46517427916103 118.71483698893718 269.45889510959387 127.88691789656878 C269.44795741433626 142.76865818727697 269.41469748941097 157.65026128846378 269.36738204956055 172.53192710876465 C269.32147285805866 186.9863472192325 269.2860876105333 201.4407300405117 269.26484298706055 215.89520835876465 C269.26352936960757 216.7864809720963 269.2622157521546 217.677753585428 269.2608623281121 218.59603445976973 C269.25433704558753 223.06737708930643 269.24801852832707 227.53871998258268 269.2418028116226 232.01006305217743 C269.189986150902 269.09256280010743 269.1015629726842 306.1749029471905 268.99018478393555 343.25726890563965 C263.7101847839356 343.25726890563965 258.43018478393554 343.25726890563965 252.99018478393555 343.25726890563965 C252.66018478393556 246.56726890563965 252.33018478393552 149.87726890563965 251.99018478393555 50.25726890563965 C175.76018478393553 50.25726890563965 99.53018478393551 50.25726890563965 20.990184783935547 50.25726890563965 C20.990184783935547 116.83072862127946 20.990184783935547 116.83072862127946 25.638622283935547 122.14008140563965 C26.20838790893555 122.55000328063966 26.77815353393555 122.95992515563967 27.365184783935547 123.38226890563965 C30.756207888313725 126.00551319393219 33.24650718596976 128.95078564655267 35.99018478393555 132.25726890563965 C36.95955978393556 133.06164390563964 37.928934783935546 133.86601890563963 38.92768478393555 134.69476890563965 C41.856792891678026 137.1456552815058 44.13548968210472 139.65521277553285 46.56440353393555 142.57367515563965 C48.57254093093712 144.94492780798944 50.76721168931823 147.08722374184654 52.99018478393555 149.25726890563965 C54.32487935493111 150.5892396101638 55.6580993050319 151.92268888464068 56.99018478393555 153.25726890563965 C57.62955978393555 153.89664390563965 58.26893478393555 154.53601890563965 58.92768478393555 155.19476890563965 C60.35541930737185 156.62250342907595 61.78245651540027 158.05093548170203 63.20893478393555 159.47992515563965 C65.47493277447518 161.7427405647319 67.74684913280612 163.9991980082842 70.02143478393555 166.25336265563965 C71.51107457928282 167.7337745938476 73.00065654534853 169.21424472376256 74.49018478393555 170.69476890563965 C75.23655197143555 171.43275718688966 75.98291915893554 172.17074546813964 76.75190353393555 172.93109703063965 C79.90693938838032 176.07217254944527 83.01362005011237 179.18783375017546 85.83393478393555 182.63617515563965 C87.99018478393555 185.25726890563965 87.99018478393555 185.25726890563965 90.99018478393555 187.75726890563965 C94.0946488118463 190.3443222622319 96.41553202537898 193.15448224789202 98.99018478393555 196.25726890563965 C99.38205978393557 196.56664390563964 99.38205978393557 196.56664390563964 101.36518478393555 198.13226890563965 C104.4023116399294 200.59089540811084 106.76772807836551 203.35086473663324 109.30268478393555 206.31195640563965 C111.41883840759914 208.75141127736296 113.67832891309376 211.0032094315689 115.99018478393555 213.25726890563965 C117.15820253976494 214.4225829166639 118.32477462308754 215.58934708496224 119.49018478393555 216.75726890563965 C120.03674728393554 217.30383140563964 120.58330978393553 217.85039390563963 121.14643478393555 218.41351890563965 C126.7610181172688 224.0281022389729 132.3756014506023 229.6426855723064 137.99018478393555 235.25726890563965 C138.8358097839356 236.09129234313968 139.68143478393552 236.9253157806396 140.55268478393555 237.78461265563965 C142.79705175403234 240.06135030318978 144.90271588787107 242.3998200845972 146.99018478393555 244.81976890563965 C149.8020931407001 248.01535821575715 152.6582126542312 250.60877823843873 155.99018478393555 253.25726890563965 C157.80864971957465 255.2402817124851 159.5583204063601 257.2741629892803 161.31049728393555 259.31586265563965 C164.7084678749909 263.2432844783246 168.4545957288874 266.66782065673794 172.36518478393555 270.06976890563965 C175.98775986394207 273.2590791920241 179.1984142039134 276.59542288162316 182.28705978393555 280.30023765563965 C184.41045496300654 282.7401940425997 186.68783426106324 284.98557097848607 188.99018478393555 287.25726890563965 C192.65685145060218 290.92393557230633 196.32351811726892 294.590602238973 199.99018478393555 298.25726890563965 C200.8358097839356 299.0912923431396 201.68143478393552 299.92531578063966 202.55268478393555 300.78461265563965 C205.7446365110535 304.02260214805256 208.71532049843404 307.4344046075931 211.70893478393555 310.85492515563965 C213.98720527916043 313.25413124222064 216.4040035970042 315.20158642371985 218.99018478393555 317.25726890563965 C220.1918231282956 318.537828412447 221.36100942266933 319.8498784399806 222.49018478393555 321.19476890563965 C226.49358119131222 325.8596707279691 230.728130046979 330.03584459899673 235.36518478393555 334.06976890563965 C239.04487906881081 337.3093668640846 242.27863342009925 340.72234567365865 245.44721603393555 344.45648765563965 C247.50458159661997 346.8576155655068 249.72737107376184 349.04964577376285 251.99018478393555 351.25726890563965 C252.32276290893554 351.6008040618897 252.32276290893554 351.6008040618897 254.00580978393555 353.33930015563965 C254.3641691589355 353.70732749938963 254.3641691589355 353.70732749938963 256.17768478393555 355.56976890563965 C256.51477462768554 355.91846031188965 256.51477462768554 355.91846031188965 258.22065353393555 357.68305015563965 C259.9901847839355 359.25726890563965 259.9901847839355 359.25726890563965 261.99018478393555 359.25726890563965 C262.23768478393555 359.83476890563963 262.48518478393555 360.4122689056396 262.74018478393555 361.00726890563965 C264.1731846687107 363.5866686982349 265.7744315487788 365.3184848248775 267.99018478393555 367.25726890563965 C268.6501847839356 367.25726890563965 269.31018478393554 367.25726890563965 269.99018478393555 367.25726890563965 C267.901115137286 371.11765326886587 265.63219661635986 373.7227950199435 262.30268478393555 376.56976890563965 C261.89856369018554 376.91846031188965 261.89856369018554 376.91846031188965 259.85346603393555 378.68305015563965 C259.23858322143553 379.20254234313967 258.6237004089355 379.72203453063963 257.99018478393555 380.25726890563965 C255.02183946614832 378.93372099337955 253.06385622374023 377.5151222461609 250.86518478393555 375.13226890563965 C249.35737228393526 373.49945640563936 249.35737228393526 373.49945640563936 247.99018478393555 372.25726890563965 C247.33018478393552 372.25726890563965 246.67018478393555 372.25726890563965 245.99018478393555 372.25726890563965 C245.78691574096678 371.7280281829834 245.58364669799806 371.19878746032714 245.37421798706055 370.65350914001465 C243.38457264593046 367.20874480358987 240.67092627945237 364.69296871496374 237.84565353393555 361.91742515563965 C237.23885253906246 361.3134540557861 236.6320515441895 360.70948295593263 236.00686264038086 360.0872097015381 C234.06845771350783 358.1599735510968 232.12322684703713 356.23979724132704 230.17768478393555 354.31976890563965 C228.87969871327846 353.0318208961502 227.58216761210235 351.74341419862185 226.28510665893555 350.45453453063965 C223.89167838263955 348.0774062121587 221.49562164967028 345.70299811492976 219.09638595581055 343.33173179626465 C213.58519373672675 337.87880555363034 208.32401796273336 332.30631195863805 203.19721603393555 326.48773765563965 C202.46889572143556 325.7516829681397 201.74057540893557 325.01562828063965 200.99018478393555 324.25726890563965 C200.33018478393558 324.25726890563965 199.67018478393555 324.25726890563965 198.99018478393555 324.25726890563965 C198.99018478393555 323.5972689056396 198.99018478393555 322.93726890563966 198.99018478393555 322.25726890563965 C197.89341951760036 321.0919558101585 196.78469014743786 319.93619522668916 195.62690353393555 318.83148765563965 C194.37670315068613 317.6290276211539 193.15516216648388 316.3967006631799 191.94721603393555 315.15180015563965 C191.23952072143555 314.42347984313966 190.53182540893556 313.69515953063967 189.80268478393555 312.94476890563965 C189.12850509643556 312.24738609313965 188.45432540893557 311.55000328063966 187.75971603393555 310.83148765563965 C185.99018478393555 309.25726890563965 185.99018478393555 309.25726890563965 183.99018478393555 309.25726890563965 C183.74179855346677 308.6829109954834 183.49341232299804 308.1085530853272 183.23749923706055 307.51679039001465 C181.80281539108307 304.9178475451288 180.14700420407382 303.1876721939592 178.03315353393555 301.10492515563965 C177.25004806518552 300.32826499938966 176.46694259643556 299.55160484313967 175.66010665893555 298.75140953063965 C174.84090744018556 297.94896812438964 174.02170822143557 297.1465267181396 173.17768478393555 296.31976890563965 C172.37008712768557 295.52119468688966 171.56248947143558 294.72262046813967 170.73041915893555 293.89984703063965 C168.4870480923713 291.6821984824472 166.23952912218732 289.46885639249933 163.99018478393555 287.25726890563965 C160.7271221929119 284.0442672469748 157.6308262272937 280.7654386414622 154.61518478393555 277.31976890563965 C151.44843366272318 273.7690097581009 148.22523022956557 270.6264073566835 144.54487228393555 267.62445640563965 C142.96009666652117 266.2308095059034 141.68312630569397 264.77764931479146 140.36518478393555 263.13226890563965 C137.99018478393555 260.25726890563965 137.99018478393555 260.25726890563965 135.61518478393555 258.38226890563965 C132.565857011376 255.91376547071053 130.17073070120102 253.14429248685076 127.63862228393555 250.15961265563965 C126.14391876796395 248.43468229479095 124.698295526631 246.771919591842 122.99018478393555 245.25726890563965 C122.33018478393558 245.25726890563965 121.67018478393555 245.25726890563965 120.99018478393555 245.25726890563965 C120.72850509643558 244.66816734313966 120.4668254089355 244.07906578063967 120.19721603393555 243.47211265563965 C118.92595728560093 241.1394145640354 117.58787947155031 239.65372522434734 115.67768478393555 237.81976890563965 C115.04991134643558 237.20875328063966 114.42213790893555 236.59773765563966 113.77534103393555 235.96820640563965 C113.18623947143556 235.40359703063962 112.59713790893557 234.83898765563964 111.99018478393555 234.25726890563965 C108.71037773439446 231.0637725679286 105.64482194686798 227.74858123530987 102.61518478393555 224.31976890563965 C99.44843366272318 220.76900975810085 96.22523022956551 217.62640735668347 92.54487228393555 214.62445640563965 C90.96009666652122 213.23080950590344 89.68312630569395 211.77764931479143 88.36518478393555 210.13226890563965 C85.99018478393555 207.25726890563965 85.99018478393555 207.25726890563965 83.61518478393555 205.38226890563965 C80.57667801356223 202.92252532962317 78.21034664374389 200.1607321096739 75.67377853393555 197.19867515563965 C73.55871024676969 194.75972170152963 71.3007056467302 192.51143560104904 68.99018478393555 190.25726890563965 C68.32502853393555 189.57019859313965 67.65987228393556 188.88312828063965 66.97455978393555 188.17523765563965 C66.61620040893555 187.80721031188966 66.61620040893555 187.80721031188966 64.80268478393555 185.94476890563965 C64.12850509643556 185.24738609313965 63.454325408935546 184.55000328063966 62.75971603393555 183.83148765563965 C60.99018478393555 182.25726890563965 60.99018478393555 182.25726890563965 58.99018478393555 182.25726890563965 C58.73881759643555 181.67847984313966 58.48745040893556 181.09969078063966 58.22846603393555 180.50336265563965 C56.83425564343523 177.97443213659332 55.25228120317354 176.32296430088857 53.17768478393555 174.31976890563965 C52.511239471435545 173.67137046813966 51.84479415893554 173.02297203063964 51.15815353393555 172.35492515563965 C50.44272384643554 171.66269859313965 49.727294158935536 170.97047203063966 48.99018478393555 170.25726890563965 C44.62190178844622 165.96562245393085 40.554073314802594 161.45658707869455 36.49018478393555 156.87836265563965 C34.12897820408253 154.402785132075 31.66758463228848 152.37540924619518 28.990184783935547 150.25726890563965 C27.954581032854463 149.12208787080075 26.950085411131994 147.95714468963521 25.990184783935547 146.75726890563965 C24.21924029534557 144.62490717448028 22.67342159444459 143.00385835404688 20.490184783935547 141.25726890563965 C17.66091534721997 138.99385335626718 15.571367851224181 136.47268616165388 13.322216033935547 133.64789390563965 C13.10243087768555 133.41844078063966 13.10243087768555 133.41844078063966 11.990184783935547 132.25726890563965 C11.33018478393555 132.25726890563965 10.670184783935554 132.25726890563965 9.990184783935547 132.25726890563965 C9.72205978393555 131.43226890563966 9.453934783935551 130.60726890563964 9.177684783935547 129.75726890563965 C7.990184783935547 126.25726890563965 7.990184783935547 126.25726890563965 6.440868377685547 123.08588218688965 C3.894517767114621 116.26568279660887 4.560375977044259 108.67798797388556 4.591747283935547 101.49945640563965 C4.589723492624898 99.86616447766079 4.586809516033952 98.2328734339186 4.583049774169922 96.59958457946777 C4.578643270806737 93.18867896997638 4.585004865241785 89.77801013384726 4.599071502685547 86.36713218688965 C4.6161898015649285 82.00481902245771 4.606295107050528 77.64305860528822 4.588354110717773 73.28076553344727 C4.5774940531139805 69.91263249297131 4.580972303327599 66.5446297348073 4.588737487792969 63.17649269104004 C4.590731946770632 61.56820293346644 4.588306827483734 59.959901168283196 4.581298828125 58.35162544250488 C4.573644391202379 56.1022452500313 4.5853419653747665 53.853751366081326 4.602001190185547 51.60443687438965 C4.604387969970702 50.32728813171386 4.606774749755857 49.050139389038094 4.609233856201172 47.73428916931152 C5.028651463412132 43.90617532828119 5.9668059334950385 41.51726916420321 7.990184783935547 38.25726890563965 C13.501256540604032 34.06294761639492 18.0741831206729 33.65734231629523 24.861278533935547 33.64789390563965 C25.78360778808593 33.63135765075684 26.705937042236314 33.61482139587403 27.65621566772461 33.5977840423584 C30.580107733691136 33.54949443941172 33.50348041733443 33.52797549893134 36.42768478393555 33.50726890563965 C38.41924710470522 33.47909329430426 40.41078543172574 33.449163650101056 42.40229415893555 33.41742515563965 C47.26488157649169 33.34374058521597 52.127183880195446 33.294049769226646 56.99018478393555 33.25726890563965 C56.99018478393555 32.59726890563965 56.99018478393555 31.937268905639655 56.99018478393555 31.25726890563965 C56.33018478393555 31.25726890563965 55.670184783935554 31.25726890563965 54.99018478393555 31.25726890563965 C54.66018478393556 28.947268905639646 54.66018478393556 28.947268905639646 52.99018478393555 17.25726890563965 C45.855198033816464 17.1829500970144 38.72043810755673 17.12858615034385 31.585155487060547 17.09247398376465 C29.159334293168854 17.077414817418486 26.733540201013 17.056963281529264 24.307811737060547 17.03095054626465 C20.815149165141605 16.99444187826549 17.322847532655715 16.977513372309474 13.830028533935547 16.96430015563965 C13.290311660766605 16.956558227539063 13.290311660766605 16.956558227539063 10.559017181396484 16.91737937927246 C3.7404776969348177 16.915865426724736 -1.6027493423065664 17.332078882552707 -6.970752716064453 21.94086265563965 Z " fill="#FEFEFE" transform="translate(164.00981521606445,34.74273109436035)"/>
<path d="M0 0 C3.543221099821011 1.5024542985635492 5.770715241495282 3.562522649375552 8.4375 6.3125 C9.1787109375 7.07175781250001 9.919921875 7.831015624999992 10.68359375 8.61328125 C11.448007812500009 9.40089843749999 12.21242187499999 10.188515625000008 13 11 C14.664411178112914 12.66896994733554 16.3313795792846 14.335244278813718 18 16 C18.645752727985382 16.644496906995784 19.291505455970764 17.28899381399154 19.95682644844055 17.953020930290222 C22.39593025515603 20.387113316207632 24.835358606715317 22.82088017279824 27.274810791015625 25.254623413085938 C29.223701856521956 27.1990886187954 31.172559309898247 29.143587511083325 33.12141418457031 31.088088989257813 C33.636319665685306 31.601841792725025 34.15122514680027 32.11559459619224 34.68173382431269 32.64491566643119 C58.389934064191436 56.300180276394826 82.0904485042256 79.96313011661067 105.78513095527887 103.631934966892 C109.20728259290343 107.05033498978702 112.62949990261393 110.46866926009011 116.0517578125 113.886962890625 C116.39237598441542 114.2271875968948 116.39237598441542 114.2271875968948 118.1161103695631 115.94893080741167 C129.16412283316072 126.98386925781102 140.21742131108755 138.0134984035003 151.27265758812428 149.04119919985533 C162.62483594943456 160.36533825763797 173.97132587654016 171.69515351279972 185.31253945827484 183.0302739739418 C192.3074766582332 190.02109401626183 199.30682498825763 197.00743677090452 206.3118740171194 203.9881246164441 C211.10969476183186 208.77010635421783 215.90198692242825 213.55758240158383 220.68994404375553 218.34943991154432 C223.4530732241692 221.1144930198795 226.21859482328222 223.87703795502716 228.9907054901123 226.63308906555176 C231.5285233676119 229.15631135924622 234.05931788780475 231.68636336156112 236.58471350371838 234.22201681882143 C237.9322640385874 235.5714354811402 239.2872179003441 236.91344853411283 240.64242327213287 238.25517934560776 C250 247.6825725324543 250 247.6825725324543 250 253 C250.66000000000003 253 251.32 253 252 253 C252.85526154197618 256.7278233079729 253.15087266687812 260.2189498393153 253.208740234375 264.040283203125 C253.2280308532715 265.2353498840332 253.24732147216798 266.4304165649414 253.26719665527344 267.6616973876953 C253.3251661658523 273.107690387615 253.3744744089649 278.55353913276696 253.405029296875 283.999755859375 C253.42283621066713 286.87000269435975 253.4576569537254 289.7392658785546 253.507568359375 292.609130859375 C253.56801890329808 296.09041496204776 253.59853655176858 299.57078839516225 253.60820198059082 303.0525722503662 C253.62082481656864 305.00909688645396 253.66280908497572 306.9653619100236 253.70542907714844 308.9214630126953 C253.68992378735032 315.6529255860121 253.2402096860393 320.1763890168545 248.87660217285156 325.4474334716797 C243.22195770052116 330.1256822045751 238.1248593856534 330.4349376152495 231.10708618164063 330.3944091796875 C230.1153009355068 330.4005002832413 229.123515689373 330.40659138679507 228.10167634487152 330.4128670692444 C224.78072098250107 330.4295066030345 221.46014863810956 330.42471978445747 218.13916015625 330.419921875 C215.75719300719788 330.42726163075804 213.3752294193971 330.43584758432985 210.99327087402344 330.4455871582031 C205.19609471139302 330.46551244406123 199.39903668653886 330.47118322188317 193.60182882845402 330.46939927339554 C188.8885458985892 330.4680905793407 184.17529412723923 330.47190125109887 179.46201705932617 330.4793243408203 C178.10328591122664 330.48142358412485 176.74455476058796 330.48352118455705 175.38582360744476 330.4856171607971 C175.0476616045088 330.48613892465823 175.0476616045088 330.48613892465823 173.33635692298412 330.4887793660164 C160.55104705441062 330.5076733122055 147.76579458715912 330.5066341509589 134.9804765433073 330.4998100399971 C123.29145927036257 330.4942352671917 111.60266121733798 330.51505857348184 99.91369517147541 330.5481705069542 C87.903675918099 330.5819271300576 75.89376162259475 330.59707339223337 63.88369405269623 330.59245347976685 C57.144067681567066 330.5902107603649 50.40464391534172 330.5954228115145 43.66505813598633 330.62034606933594 C37.32677122641783 330.6425920764707 30.98894084033691 330.64075256904835 24.650651931762695 330.620418548584 C22.325470823140165 330.6170047666873 20.000259110090894 330.6221133067314 17.675119400024414 330.63640213012695 C14.498507069782704 330.6545753260342 11.323446606151435 330.6418583966313 8.146881103515625 330.6214599609375 C7.228776117563257 330.6339778089523 6.31067113161086 330.6464956569671 5.364744782447815 330.6593928337097 C-0.897789412333907 330.5732953451128 -5.264384570742294 329.20797195101557 -10 325 C-14.183062704092606 319.6257431707602 -13.423832600579942 313.1161910765977 -13.3944091796875 306.6057891845703 C-13.400500283241286 305.3450452059507 -13.406591386795043 304.08430122733114 -13.412867069244385 302.7853528857231 C-13.429255531357882 299.2929491450823 -13.426951021653878 295.80077130631895 -13.421492099761963 292.3083425760269 C-13.418820677080362 288.53941115305804 -13.433355445112682 284.77053978543677 -13.445587158203125 281.0016326904297 C-13.466635535918073 273.62196752414053 -13.471182471501919 266.24238093123665 -13.469399273395538 258.862689293921 C-13.46809185427108 252.86694781667757 -13.471894728141734 246.8712308649594 -13.479324340820313 240.8754940032959 C-13.481423500219307 239.1487726190681 -13.48352110109417 237.4220512329449 -13.48561716079712 235.69532984495163 C-13.486660688519464 234.83593275688588 -13.487704216241838 233.97653566882013 -13.488779366016388 233.0910962447524 C-13.507677837191181 216.84131370962893 -13.506632152607438 200.59157633204825 -13.4998100399971 184.34178736060858 C-13.494229377353605 169.4646474234538 -13.515082936486635 154.58767941237124 -13.548170506954193 139.71057967096567 C-13.581869169507996 124.44050281236002 -13.597080995775144 109.17050842331889 -13.592453479766846 93.90039366483688 C-13.590205615124859 85.32491312357303 -13.595498713772002 76.74959167322402 -13.620346069335938 68.17414283752441 C-13.64130938050073 60.8770594871238 -13.645000477970228 53.58022254853961 -13.626046478748322 46.28312925249338 C-13.616859361002781 42.55808566156759 -13.61583563110733 38.83350213651349 -13.636402130126953 35.10849380493164 C-13.658418881635669 31.076386894261248 -13.641968835521197 27.045374225445272 -13.6214599609375 23.013259887695313 C-13.633977808952324 21.827679055333135 -13.646495656967176 20.642098222970958 -13.659392833709717 19.420590698719025 C-13.65349016427993 18.883011303842068 -13.65349016427993 18.883011303842068 -13.623619079589844 16.1625337600708 C-13.623891463279733 15.231294463276868 -13.624163846969594 14.300055166482935 -13.624444484710693 13.340596497058868 C-13 11 -13 11 -10.625086307525635 9.298435389995575 C-9.758807826042187 8.869951711297034 -8.89252934455871 8.441468032598493 -8 8 C-4.759711474590603 5.608358469340686 -2.264458704677253 3.3370970384717396 0 0 Z M-12 12 C-11 14 -11 14 -11 14 Z M-6 20 C-5.6699999999999875 20.659999999999997 -5.340000000000003 21.319999999999993 -5 22 C-4.340000000000003 21.670000000000016 -3.680000000000007 21.340000000000003 -3 21 C-3.990000000000009 20.670000000000016 -4.97999999999999 20.340000000000003 -6 20 Z M4 29 C4 122.72000000000003 4 216.44 4 313 C80.23000000000002 313 156.46000000000004 313 235 313 C235 260.0241760595318 235 260.0241760595318 229.0552380681038 252.55729341506958 C228.37076466500758 251.87379682064056 227.68629126191138 251.19030022621155 226.98107624053955 250.48609161376953 C226.18648134529587 249.6829158258438 225.39188645005225 248.87974003791805 224.57321292161942 248.0522255897522 C223.7061920922995 247.19617400646212 222.8391712629795 246.34012242317203 221.9458770751953 245.4581298828125 C221.02028210818764 244.52841165065763 220.09468714118003 243.59869341850282 219.14104384183884 242.6408019065857 C216.5841694054874 240.07308797897474 214.01505159565784 237.51794502176142 211.44368088245392 234.964759349823 C208.66822511421907 232.2045631170531 205.90437373129691 229.4327886870106 203.13905334472656 226.66244506835938 C197.72650524072014 221.2436804176084 192.3034346816363 215.83556625239203 186.87679771333933 210.43091505765915 C180.56068532695235 204.13950991847003 174.25548918273137 197.837211854496 167.95082088559866 191.53434199094772 C156.70708015354785 180.2944750972381 145.45407846426525 169.06392683854926 134.195556640625 157.8388671875 C123.26216574049909 146.93794573774903 112.33441538192568 136.03141420616748 101.413330078125 125.1181640625 C100.73988537468017 124.44520484983923 100.06644067123534 123.7722456371784 99.37258855253458 123.07889372110367 C96.6659304991444 120.37416423341614 93.95928065999993 117.66942652613392 91.25264917686582 114.96467044949532 C80.85250647957537 104.5720501635169 70.44831371043739 94.1834849682349 60.04326197877526 83.79577985405922 C56.897161858061764 80.65492123305262 53.75121608278209 77.51390836850146 50.605642557144165 74.37252235412598 C43.99325738963239 67.7690425017629 37.37946261612632 61.1669868771674 30.761075772345066 54.569521605968475 C28.023563946432205 51.84063057771522 25.286831083249467 49.110970789641954 22.552215576171875 46.37917709350586 C19.595266537984003 43.42536886298643 16.634456492063094 40.475462752359874 13.673171997070313 37.5260009765625 C12.799459002614014 36.652103619575485 11.925746008157716 35.7782062625885 11.025556862354279 34.877827167510986 C10.2387852090597 34.095513358116136 9.452013555765149 33.313199548721315 8.641400337219238 32.507179260253906 C7.957413991093631 31.824981484413144 7.273427644968024 31.14278370857238 6.568714439868927 30.439913272857666 C5 29 5 29 4 29 Z " fill="#BC02F6" transform="translate(181,202)"/>
<path d="M0 0 C0.9217652893066486 -0.01664199829102131 1.8435305786132972 -0.03328399658202841 2.7932281494140625 -0.0504302978515625 C4.731899301815247 -0.07560731253713016 6.670784679516743 -0.08747716413543571 8.609619140625 -0.086669921875 C11.55785826533463 -0.09762448884815456 14.496770167034185 -0.18853260467396638 17.443359375 -0.283203125 C31.200316828534056 -0.4862465199947792 31.200316828534056 -0.4862465199947792 36.3095703125 3.02685546875 C38.671875 5.710937500000014 38.671875 5.710937500000014 40.442138671875 8.392333984375 C43.14330823441384 12.311747049138631 46.9493510783272 13.82560029377214 51.12890625 15.83984375 C52.11890625000001 16.499843749999997 53.10890625000002 17.159843749999993 54.12890625 17.83984375 C34.988906250000014 17.83984375 15.848906249999999 17.83984375 -3.87109375 17.83984375 C-3.782368076431794 25.778456648207083 -3.6918085945516737 33.71668400794529 -3.58380126953125 41.654998779296875 C-3.534015568440765 45.35231922792852 -3.487526402220169 49.04961161214973 -3.44921875 52.7470703125 C-3.4121394766497417 56.31336958403665 -3.365720807248209 59.87943981303653 -3.313030242919922 63.44554138183594 C-3.285685657266214 65.45714786497535 -3.26782542850961 67.46887611885069 -3.250152587890625 69.4805908203125 C-3.1474056748821795 75.89620597235944 -2.964852669771801 81.74158951195233 -0.87109375 87.83984375 C1.015625 89.07421875 1.015625 89.07421875 3.12890625 89.83984375 C5.0234375 91.79296875 5.0234375 91.79296875 6.94140625 94.08984375 C9.935132327205594 97.56768538244143 12.996489842730114 100.53757090867475 16.5390625 103.4375 C18.135173241897462 104.84537163720194 19.425437016356454 106.30529184130512 20.75390625 107.96484375 C23.12890625 110.83984375 23.12890625 110.83984375 25.50390625 112.71484375 C28.486655871622958 115.12945058655191 30.81789639260245 117.81522592388922 33.28515625 120.7421875 C35.462665814892944 123.21956596683793 37.780443862382725 125.52711726406949 40.12890625 127.83984375 C43.31979068898369 131.00311264168113 46.50581989060109 134.17124071468012 49.69140625 137.33984375 C50.54154296874998 138.1816015625 51.391679687500016 139.023359375 52.267578125 139.890625 C53.08935546875 140.7091796875 53.9111328125 141.527734375 54.7578125 142.37109375 C55.50103759765625 143.10908203125 56.2442626953125 143.8470703125 57.010009765625 144.607421875 C59.20111083153034 146.9159168797976 61.15454886305332 149.34547697291978 63.12890625 151.83984375 C64.2640872848389 152.87544750108108 65.42903046600443 153.87994312280355 66.62890625 154.83984375 C69.55206221079311 157.26649763677307 71.7617816571751 159.86184829451057 74.12890625 162.83984375 C75.59718623700405 164.05277069578597 77.0664431798254 165.2647787796087 78.5546875 166.453125 C80.86878181638701 168.49159517944761 82.73594104252749 170.8524816083363 84.69921875 173.22265625 C86.12890625000006 174.83984375000006 86.12890625000006 174.83984375000006 88.56640625 176.77734375 C91.53071936853053 179.16325430881727 93.83852980557873 181.83970376994364 96.28515625 184.7421875 C99.34981133684931 188.22888195262303 102.70248187933714 191.42449742222436 106.0234375 194.6640625 C106.99611821459729 195.61846465083306 107.9687743333584 196.57289186918342 108.94140625 197.52734375 C109.192451171875 197.770009765625 109.192451171875 197.770009765625 110.462890625 198.998046875 C111.72307897847963 200.24108980870437 112.93081668758123 201.5368426672294 114.12890625 202.83984375 C114.12890625 203.49984374999997 114.12890625 204.15984375 114.12890625 204.83984375 C114.708984375 205.08089843749997 115.2890625 205.321953125 115.88671875 205.5703125 C118.55300283653037 207.0799681239066 120.04063879848911 208.80667279889758 122.00390625 211.15234375 C124.29635577476336 213.81413236486412 126.49164230700433 216.2913781738008 129.25390625 218.46484375 C132.13825811023582 220.84756919976002 134.32220695427782 223.35253161360822 136.6953125 226.21875 C138.12890625 227.83984375 138.12890625 227.83984375 140.62890625 229.83984375 C143.36884699478867 232.03179634583097 145.42443775235267 234.4330570772471 147.6640625 237.1171875 C149.68848371526303 239.49790684914933 151.89269272047522 241.65817201387824 154.12890625 243.83984375 C155.2969208837348 245.00516089035432 156.4634988015182 246.17191922279574 157.62890625 247.33984375 C158.17546875 247.88640625 158.72203125 248.43296875 159.28515625 248.99609375 C160.69661518392513 250.40755268392513 162.10647425267632 251.8206116479388 163.515625 253.234375 C165.2682913090386 254.98180164892187 167.03149674260737 256.7187165362323 168.8046875 258.4453125 C169.6748046875 259.2973828125 170.544921875 260.149453125 171.44140625 261.02734375 C172.3244140625 261.8871484375 173.20742187500002 262.746953125 174.1171875 263.6328125 C176.12890625 265.83984375 176.12890625 265.83984375 176.12890625 267.83984375 C176.698671875 268.0705859375 177.2684375 268.301328125 177.85546875 268.5390625 C180.70428393284976 270.1690546922491 182.37411913850258 272.1601191826864 184.50390625 274.65234375 C189.36810759846725 280.2091564197711 189.36810759846725 280.2091564197711 192.31640625 282.52734375 C195.1668660651606 284.8710551535765 197.35722203835485 287.34053824196235 199.7109375 290.16015625 C203.12643744023757 294.20606527011614 207.04582614630135 297.6546445647074 211.00390625 301.15234375 C214.84677167159475 304.5840853820631 218.2924167439918 308.14103797017214 221.6171875 312.0703125 C223.6610023638417 314.4626849375201 225.87671622412273 316.64395847476965 228.12890625 318.83984375 C229.2969240058294 320.00515776102424 230.463496089152 321.1719219293226 231.62890625 322.33984375 C232.22445312499997 322.9341015625 232.82 323.528359375 233.43359375 324.140625 C234.88313688820756 325.5935080993555 236.31986451538353 327.05915816455934 237.75390625 328.52734375 C240.09893111468637 330.8106574340367 242.538843161704 332.84179508188595 245.12890625 334.83984375 C244.726641675745 339.25443959054235 241.72503500348762 341.3768143088022 238.56640625 344.08984375 C238.04626953125 344.54875 237.5261328125 345.00765625 236.990234375 345.48046875 C235.7099506954641 346.60805804573806 234.42031827157973 347.7250168977631 233.12890625 348.83984375 C230.12799098862206 347.46913744435955 227.79598375048693 345.88636783392946 225.31640625 343.71484375 C224.6912109375 343.176015625 224.06601562499998 342.6371875 223.421875 342.08203125 C221.52917173293474 340.2312447503484 219.84094096905602 338.36781774626456 218.125 336.359375 C213.05534838665892 330.4973149448892 207.5023235734168 325.1067803734257 202.00390625 319.65234375 C200.92163915703685 318.5751066840056 199.83960639238705 317.49763414237805 198.7578125 316.419921875 C196.76950370974453 314.4397012108176 194.77961258988012 312.4611236288518 192.78857421875 310.483642578125 C191.9108837890625 309.61118896484373 191.033193359375 308.7387353515625 190.12890625 307.83984375 C189.23985595703124 306.9567553710938 188.35080566406248 306.0736669921875 187.434814453125 305.163818359375 C184.1827600950055 301.88628469765564 181.16686474447351 298.4140621403599 178.1171875 294.94921875 C176.12890625 292.83984375 176.12890625 292.83984375 174.12890625 291.83984375 C174.12890625 291.17984375 174.12890625 290.51984375 174.12890625 289.83984375 C173.5604296875 289.6091015625 172.991953125 289.378359375 172.40625 289.140625 C169.54903650372216 287.5086316993816 167.84171252618387 285.5130530848607 165.69140625 283.02734375 C162.61601929558424 279.4919858771846 159.46581221371014 276.1298171403809 156.12890625 272.83984375 C154.71137539357483 271.42404180058355 153.2948039505082 270.00727896565695 151.87890625 268.58984375 C151.10546875 267.81640625 150.33203125 267.04296875 149.53515625 266.24609375 C142.37890625000978 259.0898437500098 142.37890625000978 259.0898437500098 140.133544921875 256.84228515625 C138.5292603014217 255.23975897710523 136.9181037039399 253.64411343480373 135.3046875 252.05078125 C133.21179986790298 249.92407676208813 131.2580721281837 247.72943932160797 129.31640625 245.46484375 C126.06769613982885 241.7678239270831 122.62621931255853 238.5652014720825 118.87109375 235.39453125 C116.66315269110066 233.42421613465933 114.95955817819572 231.15866952571457 113.12890625 228.83984375 C111.6812592124852 227.6495561858212 110.23264187548256 226.46028994514637 108.76953125 225.2890625 C106.17868572815752 223.00048228903916 104.01604402734483 220.3658905614035 101.7734375 217.7421875 C99.67369034969244 215.31326383681755 97.42629478435282 213.0825325573444 95.12890625 210.83984375 C93.62753199525423 209.34121926495158 92.12766913722862 207.84107984331314 90.62890625 206.33984375 C88.28644883420606 203.99352726103336 85.93958643719981 201.65514149360956 83.56640625 199.33984375 C81.3911440447032 197.10880559072126 79.35899437767063 194.8161951992953 77.31640625 192.46484375 C74.0676961398288 188.76782392708307 70.62621931255853 185.5652014720825 66.87109375 182.39453125 C64.66315269110069 180.42421613465936 62.95955817819572 178.15866952571457 61.12890625 175.83984375 C59.66062626299595 174.62691680421403 58.1913693201746 173.4149087203913 56.703125 172.2265625 C54.38903068361304 170.18809232055244 52.52187145747246 167.82720589166365 50.55859375 165.45703125 C49.12890625 163.83984375 49.12890625 163.83984375 46.69140625 161.90234375 C43.66986020773615 159.47036766720228 41.32590608659615 156.7160087952968 38.80859375 153.77734375 C36.694573703220925 151.33884620766878 34.43820315381231 149.09415739419774 32.12890625 146.83984375 C30.62753199525423 145.34121926495158 29.127669137228622 143.84107984331314 27.62890625 142.33984375 C25.307255679149534 140.01437467492116 22.981716220102783 137.6963334708502 20.62890625 135.40234375 C18.231485395906873 132.94498737455453 15.96653033433256 130.41024184194978 13.69140625 127.83984375 C11.208982848769807 125.05689479605041 8.798436878256922 122.41339784173937 5.87890625 120.08984375 C2.8515136392468605 117.61288615938378 0.6290155268068816 114.83997488216826 -1.87109375 111.83984375 C-2.861093750000009 111.01484375000001 -3.8510937499999898 110.18984375 -4.87109375 109.33984375 C-8.044124217614723 106.69565169365438 -10.280993566715182 104.0433887135365 -12.87109375 100.83984375 C-13.534311370849622 100.21587203979493 -14.197528991699215 99.59190032958986 -14.880844116210938 98.94902038574219 C-22.413980759640936 90.96574254339095 -21.447223919944804 79.01555101578163 -21.3671875 68.7890625 C-21.36734280858829 67.16005895521093 -21.36883704613635 65.53105504666902 -21.371597290039063 63.90205383300781 C-21.37297319573554 60.50899674545762 -21.36055336630659 57.11636656413705 -21.337646484375 53.723388671875 C-21.30915004035967 49.3846773983023 -21.312040621370727 45.04666804475792 -21.32473659515381 40.70790386199951 C-21.331701754193517 37.35262596073312 -21.323896867342256 33.997509272462906 -21.311479568481445 30.64225196838379 C-21.306981186042123 29.04234243962759 -21.3066140955535 27.442415525085664 -21.310544967651367 25.842504501342773 C-21.313468467423206 23.60777797235704 -21.296901495164064 21.374009414630592 -21.275146484375 19.139404296875 C-21.26974349975586 17.871304168701172 -21.264340515136723 16.603204040527345 -21.258773803710938 15.296676635742188 C-20.749163998494993 10.752630800253641 -19.48565272068288 7.410822920313535 -16.175155639648438 4.1896820068359375 C-10.771324348983114 0.8102366290075338 -6.3181619748346804 0.04035938943950157 0 0 Z " fill="#BC02F6" transform="translate(188.87109375,67.16015625)"/>
<path d="M0 0 C0.8843925476074332 0.033107757568359375 1.7687850952148665 0.06621551513671875 2.6799774169921875 0.1003265380859375 C3.1368569183349564 0.11069694519042628 3.1368569183349564 0.11069694519042628 5.448944091796875 0.163177490234375 C7.383403599834878 0.21178728705018557 9.317632620203028 0.27044912741413896 11.251510620117188 0.3383636474609375 C14.200901401897966 0.439414995419412 17.1494084990307 0.5037980704893243 20.099899291992188 0.5632171630859375 C21.980820406599094 0.6150600794827881 23.861684396216162 0.6690278671003256 25.742477416992188 0.7253265380859375 C26.62079727172852 0.7442646789550764 27.499117126464853 0.7632028198242153 28.404052734375 0.78271484375 C34.228151475746586 1.0120017307186941 38.617258107830025 1.6414246632060099 42.967924654483795 5.903397738933563 C47.949414096623286 11.797622077508862 48.25480625368505 16.665548251509307 48.138702392578125 24.19927978515625 C48.144534507393814 25.374417039752004 48.15036662220956 26.549554294347757 48.15637546777725 27.760301768779755 C48.166452805012455 31.00517227244103 48.149748348818605 34.24860520187866 48.12149894237518 37.49332678318024 C48.097566694186355 40.99923390603382 48.108451583347744 44.50505816843096 48.114990234375 48.011016845703125 C48.122390957373 54.87322329139204 48.098092143040105 61.73496845220575 48.06338929384947 68.5970766916871 C48.02432833187743 76.59535312843121 48.018489336849086 84.59355105670392 48.01440919190645 92.59190925210714 C48.00615964570352 106.86931177261897 47.97040833121514 121.14650946249321 47.91801452636719 135.42381286621094 C47.8672756161252 149.26268127176405 47.8318353939988 163.10146132851273 47.81547546386719 176.94041442871094 C47.81496999498455 177.36638118047267 47.81496999498455 177.36638118047267 47.81241201609373 179.52203110605478 C47.8083916060566 182.9469565196916 47.80442916338973 186.37188199306314 47.80055555328727 189.7968075759709 C47.78349671511421 204.59733556416427 47.75510940248387 219.39784574142823 47.72401633858681 234.198350161314 C47.719031015326834 236.58897016785397 47.71422495280933 238.97959049190405 47.70942950248718 241.3702108860016 C47.690800127162845 250.45890813431788 47.66616102892067 259.5475599374477 47.63331413269043 268.63621711730957 C47.6235318788531 271.3874628049557 47.615937283963035 274.1386999913617 47.61040115356445 276.8899574279785 C47.601899466465056 280.65170757021207 47.587297419834044 284.41338616877374 47.571075439453125 288.17510986328125 C47.56989556252955 289.2582047587633 47.56871568560598 290.3412996542454 47.56750005483627 291.4572156071663 C47.530136467334614 298.15484092062775 47.09957919923522 304.71456923238304 46.41044616699219 311.37767028808594 C41.130446166992215 311.37767028808594 35.850446166992185 311.37767028808594 30.410446166992188 311.37767028808594 C29.428766309480977 308.4326307155523 29.286074202646944 306.5475116760398 29.28739833831787 303.47948932647705 C29.285407289862633 302.463331463933 29.283416241407394 301.44717360138895 29.281364858150482 300.40022307634354 C29.282821278870074 299.8404048356414 29.282821278870074 299.8404048356414 29.290191650390625 297.00738525390625 C29.28933722555638 295.82059179484844 29.288482800722136 294.63379833579063 29.287602484226227 293.41104143857956 C29.286237297084995 290.11134107062264 29.289373459025796 286.81169965745187 29.29438054561615 283.5120064020157 C29.29869046335608 279.95578868713994 29.297238235316627 276.3995728625131 29.296478271484375 272.8433532714844 C29.295953381374147 266.6801186020438 29.299096547611157 260.5168945017245 29.304716110229492 254.35366249084473 C29.312835820652424 245.44261381603258 29.31544681538969 236.53157026289057 29.316704101860523 227.62051828950644 C29.31889387709765 213.16367087460821 29.32555195575162 198.70682909529296 29.335006713867188 184.24998474121094 C29.34418274883376 170.2047376326827 29.351262648456668 156.15949205368327 29.355514526367188 142.11424255371094 C29.355777249857795 141.24880200661718 29.356039973348402 140.38336145952343 29.356310658156872 139.49169544130564 C29.35761567552015 135.1501266903857 29.358879388339744 130.80855792861223 29.360122561454773 126.46698915958405 C29.3704928601652 90.43721119737711 29.388929925833168 54.40744365657005 29.410446166992188 18.377670288085938 C10.270446166992201 18.377670288085938 -8.869553833007785 18.377670288085938 -28.589553833007813 18.377670288085938 C-27.599553833007803 18.04767028808594 -26.609553833007794 17.71767028808594 -25.589553833007813 17.377670288085938 C-25.589553833007813 16.71767028808594 -25.589553833007813 16.057670288085944 -25.589553833007813 15.377670288085938 C-25.021077270507817 15.170131225585934 -24.45260070800782 14.96259216308593 -23.866897583007813 14.748764038085938 C-17.502085586926967 12.209214677379222 -11.667917750902632 8.665889514399083 -8.574661254882813 2.2836761474609375 C-5.795127616456284 -0.3851000319998974 -3.7462033352434787 -0.048532673909846835 0 0 Z " fill="#BC02F6" transform="translate(386.5895538330078,66.62232971191406)"/>
</svg>
