<?xml version="1.0" encoding="UTF-8"?>
<!-- Generator: visioncortex VTracer 0.6.12 -->
<svg version="1.1" xmlns="http://www.w3.org/2000/svg" width="600" height="600">
<path d="M0 0 C1.5954190522149077 -0.007362339995225398 3.1908264013096357 -0.017776757000675047 4.7862080335617065 -0.030952632427215576 C9.141170902254856 -0.058087625164077394 13.495032506319433 -0.04193809909581603 17.84997534751892 -0.0182572603225708 C22.55762794137007 -0.0002949839607992999 27.265116533074803 -0.022804598328519887 31.972747802734375 -0.0400390625 C41.182884760194156 -0.06726151618087783 50.39260968296355 -0.056904406018588816 59.60274161398411 -0.033125557005405426 C67.08905216986932 -0.01455893371962702 74.57525009936205 -0.010083803069576902 82.06158065795898 -0.015615463256835938 C83.12835698865354 -0.016399371586743428 84.19513331934809 -0.017183279916650918 85.29423620551825 -0.017990943044424057 C87.4615625139017 -0.019656771434839015 89.62888879343495 -0.02136055841731377 91.79621504247189 -0.023101888597011566 C112.10181317677845 -0.037877681190849444 132.4071853814571 -0.010574209118416888 152.71273408830166 0.03171656280755997 C170.1278994940539 0.06708570456724772 187.5427952466435 0.06866540612313088 204.95797729492188 0.0449981689453125 C225.195573221494 0.017523173876696774 245.43301665588245 0.009292124222511688 265.67062270641327 0.032933056354522705 C267.82922162534913 0.035414478607251 269.98782056499937 0.03787794780357956 272.1464195251465 0.04032325744628906 C273.2084191147238 0.041543898247184075 274.2704187043011 0.04276453904807909 275.3646000996232 0.04402216896414757 C282.84110988389955 0.05134880182828283 290.31753824672046 0.04513960992592558 297.79404067993164 0.03381919860839844 C306.9064420996922 0.02046745067907807 316.01852248287435 0.028773165641638343 325.1308683305979 0.06455572694540024 C329.77831859969626 0.08228931326451061 334.42525788346006 0.0905370524626079 339.0727195739746 0.07271575927734375 C343.3303428868733 0.056674959107283485 347.586960378071 0.06851986418216427 351.84447191655636 0.1022520437836647 C353.381278432129 0.10962479076972897 354.91817393796885 0.10698709647839166 356.45493544638157 0.09310581535100937 C367.424392424629 0.002068213244655226 374.3512544124285 2.0294441738373763 382.7201843261719 9.257156372070313 C390.36179730706215 18.172371516442325 393.27218479787575 24.431334095769387 393.2486572265625 36.28446960449219 C393.2544496285916 37.33090200543404 393.2602420306206 38.377334406375894 393.2662099599838 39.45547688007355 C393.28321125640696 42.96085312103892 393.28608662173895 46.46609770570433 393.2890319824219 49.97151184082031 C393.29833005061687 52.48468346036992 393.3084985392313 54.9978519886472 393.31947326660156 57.511016845703125 C393.341139623014 62.92117805564354 393.35675075175504 68.33130280829675 393.3668403625488 73.74149703979492 C393.3814386309309 81.56367372350917 393.4069786631725 89.38578472925991 393.43517164886 97.20792283117771 C393.48061879110946 109.89944681529994 393.51724218270783 122.59098026557643 393.5483093261719 135.2825469970703 C393.57850338010326 147.6097123400757 393.6128575815237 159.93685453624323 393.6528015136719 172.2639923095703 C393.65403228797015 172.64404607526956 393.65403228797015 172.64404607526956 393.66026075184345 174.56734846532345 C393.6726355199096 178.38066305250163 393.685092021217 182.19397736747976 393.69758915901184 186.00729155540466 C393.8011258582144 217.63221907790523 393.8887124598185 249.25716239612268 393.9701843261719 280.8821563720703 C409.8101843261718 280.8821563720703 425.6501843261718 280.8821563720703 441.9701843261719 280.8821563720703 C442.01143432617187 284.32653137207035 442.01143432617187 284.32653137207035 442.2201843261719 301.7571563720703 C442.2566003417969 303.9110186767578 442.29301635742183 306.0648809814453 442.3305358886719 308.2840118408203 C442.34223612609617 310.0224457662319 442.35242477384725 311.76089079307735 442.3608093261719 313.4993438720703 C442.38127319335933 314.3766314697266 442.4017370605469 315.2539190673828 442.4228210449219 316.1577911376953 C442.4281570212389 325.7812244255474 439.17926557183523 333.8547612586417 432.3603277206421 340.68200755119324 C422.3262859329087 349.91843464547907 412.22568727710564 349.74121764114517 399.3468933105469 349.64405822753906 C397.34882555790887 349.65097767296106 395.35076544779815 349.6605110339034 393.35272121429443 349.6724216938019 C387.88023989842065 349.6974154649849 382.40838823966345 349.68511358395403 376.9359049797058 349.66650438308716 C371.02713269647234 349.65291304600544 365.11846768121313 349.67389094143 359.209716796875 349.6903839111328 C348.3097464176137 349.7155117978049 337.4099916836135 349.71334895578366 326.5100099146366 349.69691510125995 C316.43957421161304 349.6818069508023 306.36921180411076 349.6778884328213 296.29876708984375 349.68505096435547 C295.96444742318243 349.685280119637 295.96444742318243 349.685280119637 294.27258729189634 349.6864397842437 C291.5581928643598 349.6883078907565 288.8437984721304 349.69021829999275 286.1294041238725 349.69219836685807 C260.67916749598555 349.7105421609711 235.229058209767 349.69392786301967 209.77884124219418 349.6616169847548 C187.18011915896642 349.63314442196196 164.58159995067456 349.63569223610307 141.98287963867188 349.6643829345703 C116.57846623718655 349.6965280472682 91.17416529938632 349.70924110044007 65.7697343826294 349.6907093524933 C63.06035680135906 349.6887851199317 60.350979190531206 349.6869080737484 57.6416015625 349.68505096435547 C56.974509887024766 349.68457650018854 56.30741821154953 349.68410203602167 55.620111636817455 349.6836131941527 C45.557318095792795 349.6767954818637 35.49460598694873 349.68475667118673 25.43182373046875 349.6999282836914 C13.987082559083035 349.7167625623001 2.542588273852971 349.7121892018264 -8.902124643325806 349.680243819952 C-14.740520245521793 349.66448389423533 -20.57850433777763 349.6582852562924 -26.41689682006836 349.67813873291016 C-31.76381002842389 349.6960458372379 -37.109931121966085 349.6861467947055 -42.456772685050964 349.6542734205723 C-44.38865117791643 349.64758319308845 -46.32059688501097 349.65095411559975 -48.252431988716125 349.6655281484127 C-61.13692474321167 349.7552578128814 -69.93788217160959 348.47904000277657 -79.90481567382813 339.5696563720703 C-86.55432191168981 332.2717803837691 -88.7824976269074 325.73107095908256 -88.51809692382813 315.9407501220703 C-88.5130615234375 315.04553649902346 -88.50802612304688 314.15032287597654 -88.50283813476563 313.2279815673828 C-88.47693086504222 309.9248746972964 -88.40712597987438 306.62222897627856 -88.34231567382813 303.3196563720703 C-88.23919067382812 295.9152813720703 -88.13606567382813 288.51090637207034 -88.02981567382813 280.8821563720703 C-72.18981567382812 280.8821563720703 -56.34981567382812 280.8821563720703 -40.029815673828125 280.8821563720703 C-40.02046997070312 273.20981750488284 -40.011124267578126 265.5374786376953 -40.001495361328125 257.6326446533203 C-39.96876821855591 233.0671589332439 -39.916468969209916 208.5017521700952 -39.85189472138882 183.93633074313402 C-39.841877601289696 180.11879383652 -39.83203341435498 176.3012565022471 -39.822296142578125 172.4837188720703 C-39.82035476952791 171.72373520955443 -39.818413396477695 170.96375154703856 -39.816413193941116 170.18073807656765 C-39.78541577257127 157.88493149805424 -39.768418855411056 145.58914357108404 -39.756621450185776 133.29330529272556 C-39.74419817486458 120.67096536916932 -39.716670262493466 108.04872312922703 -39.67520260810852 95.42644488811493 C-39.650100797456986 87.64158412620489 -39.63669596316949 79.85688542517573 -39.638386100530624 72.0719836205244 C-39.63841945241211 66.09641553832836 -39.61740906207882 60.12110779100766 -39.58864784240723 54.14560127258301 C-39.58014050564185 51.69872887563827 -39.57840453641103 49.25182193600983 -39.58401298522949 46.804941177368164 C-39.59066144216196 43.458097731976494 -39.57271033225794 40.112232664847284 -39.548797607421875 36.76548767089844 C-39.55655802488327 35.80242426991464 -39.56431844234467 34.83936086893081 -39.57231402397156 33.847113728523254 C-39.45534072399127 24.567222416728555 -36.661806053906304 16.52164367519029 -30.170324206352234 9.756884276866913 C-20.79983251599812 1.5498988868782106 -12.051931638494679 -0.13958125416735356 0 0 Z M-16.842315673828125 23.194656372070313 C-21.536805636128648 28.962172611468105 -21.3135900534254 35.00186822249054 -21.27032470703125 42.09465026855469 C-21.272036743164065 43.118196105957026 -21.27374877929688 44.141741943359364 -21.2755126953125 45.19630432128906 C-21.27882175885908 48.63511630943657 -21.267778052446772 52.0737332914083 -21.256866455078125 55.51252746582031 C-21.256253784822704 58.016335106356365 -21.25652076911362 60.5201430925766 -21.257596969604492 63.02395057678223 C-21.258002883865487 69.05185986446463 -21.249434607167927 75.07969373879709 -21.236594311892986 81.10758415609598 C-21.222183741763942 88.08167820000637 -21.220604233022243 95.05575142839467 -21.219024658203125 102.02986145019531 C-21.208527702062796 120.43896920667353 -21.180605429389573 138.84806368763248 -21.154815673828125 157.2571563720703 C-21.11356567382812 198.38340637207034 -21.07231567382813 239.5096563720703 -21.029815673828125 281.8821563720703 C109.65018432617188 281.8821563720703 240.3301843261719 281.8821563720703 374.9701843261719 281.8821563720703 C375.03205932617186 240.77653137207028 375.09393432617185 199.6709063720703 375.1576843261719 157.3196563720703 C375.18499633789065 144.33162658691407 375.2123083496094 131.34359680175783 375.2404479980469 117.96199035644531 C375.2539978027344 102.12446594234052 375.2539978027344 102.12446594234052 375.2565155029297 94.71456909179688 C375.2593149254065 89.5298348753166 375.2703270763783 84.34519450603187 375.2869110107422 79.16049194335938 C375.3080242349313 72.5500049075089 375.3136622993955 65.93962533461641 375.3094011545181 59.329097867012024 C375.3102923984841 56.90122260846786 375.3162556927542 54.473342748514966 375.3278297185898 52.04549491405487 C375.3427280312974 48.76846168752934 375.33916303974075 45.491949718866636 375.33094787597656 42.21490478515625 C375.3396858692169 41.26283173561097 375.34842386245725 40.31075868606567 375.3574266433716 39.329834938049316 C375.3102734151804 32.34236655971745 374.2032694957827 27.598070767542936 369.6576843261719 22.069656372070313 C364.9851684940513 18.266445811041933 360.41061973769973 17.632285375068022 354.50425815582275 17.627680778503418 C353.2147391849756 17.62184858500956 351.9252202141285 17.61601639151573 350.59662491083145 17.61000746488571 C349.17276878536165 17.613640352691277 347.7489131382074 17.617464709291625 346.32505798339844 17.6214599609375 C344.8069400545596 17.618438749047897 343.28882364703475 17.614549418369364 341.77070993185043 17.60986739397049 C337.6019749245733 17.599574825993898 333.4333257995689 17.601772413207954 329.2645837068558 17.606047987937927 C324.7675712818665 17.60851290772507 320.2705796592599 17.599503986054543 315.77357482910156 17.592010498046875 C306.96481137996295 17.579255202868183 298.15607840131855 17.577470822421503 289.3473072722554 17.57981076091528 C282.1883720622024 17.581593063143316 275.0294461107959 17.579846167764828 267.870512008667 17.575586318969727 C266.85201307218523 17.574991129972034 265.83351413570347 17.57439594097434 264.78415159508586 17.573782715946436 C262.7151449159686 17.57257097906438 260.6461382382539 17.571356844991556 258.57713156193495 17.570140339434147 C239.17020357887145 17.559261711317333 219.76329296809268 17.561428890333445 200.35636400431395 17.567525185644627 C182.59790434110192 17.57269527982902 164.83949951614932 17.561437026573003 147.08105070143938 17.542426966130733 C128.850331693504 17.523060807885855 110.61963864504108 17.51479037695219 92.38890928030014 17.518550217151642 C82.15225541863808 17.52046403663863 71.91564824269125 17.51795706825149 61.67900276184082 17.503835678100586 C52.965020907140286 17.491936522884117 44.25111447880198 17.49050055226158 35.53713161498308 17.502625845372677 C31.09071360392511 17.508524682948803 26.644433657858656 17.509586236691263 22.19802474975586 17.497623443603516 C18.127495619853107 17.486799119881567 14.057220407270023 17.489826696101147 9.98670332878828 17.503885127604008 C8.514358855082179 17.506541583957357 7.04199470146844 17.504135826438443 5.569669492542744 17.496149264276028 C-9.8172345522797 17.418478561019384 -9.8172345522797 17.418478561019384 -16.842315673828125 23.194656372070313 Z M-71.02981567382813 299.8821563720703 C-71.02981567382813 321.8821563720703 -71.02981567382813 321.8821563720703 -65.65481567382813 327.2571563720703 C-60.451117841795565 330.47849312523334 -56.15675139910476 331.1731508934679 -50.09675884246826 331.13942527770996 C-49.29985076099635 331.14293135225773 -48.50294267952442 331.1464374268055 -47.68188586831093 331.15004974603653 C-45.00097436509304 331.15938293606513 -42.32027917377205 331.15443548458836 -39.63935852050781 331.1495819091797 C-37.70208680881407 331.1533171999475 -35.76481660440638 331.1579182338253 -33.827548801898956 331.16331255435944 C-28.49553355455174 331.1755729186914 -23.163580906648534 331.1752785155857 -17.831554770469666 331.17292380332947 C-12.084323130631901 331.17251640407585 -6.337111768103895 331.183547414278 -0.5898895263671875 331.1930389404297 C10.673147502438155 331.2096664742358 21.936163599853813 331.21514927567983 33.19921187311411 331.2162636965513 C42.352346143326145 331.21721332474493 51.505473493733916 331.2213193480671 60.65860557556152 331.22766494750977 C82.37490888115926 331.24241430920915 104.09120624643197 331.25471416736866 125.80751514434814 331.2536678314209 C126.5021276388457 331.25363667395897 127.19674013334327 331.25360551649703 127.91240149131045 331.2535734148696 C131.4330418207704 331.2534071981015 134.9536821481114 331.2532091158061 138.47432247549295 331.2530039995909 C139.17354284063913 331.2529641091637 139.8727632057853 331.2529242187366 140.593172066845 331.2528831195086 C142.00716632403112 331.25280224528024 143.4211605810641 331.25271864954374 144.8351548379287 331.252632336691 C166.8353506007818 331.2514067851559 188.83548471845836 331.26642021646563 210.83566284179688 331.2937774658203 C235.54889546472515 331.324495687727 260.26208603949453 331.34168477882724 284.975339114666 331.33985102176666 C298.0619500310832 331.33918642580664 311.1484914290855 331.34470919862173 324.23508644104004 331.36620712280273 C335.3766022294446 331.3843921675763 346.51801698653264 331.3887882591699 357.6595411673188 331.3751882761717 C363.34556091862896 331.368645177937 369.0313866924136 331.36858990683334 374.7173881530762 331.3858947753906 C379.9217324335461 331.40157105786074 385.1257280497103 331.39881755475267 390.3300635442138 331.38132651150227 C392.21362557789416 331.3782446054047 394.09721328378396 331.38193358386496 395.98074505478144 331.3930466622114 C398.54078718031576 331.4071518315644 401.09960360830814 331.3965945236192 403.6596040725708 331.3799343109131 C404.39120108336215 331.3898706704378 405.1227980941534 331.3998070299625 405.8765647113323 331.41004449129105 C411.04666846499026 331.33889132758753 416.0116564086368 330.39159183093454 419.9701843261719 326.8821563720703 C423.9701843261719 318.88215637207026 423.9701843261719 318.88215637207026 424.9701843261719 299.8821563720703 C261.29018432617187 299.8821563720703 97.61018432617186 299.8821563720703 -71.02981567382813 299.8821563720703 Z " fill="#FFFFFF" transform="translate(123.02981567382813,125.11784362792969)"/>
<path d="M0 0 C0.5088574218750068 -0.005745391845692893 0.5088574218750068 -0.005745391845692893 3.083984375 -0.034820556640625 C4.205015563964849 -0.042222595214838066 5.326046752929699 -0.04962463378905113 6.481048583984375 -0.0572509765625 C7.658425903320307 -0.06864105224610739 8.835803222656239 -0.08003112792968636 10.048858642578125 -0.091766357421875 C13.960307148996776 -0.12689237105561801 17.871759737530226 -0.1535518435064489 21.783294677734375 -0.1763916015625 C22.11625415563583 -0.178364534378062 22.11625415563583 -0.178364534378062 23.801230907440186 -0.18834877014160156 C30.08478389859056 -0.22477788342786198 36.36834817794579 -0.25621557530052996 42.6519718170166 -0.27745819091796875 C50.681805371313146 -0.3050066667639726 58.71075307557368 -0.35571378175873747 66.74021780490875 -0.43793249130249023 C72.38958433172002 -0.4938132915216613 78.03871126206468 -0.5227071944019599 83.68834435939789 -0.5319314002990723 C87.06038315261893 -0.5381766715228196 90.43138368734196 -0.5561833977324397 93.80311965942383 -0.6033172607421875 C97.57147519160154 -0.6494764690424688 101.33747336492752 -0.6515273046834125 105.10604858398438 -0.6431884765625 C105.66049148559571 -0.6549864196777264 105.66049148559571 -0.6549864196777264 108.46630859375 -0.714691162109375 C109.5009423828125 -0.7036233520507835 110.535576171875 -0.692555541992192 111.6015625 -0.68115234375 C112.49126047134399 -0.6863060760498172 113.38095844268798 -0.691459808349606 114.29761695861816 -0.6967697143554688 C118.90504151332988 0.6836900741127181 121.77812940416376 3.8662120864759117 125.18173217773438 7.1673583984375 C125.87795861840249 7.838856223821637 126.5741850590706 8.510354049205773 127.29150927066803 9.202200293540955 C129.59734277814914 11.45690646215155 131.87789433931323 13.73495407118611 134.15414428710938 16.019515991210938 C135.0226092338562 16.88712651312352 135.89107418060303 17.7547370350361 136.78585624694824 18.648638784885406 C139.17532808639868 21.03675636786957 141.56255475007924 23.427077461827935 143.94882798194885 25.81838858127594 C146.5303937800884 28.40429656232959 149.11487347809032 30.98728949156751 151.69898986816406 33.570648193359375 C156.16893329347494 38.04006876322134 160.63705069704156 42.511308022700604 165.10391235351563 46.983808517456055 C171.56214686304133 53.45019038129024 178.0231601986418 59.91378989487299 184.48484230041504 66.3767264559865 C194.96991144649542 76.86398104289015 205.45274820860402 87.35346411125744 215.93417358398438 97.8443603515625 C226.11235980228366 108.0317338313157 236.29160191871398 118.21805035072816 246.47225952148438 128.4029541015625 C247.100413800478 129.03137110404668 247.7285680794716 129.65978810653087 248.37575733661652 130.30724804848433 C251.5272140632585 133.4600098681865 254.67869149282046 136.6127509924586 257.83017921447754 139.76548182964325 C283.9505737812142 165.89623319482473 310.06734228557025 192.03060618591826 336.1817321777344 218.1673583984375 C334.51040798274596 221.7075948640097 332.5483388498421 224.16083093990812 329.8067321777344 226.9798583984375 C329.0358728027344 227.79067871093753 328.2650134277344 228.6014990234375 327.4707946777344 229.4368896484375 C325.1817321777344 231.1673583984375 325.1817321777344 231.1673583984375 323.1075134277344 231.1361083984375 C320.84044846815203 229.9956781550776 319.4688197332924 228.7148639144781 317.7442321777344 226.8548583984375 C314.998230255547 223.9177194515039 312.4074768725541 221.74795415429332 309.1817321777344 219.1673583984375 C308.8517321777344 223.7873583984375 308.52173217773435 228.4073583984375 308.1817321777344 233.1673583984375 C291.15408035610596 234.02561728585124 274.1690241582802 234.32342455283174 257.12107145786285 234.32740116119385 C253.61420163246532 234.32929160032825 250.1073424864283 234.33685588648973 246.60047912597656 234.34353637695313 C238.9861065256141 234.35694415359785 231.3717393003742 234.3631123814083 223.75735688209534 234.36754703521729 C218.99522115286948 234.37033145833038 214.23308738262352 234.37457172150675 209.4709529876709 234.3790512084961 C196.25331278496998 234.39120543112767 183.03567411248287 234.40152216265324 169.8180284500122 234.40492630004883 C168.97745711725202 234.40514586612585 168.13688578449194 234.4053654322028 167.27084259316325 234.4055916517973 C166.42848927203568 234.40580992951993 165.5861359509081 234.40602820724246 164.71825677156448 234.40625309944153 C163.01182734885037 234.40669654214616 161.30539792694435 234.40714310522196 159.59896850585938 234.4075927734375 C158.7525550403446 234.40781420320275 157.9061415748298 234.40803563296794 157.03407921642065 234.40826377272606 C143.25879075581986 234.41222881040306 129.48355461807074 234.42975157150477 115.70828644186258 234.45295229554176 C101.52471477094124 234.47664674101821 87.34116947992325 234.4891267472986 73.15757769346237 234.49029421806335 C65.20943649839938 234.4912103925792 57.26136416618243 234.49695119573306 49.313241958618164 234.5151138305664 C42.56347674735565 234.53048677244345 35.81380184616094 234.53565074215527 29.064022459089756 234.52737572789192 C25.622240218418597 234.52346346547705 22.18064010539956 234.5244278264896 18.738880157470703 234.53843307495117 C15.01079470030308 234.55106099827435 11.283181020633492 234.54532596349935 7.5550994873046875 234.53485107421875 C6.465441458821289 234.54290747880935 5.37578343033789 234.55096388339996 4.253105461597443 234.559264421463 C-4.98781461481903 234.4982689211041 -4.98781461481903 234.4982689211041 -8.818267822265625 231.1673583984375 C-11.427347361843857 227.25373908907017 -11.102206573034081 223.95291750690865 -11.085693359375 219.41226196289063 C-11.09022447228432 218.5066778934002 -11.094755585193639 217.60109382390976 -11.099424004554749 216.66806781291962 C-11.11212604452659 213.62106783629326 -11.110443901070624 210.5742452709867 -11.108795166015625 207.5272216796875 C-11.114776788097458 205.34772510451415 -11.121581481441964 203.16823065453877 -11.129150390625 200.98873901367188 C-11.146854743213353 195.05900670734832 -11.15150763371264 189.12933207932042 -11.152781963348389 183.1995759010315 C-11.154678349549371 178.2540872115419 -11.162032871314665 173.30861204150187 -11.169126152992249 168.36312854290009 C-11.186357252063587 156.0301822727725 -11.190151245972785 143.697269098535 -11.188625529408455 131.36431263387203 C-11.187863146787222 121.31895266473418 -11.203457683645055 111.27371697034494 -11.229888916015625 101.2283935546875 C-11.260470040678172 89.56594782164024 -11.27740692972354 77.9035939211069 -11.275962471961975 66.2411059141159 C-11.27545181567227 60.06660923439233 -11.28119219048719 53.8922716258503 -11.302318572998047 47.71780776977539 C-11.32164210726367 41.91148389726604 -11.321865681899581 36.10547179966511 -11.30728530883789 30.299137115478516 C-11.305188801875985 28.166204288912184 -11.30994790051352 26.033252249414204 -11.322006225585938 23.900352478027344 C-11.33738550423989 20.992005991461383 -11.32819889335805 18.084744347888375 -11.312744140625 15.176422119140625 C-11.323031266927714 14.329242163896566 -11.333318393230442 13.482062208652508 -11.34391725063324 12.609210133552551 C-11.296655679622802 8.59391029478789 -11.11779175716211 6.638914739533391 -8.912363052368164 3.1667919158935547 C-5.833485056240164 0.2270918616057429 -4.150147053839291 0.03820720310005754 0 0 Z M7.181732177734375 18.1673583984375 C7.181732177734375 83.5073583984375 7.181732177734375 148.8473583984375 7.181732177734375 216.1673583984375 C17.920267333984384 216.19765136718752 17.920267333984384 216.19765136718752 72.26376342773438 216.3509521484375 C85.83082262244307 216.39142398561097 99.39788042592204 216.43213884380566 112.96493530273438 216.4739990234375 C120.08871436813808 216.4959660606337 127.21249361980557 216.51787119029962 134.33627319335938 216.5396728515625 C134.78271888285877 216.5410404446721 134.78271888285877 216.5410404446721 137.04200464487076 216.54796129465103 C151.47075769605397 216.59207044407708 165.89951859060943 216.6326824734419 180.32828537374735 216.6720110103488 C195.12808429904567 216.71242839971205 209.92786863493933 216.75658487224075 224.72764605283737 216.80423694849014 C233.865232799997 216.83353940659072 243.00281842474857 216.8598999490614 252.14042415469885 216.8825373724103 C258.40023727328355 216.8983243230307 264.6600325296372 216.91773207227845 270.9198258295655 216.94002681225538 C274.53529731322095 216.95279542826813 278.1507550238847 216.96392961074622 281.76624298095703 216.97077751159668 C285.6800991814436 216.97823209316346 289.59390448745006 216.99329170309375 293.5077362060547 217.00914001464844 C294.65850027382373 217.01011812150477 295.8092643415928 217.0110962283611 296.9949000477791 217.01210397481918 C297.516912561357 217.01484119683505 297.516912561357 217.01484119683505 300.15861225128174 217.02869319915771 C300.6106693044305 217.03002222031353 300.6106693044305 217.03002222031353 302.89835196733475 217.03674787282944 C305.1817321777343 217.1673583984375 305.1817321777343 217.1673583984375 308.1817321777344 218.1673583984375 C306.84009588771414 215.2271836183359 305.33070191669276 213.00415903937983 303.1623430252075 210.61416244506836 C302.5391353780031 209.92345271825786 301.9159277307987 209.23274299144748 301.273835003376 208.52110266685486 C300.5872931522131 207.7701281666756 299.9007513010502 207.01915366649627 299.1934051513672 206.24542236328125 C298.46399331748484 205.44162840127944 297.73458148360254 204.63783443927764 296.98306626081467 203.80968308448792 C294.5267596491999 201.1082136368392 292.06250634056823 198.41415794320858 289.5970153808594 195.7210693359375 C289.16604144096374 195.24903327941894 289.16604144096374 195.24903327941894 286.98505210876465 192.86024475097656 C270.3517398096821 174.65467711134642 253.42499343096176 156.73176082864939 236.36630131676793 138.92476378381252 C233.55844933206765 135.9934885264072 230.75282153826913 133.0600934107593 227.94857788085938 130.1253662109375 C227.3905663629621 129.54146772176028 226.83255484506492 128.95756923258307 226.25763388723135 128.3559768497944 C218.4412119615115 120.1671731521376 210.7626956969222 111.86744943142179 203.18128822743893 103.46082574129105 C190.11188128673462 88.96884929297607 176.81670705404548 74.73056088590104 163.04501342773438 60.9017333984375 C162.5123385030031 60.36579488515855 161.97966357827187 59.82985637187957 161.43084698915482 59.27767729759216 C137.83152855954847 35.59351474788534 115.47023948974623 15.247591433049394 80.67929077148438 12.0599365234375 C79.57267318010332 11.958482961654653 78.46605558872221 11.857029399871834 77.32590413093567 11.752501487731934 C53.75130409526534 10.00858164480178 30.429412814754414 15.009792396153586 7.181732177734375 18.1673583984375 Z " fill="#BC02F6" transform="translate(127.81826782226563,157.8326416015625)"/>
<path d="M0 0 C0.7301401770114921 -0.005385537743563873 1.4602803540229843 -0.010771075487127746 2.2125459909439087 -0.01631981134414673 C4.659985871717652 -0.03063129035763268 7.106887314038772 -0.023487984397718265 9.554351806640625 -0.0163726806640625 C11.308735510342729 -0.022074648914781392 13.063115502014853 -0.029038234302504407 14.817489624023438 -0.03717041015625 C19.584085874673463 -0.055137576311722114 24.35049839172956 -0.05392658566540831 29.11711835861206 -0.04822802543640137 C33.09577756868157 -0.04514085573097759 37.074401245952686 -0.051223469738943095 41.05305540561676 -0.05726677179336548 C50.43974797745955 -0.07132250141069107 59.82634956362136 -0.0697424130273987 69.21304321289063 -0.0583648681640625 C78.89701053251144 -0.046886370903138186 88.58070082494328 -0.0609524346164676 98.26463162899017 -0.08776134252548218 C106.57813289109521 -0.10991473965117393 114.89154717464896 -0.11655641845666764 123.2050758600235 -0.11068493127822876 C128.17066301381476 -0.10731283212541598 133.13607263708343 -0.10974704706964644 138.10163497924805 -0.1269359588623047 C142.7720633613501 -0.14239691730659843 147.4420813955428 -0.1384589931255391 152.11249351501465 -0.11963081359863281 C153.82573683392775 -0.11594236822008952 155.53901049186317 -0.11906086221887335 157.2522258758545 -0.1295166015625 C159.59318439084723 -0.14271153804503456 161.93278149128713 -0.1311937039421025 164.273681640625 -0.113525390625 C165.5829631614685 -0.11331610679627602 166.89224468231203 -0.11310682296752361 168.24120140075684 -0.11289119720458984 C172.36733148885622 0.47343951806331575 174.54415053982723 1.789376840497681 177.76382446289063 4.3876800537109375 C179.24581053204133 7.351652192012324 178.91544776423552 10.367476026985969 178.917724609375 13.61785888671875 C178.91991573631765 13.994677990376942 178.91991573631765 13.994677990376942 178.9310041666031 15.901611030101776 C178.94441539239517 18.440345491346733 178.95057620085117 20.979045224584524 178.95669555664063 23.517807006835938 C178.96459463485246 25.33262795000411 178.97286346294885 27.147447316274622 178.98147583007813 28.962265014648438 C179.00771632800752 34.9334818048257 179.02300452694936 40.90470568755808 179.03726196289063 46.87596130371094 C179.04262062706766 48.929445315836205 179.0479981318456 50.98292927888099 179.05339431762695 53.03641319274902 C179.07502515518382 61.57623467069891 179.0937631546675 70.11605423807686 179.10501670837402 78.65589618682861 C179.12126424574006 90.90597080486668 179.1544592642357 103.15572863931186 179.21141755580902 115.40568381547928 C179.250078097268 124.0129498260423 179.26964473501823 132.62013096633666 179.27493727207184 141.2274815440178 C179.2785957908793 146.37143637719475 179.2906702477677 151.51505350228854 179.32304000854492 156.65891456604004 C179.35305259949416 161.49758686715035 179.3594568634902 166.3357159166721 179.34765625 171.1744613647461 C179.34743494981137 172.9510341315821 179.35578657575087 174.72763161018725 179.37331008911133 176.50411796569824 C179.3959280270268 178.92891984316424 179.38774291626248 181.35173945330882 179.371826171875 183.77655029296875 C179.38570825934414 184.48044728100297 179.39959034681317 185.18434426903724 179.41389310359955 185.9095714688301 C179.3526476957391 189.6934025769724 178.82921727950804 191.30439864368515 176.4641056060791 194.31650066375732 C173.54025530914276 196.55916287306104 171.5616631323918 197.25463202412163 167.85366821289063 196.98533630371094 C164.51991491794092 196.031945174501 162.53689408712614 194.0938991308479 160.10586547851563 191.68309020996094 C157.60176433694852 189.22884660180773 155.01679934125167 186.8873479261996 152.41226196289063 184.54002380371094 C145.0721405830742 177.86345180120918 138.11481079811733 170.81530552733147 131.13882446289063 163.76268005371094 C128.64951310931474 161.24678566508538 126.15688409924962 158.73424477365103 123.66226196289063 156.22361755371094 C123.09776336669921 155.65082061767578 122.5332647705078 155.07802368164062 121.95166015625 154.4878692626953 C117.98929429409225 150.50041496931175 117.98929429409225 150.50041496931175 115.76382446289063 149.38768005371094 C115.76382446289063 148.72768005371097 115.76382446289063 148.06768005371094 115.76382446289063 147.38768005371094 C115.10382446289066 147.38768005371094 114.44382446289063 147.38768005371094 113.76382446289063 147.38768005371094 C112.03575311027987 145.7594340891377 110.39975746868816 144.10483395377463 108.76382446289063 142.38768005371094 C107.701363191979 141.3151487543986 106.63636663157848 140.2451247672168 105.56924438476563 139.17723083496094 C104.9948210144043 138.59957977294926 104.42039764404296 138.02192871093746 103.82856750488281 137.42677307128906 C101.22381615116967 134.80852245300474 98.61630752045926 132.19302468646663 96.00869750976563 129.57762145996094 C94.64158121949367 128.20547602467906 93.27536374802543 126.83243445451518 91.91006469726563 125.45848083496094 C89.919725952048 123.45589311230805 87.92606892945759 121.4566587798978 85.93179321289063 119.45799255371094 C85.33255538940432 118.85359344482424 84.73331756591796 118.24919433593749 84.11592102050781 117.62648010253906 C81.10280938181842 114.61297868613781 78.03611289057312 111.71965694155199 74.80923461914063 108.93528747558594 C70.63498442161989 105.32574348396963 66.74591990951762 101.4802087010915 62.869293212890625 97.55564880371094 C62.155258331298796 96.83782730102538 61.441223449707024 96.12000579833983 60.70555114746094 95.38043212890625 C58.45167044564516 93.11445411369596 56.20109719363529 90.8452362350709 53.951324462890625 88.57518005371094 C50.96852089382196 85.56579798673181 47.982427660801534 82.55973660089256 44.994293212890625 79.55564880371094 C44.313038787841776 78.86609603881834 43.631784362792985 78.1765432739258 42.92988586425781 77.46609497070313 C42.29524917602538 76.82815505981443 41.660612487792946 76.1902151489258 41.006744384765625 75.53294372558594 C40.45129440307619 74.97225692749024 39.8958444213867 74.41157012939453 39.32356262207031 73.83389282226563 C37.763824462890625 72.38768005371094 37.763824462890625 72.38768005371094 34.763824462890625 70.38768005371094 C34.763824462890625 69.72768005371094 34.763824462890625 69.06768005371094 34.763824462890625 68.38768005371094 C34.12444946289065 68.11955505371094 33.48507446289062 67.85143005371094 32.826324462890625 67.57518005371094 C30.763824462890625 66.38768005371094 30.763824462890625 66.38768005371094 29.763824462890625 63.38768005371094 C29.18632446289064 63.098930053710944 28.608824462890652 62.81018005371095 28.013824462890625 62.51268005371094 C24.97157201366906 60.991553829100155 23.025399394672036 58.90054108902362 20.763824462890625 56.38768005371094 C20.763824462890625 55.72768005371094 20.763824462890625 55.067680053710944 20.763824462890625 54.38768005371094 C19.773824462890616 54.05768005371095 18.783824462890607 53.72768005371094 17.763824462890625 53.38768005371094 C17.763824462890625 52.72768005371094 17.763824462890625 52.067680053710944 17.763824462890625 51.38768005371094 C17.1038244628906 51.38768005371094 16.443824462890632 51.38768005371094 15.763824462890625 51.38768005371094 C15.763824462890625 50.72768005371094 15.763824462890625 50.067680053710944 15.763824462890625 49.38768005371094 C15.1038244628906 49.38768005371094 14.443824462890632 49.38768005371094 13.763824462890625 49.38768005371094 C13.763824462890625 48.72768005371094 13.763824462890625 48.067680053710944 13.763824462890625 47.38768005371094 C13.1038244628906 47.38768005371094 12.443824462890632 47.38768005371094 11.763824462890625 47.38768005371094 C11.763824462890625 46.72768005371094 11.763824462890625 46.067680053710944 11.763824462890625 45.38768005371094 C11.1038244628906 45.38768005371094 10.443824462890632 45.38768005371094 9.763824462890625 45.38768005371094 C9.076324462890625 42.57518005371094 9.076324462890625 42.57518005371094 8.763824462890625 39.38768005371094 C10.076324462890625 37.51268005371094 10.076324462890625 37.51268005371094 11.763824462890625 36.38768005371094 C12.42382446289065 36.38768005371094 13.083824462890618 36.38768005371094 13.763824462890625 36.38768005371094 C13.763824462890625 35.72768005371094 13.763824462890625 35.067680053710944 13.763824462890625 34.38768005371094 C15.725303201987913 32.99829928018369 17.725490218492723 31.661638956459626 19.763824462890625 30.387680053710938 C23.291611816012335 31.694267962274523 24.9898186553188 33.78417886686424 27.287261962890625 36.68064880371094 C30.61821803523162 40.53151600903638 34.70197801342039 43.68968886002955 38.623199462890625 46.91893005371094 C42.32785675950055 50.00068037124487 45.4758390560923 53.21382419267081 48.502105712890625 56.96971130371094 C49.763824462890625 58.38768005371094 49.763824462890625 58.38768005371094 51.763824462890625 59.38768005371094 C51.763824462890625 60.047680053710934 51.763824462890625 60.70768005371093 51.763824462890625 61.38768005371094 C52.02953247070309 61.490039672851566 52.02953247070309 61.490039672851566 53.374176025390625 62.00804138183594 C56.76192446156557 63.963922707216454 59.28645076973794 66.68574644050818 61.998199462890625 69.46189880371094 C62.59505554199217 70.063956451416 63.191911621093766 70.6660140991211 63.806854248046875 71.28631591796875 C65.71400010987213 73.21123920370584 67.61434512202555 75.14269352490848 69.51382446289063 77.07518005371094 C72.00520464995537 79.60331097467926 74.4997609605457 82.12824288220196 76.99819946289063 84.64939880371094 C77.60327835083007 85.26006698608398 78.20835723876951 85.87073516845703 78.83177185058594 86.49990844726563 C82.2958982765087 89.97581934561359 85.84171142912265 93.26251127500137 89.58657836914063 96.43528747558594 C95.33058720905427 101.58608795694829 100.65181536785099 107.21745468628296 106.07632446289063 112.70018005371094 C108.59036363049387 115.24082616223376 111.1077142543947 117.77812392703447 113.62710571289063 120.31346130371094 C114.19899124145508 120.89364517211914 114.77087677001953 121.47382904052733 115.36009216308594 122.07159423828125 C117.73385691110582 124.46002800495023 119.95199284026796 126.51312563862916 122.76382446289063 128.38768005371094 C122.76382446289063 129.0476800537109 122.76382446289063 129.70768005371093 122.76382446289063 130.38768005371094 C123.36086181640621 130.65940032958986 123.95789916992192 130.93112060546878 124.57302856445313 131.21107482910156 C126.72389387185302 132.36623463194888 128.10795913247927 133.48941035842245 129.81655883789063 135.21336364746094 C130.38394775390623 135.7809036254883 130.9513366699219 136.34844360351565 131.53591918945313 136.9331817626953 C132.13706542968748 137.54465057373045 132.73821166992184 138.1561193847656 133.35757446289063 138.78611755371094 C133.98611328125003 139.41748626708988 134.61465209960937 140.04885498046872 135.26223754882813 140.69935607910156 C137.26751862927551 142.71580942207117 139.26574079276406 144.73909712172144 141.26382446289063 146.76268005371094 C142.60841386959726 148.11730612586615 143.95346106217312 149.47147796775425 145.29898071289063 150.82518005371094 C148.27316756397352 153.81898372476576 151.24291460418027 156.8171120116652 154.20877075195313 159.8191680908203 C156.05469471508434 161.6810676499116 157.90989549367333 163.53375108449364 159.76382446289063 165.38768005371094 C160.09382446289067 116.87768005371095 160.4238244628906 68.36768005371093 160.76382446289063 18.387680053710938 C160.10382446289066 18.71768005371092 159.44382446289063 19.047680053710934 158.76382446289063 19.387680053710938 C156.63622785761424 19.48630544494867 154.50545901407463 19.51839936296247 152.37557983398438 19.521392822265625 C151.71248534440997 19.523658378720285 151.0493908548355 19.525923935174944 150.36620259284973 19.5282581448555 C148.1338168862535 19.534611954125978 145.90149167525317 19.53376789059226 143.66909790039063 19.532943725585938 C142.0726462913874 19.535934432310626 140.47619540780647 19.539336754250968 138.87974548339844 19.543121337890625 C134.53455445359282 19.551976386519044 130.18938310110184 19.55430013351537 125.84418392181396 19.55493712425232 C122.21855308590352 19.555885415956823 118.5929268586408 19.559562948644782 114.96729779243469 19.56310921907425 C106.41200353755585 19.571260145518522 97.85671980977634 19.5736929428015 89.30142211914063 19.572982788085938 C80.4753117054442 19.572382400167555 71.64926249195241 19.58292497181162 62.82316756248474 19.598726451396942 C55.24857093136421 19.611804307026517 47.67399428859204 19.6171665533071 40.09938645362854 19.616527378559113 C35.57423901935465 19.616272384066463 31.049145902100747 19.619124126304456 26.524009704589844 19.62970542907715 C22.265745351550436 19.63939006174212 18.00758718199313 19.639463068849267 13.749319076538086 19.63218879699707 C12.187655461047711 19.63114328245061 10.625985226322314 19.633503885493496 9.064332962036133 19.639549255371094 C6.9294319714294375 19.647277258464726 4.79489688551115 19.64261917498422 2.660003662109375 19.634918212890625 C2.063058834075946 19.635190596580514 2.063058834075946 19.635190596580514 -0.9578437805175781 19.636569023132324 C-5.0621568017675145 19.324972054342425 -8.631748442885907 18.494181498002973 -12.048675537109375 16.137680053710938 C-13.813963109273516 13.536203631574352 -14.111080778788107 11.515049011742065 -14.236175537109375 8.387680053710938 C-11.175653145078286 1.4612346401669072 -7.311312213209874 0.013576882667280188 0 0 Z " fill="#BC02F6" transform="translate(304.2361755371094,157.61231994628906)"/>
<path d="M0 0 C2.858017306739157 1.9881859525142147 4.6190108278801745 3.4760433115206695 5.484375 6.9375 C5.751884575264057 10.860973770539886 5.220013973646132 12.66997903953083 3 16 C-1.1556209733500964 18.77041398223338 -3.066678718524031 18.704760183068004 -8 18 C-11.064585376099046 15.956943082600645 -11.821531284173716 14.559201976255622 -12.9375 11.0625 C-13.013505181303856 7.338246116112259 -12.279785802905224 5.908692231292832 -10 3 C-6.839162126176973 -0.1608378738230556 -4.410903038279855 -0.7201474348212002 0 0 Z " fill="#FDF8FE" transform="translate(303,158)"/>
</svg>
