<?xml version="1.0" encoding="UTF-8"?>
<!-- Generator: visioncortex VTracer 0.6.12 -->
<svg version="1.1" xmlns="http://www.w3.org/2000/svg" width="600" height="600">
<path d="M0 0 C3.8359834584110786 0.8190680293401016 6.842806221888537 2.772995097963779 10.1015625 4.88623046875 C11.58104145335281 5.801894162591175 13.061537857550448 6.715915648463117 14.54296875 7.62841796875 C15.292075195312492 8.096025390625002 16.041181640625 8.563632812500003 16.81298828125 9.04541015625 C20.496918484815396 11.304342395432194 24.264463216926913 13.408523114238449 28.0390625 15.51123046875 C28.719042968750003 15.892712402343747 29.399023437500006 16.2741943359375 30.099609375 16.667236328125 C34.7649337020255 19.28041606976275 34.7649337020255 19.28041606976275 37.1015625 20.44873046875 C37.1015625 21.108730468749997 37.1015625 21.76873046875 37.1015625 22.44873046875 C37.79636718750001 22.71427734375 38.49117187499999 22.979824218749997 39.20703125 23.25341796875 C42.35832326218622 24.5547612288431 45.371564208487314 26.035764299413913 48.4140625 27.57373046875 C49.4826953125 28.112558593749995 50.551328125 28.651386718750004 51.65234375 29.20654296875 C52.460585937500014 29.616464843749995 53.268828125 30.026386718750004 54.1015625 30.44873046875 C54.1015625 31.108730468749997 54.1015625 31.768730468749993 54.1015625 32.44873046875 C54.816992187500006 32.72072265624999 55.53242187500001 32.99271484375001 56.26953125 33.27294921875 C63.2054642653938 36.15255727065832 69.66169649380248 40.109066168952836 75.9765625 44.14794921875 C80.24781380284412 46.762520328763046 84.68690011022966 49.08721069775153 89.1015625 51.44873046875 C89.1015625 52.10873046875 89.1015625 52.76873046874999 89.1015625 53.44873046875 C89.80281250000002 53.71685546875 90.5040625 53.984980468749995 91.2265625 54.26123046875 C94.10156249999997 55.44873046875 94.10156249999997 55.44873046875 97.1015625 57.13623046875 C100.58320053036243 58.65944710703357 101.53803877919313 58.50458934898907 105.1015625 57.44873046875 C106.86350259450165 56.441511170633305 108.59029212486587 55.37168209924894 110.2890625 54.26123046875 C130.9023026628669 41.898363523779324 159.00504186893113 37.031658615431056 182.49609375 42.19482421875 C192.52830226368803 44.76965089798196 202.31175544900867 48.08453560586638 212.1015625 51.44873046875 C212.1015625 52.10873046875 212.1015625 52.76873046874999 212.1015625 53.44873046875 C212.98585937500002 53.71685546875 213.87015625000004 53.984980468749995 214.78125 54.26123046875 C229.19939738914047 59.41783847616023 241.07601203878676 71.50998253193723 250.1015625 83.44873046875 C250.40126953125002 83.82771484375 250.40126953125002 83.82771484375 251.91796875 85.74560546875 C254.634183755214 89.22759675254241 256.5549455998984 92.28476189155349 258.1015625 96.44873046875 C258.33166015625 96.65626953124999 258.33166015625 96.65626953124999 259.49609375 97.70654296875 C265.48743731117935 104.2080982687159 269.3978588916441 118.59102781328531 269.1015625 127.44873046875 C269.7615625 127.44873046875 270.4215625 127.44873046875 271.1015625 127.44873046875 C271.10772583007815 127.882177734375 271.10772583007815 127.882177734375 271.138916015625 130.07568359375 C271.74398604010855 154.2268519310036 271.74398604010855 154.2268519310036 275.7158203125 159.65478515625 C279.7062888199217 162.90425342332858 284.12662782183 164.35950737808056 289.1015625 165.44873046875 C289.1015625 166.10873046875 289.1015625 166.76873046875 289.1015625 167.44873046875 C289.7757421875 167.70396484375 290.449921875 167.95919921875 291.14453125 168.22216796875 C294.6528900616437 169.67741851941858 298.0283480197183 171.35820881653723 301.4140625 173.07373046875 C302.05923828125 173.39857421875 302.7044140625 173.72341796875 303.369140625 174.05810546875 C304.94753791398085 174.85315002912554 306.5246794432029 175.6506868107769 308.1015625 176.44873046875 C308.1015625 177.10873046875 308.1015625 177.76873046875 308.1015625 178.44873046875 C308.980703125 178.71556640625 309.85984375 178.98240234375 310.765625 179.25732421875 C313.97348033652395 180.40298683893712 316.5705172528965 181.750117088342 319.4765625 183.51123046875 C324.35296854726175 186.42251766114506 329.2669290057756 189.24416051291448 334.2265625 192.01123046875 C338.6885880101027 194.50486949031466 343.11521027381286 197.03117383983994 347.4765625 199.69873046875 C352.2085707087003 202.57978308561175 357.1111138366939 205.0490679200113 362.1015625 207.44873046875 C362.1015625 208.10873046875 362.1015625 208.76873046875 362.1015625 209.44873046875 C362.7963671875 209.71427734375 363.491171875 209.97982421875 364.20703125 210.25341796875 C367.3583232621861 211.55476122884303 370.3715642084874 213.03576429941398 373.4140625 214.57373046875 C374.4826953125 215.11255859375 375.551328125 215.65138671875 376.65234375 216.20654296875 C377.4605859375 216.61646484375 378.268828125 217.02638671875 379.1015625 217.44873046875 C379.1015625 218.10873046875 379.1015625 218.76873046875 379.1015625 219.44873046875 C379.949765625 219.70396484375 380.79796875 219.95919921875 381.671875 220.22216796875 C385.33908342565985 221.53367531004517 388.5673080670466 223.1951616995716 391.9765625 225.07373046875 C393.128984375 225.70537109375 394.28140625 226.33701171874998 395.46875 226.98779296875 C396.337578125 227.46990234375 397.20640625 227.95201171875 398.1015625 228.44873046875 C398.1015625 229.10873046874997 398.1015625 229.76873046875 398.1015625 230.44873046875 C398.9819921875 230.71556640625 399.862421875 230.98240234374998 400.76953125 231.25732421875 C403.9666239372717 232.4004816274462 406.52608999865225 233.7433399216153 409.4140625 235.51123046875 C417.1464419788564 240.13310672723412 425.1193326454586 244.27792079356902 433.1015625 248.44873046875 C433.1015625 249.10873046874997 433.1015625 249.76873046875 433.1015625 250.44873046875 C433.7925 250.71169921875003 434.48343750000004 250.97466796875 435.1953125 251.24560546875 C443.31613121397163 254.6074497750716 451.0240822507677 258.095138383655 456.1015625 265.44873046875 C456.7615625000001 265.77873046875 457.42156249999994 266.10873046875 458.1015625 266.44873046875 C458.1015625 272.05873046875 458.1015625 277.66873046875 458.1015625 283.44873046875 C457.4415624999999 283.44873046875 456.78156250000006 283.44873046875 456.1015625 283.44873046875 C455.83988281250004 284.05072265625 455.5782031250001 284.65271484375 455.30859375 285.27294921875 C451.1994739986875 292.6800032688506 440.4613116768868 296.9252244888807 433.1015625 300.44873046875 C432.4415624999999 300.44873046875 431.78156250000006 300.44873046875 431.1015625 300.44873046875 C431.1015625 301.10873046875 431.1015625 301.76873046875 431.1015625 302.44873046875 C428.31346029715246 303.95542766683946 425.5205229203898 305.4529285073516 422.7265625 306.94873046875 C421.9325 307.37798828125 421.1384375 307.80724609375 420.3203125 308.24951171875 C419.9400390625 308.4525390625 419.9400390625 308.4525390625 418.015625 309.47998046875 C417.31389160156255 309.85703125 416.612158203125 310.23408203125 415.88916015625 310.62255859375 C414.1015625 311.44873046875 414.1015625 311.44873046875 412.1015625 311.44873046875 C412.1015625 312.10873046875 412.1015625 312.76873046875 412.1015625 313.44873046875 C409.64586075183314 314.78711779621807 407.18726333685765 316.1195927904473 404.7265625 317.44873046875 C404.027890625 317.83029296875 403.32921875 318.21185546875 402.609375 318.60498046875 C397.32812500000006 321.44873046875 397.32812500000006 321.44873046875 395.1015625 321.44873046875 C395.1015625 322.10873046875 395.1015625 322.76873046875 395.1015625 323.44873046875 C393.9671875 324.04041015625 392.8328125 324.63208984375 391.6640625 325.24169921875 C390.1431431796455 326.0397124423928 388.62231470353487 326.8378988211373 387.1015625 327.63623046875 C386.3577734375 328.02359375 385.613984375 328.41095703125 384.84765625 328.81005859375 C380.4036257767442 331.148005060115 376.1110604273251 333.6317907311936 371.8740234375 336.326416015625 C369.6948367065834 337.70626744841064 367.4763890012427 339.00020671805345 365.2265625 340.26123046875 C364.486640625 340.68017578125 363.74671875 341.09912109375 362.984375 341.53076171875 C361.1015625 342.44873046875 361.1015625 342.44873046875 359.1015625 342.44873046875 C359.1015625 343.10873046875 359.1015625 343.76873046875 359.1015625 344.44873046875 C356.64586075183325 345.787117796218 354.1872633368575 347.1195927904474 351.7265625 348.44873046875 C351.027890625 348.83029296875 350.32921875 349.21185546875 349.609375 349.60498046875 C344.328125 352.44873046875 344.328125 352.44873046875 342.1015625 352.44873046875 C342.1015625 353.10873046875 342.1015625 353.76873046875 342.1015625 354.44873046875 C340.9671875 355.04041015625 339.8328125 355.63208984375 338.6640625 356.24169921875 C337.1431431796455 357.0397124423928 335.62231470353487 357.8378988211373 334.1015625 358.63623046875 C333.3577734375 359.02359375 332.613984375 359.41095703125 331.84765625 359.81005859375 C327.4036257767442 362.148005060115 323.11106042732507 364.63179073119363 318.8740234375 367.326416015625 C316.69483670658343 368.7062674484106 314.47638900124264 370.0002067180535 312.2265625 371.26123046875 C311.486640625 371.68017578125 310.74671875 372.09912109375 309.984375 372.53076171875 C308.1015625 373.44873046875 308.1015625 373.44873046875 306.1015625 373.44873046875 C306.1015625 374.10873046875 306.1015625 374.76873046875 306.1015625 375.44873046875 C303.31346029715223 376.95542766683957 300.5205229203898 378.4529285073516 297.7265625 379.94873046875 C296.9325 380.37798828125 296.1384375 380.80724609375 295.3203125 381.24951171875 C294.9400390625 381.4525390625 294.9400390625 381.4525390625 293.015625 382.47998046875 C292.3138916015625 382.85703125 291.612158203125 383.23408203125 290.88916015625 383.62255859375 C289.1015625 384.44873046875 289.1015625 384.44873046875 287.1015625 384.44873046875 C287.1015625 385.10873046875 287.1015625 385.76873046875 287.1015625 386.44873046875 C284.64586075183325 387.787117796218 282.18726333685754 389.11959279044737 279.7265625 390.44873046875 C279.027890625 390.83029296875 278.32921875 391.21185546875 277.609375 391.60498046875 C272.328125 394.44873046875 272.328125 394.44873046875 270.1015625 394.44873046875 C270.1015625 395.10873046875 270.1015625 395.76873046875 270.1015625 396.44873046875 C268.9671875 397.04041015625 267.8328125 397.63208984375 266.6640625 398.24169921875 C265.1431431796455 399.0397124423928 263.62231470353487 399.8378988211373 262.1015625 400.63623046875 C261.3577734375 401.02359375 260.613984375 401.41095703125 259.84765625 401.81005859375 C255.40362577674426 404.148005060115 251.11106042732507 406.63179073119363 246.8740234375 409.326416015625 C244.6948367065835 410.7062674484106 242.47638900124264 412.0002067180535 240.2265625 413.26123046875 C239.486640625 413.68017578125 238.74671875 414.09912109375 237.984375 414.53076171875 C236.1015625 415.44873046875 236.1015625 415.44873046875 234.1015625 415.44873046875 C234.1015625 416.10873046875 234.1015625 416.76873046875 234.1015625 417.44873046875 C232.96718750000002 418.04041015625 231.8328125 418.63208984375 230.6640625 419.24169921875 C229.1431431796455 420.0397124423928 227.62231470353493 420.8378988211373 226.1015625 421.63623046875 C225.3577734375 422.02359375 224.61398437499997 422.41095703125 223.84765625 422.81005859375 C219.3902987014332 425.1550162606047 215.0881480889168 427.64941213979165 210.8388671875 430.352783203125 C208.84235247363586 431.6122484294511 206.80381893244044 432.76549725520016 204.7265625 433.88623046875 C200.6727506897431 436.1106297697628 196.71156767883883 438.46452857336504 192.75390625 440.85498046875 C182.15339841115247 447.22465233657005 171.38681567074434 453.3185081987217 160.62890625 459.41748046875 C153.9352347410508 463.2208744264844 147.30424284372108 467.10899760211345 140.7138671875 471.088623046875 C135.3325119578196 474.33014255017105 129.88866527859628 477.45270578845884 124.42578125 480.55419921875 C121.34583063221103 482.3095177259505 118.28369788057844 484.091555852621 115.2265625 485.88623046875 C110.325587316601 488.7473403055451 105.40945259544662 491.58057351002026 100.4765625 494.38623046875 C99.7767626953125 494.7883374023438 99.076962890625 495.1904443359375 98.35595703125 495.604736328125 C93.33175314337038 498.44873046875 93.33175314337038 498.44873046875 91.1015625 498.44873046875 C91.1015625 499.1087304687501 91.1015625 499.76873046874994 91.1015625 500.44873046875 C90.53437500000001 500.74457031249995 90.53437500000001 500.74457031249995 87.6640625 502.24169921875 C86.1431431796455 503.0397124423928 84.62231470353487 503.8378988211373 83.1015625 504.63623046875 C82.35777343749999 505.0235937499999 81.613984375 505.41095703125006 80.84765625 505.81005859375 C76.49903958480064 508.09780910022437 72.30113302618105 510.5239975692391 68.15576171875 513.160888671875 C64.38509271540482 515.5248391107442 60.519578361443166 517.7269077689352 56.6640625 519.94873046875 C56.266708984374986 520.178828125 56.266708984374986 520.178828125 54.255859375 521.34326171875 C52.666573409594434 522.261400885095 51.074961257706036 523.1755261809869 49.48095703125 524.08544921875 C47.86058590689828 525.0138457258688 46.247178933636775 525.9544794395946 44.64013671875 526.90576171875 C43.85268066406249 527.36337890625 43.06522460937501 527.82099609375 42.25390625 528.29248046875 C41.551286621093766 528.7069140625 40.8486669921875 529.12134765625 40.124755859375 529.54833984375 C38.10156249999997 530.44873046875 38.10156249999997 530.44873046875 34.1015625 530.44873046875 C34.1015625 529.45873046875 34.1015625 528.46873046875 34.1015625 527.44873046875 C33.4415625 527.44873046875 32.78156250000001 527.44873046875 32.1015625 527.44873046875 C31.073203227907584 525.1237442883671 30.07508383078286 522.7963365945441 29.1015625 520.44873046875 C28.792187499999997 519.72685546875 28.482812499999994 519.00498046875 28.1640625 518.26123046875 C28.1015625 516.44873046875 28.1015625 516.44873046875 29.65234375 514.60888671875 C32.61354050688141 511.9971772984064 35.825418272664365 510.04346400887357 39.2265625 508.07373046875 C40.58595017819417 507.2729707411472 41.94532518437188 506.4721895008547 43.3046875 505.67138671875 C43.96146484375001 505.28740722656244 44.618242187500016 504.903427734375 45.294921875 504.5078125 C47.53408701922038 503.19517758167194 49.75600008160012 501.8550535874713 51.9765625 500.51123046875 C62.75564811092133 494.05091756948923 73.58999102029321 487.7009543287214 84.5595703125 481.5693359375 C89.80435227028715 478.6321006189694 94.9704001765113 475.5805088523965 100.1015625 472.44873046875 C106.72432663891664 468.40656063223884 113.43786401411518 464.5572672696035 120.20849609375 460.770263671875 C124.75223685058992 458.2233406489171 129.24160440676252 455.60377171198076 133.6953125 452.90185546875 C140.7219769109072 448.65848020761774 147.8492651437338 444.5825566861585 154.9765625 440.51123046875 C155.56074951171874 440.1775244140625 156.1449365234375 439.843818359375 156.746826171875 439.5 C159.70952662146044 437.80923361152134 162.67498925128984 436.1235462489515 165.64453125 434.44482421875 C172.58447666235907 430.5128927880555 179.41217313917144 426.45621638059754 186.1640625 422.21044921875 C194.10377979490033 417.44873046875 194.10377979490033 417.44873046875 197.1015625 417.44873046875 C197.1015625 416.78873046875 197.1015625 416.12873046875 197.1015625 415.44873046875 C198.21531249999998 414.83126953125 199.32906249999996 414.21380859375 200.4765625 413.57763671875 C202.01823208954966 412.722173236189 203.55989851936 411.8667040593037 205.1015625 411.01123046875 C205.9072265625 410.5647314453125 206.712890625 410.118232421875 207.54296875 409.658203125 C211.63692457240654 407.38618577989683 215.72267834807428 405.10181644832494 219.7890625 402.78076171875 C220.51609374999998 402.36689208984376 221.24312499999996 401.9530224609375 221.9921875 401.526611328125 C223.37963934561083 400.7354104897773 224.76512140833057 399.9407436417687 226.1484375 399.142333984375 C230.87950250907227 396.44873046875 230.87950250907227 396.44873046875 233.1015625 396.44873046875 C233.1015625 395.78873046875 233.1015625 395.12873046875 233.1015625 394.44873046875 C234.20371093749998 393.84287109375 235.305859375 393.23701171875 236.44140625 392.61279296875 C244.26117845002 388.29948522088483 252.04349032327656 383.9392952245538 259.7265625 379.38623046875 C265.4716267957603 375.98603543334923 271.2339435942357 372.62057012804587 277.0390625 369.32373046875 C277.7198486328125 368.93306396484377 278.400634765625 368.5423974609375 279.10205078125 368.139892578125 C283.8677140756422 365.44873046875 283.8677140756422 365.44873046875 286.1015625 365.44873046875 C286.1015625 364.78873046875 286.1015625 364.12873046875 286.1015625 363.44873046875 C288.8896647028478 361.9420332706604 291.68260207961015 360.4445324301484 294.4765625 358.94873046875 C295.270625 358.51947265625 296.0646875 358.09021484375 296.8828125 357.64794921875 C297.2630859375 357.444921875 297.2630859375 357.444921875 299.1875 356.41748046875 C299.8892333984375 356.0404296875 300.590966796875 355.66337890625 301.31396484375 355.27490234375 C303.10156250000006 354.44873046875 303.10156250000006 354.44873046875 305.1015625 354.44873046875 C305.1015625 353.78873046875 305.1015625 353.12873046875 305.1015625 352.44873046875 C307.5572642481668 351.110343141282 310.0158616631424 349.77786814705263 312.4765625 348.44873046875 C313.175234375 348.06716796875 313.87390625 347.68560546875 314.59375 347.29248046875 C319.875 344.44873046875 319.875 344.44873046875 322.1015625 344.44873046875 C322.1015625 343.78873046875 322.1015625 343.12873046875 322.1015625 342.44873046875 C323.2359375 341.85705078125 324.3703125 341.26537109375 325.5390625 340.65576171875 C327.0599818203545 339.8577484951072 328.58081029646513 339.0595621163627 330.1015625 338.26123046875 C330.8453515625 337.8738671875 331.589140625 337.48650390625 332.35546875 337.08740234375 C336.7994992232557 334.74945587738506 341.09206457267493 332.2656702063064 345.3291015625 329.571044921875 C347.5082882934165 328.1911934890894 349.72673599875725 326.89725421944655 351.9765625 325.63623046875 C352.716484375 325.21728515625 353.45640625 324.79833984375 354.21875 324.36669921875 C356.10156250000006 323.44873046875 356.10156250000006 323.44873046875 358.1015625 323.44873046875 C358.1015625 322.78873046875 358.1015625 322.12873046875 358.1015625 321.44873046875 C359.2359375 320.85705078125 360.3703125 320.26537109375 361.5390625 319.65576171875 C363.0599818203545 318.8577484951072 364.58081029646513 318.0595621163627 366.1015625 317.26123046875 C366.8453515625 316.8738671875 367.589140625 316.48650390625 368.35546875 316.08740234375 C373.4214934477216 313.42223282886164 378.2801852460691 310.5316823198832 383.1015625 307.44873046875 C389.19173212706767 303.69180764685757 395.38184877828263 300.11081119809415 401.6015625 296.57373046875 C402.30861328125 296.167998046875 403.0156640625 295.762265625 403.744140625 295.34423828125 C408.8690651824036 292.44873046875 408.8690651824036 292.44873046875 411.1015625 292.44873046875 C411.1015625 291.78873046875 411.1015625 291.12873046875 411.1015625 290.44873046875 C412.2359375 289.85705078125 413.37031249999995 289.26537109375 414.5390625 288.65576171875 C416.05998182035455 287.8577484951072 417.5808102964652 287.0595621163627 419.1015625 286.26123046875 C419.8453515625 285.8738671875 420.589140625 285.48650390625 421.35546875 285.08740234375 C434.2426892201835 278.3076037485665 434.2426892201835 278.3076037485665 438.1015625 274.44873046875 C436.1215625 273.45873046875 434.14156249999996 272.46873046875 432.1015625 271.44873046875 C432.1015625 270.78873046875 432.1015625 270.12873046875 432.1015625 269.44873046875 C431.21984375 269.18060546875 430.338125 268.91248046875 429.4296875 268.63623046875 C426.2620388211252 267.5059896255834 423.7170654219418 266.19149247975554 420.8515625 264.44873046875 C414.83997057139527 260.85680429140865 408.73929516706653 257.45196524188646 402.5966796875 254.08935546875 C398.28022361146355 251.71156536022704 394.08597571726045 249.20501277846859 389.9228515625 246.56884765625 C387.55015236824045 245.10960584616112 385.1058342219746 243.85358477804323 382.6015625 242.63623046875 C381.745625 242.21728515625 380.8896875 241.79833984375 380.0078125 241.36669921875 C379.37875 241.06376953125 378.7496875 240.76083984374998 378.1015625 240.44873046875 C378.1015625 239.78873046875003 378.1015625 239.12873046875 378.1015625 238.44873046875 C377.3964453125 238.18189453125 376.691328125 237.91505859375002 375.96484375 237.64013671875 C366.03513279364654 233.50840160048563 356.69608997870256 227.56189897528367 347.33984375 222.26904296875 C345.61115411708647 221.2973066974138 343.87529060271993 220.33559452010996 342.1015625 219.44873046875 C342.1015625 218.78873046875 342.1015625 218.12873046875 342.1015625 217.44873046875 C341.2391796875 217.17931640625 340.376796875 216.90990234375 339.48828125 216.63232421875 C336.14822604720877 215.46503849043887 333.0793780759192 214.0878705464892 329.9140625 212.51123046875 C328.8892578125 212.00720703125 327.864453125 211.50318359375 326.80859375 210.98388671875 C324.10156249999994 209.44873046874997 324.10156249999994 209.44873046874997 322.6796875 207.99560546875 C320.1993516204135 205.56438515113553 317.10365218295624 204.20322521815913 314.0390625 202.63623046875 C308.6871370665334 199.847497561889 303.47894114685135 196.92443496581464 298.33203125 193.76904296875 C295.00917072973647 191.802095760608 291.5796528688213 190.12336657225654 288.1015625 188.44873046875 C288.1015625 187.78873046875 288.1015625 187.12873046875 288.1015625 186.44873046875 C287.69937500000003 186.33529296875 287.69937500000003 186.33529296875 285.6640625 185.76123046875 C282.65553204209664 184.65282451057507 280.1533198827001 183.43506637732656 277.37890625 181.86669921875 C276.57573974609375 181.41447998046874 275.7725732421875 180.9622607421875 274.945068359375 180.496337890625 C274.33671142578123 180.15062744140624 273.7283544921875 179.8049169921875 273.1015625 179.44873046875 C273.1120361328125 180.52243896484376 273.122509765625 181.5961474609375 273.13330078125 182.702392578125 C273.16976258549516 186.72237759951636 273.19255737379456 190.74234827942004 273.21142578125 194.762451171875 C273.22142411345305 196.49554917487504 273.2350272275147 198.22863056830323 273.25244140625 199.961669921875 C273.2769633397478 202.46651330534024 273.28810745983134 204.97113183038974 273.296875 207.47607421875 C273.3071975708008 208.23895248413086 273.31752014160156 209.00183074951173 273.3281555175781 209.78782653808594 C273.3292669353407 215.23292148763593 272.4727621521549 220.18436743598687 271.1015625 225.44873046875 C270.4415625 225.44873046875 269.7815625 225.44873046875 269.1015625 225.44873046875 C268.9159375 226.27373046875 268.7303125 227.09873046874998 268.5390625 227.94873046875 C265.41150348511775 235.56365676585472 259.4135315235822 240.8652853321928 252.1015625 244.44873046875 C246.9054100149338 246.39728765064984 242.56670254759206 246.64048976866547 237.1015625 246.44873046875 C236.93140625 247.06619140625003 236.76125000000002 247.68365234375 236.5859375 248.31982421875 C232.10044037544418 263.9952051274371 232.10044037544418 263.9952051274371 226.1015625 269.44873046875 C225.27056095643115 270.6022918219936 224.45955762216232 271.77040331904703 223.6640625 272.94873046875 C221.4928968195917 276.069366156187 219.15702860950898 278.15713088661823 216.1015625 280.44873046875 C215.3796875 281.23248046875 214.65781249999998 282.01623046875 213.9140625 282.82373046875 C210.0366176865806 286.44267896127474 205.71254951493222 288.8680075038034 201.1015625 291.44873046875 C200.4866796875 291.82126953125 199.87179687499997 292.19380859375 199.23828125 292.57763671875 C182.12912082990823 302.251330526119 159.81507171954638 302.0188103707516 141.25390625 297.51513671875 C121.64083150688154 291.6535249289245 105.37613630031422 278.08280203699127 95.3125 260.28466796875 C88.16842213154973 245.82054972277433 87.64508898629558 231.68490246518832 87.703125 215.92138671875 C87.70109809640263 213.95950716500627 87.6981815655858 211.9976283518273 87.69442749023438 210.03575134277344 C87.69003207530096 205.94522859108167 87.69634403497508 201.8549038262054 87.71044921875 197.764404296875 C87.72752787480772 192.56242864729316 87.71769027348904 187.36091799076775 87.69973182678223 182.1589593887329 C87.68880852670122 178.11364846049162 87.69237938000819 174.0684448612445 87.70011520385742 170.02313041687012 C87.70209427762325 168.1068865993537 87.69974014000422 166.19063253172143 87.69267654418945 164.27440071105957 C87.64884828789548 149.04679332518373 88.29153520375698 134.8936885774314 95.9765625 121.32373046875 C96.39808593750001 120.52708984374999 96.819609375 119.73044921874998 97.25390625 118.90966796875 C99.720265280815 114.38423855441056 102.29662289062117 110.9845103629959 106.1015625 107.44873046875 C106.74867187500001 106.60955078125 107.39578125 105.77037109374999 108.0625 104.90576171875 C110.36552694292874 102.13065837181097 112.7975556115311 100.23232569486453 115.7265625 98.13623046875 C116.688203125 97.43884765625 117.64984375 96.74146484375001 118.640625 96.02294921875 C121.1015625 94.44873046875 121.1015625 94.44873046875 123.1015625 94.44873046875 C123.1015625 93.78873046875 123.1015625 93.12873046875 123.1015625 92.44873046875 C125.2867906588981 91.4849266483206 127.47451636217309 90.52763608097449 129.6640625 89.57373046875 C129.968603515625 89.4390234375 129.968603515625 89.4390234375 131.509765625 88.75732421875 C137.20276285182842 86.28734658594612 142.7949093802739 84.06650906755448 149.1015625 84.44873046875 C149.1015625 83.78873046875 149.1015625 83.12873046875 149.1015625 82.44873046875 C162.29654410830972 80.68939958764204 174.5486054816323 80.82091221313057 187.1015625 85.44873046875 C188.11605468749997 85.79935546875 189.130546875 86.14998046875 190.17578125 86.51123046875 C197.87256016381792 89.28024915490461 204.40184611454117 92.77891245439565 211.1015625 97.44873046875 C211.45541015624997 97.67302734375 211.45541015624997 97.67302734375 213.24609375 98.80810546875 C219.58014778652705 103.05579456622374 223.9963816394622 109.10090450847395 228.1015625 115.44873046875 C228.1015625 116.10873046875 228.1015625 116.76873046875 228.1015625 117.44873046875 C228.76156249999997 117.44873046875 229.4215625 117.44873046875 230.1015625 117.44873046875 C231.2159166838175 119.88199152218169 232.3179388461881 122.31976389979673 233.4140625 124.76123046875 C233.72279296875 125.4321875 234.03152343750003 126.10314453125 234.349609375 126.79443359375 C239.87460470601565 139.182054704343 240.5145297056868 150.3217240631823 240.39453125 163.67919921875 C240.3889257517347 165.52435458082624 240.38466016887116 167.36951445258532 240.3816680908203 169.2146759033203 C240.37029435039165 174.03647509177117 240.34089273144298 178.85799682211123 240.30755615234375 183.6796875 C240.27669291343915 188.6137313697668 240.2631282405938 193.54782071343422 240.248046875 198.48193359375 C240.21601485004146 208.13765346970675 240.1649104697085 217.79316876382083 240.1015625 227.44873046875 C241.56237182508767 226.8295396848651 243.02013704526934 226.20316355170928 244.4765625 225.57373046875 C245.28867187499998 225.22568359374998 246.10078125 224.87763671875 246.9375 224.51904296875 C249.54106346987209 223.2313599529649 250.80084339475525 222.0501686792395 252.1015625 219.44873046875 C253.2937431732306 215.8066446440891 253.23518922234496 212.31201745093276 253.246826171875 208.499755859375 C253.25018478393554 207.80804290771485 253.25354339599608 207.1163299560547 253.2570037841797 206.40365600585938 C253.26649587587775 204.11788122420393 253.26845677313014 201.83217998863972 253.26953125 199.54638671875 C253.27274771356468 197.946568507701 253.2761120771222 196.34675058781073 253.2796173095703 194.74693298339844 C253.28560613231377 191.3886547872171 253.28745773030715 188.0304022998327 253.286865234375 184.672119140625 C253.28676423866847 180.40242465031739 253.30035228918683 176.13289880767996 253.31763744354248 171.86324405670166 C253.32885341294724 168.55404428711884 253.3307814368531 165.2448838537826 253.33025550842285 161.93566703796387 C253.33142369435893 160.36385968591097 253.3357789330816 158.79205091559137 253.3435878753662 157.22026252746582 C253.386052552438 147.7808412241698 252.78558864088302 138.7632429977776 251.1015625 129.44873046875 C250.73488509027686 126.78482487066668 250.41576254591826 124.11943085905494 250.1015625 121.44873046875 C249.44156249999997 121.44873046875 248.7815625 121.44873046875 248.1015625 121.44873046875 C247.7986328125 120.61470703125002 247.49570312499998 119.78068359374998 247.18359375 118.92138671875 C240.75808678320652 101.66148646640943 240.75808678320652 101.66148646640943 234.1015625 95.44873046875 C233.66843749999998 94.66498046875 233.23531249999996 93.88123046875 232.7890625 93.07373046875 C230.84022644404092 90.04220771503581 228.62705508544929 88.18378809069293 225.85546875 85.92138671875 C224.10156250000006 84.44873046875006 224.10156250000006 84.44873046875006 221.6640625 81.88623046875 C218.8739515914271 79.232222531327 216.00981685379236 77.45396907617007 212.67578125 75.56201171875 C212.15628906250004 75.19462890625 211.63679687499996 74.82724609375 211.1015625 74.44873046875 C211.1015625 73.78873046875 211.1015625 73.12873046875 211.1015625 72.44873046875 C209.43531864361677 71.78100774689055 207.7685413860156 71.11461605637035 206.1015625 70.44873046875 C205.15281249999998 70.06974609375 204.20406249999996 69.69076171875 203.2265625 69.30029296875 C189.9282349737606 64.08069941470104 177.76749083999562 60.24729532353891 163.4140625 60.32373046875 C162.537177734375 60.32566406250001 161.66029296875 60.32759765624999 160.7568359375 60.32958984375 C154.17021441778022 60.373258052720516 147.64941004353753 60.703447008509954 141.1015625 61.44873046875 C141.1015625 62.10873046875 141.1015625 62.76873046874999 141.1015625 63.44873046875 C140.0509765625 63.75166015625 139.000390625 64.05458984375 137.91796875 64.36669921875 C128.01675460547057 67.29187021914191 119.92744360852419 70.79292469975724 111.4140625 76.69873046875 C107.94658522129396 79.02440413748351 105.40031583803753 80.54218162827256 101.1015625 80.44873046875 C97.60156250000006 79.19873046875003 97.60156250000006 79.19873046875003 94.1015625 77.44873046875 C92.9671875 76.89185546875 91.83281249999999 76.33498046875 90.6640625 75.76123046875 C89.81843750000002 75.32810546875 88.9728125 74.89498046875 88.1015625 74.44873046875 C88.1015625 73.78873046875 88.1015625 73.12873046875 88.1015625 72.44873046875 C87.4041796875 72.18576171875 86.70679687500001 71.92279296875 85.98828125 71.65185546875 C75.81731323004004 67.4128051979142 66.37003927574096 61.32090346439759 57.015625 55.54248046875 C49.77087805415323 51.068289955875514 42.48157599423155 46.69615396543007 35.1015625 42.44873046875 C34.5006982421875 42.10245605468751 33.89983398437499 41.756181640625 33.28076171875 41.3994140625 C21.040091137818067 34.350421992402346 21.040091137818067 34.350421992402346 17.1015625 32.44873046875 C17.1015625 31.788730468750003 17.1015625 31.128730468750007 17.1015625 30.44873046875 C16.4003125 30.180605468750002 15.699062499999997 29.912480468750005 14.9765625 29.63623046875 C11.953212135162175 28.387455318056112 9.02732213545272 26.91161028647636 6.1015625 25.44873046875 C6.1015625 184.50873046875 6.1015625 343.56873046875 6.1015625 507.44873046875 C0.49156250000000057 507.44873046875 -5.118437499999999 507.44873046875 -10.8984375 507.44873046875 C-10.983723148839687 459.6601910393962 -11.06361338588627 411.8716478516255 -11.110153198242188 364.0830535888672 C-11.110843483591452 363.3760556279961 -11.111533768940717 362.669057667125 -11.112244972027838 361.9406355256215 C-11.12720862000161 346.57661044239154 -11.14105965660626 331.21258454456375 -11.153764147311449 315.8485574312508 C-11.160000969769158 308.3143213102556 -11.166483719245647 300.7800854098078 -11.173095703125 293.245849609375 C-11.173749498417607 292.49609237267634 -11.1744032937102 291.7463351359777 -11.175076900981367 290.9738579830155 C-11.196393368104111 266.66086749203356 -11.23395713946016 242.34793500547164 -11.279923603869975 218.03497967217118 C-11.327064404556609 193.05558466137498 -11.357859560255918 168.0762217658963 -11.368012450402603 143.09678302309476 C-11.369453278655357 139.57068330519067 -11.37108146406014 136.04458369678753 -11.372823715209961 132.5184841156006 C-11.373160830256523 131.82447968934196 -11.3734979453031 131.13047526308335 -11.373845275957137 130.41544039966539 C-11.379759753750506 119.23234842940136 -11.402965827990016 108.04935560158401 -11.432597669772804 96.86630410235375 C-11.462001692348437 85.63052010472512 -11.472879989216082 74.39483277230559 -11.46594438701868 63.15900216251612 C-11.462731099796954 57.06829198536764 -11.467773767819963 50.977873431317306 -11.494464874267578 44.88721466064453 C-11.518700496931572 39.31640754888659 -11.520088085510338 33.74608965030302 -11.502931974828243 28.175260566174984 C-11.500809945813558 26.15498674270762 -11.507234198172029 24.134683051707796 -11.522853411734104 22.11446849256754 C-11.542795306097986 19.377003096697358 -11.532183925819808 16.64132509739646 -11.513676643371582 13.903889656066895 C-11.520244177430868 13.507766484469172 -11.520244177430868 13.507766484469172 -11.553479880094528 11.503143161535263 C-11.49230593525182 7.524432676718035 -11.051517445519934 5.647824885361061 -8.598266303539276 2.457148253917694 C-5.636451436463929 0.2538375671030053 -3.6900248488937564 -0.24962949001177037 0 0 Z M143.1015625 103.44873046875 C143.1015625 104.10873046875 143.1015625 104.76873046875 143.1015625 105.44873046875 C142.39 105.55701171875 141.6784375 105.66529296875001 140.9453125 105.77685546875 C133.72136968696995 107.48361118831204 126.89283567100873 111.83609618271123 122.1015625 117.44873046875 C121.5653125 118.03009765625 121.02906250000001 118.61146484375001 120.4765625 119.21044921875 C116.1015625 124.04117838541666 116.1015625 124.04117838541666 116.1015625 127.44873046875 C115.11156249999999 127.77873046874998 114.12156249999998 128.10873046875 113.1015625 128.44873046875 C112.00390625 130.45263671875 112.00390625 130.45263671875 111.0390625 133.01123046875 C110.7180859375 133.83751953125 110.39710937500001 134.66380859375 110.06640625 135.51513671875 C107.82967115090065 142.31589809293462 106.80287345970527 148.27540413972815 106.81103515625 155.396484375 C106.80431793212892 156.25298583984375 106.79760070800779 157.1094873046875 106.79067993164063 157.991943359375 C106.77179713198035 160.8031201588003 106.76778018744722 163.61405681806238 106.765625 166.42529296875 C106.75918864938961 168.3981434562959 106.75245967877493 170.37099300872438 106.74545288085938 172.34384155273438 C106.7335031327193 176.47436736179327 106.7297695156206 180.60480969868013 106.73095703125 184.7353515625 C106.73115969679111 189.99371169173457 106.70390123616153 195.25152820763503 106.66941261291504 200.5097599029541 C106.64702380148682 204.58505647112594 106.64312319678976 208.66022489554044 106.6441764831543 212.73557662963867 C106.6418368370646 214.67220297382792 106.63310710203541 216.60883374915704 106.61751174926758 218.5453987121582 C106.52433379597568 231.31450056104734 106.43640316517534 244.52202833300953 114.1015625 255.44873046875 C114.7615625 255.44873046875 115.4215625 255.44873046875 116.1015625 255.44873046875 C116.3696875 256.00560546875 116.6378125 256.56248046875 116.9140625 257.13623046875 C117.11000000000001 257.51779296875 117.11000000000001 257.51779296875 118.1015625 259.44873046875 C118.4934375 260.25310546875 118.8853125 261.05748046875 119.2890625 261.88623046875 C121.31691682602468 264.75319692968145 123.36781211422107 266.25397910076316 126.28515625 268.14013671875 C128.1015625 269.44873046875 128.1015625 269.44873046875 130.03125 271.44482421875 C135.7938159602619 277.022553157645 144.183472132733 278.9253122954773 151.7890625 280.76123046875 C152.48926513671876 280.93267578125 153.1894677734375 281.10412109375 153.910888671875 281.28076171875 C162.21766500417448 283.1551312754564 169.21904021620128 282.5352203468601 177.3515625 280.32373046875 C178.1805908203125 280.10072265625 179.00961914062498 279.87771484375 179.86376953125 279.64794921875 C189.05344088101708 277.06061806680316 197.68213516468518 273.8407983094156 204.1015625 266.44873046875 C204.89046874999997 265.86478515625004 205.679375 265.28083984374996 206.4921875 264.67919921875 C209.43514336531342 262.1635887410645 211.00505895820163 259.7425831010622 212.9140625 256.38623046875 C213.51863281250002 255.34337890625 214.12320312500003 254.30052734375 214.74609375 253.22607421875 C216.1015625 250.44873046875 216.1015625 250.44873046875 216.1015625 247.44873046875 C216.76156249999997 247.11873046874996 217.4215625 246.78873046875003 218.1015625 246.44873046875 C212.33585434766246 246.3250926256839 206.57091828179443 246.23437341025277 200.80419921875 246.174072265625 C198.84279946927484 246.14893443189186 196.88149333751113 246.1148188139058 194.92041015625 246.071533203125 C192.10035105863938 246.0108483871005 189.2815305644816 245.98251405725915 186.4609375 245.96044921875 C185.58475769042968 245.93464279174805 184.70857788085937 245.9088363647461 183.80584716796875 245.8822479248047 C177.67200062381318 245.87942484071567 177.67200062381318 245.87942484071567 174.64208984375 248.9033203125 C174.1337158203125 249.74330566406252 173.62534179687498 250.58329101562504 173.1015625 251.44873046875 C168.570516699012 254.1902776362739 164.03349386348157 254.76082418989267 158.8515625 253.94873046875 C153.0229498192308 252.49157729855767 150.3683637102054 249.3489322840581 147.1015625 244.44873046875 C145.16426346544148 239.4293647883029 144.7277314626038 236.40033921899328 146.4765625 231.26123046875 C148.46024752439678 226.98411558225996 150.56693713289297 224.41720365830304 154.76171875 222.22998046875 C160.0742367837405 220.456184798052 165.38546384885967 220.2295232467525 170.546875 222.54638671875 C172.91210329156013 224.00028152879503 175.1338550622031 225.4810230309531 177.1015625 227.44873046875 C178.48316364587254 227.5415137689692 179.86944287502126 227.566200895032 181.254150390625 227.562255859375 C182.13498794555665 227.56218032836915 183.0158255004883 227.5621047973633 183.92335510253906 227.56202697753906 C184.40199760437008 227.55944633483887 184.40199760437008 227.55944633483887 186.82421875 227.54638671875 C187.79942977905273 227.54497177124023 188.77464080810546 227.54355682373046 189.77940368652344 227.54209899902344 C192.90765392775154 227.53648179573327 196.03583373254344 227.52392639682068 199.1640625 227.51123046875 C201.27929584459366 227.50621768427766 203.3945303060566 227.5016543944605 205.509765625 227.49755859375 C210.70705546134803 227.48650678235697 215.90430395060798 227.4697519307221 221.1015625 227.44873046875 C221.1712417188956 216.91273749640936 221.2244645792399 206.37679984662157 221.2569990158081 195.8406229019165 C221.27261824709137 190.94762055500547 221.29378784077272 186.05477650170772 221.327880859375 181.161865234375 C221.3606081839302 176.43507785073317 221.3784436356155 171.70844220907935 221.38619422912598 166.9815502166748 C221.3917138067111 165.1831314191556 221.4024919681546 163.38472040801162 221.4187526702881 161.58636665344238 C221.52589295671862 149.24000834778028 220.24022851055594 139.78319872253473 214.3515625 128.76123046875 C214.00375732421878 128.1091259765625 213.6559521484375 127.45702148437499 213.297607421875 126.78515625 C211.01589598229748 122.67983759809599 208.74478080584163 119.45465494082777 204.83984375 116.72216796875 C203.1015625 115.44873046875 203.1015625 115.44873046875 200.90625 113.06201171875 C197.51114343495243 109.89860462680457 194.107683739847 108.16435049283683 189.9140625 106.26123046875 C189.15375732421876 105.91318359375 188.39345214843752 105.56513671875001 187.610107421875 105.20654296875 C172.85720770997602 98.6378139787841 158.5252637145128 99.51076420121481 143.1015625 103.44873046875 Z " fill="#BC02F6" transform="translate(98.8984375,34.55126953125)"/>
<path d="M0 0 C0.5072460937499841 0.17531250000000398 0.5072460937499841 0.17531250000000398 3.07421875 1.0625 C10.770997663817923 3.8315186861546096 17.300283614541172 7.330181985645666 24 12 C24.707695312499993 12.448593749999986 25.415390624999986 12.897187500000001 26.14453125 13.359375 C32.47858528652705 17.60706409747374 36.894819139462186 23.652174039723945 41 30 C41 30.659999999999997 41 31.319999999999993 41 32 C41.65999999999997 32 42.31999999999999 32 43 32 C44.114354183817454 34.43326105343161 45.2163763461881 36.871033431046754 46.3125 39.3125 C46.621230468750014 39.98345703125 46.92996093750003 40.654414062499995 47.248046875 41.345703125 C52.758029171892986 53.699663432770535 53.425457457021594 64.83738372558565 53.328125 78.16015625 C53.32506206495839 80.00052230889258 53.32319001287169 81.84089069684035 53.32244873046875 83.68125915527344 C53.317872317535716 87.51473023176854 53.303540938955734 91.3479881068331 53.28125 95.181396484375 C53.25278933970304 100.10099565671453 53.24201751849779 105.02042886307368 53.23756790161133 109.94010257720947 C53.23342082677334 113.72923952127621 53.22361223152109 117.51834285512456 53.211692810058594 121.30746269226074 C53.20599073864986 123.12280445882641 53.20123182227201 124.9381494379918 53.197425842285156 126.75349617004395 C53.19057845915256 129.2785123604572 53.17695803637861 131.803395286077 53.1611328125 134.328369140625 C53.16001495361331 135.08000839233398 53.15889709472657 135.83164764404296 53.157745361328125 136.60606384277344 C53.11470833140004 141.77058333720004 53.11470833140004 141.77058333720004 52 144 C46.06 144 40.120000000000005 144 34 144 C33.99270874023438 142.75126098632813 33.99270874023438 142.75126098632813 33.955810546875 136.431884765625 C33.905354963952846 128.15766338848658 33.8387406833578 119.88362803569373 33.76428508758545 111.60958957672119 C33.71965781282495 106.59561855301143 33.68038494076876 101.58172735495322 33.653564453125 96.567626953125 C33.62745511766809 91.72397916356098 33.58699904953306 86.88063981565654 33.536813735961914 82.03718376159668 C33.52019650024221 80.19417103571794 33.50865032037814 78.3511050227458 33.50238609313965 76.50802803039551 C33.49268874714687 73.9159158296265 33.46456347123103 71.32458363759906 33.432373046875 68.732666015625 C33.43380813598634 67.97956146240233 33.43524322509768 67.22645690917969 33.43672180175781 66.45053100585938 C33.28970717900995 58.0180910719358 30.17861366008742 50.66662620748491 26.25 43.3125 C25.902919921874968 42.66112060546874 25.555839843749993 42.009741210937506 25.1982421875 41.338623046875 C22.461688877959375 36.41145756802737 19.631192166833614 33.29527134947776 15 30 C14.440546874999995 29.377382812500002 13.881093749999991 28.754765625000005 13.3046875 28.11328125 C10.163277497546119 25.232768010461797 6.725069277480486 23.646073876034677 2.875 21.875 C2.1101831054687636 21.52244140625001 1.3453662109375273 21.169882812499992 0.557373046875 20.806640625 C-11.792666393462753 15.26712107953 -24.68204879921052 14.310947145198497 -37.9140625 17.5625 C-40 18 -40 18 -44 18 C-44 18.659999999999997 -44 19.319999999999993 -44 20 C-44.54849609375 20.25974609375001 -44.54849609375 20.25974609375001 -47.32421875 21.57421875 C-48.77890942598117 22.278101335152172 -50.233321926330945 22.982559019117787 -51.6875 23.6875 C-52.04811523437502 23.857333984375003 -52.04811523437502 23.857333984375003 -53.873046875 24.716796875 C-58.37993441798045 26.91879215855667 -61.62275678403395 29.19370592175153 -65 33 C-65.51046875 33.559453125000005 -66.0209375 34.11890625000001 -66.546875 34.6953125 C-68.59515185917377 37.12930383265456 -69.98493841680721 38.9548152504216 -71 42 C-71.471796875 42.446015625 -71.94359374999999 42.89203125 -72.4296875 43.3515625 C-74.47799845741707 45.501779475199015 -75.15227325245633 47.57936800902806 -76.125 50.375 C-76.457578125 51.31085937500001 -76.79015625 52.246718750000014 -77.1328125 53.2109375 C-78.84223869488082 58.708821748400425 -79.15776160935056 63.871393453213244 -79.177001953125 69.607177734375 C-79.18357315063477 70.46324111938475 -79.19014434814454 71.31930450439455 -79.19691467285156 72.20130920410156 C-79.21658847636218 75.02873841570576 -79.22830082541992 77.85611449228048 -79.23828125 80.68359375 C-79.24235677719116 81.65446489334107 -79.24643230438232 82.62533603668214 -79.25063133239746 83.6256275177002 C-79.27147291215434 88.77051706645432 -79.2857795176065 93.91538014378096 -79.295166015625 99.060302734375 C-79.30619010615209 104.34225803509014 -79.34054919937952 109.62378739159678 -79.38033771514893 114.905592918396 C-79.40664779937455 118.99374607272642 -79.41487083989372 123.08180025013405 -79.41844749450684 127.17003059387207 C-79.4232810831765 129.11504027523202 -79.4348013837533 131.060046513697 -79.4534854888916 133.00497245788574 C-79.5750441241253 146.5041636215555 -78.16128526086541 157.37954671105047 -73 170 C-72.34 170 -71.68 170 -71 170 C-69.73828125 171.79296875 -69.73828125 171.79296875 -68.3125 174.1875 C-65.40919843205677 178.7467587585479 -62.469370854214816 181.05021523621826 -58 184 C-58 184.65999999999997 -58 185.32 -58 186 C-57.64937499999999 186.13986328124997 -57.64937499999999 186.13986328124997 -55.875 186.84765625 C-53.9547151103024 187.61733565551737 -52.03802050168329 188.39603232063854 -50.125 189.18359375 C-36.277334335692814 194.73996959780322 -24.179520192551934 197.79632118386718 -9.625 193.8125 C-8.79299072265627 193.59053955078127 -7.960981445312484 193.3685791015625 -7.103759765625 193.139892578125 C-1.6390266094560957 191.62057606983802 3.3407704702802903 189.7420906804199 8.28515625 186.91796875 C10 186 10 186 12 186 C12.329999999999984 185.01 12.659999999999968 184.01999999999998 13 183 C14.6015625 181.81640625 14.6015625 181.81640625 16.625 180.5625 C23.54930778466172 175.60589119011627 26.91423149745799 167.71442125635497 30 160 C36.60000000000002 160 43.19999999999999 160 50 160 C47.72191780821913 170.25136986301374 47.72191780821913 170.25136986301374 45.625 174.8125 C45.22539062499999 175.7058203125 44.82578124999998 176.59914062500002 44.4140625 177.51953125 C42.90358106081567 180.16913266956368 41.19884573763443 181.90483264685133 39 184 C38.158270642214575 185.14575697656755 37.34300377081922 186.3116897606904 36.5625 187.5 C34.39133431959169 190.62063568743702 32.055466109508984 192.7084004178683 29 195 C28.27812499999999 195.78375 27.556249999999977 196.5675 26.8125 197.375 C22.93505518658054 200.99394849252485 18.610987014932334 203.41927703505337 14 206 C13.385117187499986 206.37253906249998 12.770234374999973 206.74507812499996 12.13671875 207.12890625 C-4.972441670091769 216.80260005736898 -27.28649078045362 216.57007990200157 -45.84765625 212.06640625 C-65.46073099311849 206.20479446017453 -81.72542619968581 192.63407156824127 -91.7890625 174.8359375 C-98.93314036845024 160.3718192540244 -99.45647351370442 146.23617199643832 -99.3984375 130.47265625 C-99.40046440359734 128.51077669625627 -99.4033809344142 126.5488978830773 -99.40713500976563 124.58702087402344 C-99.41153042469904 120.49649812233167 -99.40521846502492 116.40617335745543 -99.39111328125 112.315673828125 C-99.37403462519228 107.11369817854313 -99.38387222651099 101.91218752201775 -99.40183067321777 96.71022891998291 C-99.41275397329878 92.66491799174167 -99.40918311999181 88.61971439249442 -99.40144729614258 84.57439994812012 C-99.39946822237675 82.65815613060369 -99.40182235999578 80.74190206297143 -99.40888595581055 78.82567024230957 C-99.45271421210455 63.59806285643373 -98.81002729624302 49.44495810868136 -91.125 35.875 C-90.70347656249999 35.07835937499999 -90.281953125 34.28171875000001 -89.84765625 33.4609375 C-87.38129721918503 28.935508085660587 -84.80493960937878 25.535779894245877 -81 22 C-80.35289062499999 21.160820312499993 -79.70578125 20.321640624999986 -79.0390625 19.45703125 C-76.73603555707126 16.681927903060966 -74.3040068884689 14.783595226114556 -71.375 12.6875 C-70.413359375 11.990117187500005 -69.45171875 11.292734375000009 -68.4609375 10.57421875 C-66 9 -66 9 -64 9 C-64 8.340000000000003 -64 7.680000000000007 -64 7 C-61.81477184110193 6.036196179570609 -59.62704613782685 5.07890561222446 -57.4375 4.125 C-56.82841796874999 3.8555859374999955 -56.219335937500006 3.586171875000005 -55.591796875 3.30859375 C-49.898799648171575 0.8386161171961248 -44.30665311972609 -1.3822214011955225 -38 -1 C-38 -1.6599999999999966 -38 -2.319999999999993 -38 -3 C-24.80501839169034 -4.759330881107957 -12.552957018367692 -4.627818255619431 0 0 Z " fill="#FEFEFE" transform="translate(286,120)"/>
<path d="M0 0 C0.9640955007076286 -0.0034176993369783304 1.9281910014152572 -0.006835398674013504 2.9215015172958374 -0.010356664657592773 C6.124522645302562 -0.016900541510381117 9.32668976275616 0.004982852683326655 12.529632568359375 0.02691650390625 C14.8364967879983 0.02804573489441964 17.143362444197606 0.027409645172440378 19.450225830078125 0.025146484375 C25.69336306373839 0.024001376881244596 31.936191323037008 0.047478190360436656 38.17925691604614 0.07544231414794922 C44.71085819979777 0.10048962851135457 51.24246698605691 0.1028006052499677 57.77410888671875 0.1075439453125 C68.7307570311961 0.11788769216127548 79.687297263359 0.1435189219505446 90.64389038085938 0.17926025390625 C101.92513467097353 0.2160221728560714 113.20634821977649 0.24431340694911796 124.48764038085938 0.26129150390625 C124.83580524601041 0.2618169508874644 124.83580524601041 0.2618169508874644 126.5977304726839 0.2644760310649872 C130.09129660948707 0.2696964896566669 133.58486296266426 0.27475124780897886 137.0784294605255 0.2797236442565918 C166.0236664469992 0.321135497669502 194.9687800930156 0.3926470043086283 223.91390991210938 0.48101806640625 C223.91390991210938 6.421018066406248 223.91390991210938 12.361018066406245 223.91390991210938 18.48101806640625 C221.09002212524416 18.486884307861317 218.26613433837895 18.492750549316384 215.35667419433594 18.498794555664063 C189.44377176982198 18.554004069858365 163.5309415380077 18.62398118449471 137.61812252178788 18.710004348307848 C134.21989251302352 18.721272120572678 130.8216620920614 18.732410635935366 127.42343139648438 18.74346923828125 C127.08517701681706 18.744571080021558 127.08517701681706 18.744571080021558 125.37340485304594 18.750147067010403 C114.42843431992253 18.785491562034792 103.48346385441425 18.810371751068544 92.53845746070147 18.83136508613825 C81.30265653583334 18.853149858430925 70.06692933600326 18.886447116500563 58.831187188625336 18.929719626903534 C52.522430656965184 18.953653329257236 46.21375580389088 18.972381220790282 39.90495491027832 18.9786319732666 C33.96487672038353 18.984682034584182 28.02500752494589 19.004679550457297 22.085006713867188 19.035293579101563 C19.90701180930651 19.04407496680824 17.728989594925167 19.047796179946886 15.55097770690918 19.0460262298584 C12.57174410058272 19.044369840994307 9.593144841812943 19.061104388290403 6.6139984130859375 19.082290649414063 C5.75696872293949 19.07744307339192 4.899939032793043 19.072595497369775 4.016938745975494 19.067601025104523 C-2.329269536249228 19.141815037636547 -9.412673825718798 19.807601804234423 -14.086090087890625 24.48101806640625 C-15.925064355859263 28.158966602343526 -16.218699519237674 31.061569404101192 -16.244308471679688 35.11875915527344 C-16.254097290039056 36.292450561523424 -16.263886108398424 37.46614196777341 -16.273971557617188 38.67539978027344 C-16.279727020263664 39.96436660766602 -16.28548248291014 41.25333343505861 -16.291412353515625 42.58135986328125 C-16.300991689250736 43.951246085923685 -16.311001804463473 45.3211293542646 -16.3214111328125 46.691009521484375 C-16.34846027017187 50.41176870749166 -16.36946978240502 54.132540577468035 -16.389413118362427 57.85334372520447 C-16.411272608039695 61.741124970304384 -16.43866148096697 65.62886711565551 -16.465469360351563 69.51661682128906 C-16.51539674238549 76.87947512715778 -16.560335406880398 84.24235513504732 -16.603491723537445 91.6052559018135 C-16.652863704970486 99.98729576022839 -16.707781981911893 108.36929638946339 -16.763171315193176 116.7512983083725 C-16.876992065260595 133.99450220147128 -16.98363417530038 151.2377430343816 -17.086090087890625 168.48101806640625 C-23.356090087890635 168.48101806640625 -29.626090087890617 168.48101806640625 -36.086090087890625 168.48101806640625 C-36.15557635195839 150.0874314806896 -36.20909409471179 131.69389002801432 -36.24152660369873 113.30020046234131 C-36.25698673169859 104.75943466737112 -36.27805989524893 96.21875199179271 -36.312408447265625 87.67803955078125 C-36.34233698856934 80.23279818099456 -36.36167130307513 72.78761701871281 -36.36835557222366 65.34231716394424 C-36.3722619885537 61.40111878147576 -36.38142471743927 57.46009262339169 -36.40328025817871 53.51894950866699 C-36.42370007721266 49.80649469835129 -36.429912856363785 46.094282447591354 -36.42541313171387 42.38177680969238 C-36.426627055534595 40.37564113008449 -36.44274037117671 38.3695316373346 -36.4593505859375 36.36346435546875 C-36.43739256444201 29.950515594089154 -36.24743591188155 25.11808356473307 -33.086090087890625 19.48101806640625 C-32.63749633789064 18.67535400390625 -32.188902587890624 17.86968994140625 -31.726715087890625 17.03961181640625 C-23.94429924408874 5.169241582742131 -14.294416577808448 -0.18897012189739826 0 0 Z " fill="#FFFFFF" transform="translate(173.08609008789063,349.51898193359375)"/>
</svg>
