<?xml version="1.0" encoding="UTF-8"?>
<!-- Generator: visioncortex VTracer 0.6.12 -->
<svg version="1.1" xmlns="http://www.w3.org/2000/svg" width="2500" height="2500">
<path d="M0 0 C1.893945809963725 -0.002392386820702086 3.7878906797509444 -0.005659205198355721 5.681833654642105 -0.009716600179672241 C10.8846224962532 -0.018325605589268434 16.08733906794464 -0.014514691600226115 21.290128999389708 -0.0086608761921525 C26.95110270477062 -0.004487974889684665 32.612063284867986 -0.011894004136848935 38.273033797740936 -0.017813384532928467 C48.19421290360913 -0.026577622303733506 58.115371367421744 -0.027886693625930548 68.03655338287354 -0.02431011199951172 C78.67924599804769 -0.02048353883955656 89.32192663697037 -0.020893219376432626 99.96461772918701 -0.026619911193847656 C100.63743945682711 -0.026978736890583832 101.31026118446721 -0.02733756258734843 102.00347144930856 -0.02770726179005578 C104.74388664412913 -0.029182211722883267 107.48430182066159 -0.030686612256715762 110.22471697852598 -0.03222872797050513 C138.02981082751512 -0.04785694499088322 165.83489549385217 -0.05054342613851759 193.63999295051326 -0.0480726657260675 C197.4808393294452 -0.04773421299702818 201.32168570941758 -0.047412116576765584 205.16253209114075 -0.04710698127746582 C205.92543499458986 -0.047045937785298975 206.68833789803898 -0.04698489429313213 207.47435907128965 -0.04692200099816546 C224.38669885300283 -0.04564972057454497 241.2990373738162 -0.048252186723289014 258.2113767818664 -0.05163304816232994 C262.073885264723 -0.05240379118680494 265.93639375263194 -0.0531485219580361 269.7989022396505 -0.05389806255698204 C271.3491015031834 -0.054199755317796416 272.89930076667974 -0.054501636328325276 274.44950003013946 -0.054803705075755715 C275.2179099762885 -0.05495338492823976 275.9863199224376 -0.05510306478069538 276.7780150184699 -0.055257280386285856 C278.3323045632201 -0.05556081132459667 279.88659410774585 -0.0558654936707228 281.44088365204516 -0.056171324773458764 C325.54020704081904 -0.06484379912851068 369.6395293170224 -0.06948864606647476 413.73885345458984 -0.06522369384765625 C414.5553458989732 -0.06514563697797371 415.37183834335656 -0.06506758010829117 416.2130729830242 -0.06498715787893161 C425.3177007590475 -0.06411436880446786 434.42232852904976 -0.06318510536166855 443.5269562974572 -0.06223652511835098 C444.348960262178 -0.06215101580556848 445.17096422689883 -0.06206550649278597 446.01787740267173 -0.061977405988727696 C452.84780123032624 -0.061266635044347595 452.84780123032624 -0.061266635044347595 455.99061740364414 -0.06093517865519971 C508.57001368368446 -0.05539926287525532 561.1493924073657 -0.0629421674057653 613.7287855148315 -0.08170604705810547 C626.9777164089717 -0.08642830618290986 640.2266473138845 -0.09110883658263447 653.4755783081055 -0.09554290771484375 C653.8834794030086 -0.0956795687953047 653.8834794030086 -0.0956795687953047 655.9477061560028 -0.09637115668738261 C681.0929317295377 -0.1047429988063584 706.2381558410971 -0.10942216666609283 731.3833827972412 -0.11025047302246094 C732.1728810237087 -0.11027683947409628 732.9623792501761 -0.11030320592573162 733.7758016653243 -0.11033037136076018 C751.1074447890617 -0.11087116442880074 768.439087795783 -0.1104986747682517 785.7707308826211 -0.10929065683740191 C791.9723116893942 -0.10886503654194257 798.1738924997323 -0.10849991050986318 804.3754733118112 -0.10816121631069109 C805.9182483663626 -0.1080759135340088 807.4610234207171 -0.10798697832342441 809.0037984748487 -0.10789439670043066 C833.5799730317278 -0.10644601588884939 858.1561356502398 -0.11356932062301439 882.7323073417647 -0.1248983572004363 C908.1740080359627 -0.13655044589640397 933.6156874303454 -0.13710981423128032 959.0573882237077 -0.12505493313074112 C961.7907393043652 -0.1238031222248992 964.5240904018704 -0.12259963555283093 967.2574415206909 -0.12143421173095703 C967.9282442896924 -0.12114391760610488 968.5990470586939 -0.1208536234812243 969.2901771843317 -0.12055453256471083 C980.5466111675785 -0.1159704632705143 991.8030188543134 -0.1232335385298029 1003.0594488636125 -0.1336434476543218 C1012.8550301734685 -0.14187279143968112 1022.6505693471088 -0.13921011103525416 1032.4461472153198 -0.1276681802701205 C1038.0284525511404 -0.12139679639571455 1043.6106482055761 -0.11984962076002148 1049.192947305739 -0.1315315142273903 C1054.2756663342932 -0.14207012863880664 1059.3581827615574 -0.13869471513064013 1064.44089095667 -0.12442698702216148 C1066.2639445085008 -0.12170824144871517 1068.0870143874934 -0.12396337757076026 1069.9100525416434 -0.13193413242697716 C1095.6137955118327 -0.2366074693786402 1117.039048479467 6.478043076352776 1136.0581312179565 24.441975593566895 C1151.5063718539698 40.565795266140526 1158.8167056895206 60.576675016199374 1158.6853293776512 82.783431828022 C1158.6874949686612 83.43691016527242 1158.6874949686612 83.43691016527242 1158.698454171652 86.74390659923665 C1158.7099954829946 90.35505691311386 1158.7030395756542 93.9659644673115 1158.692928403616 97.57711017038673 C1158.6852219659745 101.52664154775005 1158.695046727744 105.47613758170212 1158.7025689184666 109.4256639778614 C1158.7133906338304 116.36880664598488 1158.7130831600548 123.31187972849932 1158.7054958865047 130.25502566248178 C1158.6941917862716 140.64921372220203 1158.7002054543946 151.0433430604968 1158.709559877665 161.43753049927182 C1158.7249926143515 179.15317921798976 1158.7261665729645 196.86880337935122 1158.7195806503296 214.58445644378662 C1158.712954318034 232.53806613374775 1158.7128261482037 250.4916582631039 1158.720627784729 268.44526767730713 C1158.721115783052 269.57913289167277 1158.7216037813748 270.7129981060384 1158.7221065675258 271.88122287235456 C1158.7241147408674 276.49926611643673 1158.7261678435768 281.1173093376202 1158.7282783093106 285.73535253611044 C1158.7496833775303 332.6225605328241 1158.7517320080997 379.50975555051446 1158.7462212695682 426.3969672071107 C1158.7454655646193 432.87655570122286 1158.7447379442833 439.35614419792535 1158.7440392971039 445.83573269844055 C1158.7439697513696 446.4792233122067 1158.7439697513696 446.4792233122067 1158.743617807806 449.73567581217503 C1158.7406662341177 478.24994193921384 1158.743677595308 506.7642065043723 1158.747935586085 535.2784723493387 C1158.7485177426445 539.1803113878746 1158.7490865868135 543.0821504281328 1158.7496512182988 546.9839894692414 C1158.7511661512456 557.4433314795399 1158.752693060216 567.9026734879911 1158.7542442244012 578.3620154929813 C1158.7585518996432 607.6014001224084 1158.7617995892763 636.8407848316589 1158.7641639709473 666.0801696777344 C1158.7642180782184 666.7458151743547 1158.7642721854893 667.4114606709751 1158.7643279323747 668.0972772432506 C1158.7678103819362 711.2068509989302 1158.7664543967646 754.3164231734603 1158.7617740631104 797.4259967803955 C1158.7616241733945 798.8165435755027 1158.7614743695053 800.2070903706194 1158.7613246513647 801.5976371657453 C1158.7596680805111 816.9489012895531 1158.7579164245246 832.3001654022291 1158.7561316415668 847.6514295116067 C1158.756051139811 848.3443612472304 1158.7559706380553 849.0372929828541 1158.7558876968524 849.7512226498602 C1158.755643638655 851.8518887179666 1158.7553994462394 853.952554786058 1158.7551551861688 856.0532208541408 C1158.7551148706752 856.3999669503214 1158.7551148706752 856.3999669503214 1158.7549108498433 858.1547123461451 C1158.7545031629818 861.6587809926639 1158.7540940690028 865.1628496390094 1158.7536824984709 868.6669182850746 C1158.7455035327432 938.3714803377518 1158.743631724946 1008.0760335894652 1158.7741238112358 1132.5542291586607 C1158.7802631136462 1155.596527312527 1158.7863455658407 1178.6388254781557 1158.7920932769775 1201.6811237335205 C1158.792265292504 1202.3690408354096 1158.7924373080307 1203.0569579372986 1158.792614536149 1203.7657210119723 C1158.8033749277527 1246.849948168691 1158.8092602540871 1289.934173586707 1158.8096504211426 1333.0184020996094 C1158.8096569365625 1333.683846819642 1158.8096634519823 1334.3492915396746 1158.8096701648392 1335.0349012512233 C1158.8099516725333 1364.9154212465478 1158.8089604796548 1394.7959411227146 1158.8067801021098 1424.6764610449027 C1158.8060253217668 1435.1274569950547 1158.8053471195713 1445.5784529502112 1158.804699950444 1456.0294489075313 C1158.8045372594277 1458.6294298248697 1158.8043695938914 1461.2294107419016 1158.8041969346232 1463.8293916585972 C1158.8014746116044 1505.2748859216347 1158.810034851585 1546.7203681444075 1158.8240510398755 1588.1658598192735 C1158.838451436493 1631.0619499748827 1158.8380179010232 1673.958017211904 1158.8206763193011 1716.8541065827012 C1158.8188721038573 1721.459231142086 1158.8171319195812 1726.0643557210512 1158.815442085266 1730.6694803237915 C1158.815021584328 1731.7996680395975 1158.8146010833898 1732.9298557554034 1158.8141678399988 1734.0942915838095 C1158.8078668447972 1751.9993140262507 1158.8149790335442 1769.904305008566 1158.8276512839075 1787.8093230171653 C1158.8398253756466 1805.4097545229397 1158.837742301274 1823.010136323116 1158.820430971915 1840.6105640537571 C1158.8107043131874 1850.932301550995 1158.8119121810398 1861.2538979345104 1158.8292609510536 1871.575626231468 C1158.839690097611 1878.4309718508193 1158.8356094743958 1885.2862099011063 1158.819744460372 1892.141544844053 C1158.811156345333 1896.027458402758 1158.808695095136 1899.9130926555254 1158.8241281844676 1903.7989914007485 C1158.954600629321 1939.017756693107 1158.954600629321 1939.017756693107 1150.5581312179565 1954.629475593567 C1150.213790397644 1955.2902812576294 1149.8694495773316 1955.951086921692 1149.5146741867065 1956.631916999817 C1146.4127655307166 1962.4026802156673 1142.747257085089 1967.4289813639248 1138.3081312179565 1972.254475593567 C1137.9394593429565 1972.6689091873168 1137.9394593429565 1972.6689091873168 1136.0737562179565 1974.766194343567 C1122.7861925186533 1988.943937963902 1103.981350314587 1998.5107244351102 1084.4078178927302 1999.439559623599 C1079.5405897655644 1999.539984598271 1074.6734697893476 1999.523661463917 1069.8054752349854 1999.5117444992065 C1067.907643824665 1999.5144394322087 1066.0098134903888 1999.5180081407966 1064.1119851768017 1999.522368967533 C1058.8890719046287 1999.5318233933294 1053.6662284117522 1999.5288274471122 1048.44331171643 1999.523813424632 C1042.7639670262477 1999.5205473404685 1037.0846372702906 1999.528828890925 1031.4052973389626 1999.535631775856 C1021.4487049652403 1999.5459426905895 1011.4921320419978 1999.5487736717741 1001.5355348587036 1999.5467195510864 C990.8532966123939 1999.5445210969492 980.1710763335545 1999.546541635169 969.4888410568237 1999.553864479065 C968.8138379110762 1999.5543237852062 968.1388347653287 1999.5547830913474 967.4433769788011 1999.5552563158562 C964.6941260280726 1999.5571396197583 961.9448750987938 1999.5590509980316 959.1956241929147 1999.5609986970085 C930.521408083049 1999.5812830737518 901.8471997876886 1999.5874105127668 873.1729773208499 1999.588582918048 C870.086873208186 1999.5887124142787 867.0007690958887 1999.5888482928053 863.9146649837494 1999.5889897346497 C863.5317483240567 1999.5890067391338 863.5317483240567 1999.5890067391338 861.5939579553087 1999.5890927921282 C844.6199498390604 1999.5899098538239 827.6459432154147 1999.594290181839 810.671935890743 1999.5993014242267 C803.6816555029318 1999.6013581549573 796.691375092438 1999.6033382223318 789.701094686985 1999.6053339242935 C788.9287163036283 1999.605555102984 788.1563379202719 1999.6057762816745 787.3605541313591 1999.6060041627497 C743.1005998559076 1999.618651978939 698.8406465564192 1999.6269024359472 654.5806903839111 1999.6259870529175 C652.9244245714524 1999.6259554962244 651.2681587589921 1999.6259240240925 649.6118929465301 1999.6258926363662 C642.1340652942645 1999.625745870042 634.6562376427498 1999.6255695309933 627.1784099913348 1999.6253848675697 C623.8438889059896 1999.625302620127 620.5093678205985 1999.6252223264455 617.1748467352008 1999.625142240664 C615.505858930534 1999.6251014503487 613.8368711258975 1999.6250594103117 612.1678833212936 1999.6250161214266 C559.3976452519723 1999.6236557607622 506.62743402871 1999.6382881685195 453.85720348358154 1999.666096687317 C440.5625280536851 1999.6730988232976 427.2678525989106 1999.680037785506 413.97317695617676 1999.6866254806519 C413.1545526498062 1999.6870312286528 412.3359283434356 1999.6874369766538 411.49249723990215 1999.687855020049 C386.25776365178535 1999.700286892974 361.0230322684897 1999.7078165111284 335.7882957458496 1999.7103414535522 C334.9959066161566 1999.7104213550747 334.2035174864636 1999.7105012565967 333.3871165649616 1999.7105835793773 C315.99137326719006 1999.7122902140682 298.59563010733166 1999.712812493312 281.1998867407965 1999.7122428268776 C274.97518404716413 1999.7120498611157 268.75048135217844 1999.7119457715344 262.5257786559523 1999.7118853681022 C260.9772513139029 1999.7118695397476 259.42872397189353 1999.7118491300089 257.8801966299652 1999.711824121303 C233.2166267379589 1999.711471628143 208.55307983982652 1999.7228613152033 183.88951653672848 1999.7401317527983 C159.0445807944102 1999.757440742941 134.19967687001758 1999.7618063399277 109.35473763171467 1999.748609109025 C105.91890141367082 1999.7467846059226 102.48306514040189 1999.745098026849 99.04722881317139 1999.7434930801392 C98.7104817314007 1999.7433329928276 98.7104817314007 1999.7433329928276 97.00633740850026 1999.7425228540087 C85.71069548662217 1999.7375379225696 74.4151220391193 1999.7483555324725 63.119487387826666 1999.763392177876 C53.28601577094605 1999.7753770993704 43.452617221730634 1999.7728176022274 33.619148979196325 1999.7584511809982 C28.01678251990245 1999.7506757269134 22.414611182334397 1999.749172512612 16.8122583553195 1999.765365883708 C11.708945447457268 1999.7799875071787 6.60598906156838 1999.7759762321894 1.5026916824281216 1999.7575181499124 C-0.3255599534945759 1999.7540941054167 -2.1538399466239753 1999.7572711582397 -3.9820625968277454 1999.7681205645204 C-18.433897452417 1999.8480942428832 -33.13720112245073 1998.6042484602185 -46.06686878204346 1991.504475593567 C-46.7191344070435 1991.1615849685668 -47.371400032043425 1990.8186943435667 -48.04343128204346 1990.465413093567 C-67.29359371384612 1980.0824514669648 -82.24681218376918 1963.3704410405562 -88.69186878204346 1942.254475593567 C-91.0537148052149 1932.57615985855 -92.12838634770674 1923.4926295660107 -92.06791627407074 1913.5132932066917 C-92.07212322524288 1912.2076984620116 -92.0763301764149 1910.9021037173316 -92.08066461095586 1909.5569454955403 C-92.09183461321368 1905.95895862622 -92.08457323386756 1902.3612182839997 -92.07409475930035 1898.7632382726297 C-92.06599100182052 1894.824545934598 -92.07546249946074 1890.885886955637 -92.08260530233383 1886.9471981227398 C-92.09275934101504 1880.0262857878538 -92.09180881716702 1873.1054443893954 -92.08355467021465 1866.1845305487514 C-92.07125381921651 1855.8236856077274 -92.0763129528807 1845.462897984206 -92.0847025954281 1835.1020517119032 C-92.09849418310546 1817.4424998623394 -92.09805667219848 1799.7829739420135 -92.08985996246338 1782.1234197616577 C-92.08160470298651 1764.2287045106445 -92.07986638085276 1746.334006323862 -92.08607196807861 1728.439290046692 C-92.08645948595722 1727.3088261321134 -92.08684700383571 1726.178362217535 -92.08724626468029 1725.0136418206966 C-92.08884608517894 1720.409402300535 -92.09049220997485 1715.8051628000305 -92.09219709149329 1711.2009233175486 C-92.10806410872601 1668.3199461259412 -92.10914165008501 1625.4389803729475 -92.100754737854 1582.5580015182495 C-92.10050635153198 1581.2874359660816 -92.10025796520995 1580.016870413914 -92.1000020520296 1578.7078028753167 C-92.09975326325048 1577.435206479003 -92.09950447447136 1576.1626100826893 -92.09924814663827 1574.8514501592144 C-92.09168109530663 1536.093909918143 -92.08972326242406 1497.3363744048615 -92.09331607818604 1458.578833580017 C-92.0935485162604 1455.9842775845214 -92.09377998521268 1453.3897215889385 -92.09401048813015 1450.7951655932702 C-92.09494187399582 1440.3689454240068 -92.0958978730456 1429.9427252572307 -92.09688977943733 1419.5165050935466 C-92.09964090731137 1390.3703167722458 -92.10135756423881 1361.2241284222143 -92.1022481918335 1332.0779399871826 C-92.10226879714332 1331.4144296879088 -92.10228940245315 1330.7509193886349 -92.10231063216634 1330.0673027166558 C-92.1036267913729 1287.0988596915702 -92.10032485199713 1244.1304183663783 -92.09369945526123 1201.1619758605957 C-92.0935941005232 1200.4760531383577 -92.09348874578518 1199.7901304161196 -92.09338019847928 1199.0834221568439 C-92.08985117258555 1176.1085534031984 -92.08608295936574 1153.1336846882132 -92.08229030692019 1130.1588159768144 C-92.07082885307477 1060.6812876715742 -92.06454839993967 991.2037654467249 -92.08263630096917 867.1239404560329 C-92.08642594162973 844.1536375762137 -92.09017149755846 821.1833346904873 -92.09369945526123 798.2130317687988 C-92.09380518940611 797.5272667924633 -92.093910923551 796.8415018161274 -92.0940198617609 796.1349560829331 C-92.10063593211407 753.1880431827175 -92.10358192187323 710.2411314645161 -92.1022481918335 667.2942180633545 C-92.10223805767578 666.9625765743456 -92.10223805767578 666.9625765743456 -92.10218677269586 665.2842696451189 C-92.10126660213234 635.5014596853407 -92.09935018343083 605.7186498338389 -92.09651668329025 575.9358399947232 C-92.0955292398778 565.5192099679874 -92.09459000098059 555.1025799368439 -92.09366454987321 544.6859499044367 C-92.09343238480471 542.0945186864551 -92.09319619378527 539.5030874688309 -92.09295596124139 536.9116562515846 C-92.08937376351196 498.16280346732174 -92.09242726125888 459.4139560088254 -92.1000020520296 420.6651038884884 C-92.10025043835162 419.3944555408798 -92.10049882467365 418.12380719327143 -92.100754737854 416.81465435028076 C-92.10100278487664 415.5463457894849 -92.10125083189928 414.2780372286891 -92.10150639549829 412.9712950751418 C-92.10977671417572 370.21613622005 -92.10674606007967 327.4609910929008 -92.0909125059843 284.7058342024684 C-92.08925541041333 280.1166428422746 -92.08764530175188 275.5274514680848 -92.08607196807861 270.9382600784302 C-92.08568134763857 269.8119792476209 -92.08529072719864 268.68569841681165 -92.08488826977555 267.52528786385665 C-92.07896637519627 249.67674358256477 -92.08309583808477 231.82821634400307 -92.09137898561312 213.97967359863105 C-92.09930629193775 196.4381023989846 -92.09654475242007 178.89656001314222 -92.08233672240749 161.35499247559346 C-92.07432104566578 151.0656836407539 -92.07451497059833 140.77645373009966 -92.08678151346976 130.4871486359334 C-92.09410661963796 123.65584419054687 -92.09057698625645 116.82460126991077 -92.07818095193943 109.99330427622772 C-92.07145549294671 106.11946667818637 -92.06935960488443 102.2457863755505 -92.08063050359488 98.37195576354861 C-92.09265064319425 94.2046123229473 -92.08135891595953 90.03764783260158 -92.06791627407074 85.87030881643295 C-92.07508850043178 84.68429028955984 -92.0822607267927 83.49827176268678 -92.0896502933465 82.2763132804539 C-91.93600688832419 58.87840349616249 -82.70374686292075 38.73083582077163 -66.57077503204346 22.063069343566895 C-47.534411068951954 4.2142950589067425 -25.15836039260239 -0.06612683282509124 0 0 Z M-24.441868782043457 71.0044755935669 C-29.495822777113972 78.30463136422435 -28.976997136594832 86.4453631474986 -28.942567110061646 95.0049319267273 C-28.945371744176327 96.28843690657988 -28.948176378291123 97.57194188643246 -28.951066001318395 98.89434095658362 C-28.95857682408291 102.46289665403083 -28.953634794248728 106.03134326664554 -28.94668610021472 109.59989609662443 C-28.941318084090085 113.4944287483853 -28.947585856535852 117.38894574303555 -28.952359795570374 121.28347676992416 C-28.959151387416455 128.13739972209197 -28.95847980834401 134.99129089117707 -28.95299270749092 141.84521454572678 C-28.944815344166727 152.10580238558543 -28.948154850789365 162.3663643852193 -28.95375799096655 172.62695280299522 C-28.9629667870978 190.11275018341746 -28.962653703632668 207.59853594086627 -28.95719623565674 225.08433437347412 C-28.951697735524704 242.80943824301391 -28.950529818602035 260.5345344583538 -28.954670906066895 278.2596387863159 C-28.9549292513193 279.3783059214894 -28.95518759657159 280.4969730566628 -28.95545377046801 281.64953919593245 C-28.956520286395516 286.20553901424626 -28.95761769849696 290.76153882372125 -28.95875432167668 295.31753862509504 C-28.96933914173053 337.7751313400672 -28.970047683970165 380.23271892278876 -28.96445941925049 422.6903123855591 C-28.964293828369136 423.9490053230338 -28.964128237487785 425.20769826050855 -28.963957628700882 426.5045334082097 C-28.96379176951484 427.7652317885495 -28.963625910328687 429.02593016888954 -28.96345502510667 430.3248315304518 C-28.958412674568763 468.7018776080364 -28.95710400645737 507.07892156382945 -28.959500312805176 545.4559679031372 C-28.959655271314205 548.0238824747114 -28.959809583950914 550.5917970463247 -28.95996325276792 553.1597116179764 C-28.960584163386898 563.4785794882386 -28.961221494939082 573.7974473573842 -28.96188278030604 584.1163152251393 C-28.963716976370165 612.9634779755003 -28.96485804603128 641.8106407332461 -28.965455055236816 670.6578035354614 C-28.965482346790395 671.9715360206319 -28.965509638343974 673.2852685058024 -28.965537756914273 674.638811066281 C-28.966356553141054 716.5125077432801 -28.964103140778775 758.3862036513148 -28.959755897521973 800.2599000930786 C-28.959685661029994 800.9390630418975 -28.9596154245379 801.6182259907166 -28.95954305966734 802.3179696349544 C-28.957190300417892 825.0671880479874 -28.95467819415296 847.8164064436805 -28.952149798627943 870.5656248377636 C-28.944508823787373 939.3618826590885 -28.94032163570307 1008.1581377515138 -28.952380461327266 1131.0187121307245 C-28.954906847241887 1153.7621584446904 -28.957403855364987 1176.5056047613073 -28.959755897521973 1199.2490510940552 C-28.95982638695193 1199.9280222987366 -28.959896876381777 1200.6069935034182 -28.959969501855085 1201.3065395930898 C-28.964379541654125 1243.8214090621204 -28.96633826156426 1286.3362779518798 -28.965455055236816 1328.8511476516724 C-28.965427886617817 1330.1639206668688 -28.96540071799882 1331.4766936820652 -28.96537272608839 1332.8292476977222 C-28.964747823335415 1361.6441302122073 -28.96348065329346 1390.4590126727928 -28.961634049541317 1419.2738951339852 C-28.960975739296828 1429.5836483538571 -28.960349582203435 1439.8934015757109 -28.959732627263293 1450.2031547981314 C-28.959577850723804 1452.7680538383706 -28.959420390050354 1455.3329528784493 -28.959260234842077 1457.8978519183584 C-28.956871071534806 1496.2667081009595 -28.958909770063542 1534.6355618940568 -28.963957628700882 1573.004417778924 C-28.964123219582234 1574.2631107163988 -28.964288810463586 1575.5218036538736 -28.96445941925049 1576.8186388015747 C-28.96462478393221 1578.07501923142 -28.96479014861393 1579.3313996612653 -28.96496052434668 1580.6258522253484 C-28.970471425807204 1622.9586161803393 -28.968459037981006 1665.2913739719363 -28.957897931337357 1707.624137043953 C-28.956793176053566 1712.1658621563972 -28.95571977313989 1716.707587275132 -28.954670906066895 1721.2493124008179 C-28.954410492440275 1722.3639613282774 -28.95415007881354 1723.4786102557368 -28.95388177386485 1724.6270364234224 C-28.94993027437556 1742.3077815383233 -28.952690605460248 1759.9885190157977 -28.958208917756565 1777.669263443211 C-28.963487351834942 1795.0362769657822 -28.961664584540017 1812.4032775458718 -28.952180742286146 1829.770289419219 C-28.946827155705364 1839.963815662577 -28.946983224265523 1850.1573065003595 -28.95514393632766 1860.350831084419 C-28.96001300207979 1867.1111314795453 -28.95769704048621 1873.8714041677122 -28.949410228640772 1880.6317011914216 C-28.944909319544877 1884.4700614185322 -28.943569205398262 1888.3083508770887 -28.951043263077736 1892.1467080637813 C-28.958995204312828 1896.2658699995068 -28.951568037974198 1900.3848595673662 -28.942567110061646 1904.5040192604065 C-28.947348594302298 1905.6927329311707 -28.95213007854295 1906.8814466019348 -28.957056456245482 1908.1061818990856 C-28.9183570597869 1916.7483670458341 -28.492502985121064 1924.356424108826 -22.691868782043457 1931.254475593567 C-16.69428342893184 1935.630336235814 -11.437971197826755 1936.4041164879568 -4.207605540752411 1936.3821260929108 C-3.445742602900168 1936.3837768716644 -2.6838796650479253 1936.385427650418 -1.8989299715030938 1936.3871284527704 C0.6738386776521565 1936.3914689841258 3.2465505179867478 1936.3886472643235 5.8193206787109375 1936.3859033584595 C7.682486650168471 1936.3875522554977 9.545652277520958 1936.3896381871482 11.408817321062088 1936.3921234607697 C16.563370192384923 1936.397709406745 21.71790651092897 1936.3970141846448 26.87246144656092 1936.3953458704054 C32.46713862099136 1936.3946169951414 38.06181104444181 1936.3996324683767 43.656486213207245 1936.4039208889008 C54.76829994980949 1936.4115150945736 65.8801088838502 1936.4136946684494 76.9919249441009 1936.4142499445006 C86.23344571563985 1936.4148836620343 95.47496351922018 1936.4178478773642 104.7164831161499 1936.4224634170532 C105.38133997813156 1936.4227935505683 106.04619684011323 1936.4231236840833 106.73120087973075 1936.423463821644 C109.43895109907339 1936.4248137862533 112.14670131161836 1936.4261764500684 114.8544515160902 1936.4275559271919 C146.9285430649852 1936.4438672437163 179.00263388170868 1936.4502454965382 211.0767288733623 1936.4550037968438 C227.04341466552694 1936.4573859333277 243.010100037161 1936.461089174361 258.9767855075188 1936.4650408942252 C310.1758980129978 1936.4777056182097 361.3750104982803 1936.488489903848 412.5741245444515 1936.4918813521508 C415.0216580471656 1936.4920435931708 417.4691915496328 1936.4922091531062 419.91672505205497 1936.4923757370561 C424.82540197003254 1936.4927095389603 429.7340788882302 1936.4930400197463 434.6427558064461 1936.493370294571 C440.3897882889014 1936.4937571981059 446.1368207711582 1936.4941468034613 451.88385325309355 1936.4945413586684 C453.5287087956772 1936.4946537780588 455.17356433832947 1936.4947651959865 456.8184198810486 1936.4948756131344 C509.6591550254843 1936.4984259739263 562.4998765800106 1936.5135080501977 615.3406065368326 1936.536813356448 C653.3049635733523 1936.5535506837614 691.2693180486517 1936.5690281838738 729.233678817749 1936.5735483169556 C729.623899013224 1936.5735950598714 729.623899013224 1936.5735950598714 731.5986496994155 1936.5738316073548 C748.7296831956935 1936.5758504729456 765.8607166507102 1936.5770066678651 782.9917502591561 1936.5773601931287 C789.1212752644019 1936.5774963701815 795.2508002669922 1936.5777053668348 801.380325268663 1936.5779534454923 C802.9052446854848 1936.578015005603 804.4301641024413 1936.5780733262472 805.9550835195114 1936.5781283949036 C830.2714285109005 1936.5790488680104 854.5877593316686 1936.5890249425815 878.9040996589465 1936.6035858816467 C903.3898985823746 1936.6181896572016 927.8756801034365 1936.6232512719707 952.3614826103731 1936.6151663392084 C955.7428470932427 1936.614050914658 959.1242116000692 1936.6130402669332 962.505576133728 1936.6120920181274 C963.1684340360684 1936.6119020503174 963.8312919384089 1936.6117120825083 964.5142364438507 1936.611516358098 C975.6617239819334 1936.608613068307 986.8091768324855 1936.6176115757185 997.956656671362 1936.6297314288095 C1007.6426964712914 1936.6394407313019 1017.3286953107208 1936.6383421523478 1027.0147346861195 1936.628295200877 C1032.541180167976 1936.622873815592 1038.0675136185932 1936.6222867770193 1043.5939500704408 1936.6348039209843 C1048.6167143594885 1936.646085897246 1053.6392747474029 1936.6436815803372 1058.6620317436755 1936.630136847496 C1060.4723730526723 1936.6276915841913 1062.2827297773447 1936.6303262155216 1064.0930541343987 1936.6385333240032 C1066.5448927514315 1936.6489222117439 1068.9960082550947 1936.6408909245038 1071.4478204846382 1936.6282217502594 C1072.149031132434 1936.6356302468944 1072.85024178023 1936.6430387435294 1073.5727012355346 1936.6506717400625 C1081.2310445918647 1936.567313325022 1086.8927195772005 1933.6698872343231 1092.3081312179565 1928.254475593567 C1095.9667347532668 1921.863011592999 1095.7279851075978 1915.812075298415 1095.6853293776512 1908.5769215226173 C1095.6896605596714 1907.289139210393 1095.6939917416917 1906.001356898169 1095.698454171652 1904.6745508795138 C1095.7100807192878 1901.0892651253644 1095.7029939926579 1897.5042212823796 1095.692928403616 1893.9189397757873 C1095.6852640325837 1890.0079956594009 1095.6950303861138 1886.0970885024635 1095.7025689184666 1882.186149507761 C1095.7134210587556 1875.30173782974 1095.713064714273 1868.4173962486611 1095.7054958865047 1861.532981224358 C1095.6942191553285 1851.2267411638463 1095.7001910484212 1840.9205605637035 1095.709559877665 1830.6143211649905 C1095.7250132606864 1813.051146991223 1095.7261593718392 1795.4879975629997 1095.7195806503296 1777.9248189926147 C1095.7129594848698 1760.1202761766954 1095.7128196287035 1742.3157510683093 1095.720627784729 1724.5112085342407 C1095.721115783052 1723.3876905645295 1095.7216037813748 1722.2641725948185 1095.7221065675258 1721.1066086260253 C1095.7241146891113 1716.5308800415294 1095.7261677853799 1711.9551514801728 1095.7282783093106 1707.37942294174 C1095.7496956650082 1660.8965696858293 1095.751729841632 1614.4137295127223 1095.7462212695682 1567.93087256109 C1095.7454655842807 1561.504866127248 1095.7447379624978 1555.078859690797 1095.7440392971039 1548.6528532505035 C1095.7439002056356 1547.3765574406011 1095.7437611141672 1546.1002616306987 1095.743617807806 1544.7852901901933 C1095.740667550209 1516.5209088472393 1095.7436762859763 1488.2565290818006 1095.747935586085 1459.9921480236226 C1095.7485177427627 1456.1257133667916 1095.749086585951 1452.2592787082224 1095.7496512182988 1448.3928440487944 C1095.7511661184358 1438.028709281851 1095.7526930261902 1427.6645745167762 1095.7542442244012 1417.3004397551995 C1095.7650037187611 1344.9342828069443 1095.7697001067202 1272.5681282835012 1095.7617740631104 1200.2019710540771 C1095.761624173257 1198.823591788367 1095.761474369368 1197.4452125226474 1095.7613246513647 1196.0668332569185 C1095.7596680433153 1180.849507841809 1095.757916389455 1165.6321824379254 1095.7561316415668 1150.4148570373654 C1095.756051139811 1149.7279566563514 1095.7559706380553 1149.0410562753373 1095.7558876968524 1148.333340731262 C1095.7556436384766 1146.2509554123371 1095.7553994460668 1144.1685700934272 1095.7551551861688 1142.0861847745255 C1095.7550745551814 1141.3987266488516 1095.754993924194 1140.7112685231775 1095.7549108498433 1140.0029783330892 C1095.7545031635575 1136.5294027708167 1095.7540940698605 1133.0558272087196 1095.7536824984709 1129.5822516469052 C1095.7455030005933 1060.479930049547 1095.7436325930607 991.3776173300303 1095.7741238112358 867.9722963459062 C1095.7802629919765 845.1285054989212 1095.786345360334 822.2847146400759 1095.7920932769775 799.4409236907959 C1095.792265292504 798.7589579628034 1095.7924373080307 798.0769922348109 1095.792614536149 797.3743608786972 C1095.803372663066 754.6719459686223 1095.8092497771895 711.9695328232709 1095.8096504211426 669.2671165466309 C1095.8096632032848 667.9485489428411 1095.8096759854268 666.6299813390511 1095.8096891549067 665.2714571412071 C1095.809917422402 636.3293438663623 1095.8089115855207 607.3872307377867 1095.8067801021098 578.4451175440045 C1095.8060253023425 568.0898139401716 1095.8053471046944 557.7345103312855 1095.804699950444 547.3792067202157 C1095.8045372597524 544.8029707764613 1095.8043695942363 542.2267348330162 1095.8041969346232 539.6504988899105 C1095.8014730477828 498.5597616877186 1095.8100415000354 457.46903661889087 1095.8240510398755 416.37830202502664 C1095.8384419753081 373.85718304726686 1095.8380300064778 331.33608719167967 1095.8206763193011 288.8149690106511 C1095.818872051337 284.25302726659754 1095.8171318738086 279.691085502762 1095.815442085266 275.1291437149048 C1095.815231834797 274.56933810710416 1095.815231834797 274.56933810710416 1095.8141678399988 271.7363824555068 C1095.8078592517884 253.97679866180943 1095.814990600719 236.2172465298686 1095.8276512839075 218.4576671968971 C1095.839805548648 201.0132366369857 1095.8377712091415 183.5688562561582 1095.820430971915 166.1244295311626 C1095.8106804990953 155.88537219598226 1095.8119602043491 145.64645706346448 1095.8292609510536 135.40740889878361 C1095.8396492429015 128.6169439086991 1095.8356679137737 121.8265878908029 1095.819744460372 115.03613380683237 C1095.8111120904766 111.1805572698022 1095.8088042874679 107.3252632869877 1095.8241281844676 103.46970117464662 C1095.8404358591058 99.33203063609994 1095.825981547905 95.19504371490103 1095.8083772063255 91.05737882852554 C1095.8180583099438 89.86327299637952 1095.8277394135623 88.6691671642335 1095.837713883957 87.43887630687095 C1095.7771558321888 80.5737228782312 1095.0108030540607 76.08863232967485 1091.3081312179565 70.2544755935669 C1086.0542382253946 65.26327725063294 1081.9181797356584 63.95596522347648 1074.7778331041336 64.00147593021393 C1074.010984944175 63.9984228344029 1073.2441367842164 63.99536973859182 1072.4540508012287 63.99222412472591 C1069.8642330864461 63.984381844052336 1067.2746459636844 63.99087310422186 1064.684826850891 63.997206687927246 C1062.8094192722222 63.99451537214941 1060.934012779636 63.990948726356464 1059.058608353138 63.98658221960068 C1053.8700585472484 63.97707917722602 1048.6815785255653 63.9801393617513 1043.4930251780897 63.985137762501836 C1037.8615237808217 63.98839139706121 1032.230037720183 63.98013274148224 1026.5985411405563 63.97331941127777 C1016.7169746688628 63.962988337814465 1006.8354278037382 63.96018098900703 996.9538564682007 63.96223163604736 C986.3481248354433 63.96442722327998 975.7424048624798 63.962419917036186 965.1366758346558 63.95508670806885 C964.4674489063502 63.95462740192772 963.7982219780447 63.9541680957866 963.108715445851 63.95369487127755 C960.3831703517899 63.951811652117044 957.6576252794298 63.949900282682904 954.9320802307338 63.94795249012532 C926.47930599608 63.927648613363544 898.0265396262398 63.921539971372624 869.5737589746714 63.920368269085884 C866.5098397828128 63.920238777696284 863.4459205913236 63.920102899587505 860.3820013999939 63.91996145248413 C859.6217132808861 63.9199274435162 858.8614251617785 63.91989343454827 858.0780980087584 63.919858395005576 C841.2410166975237 63.91904198481774 824.4039368939791 63.914663783702736 807.5668563815998 63.909649762907065 C800.637109092705 63.90759309748586 793.7073617809424 63.90561305401462 786.7776144742966 63.90361726284027 C786.3947929707133 63.903506673494974 786.3947929707133 63.903506673494974 784.4574841495487 63.90294702438405 C740.5737265816451 63.89029627432387 696.6899699997211 63.88204907824843 652.8062105178833 63.88296413421631 C651.1634173961372 63.882995691035546 649.5206242743895 63.88302716316622 647.8778311526403 63.8830585507676 C640.4605021661409 63.88320532178062 633.0431731803994 63.883381661703766 625.6258441947575 63.883566319564125 C622.3181636817114 63.88364856749831 619.010483168619 63.88372886105071 615.7028026555199 63.8838089464698 C614.047247778981 63.88384973666609 612.3916929024726 63.88389177669558 610.7361380259972 63.88393506570719 C558.3764979128648 63.885295798685036 506.0168848442645 63.870657834798294 453.65725231170654 63.842854499816895 C440.46414796532304 63.835852705673005 427.27104359393593 63.82891389571432 414.0779390335083 63.822325706481934 C413.26563446225236 63.82191995848086 412.45332989099666 63.82151421047979 411.6164100297028 63.82109616708476 C386.5891556094173 63.8086704370175 361.5619034106335 63.8011358739131 336.5346460342407 63.79860973358154 C335.74914057265846 63.79852983205927 334.9636351110762 63.798449930537004 334.15432645368855 63.79836760775652 C316.9123987971534 63.79666123243243 299.6704712797574 63.796138607825924 282.42854355386226 63.79670836025616 C276.2594070886348 63.79690133667441 270.09027062204086 63.79700541854777 263.9211341541959 63.79706581903156 C262.3863552717804 63.7970816473038 260.8515763894053 63.79710205699473 259.3167975071119 63.797127065830864 C234.8404226057528 63.797480014685334 210.36407081849768 63.786071515605556 185.88770254398696 63.768819434335455 C161.2421480981443 63.751536374493924 136.59662569684588 63.747122599661 111.95106774481246 63.760342078108806 C108.54817479371786 63.76216676851283 105.14528178678438 63.76385330079211 101.74238872528076 63.76545810699463 C101.07530648684019 63.765778281617656 100.4082242483995 63.76609845624074 99.72092739667278 63.76642833312508 C88.4991557139698 63.771427782784826 77.2774358917751 63.760566093448006 66.05567477690056 63.745559009257704 C56.30707707833972 63.73361922165287 46.55855329601127 63.73608275956241 36.809959083329886 63.75050000613555 C31.246940237232934 63.75831401091375 25.68411842569219 63.759669411829066 20.12111295759678 63.74358530342579 C15.066304535962217 63.72909770583311 10.011858424754223 63.732816666431404 4.957066513597965 63.75143303722143 C3.1340244851238594 63.75489294949534 1.3109545753422935 63.75156305952339 -0.5120591446757317 63.74083062261343 C-2.9787754537555884 63.72727428752307 -5.444206644187034 63.738199386002975 -7.9108723402023315 63.755380272865295 C-8.619206638219794 63.74558103410993 -9.327540936237256 63.73578179535457 -10.057339909952134 63.72568560997024 C-16.521407099954445 63.819936142253255 -20.008083588334443 66.57069039985782 -24.441868782043457 71.0044755935669 Z " fill="#FFFFFF" transform="translate(718.6918687820435,248.7455244064331)"/>
<path d="M0 0 C1.6331984910202664 1.5120256997508932 3.258059380525765 3.0331007516438717 4.875 4.5625 C5.746406250000064 5.369453125000007 6.617812500000127 6.176406250000014 7.515625 7.0078125 C29.777208149349462 28.315327800091723 43.92733545614715 56.77713521589095 50.875 86.5625 C51.05434082031252 87.32143554687502 51.233681640625036 88.08037109374999 51.41845703125 88.8623046875 C55.792629482879875 108.6438154568367 53.875 129.7039855374528 53.875 149.5625 C103.375 149.5625 152.875 149.5625 203.875 149.5625 C203.875 170.35249999999996 203.875 191.14250000000004 203.875 212.5625 C154.375 212.5625 104.875 212.5625 53.875 212.5625 C53.875 273.61249999999995 53.875 334.6625 53.875 397.5625 C83.57500000000005 397.5625 113.27500000000009 397.5625 143.875 397.5625 C143.875 418.6825 143.875 439.8025 143.875 461.5625 C114.17499999999995 461.5625 84.47499999999991 461.5625 53.875 461.5625 C53.875 523.9325 53.875 586.3025 53.875 650.5625 C103.375 650.5625 152.875 650.5625 203.875 650.5625 C203.875 671.3525 203.875 692.1424999999999 203.875 713.5625 C154.375 713.5625 104.875 713.5625 53.875 713.5625 C53.875 774.6125 53.875 835.6624999999999 53.875 898.5625 C83.57500000000005 898.5625 113.27500000000009 898.5625 143.875 898.5625 C143.875 919.3525 143.875 940.1424999999999 143.875 961.5625 C114.17499999999995 961.5625 84.47499999999991 961.5625 53.875 961.5625 C53.875 1023.9324999999999 53.875 1086.3025 53.875 1150.5625 C103.375 1150.5625 152.875 1150.5625 203.875 1150.5625 C203.875 1171.6825 203.875 1192.8025 203.875 1214.5625 C154.375 1214.5625 104.875 1214.5625 53.875 1214.5625 C53.77187499999991 1238.466875 53.668750000000045 1262.37125 53.5625 1287 C53.49635498046882 1294.5196655273437 53.43020996093742 1302.0393310546874 53.362060546875 1309.786865234375 C53.3668212890625 1319.0411376953077 53.3668212890625 1319.0411376953077 53.38557434082031 1323.3873443603516 C53.39412197200477 1326.393487847944 53.36671467064025 1329.3968802158515 53.31636047363281 1332.402603149414 C52.84028394561892 1362.6803344204397 52.84028394561892 1362.6803344204397 62.864840507507324 1373.5833883285522 C63.980950660221424 1374.7065386308566 65.1111294982536 1375.8159240286261 66.25644874572754 1376.909273147583 C68.95699649008793 1379.6676770198271 71.0248865736437 1382.8371270726982 73.125 1386.0625 C73.54834027290349 1386.7106419467925 73.97168054580698 1387.3587838935853 74.40784931182861 1388.0265665054321 C104.57291354832546 1434.6561444585927 112.30940568372216 1492.1943472980242 101.23291015625 1546.040771484375 C95.28684404250384 1573.151489793355 83.954794998539 1598.9282389108325 67.875 1621.5625 C67.48215820312498 1622.1221142578124 67.08931640624996 1622.681728515625 66.6845703125 1623.25830078125 C61.96290852506854 1629.9382647507662 56.77887742581129 1636.0602952063869 51.20703125 1642.04296875 C49.21775104297262 1644.1921910842257 47.31996432241522 1646.383115281897 45.4375 1648.625 C37.4008949872632 1657.823072403855 27.71730626171393 1665.3985454709996 17.875 1672.5625 C17.334882812499927 1672.9590478515624 16.794765625000082 1673.355595703125 16.23828125 1673.76416015625 C-27.28845962379455 1705.33655562973 -84.48561968210674 1719.0041510162082 -137.6669921875 1710.96484375 C-175.5195336776103 1704.768877483045 -210.1107548475311 1690.6466089635287 -240.125 1666.5625 C-240.40690185546873 1666.3384448242186 -240.40690185546873 1666.3384448242186 -241.83349609375 1665.20458984375 C-255.90157112240058 1653.9476273467653 -268.6041413395078 1641.2051669235852 -279.125 1626.5625 C-279.36250976562496 1626.2336279296874 -279.36250976562496 1626.2336279296874 -280.564453125 1624.5693359375 C-298.7839352305434 1599.0404568607603 -310.62785886611096 1571.167038285181 -317.125 1540.5625 C-317.3043408203125 1539.750390625 -317.48368164062504 1538.93828125 -317.66845703125 1538.1015625 C-322.93466442555246 1513.2505023830927 -322.57302048184783 1483.3363765520903 -317.125 1458.5625 C-316.9533935546874 1457.7508740234375 -316.78178710937505 1456.939248046875 -316.60498046875 1456.10302734375 C-309.79946394166654 1424.6054669382404 -296.54354135933613 1396.629970917902 -276.94921875 1371.11328125 C-276.51863725662224 1370.5479647159577 -276.0880557632447 1369.9826481819152 -275.6444263458252 1369.400200843811 C-274.12500000000045 1367.5625000000005 -274.12500000000045 1367.5625000000005 -272.563871383667 1366.1836080551147 C-268.6197780766586 1362.5197852591339 -267.6799151471221 1359.5252564874856 -267.3655090332031 1354.177993774414 C-267.33032996818974 1351.5692868925832 -267.3273418406825 1348.9731198819009 -267.35205078125 1346.365478515625 C-267.34385773365807 1344.9028126652627 -267.33303989275646 1343.4401595545519 -267.31982231140137 1341.9775304794312 C-267.2917485363578 1338.0742760295327 -267.29941571964696 1334.1718714099422 -267.31468200683594 1330.2685775756836 C-267.32355625738955 1326.6007103350178 -267.2999385945684 1322.9333265526009 -267.279052734375 1319.2655029296875 C-267.23685662498633 1308.5520806731088 -267.2465741268195 1297.8385048057485 -267.25 1287.125 C-267.20875 1263.179375 -267.1675 1239.23375 -267.125 1214.5625 C-317.94499999999994 1214.5625 -368.765 1214.5625 -421.125 1214.5625 C-421.125 1193.4425 -421.125 1172.3225 -421.125 1150.5625 C-370.30499999999995 1150.5625 -319.4849999999999 1150.5625 -267.125 1150.5625 C-267.125 1088.1925 -267.125 1025.8225 -267.125 961.5625 C-297.4849999999999 961.5625 -327.845 961.5625 -359.125 961.5625 C-359.125 940.7725 -359.125 919.9825000000001 -359.125 898.5625 C-328.7650000000001 898.5625 -298.405 898.5625 -267.125 898.5625 C-267.125 837.5125 -267.125 776.4625000000001 -267.125 713.5625 C-317.94499999999994 713.5625 -368.765 713.5625 -421.125 713.5625 C-421.125 692.7725 -421.125 671.9825000000001 -421.125 650.5625 C-370.30499999999995 650.5625 -319.4849999999999 650.5625 -267.125 650.5625 C-267.125 588.1925 -267.125 525.8225 -267.125 461.5625 C-297.4849999999999 461.5625 -327.845 461.5625 -359.125 461.5625 C-359.125 440.4425 -359.125 419.3225 -359.125 397.5625 C-328.7650000000001 397.5625 -298.405 397.5625 -267.125 397.5625 C-267.125 336.51250000000005 -267.125 275.4625 -267.125 212.5625 C-317.94499999999994 212.5625 -368.765 212.5625 -421.125 212.5625 C-421.125 191.77250000000004 -421.125 170.98249999999996 -421.125 149.5625 C-370.30499999999995 149.5625 -319.4849999999999 149.5625 -267.125 149.5625 C-267.125 134.0525 -267.125 118.54250000000002 -267.125 102.5625 C-263.59834949804326 81.40259698825923 -263.59834949804326 81.40259698825923 -261.875 75.4375 C-261.77046508789067 75.0705603027344 -261.77046508789067 75.0705603027344 -261.241455078125 73.213623046875 C-258.9037068008222 65.34475389068803 -255.720439072403 57.93053930241905 -252.125 50.5625 C-251.81691406250002 49.92715332031253 -251.50882812500004 49.291806640625 -251.19140625 48.63720703125 C-232.55699343022752 10.740146519669281 -199.1520387482342 -18.13071071794792 -159.3828125 -32.05859375 C-104.12608935018261 -50.43853339668351 -43.69530060237321 -38.49021777199641 0 0 Z M-176.125 52.5625 C-176.77210937500013 53.134843750000016 -177.41921875000003 53.70718750000003 -178.0859375 54.296875 C-193.5878701057311 68.41600610568946 -202.19157957882703 91.10890526543363 -204.125 111.5625 C-204.25246527883996 114.61522075527307 -204.24972968267616 117.66211917313694 -204.23489850759506 120.71712529659271 C-204.23463486586002 121.6112030946324 -204.23437122412497 122.50528089267209 -204.23409959324636 123.42645195731893 C-204.23198781893848 126.42578409288035 -204.22265857625825 129.42504998998174 -204.21338558197021 132.4243679046631 C-204.21037164714653 134.60437021169798 -204.20780886484226 136.7843731810209 -204.20565673708916 138.9643765091896 C-204.19996157021046 143.7208293140975 -204.19101019962955 148.4772614679241 -204.1796199604869 153.2337040156126 C-204.162582028752 160.35442966700316 -204.15126740184996 167.47515489900286 -204.14139589646948 174.59589370834874 C-204.1244428683242 186.73224384748357 -204.1030393807614 198.8685823097312 -204.07933235168457 211.00492095947266 C-204.04300421728976 229.65247325988776 -204.0143090572351 248.30003381232564 -203.987060546875 266.9476013183594 C-203.98469453952407 268.56116726959226 -203.98232749925364 270.17473321931084 -203.9799594366923 271.78829916752875 C-203.97033848087221 278.34739250509404 -203.9607303030848 284.9064858603606 -203.95120360003784 291.4655793355778 C-203.93766751291696 300.7717738862459 -203.9237348280542 310.0779677151878 -203.90936061300454 319.3841610092786 C-203.82987564357745 370.85022430490994 -203.77635319772253 422.3162648267871 -203.7439183552051 473.7823788917158 C-203.74220013602735 476.501128773534 -203.7404625464833 479.21987864230005 -203.7387186763808 481.93862850777805 C-203.71614340228348 517.1576708182545 -203.69586086002982 552.3767143251242 -203.67764365673065 587.5957591533661 C-203.66627170837296 609.550943747303 -203.65403297613943 631.5061277319953 -203.64066650473978 653.4613112059887 C-203.63891557684087 656.343984119128 -203.63718536729198 659.2266570442291 -203.63545629847795 662.1093299705535 C-203.60865455266935 706.502172768206 -203.56696765501215 750.8949436081568 -203.4837646484375 795.2877197265625 C-203.48197615938557 796.2423711654556 -203.48018767033363 797.1970226043486 -203.47834498464363 798.1806028747233 C-203.44942690107973 813.5729635048756 -203.41935578228276 828.9653218875542 -203.38911850133445 844.3576799740549 C-203.3020276444763 888.6996120117469 -203.2247512560075 933.0414700223093 -203.20967960357666 977.3834934234619 C-203.20952219507694 977.839508800067 -203.20952219507694 977.839508800067 -203.2087256126688 980.147222978645 C-203.20228266628214 999.270159033877 -203.1998176324489 1018.3930933861611 -203.20235828799196 1037.516030349303 C-203.20354750856814 1046.4713459176191 -203.2039595518595 1055.4266614398143 -203.20396614074707 1064.3819770812988 C-203.20398332375498 1065.2636706915998 -203.20400050676312 1066.1453643019008 -203.20401821046835 1067.0537759003928 C-203.2042068815099 1095.4472892080069 -203.14685376763168 1123.8403282668153 -203.05906648526434 1152.2336951608304 C-202.97087913560927 1180.8360831522245 -202.93858037354198 1209.4379425190373 -202.98388529845397 1238.0404479631106 C-202.99013410759562 1241.9951868880307 -202.99573868594234 1245.9499264844985 -203.0009536743164 1249.9046669006348 C-203.0019989421969 1250.6798850504367 -203.0030442100774 1251.4551032002387 -203.0041211527423 1252.2538128091255 C-203.01899015570734 1264.5159304919162 -202.97339089804996 1276.7770444682735 -202.9023802766751 1289.0389341448317 C-202.83375320130926 1301.104360927238 -202.82952390299533 1313.1683980127787 -202.89317107223906 1325.2338670105673 C-202.92453503074398 1331.685723684856 -202.9274941516769 1338.1341218864056 -202.85082667320967 1344.58567635715 C-202.3781456065342 1386.8955545301167 -202.3781456065342 1386.8955545301167 -211.4245807863772 1397.0382546558976 C-214.43187070543877 1399.7431591773534 -217.54309705713422 1401.9737608725218 -220.98771334439516 1404.0850004702806 C-224.45013983967442 1406.478564995211 -226.7423948967512 1409.638246223084 -229.125 1413.0625 C-229.57330740217117 1413.7029517815263 -230.02161480434233 1414.3434035630523 -230.48350727930665 1415.0032629743218 C-252.8683062109876 1447.5379349693133 -261.73631362449123 1486.292038266224 -255.1640625 1525.29296875 C-250.19657920727582 1551.814194162745 -239.18521203429464 1576.3522627235275 -221.125 1596.5625 C-220.70476562499994 1597.0484765625001 -220.70476562499994 1597.0484765625001 -218.578125 1599.5078125 C-208.27583064530268 1611.256836067425 -196.5761009849939 1620.6472841301168 -183.125 1628.5625 C-182.83262451171868 1628.7357983398438 -182.83262451171868 1628.7357983398438 -181.35302734375 1629.61279296875 C-150.97150398820804 1647.3680120804574 -110.70146250733092 1655.1534685241718 -76.1474609375 1646.11474609375 C-75.81375488281265 1646.0236254882811 -75.81375488281265 1646.0236254882811 -74.125 1645.5625 C-73.72941894531255 1645.4578442382813 -73.72941894531255 1645.4578442382813 -71.7275390625 1644.92822265625 C-32.03620467710152 1634.2455835159512 1.4948748503329625 1610.1069569295694 22.603271484375 1574.50732421875 C27.17853985885904 1566.4984128764022 30.80863093656103 1558.259144373777 33.875 1549.5625 C33.98835693359388 1549.2456323242186 33.98835693359388 1549.2456323242186 34.56201171875 1547.64208984375 C43.406261088282236 1522.5234115843862 45.8252883484256 1492.4652817333952 38.875 1466.5625 C38.775661621093604 1466.174169921875 38.775661621093604 1466.174169921875 38.27294921875 1464.208984375 C34.00006872115796 1447.7831995707736 27.6783646687868 1432.492494668255 17.875 1418.5625 C17.20984374999989 1417.6124609375 16.54468750000001 1416.662421875 15.859375 1415.68359375 C10.927566786745956 1408.8801820601334 5.524707005004075 1402.6809865035361 -0.23046875 1396.5703125 C-0.6731772855900999 1396.0966683635186 -1.1158858211804272 1395.6230242270371 -1.5720097669400275 1395.135027237935 C-3.1250000000002274 1393.5625 -3.1250000000002274 1393.5625 -4.693907336797565 1392.270320044132 C-7.8280510381382555 1389.592326642312 -9.493340121289748 1387.6356749144993 -9.873766995966434 1383.4552369527519 C-9.903768005201982 1381.846928622746 -9.900920019844534 1380.2378010485381 -9.872000336647034 1378.6294729113579 C-9.875933347239652 1378.1822611284779 -9.875933347239652 1378.1822611284779 -9.895836764480919 1375.9190984696615 C-9.914961157244306 1372.9059174445147 -9.891150676368625 1369.8945941599065 -9.867731094360352 1366.881464958191 C-9.872661662511291 1364.6966614859332 -9.880226578869497 1362.5118626408625 -9.8901948928833 1360.3270763456821 C-9.910050562832566 1354.2885553023502 -9.892290127666456 1348.250627274568 -9.86873091943562 1342.2121408497915 C-9.851692313695366 1336.3314618231861 -9.862955860444345 1330.4508818146905 -9.87347253569169 1324.57019747296 C-9.89425438784474 1312.3919166693438 -9.886657155494504 1300.213800445494 -9.863775253295898 1288.035530090332 C-9.840706350066512 1275.6906608278753 -9.830740850609345 1263.3458842056893 -9.836874008178711 1251.0009937286377 C-9.837254180331911 1250.2218054679893 -9.83763435248511 1249.4426172073406 -9.8380260450067 1248.639817181218 C-9.840029263044698 1244.6668067883807 -9.842254833152992 1240.693796552815 -9.844565676525235 1236.7207863284275 C-9.860904307720148 1207.9461468644936 -9.848798018636899 1179.1715766372727 -9.822315216064453 1150.3969478607178 C-9.796211283663752 1121.8853615428504 -9.78426843909483 1093.3738208528455 -9.790691375732422 1064.8622226715088 C-9.790789056072754 1064.4195478186584 -9.790789056072754 1064.4195478186584 -9.79128337779548 1062.1793447754462 C-9.793292055648408 1053.1902696773607 -9.795615118723845 1044.2011946797838 -9.798149074747926 1035.212119715361 C-9.803561317796493 1016.0101538170429 -9.80703329000221 996.8081876646725 -9.809682846069336 977.6062211990356 C-9.809811543092337 976.6906172145177 -9.809940240115338 975.7750132299993 -9.81007283704821 974.8316636701929 C-9.816079289630125 931.2413596245246 -9.802950060161038 887.6510656612718 -9.786262888694182 844.0607651843457 C-9.78515597318983 841.1679777624222 -9.784055879860261 838.2751903379776 -9.782957730814815 835.3824029127136 C-9.779287820097124 825.7208270499375 -9.775588199841877 816.0592511986538 -9.77187081426382 806.3976753540337 C-9.771502317178829 805.4397216398443 -9.771133820093837 804.4817679256548 -9.770754156430485 803.4947853110352 C-9.768890314301188 798.6532616265272 -9.767019225635977 793.8117379449591 -9.765136574395001 788.970214267727 C-9.748216224466887 745.407002825053 -9.73583293683214 701.8437907279231 -9.726224841317162 658.2805770804407 C-9.725586102551006 655.3911274966197 -9.724939062238036 652.501677914745 -9.724290924146771 649.6122283330187 C-9.714577034060767 606.0826526219773 -9.709083206041896 562.5530800061644 -9.713903427124023 519.0235033035278 C-9.71395296566834 518.5659621727038 -9.71395296566834 518.5659621727038 -9.714203660725616 516.2505267530796 C-9.716191292556687 497.96678970549965 -9.718608666336195 479.68305277370587 -9.722111955372384 461.39931595030066 C-9.723996277129572 451.5111275871259 -9.725615098170238 441.62293920190814 -9.726940155029297 431.73475074768066 C-9.727000136597326 431.29243036507023 -9.727000136597326 431.29243036507023 -9.727303679683246 429.05402115610195 C-9.731109057331196 399.6804927364999 -9.717936440021731 370.30699727228523 -9.696396438404918 340.9334774138406 C-9.676041456545136 313.113437748191 -9.66750327959835 285.293419445993 -9.673715038748924 257.4733724168909 C-9.674590246100479 253.5053876161802 -9.675308846533198 249.53740280199997 -9.675928115844727 245.5694179534912 C-9.67599077050977 245.18050800206754 -9.67599077050977 245.18050800206754 -9.676307841087691 243.2123879448627 C-9.677902867063949 230.90649874015958 -9.665969325070591 218.6006611215671 -9.64831937738927 206.29478602748713 C-9.631219049951369 194.1880614770621 -9.628329964135446 182.08140261229448 -9.640437295194715 169.97467130725272 C-9.646305549807494 163.50092273912537 -9.645808328677276 157.027346710507 -9.627585127949715 150.5536173209548 C-9.611103770235786 144.65959721274646 -9.613161168281977 138.7658802555129 -9.629748657345772 132.87186310067773 C-9.632487887489788 130.75735829602695 -9.628574737823783 128.64283118657727 -9.61703273653984 126.52835610881448 C-9.472757502410104 98.3255538698653 -17.178998385889827 75.04157508998941 -36.125 53.5625 C-36.66382812500001 52.9398828125 -37.20265625000002 52.317265625000005 -37.7578125 51.67578125 C-52.49605307517368 35.78958726319229 -76.0631674565011 24.631162784453807 -97.6376953125 23.421630859375 C-128.9879929237868 22.326292089943877 -153.4145100988992 30.702835368969204 -176.125 52.5625 Z " fill="#FFFFFF" transform="translate(1362.125,410.4375)"/>
<path d="M0 0 C20.789999999999964 0 41.57999999999993 0 63 0 C63 437.58000000000004 63 875.1600000000001 63 1326 C64.65000000000009 1326.66 66.29999999999995 1327.32 68 1328 C83.04378529322389 1337.9931787405617 93.57823503851546 1352.251013097049 97.6796875 1369.9296875 C101.17054425369543 1388.3403703790782 98.25748488566501 1407.265226346213 87.875 1423.0625 C76.63711701506418 1438.118846450785 61.75388253556207 1448.659675388706 43 1452 C23.71532407020368 1453.4530648564853 5.914446588474675 1451.0707325430462 -9.78515625 1438.828125 C-24.923003857237973 1425.5853623873334 -34.565972884323855 1409.8235452686722 -36 1389.5 C-36.83164145774208 1371.2997663934716 -30.81341629366807 1353.4215738985895 -18.90234375 1339.55859375 C-13.858025491154194 1334.3007593743775 -8.293756385151482 1329.7001100865446 -2 1326 C-1.3399999999999181 1326 -0.6800000000000637 1326 0 1326 C0 888.4200000000001 0 450.8399999999999 0 0 Z " fill="#BD03F7" transform="translate(1220,530)"/>
</svg>
