<?xml version="1.0" encoding="UTF-8"?>
<!-- Generator: visioncortex VTracer 0.6.12 -->
<svg version="1.1" xmlns="http://www.w3.org/2000/svg" width="600" height="600">
<path d="M0 0 C0.5433398437500045 -0.012890624999997158 0.5433398437500045 -0.012890624999997158 3.29296875 -0.078125 C10.639795850484177 0.606817815139479 15.866055797748118 3.5920822263142043 21.4375 8.25 C22.663862400057212 9.243736575921417 23.890430539492456 10.237219295711512 25.1171875 11.23046875 C25.733037109375005 11.734975585937505 26.34888671875001 12.239482421874996 26.9833984375 12.75927734375 C29.813062356976502 15.065460991951198 32.68763717157913 17.313112961755664 35.5625 19.5625 C36.12920410156249 20.007871093749998 36.695908203124986 20.453242187499995 37.27978515625 20.912109375 C42.883067145850305 25.31546222894397 48.51187546469163 29.68588704532536 54.1396484375 34.057861328125 C59.26809514328903 38.043686620607644 64.38122578113405 42.04827240243499 69.484375 46.06640625 C74.24624633392818 49.81255732233342 79.02781987145426 53.53304211490487 83.8125 57.25 C89.15737747384566 61.402144748977406 94.49482497810237 65.56306819277034 99.8125 69.75 C108.11692075973247 76.28713772472258 116.46614676003082 82.76654721099544 124.8125 89.25 C133.71940964299267 96.16889337845538 142.62394887435892 103.09001264990752 151.4853515625 110.067138671875 C156.24685444321096 113.81310013210157 161.02814129090103 117.53329180819998 165.8125 121.25 C171.71757595166127 125.83733249264964 177.60942783001195 130.4405716792384 183.484375 135.06640625 C188.24624633392835 138.81255732233353 193.02781987145414 142.53304211490484 197.8125 146.25 C203.71757595166133 150.83733249264967 209.60942783001195 155.44057167923836 215.484375 160.06640625 C219.47469219279668 163.20557780304875 223.47780744358374 166.32792107677525 227.487060546875 169.44287109375 C229.0309962166932 170.64268335915622 230.57413507774538 171.8435217083543 232.116455078125 173.04541015625 C235.672654243833 175.8161279715642 239.23503320258078 178.57679915720692 242.82421875 181.3046875 C260.9192955948123 195.13241262920002 260.9192955948123 195.13241262920002 262.5625 207 C263.52336779113057 219.23746715119114 257.9528170187151 226.5115872035662 250.375 235.5625 C250.02501953125 235.96275390625 250.02501953125 235.96275390625 248.25390625 237.98828125 C246.8125 240.25 246.8125 240.25 246.7890625 242.3125 C248.2190845331104 245.01971728405624 250.1245454491525 246.19120890079904 252.625 247.9375 C258.3467444125954 252.3577317350522 261.0335384002997 256.3939202401658 262.1796875 263.5390625 C262.715014357781 272.7025987126033 257.3383864640509 279.27541976639316 251.6875 285.9375 C250.5155940776092 287.3491548647595 249.3450345683292 288.761928490442 248.17578125 290.17578125 C247.60166503906248 290.8675244140625 247.02754882812496 291.559267578125 246.43603515625 292.27197265625 C242.91201167874385 296.5654520870402 239.58178739967752 301.00823882514345 236.21240234375 305.42333984375 C231.63974741729817 311.3899607296434 227.00972818504636 317.31262779969904 222.38232421875 323.23681640625 C221.0222123571113 324.98105939397516 219.66833585258132 326.7298860201269 218.31640625 328.48046875 C217.63449218749997 329.3531640625 216.952578125 330.225859375 216.25 331.125 C215.6918359375 331.844296875 215.133671875 332.56359375 214.55859375 333.3046875 C210.9608412409437 337.3129218389486 207.68172591157696 339.90499414457446 202.24609375 340.55859375 C194.02640010052647 340.9122441938496 189.3912745229888 339.0146938405699 182.8125 334.25 C180.81542396171074 332.9122911097445 178.81604607254644 331.5779988377109 176.8125 330.25 C176.45534912109378 330.70850341796876 176.0981982421875 331.1670068359375 175.730224609375 331.639404296875 C174.0798508036022 333.74657562130704 172.41512024258134 335.8419653245061 170.75 337.9375 C170.18861328125 338.65873046875 169.62722656250003 339.3799609375 169.048828125 340.123046875 C163.48761558629417 347.08250713772327 157.8649356697017 351.97427064886443 148.8125 353.25 C139.08276423731888 354.2070231897719 131.6546739788438 350.97248486799305 124.146484375 344.928466796875 C122.08277043568381 343.21493620112636 120.03361729770427 341.48541482263545 117.98828125 339.75 C114.05006455157246 336.40926152825074 109.97145919399526 333.30885399415973 105.8125 330.25 C100.36142946503702 326.2177924563655 95.05057038824708 322.05507912227205 89.8125 317.75 C84.29177823276484 313.229755396174 78.72830093628937 308.7750545629468 73.0625 304.4375 C72.39476562499999 303.9154296875 71.72703124999998 303.393359375 71.0390625 302.85546875 C67.61168004125665 300.2602491104577 66.23698157266517 299.25 61.8125 299.25 C59.60721068815104 300.5853928682568 57.5374182937411 301.9540366524538 55.4375 303.4375 C39.374629014498 314.3009891230416 20.949950210997542 316.35070737622004 1.984375 313.71875 C-4.311937940922462 312.20236049590346 -10.198227660513965 309.6798375058039 -16.1875 307.25 C-19.338221281490235 310.37572471328605 -22.48543135978187 313.5049331004841 -25.629638671875 316.63720703125 C-26.696422968933035 317.69900860822236 -27.76410853392045 318.75990557968663 -28.832763671875 319.81982421875 C-38.854894309786175 329.7621533480689 -38.854894309786175 329.7621533480689 -42.5625 334.125 C-48.027254796851224 340.5227617133868 -54.15927801559019 346.3254745322252 -60.125 352.25 C-61.3941137349816 353.514088504967 -62.66299588552155 354.77840955972766 -63.931640625 356.04296875 C-67.01426319852774 359.11466723849617 -70.10000427667407 362.1832000817701 -73.1875 365.25 C-72.98036376953124 365.90879150390623 -72.7732275390625 366.5675830078125 -72.559814453125 367.246337890625 C-68.78653683758245 379.48117654238865 -67.90493558295174 390.48970564611636 -73.3125 402.4375 C-78.79899442469494 412.4722187883551 -87.34045301242344 418.34235329466424 -98.13671875 421.890625 C-109.20951049287882 423.8309999339902 -118.75777712849728 421.8358069860304 -128.4375 416.4375 C-137.41969416161675 409.29257282598667 -137.41969416161675 409.29257282598667 -139.15478515625 404.6767578125 C-141.1875 402.25 -141.1875 402.25 -143.19618225097656 401.77159118652344 C-145.91480942010557 401.57176916713433 -148.59828808450834 401.5316006580044 -151.32421875 401.54296875 C-151.7650177001953 401.5356573486328 -151.7650177001953 401.5356573486328 -153.9957275390625 401.4986572265625 C-157.2885408118787 401.4512918417717 -160.58185973755488 401.44698373206285 -163.875 401.4375 C-171.238125 401.375625 -178.60125 401.31375 -186.1875 401.25 C-186.1875 423.03 -186.1875 444.81 -186.1875 467.25 C-191.7975 467.25 -197.4075 467.25 -203.1875 467.25 C-203.1875 418.08 -203.1875 368.90999999999997 -203.1875 318.25 C-197.5775 318.25 -191.9675 318.25 -186.1875 318.25 C-186.1875 340.03 -186.1875 361.81 -186.1875 384.25 C-172.6575 384.25 -159.1275 384.25 -145.1875 384.25 C-144.85750000000002 382.27 -144.85750000000002 382.27 -143.1875 372.25 C-139.19688749398492 362.2130049091136 -133.30202858920103 354.8755446964368 -123.375 350.25 C-113.91310171796133 346.31778253213974 -103.80017113286902 345.57027626827477 -94.0625 349.1875 C-93.214296875 349.5471484375 -92.36609375 349.906796875 -91.4921875 350.27734375 C-89.38780681300273 351.1654637348514 -87.40284102046519 351.72574342333377 -85.1875 352.25 C-84.78982421875 351.81623046875 -84.78982421875 351.81623046875 -82.77734375 349.62109375 C-71.83720484831753 337.803864256343 -60.45532705893015 326.4493955520427 -49.017333984375 315.116943359375 C-42.85370452335238 308.99904635367125 -36.766923499295814 302.9164344702393 -31.1875 296.25 C-31.57615234375001 295.7493603515625 -31.964804687499992 295.248720703125 -32.365234375 294.73291015625 C-46.0832530667347 276.9468894476786 -53.341026976847644 258.61998621566306 -50.5 236 C-49.53188030211888 229.9421333610527 -47.572194756862075 224.6308959388772 -45.11328125 219.02734375 C-44.1875 216.25 -44.1875 216.25 -44.1875 214.1640625 C-45.728102687019884 211.215252669376 -48.23259418896623 209.58774273486614 -50.875 207.6875 C-52.07358419763196 206.79647015569162 -53.27147885015833 205.90451215052337 -54.46875 205.01171875 C-55.087500000000006 204.55458496093752 -55.70625000000001 204.09745117187504 -56.34375 203.62646484375 C-59.23023936205922 201.47153541799656 -62.05125889122641 199.23612759114462 -64.875 197 C-70.29511453827851 192.72749416537397 -75.73718531395477 188.4838959669574 -81.1875 184.25 C-83.46474337042653 182.4792931276029 -85.74173174210563 180.7082591471266 -88.0185546875 178.93701171875 C-89.41989744107713 177.84704341311988 -90.82156728948473 176.75749545548177 -92.2236328125 175.66845703125 C-96.23136162474944 172.55323954231227 -100.2177028274264 169.4134321218946 -104.1875 166.25 C-105.01249999999999 165.60546875 -105.8375 164.9609375 -106.6875 164.296875 C-112.53851941215629 159.52141062684302 -116.39915624261499 153.9363516345037 -117.1875 146.25 C-118.12080272626162 134.3503902401643 -112.80199678900962 126.70995238068656 -105.580078125 117.94873046875 C-103.31876931765106 115.19028259330577 -101.13358987614589 112.37291457718229 -98.9375 109.5625 C-98.01592549369096 108.39169049449549 -97.0940414282349 107.22112459598657 -96.171875 106.05078125 C-92.82661374816874 101.79716675784982 -89.5070366135231 97.52370075948829 -86.1875 93.25 C-82.03539584357071 87.9050912054393 -77.87443159725262 82.56767475521315 -73.6875 77.25 C-67.15036227527736 68.94557924026745 -60.67095278900459 60.59635323996926 -54.1875 52.25 C-38.02279874502983 31.44067029818396 -38.02279874502983 31.44067029818396 -33.163818359375 25.315673828125 C-30.85033523852573 22.395557294432706 -28.586296370581408 19.45056831333109 -26.37890625 16.44921875 C-19.2232712957819 6.826379206281231 -12.602663632017425 0.1772942128771433 0 0 Z M-14.25 29.0625 C-15.406107791432419 30.601346548322965 -16.563689503931755 32.13908674353354 -17.72265625 33.67578125 C-18.30289550781248 34.446157226562505 -18.883134765625016 35.216533203124996 -19.48095703125 36.01025390625 C-21.99112189604486 39.30471062579622 -24.583365372239143 42.529656211862445 -27.1875 45.75 C-31.439120073412084 51.02082964029242 -35.590224529318306 56.358367641431784 -39.6875 61.75 C-44.3311979820906 67.8603839299293 -49.06352618808572 73.88744131861273 -53.876708984375 79.864990234375 C-57.47239611595407 84.33683221741646 -60.99207034598703 88.86072036683694 -64.478271484375 93.418212890625 C-67.4354413653013 97.28139428682812 -70.42658558431879 101.11608056329817 -73.4375 104.9375 C-77.80796313916852 110.48735707293332 -82.16022469941109 116.05110827006592 -86.5 121.625 C-87.07459960937501 122.36194091796875 -87.64919921875 123.0988818359375 -88.2412109375 123.858154296875 C-89.89552218554724 125.98454363874907 -91.5426849714141 128.11625932112133 -93.1875 130.25 C-93.75315673828123 130.97775634765625 -94.3188134765625 131.7055126953125 -94.901611328125 132.455322265625 C-95.17179077148438 132.80751831054687 -95.17179077148438 132.80751831054687 -96.5390625 134.58984375 C-97.02326660156251 135.21753662109376 -97.507470703125 135.8452294921875 -98.00634765625 136.491943359375 C-99.76118433476967 139.10388608819272 -100.25708518799172 141.118666540372 -100.1875 144.25 C-96.95024699089959 152.66685782366113 -86.60189185187863 158.30532530742198 -79.66015625 163.59375 C-76.24720606060063 166.19628000144834 -72.87008698637351 168.84231276484434 -69.5 171.5 C-64.07894578987185 175.7713191884376 -58.6380373280426 180.01637222818144 -53.1875 184.25 C-47.84259120543925 188.40210415642932 -42.50517475521315 192.56306840274738 -37.1875 196.75 C-28.883079240267534 203.28713772472258 -20.533853239969233 209.76654721099544 -12.1875 216.25 C-3.28059035700727 223.16889337845544 5.623948874358916 230.09001264990752 14.4853515625 237.067138671875 C19.246854443210907 240.81310013210157 24.028141290901033 244.53329180819992 28.8125 248.25 C34.71757595166133 252.8373324926497 40.609427830011896 257.4405716792383 46.484375 262.06640625 C51.2462463339283 265.8125573223335 56.0278198714542 269.5330421149048 60.8125 273.25 C66.71757595166127 277.83733249264964 72.6094278300119 282.44057167923836 78.484375 287.06640625 C83.24624633392818 290.8125573223334 88.0278198714542 294.53304211490484 92.8125 298.25 C98.15738089674824 302.40214740804436 103.49447830585609 306.5635053534483 108.8125 310.75 C110.51325290154341 312.0867522805457 112.21431016002026 313.42311598486083 113.91552734375 314.75927734375 C115.28362153055701 315.83438456442485 116.65105316116819 316.9103350883939 118.01806640625 317.98681640625 C120.38446003076092 319.8486947129389 122.75444522473379 321.70592371269345 125.125 323.5625 C125.85396484374996 324.137421875 126.58292968750004 324.71234375 127.333984375 325.3046875 C141.00990306859666 335.9924861526566 141.00990306859666 335.9924861526566 146.3125 336.75 C155.83432002054337 332.6692199911957 162.37057488993077 320.7110651153554 168.4765625 312.62890625 C171.58255242513576 308.52939659576066 174.77218361813584 304.5039547545907 178 300.5 C182.10013901065253 295.40883845033807 186.13172432969662 290.27376994307 190.103271484375 285.081787109375 C193.0604402791892 281.2186071320447 196.05149459790977 277.3838465195275 199.0625 273.5625 C203.3335766770146 268.14125334586276 207.57887071398613 262.7005392774766 211.8125 257.25 C215.9646053607143 251.9050896551907 220.125760974027 246.56782756996495 224.3125 241.25 C228.69810124780713 235.67494296299128 233.07313712574899 230.0917014693449 237.4375 224.5 C238.05431640625 223.71238281249998 238.6711328125 222.92476562499996 239.306640625 222.11328125 C239.87833984374993 221.37980468750004 240.45003906250008 220.64632812499997 241.0390625 219.890625 C241.55033691406243 219.23610351562502 242.06161132812508 218.58158203125004 242.58837890625 217.9072265625 C244.87732269741787 214.8084330933242 245.05539658356543 212.23480174464908 245.3359375 208.41796875 C243.97240068575024 202.77048418351808 236.71677459420835 198.60336758192227 232.3125 195.0625 C231.95824951171875 194.7762878417969 231.95824951171875 194.7762878417969 230.16552734375 193.327880859375 C224.38485427752346 188.6738611036296 218.52123615298325 184.13894966180112 212.62158203125 179.63671875 C209.02536141788357 176.88010159967322 205.4511091125396 174.0951247974117 201.875 171.3125 C201.1030126953125 170.71187744140624 200.33102539062497 170.1112548828125 199.53564453125 169.492431640625 C194.39240748077714 165.48761216402184 189.2624354777348 161.46631402957036 184.140869140625 157.433837890625 C179.37897871298446 153.68752621550402 174.5972701906536 149.96702784945072 169.8125 146.25 C163.90742404833884 141.66266750735048 158.0155721699881 137.05942832076164 152.140625 132.43359375 C147.37875366607182 128.68744267766658 142.5971801285458 124.96695788509513 137.8125 121.25 C132.4676225261544 117.09785525102262 127.13017502189757 112.9369318072296 121.8125 108.75 C113.50807924026742 102.21286227527733 105.15885323996929 95.73345278900462 96.8125 89.25 C87.90559035700727 82.33110662154459 79.00105112564108 75.40998735009245 70.1396484375 68.432861328125 C65.37814555678915 64.68689986789852 60.59685870909891 60.966708191799995 55.8125 57.25 C50.46762067806321 53.09785381534104 45.13036031533596 48.93669820881598 39.8125 44.75 C32.17891071943927 38.74586475733639 24.536013288989068 32.75456420466054 16.84375 26.82568359375 C15.039480489522475 25.426073567232976 13.252176923695629 24.008004070454916 11.46875 22.58203125 C4.859578230775071 17.452660302730663 4.859578230775071 17.452660302730663 -0.0625 16.5 C-6.828766635539864 18.123903992529577 -10.320471864040655 23.746920121538665 -14.25 29.0625 Z M-29.1875 225.25 C-35.213934305105624 239.23693357324515 -35.4312466197421 252.1963990883961 -30 266.375 C-23.886868293964653 280.1696470567678 -13.02717576125815 289.5768169855939 0.8125 295.25 C11.736714964926875 299.0339510910542 25.315488762220923 298.816274170713 36.078125 294.60546875 C40.913656196126965 292.20842685706276 45.3969733592005 289.34434544119017 49.8125 286.25 C46.81836782952212 283.1139658309213 43.64262329749715 280.4908943828596 40.1875 277.875 C39.02693391316137 276.99142347306145 37.866802565445255 276.107275725677 36.70703125 275.22265625 C36.39483642578125 274.98490478515623 36.39483642578125 274.98490478515623 34.81494140625 273.78173828125 C31.151928639995674 270.9797702130374 27.514150058624637 268.14534822398764 23.875 265.3125 C23.103979492187477 264.7126025390625 22.33295898437501 264.11270507812503 21.53857421875 263.49462890625 C16.397174052161517 259.49142611999423 11.268815356028483 255.47201961088484 6.149658203125 251.4404296875 C0.5331044356395296 247.02089939528378 -5.11273054135404 242.6391963304506 -10.76171875 238.26123046875 C-15.715812123156468 234.41579793928304 -20.61117173443074 230.51299463705226 -25.4375 226.5078125 C-27.1875 225.25 -27.1875 225.25 -29.1875 225.25 Z M232.8125 257.25 C230.89774753805074 259.44045257909704 229.09547797388484 261.64307571107594 227.3125 263.9375 C226.7735107421875 264.62158935546876 226.23452148437502 265.3056787109375 225.67919921875 266.010498046875 C224.04920120239512 268.0844073484271 222.4288617016029 270.16545077103626 220.8125 272.25 C220.378408203125 272.809775390625 219.94431640624998 273.36955078125 219.4970703125 273.9462890625 C217.4954007039256 276.53373425579866 215.503979618835 279.1288734011995 213.515625 281.7265625 C205.39910734605496 292.3248378281027 197.20900474053587 302.8717115318843 188.8125 313.25 C190.17466242261213 316.469656635265 191.53781152749588 318.0668743516639 194.4375 320 C195.069140625 320.42796875 195.70078124999998 320.8559375 196.3515625 321.296875 C196.59261718750003 321.45414062500004 196.59261718750003 321.45414062500004 197.8125 322.25 C200.79058198237362 320.94844738623607 202.48343926607293 319.7567786479263 204.37109375 317.1171875 C204.832578125 316.4842578125 205.2940625 315.851328125 205.76953125 315.19921875 C206.25808593750003 314.5147265625 206.746640625 313.83023437500003 207.25 313.125 C211.45645250397894 307.3671578349001 215.77428888664872 301.75019989907594 220.3125 296.25 C225.30915700039134 290.17742872739814 230.0994672490034 283.98092359531086 234.767578125 277.65234375 C235.22583984375 277.0323046875 235.68410156250002 276.412265625 236.15625 275.7734375 C236.59324218749998 275.180146484375 237.03023437499996 274.58685546875 237.48046875 273.9755859375 C238.82322075115871 272.2361117541807 240.2550594214456 270.6146459642913 241.71875 268.9765625 C242.40968750000002 268.076796875 243.10062500000004 267.17703125 243.8125 266.25 C242.663763798103 262.8037913943089 241.73668357579174 262.15830804375344 238.875 260.0625 C238.16472656249994 259.5326953125 237.454453125 259.002890625 236.72265625 258.45703125 C234.8125 257.25 234.8125 257.25 232.8125 257.25 Z M-124.1875 372.25 C-127.43999009267037 377.29696738517816 -128.8763407930116 382.62743547246583 -127.75 388.55078125 C-125.8807955029489 394.86996690764437 -123.07647932865535 399.2065755968047 -117.625 403.0625 C-112.11539976249679 405.7466642182708 -106.47667292062357 406.3664163794506 -100.62109375 404.37890625 C-93.90575463099506 401.32647937772504 -90.09583756307907 397.99433921932155 -87.34375 391.15234375 C-85.51989634132903 384.99683765198546 -86.57915055768979 380.0277400854192 -89.1875 374.25 C-92.71019626080329 368.65512946813595 -96.9705020204974 366.09323055673696 -103.1875 364.25 C-111.62167920800573 362.86249177539275 -118.26949556838281 366.4664956691014 -124.1875 372.25 Z " fill="#FFFFFF" transform="translate(277.1875,64.75)"/>
<path d="M0 0 C2.5464387818348655 1.58925888824173 4.783211275663575 3.490352418562523 7.0625 5.4375 C8.394921448595369 6.540165317540641 9.728270565282173 7.641710542169193 11.0625 8.7421875 C11.725078124999982 9.293583984375005 12.38765625000002 9.844980468750009 13.0703125 10.4130859375 C15.849381185340008 12.698504264259867 18.698504054014165 14.885138913096512 21.5625 17.0625 C25.963197894862617 20.426359691488784 30.336710910497857 23.82182373152955 34.6875 27.25 C40.108746654137235 31.521076677014605 45.54946072252335 35.766370713986134 51 40 C56.90511059663436 44.58728767783873 62.796928099259105 49.190571891239074 68.671875 53.81640625 C73.43374633392818 57.56255732233342 78.21531987145426 61.2830421149049 83 65 C88.34487747384571 69.15214474897743 93.68232497810237 73.31306819277034 99 77.5 C107.30442075973252 84.03713772472261 115.65364676003077 90.51654721099544 124 97 C132.90690964299267 103.91889337845538 141.81144887435892 110.84001264990755 150.6728515625 117.817138671875 C156.1964344148206 122.1626423931857 161.74695372410918 126.47327149516619 167.29736328125 130.784423828125 C172.74232224835868 135.01581782673202 178.17179051079194 139.266361007942 183.5859375 143.537109375 C186.36508255854642 145.7270484346144 189.15781201910647 147.89238717358865 192 150 C191.4182727485794 153.95205180330169 189.44842258944936 156.22095052701354 186.9375 159.25 C186.20402343750004 160.14203125 185.47054687499997 161.0340625 184.71484375 161.953125 C184.14894531250002 162.62859375 183.58304687500004 163.3040625 183 164 C178.44234050990394 163.10875460371443 175.554352824876 160.4663638302547 172.0625 157.5625 C170.71178148485365 156.45990278176788 169.36020452929768 155.35835642547715 168.0078125 154.2578125 C167.33266601562502 153.706416015625 166.65751953125 153.15501953125 165.9619140625 152.5869140625 C163.15876469565728 150.3195583028587 160.30449182821667 148.12320449983554 157.4375 145.9375 C153.03729167892317 142.57298970696456 148.66329949753492 139.17818446941294 144.3125 135.75 C138.89125334586265 131.47892332298534 133.4505392774767 127.23362928601395 128 123 C122.09488940336564 118.41271232216127 116.2030719007409 113.80942810876093 110.328125 109.18359375 C105.56625366607187 105.43744267766664 100.78468012854574 101.7169578850951 96 98 C90.09492404833873 93.41266750735039 84.2030721699881 88.80942832076167 78.328125 84.18359375 C73.56625366607182 80.43744267766661 68.78468012854574 76.7169578850951 64 73 C58.6551225261544 68.84785525102262 53.31767502189757 64.68693180722963 48 60.5 C39.69557924026742 53.96286227527736 31.34635323996929 47.48345278900459 23 41 C2.852617205891761 25.349499546452762 2.852617205891761 25.349499546452762 -5.859375 18.4765625 C-7.907181912619706 16.861749586317302 -9.959084440073639 15.252112910719774 -12.015625 13.6484375 C-12.91796875 12.939453125 -13.8203125 12.23046875 -14.75 11.5 C-15.528593750000027 10.891562499999992 -16.307187499999998 10.283125000000013 -17.109375 9.65625 C-19 8 -19 8 -21 5 C-6.336015420785941 -1.712846274040217 -6.336015420785941 -1.712846274040217 0 0 Z " fill="#BD03F7" transform="translate(295,123)"/>
<path d="M0 0 C2.3566310472184 0.8160511173245197 3.8520929894662572 1.846354659110375 5.80126953125 3.397216796875 C6.507998046875002 3.9536889648437636 7.2147265625000045 4.510161132812499 7.94287109375 5.08349609375 C8.697939453125002 5.688469238281243 9.453007812500005 6.293442382812486 10.23095703125 6.916748046875 C11.85320182675423 8.19818927688786 13.475602074207302 9.479433732481965 15.09814453125 10.760498046875 C15.5130615234375 11.089853515625009 15.5130615234375 11.089853515625009 17.61279296875 12.756591796875 C21.5061455649481 15.837113631704653 25.432151550721187 18.875185836962856 29.35595703125 21.916748046875 C35.17814909351125 26.44158348561629 40.98535082527161 30.984841963796555 46.77880859375 35.54638671875 C51.54031147446091 39.29234817897651 56.32159832215109 43.01253985507498 61.10595703125 46.729248046875 C66.45083450509566 50.881392795852406 71.78828200935243 55.042316239645345 77.10595703125 59.229248046875 C85.41037779098252 65.76638577159761 93.75960379128077 72.24579525787044 102.10595703125 78.729248046875 C111.01286667424267 85.64814142533038 119.91740590560892 92.56926069678255 128.77880859375 99.54638671875 C133.54031169132963 103.29234834959115 138.32162226685455 107.01250872239768 143.10595703125 110.729248046875 C148.7203521831393 115.09129749177634 154.32811243434566 119.46140460689634 159.91845703125 123.854248046875 C160.47468749999996 124.29124023437498 161.03091796875003 124.72823242187502 161.60400390625 125.178466796875 C164.7837989277191 127.67995782486179 167.95013488581753 130.19759035534503 171.10595703125 132.729248046875 C170.5242297798294 136.68129985017674 168.55437962069936 138.95019857388849 166.04345703125 141.979248046875 C165.30998046875004 142.871279296875 164.57650390624997 143.763310546875 163.82080078125 144.682373046875 C163.25490234375002 145.357841796875 162.68900390625004 146.033310546875 162.10595703125 146.729248046875 C157.26783032379922 145.18984409450428 153.94799845160213 142.41563404707654 150.10595703125 139.229248046875 C148.7643455190614 138.13577312262885 147.42188317559487 137.0433413544 146.07861328125 135.951904296875 C145.40975097656246 135.4067919921875 144.74088867187504 134.8616796875 144.0517578125 134.300048828125 C141.25242571900287 132.04021160233322 138.4038905341095 129.84839719063382 135.54345703125 127.666748046875 C131.14332413057826 124.30213766433542 126.76925809292379 120.90743374874108 122.41845703125 117.479248046875 C116.99721037711271 113.20817136986034 111.55649630872665 108.96287733288892 106.10595703125 104.729248046875 C100.20084643461564 100.1419603690363 94.3090289319909 95.53867615563593 88.43408203125 90.912841796875 C83.67221069732187 87.16669072454164 78.89063715979574 83.4462059319701 74.10595703125 79.729248046875 C68.20088107958873 75.14191555422542 62.309029201238104 70.5386763676367 56.43408203125 65.912841796875 C51.672210697321816 62.16669072454161 46.890637159795745 58.4462059319701 42.10595703125 54.729248046875 C36.20377451000519 50.144163303022054 30.314378038900713 45.54371937776844 24.44287109375 40.91943359375 C19.59659884421518 37.10616784990907 14.727070593803319 33.32320443715855 9.85595703125 29.541748046875 C4.218201624201583 25.164773965391078 -1.3976391109441693 20.766664068148202 -6.94873046875 16.280029296875 C-8.902192397922875 14.72275141357855 -10.888033023730145 13.218013275129636 -12.89404296875 11.729248046875 C-11.500137574826908 8.572052329639234 -9.85769325118082 6.447982750689874 -7.39404296875 4.041748046875 C-6.7856054687500205 3.4397558593749977 -6.177167968749984 2.8377636718749955 -5.55029296875 2.217529296875 C-2.659423378754184 -0.38016248092785077 -2.659423378754184 -0.38016248092785077 0 0 Z " fill="#BD03F7" transform="translate(269.89404296875,151.270751953125)"/>
</svg>
