<?xml version="1.0" encoding="UTF-8"?>
<!-- Generator: visioncortex VTracer 0.6.12 -->
<svg version="1.1" xmlns="http://www.w3.org/2000/svg" width="2500" height="2500">
<path d="M0 0 C2.270189739069565 0.1862767549173725 4.540717867461808 0.3675034437087277 6.81146240234375 0.546875 C104.1463903729773 8.280549613485732 201.45784820136737 30.955155039282204 363.38031005859375 100.1953125 C364.72297817252115 100.847059470327 366.0657363371845 101.49862099810997 367.40863037109375 102.14990234375 C381.86314229614777 109.19277859320164 395.96030532955206 116.72784364673527 409.88519287109375 124.76416015625 C412.7380974072912 126.40053260157185 415.6118366261094 127.99599871843355 418.49090576171875 129.585693359375 C440.6284245349575 141.85443841925633 461.63536133037496 155.834401073697 482.5921630859375 169.98846435546875 C484.2098911474761 171.08029413192378 485.82941951323755 172.16945529170567 487.44915771484375 173.25830078125 C498.3463920881652 180.58551369652434 508.95511488270336 188.21154930338946 519.3803100585938 196.1953125 C520.4986289676722 197.04579738626967 521.6171121679704 197.89606629671874 522.7357788085938 198.74609375 C530.4916587022249 204.65818041714346 538.1070900014677 210.74032637666966 545.7055053710938 216.8525390625 C547.1519329391283 218.01221131092427 548.6053277412432 219.16318361369673 550.0599975585938 220.3125 C556.7155791593748 225.571500543568 563.137539807823 231.08451271422229 569.5570678710938 236.62646484375 C571.3544872568848 238.1730927190972 573.1589495455257 239.71102679357512 574.9662475585938 241.24609375 C582.0323992039305 247.25334362820138 588.9663250176477 253.3665658016679 595.7572631835938 259.685546875 C597.5504400645543 261.35356820951574 599.3482577843372 263.0165179287718 601.1459350585938 264.6796875 C607.3824941871901 270.462777687218 613.535484386327 276.2912849236079 619.5053100585938 282.3515625 C622.0053217303837 284.8099073105934 624.6367528109372 287.0145362262217 627.3803100585938 289.1953125 C622.6289473157824 294.9123178818214 617.5341641914222 300.1722067347812 612.2631225585938 305.41015625 C611.4059664916992 306.2658973693848 610.5488104248047 307.1216384887696 609.6656799316406 308.00331115722656 C606.94791051689 310.71551715197234 604.226671147168 313.4242108008184 601.5053100585938 316.1328125 C599.6535166403705 317.97958619139865 597.8019517207197 319.8265890326031 595.9506225585938 321.673828125 C591.4298257114208 326.18364451371497 586.9061806029233 330.690588194626 582.3803100585938 335.1953125 C575.0386933872624 328.98788429870126 575.0386933872624 328.98788429870126 571.6967163085938 325.57421875 C571.3901611328124 325.2634338378906 571.3901611328124 325.2634338378906 569.8388061523438 323.690673828125 C569.2131274414062 323.05282958984367 568.5874487304689 322.41498535156256 567.9428100585938 321.7578125 C563.569130927815 317.34206852245575 559.2076457379767 312.9990458606941 554.4545288085938 308.98828125 C552.169068950443 307.01271425397135 549.9660385325392 304.9626398095711 547.7589721679688 302.900390625 C542.3302017120543 297.82820896040084 536.7941316688887 292.9978591262368 530.9974975585938 288.34375 C528.3618939257508 286.1801947790095 525.8360763095827 283.9314168973201 523.3178100585938 281.6328125 C518.5054008101074 277.2585818016114 513.4983113056924 273.2045358585593 508.38031005859375 269.1953125 C507.3890209960937 268.40898437500005 506.39773193359383 267.62265625 505.37640380859375 266.8125 C498.3260635001709 261.2265020711077 491.208131457181 255.72816208699055 484.06781005859375 250.2578125 C483.2636767578124 249.63841796875 482.45954345703126 249.01902343749998 481.63104248046875 248.380859375 C467.714642514248 237.75552761069764 453.2051621187172 227.94951454008674 438.63031005859375 218.2578125 C437.8456134033204 217.73551055908206 437.0609167480468 217.21320861816406 436.25244140625 216.67507934570313 C424.11044420241456 208.60017239791875 411.9257437029121 200.63396624429583 399.38031005859375 193.1953125 C398.4323657226562 192.63150878906254 397.48442138671885 192.06770507812496 396.50775146484375 191.48681640625 C379.01420191313036 181.12868292950202 361.15984713725106 171.4916468257316 343.13043212890625 162.1068115234375 C341.54172207887837 161.27937914961046 339.9545784728157 160.44894085947112 338.36761474609375 159.6181640625 C264.7823680660581 121.25003795981138 183.15999576598097 94.90991236419381 -60.61968994140625 61.1953125 C-61.06078094482427 61.19036773681637 -61.06078094482427 61.19036773681637 -63.29296875 61.16534423828125 C-152.9620433872069 60.167310271384906 -241.27464073527312 70.54543787287605 -434.61968994140625 130.1953125 C-435.74713623046875 130.663564453125 -436.87458251953126 131.13181640624998 -438.03619384765625 131.6142578125 C-472.65204846813583 146.05398678873456 -506.6743902078099 161.99800957286146 -539.1567993164063 180.7802734375 C-541.9970009223013 182.41209426499472 -544.8591288947283 184.00082054122345 -547.7266235351563 185.583984375 C-575.4278586471444 200.9314832196094 -602.0072688142167 218.58551519933212 -627.6196899414063 237.1953125 C-628.0012524414062 237.47205810546876 -628.0012524414062 237.47205810546876 -629.9321899414063 238.87255859375 C-645.2740885793559 250.0255534168909 -660.1122910056038 261.7115900118009 -674.7979125976563 273.7099609375 C-676.4363888939465 275.0458614717577 -678.0804304179546 276.37492933766555 -679.7251586914063 277.703125 C-685.0537950417594 282.0171408887204 -690.2174821388269 286.4630666576521 -695.2876586914063 291.078125 C-697.377928833868 292.9758241913138 -699.4895510905976 294.8426466457897 -701.6196899414063 296.6953125 C-706.3352152961163 300.80845537426796 -710.9839952234136 304.9925570018711 -715.6196899414063 309.1953125 C-716.0679211425781 309.6001184082031 -716.0679211425781 309.6001184082031 -718.3362426757813 311.648681640625 C-727.353098772626 319.8489565451341 -735.9911910967219 328.4134850107474 -744.5967407226563 337.0419921875 C-747.0081996022893 339.4588524207628 -749.4250143291417 341.87026540378474 -751.8423461914063 344.28125 C-753.4012609623276 345.84082501435273 -754.9598658038909 347.40070990203947 -756.5181274414063 348.9609375 C-756.8734001159668 349.31519805908204 -756.8734001159668 349.31519805908204 -758.6712951660156 351.10797119140625 C-762.6316875099275 355.08676919544143 -766.4221358450327 359.1603088441509 -770.0810546875 363.41856384277344 C-772.477046338623 366.18535014774807 -774.9909834597045 368.83890606192267 -777.4946899414063 371.5078125 C-782.0331751779958 376.38116799322074 -786.313177916252 381.39835227476306 -790.4829711914063 386.59375 C-792.5785148765474 389.14517978848994 -794.759321486617 391.57858023231756 -796.9946899414063 394.0078125 C-801.5162250595631 398.97601573208226 -805.6312119976092 404.2033482710442 -809.7446899414063 409.5078125 C-812.109708222881 412.5559150807562 -814.5234914834366 415.56059144624055 -816.9539184570313 418.556640625 C-840.7801392182196 447.99018832007664 -862.0667480256702 479.79829786815196 -881.6196899414063 512.1953125 C-882.1569067382812 513.0842822265626 -882.6941235351562 513.973251953125 -883.2476196289063 514.88916015625 C-891.4190815058381 528.4557266848653 -899.1676955569432 542.221585978271 -906.6196899414063 556.1953125 C-907.0972875976563 557.08734375 -907.5748852539062 557.979375 -908.0669555664063 558.8984375 C-949.7543414321461 636.9706188777863 -979.4545053461484 720.6877711079144 -1014.4725341796875 927.1627197265625 C-1014.6212292259644 929.2165739078616 -1014.7763562565101 931.2698814498385 -1014.9317016601563 933.3232421875 C-1018.170121287172 977.0488878725532 -1018.0795013175878 1021.4852885912073 -1014.6196899414063 1065.1953125 C-1014.5565258789063 1066.004561767578 -1014.4933618164063 1066.8138110351563 -1014.4282836914063 1067.6475830078125 C-1007.314097968878 1157.965483733955 -987.574520179143 1246.6266407855953 -947.6196899414063 1351.1953125 C-947.1514379882813 1352.3227587890624 -946.6831860351563 1353.450205078125 -946.2007446289063 1354.61181640625 C-931.7589008283716 1389.2327408206738 -915.8121269485206 1423.2591602711796 -897.0259399414063 1455.74560546875 C-895.7854175963106 1457.9066126233836 -894.569194759288 1460.0777663192673 -893.3696899414063 1462.26171875 C-877.7573951547938 1490.6834422238871 -859.6497270244365 1517.9540231456622 -840.6196899414063 1544.1953125 C-840.341494140625 1544.5790502929688 -840.341494140625 1544.5790502929688 -838.9336547851563 1546.52099609375 C-831.3756781899779 1556.9171210546942 -823.671709160551 1567.176620087859 -815.6196899414063 1577.1953125 C-815.1055151367187 1577.835654296875 -814.5913403320312 1578.47599609375 -814.0615844726563 1579.1357421875 C-807.9663839475986 1586.7121734799869 -801.8048225560927 1594.2264073660901 -795.4915161132813 1601.622314453125 C-792.7405916508744 1604.8487936800518 -790.0715620255219 1608.1273872902893 -787.4321899414063 1611.4453125 C-782.7808372401058 1617.1694096080869 -777.7310993778808 1622.4954234477045 -772.6423950195313 1627.8310546875 C-769.2858329408199 1631.3510761973705 -765.9905457476852 1634.9009153468817 -762.7798461914063 1638.5546875 C-756.0087110572431 1646.1121339520164 -748.7540480780979 1653.2095983902732 -741.5720825195313 1660.373291015625 C-739.056197082975 1662.8838032379686 -736.5457180790856 1665.3996331440112 -734.0357055664063 1667.916015625 C-732.4168855695652 1669.5341749892948 -730.7977554892738 1671.1520242155982 -729.1782836914063 1672.76953125 C-728.8083806610107 1673.140446395874 -728.8083806610107 1673.140446395874 -726.9364471435547 1675.0175018310547 C-722.8772948352457 1679.0586611117053 -718.7311818898943 1682.936490887409 -714.3850402832031 1686.6680755615234 C-711.6211158711837 1689.0591972313991 -708.9723271316637 1691.5704323175953 -706.3071899414063 1694.0703125 C-701.5355809919254 1698.5099654320236 -696.63801004178 1702.7119039143588 -691.5532836914063 1706.79296875 C-688.0706469705397 1709.6449282484461 -684.6920770114621 1712.6037337542502 -681.3071899414063 1715.5703125 C-674.8788984597409 1721.1805757176976 -668.2808733079987 1726.5099968108354 -661.5254516601563 1731.71923828125 C-659.4664170875449 1733.3140272930368 -657.4194010458122 1734.9234354105547 -655.3735961914063 1736.53515625 C-644.9833752200443 1744.7041060055908 -634.4096752778643 1752.563163489023 -623.6196899414063 1760.1953125 C-623.17810546875 1760.5086352539063 -623.17810546875 1760.5086352539063 -620.9434204101563 1762.09423828125 C-607.099670595151 1771.8962996571618 -593.0428229879947 1781.2681571905337 -578.6196899414063 1790.1953125 C-578.0774780273438 1790.5311938476561 -578.0774780273438 1790.5311938476561 -575.3335571289063 1792.23095703125 C-549.7225964642015 1808.0627915795362 -523.5086240765035 1822.649492666958 -496.61968994140625 1836.1953125 C-496.04791015625005 1836.4839013671876 -496.04791015625005 1836.4839013671876 -493.15435791015625 1837.9443359375 C-414.9346973987764 1877.1716467303622 -330.08565882498306 1903.9232431370428 -150.65228271484375 1931.0481567382813 C-148.59842853354485 1931.196851784558 -146.54512099156773 1931.3519788151038 -144.49176025390625 1931.50732421875 C-100.76611456885303 1934.745743845766 -56.329713850198914 1934.6551238761813 -12.61968994140625 1931.1953125 C-11.810440673828225 1931.1321484375003 -11.001191406249973 1931.0689843749997 -10.16741943359375 1931.00390625 C80.15048129254865 1923.8897205274716 168.81163834418908 1904.150142737737 273.38031005859375 1864.1953125 C274.50775634765614 1863.7270605468748 275.63520263671876 1863.25880859375 276.79681396484375 1862.7763671875 C311.4177383792676 1848.3345233869654 345.4441578297733 1832.3877495071142 377.93060302734375 1813.6015625 C380.0916101819778 1812.361040154904 382.26276387786083 1811.144817317882 384.44671630859375 1809.9453125 C412.8684397824809 1794.3330177133876 440.1390207042559 1776.2253495830303 466.38031005859375 1757.1953125 C467.14778564453127 1756.6389208984374 467.9152612304688 1756.082529296875 468.70599365234375 1755.50927734375 C479.102118613288 1747.9513007485718 489.3616176464527 1740.2473317191448 499.38031005859375 1732.1953125 C500.0206518554687 1731.6811376953126 500.6609936523437 1731.166962890625 501.32073974609375 1730.63720703125 C508.8971710385804 1724.5420065061926 516.4114049246839 1718.3804451146864 523.8073120117188 1712.067138671875 C527.0337912386458 1709.316214209468 530.3123848488826 1706.647184584116 533.6303100585938 1704.0078125 C539.3544071666806 1699.3564597986995 544.680421006298 1694.3067219364748 550.0160522460938 1689.218017578125 C553.536073755964 1685.8614554994138 557.0859129054754 1682.5661683062788 560.7396850585938 1679.35546875 C568.2971315106101 1672.5843336158368 575.3945959488669 1665.3296706366916 582.5582885742188 1658.147705078125 C585.0688007965623 1655.6318196415687 587.5846307026047 1653.1213406376796 590.1010131835938 1650.611328125 C591.7191725478885 1648.992508128159 593.337021774192 1647.3733780478674 594.9545288085938 1645.75390625 C595.6963591003419 1645.0141001892089 596.43818939209 1644.274294128418 597.2024993896484 1643.5120697021484 C601.243658670299 1639.4529173938395 605.1214884460028 1635.306804448488 608.8530731201172 1630.9606628417969 C611.2441947899933 1628.196738429777 613.7554298761888 1625.5479496902578 616.2553100585938 1622.8828125 C620.6949629906173 1618.111203550519 624.8969014729523 1613.2136326003742 628.9779663085938 1608.12890625 C631.8299258070404 1604.6462695291327 634.7887313128435 1601.2676995700565 637.7553100585938 1597.8828125 C643.3655732762916 1591.4545210183344 648.6949943694292 1584.8564958665925 653.9042358398438 1578.10107421875 C655.4990248516312 1576.042039646138 657.1084329691478 1573.9950236044065 658.7201538085938 1571.94921875 C666.8891035641841 1561.5589977786385 674.748161047617 1550.985297836458 682.3803100585938 1540.1953125 C682.6936328125 1539.7537280273436 682.6936328125 1539.7537280273436 684.2792358398438 1537.51904296875 C694.0812972157555 1523.6752931537446 703.4531547491274 1509.6184455465884 712.3803100585938 1495.1953125 C712.7161914062499 1494.6531005859374 712.7161914062499 1494.6531005859374 714.4159545898438 1491.9091796875 C730.24778913813 1466.2982190227954 744.8344902255517 1440.084246635097 758.3803100585938 1413.1953125 C758.957487792969 1412.0517529296876 759.5346655273438 1410.908193359375 760.1293334960938 1409.72998046875 C799.356644288956 1331.51031995737 826.1082406956366 1246.6612813835768 853.3803100585938 1065.1953125 C853.4314495849612 1064.4921893310548 853.4825891113278 1063.7890661621093 853.5352783203125 1063.0646362304688 C855.5778631538478 1034.7820206593954 855.6999268992467 1006.5396629940024 855.3803100585938 978.1953125 C855.3661200135812 976.6883140832224 855.351957307751 975.1813154086167 855.3378295898438 973.67431640625 C854.3828899819937 884.8167569319303 837.9622502385819 795.2870243429984 657.3803100585938 421.1953125 C656.8513110351562 420.50888671875 656.3223120117189 419.82246093749995 655.7772827148438 419.115234375 C650.0300056120966 411.6760107770201 644.102450676841 404.422157491656 637.9935913085938 397.27734375 C635.5894969302087 394.45896220600787 633.262630116421 391.5835929683939 630.9428100585938 388.6953125 C626.5634612770434 383.3095783611095 621.8798616772801 378.247144513329 617.1459350585938 373.17578125 C615.0512008208873 370.929325607226 613.007013367685 368.65057822093695 611.0053100585938 366.3203125 C608.7090364982391 363.65182502088476 606.3338897820693 361.07299416946285 603.9154663085938 358.515625 C603.2849536132812 357.84772949218745 602.6544409179687 357.179833984375 602.0048217773438 356.49169921875 C600.7332096310613 355.14828442039607 599.4576102869728 353.8086302789777 598.1776733398438 352.47314453125 C597.5884106445312 351.8503662109375 596.9991479492187 351.22758789062505 596.3920288085938 350.5859375 C596.1262805175782 350.30766113281254 596.1262805175782 350.30766113281254 594.7814331054688 348.8994140625 C593.2996082560721 347.09715975882546 592.34221865167 345.31411506712493 591.3803100585938 343.1953125 C594.4014375452591 338.7067802340972 597.0236663225719 335.4627953020163 601.3803100585938 332.1953125 C601.7928100585937 331.7828125 601.7928100585937 331.7828125 603.8803100585938 329.6953125 C606.380310058594 327.1953124999999 606.380310058594 327.1953124999999 608.8178100585938 325.3203125 C611.6321482419212 322.98647107967963 613.7779873780569 320.4372797715978 616.0482788085938 317.5859375 C616.4878491210939 317.1270312500001 616.9274194335937 316.6681249999999 617.3803100585938 316.1953125 C618.0403100585938 316.1953125 618.7003100585937 316.1953125 619.3803100585938 316.1953125 C619.3803100585938 315.5353124999999 619.3803100585938 314.87531250000006 619.3803100585938 314.1953125 C620.8490600585944 312.7499999999993 620.8490600585944 312.7499999999993 622.8803100585938 311.0703125 C627.2855501771164 307.33372489946737 631.3463024098555 303.325878842458 635.3803100585938 299.1953125 C642.6283363521004 305.2353344112555 649.194878077853 311.7182684128361 655.3412475585938 318.875 C657.4159538019862 321.2358726217916 659.5454218430198 323.53500698658195 661.6903686523438 325.831787109375 C666.7398455606656 331.2396902256978 671.5444075374689 336.7530365159363 676.1771850585938 342.52734375 C678.4495882336244 345.2792078786275 680.8272583664641 347.89269393221866 683.2553100585938 350.5078125 C687.4394334406322 355.0594166721405 691.2902063991869 359.7778699938706 695.0700073242188 364.66259765625 C698.0119579826694 368.4634485330173 701.0129281088302 372.204389768149 704.0704956054688 375.912841796875 C711.282271194804 384.6700753906066 718.0491628693335 393.7096238073061 724.7055053710938 402.89404296875 C726.2272872004496 404.98505106255584 727.7648168387768 407.0629789343984 729.3099975585938 409.13671875 C746.1755440658221 431.92272771242983 761.8190018340874 455.8806288509172 776.3803100585938 480.1953125 C776.9006079101564 481.0562451171875 777.420905761719 481.91717773437495 777.9569702148438 482.80419921875 C786.5486896862208 497.03109857701384 794.5723683437163 511.5257681090037 802.3803100585938 526.1953125 C803.2292410101309 527.7799625859853 804.0781975192367 529.364598980621 804.9271850585938 530.94921875 C806.9968943390713 534.8269789425698 809.0285467747935 538.7234132275612 811.0463256835938 542.62841796875 C811.9561351005191 544.3791017552713 812.8744820572992 546.1253686722547 813.8002319335938 547.86767578125 C822.8806549922501 564.9864577439121 830.5981051864546 582.6264808910558 838.1928100585938 600.4453125 C838.6805892944335 601.5865054321289 839.1683685302733 602.7276983642578 839.6709289550781 603.9034729003906 C846.3315120280295 619.5198598560929 852.5596280102741 635.2476253932685 858.3803100585938 651.1953125 C859.0272568722066 652.9520251678933 859.674308011271 654.7086994198406 860.3214721679688 656.46533203125 C892.4046922648204 743.9757803770813 910.2245060398109 834.5730501737323 917.5834350585938 927.28125 C917.6498670959472 928.1028913879395 917.7162991333007 928.924532775879 917.7847442626953 929.7710723876953 C918.947211740322 944.8056943897257 919.5432044181698 959.8212361239512 919.5834350585938 974.8984375 C919.5903786139988 976.5374300223968 919.5973736290125 978.1764223274656 919.6044158935547 979.8154144287109 C919.623554063629 985.0253833760114 919.6283342946813 990.2353125311831 919.6303100585938 995.4453125 C919.6310464859007 996.3331253433228 919.6317829132081 997.2209381866455 919.6325416564941 998.1356544494629 C919.651480729488 1026.1758811780094 919.1433386183453 1054.0365572448466 916.582763671875 1081.9796142578125 C916.3901940101796 1084.0871402930477 916.2058776038839 1086.1952085369824 916.0243530273438 1088.3037109375 C915.2942066128589 1096.621215798868 914.3857854514786 1104.9069935307339 913.3803100585938 1113.1953125 C913.2163906162787 1114.585734083973 913.0528317195576 1115.9761982091695 912.8895874023438 1117.36669921875 C901.6524979168225 1212.4168561771205 876.5663697363498 1305.204905220583 812.5678100585938 1449.3828125 C812.0618630981444 1450.4037399291992 811.555916137695 1451.4246673583984 811.0346374511719 1452.4765319824219 C803.9089923289976 1466.8123527203343 796.1705747089609 1480.6847655959723 787.9954681396484 1494.4467163085938 C785.8200037369261 1498.1488141044688 783.7068201555876 1501.8845169831716 781.6021881103516 1505.6272277832031 C776.7802496844929 1514.1996439706827 771.7104064842788 1522.5376133285135 766.2943725585938 1530.74609375 C764.1425757389379 1534.0094787677851 762.0437736937383 1537.3021152238864 759.9662475585938 1540.61328125 C754.0055610338859 1550.1097052322934 747.9482454270578 1559.4074137549992 741.2123413085938 1568.37109375 C737.8734164996222 1572.8304949226776 734.7343036606553 1577.4253149417484 731.5678100585938 1582.0078125 C725.3507003787763 1590.9618158988533 718.7849830098885 1599.5910826226952 712.0145874023438 1608.1318359375 C710.4488308843077 1610.1087965127078 708.8913714874607 1612.0919390327747 707.3373413085938 1614.078125 C704.6933473921636 1617.4571599950305 702.0382187400405 1620.8272106188708 699.3803100585938 1624.1953125 C698.7087084960938 1625.05125 698.0371069335938 1625.9071875 697.3451538085938 1626.7890625 C691.5634211126151 1634.1023013926547 685.4765277029603 1641.1447290525339 679.3803100585938 1648.1953125 C678.265655678236 1649.4882200016298 677.1510730114178 1650.78118933293 676.0365600585938 1652.07421875 C662.6221039483992 1667.618791906564 648.8872473835797 1682.9010160320156 634.2396850585938 1697.30078125 C632.4178749961522 1699.157037301017 630.742177044016 1701.081005057796 629.0678100585938 1703.0703125 C625.6715398831823 1707.0326277046465 621.8737694804104 1710.4942654000029 618.0031127929688 1713.97900390625 C614.6098859169363 1717.041223009921 611.3414002355876 1720.1896925670849 608.1303100585938 1723.4453125 C604.6266813709767 1726.9937876348185 601.0212827126841 1730.3202332796718 597.2318725585938 1733.55859375 C595.421029987072 1735.1593174577376 593.7462276237627 1736.8322355427042 592.0678100585938 1738.5703125 C588.3719801958432 1742.333339269346 584.3093251589974 1745.5710029376016 580.2045288085938 1748.875 C577.5223733972498 1751.078596562017 574.9440458464655 1753.3557507476337 572.3803100585938 1755.6953125 C568.1122393942617 1759.5796607229015 563.7101288468159 1763.2536332555956 559.2240600585938 1766.8828125 C556.2905511549691 1769.2683032567936 553.3974168044097 1771.697354187734 550.5053100585938 1774.1328125 C545.431021811977 1778.3678915365995 540.2447054566242 1782.431784112513 534.9857788085938 1786.43359375 C532.343131822691 1788.4476391527203 529.7264142762447 1790.491851232508 527.1185913085938 1792.55078125 C518.0941327044291 1799.664281635154 508.9231660454202 1806.3905287016905 499.39984130859375 1812.81689453125 C495.8378596845341 1815.2481020082132 492.33205490618707 1817.7583614572895 488.81781005859375 1820.2578125 C474.22049136450573 1830.589360697336 459.1994512056924 1840.1445497912082 443.99993896484375 1849.56689453125 C441.9370235981978 1850.8492473267324 439.8802348517445 1852.1396970661222 437.82952880859375 1853.44140625 C427.71027260459846 1859.8087325488605 417.20347735445057 1865.5148377858432 406.75115966796875 1871.311767578125 C404.418749556276 1872.6150589529138 402.0946708148708 1873.9276903473265 399.77703857421875 1875.256591796875 C388.6893258897612 1881.5969201757653 377.36720076197275 1887.424618163297 365.94281005859375 1893.1328125 C364.94476348876947 1893.6315386962888 363.9467169189454 1894.1302648925785 362.9184265136719 1894.6441040039063 C273.3019800094239 1939.2975209371434 176.52978733234613 1970.1080014463405 -20.61968994140625 1996.1953125 C-21.3478607654572 1996.2395617103575 -22.076031589508148 1996.283810920715 -22.826268196105957 1996.3294010162354 C-34.48910690267576 1997.027301142085 -46.112830127068946 1997.3682053819766 -57.79547119140625 1997.3984375 C-59.48215760474591 1997.40537896251 -61.16884379829435 1997.412374006054 -62.85552978515625 1997.419418334961 C-68.21441934261725 1997.4385546677922 -73.57327023054472 1997.4433359223467 -78.93218994140625 1997.4453125 C-79.84461330413819 1997.446048927307 -80.75703666687014 1997.4467853546143 -81.69710922241211 1997.4475440979004 C-109.71317916667226 1997.4659643632613 -137.54920893135704 1997.0375476155918 -165.4625244140625 1994.3977661132813 C-167.53170226932707 1994.2035702910275 -169.6014918137721 1994.019490787689 -171.67193603515625 1993.83935546875 C-180.00740670588652 1993.1041560399672 -188.31258535791721 1992.1986864334904 -196.61968994140625 1991.1953125 C-198.011586551419 1991.0314791780193 -199.4035150032646 1990.8679162061371 -200.79547119140625 1990.70458984375 C-295.8437106932604 1979.4684294320273 -388.63135500992155 1954.3804849394373 -532.8071899414063 1890.3828125 C-533.8281173706055 1889.8768655395506 -534.8490447998047 1889.3709185791013 -535.9009094238281 1888.8496398925781 C-550.3160411804395 1881.6845730879031 -564.2589432735672 1873.8937614450078 -578.0976867675781 1865.6745147705078 C-581.6105832585129 1863.6141349425307 -585.1714486545811 1861.6483823227145 -588.7446899414063 1859.6953125 C-597.9952445299456 1854.5463046804507 -606.8465467920481 1848.7721517271675 -615.7422485351563 1843.0390625 C-618.6140696097079 1841.1989137849978 -621.4988964732868 1839.3812364122173 -624.3892211914063 1837.5703125 C-633.769974075424 1831.6832310336335 -642.9418924133026 1825.6814257527626 -651.7954711914063 1819.02734375 C-656.2548723640843 1815.688418941028 -660.8496923831543 1812.549306102062 -665.4321899414063 1809.3828125 C-674.3861933402595 1803.1657028201826 -683.0154600641015 1796.5999854512947 -691.5562133789063 1789.82958984375 C-693.5331739541132 1788.2638333257146 -695.5163164741813 1786.7063739288667 -697.5025024414063 1785.15234375 C-700.8815374364369 1782.5083498335696 -704.2515880602767 1779.853221181447 -707.6196899414063 1777.1953125 C-708.0476586914062 1776.8595117187501 -708.0476586914062 1776.8595117187501 -710.2134399414063 1775.16015625 C-717.5266788340608 1769.3784235540215 -724.5691064939402 1763.2915301443666 -731.6196899414063 1757.1953125 C-732.912597443036 1756.0806581196423 -734.2055667743363 1754.966075452824 -735.4985961914063 1753.8515625 C-751.0431693479702 1740.4371063898056 -766.325393473422 1726.702249824986 -780.7251586914063 1712.0546875 C-782.5814147424242 1710.2328774375576 -784.5053824992015 1708.557179485423 -786.4946899414063 1706.8828125 C-790.4570051460528 1703.4865423245888 -793.9186428414093 1699.6887719218164 -797.4033813476563 1695.818115234375 C-800.465600451327 1692.4248883583427 -803.6140700084916 1689.1564026769934 -806.8696899414063 1685.9453125 C-810.418165076225 1682.4416838123827 -813.7446107210781 1678.8362851540903 -816.9829711914063 1675.046875 C-818.5836948991443 1673.2360324284778 -820.2566129841105 1671.561230065169 -821.9946899414063 1669.8828125 C-825.7577167107527 1666.186982637249 -828.9953803790075 1662.1243276004038 -832.2993774414063 1658.01953125 C-834.5029740034229 1655.3373758386565 -836.7801281890402 1652.7590482878716 -839.1196899414063 1650.1953125 C-843.0040381643075 1645.9272418356682 -846.6780106970018 1641.5251312882222 -850.3071899414063 1637.0390625 C-852.6926806981999 1634.1055535963753 -855.1217316291403 1631.2124192458157 -857.5571899414063 1628.3203125 C-861.7922689780053 1623.2460242533837 -865.8561615539194 1618.0597078980302 -869.8579711914063 1612.80078125 C-871.872016594127 1610.1581342640966 -873.9162286739139 1607.5414167176511 -875.9751586914063 1604.93359375 C-883.0886590765605 1595.9091351458353 -889.8149061430967 1586.7381684868262 -896.2412719726563 1577.21484375 C-898.6724769214215 1573.6528658300238 -901.1825939939099 1570.1469503320684 -903.6821899414063 1566.6328125 C-913.4841929707858 1552.7944141675346 -922.6438834537171 1538.5809500894322 -931.6196899414063 1524.1953125 C-931.84712890625 1523.8326831054687 -931.84712890625 1523.8326831054687 -932.9981079101563 1521.99755859375 C-940.6814552888101 1509.7272219506751 -947.7772248846443 1497.1519916690524 -954.7844848632813 1484.485595703125 C-956.0666152545989 1482.1869032348814 -957.3588109753907 1479.897229728631 -958.6677856445313 1477.614013671875 C-965.0123268601914 1466.5187355145893 -970.8451173511171 1455.18996514728 -976.5571899414063 1443.7578125 C-977.0559161376952 1442.7597659301757 -977.5546423339844 1441.7617193603517 -978.0684814453125 1440.7334289550781 C-1022.7218983785497 1351.1169824508302 -1053.5323788877467 1254.3447897737526 -1079.6196899414063 1057.1953125 C-1079.6421881103515 1056.8136543273927 -1079.6421881103515 1056.8136543273927 -1079.7560424804688 1054.8822326660156 C-1083.113341055644 996.9703377592964 -1081.5781245183607 938.8053837194534 -1074.6196899414063 881.1953125 C-1074.4558566194253 879.8034158899873 -1074.2922936475431 878.4114874381416 -1074.1289672851563 877.01953125 C-1062.8928068734335 781.9712917481459 -1037.8048623808434 689.1836474314847 -973.8071899414063 545.0078125 C-973.5542164611816 544.4973487854004 -973.5542164611816 544.4973487854004 -972.2740173339844 541.9140930175781 C-965.108950529309 527.4989612609667 -957.3181388864145 513.5560591678393 -949.0988922119141 499.7173156738281 C-947.0385123839371 496.2044191828935 -945.0727597641206 492.6435537868249 -943.1196899414063 489.0703125 C-937.9706821218567 479.81975791146056 -932.1965291685742 470.96845564935825 -926.4634399414063 462.07275390625 C-924.6232912264038 459.20093283169786 -922.8056138536238 456.3161059681198 -920.9946899414063 453.42578125 C-915.1076084750397 444.04502836598226 -909.1058031941689 434.8731100281036 -902.4517211914063 426.01953125 C-899.1127963824347 421.56013007732236 -895.9736835434679 416.9653100582516 -892.8071899414063 412.3828125 C-886.5900802615887 403.4288091011467 -880.0243628927007 394.79954237730465 -873.2539672851563 386.2587890625 C-871.6882107671203 384.2818284872923 -870.1307513702733 382.2986859672254 -868.5767211914063 380.3125 C-865.932727274976 376.93346500496943 -863.2775986228531 373.5634143811295 -860.6196899414063 370.1953125 C-859.9480883789063 369.339375 -859.2764868164063 368.48343750000004 -858.5845336914063 367.6015625 C-852.8028009954277 360.2883236073453 -846.7159075857728 353.2458959474661 -840.6196899414063 346.1953125 C-839.5050355610485 344.90240499837023 -838.3904528942303 343.60943566707 -837.2759399414063 342.31640625 C-823.9370005633132 326.85965013728924 -810.2850858919028 311.68121900204653 -795.7368774414063 297.34765625 C-793.8044004652272 295.3830901727406 -792.0175234095193 293.36570301112954 -790.2446899414063 291.2578125 C-786.8926990297289 287.3392879131095 -783.1379412165452 283.9238118835094 -779.3125610351563 280.481689453125 C-775.7198974592757 277.2386700278089 -772.2654421894308 273.89339858302037 -768.8696899414063 270.4453125 C-765.3048370004743 266.84491259242054 -761.6880919924783 263.41506946379764 -757.8345336914063 260.12890625 C-755.5063265635415 258.0963444717054 -753.2480933339912 256.0013117921844 -750.9898071289063 253.891845703125 C-745.5803135471587 248.83947916428156 -740.0643894918835 244.03315946979131 -734.2876586914063 239.3984375 C-731.5357945627795 237.12603432497002 -728.9223085091871 234.74836419212937 -726.3071899414063 232.3203125 C-720.5873096984154 227.06354756077405 -714.5462152470714 222.31402284374929 -708.4004516601563 217.5732421875 C-706.111889652848 215.80238340367123 -703.8388180742747 214.01235264401578 -701.5667114257813 212.220458984375 C-699.839286306282 210.85884738464313 -698.1087395405908 209.50129190118878 -696.3775024414063 208.14453125 C-693.6789817197703 206.02941599704474 -690.9882063816705 203.9047623171865 -688.2993774414063 201.77734375 C-679.9293930101858 195.18031614199276 -671.4535535357115 188.87123646366797 -662.6196899414063 182.91015625 C-658.383786259122 180.05175674841905 -654.2211356899718 177.0946149152977 -650.0571899414063 174.1328125 C-636.2187916089408 164.33080947062047 -622.0053275308387 155.17111898768928 -607.6196899414063 146.1953125 C-606.8944311523437 145.74043457031246 -606.1691723632812 145.28555664062503 -605.4219360351563 144.81689453125 C-593.1515993920813 137.13354715259607 -580.5763691104586 130.0377775567619 -567.9099731445313 123.030517578125 C-565.611280676287 121.74838718680707 -563.3216071700376 120.45619146601581 -561.0383911132813 119.147216796875 C-549.9431129559957 112.802675581215 -538.6143425886862 106.96988509028904 -527.1821899414063 101.2578125 C-526.1841433715821 100.75908630371094 -525.1860968017578 100.26036010742189 -524.1578063964844 99.74652099609375 C-434.5413598922364 55.09310406285658 -337.769167215159 24.282623553659562 0 0 Z " fill="#BC02F7" transform="translate(1330.6196899414063,252.8046875)"/>
<path d="M0 0 C24.75 0 49.5 0 75 0 C75 24.75 75 49.5 75 75 C50.25 75 25.5 75 0 75 C0 50.25 0 25.5 0 0 Z " fill="#FFFFFF" transform="translate(1558,1597)"/>
<path d="M0 0 C24.75 0 49.5 0 75 0 C75 24.75 75 49.5 75 75 C50.25 75 25.5 75 0 75 C0 50.25 0 25.5 0 0 Z " fill="#FFFFFF" transform="translate(1420,1597)"/>
<path d="M0 0 C24.75 0 49.5 0 75 0 C75 24.75 75 49.5 75 75 C50.25 75 25.5 75 0 75 C0 50.25 0 25.5 0 0 Z " fill="#FFFFFF" transform="translate(1005,1597)"/>
<path d="M0 0 C24.75 0 49.5 0 75 0 C75 24.75 75 49.5 75 75 C50.25 75 25.5 75 0 75 C0 50.25 0 25.5 0 0 Z " fill="#FFFFFF" transform="translate(867,1597)"/>
<path d="M0 0 C24.75 0 49.5 0 75 0 C75 24.75 75 49.5 75 75 C50.25 75 25.5 75 0 75 C0 50.25 0 25.5 0 0 Z " fill="#FFFFFF" transform="translate(1558,1469)"/>
<path d="M0 0 C24.75 0 49.5 0 75 0 C75 24.75 75 49.5 75 75 C50.25 75 25.5 75 0 75 C0 50.25 0 25.5 0 0 Z " fill="#FFFFFF" transform="translate(1420,1469)"/>
<path d="M0 0 C24.75 0 49.5 0 75 0 C75 24.75 75 49.5 75 75 C50.25 75 25.5 75 0 75 C0 50.25 0 25.5 0 0 Z " fill="#FFFFFF" transform="translate(1005,1469)"/>
<path d="M0 0 C24.75 0 49.5 0 75 0 C75 24.75 75 49.5 75 75 C50.25 75 25.5 75 0 75 C0 50.25 0 25.5 0 0 Z " fill="#FFFFFF" transform="translate(867,1469)"/>
<path d="M0 0 C24.75 0 49.5 0 75 0 C75 24.75 75 49.5 75 75 C50.25 75 25.5 75 0 75 C0 50.25 0 25.5 0 0 Z " fill="#BD03F7" transform="translate(1558,1341)"/>
<path d="M0 0 C24.75 0 49.5 0 75 0 C75 24.75 75 49.5 75 75 C50.25 75 25.5 75 0 75 C0 50.25 0 25.5 0 0 Z " fill="#FFFFFF" transform="translate(1420,1341)"/>
<path d="M0 0 C24.75 0 49.5 0 75 0 C75 24.75 75 49.5 75 75 C50.25 75 25.5 75 0 75 C0 50.25 0 25.5 0 0 Z " fill="#FFFFFF" transform="translate(1005,1341)"/>
<path d="M0 0 C24.75 0 49.5 0 75 0 C75 24.75 75 49.5 75 75 C50.25 75 25.5 75 0 75 C0 50.25 0 25.5 0 0 Z " fill="#FFFFFF" transform="translate(867,1341)"/>
<path d="M0 0 C24.75 0 49.5 0 75 0 C75 24.75 75 49.5 75 75 C50.25 75 25.5 75 0 75 C0 50.25 0 25.5 0 0 Z " fill="#FFFFFF" transform="translate(1558,828)"/>
<path d="M0 0 C24.75 0 49.5 0 75 0 C75 24.75 75 49.5 75 75 C50.25 75 25.5 75 0 75 C0 50.25 0 25.5 0 0 Z " fill="#FFFFFF" transform="translate(1420,828)"/>
<path d="M0 0 C24.75 0 49.5 0 75 0 C75 24.75 75 49.5 75 75 C50.25 75 25.5 75 0 75 C0 50.25 0 25.5 0 0 Z " fill="#FFFFFF" transform="translate(1005,828)"/>
<path d="M0 0 C24.75 0 49.5 0 75 0 C75 24.75 75 49.5 75 75 C50.25 75 25.5 75 0 75 C0 50.25 0 25.5 0 0 Z " fill="#FFFFFF" transform="translate(867,828)"/>
<path d="M0 0 C24.75 0 49.5 0 75 0 C75 24.75 75 49.5 75 75 C50.25 75 25.5 75 0 75 C0 50.25 0 25.5 0 0 Z " fill="#FFFFFF" transform="translate(1558,700)"/>
<path d="M0 0 C24.75 0 49.5 0 75 0 C75 24.75 75 49.5 75 75 C50.25 75 25.5 75 0 75 C0 50.25 0 25.5 0 0 Z " fill="#FFFFFF" transform="translate(1420,700)"/>
<path d="M0 0 C24.75 0 49.5 0 75 0 C75 24.75 75 49.5 75 75 C50.25 75 25.5 75 0 75 C0 50.25 0 25.5 0 0 Z " fill="#FFFFFF" transform="translate(1005,700)"/>
<path d="M0 0 C24.75 0 49.5 0 75 0 C75 24.75 75 49.5 75 75 C50.25 75 25.5 75 0 75 C0 50.25 0 25.5 0 0 Z " fill="#FFFFFF" transform="translate(867,700)"/>
<path d="M0 0 C24.75 0 49.5 0 75 0 C75 24.75 75 49.5 75 75 C50.25 75 25.5 75 0 75 C0 50.25 0 25.5 0 0 Z " fill="#FFFFFF" transform="translate(1558,572)"/>
<path d="M0 0 C24.75 0 49.5 0 75 0 C75 24.75 75 49.5 75 75 C50.25 75 25.5 75 0 75 C0 50.25 0 25.5 0 0 Z " fill="#BD03F7" transform="translate(1420,572)"/>
<path d="M0 0 C24.75 0 49.5 0 75 0 C75 24.75 75 49.5 75 75 C50.25 75 25.5 75 0 75 C0 50.25 0 25.5 0 0 Z " fill="#FFFFFF" transform="translate(1005,572)"/>
<path d="M0 0 C24.75 0 49.5 0 75 0 C75 24.75 75 49.5 75 75 C50.25 75 25.5 75 0 75 C0 50.25 0 25.5 0 0 Z " fill="#FFFFFF" transform="translate(867,572)"/>
<path d="M0 0 C24.75 0 49.5 0 75 0 C75 24.420000000000073 75 48.83999999999992 75 74 C50.25 74 25.5 74 0 74 C0 49.57999999999993 0 25.160000000000082 0 0 Z " fill="#FFFFFF" transform="translate(1558,1854)"/>
<path d="M0 0 C24.75 0 49.5 0 75 0 C75 24.420000000000073 75 48.83999999999992 75 74 C50.25 74 25.5 74 0 74 C0 49.57999999999993 0 25.160000000000082 0 0 Z " fill="#FFFFFF" transform="translate(1420,1854)"/>
<path d="M0 0 C24.75 0 49.5 0 75 0 C75 24.420000000000073 75 48.83999999999992 75 74 C50.25 74 25.5 74 0 74 C0 49.57999999999993 0 25.160000000000082 0 0 Z " fill="#FFFFFF" transform="translate(1005,1854)"/>
<path d="M0 0 C24.75 0 49.5 0 75 0 C75 24.420000000000073 75 48.83999999999992 75 74 C50.25 74 25.5 74 0 74 C0 49.57999999999993 0 25.160000000000082 0 0 Z " fill="#FFFFFF" transform="translate(867,1854)"/>
<path d="M0 0 C24.75 0 49.5 0 75 0 C75 24.420000000000073 75 48.83999999999992 75 74 C50.25 74 25.5 74 0 74 C0 49.57999999999993 0 25.160000000000082 0 0 Z " fill="#FFFFFF" transform="translate(1558,1726)"/>
<path d="M0 0 C24.75 0 49.5 0 75 0 C75 24.420000000000073 75 48.83999999999992 75 74 C50.25 74 25.5 74 0 74 C0 49.57999999999993 0 25.160000000000082 0 0 Z " fill="#FFFFFF" transform="translate(1420,1726)"/>
<path d="M0 0 C24.75 0 49.5 0 75 0 C75 24.420000000000073 75 48.83999999999992 75 74 C50.25 74 25.5 74 0 74 C0 49.57999999999993 0 25.160000000000082 0 0 Z " fill="#FFFFFF" transform="translate(1005,1726)"/>
<path d="M0 0 C24.75 0 49.5 0 75 0 C75 24.420000000000073 75 48.83999999999992 75 74 C50.25 74 25.5 74 0 74 C0 49.57999999999993 0 25.160000000000082 0 0 Z " fill="#FFFFFF" transform="translate(867,1726)"/>
<path d="M0 0 C24.420000000000073 0 48.83999999999992 0 74 0 C74 24.75 74 49.5 74 75 C49.57999999999993 75 25.160000000000082 75 0 75 C0 50.25 0 25.5 0 0 Z " fill="#FFFFFF" transform="translate(1835,1597)"/>
<path d="M0 0 C24.420000000000073 0 48.83999999999992 0 74 0 C74 24.75 74 49.5 74 75 C49.57999999999993 75 25.160000000000082 75 0 75 C0 50.25 0 25.5 0 0 Z " fill="#FFFFFF" transform="translate(1697,1597)"/>
<path d="M0 0 C24.420000000000073 0 48.83999999999992 0 74 0 C74 24.75 74 49.5 74 75 C49.57999999999993 75 25.160000000000082 75 0 75 C0 50.25 0 25.5 0 0 Z " fill="#FFFFFF" transform="translate(1282,1597)"/>
<path d="M0 0 C24.420000000000073 0 48.83999999999992 0 74 0 C74 24.75 74 49.5 74 75 C49.57999999999993 75 25.160000000000082 75 0 75 C0 50.25 0 25.5 0 0 Z " fill="#FFFFFF" transform="translate(1144,1597)"/>
<path d="M0 0 C24.41999999999996 0 48.84000000000003 0 74 0 C74 24.75 74 49.5 74 75 C49.58000000000004 75 25.159999999999968 75 0 75 C0 50.25 0 25.5 0 0 Z " fill="#FFFFFF" transform="translate(729,1597)"/>
<path d="M0 0 C24.41999999999996 0 48.84000000000003 0 74 0 C74 24.75 74 49.5 74 75 C49.58000000000004 75 25.159999999999968 75 0 75 C0 50.25 0 25.5 0 0 Z " fill="#FFFFFF" transform="translate(591,1597)"/>
<path d="M0 0 C24.420000000000073 0 48.83999999999992 0 74 0 C74 24.75 74 49.5 74 75 C49.57999999999993 75 25.160000000000082 75 0 75 C0 50.25 0 25.5 0 0 Z " fill="#FFFFFF" transform="translate(1835,1469)"/>
<path d="M0 0 C24.420000000000073 0 48.83999999999992 0 74 0 C74 24.75 74 49.5 74 75 C49.57999999999993 75 25.160000000000082 75 0 75 C0 50.25 0 25.5 0 0 Z " fill="#FFFFFF" transform="translate(1697,1469)"/>
<path d="M0 0 C24.420000000000073 0 48.83999999999992 0 74 0 C74 24.75 74 49.5 74 75 C49.57999999999993 75 25.160000000000082 75 0 75 C0 50.25 0 25.5 0 0 Z " fill="#FFFFFF" transform="translate(1282,1469)"/>
<path d="M0 0 C24.420000000000073 0 48.83999999999992 0 74 0 C74 24.75 74 49.5 74 75 C49.57999999999993 75 25.160000000000082 75 0 75 C0 50.25 0 25.5 0 0 Z " fill="#FFFFFF" transform="translate(1144,1469)"/>
<path d="M0 0 C24.41999999999996 0 48.84000000000003 0 74 0 C74 24.75 74 49.5 74 75 C49.58000000000004 75 25.159999999999968 75 0 75 C0 50.25 0 25.5 0 0 Z " fill="#FFFFFF" transform="translate(729,1469)"/>
<path d="M0 0 C24.41999999999996 0 48.84000000000003 0 74 0 C74 24.75 74 49.5 74 75 C49.58000000000004 75 25.159999999999968 75 0 75 C0 50.25 0 25.5 0 0 Z " fill="#FFFFFF" transform="translate(591,1469)"/>
<path d="M0 0 C24.420000000000073 0 48.83999999999992 0 74 0 C74 24.75 74 49.5 74 75 C49.57999999999993 75 25.160000000000082 75 0 75 C0 50.25 0 25.5 0 0 Z " fill="#FFFFFF" transform="translate(1835,1341)"/>
<path d="M0 0 C24.420000000000073 0 48.83999999999992 0 74 0 C74 24.75 74 49.5 74 75 C49.57999999999993 75 25.160000000000082 75 0 75 C0 50.25 0 25.5 0 0 Z " fill="#FFFFFF" transform="translate(1697,1341)"/>
<path d="M0 0 C24.420000000000073 0 48.83999999999992 0 74 0 C74 24.75 74 49.5 74 75 C49.57999999999993 75 25.160000000000082 75 0 75 C0 50.25 0 25.5 0 0 Z " fill="#FFFFFF" transform="translate(1282,1341)"/>
<path d="M0 0 C24.420000000000073 0 48.83999999999992 0 74 0 C74 24.75 74 49.5 74 75 C49.57999999999993 75 25.160000000000082 75 0 75 C0 50.25 0 25.5 0 0 Z " fill="#FFFFFF" transform="translate(1144,1341)"/>
<path d="M0 0 C24.41999999999996 0 48.84000000000003 0 74 0 C74 24.75 74 49.5 74 75 C49.58000000000004 75 25.159999999999968 75 0 75 C0 50.25 0 25.5 0 0 Z " fill="#FFFFFF" transform="translate(729,1341)"/>
<path d="M0 0 C24.41999999999996 0 48.84000000000003 0 74 0 C74 24.75 74 49.5 74 75 C49.58000000000004 75 25.159999999999968 75 0 75 C0 50.25 0 25.5 0 0 Z " fill="#FFFFFF" transform="translate(591,1341)"/>
<path d="M0 0 C24.75 0 49.5 0 75 0 C75 24.420000000000073 75 48.83999999999992 75 74 C50.25 74 25.5 74 0 74 C0 49.57999999999993 0 25.160000000000082 0 0 Z " fill="#FFFFFF" transform="translate(1558,1213)"/>
<path d="M0 0 C24.75 0 49.5 0 75 0 C75 24.420000000000073 75 48.83999999999992 75 74 C50.25 74 25.5 74 0 74 C0 49.57999999999993 0 25.160000000000082 0 0 Z " fill="#FFFFFF" transform="translate(1420,1213)"/>
<path d="M0 0 C24.75 0 49.5 0 75 0 C75 24.420000000000073 75 48.83999999999992 75 74 C50.25 74 25.5 74 0 74 C0 49.57999999999993 0 25.160000000000082 0 0 Z " fill="#BD03F7" transform="translate(1005,1213)"/>
<path d="M0 0 C24.75 0 49.5 0 75 0 C75 24.420000000000073 75 48.83999999999992 75 74 C50.25 74 25.5 74 0 74 C0 49.57999999999993 0 25.160000000000082 0 0 Z " fill="#FFFFFF" transform="translate(867,1213)"/>
<path d="M0 0 C24.75 0 49.5 0 75 0 C75 24.420000000000073 75 48.83999999999992 75 74 C50.25 74 25.5 74 0 74 C0 49.57999999999993 0 25.160000000000082 0 0 Z " fill="#FFFFFF" transform="translate(1558,1085)"/>
<path d="M0 0 C24.75 0 49.5 0 75 0 C75 24.420000000000073 75 48.83999999999992 75 74 C50.25 74 25.5 74 0 74 C0 49.57999999999993 0 25.160000000000082 0 0 Z " fill="#FFFFFF" transform="translate(1420,1085)"/>
<path d="M0 0 C24.75 0 49.5 0 75 0 C75 24.420000000000073 75 48.83999999999992 75 74 C50.25 74 25.5 74 0 74 C0 49.57999999999993 0 25.160000000000082 0 0 Z " fill="#FFFFFF" transform="translate(1005,1085)"/>
<path d="M0 0 C24.75 0 49.5 0 75 0 C75 24.420000000000073 75 48.83999999999992 75 74 C50.25 74 25.5 74 0 74 C0 49.57999999999993 0 25.160000000000082 0 0 Z " fill="#FFFFFF" transform="translate(867,1085)"/>
<path d="M0 0 C24.75 0 49.5 0 75 0 C75 24.41999999999996 75 48.84000000000003 75 74 C50.25 74 25.5 74 0 74 C0 49.58000000000004 0 25.159999999999968 0 0 Z " fill="#FFFFFF" transform="translate(1558,957)"/>
<path d="M0 0 C24.75 0 49.5 0 75 0 C75 24.41999999999996 75 48.84000000000003 75 74 C50.25 74 25.5 74 0 74 C0 49.58000000000004 0 25.159999999999968 0 0 Z " fill="#FFFFFF" transform="translate(1420,957)"/>
<path d="M0 0 C24.75 0 49.5 0 75 0 C75 24.41999999999996 75 48.84000000000003 75 74 C50.25 74 25.5 74 0 74 C0 49.58000000000004 0 25.159999999999968 0 0 Z " fill="#FFFFFF" transform="translate(1005,957)"/>
<path d="M0 0 C24.75 0 49.5 0 75 0 C75 24.41999999999996 75 48.84000000000003 75 74 C50.25 74 25.5 74 0 74 C0 49.58000000000004 0 25.159999999999968 0 0 Z " fill="#FFFFFF" transform="translate(867,957)"/>
<path d="M0 0 C24.420000000000073 0 48.83999999999992 0 74 0 C74 24.75 74 49.5 74 75 C49.57999999999993 75 25.160000000000082 75 0 75 C0 50.25 0 25.5 0 0 Z " fill="#BD03F7" transform="translate(1835,828)"/>
<path d="M0 0 C24.420000000000073 0 48.83999999999992 0 74 0 C74 24.75 74 49.5 74 75 C49.57999999999993 75 25.160000000000082 75 0 75 C0 50.25 0 25.5 0 0 Z " fill="#FFFFFF" transform="translate(1697,828)"/>
<path d="M0 0 C24.420000000000073 0 48.83999999999992 0 74 0 C74 24.75 74 49.5 74 75 C49.57999999999993 75 25.160000000000082 75 0 75 C0 50.25 0 25.5 0 0 Z " fill="#FFFFFF" transform="translate(1282,828)"/>
<path d="M0 0 C24.420000000000073 0 48.83999999999992 0 74 0 C74 24.75 74 49.5 74 75 C49.57999999999993 75 25.160000000000082 75 0 75 C0 50.25 0 25.5 0 0 Z " fill="#FFFFFF" transform="translate(1144,828)"/>
<path d="M0 0 C24.41999999999996 0 48.84000000000003 0 74 0 C74 24.75 74 49.5 74 75 C49.58000000000004 75 25.159999999999968 75 0 75 C0 50.25 0 25.5 0 0 Z " fill="#FFFFFF" transform="translate(729,828)"/>
<path d="M0 0 C24.41999999999996 0 48.84000000000003 0 74 0 C74 24.75 74 49.5 74 75 C49.58000000000004 75 25.159999999999968 75 0 75 C0 50.25 0 25.5 0 0 Z " fill="#FFFFFF" transform="translate(591,828)"/>
<path d="M0 0 C24.420000000000073 0 48.83999999999992 0 74 0 C74 24.75 74 49.5 74 75 C49.57999999999993 75 25.160000000000082 75 0 75 C0 50.25 0 25.5 0 0 Z " fill="#FFFFFF" transform="translate(1282,700)"/>
<path d="M0 0 C24.420000000000073 0 48.83999999999992 0 74 0 C74 24.75 74 49.5 74 75 C49.57999999999993 75 25.160000000000082 75 0 75 C0 50.25 0 25.5 0 0 Z " fill="#FFFFFF" transform="translate(1144,700)"/>
<path d="M0 0 C24.420000000000073 0 48.83999999999992 0 74 0 C74 24.75 74 49.5 74 75 C49.57999999999993 75 25.160000000000082 75 0 75 C0 50.25 0 25.5 0 0 Z " fill="#FFFFFF" transform="translate(1282,572)"/>
<path d="M0 0 C24.420000000000073 0 48.83999999999992 0 74 0 C74 24.75 74 49.5 74 75 C49.57999999999993 75 25.160000000000082 75 0 75 C0 50.25 0 25.5 0 0 Z " fill="#FFFFFF" transform="translate(1144,572)"/>
<path d="M0 0 C24.420000000000073 0 48.83999999999992 0 74 0 C74 24.420000000000073 74 48.83999999999992 74 74 C49.57999999999993 74 25.160000000000082 74 0 74 C0 49.57999999999993 0 25.160000000000082 0 0 Z " fill="#FFFFFF" transform="translate(1282,1854)"/>
<path d="M0 0 C24.420000000000073 0 48.83999999999992 0 74 0 C74 24.420000000000073 74 48.83999999999992 74 74 C49.57999999999993 74 25.160000000000082 74 0 74 C0 49.57999999999993 0 25.160000000000082 0 0 Z " fill="#FFFFFF" transform="translate(1144,1854)"/>
<path d="M0 0 C24.420000000000073 0 48.83999999999992 0 74 0 C74 24.420000000000073 74 48.83999999999992 74 74 C49.57999999999993 74 25.160000000000082 74 0 74 C0 49.57999999999993 0 25.160000000000082 0 0 Z " fill="#BD03F7" transform="translate(1282,1726)"/>
<path d="M0 0 C24.420000000000073 0 48.83999999999992 0 74 0 C74 24.420000000000073 74 48.83999999999992 74 74 C49.57999999999993 74 25.160000000000082 74 0 74 C0 49.57999999999993 0 25.160000000000082 0 0 Z " fill="#FFFFFF" transform="translate(1144,1726)"/>
<path d="M0 0 C24.420000000000073 0 48.83999999999992 0 74 0 C74 24.420000000000073 74 48.83999999999992 74 74 C49.57999999999993 74 25.160000000000082 74 0 74 C0 49.57999999999993 0 25.160000000000082 0 0 Z " fill="#FFFFFF" transform="translate(1835,1213)"/>
<path d="M0 0 C24.420000000000073 0 48.83999999999992 0 74 0 C74 24.420000000000073 74 48.83999999999992 74 74 C49.57999999999993 74 25.160000000000082 74 0 74 C0 49.57999999999993 0 25.160000000000082 0 0 Z " fill="#FFFFFF" transform="translate(1697,1213)"/>
<path d="M0 0 C24.420000000000073 0 48.83999999999992 0 74 0 C74 24.420000000000073 74 48.83999999999992 74 74 C49.57999999999993 74 25.160000000000082 74 0 74 C0 49.57999999999993 0 25.160000000000082 0 0 Z " fill="#FFFFFF" transform="translate(1282,1213)"/>
<path d="M0 0 C24.420000000000073 0 48.83999999999992 0 74 0 C74 24.420000000000073 74 48.83999999999992 74 74 C49.57999999999993 74 25.160000000000082 74 0 74 C0 49.57999999999993 0 25.160000000000082 0 0 Z " fill="#FFFFFF" transform="translate(1144,1213)"/>
<path d="M0 0 C24.41999999999996 0 48.84000000000003 0 74 0 C74 24.420000000000073 74 48.83999999999992 74 74 C49.58000000000004 74 25.159999999999968 74 0 74 C0 49.57999999999993 0 25.160000000000082 0 0 Z " fill="#FFFFFF" transform="translate(729,1213)"/>
<path d="M0 0 C24.41999999999996 0 48.84000000000003 0 74 0 C74 24.420000000000073 74 48.83999999999992 74 74 C49.58000000000004 74 25.159999999999968 74 0 74 C0 49.57999999999993 0 25.160000000000082 0 0 Z " fill="#FFFFFF" transform="translate(591,1213)"/>
<path d="M0 0 C24.420000000000073 0 48.83999999999992 0 74 0 C74 24.420000000000073 74 48.83999999999992 74 74 C49.57999999999993 74 25.160000000000082 74 0 74 C0 49.57999999999993 0 25.160000000000082 0 0 Z " fill="#FFFFFF" transform="translate(1835,1085)"/>
<path d="M0 0 C24.420000000000073 0 48.83999999999992 0 74 0 C74 24.420000000000073 74 48.83999999999992 74 74 C49.57999999999993 74 25.160000000000082 74 0 74 C0 49.57999999999993 0 25.160000000000082 0 0 Z " fill="#FFFFFF" transform="translate(1697,1085)"/>
<path d="M0 0 C24.420000000000073 0 48.83999999999992 0 74 0 C74 24.420000000000073 74 48.83999999999992 74 74 C49.57999999999993 74 25.160000000000082 74 0 74 C0 49.57999999999993 0 25.160000000000082 0 0 Z " fill="#FFFFFF" transform="translate(1282,1085)"/>
<path d="M0 0 C24.420000000000073 0 48.83999999999992 0 74 0 C74 24.420000000000073 74 48.83999999999992 74 74 C49.57999999999993 74 25.160000000000082 74 0 74 C0 49.57999999999993 0 25.160000000000082 0 0 Z " fill="#FFFFFF" transform="translate(1144,1085)"/>
<path d="M0 0 C24.41999999999996 0 48.84000000000003 0 74 0 C74 24.420000000000073 74 48.83999999999992 74 74 C49.58000000000004 74 25.159999999999968 74 0 74 C0 49.57999999999993 0 25.160000000000082 0 0 Z " fill="#FFFFFF" transform="translate(729,1085)"/>
<path d="M0 0 C24.41999999999996 0 48.84000000000003 0 74 0 C74 24.420000000000073 74 48.83999999999992 74 74 C49.58000000000004 74 25.159999999999968 74 0 74 C0 49.57999999999993 0 25.160000000000082 0 0 Z " fill="#FFFFFF" transform="translate(591,1085)"/>
<path d="M0 0 C24.420000000000073 0 48.83999999999992 0 74 0 C74 24.41999999999996 74 48.84000000000003 74 74 C49.57999999999993 74 25.160000000000082 74 0 74 C0 49.58000000000004 0 25.159999999999968 0 0 Z " fill="#FFFFFF" transform="translate(1835,957)"/>
<path d="M0 0 C24.420000000000073 0 48.83999999999992 0 74 0 C74 24.41999999999996 74 48.84000000000003 74 74 C49.57999999999993 74 25.160000000000082 74 0 74 C0 49.58000000000004 0 25.159999999999968 0 0 Z " fill="#FFFFFF" transform="translate(1697,957)"/>
<path d="M0 0 C24.420000000000073 0 48.83999999999992 0 74 0 C74 24.41999999999996 74 48.84000000000003 74 74 C49.57999999999993 74 25.160000000000082 74 0 74 C0 49.58000000000004 0 25.159999999999968 0 0 Z " fill="#FFFFFF" transform="translate(1282,957)"/>
<path d="M0 0 C24.420000000000073 0 48.83999999999992 0 74 0 C74 24.41999999999996 74 48.84000000000003 74 74 C49.57999999999993 74 25.160000000000082 74 0 74 C0 49.58000000000004 0 25.159999999999968 0 0 Z " fill="#FFFFFF" transform="translate(1144,957)"/>
<path d="M0 0 C24.41999999999996 0 48.84000000000003 0 74 0 C74 24.41999999999996 74 48.84000000000003 74 74 C49.58000000000004 74 25.159999999999968 74 0 74 C0 49.58000000000004 0 25.159999999999968 0 0 Z " fill="#FFFFFF" transform="translate(729,957)"/>
<path d="M0 0 C24.41999999999996 0 48.84000000000003 0 74 0 C74 24.41999999999996 74 48.84000000000003 74 74 C49.58000000000004 74 25.159999999999968 74 0 74 C0 49.58000000000004 0 25.159999999999968 0 0 Z " fill="#BD03F7" transform="translate(591,957)"/>
</svg>
