<?xml version="1.0" encoding="UTF-8"?>
<!-- Generator: visioncortex VTracer 0.6.12 -->
<svg version="1.1" xmlns="http://www.w3.org/2000/svg" width="600" height="600">
<path d="M0 0 C0.5694282531738395 -0.0014753723144593778 0.5694282531738395 -0.0014753723144593778 3.451080322265625 -0.008941650390625 C18.203411367376134 -0.01759040987386129 32.7813890922377 0.38409747203192524 47.4375 2.125 C48.135245361328145 2.2077719116210943 48.832990722656234 2.2905438232421886 49.5518798828125 2.375823974609375 C59.84889099817735 3.6354926932189073 70.04975449138453 5.444095322891201 80.25 7.3125 C80.25 7.972499999999997 80.25 8.632499999999993 80.25 9.3125 C81.4862109375 9.418203125000005 82.72242187500001 9.523906249999996 83.99609375 9.6328125 C89.90226757020628 10.291493595190289 95.5635916910361 11.717099247239432 101.3125 13.1875 C102.34955078125 13.444023437499993 103.3866015625 13.700546875 104.455078125 13.96484375 C110.23061456305089 15.422461696952595 115.70663889625786 17.14057385326069 121.25 19.3125 C123.72554735766124 20.1359615298164 126.20469948282073 20.948672848952725 128.6875 21.75 C133.6213478099188 23.36740535070186 138.40402920306053 25.132012699904237 143.109375 27.33203125 C147.08793503292083 29.154327907414455 151.17746162946577 30.714092455823717 155.25 32.3125 C155.25 32.9725 155.25 33.63249999999999 155.25 34.3125 C155.58451171875004 34.35697265625001 155.58451171875004 34.35697265625001 157.27734375 34.58203125 C161.0798578745999 35.51642039756922 164.35892245085756 37.20876647690412 167.8125 39 C169.23043810599557 39.72271637535508 170.64840719302538 40.44537197028143 172.06640625 41.16796875 C172.41711181640625 41.34803466796876 172.41711181640625 41.34803466796876 174.19189453125 42.25927734375 C177.20049668252176 43.79891075781717 180.22497833707564 45.305384569839106 183.25 46.8125 C184.91666666666669 47.64583333333334 186.58333333333331 48.47916666666666 188.25 49.3125 C188.25 49.9725 188.25 50.63249999999999 188.25 51.3125 C189.09562499999998 51.56 189.94125000000003 51.807500000000005 190.8125 52.0625 C194.6342747404329 53.45223626924832 197.76868062779732 55.22370837667839 201.25 57.3125 C201.25 57.9725 201.25 58.63249999999999 201.25 59.3125 C201.93062500000002 59.56 202.61124999999998 59.807500000000005 203.3125 60.0625 C206.81865083119436 61.55447907710396 209.96620368280446 63.38085510753206 213.25 65.3125 C213.25 65.9725 213.25 66.6325 213.25 67.3125 C213.98734375000004 67.5767578125 214.72468750000007 67.84101562500001 215.484375 68.11328125 C218.23995247852883 69.30814323574626 220.17430307094787 70.61790822593369 222.5 72.5 C223.27859375000003 73.1226171875 224.05718750000005 73.745234375 224.859375 74.38671875 C225.64828125000008 75.02222656250001 226.43718749999994 75.65773437500002 227.25 76.3125 C228.7476332828271 77.48220323641496 230.2475988586025 78.64892708804359 231.75 79.8125 C232.48734375000004 80.387421875 233.22468750000007 80.96234375 233.984375 81.5546875 C235.53090808228535 82.75458385694549 237.08327599300833 83.9469879293168 238.640625 85.1328125 C242.79630589909948 88.31149557182775 246.6420689664492 91.50412835347413 250.25 95.3125 C252.6122432671383 97.74036113566996 254.97575840963168 100.08126763038086 257.56640625 102.265625 C257.97826171875 102.613671875 257.97826171875 102.613671875 260.0625 104.375 C260.85269531250003 105.0259765625 261.64289062499995 105.67695312500001 262.45703125 106.34765625 C264.25 108.31249999999997 264.25 108.31249999999997 264.25 112.3125 C262.125 114.75000000000003 262.125 114.75000000000003 259.25 117.3125 C258.7459765625 117.7958984375 258.241953125 118.279296875 257.72265625 118.77734375 C256.1875 120.18749999999994 256.1875 120.18749999999994 253.25 122.3125 C249.2099997518402 122.12961933033023 247.33474193241818 119.63855069556342 244.6875 116.8125 C240.3240521414706 112.30767386034006 235.75756381842848 108.3268341206385 230.859375 104.41796875 C228.4658771613863 102.48668830836414 226.16433631082748 100.49015680500884 223.875 98.4375 C221.14687048189774 96.01558910127653 218.4060433759189 94.15352530261939 215.25 92.3125 C214.63125000000002 91.673125 214.01250000000005 91.03375 213.375 90.375 C210.59729700053032 87.67899414757358 207.65522349003146 86.14608187924773 204.25 84.3125 C204.25 83.6525 204.25 82.9925 204.25 82.3125 C203.56937499999998 82.065 202.88875000000002 81.8175 202.1875 81.5625 C198.20609327483925 79.86828437227203 193.91078640202903 78.02974373014334 190.87109375 74.88671875 C183.6054184411543 67.83113525731369 172.3335957254812 63.73336241669128 163.25 59.3125 C163.25 58.6525 163.25 57.99250000000001 163.25 57.3125 C162.07437499999997 56.96187499999999 160.89875 56.611249999999984 159.6875 56.25 C155.34465813192332 54.809182353627136 151.24814572160102 52.96862764333258 147.125 51 C132.41026994885215 44.01561442559108 117.10318186656241 38.1656885564268 101.25 34.3125 C101.25 33.6525 101.25 32.99250000000001 101.25 32.3125 C100.18007812500002 32.197773437500004 99.11015624999999 32.08304687500001 98.0078125 31.96484375 C92.31724341870216 31.251956518106894 86.73383666004713 30.05526440147004 81.125 28.875 C80.06667968750003 28.65779296875 79.008359375 28.440585937500003 77.91796875 28.216796875 C69.96326542130868 26.55499247822823 69.96326542130868 26.55499247822823 66.11328125 25.24609375 C61.99341623552556 23.902781692074512 57.851647928804084 23.36984261896623 53.5625 22.8125 C52.58788818359375 22.685769042968758 51.613276367187495 22.5590380859375 50.609130859375 22.428466796875 C41.199365896669406 21.290357346387665 31.771559157686454 20.66699833858702 22.3125 20.125 C21.583907775878913 20.082299804687494 20.855315551757826 20.039599609375003 20.104644775390625 19.99560546875 C4.8632459299537345 19.120217892002913 -10.25252980316833 19.075196446784787 -25.5 20.0625 C-26.816777343750005 20.147578124999995 -28.13355468750001 20.232656250000005 -29.490234375 20.3203125 C-45.25887876158521 21.405752974489957 -61.593974915427566 22.70506837428998 -76.75 27.3125 C-80.46864570035785 28.23371812325773 -84.20235578337568 29.086015831332816 -87.9375 29.9375 C-88.429599609375 30.052226562499996 -88.429599609375 30.052226562499996 -90.919921875 30.6328125 C-91.86802734374999 30.849374999999995 -92.8161328125 31.065937500000004 -93.79296875 31.2890625 C-94.64914794921876 31.485805664062497 -95.50532714843749 31.682548828124993 -96.387451171875 31.88525390625 C-98.75 32.3125 -98.75 32.3125 -102.75 32.3125 C-102.75 32.9725 -102.75 33.63249999999999 -102.75 34.3125 C-103.42989990234375 34.503603515625 -104.1097998046875 34.694707031250005 -104.810302734375 34.8916015625 C-107.9380344074832 35.77498843321217 -111.06273787225399 36.668668451491214 -114.1875 37.5625 C-115.25677734375 37.8628515625 -116.3260546875 38.163203124999995 -117.427734375 38.47265625 C-123.80801856922156 40.30674406118294 -129.7504596318009 42.485888205964045 -135.75 45.3125 C-137.72596412288632 46.132757721396445 -139.70473303417978 46.94632587219911 -141.6875 47.75 C-147.18065008470018 50.02423411150008 -152.46707462338992 52.59205669975228 -157.75 55.3125 C-160.92038914865316 56.90859687538796 -164.09937641715766 58.48198800832347 -167.29296875 60.03125 C-168.50783572308006 60.62495248200037 -169.72267927576223 61.21870289039393 -170.9375 61.8125 C-171.245263671875 61.960097656250014 -171.245263671875 61.960097656250014 -172.802734375 62.70703125 C-175.98149571281567 64.27058233057238 -178.28582898482432 65.81511913286778 -180.75 68.3125 C-183.766905878621 69.92151646859787 -186.8441145757373 71.35678921211166 -189.9375 72.8125 C-192.4633641334958 74.15962753786442 -193.84038612552814 75.2622346786832 -195.75 77.3125 C-197.07830115889823 78.2462562602156 -198.4340458050588 79.14200888427024 -199.8125 80 C-200.5047265625 80.43699218749998 -201.196953125 80.87398437500002 -201.91015625 81.32421875 C-203.75 82.3125 -203.75 82.3125 -205.75 82.3125 C-205.75 82.9725 -205.75 83.6325 -205.75 84.3125 C-207.76171875000003 85.64453125 -207.76171875000003 85.64453125 -210.4375 87.125 C-214.49574607481003 89.46849421221424 -217.51773753605409 91.89553682382859 -220.75 95.3125 C-222.41666666666666 96.3125 -224.08333333333334 97.3125 -225.75 98.3125 C-227.43933921999357 99.956181403237 -229.10259924338402 101.62678759788133 -230.75 103.3125 C-234.40011595144554 106.61426463657727 -238.13097821962054 109.81772183979209 -241.9375 112.9375 C-244.69920898454902 115.26960980917471 -247.2304648487456 117.72297776121079 -249.75 120.3125 C-250.07999999999998 120.64249999999998 -250.07999999999998 120.64249999999998 -251.75 122.3125 C-255.62195009723936 122.04546895881109 -257.92212972943776 119.79550804244488 -260.75 117.3125 C-261.69875 116.508125 -262.6475 115.70375000000001 -263.625 114.875 C-265.75 112.3125 -265.75 112.3125 -265.6171875 109.87109375 C-264.5898099856606 106.83986730003474 -263.4828921149775 105.79134634727532 -261 103.8125 C-260.2768359375 103.216953125 -259.553671875 102.62140625 -258.80859375 102.0078125 C-258.1292578125 101.448359375 -257.449921875 100.88890624999999 -256.75 100.3125 C-254.25815851586907 97.87860831782561 -251.8347086153479 95.40178745942075 -249.4375 92.875 C-246.64082812325955 90.20840588496839 -243.7022303002382 87.9926238510123 -240.58984375 85.71484375 C-238.75000000000003 84.31250000000003 -238.75000000000003 84.31250000000003 -236.75 82.3125 C-233.70167248727205 79.26417248727205 -230.23840289891055 76.8338796463214 -226.75 74.3125 C-225.86828125 73.67183593750002 -224.9865625 73.03117187499998 -224.078125 72.37109375 C-217.0063131313131 67.3125 -217.0063131313131 67.3125 -214.75 67.3125 C-214.75 66.6525 -214.75 65.9925 -214.75 65.3125 C-212.63281250000003 63.8046875 -212.63281250000003 63.8046875 -209.875 62.1875 C-208.970078125 61.64867187499999 -208.06515625 61.10984375000001 -207.1328125 60.5546875 C-204.75 59.3125 -204.75 59.3125 -202.75 59.3125 C-202.75 58.6525 -202.75 57.99250000000001 -202.75 57.3125 C-200.96118264443075 56.30741198750624 -199.16885304272895 55.30857264069269 -197.375 54.3125 C-196.377265625 53.75562500000001 -195.37953125 53.19874999999999 -194.3515625 52.625 C-191.75 51.3125 -191.75 51.3125 -189.75 51.3125 C-189.75 50.6525 -189.75 49.99250000000001 -189.75 49.3125 C-146.55503318584073 26.3125 -146.55503318584073 26.3125 -138.75 26.3125 C-138.75 25.652500000000003 -138.75 24.992500000000007 -138.75 24.3125 C-138.08991943359376 24.116159667968745 -137.4298388671875 23.919819335937504 -136.749755859375 23.717529296875 C-133.72770565679116 22.81597438853865 -130.70760708441952 21.90804187595674 -127.6875 21 C-126.64916015624999 20.69126953125 -125.61082031250001 20.3825390625 -124.541015625 20.064453125 C-120.31845955021038 18.790983832603132 -116.2401586772564 17.52819138713153 -112.19921875 15.75 C-107.46069652528166 13.775168540547739 -102.6278059054602 12.727482526436305 -97.625 11.625 C-96.64917968750001 11.400058593750003 -95.67335937499999 11.175117187500007 -94.66796875 10.943359375 C-90.25862846254617 9.953814385523671 -86.28831559924683 9.184152822869493 -81.75 9.3125 C-81.75 8.652500000000003 -81.75 7.992500000000007 -81.75 7.3125 C-54.356978664715854 2.8103455365214813 -27.767015328175546 0.06355617668957336 0 0 Z " fill="#BC02F6" transform="translate(300.75,95.6875)"/>
<path d="M0 0 C1.0382743835449446 -0.0033283996582156306 2.0765487670898324 -0.006656799316402839 3.1462860107421875 -0.0100860595703125 C5.331975943583416 -0.015112234334026198 7.517673434723974 -0.01749573200365262 9.703369140625 -0.017333984375 C12.965794353721094 -0.019500748961945646 16.22786958879152 -0.03764901023185985 19.490234375 -0.056640625 C38.54796541118873 -0.10890815038544588 57.32811573469422 1.1678470182261265 76.13671875 4.29296875 C77.27302734375002 4.4747265624999955 78.40933593749997 4.656484374999991 79.580078125 4.84375 C82.28772884823974 5.27788809064603 84.99397727148045 5.719109700188881 87.69921875 6.16796875 C87.69921875 6.827968749999997 87.69921875 7.487968749999993 87.69921875 8.16796875 C88.9251171875 8.269804687499999 90.15101562500001 8.371640624999998 91.4140625 8.4765625 C97.50554703709025 9.15339411523226 103.33985819958178 10.691998649198155 109.26171875 12.23046875 C110.36580078125002 12.512128906250013 111.46988281249997 12.793789062499997 112.607421875 13.083984375 C115.30611873243117 13.773261927330907 118.00327225142269 14.4680257735356 120.69921875 15.16796875 C120.69921875 15.827968749999997 120.69921875 16.487968749999993 120.69921875 17.16796875 C121.28187500000001 17.265937500000007 121.86453125000003 17.363906250000014 122.46484375 17.46484375 C129.44927325967473 18.73873340899729 136.01274759435705 20.801279646799912 142.69921875 23.16796875 C142.69921875 23.827968749999997 142.69921875 24.487968749999993 142.69921875 25.16796875 C143.40433593749998 25.290429687499994 144.10945312500002 25.41289062499999 144.8359375 25.5390625 C156.10037126585564 28.013242358530363 166.53389781935869 33.909144186394826 176.69921875 39.16796875 C176.69921875 39.82796875 176.69921875 40.48796874999999 176.69921875 41.16796875 C177.09109375000003 41.28140625 177.09109375000003 41.28140625 179.07421875 41.85546875 C183.82223499714866 43.57457808086417 188.22024426915067 45.84881595556814 192.69921875 48.16796875 C192.69921875 48.82796875 192.69921875 49.48796874999999 192.69921875 50.16796875 C193.37984375000002 50.41546875 194.06046874999998 50.662968750000005 194.76171875 50.91796875 C198.2678695811942 52.409947827103906 201.41542243280463 54.23632385753214 204.69921875 56.16796875 C204.69921875 56.82796875 204.69921875 57.48796874999999 204.69921875 58.16796875 C205.37984375000002 58.41546875 206.06046874999998 58.662968750000005 206.76171875 58.91796875 C212.93615158179347 61.54538697629508 217.0398429206366 64.38912174552473 221.69921875 69.16796875 C222.24578125 69.52890625 222.24578125 69.52890625 225.01171875 71.35546875 C225.89859374999997 71.95359374999998 226.78546875000006 72.55171875000002 227.69921875 73.16796875 C227.69921875 73.82796875 227.69921875 74.48796875 227.69921875 75.16796875 C228.42109374999995 75.41546875 229.14296875000002 75.66296875 229.88671875 75.91796875 C235.11854822823 78.24322629587999 238.70106285833606 82.16981285833606 242.69921875 86.16796875 C243.11171875000002 86.49796874999998 243.11171875000002 86.49796874999998 245.19921875 88.16796875 C247.9075447646028 90.33462956168216 250.27902811097226 92.68572194074073 252.69921875 95.16796875 C253.46234374999995 95.93109375 254.22546875 96.69421875 255.01171875 97.48046875 C255.56859375 98.03734374999999 256.12546875 98.59421874999998 256.69921875 99.16796875 C254.44868445108705 104.69200748369533 249.5826431197031 108.91235250353128 244.69921875 112.16796875 C242.69921875 112.23046875 242.69921875 112.23046875 240.69921875 111.16796875 C239.00924551943342 109.52493922028248 237.3470548112682 107.85325563084245 235.69921875 106.16796875 C234.3592847258726 105.14897700710071 233.0041372500184 104.14977015910407 231.63671875 103.16796875 C228.3972289362033 100.80647150255942 226.18731059787564 98.31955175730917 223.69921875 95.16796875 C221.70513797564104 93.82579899802761 219.70620849641023 92.49075744649764 217.69921875 91.16796875 C217.69921875 90.50796875 217.69921875 89.84796875 217.69921875 89.16796875 C217.11398437499997 88.8946875 216.52875 88.62140625 215.92578125 88.33984375 C213.7549916719468 87.1973229194457 211.99416130713462 85.93758285905122 210.07421875 84.41796875 C206.19948271321186 81.4446722414703 202.13851850596512 78.97874710387026 197.8984375 76.5625 C195.82979097589686 75.25076499270904 194.41423959367842 73.89196876039927 192.69921875 72.16796875 C191.2047338521764 71.18901258757242 189.68037127866552 70.25490031967189 188.13671875 69.35546875 C187.255 68.8385546875 186.37328125 68.32164062499999 185.46484375 67.7890625 C185.00851562499997 67.52158203125 185.00851562499997 67.52158203125 182.69921875 66.16796875 C180.13895446389654 64.60295170806103 177.57959326721232 63.036562668021475 175.0234375 61.46484375 C172.64172931168952 60.135890609631815 170.25039345469924 59.12522368344466 167.69921875 58.16796875 C167.69921875 57.50796875 167.69921875 56.84796875000001 167.69921875 56.16796875 C166.90128906249998 55.92949218749999 166.10335937500003 55.691015625000006 165.28125 55.4453125 C159.97322053461818 53.55248192728479 155.00381186583814 51.01697883821873 149.951171875 48.533203125 C144.6421580953418 45.96625438680644 139.3411316233649 43.88617613428613 133.69921875 42.16796875 C133.69921875 41.50796875 133.69921875 40.84796875000001 133.69921875 40.16796875 C125.04363918504112 37.79263298581171 116.37343190509483 35.474068603648675 107.69921875 33.16796875 C107.69921875 32.50796875 107.69921875 31.847968750000007 107.69921875 31.16796875 C107.065 31.069999999999993 106.43078125 30.972031249999986 105.77734375 30.87109375 C98.93139367939597 29.774228821560683 92.12627747712475 28.508484162767928 85.32421875 27.16796875 C84.46860351562498 27.00200195312499 83.61298828125001 26.836035156250006 82.7314453125 26.6650390625 C79.33955299801084 25.988786344883493 76.11658029098112 25.318953736627293 72.859375 24.140625 C67.8464494519622 22.59770972007243 62.71334412172837 22.17528862932639 57.51171875 21.60546875 C56.35349609374998 21.476159667968744 55.19527343750002 21.34685058593749 54.001953125 21.213623046875 C44.23975866136567 20.15928985542527 34.51356450274841 19.433940179613785 24.69921875 19.16796875 C24.021816406249968 19.146054687499998 23.344414062499993 19.124140624999995 22.646484375 19.1015625 C-1.7524075485937374 18.39571220327116 -28.792823970373263 19.249407746114144 -52.30078125 26.16796875 C-56.01992556228058 27.087211414922706 -59.75312204647577 27.94148116483609 -63.48828125 28.79296875 C-63.980380859375 28.90769531250001 -63.980380859375 28.90769531250001 -66.470703125 29.48828125 C-67.41880859374999 29.70484375000001 -68.3669140625 29.92140624999999 -69.34375 30.14453125 C-70.19992919921876 30.341274414062497 -71.05610839843749 30.538017578124993 -71.938232421875 30.74072265625 C-74.30078125 31.16796875 -74.30078125 31.16796875 -78.30078125 31.16796875 C-78.30078125 31.827968749999997 -78.30078125 32.48796874999999 -78.30078125 33.16796875 C-81.50725500892511 34.15329610004278 -84.71626128837869 35.130113935515624 -87.92578125 36.10546875 C-88.37759765625 36.24436523437498 -88.37759765625 36.24436523437498 -90.6640625 36.947265625 C-95.19415951595641 38.31952129041744 -99.59238995148002 39.5500901576693 -104.30078125 40.16796875 C-104.30078125 40.82796875 -104.30078125 41.48796874999999 -104.30078125 42.16796875 C-105.27015625000001 42.50828125000001 -106.23953125 42.84859374999999 -107.23828125 43.19921875 C-126.30941011412037 50.03608387328913 -144.6813282762285 59.559587280250696 -161.30078125 71.16796875 C-162.27015625 71.80734375 -163.23953125 72.44671875 -164.23828125 73.10546875 C-167.73711654807465 75.46182721605027 -171.19200229374525 77.87556713224592 -174.640625 80.3046875 C-176.41619563247733 81.54836913244009 -178.2001496527677 82.7801658195182 -179.9921875 84 C-184.5317773316596 87.10532299960025 -188.49920950485205 90.16631428142321 -192.30078125 94.16796875 C-194.1934993060179 95.86755231050586 -196.11674985643498 97.52930820891032 -198.0390625 99.1953125 C-208.12510557432427 107.99229307432427 -208.12510557432427 107.99229307432427 -212.30078125 112.16796875 C-215.42926819547074 111.99982531481999 -216.9040940726449 111.53632112897259 -219.21484375 109.390625 C-219.779453125 108.67777343749998 -220.3440625 107.96492187500002 -220.92578125 107.23046875 C-223.02266730798516 104.61647730667462 -224.46694398837528 103.05719359108315 -227.30078125 101.16796875 C-225.962767128006 98.10305955429942 -224.59170144423064 96.31435941544848 -221.98828125 94.23046875 C-218.04363740550272 90.98001688641841 -214.50599541197863 87.43832962343694 -210.98828125 83.73046875 C-202.0080983231707 75.16796875 -202.0080983231707 75.16796875 -198.30078125 75.16796875 C-198.0519921875 74.5608203125 -197.80320312499998 73.953671875 -197.546875 73.328125 C-196.0972431160447 70.81512678110573 -194.8671680101847 70.01827636328858 -192.36328125 68.60546875 C-189.58299956394217 67.0204483495371 -187.54371618150034 65.4342675870368 -185.30078125 63.16796875 C-183.97248009110177 62.2342124897844 -182.6167354449412 61.33845986572976 -181.23828125 60.48046875 C-180.5460546875 60.04347656249999 -179.853828125 59.60648437500001 -179.140625 59.15625 C-177.30078125 58.16796875 -177.30078125 58.16796875 -175.30078125 58.16796875 C-175.30078125 57.50796875 -175.30078125 56.84796875000001 -175.30078125 56.16796875 C-173.18359375 54.66015625 -173.18359375 54.66015625 -170.42578125 53.04296875 C-169.520859375 52.50414062499999 -168.6159375 51.96531250000001 -167.68359375 51.41015625 C-165.30078125 50.16796875 -165.30078125 50.16796875 -163.30078125 50.16796875 C-163.30078125 49.50796875 -163.30078125 48.84796875000001 -163.30078125 48.16796875 C-161.01149072057717 46.996425815882844 -158.71959763164148 45.83058801192789 -156.42578125 44.66796875 C-155.7748046875 44.334101562499995 -155.123828125 44.00023437499999 -154.453125 43.65625 C-149.52734375 41.16796875 -149.52734375 41.16796875 -147.30078125 41.16796875 C-147.30078125 40.50796875 -147.30078125 39.84796875000001 -147.30078125 39.16796875 C-120.26017211294419 25.16796875 -120.26017211294419 25.16796875 -113.30078125 25.16796875 C-113.30078125 24.507968750000003 -113.30078125 23.847968750000007 -113.30078125 23.16796875 C-110.38745046149756 22.15806182638883 -107.46962806246273 21.161809229090068 -104.55078125 20.16796875 C-104.13828125 20.02488281250001 -104.13828125 20.02488281250001 -102.05078125 19.30078125 C-101.2515625 19.03007812499999 -100.45234375000001 18.759375000000006 -99.62890625 18.48046875 C-98.895751953125 18.229101562500006 -98.16259765625 17.97773437500001 -97.4072265625 17.71875 C-95.30078125 17.16796875 -95.30078125 17.16796875 -91.30078125 17.16796875 C-91.30078125 16.507968750000003 -91.30078125 15.847968750000007 -91.30078125 15.16796875 C-87.40662876673431 14.163420152925084 -83.51054677142957 13.166771166812879 -79.612548828125 12.17724609375 C-78.2881083936056 11.839868789267456 -76.96420464934442 11.500376994960078 -75.640869140625 11.15869140625 C-73.73337633437174 10.666574044426113 -71.82373586600409 10.18280528712765 -69.9140625 9.69921875 C-68.76719970703124 9.405957031250011 -67.6203369140625 9.112695312499994 -66.438720703125 8.810546875 C-63.610911674611145 8.231476357373879 -61.172968389851206 8.03623862728773 -58.30078125 8.16796875 C-58.30078125 7.507968750000003 -58.30078125 6.847968750000007 -58.30078125 6.16796875 C-53.53664219414969 5.469510560471065 -48.771820383094735 4.775970031013202 -44.00634765625 4.086669921875 C-42.390598836118215 3.8522915634963795 -40.77503280778359 3.6166490122559765 -39.15966796875 3.379638671875 C-36.81656945861903 3.0360907502098087 -34.472816263235956 2.6973367911442665 -32.12890625 2.359375 C-31.425259399414074 2.2551673889160213 -30.72161254882812 2.1509597778320426 -29.99664306640625 2.0435943603515625 C-20.020818472614394 0.6177075021296901 -10.072308673253701 0.011680582128377637 0 0 Z " fill="#BC02F6" transform="translate(285.30078125,129.83203125)"/>
<path d="M0 0 C2.4527480894539053 0.6136040996470911 4.908674283249184 1.214606196716261 7.3671875 1.8046875 C8.761824800263241 2.144095782684758 10.156352757375714 2.48395361720182 11.55078125 2.82421875 C13.710786574502777 3.3503927186926035 15.871239499645355 3.8741026175358115 18.03369140625 4.39013671875 C25.321621927243825 6.132794370111412 32.40495031106951 7.841559156046316 39.18359375 11.12939453125 C41.73133472539348 12.35052952026254 44.36606362778838 13.169186042124608 47.0625 14 C51.28836111416291 15.367661751233499 55.12818150652578 16.93855473157481 59.04296875 19.01953125 C61.1346674672817 20.067468132310808 63.24470502190576 20.87303329385071 65.4375 21.6875 C73.28863648772062 24.731818229932486 80.612240096319 28.989012024451625 88 33 C88 33.66 88 34.31999999999999 88 35 C88.84562499999998 35.2475 89.69125000000003 35.495000000000005 90.5625 35.75 C94.38427474043294 37.139736269248345 97.51868062779727 38.91120837667836 101 41 C101 41.66 101 42.31999999999999 101 43 C101.68062500000002 43.2475 102.36124999999998 43.495000000000005 103.0625 43.75 C106.56865083119436 45.24197907710399 109.71620368280446 47.06835510753206 113 49 C113 49.66 113 50.31999999999999 113 51 C113.70125000000002 51.2475 114.40249999999997 51.495000000000005 115.125 51.75 C119.47940741141457 53.643220613658514 123.00319689589685 55.99823767647348 126.35546875 59.3671875 C128.8916270962639 61.89210733069697 131.5086331663336 64.09294116061432 134.3125 66.3125 C138.564988162767 69.74543855727416 142.4779315658438 73.31808799352069 146.24609375 77.2734375 C148.05047487101808 79.04968795766149 149.94390494796562 80.52684178689407 152 82 C151.5818128065796 86.8788505899048 149.55070070994896 88.77959703051135 146 92 C145.33999999999997 92.78375 144.68 93.5675 144 94.375 C142 96 142 96 139.5625 96.0625 C136.93203060078145 94.97181756617766 135.47954698073778 93.72350550261842 133.56640625 91.6484375 C125.40394478704405 83.0585154616773 115.91237569949527 75.71828987279628 105.9453125 69.359375 C104.06294999109622 68.04398915040457 102.61025301176437 66.62724776650595 101 65 C93.81347399624309 59.62200371904285 85.81468049678517 55.37977825851118 78 51 C78 50.34 78 49.68000000000001 78 49 C77.2265625 48.77312499999999 76.453125 48.546249999999986 75.65625 48.3125 C69.79440663780491 46.208248536647915 64.2909458455328 43.36238639600626 58.69921875 40.6328125 C54.194924928796354 38.45477056642801 49.81743635126878 36.41311466303884 45 35 C45 34.34 45 33.68000000000001 45 33 C43.84500000000003 32.77312499999999 42.69 32.546249999999986 41.5 32.3125 C36.90209939931941 31.29236357512633 32.42972620427952 29.96527501234658 27.9375 28.5625 C27.277499999999975 28.357297363281248 26.617500000000007 28.152094726562495 25.9375 27.940673828125 C22.664152134858057 26.90478886634679 19.503698526450023 25.798953167660557 16.31640625 24.5078125 C10.725705122301747 22.37961574907979 4.859390589857014 21.423300850654442 -1 20.3125 C-2.1562890624999795 20.087558593750003 -3.312578125000016 19.862617187500007 -4.50390625 19.630859375 C-7.334804553526737 19.08105681191836 -10.166766004828219 18.5376125317415 -13 18 C-13 17.340000000000003 -13 16.680000000000007 -13 16 C-13.846752929687511 15.940139160156264 -14.693505859375023 15.880278320312499 -15.56591796875 15.818603515625 C-21.714487176079956 15.381956190506628 -27.861814257531933 14.93634375645101 -34.0078125 14.46484375 C-56.35055951919435 12.78316497144101 -77.6833900619946 12.913480099839887 -100.00927734375 14.75634765625 C-103.90036188187958 15.073351931274772 -107.79303859379104 15.35274281962674 -111.6875 15.625 C-112.74324218749999 15.699765624999998 -113.798984375 15.774531249999995 -114.88671875 15.8515625 C-115.23541015625 15.876054687500016 -115.23541015625 15.876054687500016 -117 16 C-117 16.659999999999997 -117 17.319999999999993 -117 18 C-121.05573716628845 18.859615092742075 -125.11254649345756 19.71395466585082 -129.17041015625 20.5634765625 C-130.54994490674108 20.853052535014456 -131.92918122985026 21.144054097149734 -133.30810546875 21.4365234375 C-135.29317220160965 21.85729461230946 -137.2792648815828 22.272883303249216 -139.265625 22.6875 C-140.459619140625 22.938867187499994 -141.65361328125 23.19023437499999 -142.8837890625 23.44921875 C-146 24 -146 24 -150 24 C-150 24.659999999999997 -150 25.319999999999993 -150 26 C-153.2280164891844 26.98298598023669 -156.45760433119227 27.960708022651232 -159.6875 28.9375 C-160.59951171875 29.215292968749992 -161.5115234375 29.493085937499984 -162.451171875 29.779296875 C-163.33740234375 30.046777343749994 -164.2236328125 30.31425781249999 -165.13671875 30.58984375 C-165.54257202148438 30.712908935546864 -165.54257202148438 30.712908935546864 -167.596435546875 31.335693359375 C-170.0489689457438 32.013534230712935 -172.4998617737029 32.53110248051547 -175 33 C-175 33.66 -175 34.31999999999999 -175 35 C-175.8971875 35.34031250000001 -176.794375 35.68062499999999 -177.71875 36.03125 C-185.67431613508376 39.104086073829876 -193.32750639992483 42.51930445774698 -200.89453125 46.458984375 C-205.8081521076998 49 -205.8081521076998 49 -208 49 C-208 49.66 -208 50.31999999999999 -208 51 C-209.78881735556925 52.00508801249376 -211.58114695727105 53.00392735930731 -213.375 54 C-214.372734375 54.55687499999999 -215.37046875 55.11375000000001 -216.3984375 55.6875 C-219 57 -219 57 -221 57 C-221 57.66 -221 58.31999999999999 -221 59 C-222.87328653742395 60.19584014810397 -224.80089396645164 61.30718832133357 -226.75 62.375 C-230.77336291874454 64.58104681776572 -233.8504936589592 66.6728642340849 -237 70 C-238.9937182469609 71.34270820713692 -240.99345620129452 72.67653494127939 -243 74 C-243.4859765625 74.48597656250001 -243.971953125 74.971953125 -244.47265625 75.47265625 C-246.01300819993352 77.01300819993355 -247.5717275123546 78.15921900154225 -249.375 79.375 C-252.5989879317753 81.63043693546464 -255.2505491890878 84.17819522037956 -258 87 C-259.6666666666667 88.33333333333331 -261.3333333333333 89.66666666666669 -263 91 C-263.825 91.92812500000002 -264.65 92.85624999999999 -265.5 93.8125 C-268 96 -268 96 -270.5 96.1875 C-273.9856947530315 94.53179499231004 -275.64678134079253 92.01694699898394 -278 89 C-280.3125 87.125 -280.3125 87.125 -282 86 C-281.7821696143176 82.1879682505579 -281.13727361567175 81.12479419606524 -278.25 78.5 C-277.7047265625 78.08363281250001 -277.159453125 77.667265625 -276.59765625 77.23828125 C-275 76 -275 76 -272.6875 73.6875 C-268.0352368274981 69.03523682749812 -263.24290234638266 64.31730150668733 -257.6875 60.75 C-255 59 -255 59 -253 57 C-250.5570256466329 54.557025646632894 -247.94614192537574 52.79330378066348 -245 51 C-244.34 51 -243.68 51 -243 51 C-243 50.34 -243 49.68000000000001 -243 49 C-240.88281250000003 47.49218750000003 -240.88281250000003 47.49218750000003 -238.125 45.875 C-237.220078125 45.33617187499999 -236.31515625 44.79734375000001 -235.3828125 44.2421875 C-233 43 -233 43 -231 43 C-231 42.34 -231 41.68000000000001 -231 41 C-229.21118264443075 39.99491198750624 -227.41885304272895 38.99607264069269 -225.625 38 C-224.627265625 37.44312500000001 -223.62953125 36.88624999999999 -222.6015625 36.3125 C-220 35 -220 35 -218 35 C-218 34.34 -218 33.68000000000001 -218 33 C-206.2812499999995 27.140624999999744 -206.2812499999995 27.140624999999744 -204.138671875 26.0732421875 C-202.7138950265013 25.35825143110725 -201.29326767861684 24.634930820187094 -199.876953125 23.9033203125 C-196.1404264346026 21.98556654756092 -192.56535488847837 20.379265246799548 -188.5 19.25 C-187.64406250000002 19.007656249999997 -186.78812499999998 18.765312499999993 -185.90625 18.515625 C-185.2771875 18.34546875000001 -184.648125 18.17531249999999 -184 18 C-184 17.340000000000003 -184 16.680000000000007 -184 16 C-180.87647773081358 14.995342708969986 -177.7509514747831 13.997070729025666 -174.625 13 C-173.735546875 12.713828124999992 -172.84609375 12.427656249999984 -171.9296875 12.1328125 C-171.07890625 11.862109374999989 -170.228125 11.591406250000006 -169.3515625 11.3125 C-168.5660400390625 11.061132812500006 -167.780517578125 10.809765625000011 -166.97119140625 10.55078125 C-165 10 -165 10 -163 10 C-163 9.340000000000003 -163 8.680000000000007 -163 8 C-159.18800255929239 7.039660320068208 -155.37531245144334 6.082098280280576 -151.5625 5.125 C-150.49322265625 4.8555859374999955 -149.4239453125 4.586171874999991 -148.322265625 4.30859375 C-142.8870917031418 2.9456449377909166 -137.45068916245341 1.6406461123191036 -131.97314453125 0.4599609375 C-130.22912204990166 0.05341078223395357 -128.51119408544366 -0.4617297952348167 -126.80078125 -0.9921875 C-88.73985890951633 -11.084395068185785 -37.81442045024329 -11.05856899507424 0 0 Z " fill="#BC02F6" transform="translate(365,170)"/>
<path d="M0 0 C3.56571125070235 1.057718627884185 7.1659850679539545 1.9844709517635692 10.76318359375 2.92822265625 C12.8674380584971 3.490394123600595 14.97164128441807 4.05275767363355 17.07568359375 4.61572265625 C17.07568359375 5.275722656249997 17.07568359375 5.935722656249993 17.07568359375 6.61572265625 C18.31318359375001 6.842597656250007 19.550683593750023 7.069472656250014 20.82568359375 7.30322265625 C26.902874268710548 8.664210925603527 32.391553705792774 11.117852428670176 38.07568359375 13.61572265625 C39.42270099162556 14.186243779662476 40.77038985711545 14.755181453101358 42.11865234375 15.32275390625 C49.14038442638849 18.301274678048287 55.731137260705964 21.346770367194836 62.07568359375 25.61572265625 C64.39194036511822 26.981376937634735 66.73197518491503 28.297386676280325 69.07568359375 29.61572265625 C69.07568359375 30.275722656249997 69.07568359375 30.935722656249993 69.07568359375 31.61572265625 C69.73568359375003 31.677597656249986 70.39568359375 31.73947265625 71.07568359375 31.80322265625 C75.19735108903774 32.919507602890434 78.7331886102088 34.95333831452115 82.07568359375 37.61572265625 C82.07568359375 38.27572265625 82.07568359375 38.93572265624999 82.07568359375 39.61572265625 C82.77693359375002 39.86322265625 83.47818359374997 40.110722656250005 84.20068359375 40.36572265625 C87.47082907080369 41.787525037577694 90.21680559170096 43.48818553844603 93.07568359375 45.61572265625 C93.07568359375 46.27572265625 93.07568359375 46.93572265624999 93.07568359375 47.61572265625 C93.75630859375002 47.84259765625001 94.43693359374998 48.069472656250014 95.13818359375 48.30322265625 C101.07243405422099 50.95469626624765 105.61798148358224 54.92340464554712 110.07568359375 59.61572265625 C113.58001035447478 63.209903949301065 117.18811325143753 66.45142121483286 121.07568359375 69.61572265625 C120.78809978225695 73.06672839416649 120.43370607024877 74.30608159549433 117.76318359375 76.61572265625 C116.87630859375003 77.27572265624997 115.98943359375 77.93572265625 115.07568359375 78.61572265625 C114.37443359374998 79.50259765625003 113.67318359375003 80.38947265625 112.95068359375 81.30322265625 C111.07568359375 83.61572265625 111.07568359375 83.61572265625 108.07568359375 84.61572265625 C107.43630859375003 83.93509765624998 106.79693359375 83.25447265625002 106.13818359375 82.55322265625 C103.08061660982935 79.47823363823295 99.660532319053 76.94193195035496 96.21630859375 74.31884765625 C93.63878278310705 72.26811544194283 91.40266663883654 69.94270570133654 89.07568359375 67.61572265625 C88.25068359375001 67.12072265625 87.42568359375002 66.62572265624999 86.57568359375 66.11572265625 C84.07568359375006 64.61572265625006 84.07568359375006 64.61572265625006 81.63818359375 62.11572265625 C78.93317582323073 59.476690685011704 76.44447052845908 58.26427796472467 73.07568359375 56.61572265625 C72.47755859375002 55.99697265625002 71.87943359374998 55.37822265624999 71.26318359375 54.74072265625 C68.58532610538668 52.139375381839955 65.72222765631494 50.6558895748297 62.44287109375 48.90869140625 C60.208994653570755 47.6885377730828 58.08611336743547 46.37418202324858 55.95068359375 44.99072265625 C52.450311074595334 42.762573884017 48.93109886174034 41.14182453316283 45.07568359375 39.61572265625 C45.07568359375 38.95572265625 45.07568359375 38.29572265625001 45.07568359375 37.61572265625 C43.858808593749984 37.24447265625 42.641933593750025 36.87322265624999 41.38818359375 36.49072265625 C37.41856817787664 35.177838930563325 33.71945243413347 33.548240962886325 29.95068359375 31.74072265625 C23.9714748574998 28.91584443736508 17.97022468138772 26.787272772392384 11.68115234375 24.79150390625 C9.165399218205835 23.971090373434407 6.7705772637064 23.1048406611078 4.32177734375 22.12744140625 C-0.6758540570997411 20.23020918427582 -5.824767307689285 19.194447769392923 -11.04931640625 18.11572265625 C-13.115785423305226 17.68242814713534 -15.182192040273094 17.248835929300043 -17.24853515625 16.81494140625 C-18.23515136718754 16.609174804687484 -19.221767578124968 16.403408203124997 -20.23828125 16.19140625 C-22.39793949393436 15.72853821335238 -24.547860257799073 15.220351873748427 -26.69384765625 14.69775390625 C-55.46335841140012 7.709352403457672 -92.42844426745523 7.343677128356063 -120.92431640625 15.61572265625 C-124.74680037066739 16.520252464848 -128.5847079342519 17.349830815620436 -132.42431640625 18.17822265625 C-133.43107421875 18.399296875000005 -134.43783203125 18.62037109375001 -135.47509765625 18.84814453125 C-140.61264201092223 19.96251358852163 -145.7072563659004 20.96359015120629 -150.92431640625 21.61572265625 C-150.92431640625 22.275722656249997 -150.92431640625 22.935722656249993 -150.92431640625 23.61572265625 C-151.51857421875002 23.806826171875002 -152.11283203124998 23.997929687500005 -152.72509765625 24.19482421875 C-155.46033849023996 25.078566494428713 -158.19229764486522 25.972071659535345 -160.92431640625 26.86572265625 C-161.85888671875 27.166074218749998 -162.79345703125 27.466425781249995 -163.75634765625 27.77587890625 C-169.43087412442625 29.640933060126116 -174.65364053994952 31.820708628755597 -179.92431640625 34.61572265625 C-181.23202991131262 35.26337707313573 -182.54195285626992 35.906588665314615 -183.85400390625 36.54541015625 C-191.41837185369246 40.26569955151308 -198.7957008365521 44.09975060380458 -205.92431640625 48.61572265625 C-206.81505859375 49.170019531250006 -207.70580078125 49.72431640625001 -208.62353515625 50.29541015625 C-224.81839862746693 60.45955041015179 -224.81839862746693 60.45955041015179 -230.92431640625 66.61572265625 C-231.89369140625 67.25509765624997 -232.86306640625 67.89447265625 -233.86181640625 68.55322265625 C-236.97007447882072 70.64653931736905 -239.31492645329809 72.93942526860701 -241.92431640625 75.61572265625 C-242.79056640625 76.29634765625002 -243.65681640625002 76.97697265624998 -244.54931640625 77.67822265625 C-246.92431640625 79.61572265625 -246.92431640625 79.61572265625 -248.42431640625 81.86572265625 C-249.92431640625 83.61572265625 -249.92431640625 83.61572265625 -252.23681640625 84.30322265625 C-255.93399537386927 83.35743268778924 -257.2084233810203 81.30487569646812 -259.49853515625 78.35791015625 C-260.92431640625 76.61572265625 -260.92431640625 76.61572265625 -263.29931640625 74.92822265625 C-263.83556640625 74.49509765624998 -264.37181640625 74.06197265625002 -264.92431640625 73.61572265625 C-264.92431640625 69.61572265625 -264.92431640625 69.61572265625 -263.56103515625 68.04541015625 C-262.91779296875 67.53236328125001 -262.27455078125 67.01931640625003 -261.61181640625 66.49072265625 C-258.08768835761737 63.591440006311075 -254.70714829076627 60.59578208497231 -251.36181640625 57.49072265625 C-240.52340177210365 47.61572265625 -240.52340177210365 47.61572265625 -236.92431640625 47.61572265625 C-236.59431640625002 46.62572265624999 -236.26431640625 45.63572265625001 -235.92431640625 44.61572265625 C-234.14697265625 43.22900390625 -234.14697265625 43.22900390625 -231.98681640625 41.92822265625 C-231.27654296875 41.49123046874999 -230.56626953125 41.05423828125001 -229.83447265625 40.60400390625 C-227.92431640625 39.61572265625 -227.92431640625 39.61572265625 -225.92431640625 39.61572265625 C-225.59431640625002 38.62572265624999 -225.26431640625 37.63572265625001 -224.92431640625 36.61572265625 C-222.92822265624997 35.22900390625 -222.92822265624997 35.22900390625 -220.48681640625 33.92822265625 C-219.68373046875 33.49123046874999 -218.88064453125 33.05423828125001 -218.05322265625 32.60400390625 C-215.92431640625 31.61572265625 -215.92431640625 31.61572265625 -213.92431640625 31.61572265625 C-213.92431640625 30.955722656250003 -213.92431640625 30.295722656250007 -213.92431640625 29.61572265625 C-204.07975413052978 24.239614179438263 -194.136799681782 19.253447349319714 -183.92431640625 14.61572265625 C-183.09287109375 14.225136718750008 -182.26142578125 13.834550781250016 -181.40478515625 13.43212890625 C-166.6845304140321 6.61572265625 -166.6845304140321 6.61572265625 -160.92431640625 6.61572265625 C-160.92431640625 5.955722656250003 -160.92431640625 5.295722656250007 -160.92431640625 4.61572265625 C-160.1075341796875 4.414145507812492 -159.29075195312498 4.2125683593750125 -158.44921875 4.0048828125 C-155.39600228241153 3.250140533631395 -152.3433355752222 2.493222407709567 -149.291015625 1.73486328125 C-147.97417203765576 1.4081543549464186 -146.65711775237605 1.0822933845492173 -145.33984375 0.75732421875 C-143.43775069185443 0.2879204814635159 -141.53649385852864 -0.18486760173252037 -139.63525390625 -0.65771484375 C-138.4936279296875 -0.9405029296875114 -137.352001953125 -1.2232910156249943 -136.17578125 -1.5146484375 C-134.02748457600993 -2.089226658911059 -131.89590506461306 -2.7308977655770263 -129.78857421875 -3.441162109375 C-127.2835803722136 -4.265982364162767 -124.98525658934261 -4.813064566508984 -122.38525390625 -5.20068359375 C-121.55638671874999 -5.3250781250000045 -120.72751953125001 -5.449472656250009 -119.87353515625 -5.57763671875 C-119.02404296875 -5.699453124999991 -118.17455078124999 -5.82126953125001 -117.29931640625 -5.94677734375 C-116.47302734375 -6.072460937500011 -115.64673828125001 -6.198144531249994 -114.79541015625 -6.32763671875 C-77.61347785753492 -11.798938004616389 -36.09912561756869 -10.904142421795797 0 0 Z " fill="#BC02F6" transform="translate(371.92431640625,206.38427734375)"/>
<path d="M0 0 C4.031826819150751 1.377249757830299 8.164272694371903 2.388863357103048 12.288818359375 3.447998046875 C13.154423828125005 3.6729394531249966 14.020029296875009 3.897880859374993 14.911865234375 4.129638671875 C17.015970734509324 4.676008608373962 19.121043315434576 5.218652079309464 21.226318359375 5.760498046875 C21.226318359375 6.420498046874997 21.226318359375 7.080498046874993 21.226318359375 7.760498046875 C21.820576171875018 7.846865234375002 22.414833984375036 7.9332324218750045 23.027099609375 8.022216796875 C30.057492380413294 9.213994109539357 35.86581620152816 11.600248547064297 42.226318359375 14.760498046875 C43.48000314434154 15.369027434592624 44.733922964206954 15.97707276731333 45.988037109375 16.584716796875 C54.94429359307708 20.961441112139198 63.632688810823595 25.71174068710104 72.226318359375 30.760498046875 C72.226318359375 31.420498046874968 72.226318359375 32.08049804687499 72.226318359375 32.760498046875 C72.90694335937502 33.007998046875 73.58756835937498 33.255498046875005 74.288818359375 33.510498046875 C79.80811802689772 35.85913620326767 84.03761836087511 38.4448677453903 88.226318359375 42.760498046875 C89.36249522838307 43.606949814286 90.50993086930185 44.438353210197874 91.663818359375 45.260498046875 C96.38743863940908 48.71615220258991 100.58610015749639 52.696391588045685 104.83349609375 56.709716796875 C109.0353965081652 60.665037121270075 109.0353965081652 60.665037121270075 111.226318359375 61.760498046875 C111.101318359375 63.94799804687506 111.101318359375 63.94799804687506 110.226318359375 66.760498046875 C108.78276346639228 68.04365795174851 107.33115541805392 69.32324220715486 105.792724609375 70.490966796875 C103.56509201810303 72.29640468256923 101.92879018160846 74.46870905540686 100.226318359375 76.760498046875 C95.74516741123568 75.35213632031696 93.4347162285751 73.12931580953506 90.226318359375 69.760498046875 C88.5636154916582 68.42222500700541 86.89715654475998 67.0886001942323 85.226318359375 65.760498046875 C84.58694335937503 65.10049804687503 83.947568359375 64.440498046875 83.288818359375 63.760498046875 C81.226318359375 61.760498046875 81.226318359375 61.760498046875 77.976318359375 59.635498046875 C77.06881835937497 59.01674804687502 76.161318359375 58.39799804687499 75.226318359375 57.760498046875 C75.226318359375 57.10049804687503 75.226318359375 56.44049804687501 75.226318359375 55.760498046875 C74.495419921875 55.49752929687497 73.764521484375 55.234560546875 73.011474609375 54.963623046875 C70.20212556243058 53.750047301490895 68.10428527918856 52.34394527597351 65.663818359375 50.510498046875 C60.17263182603165 46.55982538261435 54.33822559320993 43.62742360501409 48.226318359375 40.760498046875 C48.226318359375 40.10049804687503 48.226318359375 39.44049804687501 48.226318359375 38.760498046875 C47.442568359375 38.512998046875 46.658818359375005 38.265498046874995 45.851318359375 38.010498046875 C41.24230507357811 36.421183120738135 36.74084120072331 34.598426318253985 32.226318359375 32.760498046875 C32.226318359375 32.10049804687503 32.226318359375 31.440498046875007 32.226318359375 30.760498046875 C31.620458984374977 30.578740234375005 31.01459960937501 30.39698242187501 30.390380859375 30.209716796875 C24.335693359374773 28.393310546874943 18.281005859375057 26.576904296875 12.226318359375 24.760498046875 C12.226318359375 24.100498046874975 12.226318359375 23.440498046875007 12.226318359375 22.760498046875 C4.582746458584211 21.217094298590382 -3.0718655558906107 19.740632117155542 -10.73583984375 18.30224609375 C-14.780936788786903 17.538853159469 -18.818708952700035 16.768518253384542 -22.836181640625 15.869873046875 C-32.50583236626392 13.744217068394022 -41.9086354733538 13.019309927083242 -51.773681640625 12.760498046875 C-52.46687499999996 12.738583984374998 -53.16006835937503 12.716669921874995 -53.874267578125 12.694091796875 C-62.764705123357885 12.439715901446306 -71.53893775448711 12.867290914364702 -80.398681640625 13.635498046875 C-80.86097167968751 13.674693603515635 -80.86097167968751 13.674693603515635 -83.200439453125 13.873046875 C-88.29494469278262 14.358038565850933 -92.85731784658901 15.28558890866421 -97.773681640625 16.760498046875 C-99.52541587995535 17.125255934143553 -101.28113313361996 17.47113100158279 -103.039306640625 17.803466796875 C-115.49769460626504 20.17307072813753 -127.0330434328159 23.309548098321272 -138.801513671875 28.019775390625 C-141.74711215518275 29.126106883365253 -144.73454152238173 29.94979444108867 -147.773681640625 30.760498046875 C-147.773681640625 31.420498046874968 -147.773681640625 32.08049804687499 -147.773681640625 32.760498046875 C-148.752080078125 33.12401367187499 -149.730478515625 33.48752929687498 -150.738525390625 33.862060546875 C-158.4029978248985 36.77659506075054 -165.12832428070425 39.87378189717191 -171.773681640625 44.760498046875 C-176.473681640625 47.760498046875 -176.473681640625 47.760498046875 -178.773681640625 47.760498046875 C-178.773681640625 48.42049804687497 -178.773681640625 49.08049804687499 -178.773681640625 49.760498046875 C-180.64477539062497 51.022216796875 -180.64477539062497 51.022216796875 -183.211181640625 52.447998046875 C-193.46726058499354 58.407806968003115 -202.52295880718066 66.26710689479995 -210.773681640625 74.760498046875 C-211.103681640625 75.09049804687498 -211.103681640625 75.09049804687498 -212.773681640625 76.760498046875 C-214.586181640625 76.760498046875 -214.586181640625 76.760498046875 -216.773681640625 75.760498046875 C-218.0363164933296 74.30361167836969 -219.29424347291624 72.83991448249606 -220.468994140625 71.311279296875 C-221.773681640625 69.760498046875 -221.773681640625 69.760498046875 -224.586181640625 67.635498046875 C-225.308056640625 67.01674804687502 -226.029931640625 66.39799804687499 -226.773681640625 65.760498046875 C-226.773681640625 61.760498046875 -226.773681640625 61.760498046875 -225.269775390625 60.049560546875 C-224.590439453125 59.50041992187499 -223.911103515625 58.951279296874986 -223.211181640625 58.385498046875 C-222.485439453125 57.78866210937497 -221.759697265625 57.19182617187499 -221.011962890625 56.576904296875 C-220.273330078125 55.97749023437501 -219.534697265625 55.37807617187502 -218.773681640625 54.760498046875 C-216.9181800883992 53.120335166087386 -215.0682832642379 51.47406181860458 -213.218994140625 49.826904296875 C-211.773681640625 48.760498046875 -211.773681640625 48.760498046875 -209.773681640625 48.760498046875 C-209.773681640625 48.10049804687503 -209.773681640625 47.44049804687501 -209.773681640625 46.760498046875 C-207.910400390625 45.358154296875 -207.910400390625 45.358154296875 -205.461181640625 43.822998046875 C-202.5499594746787 41.99000631276067 -200.18417775163059 40.19677486495016 -197.773681640625 37.760498046875 C-196.44538048172677 36.8267417866594 -195.0896358355662 35.93098916260476 -193.711181640625 35.072998046875 C-193.018955078125 34.63600585937502 -192.326728515625 34.19901367187498 -191.613525390625 33.748779296875 C-189.773681640625 32.760498046875 -189.773681640625 32.760498046875 -187.773681640625 32.760498046875 C-187.773681640625 32.10049804687503 -187.773681640625 31.440498046875007 -187.773681640625 30.760498046875 C-185.98486428505575 29.755410034381214 -184.19253468335395 28.75657068756766 -182.398681640625 27.760498046875 C-181.400947265625 27.20362304687501 -180.403212890625 26.646748046875018 -179.375244140625 26.072998046875 C-176.773681640625 24.760498046875 -176.773681640625 24.760498046875 -174.773681640625 24.760498046875 C-174.773681640625 24.100498046874975 -174.773681640625 23.440498046875007 -174.773681640625 22.760498046875 C-172.33936525501838 21.58675632097362 -169.90163982053954 20.421340413445932 -167.461181640625 19.260498046875 C-166.770888671875 18.926630859374995 -166.080595703125 18.59276367187499 -165.369384765625 18.248779296875 C-160.113525390625 15.760498046875 -160.113525390625 15.760498046875 -156.773681640625 15.760498046875 C-156.773681640625 15.100498046875003 -156.773681640625 14.440498046875007 -156.773681640625 13.760498046875 C-154.171709617209 12.754442120675037 -151.56738802115558 11.755472795761989 -148.961181640625 10.760498046875 C-148.223193359375 10.474326171874992 -147.485205078125 10.188154296874984 -146.724853515625 9.893310546875 C-146.36875 9.757958984374994 -146.36875 9.757958984374994 -144.566650390625 9.072998046875 C-143.91204833984375 8.821630859375006 -143.2574462890625 8.570263671875011 -142.5830078125 8.311279296875 C-140.773681640625 7.760498046875 -140.773681640625 7.760498046875 -137.773681640625 7.760498046875 C-137.773681640625 7.100498046875003 -137.773681640625 6.440498046875007 -137.773681640625 5.760498046875 C-134.0471740223232 4.750405389553265 -130.31708705219052 3.7542125056243094 -126.586181640625 2.760498046875 C-125.53108398437502 2.474326171874992 -124.475986328125 2.1881542968750125 -123.388916015625 1.893310546875 C-122.367333984375 1.6226074218749886 -121.34575195312499 1.3519042968750057 -120.293212890625 1.072998046875 C-119.82451782226562 0.9473144531249886 -119.82451782226562 0.9473144531249886 -117.45263671875 0.311279296875 C-114.81114890625258 -0.2317988499393664 -112.46150847841761 -0.34181415630823153 -109.773681640625 -0.239501953125 C-109.773681640625 -0.8995019531249966 -109.773681640625 -1.5595019531249932 -109.773681640625 -2.239501953125 C-75.71988905953333 -8.711185557113112 -33.19146497444723 -11.777616603836123 0 0 Z " fill="#BC02F6" transform="translate(357.773681640625,238.239501953125)"/>
<path d="M0 0 C0.899815979003904 -0.007492675781236358 1.799631958007808 -0.014985351562472715 2.726715087890625 -0.022705078125 C16.211922509312103 -0.11461311984538725 29.140729806837385 1.1483045528138973 42.4375 3.375 C42.4375 4.035000000000025 42.4375 4.694999999999993 42.4375 5.375 C43.714960937499995 5.487148437500025 44.99242187499999 5.599296874999993 46.30859375 5.71484375 C51.52535300486272 6.2944836672069755 56.450423859512284 7.5389750332396375 61.5 8.9375 C62.365605468750005 9.171464843750016 63.23121093750001 9.405429687499975 64.123046875 9.646484375 C66.22947695055984 10.216733400980274 68.33372888849976 10.795018340573165 70.4375 11.375 C70.4375 12.035000000000025 70.4375 12.694999999999993 70.4375 13.375 C71.14390624999999 13.498749999999973 71.85031249999997 13.622500000000002 72.578125 13.75 C84.35595277231369 16.324388584112285 94.97782025735967 22.62530778218934 105.4375 28.375 C105.4375 29.035000000000025 105.4375 29.694999999999993 105.4375 30.375 C106.17484375000004 30.648281250000025 106.91218749999996 30.921562499999993 107.671875 31.203125 C110.2732922643778 32.305420451007535 112.36790453339364 33.527056456337846 114.6875 35.125 C117.05942742208919 36.7497702841311 119.42698440009059 38.368222900707735 121.84375 39.92578125 C126.21105674003354 42.742694097321646 129.84407809047468 45.581943539945485 133.4375 49.375 C133.85000000000002 49.704999999999984 133.85000000000002 49.704999999999984 135.9375 51.375 C143.46762048192772 57.39909638554224 143.46762048192772 57.39909638554224 144.4375 62.375 C143.97859375000002 62.750117187499995 143.51968749999997 63.12523437499999 143.046875 63.51171875 C139.4045389055899 66.5495494842034 136.26558093287275 69.5288099312931 133.4375 73.375 C128.8666875574708 72.51689696479684 126.40972249596507 69.7840508379698 123.1875 66.625 C118.52990363502266 62.17590394942454 114.04588814461573 58.59463023116831 108.4375 55.375 C107.986328125 54.9019140625 107.53515625 54.428828124999995 107.0703125 53.94140625 C104.92157931230668 51.88006173261954 102.57923078034133 50.73847395114393 99.9375 49.375 C94.74354137812566 46.694247162903594 94.74354137812566 46.694247162903594 93.045654296875 44.923095703125 C91.19170743541241 43.13838687535298 89.43213286799835 42.215997941539 87.11328125 41.10546875 C86.25822998046874 40.69449951171873 85.40317871093748 40.28353027343752 84.522216796875 39.860107421875 C84.06480102539064 39.6460021972656 84.06480102539064 39.6460021972656 81.75 38.5625 C80.80100830078129 38.11817626953126 79.85201660156247 37.67385253906252 78.874267578125 37.216064453125 C63.765577917404016 30.22372876297925 49.45118498709246 26.045200763520256 33.06640625 22.90966796875 C30.717597325044494 22.4319663021775 28.411688726586817 21.880961763016728 26.09375 21.2734375 C16.153700844396553 18.830904053644474 5.610851956696251 19.135500694661005 -4.5712890625 19.337890625 C-6.419684479152465 19.372338406183303 -8.26848897626519 19.382498852642925 -10.1171875 19.390625 C-36.21873716362484 20.17647810815214 -61.110839130097304 28.467504504158228 -84.5 39.4375 C-84.95620727539063 39.64926879882813 -84.95620727539063 39.64926879882813 -87.264892578125 40.720947265625 C-91.83534839735279 42.89004168247038 -95.70462552495431 45.053328294951655 -99.5625 48.375 C-101.1078062176619 49.32036380374609 -102.67075596459301 50.23749095530849 -104.25 51.125 C-111.02748939998182 55.139436114317164 -117.031641355512 59.92450059507536 -122.71875 65.3671875 C-123.2538720703125 65.87548095703124 -123.788994140625 66.38377441406249 -124.34033203125 66.907470703125 C-125.3892941228998 67.91233854604297 -126.42722148733768 68.92887861773312 -127.45263671875 69.957763671875 C-128.8984375 71.34765625 -128.8984375 71.34765625 -131.5625 73.375 C-133.796875 73.32421875 -133.796875 73.32421875 -135.5625 72.375 C-136.92889341530602 70.73532790163279 -138.25744189531468 69.0638987237104 -139.5625 67.375 C-141.49984933205846 65.61420713416362 -143.51174153438907 64.0062851430996 -145.5625 62.375 C-145.238376282958 59.34984530760801 -144.66421347695606 58.462586605156616 -142.3125 56.4375 C-141.405 55.75687499999998 -140.4975 55.076250000000016 -139.5625 54.375 C-138.799375 53.611875 -138.03625 52.848749999999995 -137.25 52.0625 C-129.3626397983608 44.17513979836076 -120.40933606384957 36.74011164208662 -110.3515625 31.796875 C-107.5625 30.375 -107.5625 30.375 -106.09765625 28.88671875 C-103.75290204938187 26.577762323437128 -100.98138989527305 25.53662056713472 -98 24.1875 C-96.84371093749999 23.657695312499982 -95.68742187499998 23.12789062500002 -94.49609375 22.58203125 C-91.5625 21.375 -91.5625 21.375 -89.5625 21.375 C-89.5625 20.714999999999975 -89.5625 20.055000000000007 -89.5625 19.375 C-86.96052797658405 18.368944073800037 -84.35620638053058 17.36997474888699 -81.75 16.375 C-81.01201171874999 16.08882812500002 -80.2740234375 15.802656249999984 -79.513671875 15.5078125 C-79.157568359375 15.372460937500023 -79.157568359375 15.372460937500023 -77.35546875 14.6875 C-76.70086669921875 14.436132812499977 -76.0462646484375 14.184765625000011 -75.371826171875 13.92578125 C-73.5625 13.375 -73.5625 13.375 -70.5625 13.375 C-70.5625 12.714999999999975 -70.5625 12.055000000000007 -70.5625 11.375 C-67.75236495025212 10.553482633784597 -64.93981813829208 9.74268438471239 -62.125 8.9375 C-61.341894531250006 8.707402343750005 -60.55878906250001 8.477304687500009 -59.751953125 8.240234375 C-54.34360560656103 6.7045307586531635 -49.16503990011435 5.862908880190162 -43.5625 5.375 C-43.5625 4.714999999999975 -43.5625 4.055000000000007 -43.5625 3.375 C-29.0632596534021 0.49231079499594443 -14.73370385970287 0.04211224835125904 0 0 Z " fill="#BC02F6" transform="translate(300.5625,265.625)"/>
<path d="M0 0 C0.7159432983398233 -0.005176391601537489 1.4318865966797034 -0.010352783203131821 2.169525146484375 -0.01568603515625 C14.185042433578246 -0.0840761085243571 26.740942890047336 0.0402322370789534 38.109375 4.3359375 C40.403615099705576 5.130097534513482 42.671546174005925 5.78917671477592 45.015625 6.4140625 C45.408587646484364 6.518919677734402 45.408587646484364 6.518919677734402 47.397216796875 7.049560546875 C48.964737345534104 7.463583714129243 50.53384562316967 7.87165863869825 52.104736328125 8.272705078125 C57.376547246710004 9.679171668029426 61.935164761457486 11.712092898473657 66.75 14.25 C68.59901484121451 15.094702663184307 70.45260189135104 15.92953824119212 72.3125 16.75 C76.60635053026044 18.693718347031506 80.73760471115418 20.77373094098425 84.75 23.25 C85.17152343750001 23.507167968750025 85.17152343750001 23.507167968750025 87.3046875 24.80859375 C92.64596451695388 28.130246631734508 97.70910139908756 31.630757290504732 102.62109375 35.55859375 C104.71120007224408 37.21917363537926 106.84497408368793 38.80001844247096 109 40.375 C117.16123670212767 46.483710106383 117.16123670212767 46.483710106383 118.75 51.25 C117.14876499628656 53.416376769729936 115.5826408979845 55.30007008454447 113.75 57.25 C112.90437499999996 58.17812500000002 112.05875000000003 59.10624999999999 111.1875 60.0625 C107.86636115222586 63.04300922236138 107.86636115222586 63.04300922236138 104.75 63.25 C102.63671875 61.80859375 102.63671875 61.80859375 100.4375 59.6875 C99.65117187499999 58.948867187500014 98.86484374999998 58.21023437500003 98.0546875 57.44921875 C97.29414062500001 56.72347656249997 96.53359375000002 55.99773437499999 95.75 55.25 C94.53020002918748 54.15613079540498 93.30200797561247 53.07148578336279 92.0625 52 C91.56363281250003 51.56171875000001 91.064765625 51.12343750000002 90.55078125 50.671875 C78.62191440984202 41.25298664898588 64.90298171941959 34.52042590711562 50.75 29.25 C49.63753906249997 28.745976562500005 48.52507812499999 28.24195312500001 47.37890625 27.72265625 C43.23306181703572 26.040219919292213 39.17795043979061 25.045981105441058 34.8125 24.125 C34.052597656249986 23.956132812500016 33.29269531249997 23.787265624999975 32.509765625 23.61328125 C28.762482071361887 22.80046312649523 25.056633339458813 22.131821826717612 21.24609375 21.6953125 C17.75 21.25 17.75 21.25 16.75 20.25 C4.092523849671011 18.59101040748118 -9.611406545696127 18.226825949014597 -22.25 20.25 C-22.414999999999964 20.41500000000002 -22.414999999999964 20.41500000000002 -23.25 21.25 C-25.81038062552352 21.72236164301671 -28.367122799258652 22.152147849671564 -30.9375 22.5625 C-48.187889862560525 25.481378368756964 -63.167065277054576 31.255566313539475 -78.2841796875 39.94775390625 C-79.028291015625 40.37362792968747 -79.77240234375 40.799501953125 -80.5390625 41.23828125 C-80.87268798828126 41.431842041015614 -80.87268798828126 41.431842041015614 -82.56103515625 42.411376953125 C-84.25 43.25 -84.25 43.25 -86.25 43.25 C-86.25 43.90999999999997 -86.25 44.56999999999999 -86.25 45.25 C-87.9543420663689 46.443039446458215 -89.71564715703917 47.55532251037164 -91.5 48.625 C-95.24527909883085 50.874149088451304 -98.24791367701056 53.07859861324107 -101.25 56.25 C-102.9127028677168 57.58827303986959 -104.57916181461502 58.9218978526427 -106.25 60.25 C-106.765625 60.84812499999998 -107.28125 61.44625000000002 -107.8125 62.0625 C-109.25 63.25 -109.25 63.25 -111.125 63.25 C-116.25343145948787 60.83662048965277 -119.73301664558895 55.5708652639907 -123.25 51.25 C-121.08979613409792 46.28153110842521 -117.3525793839583 43.63428265680062 -113.25 40.25 C-112.50492187500001 39.61835937500001 -111.75984374999999 38.98671875000002 -110.9921875 38.3359375 C-106.19431394576091 34.36146138741253 -101.21369839764097 30.77511843245469 -96 27.375 C-95.4216943359375 26.993598632812507 -94.843388671875 26.612197265625014 -94.24755859375 26.21923828125 C-90.6969875879453 23.951072766488153 -87.29552575217076 22.41462104986732 -83.25 21.25 C-83.25 20.589999999999975 -83.25 19.930000000000007 -83.25 19.25 C-80.64869373143881 18.076568403594933 -78.0443149235364 16.91107491865165 -75.4375 15.75 C-74.69951171874999 15.416132812499995 -73.9615234375 15.082265624999991 -73.201171875 14.73828125 C-72.48896484375001 14.422460937499977 -71.7767578125 14.106640625000011 -71.04296875 13.78125 C-70.38836669921875 13.487988281250011 -69.7337646484375 13.194726562500023 -69.059326171875 12.892578125 C-67.25 12.25 -67.25 12.25 -64.25 12.25 C-64.25 11.589999999999975 -64.25 10.930000000000007 -64.25 10.25 C-63.57944580078126 10.078715820312482 -62.908891601562516 9.90743164062502 -62.218017578125 9.73095703125 C-59.165280328558254 8.949097305074758 -56.11388983279281 8.162101156629205 -53.0625 7.375 C-52.007402343750016 7.1055859374999955 -50.9523046875 6.836171874999991 -49.865234375 6.55859375 C-48.843652343749994 6.294335937500023 -47.82207031249999 6.030078124999989 -46.76953125 5.7578125 C-45.83214111328124 5.516918945312511 -44.89475097656248 5.276025390625023 -43.928955078125 5.02783203125 C-41.25 4.25 -41.25 4.25 -38.62060546875 3.1953125 C-27.064730189968373 -1.412756406224787 -12.25613356603867 0.04044211569532763 0 0 Z " fill="#BC02F6" transform="translate(302.25,299.75)"/>
<path d="M0 0 C0.6964764404297057 -0.0009567260742073813 1.3929528808593545 -0.0019134521484147626 2.11053466796875 -0.002899169921875 C3.576132110015749 -0.003575467088694495 5.041732642296779 -0.0017598485446796985 6.50732421875 0.00244140625 C8.714589227942156 0.007764781628452511 10.921647736525301 0.002494455035730425 13.12890625 -0.00390625 C20.959084138448134 -0.00721123813457325 28.698386416482663 0.21447585621598364 36.484375 1.1328125 C36.484375 1.792812500000025 36.484375 2.452812499999993 36.484375 3.1328125 C37.62906250000003 3.2552734375000227 38.77375000000001 3.3777343749999886 39.953125 3.50390625 C53.88532857269024 5.26379576104938 66.25694792627951 10.457635475060783 78.484375 17.1328125 C79.14437499999997 17.462812499999984 79.804375 17.792812500000025 80.484375 18.1328125 C80.484375 18.792812500000025 80.484375 19.452812499999993 80.484375 20.1328125 C81.16499999999996 20.380312500000002 81.84562500000004 20.627812500000005 82.546875 20.8828125 C88.06488514430407 23.23090192310815 92.29726972217907 25.814860182247173 96.484375 30.1328125 C97.63784775604108 30.9843147939643 98.80585061595582 31.816334801732125 99.984375 32.6328125 C102.77613860693316 34.57203754309552 105.16610249938952 36.62907819934071 107.484375 39.1328125 C106.252770460781 43.78554075927178 103.78687030987209 45.84483948166809 100.140625 48.703125 C98.484375 50.1328125 98.484375 50.1328125 96.484375 53.1328125 C92.484375 53.1328125 92.484375 53.1328125 90.359375 51.1328125 C90.15054687500003 50.90658203124997 90.15054687500003 50.90658203124997 89.09375 49.76171875 C83.65174551614166 44.25367052240546 77.33218685875795 39.70558390456938 70.484375 36.1328125 C70.484375 35.47281250000003 70.484375 34.81281250000001 70.484375 34.1328125 C69.92750000000001 33.951054687500005 69.37062500000002 33.76929687500001 68.796875 33.58203125 C63.64240508662351 31.884190653533096 58.55426884662165 30.06859015052828 53.484375 28.1328125 C53.484375 27.472812499999975 53.484375 26.812812500000007 53.484375 26.1328125 C43.197877754257775 23.680244869649414 33.06832404851713 21.644203916856497 22.546875 20.52734375 C19.484375 20.1328125 19.484375 20.1328125 17.484375 19.1328125 C15.486269903141647 19.036313106117632 13.484803200987812 19.003003778362995 11.484375 19.0078125 C10.411875000000009 19.005234374999986 9.339375000000018 19.002656249999973 8.234375 19 C5.484375 19.1328125 5.484375 19.1328125 3.484375 20.1328125 C1.5483326362316348 20.344665456382018 -0.3884507299998745 20.551536007703533 -2.328125 20.72705078125 C-17.416990518271177 22.113712558936527 -30.25707403194167 26.134882435576685 -43.91015625 32.5234375 C-47.515625 34.1328125 -47.515625 34.1328125 -49.515625 34.1328125 C-49.515625 34.79281249999997 -49.515625 35.45281249999999 -49.515625 36.1328125 C-51.24609375000003 37.25390625 -51.24609375000003 37.25390625 -53.703125 38.5703125 C-59.08827590829924 41.64315181999956 -63.529699116947995 45.4066627792094 -68.047607421875 49.613037109375 C-71.98249239986063 53.14310102386236 -71.98249239986063 53.14310102386236 -74.7421875 53.08984375 C-79.18978270741147 50.68970977243214 -82.67496745597913 46.235984508030185 -85.515625 42.1328125 C-85.515625 38.1328125 -85.515625 38.1328125 -83.94140625 36.31640625 C-83.2440234375 35.74019531250002 -82.54664062500001 35.163984374999984 -81.828125 34.5703125 C-81.0972265625 33.96445312499998 -80.366328125 33.35859375000001 -79.61328125 32.734375 C-77.34462800205941 31.00225613285727 -74.97922301092373 29.569911339705527 -72.515625 28.1328125 C-71.896875 27.493437500000027 -71.27812499999999 26.854062499999998 -70.640625 26.1953125 C-67.7108483935016 23.35170579369276 -63.734171731991694 20.1328125 -59.515625 20.1328125 C-59.515625 19.472812499999975 -59.515625 18.812812500000007 -59.515625 18.1328125 C-53.86460324371811 15.431860106046258 -48.19948114657268 12.76397878419516 -42.515625 10.1328125 C-41.605546875000016 9.70999999999998 -40.69546875 9.287187500000016 -39.7578125 8.8515625 C-33.746619323774894 6.254391929087433 -27.515720282335565 4.834969441574742 -21.138671875 3.4384765625 C-15.60741621376809 2.22460371376809 -15.60741621376809 2.22460371376809 -14.515625 1.1328125 C-9.645029672615465 0.26004241844310627 -4.941573901965626 0.004368655887049044 0 0 Z " fill="#BC02F6" transform="translate(289.515625,333.8671875)"/>
<path d="M0 0 C5.250193458139904 3.468367366175926 8.285195491732225 7.353206622803043 11 13 C11 13.660000000000025 11 14.319999999999993 11 15 C11.659999999999968 15 12.319999999999993 15 13 15 C15.692238775215344 23.581511095998906 16.8539774938327 33.617044966873664 13.0390625 42.03125 C12.696171875000005 42.68093750000003 12.353281250000009 43.330625 12 44 C11.574609375000023 44.835312499999986 11.149218749999989 45.67062499999997 10.7109375 46.53125 C7.571075065840603 52.24009078938076 4.659384919530737 55.734970238732274 -1 59 C-1.6599999999999682 59 -2.319999999999993 59 -3 59 C-3 59.65999999999997 -3 60.31999999999999 -3 61 C-6.666318706638776 62.67512837458497 -9.540998570822694 63.2560499965972 -13.5625 63.265625 C-14.606640625000011 63.268203125000014 -15.650781250000023 63.27078125000003 -16.7265625 63.2734375 C-17.806796875000032 63.265703125000016 -18.887031250000007 63.25796875000003 -20 63.25 C-21.080234375000032 63.257734374999984 -22.160468750000007 63.26546874999997 -23.2734375 63.2734375 C-24.31757812500001 63.270859374999986 -25.361718750000023 63.26828124999997 -26.4375 63.265625 C-27.38496093750001 63.263369140625 -28.332421875000023 63.261113281250005 -29.30859375 63.2587890625 C-32.19408576733997 62.98133790698654 -34.37453014167727 62.1995681249233 -37 61 C-37 60.34000000000003 -37 59.68000000000001 -37 59 C-37.701250000000016 58.77312499999999 -38.402499999999975 58.546249999999986 -39.125 58.3125 C-46.70428341996853 54.85239235175351 -50.075186434905845 49.63557523630777 -53 42 C-53 41.00999999999999 -53 40.01999999999998 -53 39 C-53.660000000000025 39 -54.31999999999999 39 -55 39 C-55.196812096766735 36.959209950449576 -55.38202830614762 34.91729992789891 -55.5625 32.875 C-55.666914062499984 31.73804687500001 -55.771328125000025 30.601093750000018 -55.87890625 29.4296875 C-55.996080157065876 26.111020067617744 -55.665507202498986 23.24373140180984 -55 20 C-54.339999999999975 20 -53.68000000000001 20 -53 20 C-52.89687500000002 19.13375000000002 -52.79374999999999 18.267499999999984 -52.6875 17.375 C-51.28889106188444 10.509101576523506 -48.47095866093389 7.242784267663012 -43 3 C-42.37480468749999 2.337421875000018 -41.74960937499998 1.6748437499999795 -41.10546875 0.9921875 C-30.48515336837073 -9.056719447367243 -11.569016906247953 -6.7117960677469455 0 0 Z M-30 16 C-33.967877578719765 19.967877578719765 -35.74731022424572 23.767906980837154 -36.375 29.3125 C-35.764169464236204 35.3190002683441 -33.77731579505058 39.42465190893245 -29.25 43.4375 C-24.08472601991207 45.92080479811921 -20.059720508348732 46.55171085045055 -14.5 45.0625 C-13.675000000000011 44.71187500000002 -12.850000000000023 44.361249999999984 -12 44 C-12 43.34000000000003 -12 42.68000000000001 -12 42 C-11.386406249999993 41.74605468750002 -10.772812499999986 41.492109374999984 -10.140625 41.23046875 C-6.517347001265534 39.14774508284427 -5.380170430655539 35.81986563635974 -4 32 C-3.1286930929603614 27.207812011281987 -4.054129187185993 24.35948895022807 -6.4375 20.25 C-9.385926072861878 16.12922356007158 -12.10905733906992 14.618850133199146 -16.94921875 13.33984375 C-21.84617055973547 12.528348878672432 -25.657444467457253 13.79801729561973 -30 16 Z " fill="#FFFFFF" transform="translate(321,442)"/>
<path d="M0 0 C10.230000000000018 0 20.460000000000036 0 31 0 C31 0.660000000000025 31 1.3199999999999932 31 2 C31.268124999999998 2.007089843750009 31.268124999999998 2.007089843750009 32.625 2.04296875 C52.1612401617121 3.231851786156824 69.76971213661557 13.04445455947814 84 26 C84.6123046875 26.476953125000023 85.224609375 26.95390624999999 85.85546875 27.4453125 C87 29 87 29 86.9375 31.45703125 C85.81108601084577 34.51242919558092 84.53267021508418 35.674931704084884 82 37.6875 C78.07623318385652 40.84753363228697 78.07623318385652 40.84753363228697 77 43 C72.77516053372915 42.47062252470823 70.10026137979708 39.862246600378455 66.9375 37.25 C61.34164203436421 32.76404446393269 55.73643118280506 29.56497379706002 49 27 C49 26.339999999999975 49 25.680000000000007 49 25 C24.962652051427256 19.31844503033733 5.037347948572744 19.31844503033733 -19 25 C-19 25.660000000000025 -19 26.319999999999993 -19 27 C-19.435703125000032 27.194648437500007 -19.435703125000032 27.194648437500007 -21.640625 28.1796875 C-30.628581870809853 32.40130360598641 -37.64778677128814 37.30760077899305 -45 44 C-47.35539692748412 42.02472476686489 -49.68097428065593 40.017791450645745 -52 38 C-52.99000000000001 37.154375000000016 -53.97999999999999 36.30875000000003 -55 35.4375 C-57 33 -57 33 -57.125 30.5 C-54.65295005720802 25.006555682684507 -49.89264263687781 22.19085389361595 -45 19 C-44.5707421875 18.537226562499995 -44.141484375000005 18.07445312499999 -43.69921875 17.59765625 C-34.280176940752 8.741591652339253 -15.705422564148193 1.8386725708366498 -2.75 1.8125 C-2.2962499999999864 1.8434374999999932 -2.2962499999999864 1.8434374999999932 0 2 C0 1.339999999999975 0 0.6800000000000068 0 0 Z " fill="#BC02F6" transform="translate(285,368)"/>
<path d="M0 0 C2 3 2 3 1.89453125 5.3828125 C0.7642731631327138 8.689681138432604 -0.8463956401946575 10.412931817542926 -3.3125 12.875 C-4.092382812499977 13.67679687499998 -4.872265625000011 14.478593750000016 -5.67578125 15.3046875 C-8 17 -8 17 -9.96484375 16.94140625 C-12.487177637820196 15.774645276939225 -14.86375369028741 14.489363655953866 -17.25 13.0625 C-18.142031250000002 12.537851562500009 -19.034062500000005 12.013203125000018 -19.953125 11.47265625 C-20.628593749999993 10.986679687499986 -21.304062499999986 10.500703124999973 -22 10 C-22 9.339999999999975 -22 8.680000000000007 -22 8 C-35.77389312269298 4.304967593433275 -47.9104023926709 2.45965968440629 -62 6 C-62.790195312499975 6.190781249999986 -63.58039062500001 6.381562499999973 -64.39453125 6.578125 C-66.26674269657036 7.037161081470856 -68.13402689389335 7.516229194713105 -70 8 C-70 8.660000000000025 -70 9.319999999999993 -70 10 C-72.265625 11.796875 -72.265625 11.796875 -75.25 13.75 C-76.22453124999998 14.404843749999998 -77.19906250000003 15.059687499999995 -78.203125 15.734375 C-81 17 -81 17 -83.1328125 16.38671875 C-85.01533038724256 14.988614461357486 -86.85158375441921 13.597637851350726 -88.625 12.0625 C-89.215390625 11.558476562500005 -89.80578125 11.054453125000009 -90.4140625 10.53515625 C-92 9 -92 9 -94 6 C-93.65185130136459 2.4843807882894566 -92.83050832532544 1.830508325325411 -90.1875 -0.8125 C-63.1096097710157 -22.55186309034309 -26.951870962168982 -19.82743624398961 0 0 Z " fill="#BC02F6" transform="translate(346,418)"/>
</svg>
