<?xml version="1.0" encoding="UTF-8"?>
<!-- Generator: visioncortex VTracer 0.6.12 -->
<svg version="1.1" xmlns="http://www.w3.org/2000/svg" width="600" height="600">
<path d="M0 0 C0.6965245717763935 -0.005813763141631512 1.393049143552787 -0.011627526283263023 2.1106805205345154 -0.017617464065551758 C4.438347503624101 -0.03218414450925877 6.764954416870097 -0.01834882806320337 9.092613220214844 -0.00457000732421875 C10.780714579335609 -0.009180262241748949 12.46881192457596 -0.015534017571596337 14.156900882720947 -0.023478984832763672 C18.790924224008734 -0.04017835343922371 23.424618093291485 -0.03192316917942151 28.058642625808716 -0.01953411102294922 C33.05804124485519 -0.01048845206434379 38.05738298345034 -0.02445095101825956 43.05677032470703 -0.03545379638671875 C52.848688396611294 -0.0532487505654089 62.64048388955419 -0.04939466546974103 72.43240678310394 -0.03780323266983032 C80.38985664534567 -0.028773038893277203 88.34727213231562 -0.027543122393232977 96.30472564697266 -0.03189849853515625 C97.43687890440225 -0.03251143068074924 98.56903216183184 -0.03312436282634934 99.73549309372902 -0.033755868673324585 C102.03537524748751 -0.03503475828958358 104.33525739132602 -0.036331610929920544 106.63513952493668 -0.03764623403549194 C128.20575639532922 -0.0490548945933611 149.77630529057922 -0.03593382433952996 171.34691101312637 -0.01444476842880249 C189.85914364591196 0.00342645796933283 208.3712759525775 0.00032243148807253874 226.88350677490234 -0.01811981201171875 C248.3764573332951 -0.03952145208142355 269.8693483003241 -0.04795623099201407 291.3623080253601 -0.03567075729370117 C293.65377266274294 -0.03439654838435047 295.9452373094892 -0.033139065868994066 298.23670196533203 -0.03189849853515625 C298.8004375655949 -0.03158994749188082 298.8004375655949 -0.03158994749188082 301.65328136086464 -0.030028492212295532 C309.6020113786662 -0.026573477698448755 317.5507036266935 -0.032407211060188956 325.49942779541016 -0.04181671142578125 C335.1850804346407 -0.05303020739056308 344.8706033901293 -0.050010262474465605 354.5562411546707 -0.028693735599517822 C359.4988799671824 -0.018174633732414236 364.4413024859928 -0.01407621039107454 369.383939743042 -0.02729034423828125 C373.9078455332961 -0.039202163621538944 378.43133436280715 -0.03267165760863833 382.95520228147507 -0.011380136013031006 C384.59238385863495 -0.0069089445314247655 386.22960059981364 -0.009191953279632514 387.86675959825516 -0.01888328790664673 C390.0921498128965 -0.031047025200493295 392.31611184529527 -0.018574303490453303 394.5414276123047 0 C395.7774199819564 0.0006494092941267127 397.0134123516083 0.0012988185882534253 398.28685903549194 0.001967906951904297 C403.8345991155629 0.8003991010798046 407.5434336249182 3.0299553852129577 411.17501068115234 7.389839172363281 C413.9291978606983 12.93410020124999 413.3401795012528 19.281524625245268 413.30196380615234 25.31977081298828 C413.3046628685745 26.663030295864026 413.3085487293313 28.006287865460507 413.31356048583984 29.34954071044922 C413.3194342284153 32.15450529896377 413.3109611326943 34.95895787922156 413.29219818115234 37.76386260986328 C413.2693865204601 41.34733009395927 413.28255732937055 44.92960048175152 413.3064880371094 48.51302433013916 C413.32098556503297 51.28329641013042 413.3163226008784 54.053287513422475 413.3059768676758 56.82356834411621 C413.30203713772676 58.783293757024154 413.3141167709249 60.743030392938564 413.32649993896484 62.702720642089844 C413.2104247695286 73.7335238545123 413.2104247695286 73.7335238545123 408.77071380615234 78.50336456298828 C404.4656648297338 82.29590770888082 402.18507295343625 83.62988136469441 396.49483489990234 83.61688995361328 C395.94433975219727 83.61685218811036 395.94433975219727 83.61685218811036 393.1585006713867 83.61666107177734 C391.96576538085935 83.61149978637695 390.77303009033204 83.60633850097656 389.54415130615234 83.60102081298828 C388.3261987304688 83.59960586547851 387.10824615478515 83.59819091796875 385.85338592529297 83.59673309326172 C381.9508039067109 83.5911209488923 378.04827857964403 83.57856635204472 374.14571380615234 83.56586456298828 C371.50508963277736 83.56085112904815 368.86446456311813 83.55628795125901 366.22383880615234 83.55219268798828 C359.73942421937215 83.54199706756881 353.25513271658355 83.52242392621294 346.77071380615234 83.50336456298828 C346.77071380615234 94.39336456298827 346.77071380615234 105.28336456298828 346.77071380615234 116.50336456298828 C350.07071380615236 117.16336456298828 353.37071380615237 117.82336456298827 356.77071380615234 118.50336456298828 C373.15427313489306 124.73373219504461 384.4422503944887 134.84643773966107 392.29805755615234 150.55805206298828 C396.8184923265612 161.6955773734716 397.20273778580145 173.0150052917935 397.14302825927734 184.83393096923828 C397.14546196406627 186.53899099985253 397.1491868642613 188.24404959396767 397.15409088134766 189.94910430908203 C397.1634286229694 194.5445825108193 397.1541324427683 199.1398450191468 397.1407587528229 203.73530626296997 C397.1293546277068 208.5737128671077 397.1335589217874 213.41211022298964 397.13550567626953 218.25052642822266 C397.1363863451036 226.37894921428096 397.125360154002 234.5072882520933 397.10689544677734 242.63568878173828 C397.08577419237054 251.98607749485518 397.08221027915465 261.33634327670006 397.08845740556717 270.68675100803375 C397.09418782913644 279.73213842257115 397.0884596388112 288.77748325728163 397.07728385925293 297.8228645324707 C397.0726819045303 301.6477043230265 397.0717447226168 305.47251769066776 397.0738697052002 309.29735946655273 C397.0757782352215 313.82011570237154 397.06745575259674 318.3427500678777 397.0518093109131 322.865478515625 C397.0476297328064 324.5087623110266 397.0466721203145 326.1520586281323 397.04949951171875 327.7953453063965 C397.072062356526 343.2781171156844 396.03055815870243 358.7453483960551 392.58321380615234 373.8783645629883 C392.36745697021485 374.83549346923826 392.15170013427735 375.7926223754883 391.92940521240234 376.7787551879883 C383.3973026324895 413.2608489779604 365.50268516297336 444.560045053849 339.77071380615234 471.5033645629883 C339.33436614990234 471.9661380004883 339.33436614990234 471.9661380004883 337.12618255615234 474.3080520629883 C305.4562029072577 507.0445171173362 257.09947309120474 529.938720469154 211.2262191772461 530.7186813354492 C210.83652954101564 530.7224704742432 210.83652954101564 530.7224704742432 208.86446380615234 530.7416458129883 C208.03046051025387 530.7514396667481 207.19645721435546 530.7612335205079 206.3371810913086 530.7713241577148 C188.15758291440375 530.9408257374121 170.53112218638137 530.8834652783826 152.77071380615234 526.5033645629883 C151.88126068115236 526.2890579223633 150.99180755615237 526.0747512817383 150.07540130615234 525.8539505004883 C114.73453087741356 517.1078489210418 84.59440278423085 499.7578526158446 58.203819274902344 474.8529739379883 C56.892283445461146 473.6178512693084 55.568425432704856 472.39584698868424 54.243370056152344 471.1752395629883 C18.291047736422684 436.9127346618521 -1.1131064033541094 385.5244169628014 -2.3274078369140625 336.54563331604004 C-2.383647791698152 332.18210102733775 -2.3875364118017615 327.81861439239947 -2.3904190063476563 323.4547805786133 C-2.395060647621108 321.79234459824266 -2.400087053764949 320.1299096552856 -2.4054641723632813 318.4674758911133 C-2.4184535456182203 313.99430028896114 -2.425005484849663 309.5211395890212 -2.4294748306274414 305.04794812202454 C-2.4324251826516985 302.2439760551167 -2.436533288423121 299.44000789535136 -2.44097900390625 296.6360378265381 C-2.454613288701964 287.83518831860243 -2.4643019199194356 279.03434794391774 -2.4681808948516846 270.23348861932755 C-2.4726633813652086 260.1240797072557 -2.4902373545916703 250.0148058735253 -2.519181489944458 239.90543800592422 C-2.540871750172329 232.0536034704951 -2.550888942456524 224.20180676849412 -2.5522220134735107 216.34994262456894 C-2.5532640167804885 211.6765434020734 -2.559042863196396 207.00327186029335 -2.5770416259765625 202.3299045562744 C-2.5936520919299113 197.93270893412597 -2.5956156756735425 193.53573531703165 -2.586902618408203 189.13851928710938 C-2.5861393592768707 187.537082292638 -2.590379451617025 185.93563267829916 -2.600360870361328 184.33422660827637 C-2.7159605354429175 164.61118228698822 0.7204170757959503 147.38310635971635 14.770713806152344 132.50336456298828 C24.41529144658182 123.23927626343337 34.752464212574154 119.10701448170391 47.770713806152344 116.50336456298828 C47.770713806152344 105.6133645629883 47.770713806152344 94.72336456298828 47.770713806152344 83.50336456298828 C45.82036224365234 83.52656768798829 45.82036224365234 83.52656768798829 35.950401306152344 83.64398956298828 C32.16753693522617 83.67519516663911 28.384686969076682 83.69947740217103 24.601768493652344 83.72309112548828 C21.975075474287422 83.74319171388629 19.348427118553985 83.7704766073991 16.721885681152344 83.80512237548828 C12.943778683435198 83.85370620223654 9.166263965677217 83.87634964992638 5.387901306152344 83.89398956298828 C4.215811157226568 83.91463470458984 3.0437210083007784 83.9352798461914 1.8361129760742188 83.95655059814453 C-4.500983808684595 83.95829004554416 -8.453715437418865 83.8404735898631 -13.229286193847656 79.50336456298828 C-17.16863331215015 75.03167323950979 -18.351297556120016 72.69844712647725 -18.406288146972656 66.78778839111328 C-18.41912338256836 65.58926742553712 -18.43195861816406 64.39074645996094 -18.44518280029297 63.155906677246094 C-18.448876266479488 62.504897384643556 -18.448876266479488 62.504897384643556 -18.467567443847656 59.21039581298828 C-18.47164297103882 58.54798070907593 -18.47571849822998 57.88556560516358 -18.479917526245117 57.20307731628418 C-18.500783338243778 53.693719858007455 -18.51508008392699 50.18440150416113 -18.524452209472656 46.67499542236328 C-18.535489179708946 43.06134960775131 -18.56985493858096 39.44832426507395 -18.609623908996582 35.8348970413208 C-18.635861475748072 33.0474971602158 -18.64415052361271 30.260243124030183 -18.647733688354492 27.47273063659668 C-18.654934349479333 25.496916042282912 -18.681347846447878 23.521201411975255 -18.70812225341797 21.545555114746094 C-18.67986143416647 9.815661308065522 -18.67986143416647 9.815661308065522 -14.229286193847656 4.503364562988281 C-9.26556085045506 1.1696532298411668 -6.095557794669432 0.0032026992900213713 0 0 Z M-1.2292861938476563 17.50336456298828 C-1.2292861938476563 33.67336456298828 -1.2292861938476563 49.843364562988285 -1.2292861938476563 66.50336456298828 C129.78071380615236 66.50336456298828 260.7907138061524 66.50336456298828 395.77071380615234 66.50336456298828 C395.77071380615234 50.33336456298828 395.77071380615234 34.16336456298828 395.77071380615234 17.50336456298828 C264.76071380615235 17.50336456298828 133.7507138061523 17.50336456298828 -1.2292861938476563 17.50336456298828 Z M65.77071380615234 83.50336456298828 C65.77071380615234 94.06336456298828 65.77071380615234 104.62336456298829 65.77071380615234 115.50336456298828 C152.89071380615235 115.50336456298828 240.01071380615235 115.50336456298828 329.77071380615234 115.50336456298828 C329.77071380615234 104.94336456298828 329.77071380615234 94.38336456298828 329.77071380615234 83.50336456298828 C242.65071380615234 83.50336456298828 155.53071380615233 83.50336456298828 65.77071380615234 83.50336456298828 Z M24.524620056152344 148.29633331298828 C18.3569716830155 156.05740531927407 15.525723137824912 165.15851863010994 15.510017395019531 174.9993667602539 C15.506191847920434 175.7214867246151 15.502366300821308 176.44360668897627 15.49842482805252 177.18760907649994 C15.48816387995609 179.59062526762074 15.492073945416792 181.99339940387654 15.496055603027344 184.39643096923828 C15.491704826487648 186.1269172094068 15.486520458111244 187.8574015238458 15.480567932128906 189.58788299560547 C15.467193735838123 194.28089935748818 15.466598410128427 198.97383507875125 15.469131231307983 203.6668667793274 C15.470203820766756 207.5995196998868 15.465309280773369 211.53215650458947 15.460525810718536 215.4648059606552 C15.449432190177902 224.76152531739956 15.44898985677304 234.05820428936772 15.455039978027344 243.35492706298828 C15.461055483609982 252.89717061701725 15.448830356757185 262.43926581205415 15.427469909191132 271.9814840555191 C15.409746051076496 280.2060986729664 15.403870121012858 288.4306665743701 15.407107651233673 296.6552995443344 C15.40890644868361 301.5525473405298 15.406428308682393 306.4496897520139 15.392393112182617 311.34692001342773 C15.273308693575899 356.829104968131 21.468471880068904 398.6092924358254 48.770713806152344 436.5033645629883 C49.13874114990233 437.0144778442383 49.13874114990233 437.0144778442383 51.001182556152344 439.6010208129883 C80.0287703487075 478.98270462445566 122.7239038871802 503.737440648243 170.70821380615234 511.9252395629883 C217.3554819592107 518.8981661788623 266.46457400089446 506.87429257793974 304.42696380615234 478.8432083129883 C344.41186684642673 448.5020780186053 370.47178386158225 405.5556460118206 377.80725860595703 355.8344955444336 C379.0123546003874 347.03350950161723 379.06009386633883 338.30470405871915 379.04537200927734 329.4357376098633 C379.0497308236047 327.6763716247855 379.0549178167192 325.91700753007905 379.0608596801758 324.1576461791992 C379.0741276039788 319.42658712296617 379.07484268161164 314.69560852461325 379.0722963809967 309.9645345211029 C379.0712194404419 306.0006194586036 379.076127799648 302.0367202045801 379.08090180158615 298.07280856370926 C379.09195226613855 288.72079086026827 379.09245804418094 279.36881335069006 379.08638763427734 270.0167922973633 C379.08033570944787 260.39123053033694 379.09269998579515 250.76581448712244 379.11395770311356 241.1402775645256 C379.1315951296956 232.84688442324614 379.1375721326932 224.55353760771425 379.134319961071 216.26012641191483 C379.13251218112674 211.31919458661832 379.13509376995535 206.37836702012194 379.14903450012207 201.43745231628418 C379.1616450843959 196.79565812907654 379.15963830454825 192.1540913452729 379.1466236114502 187.512300491333 C379.14426624349227 185.8152394272821 379.1469622332111 184.11816217006313 379.15524673461914 182.4211196899414 C379.2257323811671 166.85384012261045 376.8360482668382 155.920816284213 366.02071380615234 144.25336456298828 C356.28286579809554 134.92435750183463 344.6977874546441 133.19858925634156 331.75255584716797 133.24266815185547 C331.15442555606364 133.24075537830592 331.15442555606364 133.24075537830592 328.1275237798691 133.23107558488846 C324.82416685840354 133.22256876702278 321.5210335957435 133.2229690997863 318.2176833152771 133.2272561788559 C314.64839868861065 133.22972927672643 311.07913989213995 133.22070200427305 307.5098648071289 133.21321868896484 C300.5238429083164 133.20048584269568 293.5378594716895 133.19867623197382 286.5518279224634 133.20101895183325 C280.8717986278958 133.20280386038476 275.19178098480086 133.20104876600521 269.5117530822754 133.1967945098877 C268.70254338733855 133.19619932089 267.89333369240165 133.1956041318923 267.0596024915576 133.1949909068644 C265.41555107460556 133.19377912236408 263.7714996593837 133.1925649882791 262.127448245883 133.19134853035212 C246.71821315097168 133.18047843252322 231.30899995375842 133.18263296843665 215.89976362884045 133.1887333765626 C201.8132058555246 133.19390201369805 187.72671724562247 133.18264755514645 173.64017315208912 133.1636351570487 C159.16440620016516 133.1442477113704 144.6886719536596 133.13600235087563 130.21289193630219 133.1397584080696 C122.0905373586796 133.1416690824371 113.96824164219962 133.13919593424808 105.84589767456055 133.12504386901855 C98.93119158847963 133.11311754059378 92.01658059881922 133.11173919210813 85.10187317430973 133.12383403629065 C81.5765530281397 133.12971397130383 78.0514067169745 133.13084686682237 74.52609825134277 133.11883163452148 C70.69825954037157 133.1059373141496 66.87068283895533 133.11645837542736 63.04283905029297 133.12914276123047 C61.93737657189371 133.121768476367 60.83191409349442 133.11439419150352 59.69295275211334 133.10679644346237 C45.741902602063334 133.20387803741912 34.17493826071612 138.10013852311585 24.524620056152344 148.29633331298828 Z " fill="#000000" transform="translate(119.22928619384766,34.49663543701172)"/>
<path d="M0 0 C0.9929373890161628 -0.0046799719333705525 1.9858747780322972 -0.009359943866741105 3.0089011788368225 -0.014181733131408691 C6.315891991656287 -0.02608960958747275 9.62246517294787 -0.01669077825738441 12.929458618164063 -0.007232666015625 C15.308621629967575 -0.011300250247899157 17.687782751680857 -0.016643178725615826 20.066940307617188 -0.023162841796875 C25.84634244414866 -0.03540382067629366 31.625613245315378 -0.03363756696131759 37.40501933544874 -0.02492491900920868 C42.10486213432529 -0.018134666101929042 46.80467220620605 -0.01723743821963808 51.50451850891113 -0.020496368408203125 C52.174824651964 -0.0209560675174032 52.84513079501687 -0.021415766626603272 53.535749245435 -0.021889396011829376 C54.89770913574847 -0.022848627837589675 56.259669016682324 -0.023821268876162094 57.621628887951374 -0.024807170033454895 C70.37745397869537 -0.03335126463170468 83.13321427396511 -0.023542703395435183 95.88902873545885 -0.007406070828437805 C106.81904171846804 0.005993160690252353 117.74895908343024 0.0036703955217660678 128.67897033691406 -0.010162353515625 C141.38930316910847 -0.026240836274894264 154.09957926402882 -0.03252415765783212 166.80992084741592 -0.023325562477111816 C168.16702305394688 -0.022369976271050973 169.52412526931903 -0.02142686279114514 170.88122749328613 -0.020496368408203125 C171.21503588547932 -0.02026495512575366 171.21503588547932 -0.02026495512575366 172.9043086580932 -0.019093863666057587 C177.59453917176745 -0.01651053932459945 182.2847335101004 -0.02086080229994991 186.9749584197998 -0.027935028076171875 C193.29597001076013 -0.03661810138410715 199.6168015357273 -0.030558018505303153 205.93779373168945 -0.01325225830078125 C208.25406788057637 -0.00929444880318897 210.57035725104936 -0.010409326799560858 212.886625289917 -0.017040252685546875 C216.05547899324677 -0.025273666065004363 219.22376057611143 -0.014912032443788803 222.392578125 0 C223.30281106889248 -0.006692165136342965 224.21304401278496 -0.01338433027268593 225.15085977315903 -0.020279288291931152 C236.34534575833737 0.08145699935494122 244.2912972583684 3.4065875792555573 252.44728088378906 10.939544677734375 C260.86989089904654 19.720115618640307 261.3469165163971 30.797371017999865 261.26148986816406 42.357269287109375 C261.2652816404529 43.83381665944955 261.2707887062667 45.310360455709514 261.2778625488281 46.786895751953125 C261.291733805073 50.76901878535645 261.2807015688819 54.7507055807184 261.2641513347626 58.7328040599823 C261.25019267787866 62.92880044486003 261.2567740135053 67.12477422732076 261.2602844238281 71.32078552246094 C261.2629807493579 78.37419561338032 261.2495700656386 85.4274350132423 261.22633361816406 92.48080444335938 C261.19982055667396 100.58377327119945 261.19794931224175 108.68645524075345 261.2097219824791 116.78945249319077 C261.2205893688212 124.63563246382 261.2142371847146 132.48171077233565 261.2001667022705 140.32788276672363 C261.1944745215409 143.64114406488136 261.19443548647223 146.95432928369655 261.19923210144043 150.26759147644043 C261.2524983919635 199.89499768114086 249.84237941660012 239.54289022480344 214.47853088378906 275.7754821777344 C186.78004035543506 303.28539667926333 147.74402047613285 316.67569685222475 109.21290588378906 316.6275329589844 C66.66584696024938 316.0890559649798 29.881740322599057 297.76286524934443 0.3144683837890625 267.9122009277344 C-13.313805675477312 253.28673608364363 -23.72424091178118 235.23772472197288 -30.240219116210938 216.38095092773438 C-30.466932983398436 215.7254626464844 -30.693646850585935 215.06997436523437 -30.927230834960938 214.39462280273438 C-38.378587670353284 192.29052643735918 -38.70974553579384 170.0747202235042 -38.676127195358276 146.98916578292847 C-38.67299838526367 143.66371994985036 -38.67916679268447 140.33831512334382 -38.68516594171524 137.01287519931793 C-38.699107943259264 129.16857142358293 -38.69773143310243 121.32437685300715 -38.68626403808594 113.48007202148438 C-38.67473831843901 105.41814446906187 -38.68895637219893 97.35654787182955 -38.71566051244736 89.29466378688812 C-38.73785568549752 82.33023169811219 -38.74444791217741 75.36590327430548 -38.738584101200104 68.40143835544586 C-38.735229032374406 64.25978666378364 -38.73753489012017 60.11834803104978 -38.75483512878418 55.97672653198242 C-38.770368283956174 52.09070741748138 -38.76627904831332 48.205179697240794 -38.74752998352051 44.31917953491211 C-38.743864488124984 42.90108835168476 -38.746892562244994 41.48296013467794 -38.757415771484375 40.064903259277344 C-38.83908006939777 28.143946091772534 -36.74956606149439 18.173942771193936 -28.240219116210938 9.380950927734375 C-19.720350931837544 2.2917775894161423 -10.920544156073674 -0.08009314521328292 0 0 Z M-18.645370483398438 25.223312377929688 C-21.4920619949078 30.970262622861895 -20.79640802458053 37.648023710011785 -20.757797241210938 43.903167724609375 C-20.763223599560433 45.379126879402804 -20.770349139947626 46.85508061246199 -20.779037475585938 48.331024169921875 C-20.79723370440334 52.329894588291495 -20.79021327207917 56.32835088418631 -20.77752113342285 60.327228307724 C-20.767349479958966 64.53393350446686 -20.776800610411158 68.7406047112965 -20.783065795898438 72.94731140136719 C-20.79034053761808 80.0246205953257 -20.780769988085012 87.10176282168493 -20.761703491210938 94.17904663085938 C-20.740044393979446 102.3115214815316 -20.746906391923716 110.44359340727243 -20.769009113311768 118.57605808973312 C-20.787299681603514 125.59135033167803 -20.78965223540291 132.60652278857856 -20.77925443649292 139.6218312382698 C-20.773079648860772 143.7963977495388 -20.77201256952577 147.9707766589645 -20.785400390625 152.14533042907715 C-20.842350211521364 172.68942488247 -20.690845896842546 192.77517885773318 -12.990219116210938 212.19345092773438 C-12.691398315429694 212.96858032226567 -12.392577514648451 213.74370971679684 -12.084701538085938 214.54232788085938 C-1.7978224773004001 240.5034357256353 16.751673846395818 263.85129208951 40.75978088378906 278.3809509277344 C41.84259338378905 279.0628649902344 42.92540588378907 279.7447790527344 44.04103088378906 280.4473571777344 C58.577549902477756 289.23261580485473 74.08556242577362 294.403109782518 90.75978088378906 297.3809509277344 C91.29023010253906 297.4776306152344 91.29023010253906 297.4776306152344 93.97462463378906 297.9668884277344 C129.8084531606163 301.88679123871856 164.63325941729772 292.61364609540595 193.00978088378906 270.3809509277344 C194.6027405441681 269.0591333372071 196.1861344339573 267.7257033484997 197.75978088378906 266.3809509277344 C198.59122619628909 265.6835681152344 199.42267150878905 264.9861853027344 200.27931213378906 264.2676696777344 C226.45039961990204 241.63430215902224 241.0225265995386 208.05491124470024 243.55173683166504 173.95666122436523 C243.89148994161326 168.1172311558238 243.90721094197454 162.287903952614 243.90504455566406 156.44003295898438 C243.90804620978992 155.0997355991766 243.911451003408 153.75943909231103 243.91522216796875 152.4191436767578 C243.9239551580614 148.82244603660797 243.92639544384895 145.22577225878808 243.92703795433044 141.62906503677368 C243.92775355026203 139.3764347303985 243.9298972053573 137.12381031717467 243.9325351715088 134.8711814880371 C243.94174670668957 126.99813202185237 243.94587454897362 119.1250993563836 243.94508361816406 111.25204467773438 C243.9444810274124 103.93272236199812 243.95507901946405 96.61347330463013 243.97082728147507 89.29416954517365 C243.98391376694713 82.98556649315941 243.98926718742933 76.67698740721386 243.98862820863724 70.36837089061737 C243.98837394297112 66.61073898821735 243.99118689985283 62.85317262365089 244.00180625915527 59.09555435180664 C244.01331087002586 54.91215236571452 244.00873369032445 50.72891516348855 244.00270080566406 46.545501708984375 C244.00832031250002 45.31004104614257 244.01393981933592 44.07458038330077 244.0197296142578 42.80168151855469 C243.98941403195084 34.53651831209302 243.93071052862427 27.551880572569587 237.75978088378906 21.380950927734375 C232.47570381688195 18.00051435200251 228.00098002599435 17.95345466601694 221.93606567382813 17.993270874023438 C220.9517419666052 17.987885336279874 219.96741825938227 17.98249979853631 218.95326656103134 17.97695106267929 C215.65760545596186 17.962652743470727 212.36234493921768 17.969779980572383 209.06666564941406 17.976898193359375 C206.70278093311333 17.97119563253301 204.33889897170917 17.964231817781183 201.9750213623047 17.956100463867188 C195.55565025747262 17.938141724846872 189.13641564197906 17.93934256312218 182.71702694892883 17.945042848587036 C178.70708776409066 17.948104204762217 174.6971604338729 17.94514683077921 170.68722343444824 17.94056510925293 C170.021195375435 17.939816687218837 169.3551673164219 17.939068265184744 168.66895658895373 17.938297163695097 C167.3158489040664 17.93676566039997 165.96274122690863 17.935227312931318 164.60963355749846 17.933682195842266 C151.92545067569608 17.919959759466934 139.24132950163516 17.925393059727895 126.55714803189039 17.936867408454418 C114.95801533973042 17.946799856738636 103.35904216402332 17.933858536328927 91.75993407517672 17.90993321686983 C79.84371295378571 17.88553937412695 67.92756611978302 17.87593501482874 56.011320531368256 17.88258594274521 C49.323733550122085 17.886077504778427 42.636287289506214 17.883515319328865 35.94871711730957 17.866334915161133 C29.660546463764547 17.85088592651698 23.372680764374024 17.85479897357891 17.084522247314453 17.873640060424805 C14.776663426257528 17.877331522449424 12.468782112674546 17.874201339336707 10.160943984985352 17.863754272460938 C7.010436291349009 17.85058140531362 3.8609436445918845 17.862059911248195 0.710479736328125 17.879745483398438 C-0.20275619447232884 17.870140476822854 -1.1159921252727543 17.86053547024727 -2.0569018721580505 17.850639402866364 C-9.248504759895383 17.9337011095717 -13.84850181675813 19.554465599420354 -18.645370483398438 25.223312377929688 Z " fill="#000000" transform="translate(205.24021911621094,199.61904907226563)"/>
<path d="M0 0 C22.53158121727961 18.297369489260632 35.39610420178872 42.7385270655584 38.703125 71.50390625 C39 75.00000000000006 39 75.00000000000006 39 80 C33.06 80 27.120000000000005 80 21 80 C20.82984375000001 78.69546875000003 20.659687500000018 77.3909375 20.484375 76.046875 C17.202733414272302 51.90981141279747 8.835800958550522 30.68428569979926 -10.6875 15.1875 C-29.358192359350483 2.0479700601724744 -51.07830200949837 -4.847824035053861 -73.9599609375 -1.1796875 C-95.36105641820313 2.6723047933194835 -114.88529239882621 13.548566012201888 -127.64453125 31.4140625 C-140.51000872582017 50.429840041199895 -145.93940643854478 72.82573221731712 -141.875 95.5625 C-137.22054677278996 116.12868867836994 -125.69474598929082 135.75241953226384 -107.71875 147.4140625 C-92.5220780336935 156.27878781367878 -78.40377254698473 160.30207097102584 -61 162 C-61 167.94 -61 173.88 -61 180 C-89.81870558597029 179.26105883112893 -114.5269888948327 169.28178675351705 -134.96337890625 148.57568359375 C-156.21277664221353 126.13082044366757 -161.94938545338218 98.54731165602072 -161.1748046875 68.484375 C-159.91018004867152 43.27666152882688 -145.3976376166047 20.309144824856503 -127.34765625 3.53515625 C-91.36136503833063 -27.37817761024459 -37.6065245757768 -28.568523098161734 0 0 Z " fill="#000000" transform="translate(378,270)"/>
<path d="M0 0 C14.308185769187958 10.937716477054039 24.596949503756832 26.106882401061398 27.3203125 44.15234375 C28.66544717360341 64.4110994678984 25.70998349013587 82.72145691127571 11.8828125 98.52734375 C10.37943097476807 100.0860336256585 8.859678422822299 101.62918167899693 7.3203125 103.15234375 C6.729921875000002 103.77625 6.1395312500000045 104.40015625000001 5.53125 105.04296875 C-4.6039627980650835 114.95493897542048 -20.343964704800612 121.2580279810665 -34.3671875 121.33984375 C-36.12031250000001 121.27796875000001 -37.87343750000002 121.21609375000003 -39.6796875 121.15234375 C-39.6796875 115.54234374999999 -39.6796875 109.93234374999997 -39.6796875 104.15234375 C-36.93656249999998 103.61609375 -34.193437500000016 103.07984375000001 -31.3671875 102.52734375 C-23.687097998391096 100.88397569458925 -17.17864679656776 98.71226928923113 -10.6796875 94.15234375 C-9.893359374999989 93.60062499999998 -9.107031249999977 93.04890625000002 -8.296875 92.48046875 C1.3425177242154405 84.83430638570707 6.932669741265329 73.63520498573541 8.98046875 61.65625 C10.194906442481795 49.13497861889476 7.873184615255241 37.132554205583745 0.4453125 26.77734375 C-0.5701331573724246 25.54689301721453 -1.6120215314699635 24.337766994470826 -2.6796875 23.15234375 C-3.226249999999993 22.537460937499986 -3.7728124999999864 21.922578124999973 -4.3359375 21.2890625 C-13.009066770066852 12.083718479269976 -23.750171614292697 7.122064883927806 -36.437744140625 6.728271484375 C-43.898834115229135 6.685944517010057 -50.786107386789524 7.046703562478569 -57.6796875 10.15234375 C-58.12957031249999 10.353437499999984 -58.12957031249999 10.353437499999984 -60.40625 11.37109375 C-72.35682560650315 17.29699900942302 -80.48939209103236 26.517074387877074 -84.8671875 39.02734375 C-86.5406166104583 44.35250683024384 -87.71012899783938 49.65817890442315 -88.6796875 55.15234375 C-94.28968750000001 55.15234375 -99.8996875 55.15234375 -105.6796875 55.15234375 C-106.71898758038364 38.26371744376564 -100.08180652973004 22.433398276141588 -89.15625 9.75390625 C-65.6056922021649 -14.985323234792077 -28.315991974612416 -19.524000297363955 0 0 Z " fill="#000000" transform="translate(355.6796875,294.84765625)"/>
<path d="M0 0 C10.699035641994271 0.4115013708459401 19.023973617534637 2.947386452945125 26.46484375 10.96875 C33.48188046265926 20.253378729218355 35.01397464169207 29.583838445890308 34 41 C31.63114525795811 50.67186058092216 26.198706168658077 58.071242569160404 17.78125 63.40625 C9.28284444702723 67.84571558737383 -0.6130553073739406 68.41553113347919 -9.92578125 66.3515625 C-19.53620899233107 62.854144005901276 -26.19582953083801 55.881394091016546 -31 47 C-32.97445995093608 41.79460558389576 -33 38.81497548035094 -33 33 C-27.060000000000002 33 -21.120000000000005 33 -15 33 C-14.339999999999975 35.639999999999986 -13.680000000000007 38.27999999999997 -13 41 C-10.502384228353037 45.32279652785053 -7.707968566457168 47.05666604985157 -3.08203125 48.55859375 C1.678193407449612 49.56779710139176 5.056149794192265 48.508227033896446 9.25 46.25 C12.955142288594232 43.21851994569562 14.51757361220308 40.7070472183583 15.8125 36.125 C16.121954842804655 30.96741928658912 15.036819101994695 27.382425469326222 11.9375 23.25 C8.101037516671681 20.311432991493177 4.6400345913548335 19.31583070501108 0 18 C0 12.060000000000002 0 6.1200000000000045 0 0 Z " fill="#000000" transform="translate(316,316)"/>
<path d="M0 0 C5.609999999999999 0 11.219999999999999 0 17 0 C17 22.11 17 44.22 17 67 C10.743138148106382 67 9.615708485002699 66.71263508576304 5 63 C1.1733510127825468 58.65623628478019 -0.1263980660100117 56.373537440464176 -0.113525390625 50.63232421875 C-0.11344985961913778 49.51131317138672 -0.11337432861327557 48.390302124023435 -0.1132965087890625 47.235321044921875 C-0.10813522338867188 46.020711975097655 -0.10297393798828125 44.806102905273434 -0.09765625 43.5546875 C-0.09624130249022755 42.31453887939453 -0.09482635498046932 41.074390258789066 -0.0933685302734375 39.796661376953125 C-0.08871096348208596 36.49881866675395 -0.07972439483688731 33.201024535460945 -0.06866455078125 29.9031982421875 C-0.05843731415953357 26.53833613387195 -0.053868094663727106 23.17346691918658 -0.048828125 19.80859375 C-0.037782684874187566 13.205707610600626 -0.02050970617602843 6.602863252916201 0 0 Z " fill="#000000" transform="translate(68,51)"/>
</svg>
