<?xml version="1.0" encoding="UTF-8"?>
<!-- Generator: visioncortex VTracer 0.6.12 -->
<svg version="1.1" xmlns="http://www.w3.org/2000/svg" width="600" height="600">
<path d="M0 0 C0.8550764465331895 -0.009793853759767046 1.710152893066379 -0.019587707519534092 2.5911407470703125 -0.0296783447265625 C31.2851574922517 -0.2894851144425701 58.00412415771973 2.231344271214553 85.69921875 10.23828125 C86.58625488281251 10.494482421874999 87.47329101562502 10.750683593749997 88.38720703125 11.0146484375 C137.70580714236587 25.618744402039972 185.2686287939287 57.3012746720546 216.69921875 98.23828125 C217.4945703125 99.23988281250001 218.289921875 100.241484375 219.109375 101.2734375 C243.31680651714498 131.89979137122467 260.00009344469515 167.36340967945813 269.01171875 205.30078125 C269.2420581054688 206.2548486328125 269.4723974609375 207.208916015625 269.709716796875 208.19189453125 C273.9278558039863 226.93745907294442 275.2564724696275 245.76210562806745 275.13671875 264.92578125 C275.1351980590821 265.4467236328125 275.1351980590821 265.4467236328125 275.12750244140625 268.0830078125 C275.05582747087965 284.7549245124116 274.198537469706 300.88432233545524 270.69921875 317.23828125 C270.4795947265625 318.2719482421875 270.25997070312496 319.305615234375 270.03369140625 320.37060546875 C268.49231266061497 327.39680539842794 266.6968661641989 334.3286434890375 264.69921875 341.23828125 C264.443017578125 342.1253173828125 264.18681640625005 343.012353515625 263.9228515625 343.92626953125 C249.31875559796003 393.24486964236587 217.63622532794545 440.8076912939287 176.69921875 472.23828125 C176.19841796875 472.63595703125 176.19841796875 472.63595703125 173.6640625 474.6484375 C143.0377086287753 498.8558690171451 107.57409032054193 515.5391559446952 69.63671875 524.55078125 C68.68265136718747 524.7811206054688 67.728583984375 525.0114599609375 66.74560546875 525.248779296875 C48.000040927055636 529.4669183039863 29.175394371932555 530.7955349696275 10.01171875 530.67578125 C9.490776367187493 530.6742605590821 9.490776367187493 530.6742605590821 6.8544921875 530.6665649414063 C-9.817424512411606 530.5948899708796 -25.946822335455238 529.7375999697061 -42.30078125 526.23828125 C-42.81761474609374 526.1284692382812 -42.81761474609374 526.1284692382812 -45.43310546875 525.57275390625 C-52.45930539842803 524.031375160615 -59.39114348903746 522.2359286641989 -66.30078125 520.23828125 C-67.18781738281251 519.982080078125 -68.074853515625 519.72587890625 -68.98876953125 519.4619140625 C-118.30736964236576 504.85781809796003 -165.8701912939287 473.1752878279454 -197.30078125 432.23828125 C-197.69845703125 431.73748046875 -197.69845703125 431.73748046875 -199.7109375 429.203125 C-223.91836901714507 398.57677112877525 -240.6016559446951 363.1131528205419 -249.61328125 325.17578125 C-249.84362060546874 324.2217138671875 -250.0739599609375 323.267646484375 -250.311279296875 322.28466796875 C-254.52941830398623 303.53910342705564 -255.85803496962748 284.7144568719325 -255.73828125 265.55078125 C-255.73523986816406 264.508896484375 -255.73219848632812 263.46701171875 -255.72906494140625 262.3935546875 C-255.65738997087965 245.7216379875884 -254.80009996970608 229.5922401645447 -251.30078125 213.23828125 C-251.19096923828124 212.72144775390626 -251.19096923828124 212.72144775390626 -250.63525390625 210.10595703125 C-245.9125089474681 188.5778605843184 -238.95209262267463 168.04720229686657 -229.30078125 148.23828125 C-228.9101953125 147.436484375 -228.51960937500002 146.6346875 -228.1171875 145.80859375 C-217.30971374266773 123.91017151383161 -203.03046466804068 104.81269464789912 -187.30078125 86.23828125 C-183.926133632108 88.13180125590843 -181.27161412519735 90.05560383125226 -178.61328125 92.86328125 C-175.4939402037223 96.14170177313883 -175.4939402037223 96.14170177313883 -173.30078125 97.23828125 C-174.70250256903955 100.3834370454569 -176.37506172688126 102.55982013103701 -178.73828125 105.05078125 C-220.83514321908945 151.7661838308061 -240.29637261249974 217.1644184948966 -237.30078125 279.23828125 C-233.62404642864885 335.70185836670646 -211.66257963921902 389.08442189065016 -173.4375 430.87890625 C-171.58906145851722 432.91996087350196 -169.81743239970626 435.0020240735609 -168.05078125 437.11328125 C-127.8869854900764 482.8706650038855 -63.86875131919686 508.3593978888214 -4.30078125 512.23828125 C60.284096671157215 515.3550504320953 124.56138504712419 494.0466181932802 172.82421875 450.67578125 C173.65437500000002 449.9165234375 174.48453124999997 449.157265625 175.33984375 448.375 C177.38089837350196 446.5265614585173 179.4629615735609 444.75493239970626 181.57421875 442.98828125 C227.33160250388562 402.82448549007637 252.82033538882138 338.8062513191969 256.69921875 279.23828125 C259.81598793209525 214.65340332884278 238.5075556932802 150.37611495287587 195.13671875 102.11328125 C194.37746093750002 101.28312499999998 193.61820312499998 100.45296875 192.8359375 99.59765625 C190.98749895851722 97.55660162649804 189.21586989970626 95.4745384264391 187.44921875 93.36328125 C147.28159373903821 47.60153494755724 83.27053829715953 22.129741050396106 23.69921875 18.23828125 C16.6944888851653 17.9784947963969 9.704403008407724 18.03555887596248 2.69921875 18.23828125 C-0.9740731536880958 28.225437180141626 -2.2874831057150686 37.850798697266896 2.30859375 47.8359375 C5.8807014720700295 54.00685392998052 10.48683880364905 59.1658037405808 15.69921875 63.98828125 C25.724966040556694 73.77673274669735 30.65842984927832 86.79548017849133 31.045654296875 100.578857421875 C31.168087204113192 111.97767501628039 29.200958907246104 120.76778749331419 24.69921875 131.23828125 C25.849223632812482 131.25286376953125 26.99922851562502 131.2674462890625 28.18408203125 131.282470703125 C32.46710680336105 131.34061887237166 36.74961491113436 131.41785048906755 41.0322265625 131.500732421875 C42.88272694154762 131.5339042107614 44.7333266123984 131.56196012410416 46.583984375 131.584716796875 C49.25042878063579 131.61840574501073 51.91596964985132 131.67072784721765 54.58203125 131.7265625 C55.4041409301758 131.7329524230957 56.22625061035154 131.7393423461914 57.073272705078125 131.7459259033203 C63.405564019579685 131.9065479248033 67.51572428246214 133.40216090229774 72.44921875 137.55078125 C75.89269992525993 141.66382820933825 76.69921875 144.92398358464135 76.69921875 150.23828125 C32.47921874999997 150.23828125 -11.740781249999998 150.23828125 -57.30078125 150.23828125 C-56.2931515156628 143.18487310963954 -55.50510441043525 140.0081648880951 -50.30078125 135.48828125 C-46.63055025651951 132.73560800488963 -44.28738679555724 132.11164951699217 -39.832763671875 132.159912109375 C-38.931401824951166 132.16578842163085 -38.03003997802733 132.17166473388673 -37.10136413574219 132.17771911621094 C-36.12947647094725 132.18610305786132 -35.15758880615235 132.19448699951172 -34.15625 132.203125 C-32.09700021978563 132.19941191921558 -30.037753460290276 132.19348299437593 -27.978515625 132.185546875 C-24.73219866950683 132.17498854892133 -21.48807798625785 132.1757836499705 -18.241943359375 132.214111328125 C-15.107998745775603 132.24725583860894 -11.977686461252915 132.22963496741136 -8.84375 132.203125 C-8.360842514038097 132.2144017791748 -8.360842514038097 132.2144017791748 -5.9170379638671875 132.27146911621094 C0.6841328912653921 132.15414043248032 0.6841328912653921 132.15414043248032 3.6357574462890625 129.4910430908203 C6.337032057666306 125.95419263902323 8.463204605140163 122.23245160594303 10.01171875 118.05078125 C10.317226562500025 117.25285156249998 10.622734374999993 116.454921875 10.9375 115.6328125 C14.467351839936384 104.53640645958453 12.663890217440951 94.10567619320312 7.44921875 83.7578125 C4.7249465805998625 79.38504609172986 1.4586015991753243 75.93674767628933 -2.23828125 72.36328125 C-11.24833124397935 63.59711230848929 -18.2355651738402 52.02087416391757 -19.30078125 39.23828125 C-19.332363281249968 38.8683203125 -19.332363281249968 38.8683203125 -19.4921875 36.99609375 C-20.078550367932053 24.24743010528333 -16.244110994178584 11.856234735713102 -9.30078125 1.23828125 C-7.2328620549650395 -0.8296379450349889 -2.847680820217249 0.02616890228808444 0 0 Z " fill="#000000" transform="translate(290.30078125,34.76171875)"/>
<path d="M0 0 C0.8574745953083038 -0.005385537743563873 1.7149491906166077 -0.010771075487127746 2.5984078645706177 -0.01631981134414673 C5.447031371315518 -0.030529064926042793 8.29518555265517 -0.023513144801853514 11.143829345703125 -0.0163726806640625 C13.196252145426001 -0.02207995013864661 15.248671772490525 -0.029045589870321464 17.30108642578125 -0.03717041015625 C22.859012010043415 -0.05507806515180391 28.41677950254069 -0.05393781918968443 33.97472524642944 -0.04822802543640137 C38.62171532641531 -0.04513251645056471 43.268675201512224 -0.05123271337330948 47.915660977363586 -0.05726677179336548 C58.8823677737829 -0.07130273730993508 69.84899665604996 -0.069758599453138 80.81570434570313 -0.0583648681640625 C92.11345535201349 -0.04688626945775809 103.41096889950609 -0.06095722851026153 114.70868861675262 -0.08776134252548218 C124.42362824396889 -0.10994369138182947 134.13849347141047 -0.11654994245739658 143.85345661640167 -0.11068493127822876 C149.64910578789363 -0.10732003688002578 155.44460278493455 -0.10969939817587715 161.24023056030273 -0.1269359588623047 C166.69209865649464 -0.14244317993922095 172.14361599765942 -0.13840747185935243 177.5954704284668 -0.11963081359863281 C179.59042800594239 -0.11595531673890491 181.58541178959467 -0.11902291058237324 183.5803451538086 -0.1295166015625 C197.37602813768626 -0.19651522564805646 209.4540334787414 0.37846349224722076 220.01931762695313 10.387680053710938 C229.1730826581399 20.04074135932609 229.45954272663982 31.011745743083708 229.35989379882813 43.75144958496094 C229.35904607085195 45.279998608274525 229.3595255097827 46.80854885026156 229.36122131347656 48.33709716796875 C229.3620770106137 52.458383307997394 229.34452080265334 56.579403952971575 229.32349944114685 60.70062875747681 C229.30466113507526 65.01808203512633 229.30297658844097 69.33554235831366 229.29942321777344 73.65303039550781 C229.29012367036898 81.81613610224792 229.26553838585698 89.97912032169933 229.23537474870682 98.14217269420624 C229.20176542232372 107.44088039433535 229.1853283488781 116.73959409809078 229.17028844356537 126.03834748268127 C229.138986797597 145.15487440297795 229.08400106959465 164.27123492842742 229.01931762695313 183.38768005371094 C207.23931762695315 183.38768005371094 185.45931762695312 183.38768005371094 163.01931762695313 183.38768005371094 C163.01931762695313 205.49768005371095 163.01931762695313 227.60768005371096 163.01931762695313 250.38768005371094 C157.07931762695313 250.38768005371094 151.13931762695313 250.38768005371094 145.01931762695313 250.38768005371094 C145.01931762695313 228.27768005371092 145.01931762695313 206.1676800537109 145.01931762695313 183.38768005371094 C112.6793176269531 183.38768005371094 80.33931762695312 183.38768005371094 47.019317626953125 183.38768005371094 C47.019317626953125 205.49768005371095 47.019317626953125 227.60768005371096 47.019317626953125 250.38768005371094 C41.07931762695313 250.38768005371094 35.13931762695313 250.38768005371094 29.019317626953125 250.38768005371094 C29.019317626953125 228.27768005371092 29.019317626953125 206.1676800537109 29.019317626953125 183.38768005371094 C7.239317626953124 183.38768005371094 -14.540682373046877 183.38768005371094 -36.980682373046875 183.38768005371094 C-37.0710775837216 163.22050855217907 -37.14471955002011 143.0535018198401 -37.187931060791016 122.88617897033691 C-37.20853078485598 113.52153378168458 -37.236601729808086 104.15702367854004 -37.282440185546875 94.79246520996094 C-37.32238739903323 86.62754452525934 -37.348134003624324 78.46272170648359 -37.35703635215759 70.29770600795746 C-37.36223778592341 65.97686224338372 -37.374408670161785 61.65629838597056 -37.403602600097656 57.33554458618164 C-37.43089654408004 53.26272022582677 -37.4390993784059 49.19028918654115 -37.43311309814453 45.11738204956055 C-37.43420712241149 43.628332595735856 -37.44207759193793 42.13926901499542 -37.45750427246094 40.650299072265625 C-37.57665438168732 28.549197818099913 -35.66438445069687 18.36083886728261 -26.980682373046875 9.387680053710938 C-18.946232974292627 2.7024117804078855 -10.357423674647464 -0.07946152132160478 0 0 Z M-17.389801025390625 25.302001953125 C-20.0832947614293 30.734314740434797 -19.502440829174162 36.84352972327957 -19.434783935546875 42.75852966308594 C-19.43355717513157 44.13106776784386 -19.434094986817 45.50360839375293 -19.43624496459961 46.876145362854004 C-19.437144447997838 50.53693818110722 -19.41403753419206 54.19720324910389 -19.38580322265625 57.857872009277344 C-19.362947230515573 61.29852885984985 -19.361946671608735 64.73906026990716 -19.359100341796875 68.17979431152344 C-19.33814850081859 78.22832555800261 -19.28230351373952 88.27675955848173 -19.230682373046875 98.32518005371094 C-19.148182373046865 120.78580505371093 -19.065682373046883 143.24643005371092 -18.980682373046875 166.38768005371094 C56.9193176269531 166.38768005371094 132.81931762695314 166.38768005371094 211.01931762695313 166.38768005371094 C211.1018176269531 143.92705505371094 211.1843176269531 121.46643005371095 211.26931762695313 98.32518005371094 C211.30573364257816 91.23654479980468 211.34214965820308 84.14790954589841 211.37966918945313 76.84446716308594 C211.39773559570313 68.17979431153117 211.39773559570313 68.17979431153117 211.40109252929688 64.121826171875 C211.40481506081892 61.291172554177024 211.4197880102148 58.46081983953684 211.44161987304688 55.6302490234375 C211.46912909799573 52.015507462654625 211.47726910583208 48.4012012014648 211.4716067314148 44.786364674568176 C211.47334693270375 42.83937278497805 211.49476400775904 40.89242863145884 211.51703262329102 38.945563316345215 C211.48522391642064 32.249167384536406 211.36587374168937 27.64572895050742 207.01931762695313 22.387680053710938 C201.62762750423212 18.65646116178999 197.80374695962234 17.8060596015859 191.32815551757813 17.879745483398438 C190.4777346134186 17.87350552082063 189.62731370925906 17.867265558242792 188.7511224746704 17.860836505889893 C185.91445375608777 17.844939652786593 183.07864827783823 17.85749770621075 180.24197387695313 17.870101928710938 C178.20305888294757 17.86467934414037 176.16414780869206 17.857555919253713 174.125244140625 17.848861694335938 C168.59634144930578 17.830641772582084 163.06773765433707 17.837690504026284 157.5388298034668 17.850378036499023 C151.74984691067266 17.860512517466333 145.960889426863 17.85111110347907 140.17190551757813 17.844833374023438 C130.45074880368907 17.83755829702369 120.72971368791582 17.847141080763322 111.00857543945313 17.866195678710938 C99.77326112116998 17.887964070635746 88.5382371610657 17.880912607634542 77.30292987823486 17.858890056610107 C67.65262779439229 17.84073215438309 58.002413067790144 17.838179674413283 48.35209941864014 17.848644733428955 C42.59009225253624 17.854877477855496 36.82822151966607 17.855721199251093 31.06622314453125 17.842498779296875 C25.648849974730155 17.830935326577276 20.23185078939582 17.8389753960264 14.814517974853516 17.862075805664063 C12.82756292389837 17.867360200468852 10.840576344593131 17.865853746941042 8.853633880615234 17.857025146484375 C6.138825761716475 17.8460755029038 3.425211993871528 17.85982613803307 0.710479736328125 17.879745483398438 C-0.07367278099059149 17.87082259655 -0.857825298309308 17.861899709701532 -1.6657400131225586 17.85270643234253 C-8.439022298990665 17.94894075107561 -12.96247406195522 19.94624418965674 -17.389801025390625 25.302001953125 Z " fill="#000000" transform="translate(203.98068237304688,199.61231994628906)"/>
</svg>
