<?xml version="1.0" encoding="UTF-8"?>
<!-- Generator: visioncortex VTracer 0.6.12 -->
<svg version="1.1" xmlns="http://www.w3.org/2000/svg" width="600" height="600">
<path d="M0 0 C1.3453332146141292 -0.005332457759521958 2.69066046232075 -0.012402159427573167 4.035976469516754 -0.02104705572128296 C7.713378585832004 -0.03960897815419884 11.39037621492011 -0.03339196504276032 15.067794680595398 -0.02289402484893799 C19.041315293825562 -0.015883571346002157 23.014754349157613 -0.03191390327938848 26.988250732421875 -0.044891357421875 C34.76492035952069 -0.06650576701078847 42.54144350694176 -0.06641105184603191 50.318133287131786 -0.0582658126950264 C56.640311252323784 -0.05195962283934108 62.96244657788287 -0.05310852152049961 69.28462409973145 -0.05953788757324219 C70.18528522569687 -0.06043954264372786 71.08594635166227 -0.06134119771420643 72.01390023902059 -0.06227017566561699 C73.84373113166669 -0.0641214241203798 75.67356201290207 -0.06598398508882042 77.50339288264513 -0.06785773485898972 C94.65283717127306 -0.08442729077059141 111.80219913252813 -0.0757241863911986 128.95163846760988 -0.05887215584516525 C144.63217592561358 -0.044176018272438 160.31252175357974 -0.0588038697129889 175.99303453415632 -0.08764231950044632 C192.10510546267443 -0.11705314855078086 208.2170879999776 -0.12800367657819578 224.32918459177017 -0.11846011877059937 C226.15249636212894 -0.11743759588860314 227.97580814835953 -0.1164429850808304 229.79911994934082 -0.11547660827636719 C230.69615788590164 -0.11500021833926155 231.59319582246246 -0.11452382840216302 232.51741672679782 -0.11403300240635872 C238.82921060320774 -0.11187109716250632 245.14092057315327 -0.12166104044047188 251.45269584655762 -0.1362476348876953 C259.1487941139005 -0.15378575216106327 266.84464811470906 -0.15363244049722624 274.5407368466258 -0.1308959797024727 C278.46512923552655 -0.11976712594535144 282.389091506889 -0.11656006809725739 286.3134651184082 -0.13519668579101563 C289.9105195828005 -0.1520586923452072 293.50677070499876 -0.14557455800601105 297.1037736609578 -0.12097989767789841 C299.01168927248074 -0.11382137522572577 300.91964909871626 -0.1310803146200783 302.8274902701378 -0.14939123392105103 C312.52120352888517 -0.044677142088787036 319.6081398251903 2.29259151478756 326.54627990722656 9.202163696289063 C334.6359804925463 18.166426507048783 333.03180458508484 31.848148615811382 332.98973083496094 43.02442932128906 C332.99318979862215 45.022338922375894 332.9979559648067 47.02024661383629 333.00391256809235 49.018150329589844 C333.01641933678695 54.4946645803239 333.010253569356 59.97102170223931 333.000953912735 65.44753646850586 C332.9941624878553 71.35900173811493 333.00464512986474 77.27044010859969 333.0128936767578 83.18190002441406 C333.02546161545166 94.08840942215335 333.0243741183505 104.9948649528512 333.0161592718214 115.90137720108032 C333.0086072039824 125.97763755868093 333.0066450173723 136.05387960429593 333.01022720336914 146.13014221191406 C333.0103417810099 146.46456881076097 333.0103417810099 146.46456881076097 333.01092161331326 148.15697008371353 C333.0118556563512 150.8721870378785 333.0128108598378 153.58740398321507 333.01380090462044 156.30262091755867 C333.02297416786564 181.76401033365394 333.0146634480383 207.22536793402455 332.9985102135688 232.68675243854523 C332.98427381097207 255.29867740133813 332.98554771097446 277.9105516760594 332.99989318847656 300.52247619628906 C333.01596339820645 325.9378359727008 333.0223235570374 351.35316764733864 333.01305639743805 376.7685317993164 C333.012094271449 379.47874958673793 333.01115574901263 382.18896738154945 333.01022720336914 384.89918518066406 C333.0101085873274 385.2328379800916 333.0101085873274 385.2328379800916 333.00950831826776 386.9213233590126 C333.00609850773276 396.99028632047765 333.01008186547637 407.0592289434104 333.0176658630371 417.12818908691406 C333.02608037404997 428.57913592659247 333.02380168312703 440.0300210723579 333.0078236311674 451.48096084594727 C332.9999403338008 457.32317245999997 332.99685044338224 463.165281216339 333.0067710876465 469.0074920654297 C333.0157170820956 474.35664416914256 333.0107864823557 479.70559816341574 332.99483843147755 485.05473232269287 C332.99149026046825 486.98864769755266 332.9931855006581 488.92257984345474 333.00046579539776 490.856484413147 C333.0831508784251 514.6475513202906 333.0831508784251 514.6475513202906 325.98377990722656 522.3896636962891 C325.37276428222657 523.088335571289 324.7617486572266 523.7870074462891 324.13221740722656 524.5068511962891 C316.4311007497147 530.6343650692938 308.7917751455763 531.093191799771 299.2175598144531 531.0293273925781 C297.872226599839 531.0346598503377 296.5268993521324 531.0417295520057 295.18158334493637 531.0503744482994 C291.5041812286209 531.0689363707323 287.82718359953316 531.0627193576208 284.1497651338577 531.0522214174271 C280.1762445206276 531.0452109639241 276.20280546529546 531.0612412958575 272.22930908203125 531.07421875 C264.4526394549326 531.0958331595889 256.6761163075113 531.0957384444241 248.89942652732134 531.0875932052732 C242.57724856212945 531.0812870154175 236.25511323657014 531.0824359140986 229.93293571472168 531.0888652801514 C229.03227458875625 531.0897669352219 228.13161346279082 531.0906685902924 227.20365957543254 531.0915975682437 C225.37382868278644 531.0934488166985 223.5439978015511 531.0953113776669 221.714166931808 531.0971851274371 C204.56472264318006 531.1137546833487 187.4153606819251 531.1050515789693 170.26592134684324 531.0881995484233 C154.5853838888396 531.0735034108505 138.90503806087338 531.0881312622911 123.2245252802968 531.1169697120786 C107.1124543517787 531.1463805411289 91.00047181447556 531.1573310691563 74.88837522268295 531.1477875113487 C73.06506345232418 531.1467649884668 71.24175166609359 531.145770377659 69.4184398651123 531.1448040008545 C68.52140192855148 531.1443276109173 67.62436399199069 531.1438512209803 66.7001430876553 531.1433603949845 C60.388349211245526 531.1411984897406 54.07663924129986 531.1509884330186 47.76486396789551 531.1655750274658 C40.06876570055263 531.1831131447392 32.37291169974401 531.1829598330753 24.67682296782732 531.1602233722806 C20.75243057892675 531.1490945185235 16.828468307564037 531.1458874606753 12.904094696044922 531.1645240783691 C9.307040231652536 531.1813860849234 5.710789109454424 531.1749019505842 2.1137861534953117 531.150307290256 C0.20587054197238785 531.1431487678038 -1.7020892842631383 531.1604077071981 -3.609930455684662 531.1787186264992 C-13.303643714432155 531.0740045346669 -20.390580010737153 528.7367358777906 -27.328720092773438 521.8271636962891 C-35.41842067809306 512.8629008855295 -33.81424477063173 499.1811787767667 -33.77217102050781 488.00489807128906 C-33.77562998416904 486.00698847020226 -33.78039615035358 484.0090807787418 -33.78635275363922 482.0111770629883 C-33.798859522333856 476.5346628122542 -33.79269375490286 471.0583056903387 -33.78339409828186 465.58179092407227 C-33.77660267340215 459.67032565446294 -33.78708531541163 453.75888728397877 -33.79533386230469 447.84742736816406 C-33.80790180099852 436.9409179704248 -33.80681430389738 426.03446243972684 -33.798599457368255 415.1279501914978 C-33.79104738952931 405.0516898338971 -33.78908520291915 394.9754477882823 -33.792667388916016 384.89918518066406 C-33.792896544197575 384.23033198297026 -33.793125699479134 383.5614787852764 -33.79336179886013 382.8723573088646 C-33.79429584189806 380.1571403546995 -33.79525104538469 377.44192340936314 -33.796241090167314 374.72670647501945 C-33.805414353412516 349.2653170589242 -33.79710363358517 323.8039594585536 -33.78095039911568 298.3425749540329 C-33.76671399651897 275.73064999123994 -33.76798789652136 253.11877571651877 -33.78233337402344 230.50685119628906 C-33.79840358375334 205.09149141987731 -33.80476374258424 179.6761597452395 -33.795496582984924 154.26079559326172 C-33.79453445699585 151.55057780584013 -33.79359593455949 148.84036001102874 -33.792667388916016 146.13014221191406 C-33.792430156832566 145.46283661305904 -33.7921929247491 144.79553101420402 -33.79194850381464 144.10800403356552 C-33.78853869327965 134.03904107210045 -33.79252205102324 123.9700984491677 -33.800106048583984 113.90113830566406 C-33.80852055959687 102.45019146598563 -33.80624186867391 90.9993063202203 -33.79026381671429 79.54836654663086 C-33.78238051934768 73.7061549325781 -33.77929062892912 67.86404617623916 -33.78921127319336 62.02183532714844 C-33.798157267642466 56.67268322343543 -33.79322666790256 51.32372922916245 -33.77727861702442 45.974595069885254 C-33.77393044601513 44.040679695025474 -33.775625686205004 42.10674754912341 -33.78290598094463 40.17284297943115 C-33.86559106397196 16.381776072287465 -33.86559106397196 16.381776072287465 -26.766220092773438 8.639663696289063 C-26.155204467773444 7.94099182128906 -25.544188842773437 7.242319946289065 -24.914657592773438 6.5224761962890625 C-17.213540935261534 0.39496232328423986 -9.574215331123185 -0.06386440719286668 0 0 Z M-13.391220092773438 20.514663696289063 C-15.968864724384758 24.217845163309725 -15.670735147524056 28.18427542002648 -15.645695686340332 32.520461082458496 C-15.64890216439963 33.337374593317506 -15.652108642458927 34.154288104176516 -15.655412286520004 34.99595656991005 C-15.663756044184822 37.750914791106496 -15.657772751559037 40.505658083936 -15.65191650390625 43.2606201171875 C-15.654935190454353 45.24866411420726 -15.658823242792323 47.23670695080405 -15.66350907087326 49.224747717380524 C-15.673834235105318 54.70163570143117 -15.671595797037583 60.178458557777944 -15.667328476905823 65.65535199642181 C-15.664869431216857 71.55659854480044 -15.673865144226397 77.4578290753507 -15.681365966796875 83.35906982421875 C-15.694137772355845 94.92537483188147 -15.695909443461403 106.49165808034945 -15.69356570392847 118.05796878784895 C-15.691734436514281 127.45571753679741 -15.693489149137974 136.85345945869287 -15.697790145874023 146.25120735168457 C-15.698392540707687 147.60043820313015 -15.698993739391426 148.9496690551103 -15.699593748897314 150.29889990761876 C-15.700500982316555 152.33195434775044 -15.701409647170635 154.36500878711198 -15.702326100086793 156.3980632231105 C-15.710758056646853 175.30508139559112 -15.715089633870008 194.2120969945605 -15.710919380187988 213.1191167831421 C-15.71076300417539 213.83216527224053 -15.710606628162793 214.54521376133897 -15.710445513483137 215.27986978041008 C-15.709639706739722 218.89404342129822 -15.708793935980992 222.50821705206454 -15.707932211458683 226.1223906800151 C-15.707761123711236 226.8402022529673 -15.70759003596379 227.5580138259195 -15.707413763739169 228.2975772647187 C-15.707067109270753 229.7491670662058 -15.706718579422812 231.20075686724635 -15.706368177197874 232.65234666783363 C-15.701010017285881 255.24310514785492 -15.708943090019943 277.83382460494306 -15.727401733398438 300.42457580566406 C-15.748106473537945 325.794061678018 -15.75884739738811 351.1635233737241 -15.754826247692108 376.53301817178726 C-15.754430888207708 379.2367802030117 -15.754069343615583 381.9405422368479 -15.753728866577148 384.6443042755127 C-15.753638134864161 385.3100596906757 -15.753547403151174 385.9758151058387 -15.753453921992332 386.6617449275218 C-15.752286783503678 396.7224533205334 -15.758945061193657 406.7831373427795 -15.769540786743164 416.84383964538574 C-15.781424694518847 428.2822616522007 -15.78289316026445 439.720626214277 -15.770750619471073 451.1590489670634 C-15.76484096125381 456.99857692556685 -15.76381989307336 462.83799965648205 -15.775753021240234 468.6775207519531 C-15.78654109633942 474.0186278509659 -15.783593422219752 479.3595409672399 -15.769491337239742 484.70063871890306 C-15.76682478611474 486.6373381243543 -15.769271705415775 488.5740523909767 -15.777227200567722 490.51073729246855 C-15.787262810229805 493.1350704624024 -15.778971969638889 495.7587200909436 -15.765950202941895 498.38302516937256 C-15.773259548842901 499.14204121381044 -15.780568894743908 499.90105725824833 -15.788099735975266 500.6830737888813 C-15.74213565761579 505.1254236554996 -15.226508093366732 508.03862312664614 -12.391220092773438 511.51466369628906 C-9.313618873267842 513.6726090275988 -6.678702315257425 513.7657828459335 -2.9779062271118164 513.769139289856 C-2.425089376270762 513.7720553866029 -2.425089376270762 513.7720553866029 0.37249892950057983 513.7868126034737 C1.5869766265153942 513.7830332797766 2.8014543235302085 513.7792539560794 4.052734375 513.7753601074219 C5.343026791214925 513.7791856545209 6.633319207429878 513.7830112016202 7.96271139383316 513.7869526743889 C11.546948711578011 513.7972601310837 15.131086310478395 513.7950438998942 18.71533191204071 513.7907720804214 C22.579753408475653 513.7883098350833 26.444150582321186 513.7973127535668 30.308563232421875 513.8048095703125 C37.880336032483115 513.8175724685993 45.4520733972758 513.8193482933598 53.02385514229536 513.8170093074441 C59.176944259998606 513.8152278069176 65.3300226004381 513.8169721737887 71.48311042785645 513.8212337493896 C72.35813900548965 513.8218289383874 73.23316758312285 513.822424127385 74.13471217826009 513.8230373524129 C75.91220938826581 513.8242490761072 77.68970659663 513.8254632101753 79.46720380336046 513.8266797289252 C96.1443276854801 513.8375613418038 112.82143135793478 513.8353898027823 129.49855638295412 513.8292948827147 C144.7624186934754 513.8241248434874 160.02621720216786 513.8353823550545 175.29006689041853 513.8543931022286 C190.95558562731446 513.8737548553552 206.62107415545955 513.8820304484177 222.28660494089127 513.8782698512077 C231.08458432934322 513.8763553170072 239.8825094027079 513.8788698761894 248.68047904968262 513.8929843902588 C256.1700081737957 513.9048779788991 263.6594495497924 513.9063258560147 271.14897983521223 513.8941942229867 C274.9713620782805 513.8882913376927 278.7935836601786 513.8872448036556 282.6159553527832 513.8991966247559 C286.75671248127253 513.9119936983077 290.8970846295052 513.9016246086087 295.037841796875 513.8888854980469 C295.64396528452636 513.8925726404786 295.64396528452636 513.8925726404786 298.71131747961044 513.911231815815 C299.8195589286089 513.904025272727 300.92780037760735 513.8968187296391 302.06962490081787 513.8893938064575 C303.0254910033941 513.8894488221407 303.9813571059704 513.8895038378239 304.96618884801865 513.889560520649 C308.8395366709429 513.3400597594941 311.50470339844264 511.95129476887075 313.90537518262863 508.82752603292465 C314.945562804016 505.4072891644324 314.8837000444098 502.04933134863256 314.86325550079346 498.50886631011963 C314.8664619788527 497.69195279926066 314.86966845691205 496.8750392884016 314.87297210097313 496.0333708226681 C314.88131585863795 493.2784126014717 314.87533256601216 490.52366930864207 314.8694763183594 487.7687072753906 C314.8724950049075 485.78066327837087 314.87638305724545 483.79262044177403 314.8810688853264 481.8045796751976 C314.89139404955847 476.327691691147 314.8891556114907 470.8508688348002 314.88488829135895 465.3739753961563 C314.88242924567 459.4727288477779 314.8914249586795 453.5714983172274 314.89892578125 447.6702575683594 C314.91169758680894 436.1039525606968 314.9134692579145 424.5376693122286 314.9111255183816 412.9713586047292 C314.9092942509674 403.5736098557808 314.9110489635911 394.1758679338853 314.91534996032715 384.77812004089355 C314.9159523551608 383.428889189448 314.91655355384455 382.07965833746783 314.91715356335044 380.73042748495936 C314.9180607967697 378.69737304482766 314.91896946162376 376.66431860546624 314.9198859145399 374.6312641694676 C314.9283178711 355.72424599698707 314.93264944832316 336.81723039801756 314.9284791946411 317.91021060943604 C314.9283228186285 317.1971621203376 314.9281664426159 316.48411363123915 314.92800532793626 315.74945761216804 C314.92719952119285 312.13528397127976 314.92635375043415 308.5211103405136 314.9254920259118 304.90693671256304 C314.92532093816436 304.18912513961084 314.9251498504169 303.47131356665864 314.9249735781923 302.7317501278594 C314.9246269237239 301.28016032637225 314.92427839387597 299.82857052533177 314.923927991651 298.3769807247445 C314.91856983173903 275.7862222447232 314.92650290447307 253.19550278763512 314.94496154785156 230.60475158691406 C314.9656662879911 205.23526571456017 314.97640721184126 179.86580401885396 314.97238606214523 154.49630922079086 C314.97199070266083 151.79254718956628 314.9716291580687 149.0887851557302 314.9712886810303 146.38502311706543 C314.97124331517375 146.05214540948393 314.97124331517375 146.05214540948393 314.97101373644546 144.36758246505633 C314.9698465979568 134.30687407204482 314.9765048756468 124.24619004979854 314.9871006011963 114.18548774719238 C314.99898450897194 102.74706574037731 315.0004529747176 91.30870117830119 314.9883104339242 79.8702784255147 C314.98240077570694 74.03075046701107 314.9813797075265 68.1913277360963 314.99331283569336 62.351806640625 C315.00410091079254 57.010699541612325 315.0011532366729 51.669786425338174 314.98705115169287 46.32868867367506 C314.98438460056786 44.39198926822387 314.9868315198689 42.45527500160151 314.99478701502085 40.51859010010958 C315.0048226246829 37.89425693017549 314.996531784092 35.27060730163484 314.983510017395 32.646302223205566 C314.99081936329605 31.88728617876768 314.99812870919703 31.128270134329796 315.0056595504284 30.346253603696823 C314.9595724592441 25.89201475712928 314.32841581760545 23.072325062814258 311.60877990722656 19.514663696289063 C308.180931492083 16.940419122141634 304.38575295396424 17.244529328042447 300.26991271972656 17.287612915039063 C299.9038617706299 17.28746688842773 299.9038617706299 17.28746688842773 298.0514221191406 17.286727905273438 C295.63812801483294 17.28811822456312 293.22514489916307 17.303665214159956 290.81190490722656 17.319351196289063 C289.13610502803897 17.323082389230194 287.4603029642265 17.32592886017597 285.7845001220703 17.327926635742188 C281.3785955154012 17.3355547293378 276.97282323238085 17.355196136239996 272.5669708251953 17.377334594726563 C268.0692066436438 17.397810769811045 263.5714210361303 17.40693214213971 259.07362365722656 17.417007446289063 C250.2519510078892 17.438442809766713 241.43037647098373 17.47256882208039 232.60877990722656 17.514663696289063 C232.49123352050782 18.252168579101564 232.37368713378908 18.989673461914066 232.25257873535156 19.749526977539063 C232.0878204345703 20.726475219726566 231.92306213378907 21.703423461914063 231.75331115722656 22.709976196289063 C231.59451477050777 23.674356079101564 231.4357183837891 24.638735961914065 231.27210998535156 25.632339477539063 C229.07685840155642 35.1712206693997 222.80358814650504 41.336417023889695 214.76893615722656 46.40138244628906 C208.39436945987154 49.68664738073062 202.64330336308177 49.81137785446242 195.62147521972656 49.80519104003906 C194.52475494384765 49.81190826416017 193.42803466796875 49.81862548828124 192.29808044433594 49.82554626464844 C188.6776423113355 49.84452114152583 185.0573896541374 49.84845039861014 181.43690490722656 49.85060119628906 C178.91352767294762 49.85703000334911 176.39015118575344 49.86375842728296 173.8667755126953 49.87077331542969 C168.57763134997873 49.88274521031225 163.28855597499035 49.88654008243685 157.99940490722656 49.88526916503906 C151.90656303990306 49.884069317153646 145.81407629422296 49.90514523202003 139.72132420539856 49.93675649166107 C133.8384151049804 49.966179487577335 127.95564519659195 49.97324199936915 122.07266998291016 49.972049713134766 C119.5801066223064 49.974403568429636 117.08754038962752 49.98321485021518 114.59502410888672 49.998714447021484 C111.1009412155239 50.01840591332402 107.60776151923204 50.01252280377268 104.11366271972656 50.00050354003906 C103.09305755615236 50.011742553710945 102.07245239257813 50.022981567382814 101.02091979980469 50.03456115722656 C91.50606158639926 49.951785239567556 82.71062689830507 47.03528535817445 75.60877990722656 40.51466369628906 C69.52535332516891 33.900802098902105 67.81193280921877 26.20269412541188 66.60877990722656 17.514663696289063 C56.91638419567428 17.4451225507787 47.22407450268082 17.391831572916217 37.53148365020752 17.359227180480957 C33.030710794659285 17.34357790693047 28.530108755279855 17.322353156871912 24.029434204101563 17.288345336914063 C19.685211289166062 17.255725487695386 15.341152579349284 17.23780512310006 10.996816635131836 17.230031967163086 C9.340226267657329 17.224493167029813 7.683644783735929 17.21367718118725 6.027124404907227 17.197473526000977 C3.7049435857981052 17.17566399533353 1.3834394108612855 17.172698188541972 -0.9388275146484375 17.174087524414063 C-1.6221565246582088 17.16330169677734 -2.30548553466798 17.15251586914063 -3.009521484375 17.141403198242188 C-7.302384072866943 17.169154831835797 -10.022466047551319 17.817579791992117 -13.391220092773438 20.514663696289063 Z M83.60877990722656 17.514663696289063 C87.08377990722656 27.93966369628906 87.08377990722656 27.93966369628906 92.60877990722656 31.514663696289063 C97.9322535483831 33.80914060747696 102.8340265695737 33.80465627873417 108.52626037597656 33.78932189941406 C109.509150390625 33.79443283081055 110.49204040527343 33.79954376220704 111.50471496582031 33.8048095703125 C114.74519485555527 33.818678972096606 117.98546140946456 33.81775069058516 121.22596740722656 33.81544494628906 C123.4850929630606 33.81933347375933 125.74421779068155 33.823668468867126 128.0033416748047 33.82843017578125 C132.7359402558231 33.8358868006509 137.46846422998192 33.83560522420785 142.20106506347656 33.83033752441406 C148.25588101096804 33.82454528977041 154.31039082356006 33.84147089911092 160.36515617370605 33.8646821975708 C165.0303983138691 33.879438132749954 169.69556705620397 33.880288659756644 174.3608283996582 33.87717247009277 C176.59267406221744 33.87768479592664 178.82452392835307 33.88290584618534 181.05634689331055 33.89298439025879 C184.18193507328834 33.9053665586826 187.3069311626258 33.89854597724613 190.43251037597656 33.88697814941406 C191.34809722900388 33.89462188720702 192.26368408203126 33.902265625 193.20701599121094 33.91014099121094 C200.3503758867356 33.85191707407344 206.13183813012756 32.88391235264466 211.48377990722656 27.764663696289063 C213.60877990722656 24.514663696289098 213.60877990722656 24.514663696289098 215.60877990722656 17.514663696289063 C172.04877990722656 17.514663696289063 128.48877990722656 17.514663696289063 83.60877990722656 17.514663696289063 Z " fill="#000000" transform="translate(150.39122009277344,34.48533630371094)"/>
<path d="M0 0 C0.9393237304687432 0.32915405273436704 1.8786474609374864 0.6583081054687625 2.846435546875 0.9974365234375 C4.814402021017543 1.6889705985037438 6.780779610704371 2.3850416460596193 8.74560546875 3.08544921875 C11.765814865921556 4.16188660018949 14.790564063109628 5.224667810894175 17.81640625 6.28515625 C19.73204557490635 6.9601582957832875 21.64742010235551 7.635912407313526 23.5625 8.3125 C24.016088867187477 8.472404174804694 24.016088867187477 8.472404174804694 26.3115234375 9.2816162109375 C27.143291015624982 9.578624267578135 27.97505859375002 9.875632324218742 28.83203125 10.181640625 C29.19929321289061 10.312258911132801 29.19929321289061 10.312258911132801 31.057861328125 10.9732666015625 C32.75 11.65625 32.75 11.65625 33.75 12.65625 C33.888797100190345 15.775643035174454 33.96329704960954 18.871155056128373 33.98828125 21.9921875 C33.996352996826204 22.941310119628895 34.00442474365235 23.890432739257818 34.01274108886719 24.868316650390625 C34.02660958765938 26.88761557893156 34.03731928810424 28.906938224373278 34.045166015625 30.92626953125 C34.06223549266747 33.98386965838057 34.10607821729343 37.04034767359522 34.150390625 40.09765625 C34.26644689726936 54.552153301086946 32.640594309231346 64.8919282372797 23.75 76.65625 C23.32203125000001 77.24921875000001 22.894062500000018 77.8421875 22.453125 78.453125 C14.136160853367073 89.11840843509401 -1.5023776713691177 99.34761462946733 -15 101.96875 C-28.277314280426793 102.29689655065692 -41.99863679126679 90.40191025617088 -51.515625 82.265625 C-59.22626016189989 74.90747601692982 -65.88762816340207 64.4819080788345 -66.3365478515625 53.54835510253906 C-66.36564521198795 50.95222211593591 -66.3623048232671 48.35797471069543 -66.34765625 45.76171875 C-66.34624130249023 44.81436355590819 -66.34482635498046 43.8670083618164 -66.34336853027344 42.89094543457031 C-66.33778611389943 39.87518105019396 -66.32523681699317 36.85949181975886 -66.3125 33.84375 C-66.3074827286076 31.79492294978661 -66.30292021796745 29.746094731947068 -66.298828125 27.697265625 C-66.28782243425567 22.683564940994586 -66.27056987710287 17.669920199088807 -66.25 12.65625 C-57.25847622133983 8.752799945205652 -48.137763188462344 5.3251347980057915 -38.885498046875 2.09716796875 C-37.3286727894189 1.5503566171558418 -35.77462625914197 0.9955727872100226 -34.223388671875 0.43310546875 C-31.94265467719714 -0.3934242991250585 -29.65447224868683 -1.1951737700274236 -27.36328125 -1.9921875 C-27.022538223266594 -2.11816818237304 -27.022538223266594 -2.11816818237304 -25.298171997070313 -2.755706787109375 C-16.36392184317384 -5.784425276383047 -8.575914030379863 -3.0782250423720825 0 0 Z M-26.1796875 16.84375 C-26.814883117675777 17.065710449218756 -27.450078735351553 17.28767089843751 -28.104522705078125 17.516357421875 C-30.114535932630616 18.220962610149456 -32.119701353292015 18.938351157233313 -34.125 19.65625 C-35.49449072419918 20.138875633646364 -36.864279924032445 20.620655202561522 -38.234375 21.1015625 C-41.57642457490314 22.276693404614548 -44.91425408025219 23.46332583619443 -48.25 24.65625 C-48.37501993925511 28.745363705482475 -48.46499365002737 32.83371464587637 -48.524658203125 36.92431640625 C-48.549568054384736 38.311232640904905 -48.5835100213352 39.69802086576988 -48.627197265625 41.08447265625 C-48.94908763746213 51.574311832589785 -47.62191748473899 58.832719287906286 -41.25 67.3203125 C-34.25314899819148 74.18050625567946 -25.426068859814848 81.91314780963609 -15.264892578125 82.78955078125 C-11.57991793091071 82.54576110993304 -8.908700978911838 80.83129182170075 -5.875 78.84375 C-5.229421386718741 78.43648681640624 -4.58384277343751 78.02922363281249 -3.918701171875 77.609619140625 C4.317029444311856 72.22948846179926 12.711526654665533 65.36407678886735 15.75 55.65625 C16.522032428325417 51.657390923494916 16.869536359258177 47.890012822019855 16.84765625 43.8203125 C16.84443359375001 42.7568359375 16.841210937499994 41.693359375 16.837890625 40.59765625 C16.829511718749984 39.50324218750001 16.821132812499997 38.408828125000014 16.8125 37.28125 C16.807988281250005 36.1636328125 16.80347656250001 35.046015624999995 16.798828125 33.89453125 C16.78709244427182 31.148381959606468 16.770673629711837 28.40234413741635 16.75 25.65625 C9.719096837799611 22.57830759423797 2.63695650514245 19.82384114120785 -4.625 17.34375 C-5.385385742187509 17.077397460937505 -6.14577148437499 16.81104492187501 -6.92919921875 16.53662109375 C-7.661547851562489 16.291215820312516 -8.393896484375006 16.045810546875003 -9.1484375 15.79296875 C-9.794741210937502 15.57342529296875 -10.441044921875005 15.3538818359375 -11.10693359375 15.127685546875 C-16.623827733952368 13.91406939459307 -20.932982970161333 14.986509458464184 -26.1796875 16.84375 Z " fill="#000000" transform="translate(233.25,136.34375)"/>
<path d="M0 0 C87.78 0 175.56 0 266 0 C266 5.939999999999998 266 11.879999999999995 266 18 C178.22000000000003 18 90.44 18 0 18 C0 12.060000000000002 0 6.1200000000000045 0 0 Z " fill="#000000" transform="translate(167,382)"/>
<path d="M0 0 C87.78 0 175.56 0 266 0 C266 5.610000000000014 266 11.220000000000027 266 17 C178.22000000000003 17 90.44 17 0 17 C0 11.389999999999986 0 5.779999999999973 0 0 Z " fill="#000000" transform="translate(167,316)"/>
<path d="M0 0 C82.5 0 165 0 250 0 C250 5.610000000000014 250 11.220000000000027 250 17 C167.5 17 85 17 0 17 C0 11.389999999999986 0 5.779999999999973 0 0 Z " fill="#000000" transform="translate(167,349)"/>
<path d="M0 0 C82.5 0 165 0 250 0 C250 5.610000000000014 250 11.220000000000027 250 17 C167.5 17 85 17 0 17 C0 11.389999999999986 0 5.779999999999973 0 0 Z " fill="#000000" transform="translate(167,283)"/>
<path d="M0 0 C49.5 0 99 0 150 0 C150 5.939999999999998 150 11.879999999999995 150 18 C100.5 18 51 18 0 18 C0 12.060000000000002 0 6.1200000000000045 0 0 Z " fill="#000000" transform="translate(167,415)"/>
<path d="M0 0 C43.889999999999986 0 87.77999999999997 0 133 0 C133 5.939999999999998 133 11.879999999999995 133 18 C89.11000000000001 18 45.22000000000003 18 0 18 C0 12.060000000000002 0 6.1200000000000045 0 0 Z " fill="#000000" transform="translate(300,183)"/>
<path d="M0 0 C38.610000000000014 0 77.22000000000003 0 117 0 C117 5.939999999999998 117 11.879999999999995 117 18 C78.38999999999999 18 39.77999999999997 18 0 18 C0 12.060000000000002 0 6.1200000000000045 0 0 Z " fill="#000000" transform="translate(300,216)"/>
<path d="M0 0 C38.610000000000014 0 77.22000000000003 0 117 0 C117 5.939999999999998 117 11.879999999999995 117 18 C78.38999999999999 18 39.77999999999997 18 0 18 C0 12.060000000000002 0 6.1200000000000045 0 0 Z " fill="#000000" transform="translate(300,150)"/>
</svg>
