<?xml version="1.0" encoding="UTF-8"?>
<!-- Generator: visioncortex VTracer 0.6.12 -->
<svg version="1.1" xmlns="http://www.w3.org/2000/svg" width="600" height="600">
<path d="M0 0 C7.3652542979649525 5.090359239572109 11.182370671446677 10.547112014340058 14 19 C16.061310610339035 33.77313551843693 10.564957988712223 45.91130726485761 5.125 59.375 C4.2917685189951555 61.489901261022794 3.461025811523342 63.60578479536963 2.6328125 65.72265625 C0.1056123475588322 72.15517038801039 -2.447337491671078 78.5775477530172 -5 85 C-8.300000000000011 93.57999999999998 -11.599999999999994 102.16 -15 111 C25.590000000000003 111.32999999999998 66.18 111.65999999999997 108 112 C108.66000000000003 110.35000000000002 109.32 108.69999999999999 110 107 C111.55241068752292 103.79565613392555 113.21933362872767 100.65204122577501 114.875 97.5 C115.30941406250003 96.65824218749998 115.743828125 95.81648437500002 116.19140625 94.94921875 C121.90956843649951 84.04521578175024 121.90956843649951 84.04521578175024 126 82 C129.90867949627852 81.74508611980792 132.70942497655983 81.76710980552275 136 84 C138.49511726932172 87.74267590398262 138.68905626095898 90.66660173663564 138 95 C136.7994804838171 98.02883364174585 135.2073098665649 100.73138940557041 133.5 103.5 C133.28537109374997 103.86351562499999 133.28537109374997 103.86351562499999 132.19921875 105.703125 C131.14829914186356 107.47801144929707 130.0762761013405 109.24037399304643 129 111 C130.0621875 111.291328125 131.124375 111.58265625000001 132.21875 111.8828125 C144.49706174620889 115.38177564394744 151.85537919089188 118.90224596913646 158.58984375 130.26953125 C163.61391139544145 139.99757358840327 162.70651572869792 149.74951686981524 159.65625 159.9453125 C159.54796875 160.28433593750003 159.54796875 160.28433593750003 159 162 C159.6896484375 162.20753906250002 160.37929687500002 162.41507812500004 161.08984375 162.62890625 C171.4126893276977 166.0132136479009 178.59648458809363 170.77979097522848 183.84375 180.47265625 C187.9116148102583 189.3642391291795 188.05723134754788 198.94586203435915 184.90625 208.21875 C180.74989096446643 217.36273987817378 174.931099142559 223.59306624918804 165.625 227.5 C162.80072711426362 228.5400496976045 161.037941123079 229 158 229 C158.14437499999997 229.33902343750003 158.14437499999997 229.33902343750003 158.875 231.0546875 C162.94094895494078 241.24779564398347 163.31475714515148 249.79112177354716 159 260 C153.77598371851224 270.073726100439 146.7140683031265 274.7966565182485 136.125 278.3359375 C135.42374999999998 278.555078125 134.72250000000003 278.77421875 134 279 C134.2165625 279.58265625 134.43312500000002 280.1653125 134.65625 280.765625 C137.9970854191278 290.60252928965417 138.32660962247883 299.7012906689884 134.31640625 309.3984375 C130.16511309215957 317.6024767970971 124.54093067013895 323.3919891213402 116 327 C107.99714394872274 329.2634818793127 100.26176479354928 329.29055054490686 91.9912109375 329.274658203125 C90.48702747301371 329.27901271381063 88.98284622200356 329.28419831164376 87.47866821289063 329.29014587402344 C83.41177991783638 329.30347930992593 79.34498490807073 329.30412001806997 75.27807903289795 329.30158257484436 C71.86475840993808 329.30050730092034 68.45145622549626 329.3054112682061 65.0381395816803 329.3101879954338 C56.9668184358041 329.32126736316576 48.895543813721474 329.3217318569396 40.82421875 329.315673828125 C32.550919759971435 329.3096584432945 24.277791889069107 329.32188640541824 16.00452208518982 329.3432438969612 C8.86265931709795 329.36098979334366 1.7208503239681647 329.36684033181973 -5.421033620834351 329.36360615491867 C-9.668800449931751 329.3618109524034 -13.916445702941957 329.3642482335424 -18.16419219970703 329.3783206939697 C-53.94990890307679 329.48662386736845 -87.76922588716437 326.86586600044046 -117 304 C-117.56815429687501 303.5567236328125 -118.13630859375 303.113447265625 -118.7216796875 302.65673828125 C-132.05540915064077 292.0919824214586 -142.77583053604974 279.9514712639598 -151 265 C-151.334833984375 264.3946240234375 -151.66966796875 263.789248046875 -152.0146484375 263.16552734375 C-169.12076973498975 231.85249122219483 -173.98776214529067 195.48962738382772 -164.458740234375 160.953857421875 C-157.19018773922528 136.62503031242994 -142.83556976523772 116.3126360041108 -124.76953125 98.76171875 C-123.04831993405016 97.04810660100799 -121.45754010648346 95.27921540928224 -119.875 93.4375 C-116.43704413327526 89.44224991743633 -112.85319799869794 85.59549861278151 -109.25 81.75 C-104.0358504504083 76.18415688918321 -98.85698517212111 70.58989873666033 -93.7109375 64.9609375 C-90.81793525569182 61.797442715683474 -87.90958227797904 58.648240741023784 -85 55.5 C-81.15758214668992 51.341597896626524 -77.323384029566 47.175909263338355 -73.5 43 C-69.6962561234333 38.84604629340234 -65.88353182339554 34.70055796074419 -62.0625 30.5625 C-61.814879150390624 30.29425415039063 -61.814879150390624 30.29425415039063 -60.561767578125 28.936767578125 C-57.98411184051412 26.14531632169721 -55.40383249956096 23.356337435227715 -52.8203125 20.5703125 C-52.29985351562499 20.008200683593742 -51.779394531250006 19.446088867187484 -51.2431640625 18.866943359375 C-50.21517941448218 17.75716520593582 -49.18590456210373 16.648580618589136 -48.1552734375 15.541259765625 C-45.43341078711342 12.604584328303531 -42.83996314180774 9.604004273233897 -40.3125 6.5 C-30.06558315632776 -5.3176121262789025 -13.424016245656873 -6.96639910124469 0 0 Z M-39.90625 32.62109375 C-42.78697695509618 35.894158518010386 -45.76866833718725 39.06866702665181 -48.75 42.25 C-53.96419555021083 47.81579939372597 -59.14301549632523 53.41010199451409 -64.2890625 59.0390625 C-67.1820647443082 62.202557284316555 -70.09041772202096 65.35175925897622 -73 68.5 C-76.84241785331008 72.65840210337348 -80.676615970434 76.82409073666165 -84.5 81 C-90.81930071378355 87.90111728732376 -97.17009508831978 94.77303161452721 -103.5205078125 101.6455078125 C-103.7710693359375 101.9166943359375 -103.7710693359375 101.9166943359375 -105.0390625 103.2890625 C-105.53873535156251 103.82974365234375 -106.038408203125 104.3704248046875 -106.55322265625 104.927490234375 C-107.55913342310183 106.01719977911887 -108.56401768927802 107.10785778569723 -109.56787109375 108.199462890625 C-111.9638439227864 110.80403642496628 -114.37016401306104 113.39582807041938 -116.8125 115.95703125 C-140.40649641824274 140.84813441847672 -151.86934415300857 168.9046825581064 -151.3046875 203.3828125 C-150.2122214197446 234.81152675924898 -135.13854608951107 262.7204952830426 -112.93359375 284.37109375 C-91.64846549146824 303.4455162772861 -65.17839976856476 311.3268510201761 -37.04541015625 311.274658203125 C-35.47703816416785 311.27901527252465 -33.90866829361494 311.28420170271943 -32.340301513671875 311.29014587402344 C-28.117579043085982 311.30343106099406 -23.8949466218954 311.3041270194346 -19.672207355499268 311.30158257484436 C-16.138026772725738 311.3005070446852 -12.603863985907253 311.30541032950083 -9.069687247276306 311.3101879954338 C-0.7347581889152934 311.32124394758705 7.600125770119007 311.32174080217567 15.93505859375 311.315673828125 C24.5239762101815 311.30961828809876 33.11273066417874 311.32199395793657 41.70162045955658 311.3432438969612 C49.09383763921653 311.36085818837176 56.48600283530459 311.36686206775124 63.87824022769928 311.36360615491867 C68.28589049349341 311.36179502473567 72.69342397027663 311.36441375332777 77.10105514526367 311.3783206939697 C81.23967109065609 311.3908938850258 85.37803150909645 311.38895990624957 89.51664352416992 311.37590980529785 C91.03316331427794 311.3735444663851 92.54970109319322 311.3762772171537 94.06620025634766 311.3845329284668 C96.13943059311987 311.39500482108093 98.21180380562731 311.38689777335895 100.28500366210938 311.3742218017578 C101.44378210067748 311.3743895435333 102.60256053924559 311.3745572853088 103.79645347595215 311.37473011016846 C108.0875659769016 310.8727835805472 111.47144056476367 309.42689752505436 114.64453125 306.46484375 C118.99761011601993 300.77235600212776 119.7895380043164 297.12777365007867 119 290 C116.78757560809322 285.57515121618644 114.05200384256312 282.8052334294668 110 280 C107.21426646858981 279.0714221561966 105.56520886240355 278.8762783970297 102.69099426269531 278.87974548339844 C101.81179824829098 278.8783708190918 100.93260223388671 278.87699615478516 100.02676391601563 278.8755798339844 C99.06507293701168 278.8791751098633 98.10338195800784 278.88277038574216 97.112548828125 278.886474609375 C96.09773941040038 278.88632858276367 95.08292999267576 278.88618255615233 94.03736877441406 278.8860321044922 C90.67723465324804 278.8867297409153 87.31715570854817 278.89451522365437 83.95703125 278.90234375 C81.62961354871436 278.9042084578019 79.30219545540501 278.9056321119998 76.97477722167969 278.90663146972656 C70.84435953085477 278.9104524870875 64.71396547241773 278.9202792592155 58.58355712890625 278.93133544921875 C52.329796546603575 278.9415584777663 46.07603215182439 278.94613100547673 39.822265625 278.951171875 C27.548166691218853 278.96190186996347 15.274085309549633 278.9789733416922 3 279 C3 273.06 3 267.12 3 261 C4.615326232910149 261.008882446289 6.230652465820299 261.01776489257816 7.894927978515625 261.02691650390625 C23.109523762329076 261.1079638708709 38.3240525529543 261.1681873903858 53.5388126373291 261.20724868774414 C61.36108704528078 261.2278652452933 69.18320019533462 261.25596833512145 77.00537109375 261.3017578125 C83.8239767901415 261.3416535522085 90.64246568678118 261.36743941142043 97.46118485927582 261.3763539791107 C101.07098690386908 261.3815641663813 104.68045483333935 261.3937905581065 108.2901496887207 261.4229202270508 C112.32200122817056 261.4551920772941 116.35327360220481 261.4559576712818 120.38525390625 261.4541015625 C120.98226608276366 261.46129211425784 120.98226608276366 261.46129211425784 124.00350952148438 261.4976806640625 C130.31015204578944 261.46621487812513 134.24477874938697 261.3103412157295 139 257 C143.13504260399264 252.30616785492725 144.36646076470566 249.54178840521274 144.27734375 243.3828125 C143.6652270088615 238.12378134373967 141.14281804380596 234.90473095134644 137 231.625 C133.09628959028163 229.5104901947359 130.05388530173008 228.87431787524417 125.64666748046875 228.87974548339844 C124.7829251098633 228.8783708190918 123.91918273925779 228.87699615478516 123.02926635742188 228.87557983398438 C122.55956924438476 228.8773774719238 122.55956924438476 228.8773774719238 120.1826171875 228.886474609375 C119.18716888427736 228.88632858276367 118.19172058105471 228.88618255615233 117.16610717773438 228.8860321044922 C113.87634094014408 228.88672867966693 110.58663134556775 228.89450919884996 107.296875 228.90234375 C105.01572703997323 228.90420883437451 102.73457867944256 228.90563231115016 100.45343017578125 228.90663146972656 C94.44961440089196 228.91044951865587 88.44582281844248 228.92027376064073 82.4420166015625 228.93133544921875 C76.31551439686928 228.94156485445387 70.18900828326764 228.94613237244045 64.0625 228.951171875 C52.0416560377862 228.9618966368128 40.02083003069765 228.9789645491344 28 229 C28 223.39 28 217.77999999999997 28 212 C29.575521392822253 212.0066618347168 31.151042785644535 212.0133236694336 32.77430725097656 212.0201873779297 C47.620704548751405 212.08099737599537 62.46705606237725 212.12615246169582 77.3135461807251 212.1554365158081 C84.94630504525503 212.17089258827696 92.57897081619353 212.19195791919935 100.211669921875 212.226318359375 C106.86584567242068 212.25625941085116 113.5199539861062 212.2755841628748 120.17419523000717 212.28226548433304 C123.6962175641421 212.286169806148 127.2180470050074 212.29531896715378 130.7400074005127 212.3171901702881 C134.67574755445207 212.34143173100165 138.61130054857426 212.3419669656846 142.547119140625 212.340576171875 C143.70949600219728 212.3513619995117 144.8718728637695 212.36214782714842 146.06947326660156 212.37326049804688 C153.73478036075795 212.34394211600386 158.85493452833754 211.72572340877412 164.8125 206.5625 C168.42243176878037 202.33372278514298 169.42649519551327 199.73931825774503 169.24609375 194.01953125 C168.66784425448367 189.27421396139766 166.46815063485042 186.2088391740774 162.9375 183.1875 C158.79864580317644 180.10537453428032 156.99378572511142 179.87561083544017 151.87509155273438 179.87974548339844 C150.5681483459473 179.8783708190918 149.26120513916015 179.87699615478516 147.91465759277344 179.87557983398438 C146.4579160328459 179.87911923113973 145.00117470223455 179.88275404441652 143.54443359375 179.886474609375 C142.0170644313347 179.88675655028226 140.489695133182 179.8865986122895 138.9623260498047 179.8860321044922 C134.8076065093896 179.88574439890658 130.65291565589945 179.89163679932847 126.49820280075073 179.89860606193542 C122.15933596743696 179.90484405994698 117.82046852594954 179.9054437534504 113.48159790039063 179.90663146972656 C105.2616121306691 179.9097434644716 97.0416396109922 179.9179550872891 88.82165968418121 179.92798095941544 C79.46508213535719 179.93914617490344 70.1085039641602 179.9446535787364 60.75192141532898 179.94967639446259 C41.501273214796925 179.9601378013749 22.250638156331718 179.97793539984366 3 180 C3 174.06 3 168.12 3 162 C4.600577545166004 162.00888244628902 6.201155090332037 162.01776489257816 7.8502349853515625 162.02691650390625 C22.932078898514987 162.1079933328096 38.01384270584805 162.16820163265317 53.09584903717041 162.20724868774414 C60.84971442113772 162.22785768181632 68.6034169140151 162.2559462606648 76.357177734375 162.3017578125 C83.11682939395894 162.3416767669064 89.87636305892534 162.3674449069311 96.63612931966782 162.37635397911072 C100.2141066901388 162.381560245939 103.79174655318724 162.39376154865352 107.36961555480957 162.42292022705078 C111.3677365991216 162.4552383468847 115.36527408696742 162.45595618729897 119.363525390625 162.4541015625 C120.54460372924802 162.46848266601563 121.7256820678711 162.48286376953126 122.94255065917969 162.4976806640625 C129.5338863005208 162.4645830482059 133.66344066298694 161.97960998081305 139 158 C143.13296739568824 153.54074570465218 144.32304155917166 150.1755691307735 144.2109375 144.0546875 C143.72508057540824 139.32208116045808 141.4825741394813 136.21959191248368 138 133.1875 C133.77654970983247 130.10790083008612 130.9846999777107 129.87444839487193 125.88459777832031 129.8686981201172 C124.60466949462892 129.86468994140625 123.32474121093747 129.86068176269532 122.00602722167969 129.85655212402344 C120.58450315290168 129.85702722671044 119.16297910346191 129.85756334192126 117.741455078125 129.858154296875 C116.24662167583017 129.85512263498504 114.75178919813584 129.85160116027618 113.2569580078125 129.84762573242188 C110.03542286829259 129.8397356759026 106.81389881109322 129.83459135902325 103.59235572814941 129.83133506774902 C98.49453470766952 129.82542345175784 93.39678345308118 129.808880739154 88.29899597167969 129.7899932861328 C86.55326942907539 129.78365576820914 84.8075428432474 129.7773301460228 83.06181621551514 129.77101612091064 C82.18749081015585 129.76785030961037 81.31316540479656 129.7646844983101 80.41234529018402 129.76142275333405 C68.5440336544952 129.7193629348198 56.675754231993665 129.68638177340006 44.807373046875 129.674072265625 C36.80240879727751 129.66568445709373 28.797617048229853 129.64316592289424 20.79273909330368 129.60471659898758 C16.55813008193357 129.58497776359866 12.323778813297793 129.57254404919644 8.089120864868164 129.57755088806152 C4.102352552781838 129.58220709416088 0.11607216074548887 129.56833934236028 -3.8705978393554688 129.5405387878418 C-5.329813241491394 129.53364292138906 -6.789079266673696 129.53348316028968 -8.248292922973633 129.54073905944824 C-16.20472857236021 129.57629094293588 -22.281254396573615 129.50503225154438 -29 125 C-32.85938875814668 120.62782484367585 -33.41365746781875 116.5516555663524 -33.314666748046875 110.84384155273438 C-32.725437869223555 105.51860912805108 -30.69821553714206 100.74656717061526 -28.72265625 95.80078125 C-28.27788436889648 94.64869674682618 -27.83311248779296 93.49661224365235 -27.374862670898438 92.30961608886719 C-25.95302341680798 88.63761205666418 -24.508260729976342 84.97514221056224 -23.0625 81.3125 C-22.12542238354021 78.90358969759399 -21.189862528550975 76.49408840044467 -20.255859375 74.083984375 C-12.72162216019052 54.69504092526094 -12.72162216019052 54.69504092526094 -9.26513671875 46.41943359375 C-9.052459030151368 45.90160057067871 -9.052459030151368 45.90160057067871 -7.9761810302734375 43.28105163574219 C-7.183900103945291 41.356471880609035 -6.376092411553628 39.43817418509852 -5.5493316650390625 37.52815246582031 C-3.1986510687807765 31.77156131892292 -2.3032693081420916 27.09192436242057 -4 21 C-6.1201783417484705 17.56384889440764 -8.09622163724137 15.19282116639846 -12 14 C-24.976493328331742 12.97011957711652 -32.06196764864046 23.463264118106224 -39.90625 32.62109375 Z " fill="#000000" transform="translate(220,146)"/>
<path d="M0 0 C14.786761365835332 -0.13932289719684832 29.5733816111823 -0.24618548019185482 44.36066818237305 -0.31087303161621094 C51.22781571905176 -0.3417167352438639 58.09454612464572 -0.3837128532360907 64.96142578125 -0.45263671875 C71.59445458253839 -0.5191812407016698 78.22716556760116 -0.553756211509608 84.86054229736328 -0.5692634582519531 C87.38500008515831 -0.5803076041791257 89.90943553491161 -0.601874131066154 92.43370819091797 -0.6343803405761719 C119.0440978089099 -0.9632731691454808 119.0440978089099 -0.9632731691454808 129.18792724609375 7.914947509765625 C135.32929903741876 13.92237951750468 138.12544548686287 22.03023504164264 138.5 30.5 C138.11001716334226 39.31864414506711 135.02939977702454 46.52823418033134 129.26953125 53.1484375 C120.18651419119306 60.55867861166007 110.04334120661213 61.93514882233396 98.81640625 63.953125 C96.95048341963627 64.3008267392187 95.084840451795 64.65003339377049 93.21946716308594 65.00067138671875 C88.33526845592945 65.91502773862072 83.44784839809353 66.81077819930951 78.55938720703125 67.7020263671875 C72.60046051160066 68.79160181110058 66.6451904656476 69.90095301590333 60.689826011657715 71.00980758666992 C56.06198838459022 71.87146357277163 51.43356803059646 72.72932840526965 46.80287170410156 73.57550048828125 C45.1336356494092 73.88268594560981 43.46440037657925 74.18987565159478 41.795166015625 74.4970703125 C41.03103393554687 74.63523162841796 40.266901855468745 74.77339294433594 39.4796142578125 74.91574096679688 C34.225894865887255 75.88705256705637 34.225894865887255 75.88705256705637 32 77 C33.218828000203644 78.32039700022065 34.437657636733775 79.64079249001281 35.656494140625 80.961181640625 C36.733832283588185 82.12831171706023 37.81114274199223 83.29546734868507 38.888427734375 84.462646484375 C41.618997347115396 87.42099424294287 44.34991891516529 90.37901437285075 47.08203125 93.3359375 C52.351697801935416 99.04015362880142 57.61155697935163 104.75303314960695 62.855712890625 110.480712890625 C66.22801190248413 114.16227521863533 69.61181813394671 117.83305401448354 73 121.5 C79.13702616887292 128.1426025805323 85.24768627754315 134.80911659010656 91.3544921875 141.4794921875 C96.05572493728039 146.613955889024 100.75976995689268 151.74566157136428 105.484375 156.858642578125 C106.49202094423526 157.94988028480896 107.49853871943787 159.04216085738864 108.50390625 160.135498046875 C110.98935541091532 162.83656315876163 113.48954038520833 165.5198745916 116.02734375 168.171875 C125.60280409546158 178.24822021041206 131.64174553028283 187.49053077437765 131.30078125 201.8828125 C130.32972311426158 211.94650590674377 125.69023227159414 219.52936403579525 118 226 C114.12257914523502 228.33203823317797 110.1749672019447 230.26219639309915 106 232 C106.27714843750005 232.53109374999997 106.55429687499998 233.0621875 106.83984375 233.609375 C107.20207031250004 234.31578125 107.56429687499997 235.02218749999997 107.9375 235.75 C108.29714843750003 236.44609375 108.65679687500005 237.14218749999998 109.02734375 237.859375 C112.50980439997511 245.5235855870938 112.29162320885303 255.581201881737 109.375 263.375 C104.66487405810142 273.3513084186046 98.43187711807582 279.0353714228441 88.140625 283.140625 C78.6011736596381 285.7509226304473 68.64500409749382 284.7374622454266 60 280 C59.00999999999999 279.34 58.01999999999998 278.68 57 278 C56.72736328125001 278.43441406249997 56.72736328125001 278.43441406249997 55.34765625 280.6328125 C49.38437315839991 289.8644720002444 44.06135247297016 295.72348370916114 33.1875 298.9375 C21.296386877849045 301.4361389598444 12.57353006316714 298.5766844042833 2 293 C1.7383203124999795 293.904921875 1.476640625000016 294.80984375 1.20703125 295.7421875 C-1.371817748008425 302.7025760577315 -7.692152250740719 308.92184229181464 -14.33203125 312.125 C-23.690684409872176 315.98092576544093 -32.96594664819901 316.3485858840697 -42.59765625 313.1328125 C-46.90502060235349 311.1016976021423 -50.44584947811995 308.13349019441114 -54 305 C-51.55479530138007 299.5314141222982 -47.40067803576585 295.58093431623604 -42.4375 292.3125 C-40 292 -40 292 -37.3125 293.875 C-32.808218856973554 296.7645388464698 -29.218952609665394 296.8159925904363 -24 296 C-19.1703719590152 293.8534986484512 -16.709673492315062 290.95343982698915 -14.64453125 286.19921875 C-13.45836235152575 282.1518666903575 -13.54588777769112 278.96755506810973 -15 275 C-18.900989784211447 268.806576712968 -24.116785241009723 263.6752639325956 -29.43359375 258.69140625 C-31 257 -31 257 -32 254 C-30.019999999999982 252.185 -30.019999999999982 252.185 -20 243 C-15.844153911271235 245.0779230443644 -13.457232086016234 247.48632582971345 -10.4375 250.875 C-10.176343994140609 251.16322631835936 -10.176343994140609 251.16322631835936 -8.854736328125 252.621826171875 C-7.768826219038317 253.82030312668292 -6.685105038883535 255.0207668385106 -5.603515625 256.22314453125 C-4.084073734578396 257.9068379049541 -2.5532303006970665 259.578989733898 -1.015625 261.24609375 C-0.5435058593749886 261.7580932617187 -0.07138671874997726 262.2700927734375 0.4150390625 262.797607421875 C1.3413650185921142 263.8017745353536 2.2677960936175054 264.80584468942686 3.1943359375 265.809814453125 C5.816077332837608 268.6647165605754 8.333670550093018 271.5835558365153 10.8125 274.5625 C14.02259636132834 278.2214013028411 16.966949536963853 280.5728097939386 21.94140625 281.2734375 C26.668063022435604 281.5066311927577 29.98001828115082 280.6495334056051 34 278 C38.14313478509604 273.5209353674637 39.085935089464385 270.2973260089168 39.328125 264.23046875 C38.32371247275563 257.40285502313645 33.46530653651803 252.97121632342305 28.875 248.25 C27.508376932162946 246.81971487124883 26.142487898136665 245.38872801044874 24.77734375 243.95703125 C24.121049804687516 243.27205566406246 23.464755859375032 242.58708007812504 22.78857421875 241.88134765625 C20.625789243156305 239.6063789117885 18.523097083487244 237.2833039029772 16.4375 234.9375 C12.667313267375334 230.7103209361481 8.810308429813347 226.57032749532834 4.9375 222.4375 C-0.12721836574110057 217.03197182315955 -5.129060146612687 211.58191554627302 -10 206 C-8.449972527451678 202.11602311476406 -5.99523378708426 199.9702038143812 -2.875 197.25 C-2.4199609374999795 196.850390625 -2.4199609374999795 196.850390625 -0.1171875 194.828125 C0.5814843750000023 194.22484375 1.2801562500000045 193.62156249999998 2 193 C7.360424269684188 197.42757121495993 12.1495034481934 202.1559283680814 16.875 207.25 C17.580439453124995 208.005068359375 18.28587890624999 208.76013671875 19.0126953125 209.5380859375 C23.327892853884407 214.1673328623661 27.59662218210042 218.8351114034561 31.80859375 223.55859375 C34.45007252193625 226.50141769377927 37.1280116056858 229.40893955310548 39.8125 232.3125 C40.31797363281248 232.85922363281247 40.82344726562502 233.405947265625 41.34423828125 233.96923828125 C42.89577777857983 235.64651190688517 44.44787076407266 237.32327211735037 46 239 C47.53702328741099 240.66134491824107 49.073696436166415 242.3230076416089 50.609375 243.985595703125 C51.61442274509318 245.0727245060085 52.62091930726865 246.15851578721907 53.62890625 247.242919921875 C56.04120822226787 249.84447650611196 58.417915332019334 252.46540075629957 60.73046875 255.15625 C69.00251449800652 264.6672254440015 69.00251449800652 264.6672254440015 75 266 C80.67967713284162 266.21118173292365 84.59524065243613 264.68770550028603 89 261 C91.97579121782121 257.2033008600212 92.83716445364183 253.80364861756595 93 249 C91.47670792223875 242.25399222705732 88.2750538787459 238.88365086153613 83.30859375 234.1953125 C81.34200801218083 232.32522589313982 79.56814625472668 230.43888949028934 77.8125 228.375 C74.36092897703872 224.35218994992852 70.7502050179396 220.49054746212357 67.125 216.625 C63.21117654368197 212.45005057603885 59.311890405530335 208.26874618447027 55.5 204 C51.72655987637279 199.7759998616113 47.87169614959305 195.6336290814894 44 191.5 C39.4114366279519 186.6010052793144 34.8782465591255 181.66221629752852 30.40625 176.65625 C27.307797383596778 173.23588022864578 24.154814158514796 169.86833231438516 21 166.5 C16.360220024653813 161.54519982211082 11.765899574806156 156.55753009030195 7.2421875 151.49609375 C2.868625939047547 146.62726824921845 -1.5708654036268968 141.81823614035352 -6 137 C-4.452124983399813 133.16549143614947 -2.0627725368860865 130.97444301246264 1 128.25 C1.8868750000000318 127.45078124999998 2.773750000000007 126.65156250000001 3.6875 125.828125 C6 124 6 124 8 124 C9.234375 125.22265625 9.234375 125.22265625 10.75 127.0625 C14.299981127408898 131.2411236187209 17.998502466632658 135.25345515300523 21.75 139.25 C27.879542827461762 145.79217836498037 33.953060927085005 152.38141528355982 40 159 C41.832530192714216 161.0007366213032 43.666255608453696 163.0003762571336 45.5 165 C48.23907634083423 167.98755385438972 50.97777216522212 170.97545299860235 53.71484375 173.96484375 C58.96514707954202 179.69793359260336 64.22462652028588 185.42230288615087 69.506103515625 191.126708984375 C72.01737372609472 193.8412977714687 74.51634345775358 196.56553074132398 76.9921875 199.3125 C77.476875 199.84810546874996 77.96156250000001 200.38371093750004 78.4609375 200.935546875 C79.78673572172556 202.40234849875992 81.10836262213445 203.87291741424144 82.4296875 205.34375 C87.10279973094964 210.17310610493274 90.74293865089271 213.79691806767346 97.69140625 214.1953125 C103.14711044571663 213.73374700120837 106.79642341143256 211.2637554179958 110.5 207.375 C112.56333069031007 202.73250594680246 112.98237594533441 198.99500384512356 112 194 C109.33090824921646 188.10656748458393 104.89571696415578 183.5902572849102 100.22265625 179.21484375 C97.63213402074871 176.63342704703786 95.2706750187719 173.8961513748028 92.875732421875 171.134033203125 C89.87474751490265 167.7197927928887 86.74863941599608 164.42669374207952 83.625 161.125 C78.80860093722026 156.01224333404105 74.04718972150954 150.86291777855416 69.37109375 145.62109375 C66.28609550262297 142.21082385874797 63.143687059936155 138.8561151679852 60 135.5 C55.41141640345711 130.60102470026914 50.878246047557525 125.6622157248778 46.40625 120.65625 C43.30779624669725 117.23587897362682 40.15475857882427 113.8683859286931 37 110.5 C32.27143857737531 105.44885050963592 27.570118753480642 100.37889270446897 22.96875 95.2109375 C21.64699595932973 93.72658673210441 20.31342092193256 92.2526850804112 18.96875 90.7890625 C14.127899021389737 85.45222269161411 11.470055584768772 81.6518730438209 11.68359375 74.12109375 C12.404515626839327 69.28824709415125 14.543640369533307 65.44596474262926 17.98388671875 62.0302734375 C22.039785071208655 59.300076683489465 25.867607425835672 58.58568795805772 30.62109375 57.65625 C31.11671562194823 57.553870239257805 31.11671562194823 57.553870239257805 33.62486267089844 57.0357666015625 C42.6974597457351 55.19080933463994 51.80608854301488 53.52515361441209 60.91015625 51.84375 C61.64574138641359 51.70775390624999 62.38132652282718 51.57175781250001 63.13920211791992 51.431640625 C65.39284505382778 51.015154429016434 67.64659416608652 50.59924832216922 69.900390625 50.18359375 C70.65071374893188 50.045130310058596 71.40103687286376 49.90666687011719 72.17409706115723 49.764007568359375 C76.03391812338782 49.05302089320912 79.89484632297604 48.34908605158836 83.758056640625 47.65673828125 C87.56779969786999 46.973396662463074 91.37378678550277 46.27180411993089 95.17794609069824 45.55805969238281 C96.60915121551363 45.29301411084586 98.04160851401195 45.03463166144303 99.47529792785645 44.78337097167969 C113.25815742994052 42.36254776716382 113.25815742994052 42.36254776716382 118 37 C119.72875745364195 33.54248509271608 119.34786253674952 29.78710723970738 119 26 C117.62756386093974 22.286349270778288 116.53332603162903 21.290696428762914 113.05393981933594 19.394210815429688 C108.19724806703107 17.41931554442212 103.37649571633256 17.560153081558383 98.199462890625 17.567626953125 C97.66738220214842 17.562531127929674 97.66738220214842 17.562531127929674 94.9747314453125 17.5367431640625 C91.4739858005139 17.50666372049082 87.97351403658797 17.497354677814002 84.47265625 17.48828125 C82.03884474854283 17.471430876451166 79.60504193134682 17.45328015346439 77.17124938964844 17.433883666992188 C70.77789015026303 17.386416812273552 64.38456612832829 17.35658577359814 57.9910888671875 17.3304443359375 C51.462087469969106 17.3006222806477 44.93320735406979 17.25409752512786 38.404296875 17.208984375 C25.60292806758605 17.122988811216402 12.801534275346455 17.055626666532817 0 17 C0 11.389999999999986 0 5.780000000000001 0 0 Z " fill="#000000" transform="translate(411,176)"/>
<path d="M0 0 C2.728346178206664 0.513812839586933 3.7085995633701714 0.8497028314311308 5.8125 2.75 C7.045421201015586 5.360891955091802 7.739848874014342 7.094250791308383 7.875 10 C5.277728445545449 16.604716638094033 1.913906883462289 22.80176732881108 -1.430419921875 29.051513671875 C-2.431308397292412 30.925904816747646 -3.421837748403618 32.805530078813405 -4.412109375 34.685546875 C-11.898405341274497 48.77340534127447 -11.898405341274497 48.77340534127447 -17.125 54 C-24.109126984126988 54.69841269841271 -24.109126984126988 54.69841269841271 -28.125 51.9375 C-30.64180323445754 48.24094524939048 -30.485130219910644 46.412398404047195 -30.125 42 C-28.950927734375 39.009033203125 -28.950927734375 39.009033203125 -27.30859375 36.05078125 C-26.708535156250008 34.95443359375 -26.108476562499987 33.85808593749999 -25.490234375 32.728515625 C-24.854082031249987 31.601230468750003 -24.217929687500003 30.473945312500007 -23.5625 29.3125 C-22.95341796874999 28.204550781249992 -22.344335937500006 27.096601562499984 -21.716796875 25.955078125 C-19.87642389040218 22.622931906326016 -18.00244028606994 19.31137144687412 -16.125 16 C-15.514145507812486 14.889311523437499 -14.903291015624973 13.778623046874998 -14.27392578125 12.63427734375 C-13.679506835937502 11.57289550781249 -13.085087890625005 10.511513671875008 -12.47265625 9.41796875 C-11.948088378906277 8.470749511718736 -11.423520507812498 7.523530273437501 -10.883056640625 6.547607421875 C-8.122814529748268 2.5477287346095068 -5.120820985432033 -0.8032660369305233 0 0 Z " fill="#000000" transform="translate(278.125,188)"/>
<path d="M0 0 C2.9375 2 2.9375 2 5 5 C6.125781618651899 12.801314810501879 2.8762395487664207 17.920263239713947 -0.9375 24.5625 C-1.2322924804687432 25.089484863281257 -1.2322924804687432 25.089484863281257 -2.72412109375 27.75634765625 C-4.463267251534489 30.84916156045253 -6.227178671143122 33.92639216271908 -8 37 C-8.478725585937525 37.83869628906251 -8.957451171874993 38.677392578124994 -9.45068359375 39.54150390625 C-10.66330185590192 41.66008575643795 -11.888482514063583 43.77029502769088 -13.125 45.875 C-13.478122558593725 46.48029541015626 -13.831245117187507 47.08559082031249 -14.195068359375 47.709228515625 C-15.945683157004396 50.6109676151371 -17.11899835062883 52.07933223375255 -20 54 C-24.032686026103875 54.219167718809985 -27.804497137636815 53.90568398663879 -31.0625 51.4375 C-32.9257170779174 46.5931355974148 -32.51603554460348 42.28174203702261 -30.62646484375 37.58837890625 C-29.994340820312516 36.478979492187506 -29.362216796874975 35.36958007812501 -28.7109375 34.2265625 C-28.54048416137698 33.92223800659178 -28.54048416137698 33.92223800659178 -27.677886962890625 32.382171630859375 C-26.592611517033674 30.453716132562676 -25.484383240755335 28.53966666693435 -24.375 26.625 C-23.653416318829954 25.349823804781778 -22.933351682411455 24.073786778019098 -22.21484375 22.796875 C-20.172489569844572 19.180534393558702 -18.08941774641181 15.589354267469659 -16 12 C-15.420244140625016 10.986474609374994 -14.840488281249975 9.972949218750003 -14.2431640625 8.9287109375 C-13.722060546875014 8.031845703125 -13.200957031250027 7.134980468750001 -12.6640625 6.2109375 C-12.217563476562475 5.4379833984374955 -11.771064453125007 4.665029296875005 -11.31103515625 3.86865234375 C-8.251970313753361 -0.4915119587582524 -4.967699574864923 -0.5995499486905942 0 0 Z " fill="#000000" transform="translate(371,109)"/>
<path d="M0 0 C2 2.1875 2 2.1875 3 5 C2.615156243260344 9.979054072617402 1.4819364691963415 13.59132029461847 -0.9140625 17.94921875 C-1.5108984375000318 19.045566406250003 -2.107734375000007 20.141914062500007 -2.72265625 21.271484375 C-3.350429687500025 22.398769531249997 -3.978203124999993 23.526054687499993 -4.625 24.6875 C-5.229570312500016 25.795449218750008 -5.834140624999975 26.903398437500016 -6.45703125 28.044921875 C-8.28309973176249 31.375842101328004 -10.136134366517354 34.690099125438394 -12 38 C-12.63260742187498 39.13389160156251 -13.265214843750016 40.26778320312499 -13.9169921875 41.43603515625 C-14.529619140625016 42.51546386718749 -15.142246093749975 43.594892578124984 -15.7734375 44.70703125 C-16.321772460937495 45.677453613281244 -16.87010742187499 46.64787597656249 -17.43505859375 47.647705078125 C-19 50 -19 50 -22 52 C-28.965174129353215 52.66334991708126 -28.965174129353215 52.66334991708126 -32.4375 50.4375 C-34.517787512361565 47.192251480715925 -34.79336152202063 44.848548403955164 -35 41 C-34.053594435462514 38.45381878248344 -33.13520926566065 36.427656664740994 -31.80859375 34.10546875 C-31.637432937622066 33.78933876037598 -31.637432937622066 33.78933876037598 -30.771255493164063 32.18952941894531 C-29.677021568002317 30.178965004735176 -28.557755989898396 28.183658407890164 -27.4375 26.1875 C-26.711243959179626 24.859623244266572 -25.986619462969657 23.530852776680575 -25.263671875 22.201171875 C-13.09704517122475 -0.06797992390011132 -13.09704517122475 -0.06797992390011132 -9.3125 -1.75 C-5.773903953196793 -2.1325509239787266 -3.2827555189639384 -1.3131022075855867 0 0 Z " fill="#000000" transform="translate(331,188)"/>
<path d="M0 0 C3.544291403252373 0.8000974652886441 4.977407017635585 2.5147901899647422 6.97265625 5.4453125 C8.180263235331836 12.66242826273134 4.520285573039189 17.824593167741142 1.03515625 23.9453125 C0.74072631835935 24.474553222656255 0.74072631835935 24.474553222656255 -0.749267578125 27.15283203125 C-13.463252089813352 49.88122083981335 -13.463252089813352 49.88122083981335 -17.02734375 53.4453125 C-21.262950791454784 54.14852139105233 -24.890549267014933 54.1842289139403 -28.52734375 51.8203125 C-30.394963641451852 48.863247671867924 -30.802652496762505 46.94467072171713 -31.02734375 43.4453125 C-30.108551228366707 40.926139540358434 -29.171426007034597 38.83747632036835 -27.90234375 36.5078125 C-27.55268554687501 35.839755859375 -27.203027343750023 35.17169921875001 -26.8427734375 34.4833984375 C-25.593848962288803 32.12431887321219 -24.313324238163432 29.784397037612024 -23.02734375 27.4453125 C-22.501083984374986 26.480288085937502 -21.974824218749973 25.515263671875005 -21.4326171875 24.52099609375 C-19.726990444140256 21.405155192840084 -18.006030185963937 18.298414371722572 -16.27734375 15.1953125 C-15.722885742187486 14.195080566406261 -15.168427734374973 13.194848632812494 -14.59716796875 12.164306640625 C-14.063657226562498 11.220632324218741 -13.530146484374995 10.27695800781251 -12.98046875 9.3046875 C-12.507705078125014 8.463896484374999 -12.034941406250027 7.623105468749998 -11.5478515625 6.7568359375 C-8.360202054202887 1.910871656100369 -6.106663933699906 -0.342429753291583 0 0 Z " fill="#000000" transform="translate(391.02734375,155.5546875)"/>
<path d="M0 0 C2.5 1.4375 2.5 1.4375 4 4 C5.4008496427558725 13.230255865282004 0.8493174010576467 19.767102098361477 -3.625 27.4375 C-4.346783990823269 28.70800202249859 -5.066849460285823 29.979481956590917 -5.78515625 31.251953125 C-7.180384954966769 33.715080994551045 -8.593207458469976 36.1664951791133 -10.0244140625 38.60888671875 C-11.270133490411922 40.747176740215195 -12.4940686878993 42.89844974774047 -13.6865234375 45.06689453125 C-14.189580078125005 45.96392089843749 -14.692636718750009 46.860947265624986 -15.2109375 47.78515625 C-15.634233398437516 48.55867431640624 -16.057529296874975 49.33219238281251 -16.49365234375 50.129150390625 C-18.419625738558523 52.52116564579802 -20.07789141931289 53.149442497512894 -23 54 C-26.87336391193668 53.92095175689926 -28.471007704145336 53.473308896291 -31.375 50.875 C-33.360408943414825 47.362353407804534 -33.76638158393013 44.89570022937346 -33 41 C-31.297600858856185 36.97642323255724 -29.164875610164643 33.2280332640251 -27 29.4375 C-26.407111816406257 28.375715332031234 -25.814223632812514 27.313930664062497 -25.203369140625 26.219970703125 C-24.02104802263426 24.10724576457787 -22.832459962367352 21.9980140234926 -21.63720703125 19.892578125 C-20.23417590358997 17.413736371269636 -18.85699708544496 14.923979166715185 -17.49609375 12.421875 C-9.715089885895338 -1.7120855126782857 -9.715089885895338 -1.7120855126782857 0 0 Z " fill="#000000" transform="translate(321,116)"/>
</svg>
