<?xml version="1.0" encoding="UTF-8"?>
<!-- Generator: visioncortex VTracer 0.6.12 -->
<svg version="1.1" xmlns="http://www.w3.org/2000/svg" width="601" height="601">
<path d="M0 0 C94.05000000000001 0 188.10000000000002 0 285 0 C285 8.910000000000025 285 17.819999999999993 285 27 C286.1653125 26.969062500000007 286.1653125 26.969062500000007 292.0625 26.8125 C308.2440060762341 26.682608318004895 324.04372710614564 30.221812775820467 335.9375 41.734375 C341.48843619982364 47.83199431041237 344.58369240004976 55.27829583378099 344.30859375 63.64453125 C341.97845411743964 81.43028059726464 330.69037293305007 94.50096598002926 317.23388671875 105.43505859375 C304.9200250306029 114.83566612583644 290.0859578811288 122.14173425380892 275.1875 126.25 C269.7684826020021 128.06696465697576 267.40959036407503 130.47168642351306 264.8125 135.4375 C264.1991913442401 136.67775004275393 263.5898811225642 137.9199845236181 262.984375 139.1640625 C260.9684857528445 143.26470677604607 258.4024733929678 146.7471760744105 255.5625 150.3125 C255.14395751953123 150.8499584960938 254.7254150390625 151.38741699218747 254.294189453125 151.941162109375 C250.24366196963098 156.9941664042995 245.62535095221773 161.47781672701387 241 166 C241.79994384765627 166.15557373046875 242.59988769531247 166.3111474609375 243.424072265625 166.471435546875 C291.91140375838467 175.9804660123496 291.91140375838467 175.9804660123496 302 189 C303.8300575288144 194.49017258644312 303.9367600161063 199.9703532984364 301.5 205.25 C276.0688283813115 233.22428878055734 216.26095194324353 231.79813804101536 181.0390625 233.48388671875 C21.83124201328991 240.49085995785174 21.83124201328991 240.49085995785174 -15 208 C-17.95853478685001 204.14068227525433 -19.35356154324603 200.31070183834794 -19.0625 195.4375 C-18.037912361852833 189.70374994806104 -15.575341414736002 186.0833046403759 -11.078125 182.4453125 C4.506197352345566 172.07367727930102 25.061322117995957 169.5770007403098 43 166 C42.238164062500005 165.21238281249998 41.47632812500001 164.42476562499996 40.69140625 163.61328125 C33.630794567292895 156.21037864791003 27.418865586697223 148.7121122837858 22 140 C21.6224658203125 139.393173828125 21.244931640624998 138.78634765624997 20.85595703125 138.1611328125 C-5.589434422337916 94.93927290219153 0 51.95876160588068 0 0 Z M17 16 C17 109.78700906344409 17 109.78700906344409 46 144 C46.42506835937502 144.50869628906253 46.85013671875001 145.017392578125 47.2880859375 145.54150390625 C57.87842926087478 158.11205815201652 70.45125164485947 167.45989525886552 85 175 C86.04671875 175.54398437500004 87.0934375 176.08796874999996 88.171875 176.6484375 C103.014735229964 183.9221774634401 119.51898675662812 188.06078350580515 136 189 C136.46986328125 189.02707031249997 136.46986328125 189.02707031249997 138.84765625 189.1640625 C171.91276526193656 190.1026849493711 203.68159662514233 177.69221213241156 227.70703125 155.1953125 C228.46371093749997 154.47085937500003 229.220390625 153.74640625 230 153 C230.74636718750003 152.31679687500002 231.492734375 151.63359375 232.26171875 150.9296875 C253.2933669929996 131.0358771200597 264.4648295102048 103.28136391836108 268 75 C268 55.52999999999997 268 36.06 268 16 C185.17000000000002 16 102.34 16 17 16 Z M285 44 C284.98541748046875 44.86987548828125 284.9708349609375 45.739750976562505 284.955810546875 46.635986328125 C284.5702970440213 67.25891537301067 283.62868026485376 87.00022118658342 278 107 C290.17771156603374 103.19216571877797 300.1562991818057 96.96030215641724 310 89 C310.6664453125 88.49855468750002 311.332890625 87.99710937500004 312.01953125 87.48046875 C320.18111341836175 81.08753644205075 326.0682722455797 72.41856897489532 327.5625 62.125 C327.3983014877025 57.60521989833694 325.4111070918046 55.01626000538107 322.3359375 51.828125 C313.8519103270686 45.18845156031455 304.06928182944495 43.830978165917315 293.6875 43.9375 C293.269521484375 43.939755859375 293.269521484375 43.939755859375 291.154296875 43.951171875 C289.10283351038595 43.9628945227978 287.0514072706484 43.98082796943322 285 44 Z M44 183.125 C43.33337341308595 183.23504364013672 42.666746826171874 183.34508728027345 41.97991943359375 183.45846557617188 C33.24990791219622 184.9174821374587 24.643058510350897 186.62451891532788 16.125 189.0625 C15.307734374999995 189.2953369140625 14.490468749999991 189.52817382812498 13.6484375 189.76806640625 C8.44805352491133 191.34192422421415 3.801029205037196 193.45731368981512 -1 196 C12.41366985505374 211.17862641492923 48.433217803082016 211.8915803228909 67 214 C67.6601611328125 214.07625610351562 68.32032226562501 214.15251220703124 69.00048828125 214.2310791015625 C92.72283112943182 216.93277449579955 116.47416384741305 217.28864271371583 140.32318878173828 217.31007385253906 C142.58320486517727 217.31245594722998 144.843200339077 217.31776850437024 147.10321044921875 217.3233642578125 C172.7854413770973 217.36989936747227 198.36718550443652 216.40253176998317 223.875 213.1875 C224.54870635986327 213.10385192871092 225.22241271972655 213.02020385742185 225.91653442382813 212.93402099609375 C271.08249606981616 207.2783359534559 271.08249606981616 207.2783359534559 285 198 C284 195 284 195 281.98046875 193.7890625 C264.7654696101478 186.61413978157213 239.63082591567797 178.6849269572234 221 181 C218.1328125 182.50390625 218.1328125 182.50390625 215.125 184.5625 C204.5868706496393 191.4061926734857 193.41133679162027 195.79428658856654 181.375 199.3125 C180.55322265625 199.5550048828125 179.7314453125 199.79750976562502 178.884765625 200.04736328125 C140.723156875958 210.6519737250627 101.67676064918163 202.93200837166603 67.767333984375 184.033935546875 C66.14150101425156 183.08278170953935 64.56726705350843 182.04484470233893 63 181 C56.66323659731762 180.50207289276193 50.23239979882544 182.09222895893123 44 183.125 Z " fill="#000000" transform="translate(138,275)"/>
<path d="M0 0 C5.280000000000001 0 10.560000000000002 0 16 0 C16.7139723272347 9.710023650392031 14.158842789595553 17.440064922853878 8.6875 25.5 C6.132304451192965 30.799664841970156 5.869449731684654 35.23485477209951 7 41 C8.668524795367432 45.12625871182112 10.880280008479815 48.93260629232458 13.15234375 52.75 C17.407913020242006 60.2354833675293 17.300039427416607 70.65146822524798 15.28125 78.95703125 C13.393643255981885 83.7902178727883 10.83919690939723 88.23333239580498 8.05078125 92.6015625 C7 95 7 95 6 103 C0.38999999999998636 103 -5.219999999999999 103 -11 103 C-11.594903169647978 93.9277266628684 -9.46726814723388 86.412349936217 -4.3125 78.875 C-1.5743462907248613 74.72114452772502 -0.7099089566912369 70.96671028695306 -1 66 C-2.711309080825515 59.85942035703789 -5.757054688538375 54.37699945385168 -8.6953125 48.734375 C-12.553998280063098 40.64730899387973 -12.239622373610018 30.543962260144696 -9.3125 22.1875 C-7.573927995831383 17.967905313725964 -5.411412458874224 14.079184622204053 -3.10546875 10.1484375 C-1.4140277719452854 6.861184715794764 -0.7228074501040282 3.614037250520198 0 0 Z " fill="#000000" transform="translate(239,140)"/>
<path d="M0 0 C5.610000000000014 0 11.220000000000027 0 17 0 C17 9.405511734855963 15.511734276432946 14.508320970667214 10.875 22.5 C7.688263962511712 28.228158027385234 5.876809688203139 32.93823038408348 7.671875 39.4296875 C9.685101969787297 44.72678469099779 12.3132166026341 49.76258512079676 14.94921875 54.7734375 C18.668354055362556 62.6541331284634 18.11388802415786 72.79841759164174 15.3125 80.875 C13.646747093984516 84.92378731248601 11.542770506964871 88.45201336964914 9.10546875 92.07421875 C7.290280234483248 95.23636694134186 6.699253788448061 98.44016253153723 6 102 C0.7200000000000273 102 -4.560000000000002 102 -10 102 C-10.592164849209666 92.82144483725051 -8.132305969508081 86.33097580372498 -3.25 78.625 C-0.18831171779908118 73.20743319535788 0.12004028188187021 68.0746629177064 -1 62 C-2.2853174044068965 59.02368688542032 -3.794294275400432 56.34275679525646 -5.46484375 53.56640625 C-10.853856205607542 44.55729382421336 -11.66753583384741 34.1004751634794 -9.2734375 23.90625 C-7.464883690978581 18.671736536490855 -5.019292850325883 13.934367702679737 -2.05078125 9.265625 C-1 7 -1 7 0 0 Z " fill="#000000" transform="translate(278,93)"/>
<path d="M0 0 C5.280000000000001 0 10.560000000000002 0 16 0 C16.0373828125 2.4853125000000205 16.074765624999998 4.970624999999984 16.11328125 7.53125 C16.15978198518505 9.997311658906881 16.2109102826291 12.463238316838783 16.262451171875 14.92919921875 C16.295257684968192 16.614333769341897 16.3234196064015 18.2995665752116 16.346435546875 19.98486328125 C16.558611053623878 35.126068592648835 17.946644502582615 49.143745659126864 23.9140625 63.23046875 C25 66 25 66 26 71 C21.05000000000001 73.31 16.099999999999994 75.62 11 78 C4.3628014022961 63.367994000516376 -0.18977273613808165 49.24206253800378 -0.09765625 33.0078125 C-0.09624130249022755 32.06187225341796 -0.09482635498045511 31.11593200683592 -0.0933685302734375 30.141326904296875 C-0.08779484267230941 27.135851714318164 -0.07524719759246068 24.13045247387521 -0.0625 21.125 C-0.05748159943343012 19.08073024662093 -0.052919286982330505 17.036459319332835 -0.048828125 14.9921875 C-0.03783402829739657 9.99476263979301 -0.020587566316947914 4.997394174595968 0 0 Z " fill="#000000" transform="translate(165,314)"/>
<path d="M0 0 C5.610000000000014 0 11.220000000000027 0 17 0 C18.294174002440798 2.561260642039855 19.585407843190808 5.123933584474514 20.875 7.6875 C21.239804687499998 8.408730468750008 21.604609374999995 9.129960937499987 21.98046875 9.873046875 C23.002620979379742 11.908059040765124 24.003157772972486 13.95250418040257 25 16 C25.407343749999995 16.8056640625 25.81468749999999 17.611328125 26.234375 18.44140625 C28.532206452367348 26.120383807656225 28.586171180091753 37.70668014189903 25.3125 45.0625 C24.571047335032574 46.391818706477295 23.79888020134041 47.704380186287636 23 49 C22.08905862262901 50.72125550956727 21.19365395031616 52.450807039783825 20.3125 54.1875 C20.104316406250007 54.57615234374998 20.104316406250007 54.57615234374998 19.05078125 56.54296875 C18 59 18 59 17 65 C11.389999999999986 65 5.779999999999973 65 0 65 C0.44546682646688396 56.2020301772786 2.1149109416199963 50.171849988175495 6.375 42.53515625 C9.419270913907667 36.922281752482746 11.267852583954948 32.42068464534984 10 26 C8.489895308902817 21.891288759248283 6.231396585597054 18.360706442254212 3.875 14.6875 C1.1912371270829567 10.14412190805379 0.763833607354627 5.155876849643647 0 0 Z " fill="#000000" transform="translate(301,181)"/>
</svg>
