<?xml version="1.0" encoding="UTF-8"?>
<!-- Generator: visioncortex VTracer 0.6.12 -->
<svg version="1.1" xmlns="http://www.w3.org/2000/svg" width="601" height="601">
<path d="M0 0 C11.40140882027353 8.117052369988983 20.21558256107869 20.174486572792404 23.4609375 33.94140625 C24.296311696298687 40.607523573999686 24.059795336868376 47.325320005603174 23.84765625 54.02734375 C24.555351562499993 54.131757812499984 25.263046874999986 54.236171875 25.9921875 54.34375 C37.84028153786858 57.18016102137756 47.91457010302747 66.98171656094627 54.22265625 77.02734375 C60.04525611845804 87.5705259976881 63.35896360325876 97.6798276598185 62.22265625 109.77734375 C62.1640625 113.09765624999994 62.1640625 113.09765624999994 62.84765625 116.02734375 C65.53389630323721 118.37722784459856 68.25278170218701 119.696633369995 71.46875 121.234375 C84.49020848907378 128.14402753928886 91.62763900604375 141.48000634119683 95.84765625 155.02734375 C96.75037494655123 158.0969129156399 96.96480645699239 160.81470980325184 96.9453125 164.01171875 C96.94208984375001 164.9462890625 96.93886718750002 165.880859375 96.935546875 166.84375 C96.92716796874998 167.8118359375 96.91878906250003 168.779921875 96.91015625 169.77734375 C96.90564453125 170.76089843750003 96.90113281250001 171.744453125 96.896484375 172.7578125 C96.88472107811492 175.18105165832583 96.86828308633665 177.6041664843575 96.84765625 180.02734375 C97.78949044227602 180.023656578064 98.73132463455198 180.01996940612793 99.70169925689697 180.01617050170898 C122.62003965089605 179.9273668878427 145.53835772667253 179.8616381743717 168.4568338394165 179.82009506225586 C179.54005104319924 179.79947106363716 190.62315458082753 179.77135344982037 201.706298828125 179.7255859375 C211.36652433711618 179.68571334593986 221.0266675241084 179.65990975825008 230.68697303533554 179.65098977088928 C235.80191770500164 179.645775768548 240.91662686680434 179.63352414747214 246.03149604797363 179.60442352294922 C250.84709727514132 179.57724786511665 255.66236625434476 179.56890315185927 260.47803688049316 179.57491302490234 C262.2440903333949 179.5738137551199 264.0101550425616 179.56587267938698 265.7761421203613 179.55052185058594 C268.1913414615448 179.53055980569945 270.6052936415163 179.5354265249543 273.02052307128906 179.54632568359375 C273.7160676676035 179.5346743178368 274.4116122639179 179.52302295207977 275.1282339692116 179.51101851463318 C280.4963329125958 179.57630137819933 283.49331045113155 181.1246011375248 287.84765625 184.02734375 C293.5199267234308 189.99692811028677 292.41154599589595 199.15224917133253 292.34375 206.78125 C292.3439052571134 208.21036349980147 292.34539864814053 209.6394774159579 292.34815979003906 211.06858825683594 C292.3495382171433 214.05169477209182 292.3370787790618 217.0343172316339 292.314208984375 220.017333984375 C292.2857995343154 223.82582950812434 292.28857587368657 227.63352349794434 292.3012990951538 231.44207859039307 C292.30827922717776 234.38908135808128 292.300440979071 237.33590136775155 292.28804206848145 240.28288078308105 C292.2835520025311 241.68658686275091 292.28316921255737 243.09031272573873 292.28710746765137 244.49402046203613 C292.31095558334255 260.46784165739797 292.31095558334255 260.46784165739797 286.59765625 266.33984375 C281.30670588366434 269.58656329297867 277.04059527599287 270.02734375 270.84765625 270.02734375 C270.84765625 277.94734375 270.84765625 285.86734375 270.84765625 294.02734375 C273.5095703125 293.957734375 276.171484375 293.888125 278.9140625 293.81640625 C281.5088268596975 293.7695360962099 284.1035430332871 293.7331491498824 286.698486328125 293.69775390625 C288.4939504624249 293.6676867117799 290.28926899066687 293.62682034531343 292.084228515625 293.57470703125 C294.67370598506614 293.5014402623504 297.2612332412838 293.46778884198966 299.8515625 293.44140625 C300.2490998077393 293.4259223937988 300.2490998077393 293.4259223937988 302.26087951660156 293.3475646972656 C307.6606507901196 293.3443459281683 310.60475416837403 294.60910844137334 314.47369384765625 298.4109649658203 C318.2163089683643 302.81391199562495 318.1554578815716 307.4075829570313 318.1484375 312.9609375 C318.1527226257324 313.7164942932129 318.1570077514648 314.4720510864258 318.1614227294922 315.25050354003906 C318.1671470139495 316.84318035109385 318.16768034532106 318.4358832963709 318.163330078125 320.028564453125 C318.16017070842554 322.4537452401447 318.18364934034844 324.8777042135392 318.208984375 327.302734375 C318.2112577759476 328.85546722221164 318.2119606742974 330.4082033256236 318.2109375 331.9609375 C318.22014724731446 332.6798667907715 318.2293569946289 333.39879608154297 318.2388458251953 334.13951110839844 C318.19602887179485 338.8422802060143 317.32418946734265 342.0339477837616 314.84765625 346.02734375 C311.10847078377776 349.40173063415176 308.73068315902185 351.1603228127396 303.71484375 351.125 C302.98894042968755 351.12250244140625 302.263037109375 351.1200048828125 301.51513671875 351.117431640625 C301.05437744140625 351.11287963867187 301.05437744140625 351.11287963867187 298.72265625 351.08984375 C295.79390624999996 351.06921875 292.8651562499999 351.04859375 289.84765625 351.02734375 C289.84765625 359.93734375 289.84765625 368.84734375 289.84765625 378.02734375 C297.7676562500001 378.02734375 305.6876562499999 378.02734375 313.84765625 378.02734375 C313.84765625 383.30734375 313.84765625 388.58734375 313.84765625 394.02734375 C156.43765625000003 394.02734375 -0.9723437499999932 394.02734375 -163.15234375 394.02734375 C-163.15234375 388.74734375 -163.15234375 383.46734375 -163.15234375 378.02734375 C-119.59234375 378.02734375 -76.03234375 378.02734375 -31.15234375 378.02734375 C-31.15234375 351.62734375 -31.15234375 325.22734375 -31.15234375 298.02734375 C-34.45234375000001 299.34734375 -37.752343749999994 300.66734375 -41.15234375 302.02734375 C-56.37288431585864 305.98073090996326 -71.8621904523311 304.4838472603844 -85.96484375 297.40234375 C-96.095422898248 291.3239962610512 -103.56243328456925 283.38242379251926 -109.15234375 273.02734375 C-109.56226562500001 272.277109375 -109.97218749999999 271.526875 -110.39453125 270.75390625 C-113.35318312645742 264.7718144997905 -114.30646917107613 258.6051315940001 -115.15234375 252.02734375 C-116.41046875 251.67671875000002 -117.66859375 251.32609374999998 -118.96484375 250.96484375 C-132.91640920086786 246.28502730742542 -142.16356058169538 236.59672243329408 -149.15234375 224.02734375 C-156.44387661868944 209.2857664285192 -156.7696669720773 193.6457893458902 -152.15234375 178.02734375 C-148.77515862472308 169.1405841735501 -143.69053696167322 162.8059117121024 -137.15234375 156.02734375 C-135.44804433671888 154.05477498462835 -133.80030378762135 152.04742379611648 -132.15234375 150.02734375 C-132.6486328125 149.540078125 -133.144921875 149.0528125 -133.65625 148.55078125 C-144.3636952647102 137.37602812743717 -150.14993113999532 123.48497377918676 -150.2421875 107.9453125 C-149.88172013219446 92.29656934712287 -144.30353805554537 78.28269034413245 -133.58984375 66.77734375 C-121.96494109518693 55.80612103170378 -108.57864779734861 50.53147368597868 -92.609375 50.921875 C-92.20396484374999 50.93927734375001 -92.20396484374999 50.93927734375001 -90.15234375 51.02734375 C-90.16974609375 50.699921875 -90.16974609375 50.699921875 -90.2578125 49.04296875 C-90.69133313798238 34.42713009802253 -85.77965662893862 20.325896326550435 -76.33984375 9.08984375 C-56.0721897489351 -11.918359147257647 -24.568550222353792 -15.310835645814691 0 0 Z M-64.0703125 21.41796875 C-72.20787065959695 31.616634510995794 -74.36476328386192 42.2551807270128 -73.15234375 55.02734375 C-72.20028162924345 60.45515178161949 -70.70696290848065 65.74580276962607 -69.15234375 71.02734375 C-69.78591796875 70.88296875 -69.78591796875 70.88296875 -72.9921875 70.15234375 C-74.69129718640872 69.77684989664999 -76.39052222706965 69.40187775654312 -78.08984375 69.02734375 C-78.92064453124999 68.83656250000001 -79.75144531250001 68.64578125 -80.607421875 68.44921875 C-92.8890201658565 65.77307281891842 -104.04717731196659 66.94551343695338 -114.96484375 73.71484375 C-123.89321684488743 80.23058661520278 -130.50165722106308 88.95845396933117 -132.83203125 99.84765625 C-134.49225582064545 111.14528198683132 -132.23192874986285 121.7976716223032 -125.96484375 131.40234375 C-117.80380373243038 141.99976940955804 -105.83621770179245 147.13998235181825 -94.15234375 153.02734375 C-94.41394287109375 153.11765869140623 -94.41394287109375 153.11765869140623 -95.73779296875 153.57470703125 C-126.28470083363888 164.2140370972828 -126.28470083363888 164.2140370972828 -134.02734375 179.08984375 C-138.7651653857332 189.61833627385158 -140.06550372975232 200.53639603005934 -136.18359375 211.625 C-131.17542030100435 223.29176769368303 -123.71453848092997 231.12704807897433 -111.94921875 236.0625 C-107.75497288840951 237.5093976645431 -103.5373676327163 238.3900409297354 -99.15234375 239.02734375 C-99.1265625 239.9825390625 -99.10078125 240.937734375 -99.07421875 241.921875 C-98.45755179079364 255.97907863827197 -94.9785841388634 267.8011156509558 -84.46484375 277.77734375 C-74.56267476779959 285.9814529260042 -63.656185119879495 287.95403763023114 -51.15234375 287.02734375 C-43.61681932507909 285.4685768772327 -36.4881539891432 282.7531110856096 -31.15234375 277.02734375 C-27.664516445420276 269.1274906754434 -27.74071412026416 259.4656457156525 -27.33984375 250.96484375 C-27.27442382812501 249.69199523925784 -27.209003906250018 248.4191467285156 -27.1416015625 247.10772705078125 C-26.615444185036893 227.8194130523009 -31.6364754557257 215.61825041852444 -44.727468490600586 201.5214138031006 C-56.920266686736824 188.72802037072415 -70.40414218260872 177.10877121914814 -84.15234375 166.02734375 C-82.54699088158637 162.616749718273 -80.74715474444184 160.40941890591148 -78.02734375 157.77734375 C-77.302890625 157.0709375 -76.5784375 156.36453125000003 -75.83203125 155.63671875 C-75.55488281250001 155.37117187500002 -75.55488281250001 155.37117187500002 -74.15234375 154.02734375 C-70.88084325273792 155.45891861386724 -68.72976883820328 157.21057980669593 -66.225830078125 159.74267578125 C-65.46857131958006 160.50331329345704 -64.71131256103516 161.26395080566408 -63.93110656738281 162.04763793945313 C-63.123685150146486 162.86851898193356 -62.31626373291016 163.68940002441406 -61.484375 164.53515625 C-60.648956756591815 165.3757760620117 -59.81353851318357 166.21639587402342 -58.95280456542969 167.08248901367188 C-56.28536682551456 169.76774448632068 -53.62471121514392 172.45959099988858 -50.96484375 175.15234375 C-48.29339694266332 177.8513510115256 -45.6205300024817 180.5489123127693 -42.94474792480469 183.24362182617188 C-41.27934053618125 184.9213481065044 -39.61661229015971 186.6017386442453 -37.95674133300781 188.28494262695313 C-37.2089390563965 189.0392758178711 -36.461136779785136 189.79360900878908 -35.690673828125 190.57080078125 C-35.02989334106445 191.2398342895508 -34.3691128540039 191.9088677978516 -33.68830871582031 192.59817504882813 C-32.15234375 194.02734375 -32.15234375 194.02734375 -31.15234375 194.02734375 C-31.15234375 153.43734375 -31.15234375 112.84734375 -31.15234375 71.02734375 C-25.87234375 71.02734375 -20.592343749999998 71.02734375 -15.15234375 71.02734375 C-15.15234375 94.12734375 -15.15234375 117.22734374999999 -15.15234375 141.02734375 C-11.086124185979202 137.54201269512504 -7.265581077007738 134.2654952180808 -3.53125 130.50390625 C-2.74169921875 129.7111328125 -1.9521484375 128.918359375 -1.138671875 128.1015625 C-0.3388085937500023 127.29332031249999 0.46105468749999545 126.485078125 1.28515625 125.65234375 C2.112089843749999 124.8208984375 2.9390234374999977 123.98945312500001 3.791015625 123.1328125 C5.812211561154669 121.09993335034156 7.831019599962929 119.06474412287128 9.84765625 117.02734375 C13.258250281727015 118.63269661841363 15.465581094088492 120.4325327555581 18.09765625 123.15234375 C18.804062499999986 123.876796875 19.51046875 124.60125 20.23828125 125.34765625 C20.769374999999997 125.901953125 21.300468749999993 126.45625000000001 21.84765625 127.02734375 C18.427684914730037 131.35888488059211 14.964301212714958 134.90021962129555 10.491399765014648 138.13196754455566 C-2.1917376531107493 147.34489387202984 -14.746898521893797 158.14030319297297 -17.328786849975586 174.2834987640381 C-18.858039352429387 188.3961137137777 -18.088675652533965 202.62026479057607 -17.28094482421875 216.757080078125 C-16.959008772317247 223.00331811099375 -16.82125839203843 229.25365174820377 -16.666015625 235.505859375 C-16.33727985648025 247.69017689311056 -15.811175768772557 259.85671013278704 -15.15234375 272.02734375 C-13.719283377420993 272.52272002879084 -12.284648420054623 273.013542780817 -10.849365234375 273.50244140625 C-10.05062484741211 273.7762564086914 -9.251884460449219 274.0500714111328 -8.428939819335938 274.3321838378906 C0.409452826296274 277.0309920882791 10.22129908046307 274.99783824246936 18.22265625 270.7734375 C26.277083988067915 265.7802365204883 32.52879335103569 258.9725255816145 35.84765625 250.02734375 C36.46452158518821 246.32566108348294 36.56550200610877 242.66174309537485 36.640625 238.9140625 C36.65880531311035 238.38896339416505 36.65880531311035 238.38896339416505 36.75080871582031 235.7316436767578 C36.863020920616066 232.3929936221275 36.94996280184773 229.05428211283976 37.03515625 225.71484375 C37.13642613767297 222.38647233438155 37.2429376806931 219.0583153024739 37.35163879394531 215.7301788330078 C37.41726315396977 213.66669675738115 37.47774471704139 211.60304190220745 37.53202819824219 209.5392303466797 C38.10590318919867 189.29595826200148 38.10590318919867 189.29595826200148 42.84765625 184.02734375 C49.55962569095573 178.3024286385966 61.61404438609537 179.7891919202915 69.97265625 179.46484375 C71.02453125 179.42166015625003 72.07640624999999 179.3784765625 73.16015625 179.333984375 C75.72256252299474 179.22915866383204 78.28504424410619 179.12699020334242 80.84765625 179.02734375 C81.47314793670375 164.66420131458028 79.26803291709336 153.10733154263679 70.03125 141.8046875 C62.21013137134423 133.35155928519026 52.88185590736509 130.35931378068025 41.84765625 128.02734375 C42.13640624999999 127.1559375 42.425156249999986 126.28453124999999 42.72265625 125.38671875 C46.67270781379415 112.71363664949376 47.597817784319545 101.59963896309841 41.55859375 89.4296875 C35.34690805166048 78.41806285294354 27.48516567212235 72.34023761385455 15.47265625 68.2109375 C11.871400171793823 67.23559731215249 8.554393292270674 66.96376335476378 4.84765625 67.02734375 C5.064218750000009 66.0489453125 5.28078124999999 65.07054687499999 5.50390625 64.0625 C8.555635390236887 49.90551585566456 9.168080215843531 38.130130591847944 1.16015625 25.21484375 C-5.802672985678896 15.751646908491267 -14.661453084569757 9.689525588494448 -26.28515625 7.4140625 C-40.998122450122764 5.429616105160548 -53.91447348736753 10.81747829198082 -64.0703125 21.41796875 Z M53.84765625 196.02734375 C53.84765625 214.83734375 53.84765625 233.64734375 53.84765625 253.02734375 C126.77765625 253.02734375 199.70765625 253.02734375 274.84765625 253.02734375 C274.84765625 234.21734375 274.84765625 215.40734375 274.84765625 196.02734375 C201.91765625 196.02734375 128.98765625 196.02734375 53.84765625 196.02734375 Z M40.50732421875 271.8759765625 C39.14699354291781 273.54347868126206 37.79928382568983 275.22026188071925 36.45703125 276.90234375 C29.68703925815737 285.36734114424473 18.483149516828234 288.6544830741045 8.22265625 290.77734375 C0.22250072570275847 291.3699478629109 -7.1044896094567775 290.8321291640543 -15.15234375 290.02734375 C-15.15234375 319.06734375 -15.15234375 348.10734375000004 -15.15234375 378.02734375 C2.9976562500000057 378.02734375 21.14765625000001 378.02734375 39.84765625 378.02734375 C39.84765625 369.11734375000003 39.84765625 360.20734375 39.84765625 351.02734375 C31.222656250000853 350.71484375 31.222656250000853 350.71484375 28.54052734375 350.639404296875 C23.664202889145997 350.4138619436404 19.99296729618169 349.84690216429476 15.84765625 347.02734375 C12.333018815069352 342.60033812588523 12.394423303884992 338.62720944056673 12.4140625 333.21875 C12.40882064819337 332.3744090270996 12.40357879638671 331.5300680541992 12.398178100585938 330.66014099121094 C12.391771256199434 328.87915137421624 12.393077562925612 327.09811936754505 12.401611328125 325.317138671875 C12.410118382084391 322.60193010672344 12.381347943492898 319.88882892592255 12.349609375 317.173828125 C12.3479970188435 315.4388027103664 12.34857555277091 313.7037735927108 12.3515625 311.96875 C12.345945510864254 311.5655377960205 12.345945510864254 311.5655377960205 12.317520141601563 309.52503967285156 C12.382187379330105 304.25693339114207 13.27889975422093 301.15444238869884 16.84765625 297.02734375 C20.445272980772643 294.2050226179373 24.947310290588973 294.67750060976255 29.33203125 294.61328125 C30.14762512207031 294.59391510009766 30.963218994140618 294.5745489501953 31.80352783203125 294.5545959472656 C34.40146517406197 294.4949479978959 36.999447182438644 294.44847433451747 39.59765625 294.40234375 C41.3619981940721 294.3641503268849 43.1263217647155 294.32509779661433 44.890625 294.28515625 C49.20953831708181 294.18764550718726 53.52826244165789 294.1079611197038 57.84765625 294.02734375 C57.84765625 286.10734375 57.84765625 278.18734375 57.84765625 270.02734375 C45.544731987994396 266.32323752057897 45.544731987994396 266.32323752057897 40.50732421875 271.8759765625 Z M74.84765625 270.02734375 C74.84765625 277.94734375 74.84765625 285.86734375 74.84765625 294.02734375 C134.24765624999998 294.02734375 193.64765625 294.02734375 254.84765625 294.02734375 C254.84765625 286.10734375 254.84765625 278.18734375 254.84765625 270.02734375 C195.44765625000002 270.02734375 136.04765625 270.02734375 74.84765625 270.02734375 Z M27.84765625 310.02734375 C27.84765625 317.94734375 27.84765625 325.86734375 27.84765625 334.02734375 C117.93765625000003 334.02734375 208.02765625 334.02734375 300.84765625 334.02734375 C300.84765625 326.10734375 300.84765625 318.18734375 300.84765625 310.02734375 C210.75765624999997 310.02734375 120.66765625 310.02734375 27.84765625 310.02734375 Z M56.84765625 351.02734375 C56.84765625 359.93734375 56.84765625 368.84734375 56.84765625 378.02734375 C128.12765624999997 378.02734375 199.40765625 378.02734375 272.84765625 378.02734375 C272.84765625 369.11734375 272.84765625 360.20734375 272.84765625 351.02734375 C201.56765625000003 351.02734375 130.28765625 351.02734375 56.84765625 351.02734375 Z " fill="#FFFFFF" transform="translate(223.15234375,101.97265625)"/>
</svg>
