<?xml version="1.0" encoding="UTF-8"?>
<!-- Generator: visioncortex VTracer 0.6.12 -->
<svg version="1.1" xmlns="http://www.w3.org/2000/svg" width="601" height="601">
<path d="M0 0 C2.39025968927956 -0.002025260949181984 4.780518772625726 -0.00494044755316736 7.1707763671875 -0.008697509765625 C12.159972447079554 -0.013099549790808851 17.14900647760851 -0.006758358341272697 22.13818359375 0.00732421875 C28.49934543429174 0.024414544975570607 34.860127387624516 0.014561963310029569 41.221275329589844 -0.0033931732177734375 C46.15096849940568 -0.014288441201216528 51.08057317599207 -0.010758406401777165 56.01026916503906 -0.003009796142578125 C58.35437567343149 -0.0010236406660624198 60.69849049542489 -0.003410646209914603 63.04258728027344 -0.010448455810546875 C82.99070850340411 -0.05721174745741564 100.69072296663239 0.5587601948441261 116.0546875 14.97265625 C120.12944752238178 19.412000063858045 123.43618512798912 24.37654642281808 126.8388671875 29.33251953125 C129.51222610620715 33.161558659567504 132.31130455823813 36.89835071387094 135.09375 40.6484375 C142.43868727412905 50.58371453927998 149.66867905070342 60.599594239352314 156.8857421875 70.6279296875 C162.3950137268087 78.28062602021754 167.9159378043134 85.92320267173073 173.51708984375 93.509033203125 C174.68701891216324 95.09360223060355 175.85533180010094 96.6793658841766 177.02197265625 98.266357421875 C179.99724296392225 102.31340977835367 182.99156565911647 106.34375198127128 186.01953125 110.3515625 C187.21122769592256 111.95030456332688 188.40264416787278 113.54925536498604 189.59375 115.1484375 C190.15126953125002 115.87482421875 190.7087890625 116.60121093750001 191.283203125 117.349609375 C194.4547962501311 121.64105883687347 196.35065709188274 124.87110909188215 196.28125 130.3984375 C194.51466024152336 136.59855367936393 191.29696090146314 139.67878560358508 186.46875 143.5859375 C185.1235540079291 144.70946313732065 183.77850564588027 145.8331655520093 182.43359375 146.95703125 C181.74765136718747 147.5227685546875 181.061708984375 148.088505859375 180.35498046875 148.67138671875 C178.30645053301248 150.3774499122286 176.2916375845814 152.1158570467718 174.28515625 153.87109375 C173.65391845703124 154.42192626953124 173.02268066406248 154.97275878906248 172.372314453125 155.540283203125 C171.16730930365355 156.59284505428116 169.96395319352018 157.64729850125366 168.762451171875 158.703857421875 C165.11859992718234 161.85368186954685 162.8190902297447 163.25335823304295 157.96875 163.7109375 C151.50461278699095 163.1631292616094 147.7672992217171 159.13898419262256 143.7412109375 154.424560546875 C143.21817382812497 153.79718994140626 142.69513671875 153.16981933593752 142.15625 152.5234375 C141.597119140625 151.86577392578124 141.03798828125002 151.20811035156248 140.4619140625 150.530517578125 C139.30132387074718 149.1646851422763 138.14378539308717 147.79625390972268 136.9892578125 146.42529296875 C134.3535901625791 143.29760388503888 131.6924564982342 140.19189475354483 129.03125 137.0859375 C128.78314575195316 136.79545532226564 128.78314575195316 136.79545532226564 127.527587890625 135.325439453125 C124.60031605282444 131.90582939031958 121.6238657145197 128.54038873571142 118.59375 125.2109375 C115.56412131638729 121.87616635904504 112.67516907732778 118.46556111319592 109.84375 114.9609375 C105.20833694849307 109.22809450343664 100.29025107626131 103.80481235684152 95.28125 98.3984375 C97.80918275325428 105.31875839262966 100.61502744287714 112.10671512227003 103.46875 118.8984375 C103.73569671630855 119.53482147216795 104.00264343261722 120.17120544433595 104.27767944335938 120.82687377929688 C109.9537620583223 134.35048937734211 115.74047395569715 147.8266886116553 121.52481079101563 161.30426025390625 C124.64202416214971 168.5694513716831 127.7545184776115 175.83666646658833 130.86729431152344 183.103759765625 C133.63145881249557 189.55527373877368 136.40287593271177 196.00357741251275 139.1822967529297 202.4485321044922 C140.70743525858632 205.99103547780362 142.22383438710568 209.5372232974687 143.73739624023438 213.08468627929688 C144.42624431560614 214.69403918814606 145.11889687142911 216.30176967531304 145.81558227539063 217.90774536132813 C146.762039604356 220.0906309087905 147.69511361641105 222.27876515838983 148.625 224.46875 C149.14255859374998 225.67289550781254 149.66011718750002 226.87704101562497 150.193359375 228.11767578125 C151.30701347359536 231.47613264321683 151.64770793379904 233.8899186958859 151.28125 237.3984375 C149.41415089594773 239.70119306166453 147.92477258884912 241.07667620557544 145.28125 242.3984375 C142.21882679094188 242.4855552531024 139.17938535038115 242.51392210264544 136.1171875 242.49609375 C135.20997955322264 242.49467880249023 134.30277160644533 242.49326385498046 133.36807250976563 242.49180603027344 C130.46409844505428 242.48619845532357 127.560200849909 242.47364468255 124.65625 242.4609375 C122.6901052783694 242.45592347512581 120.72395935099166 242.45136039934812 118.7578125 242.447265625 C113.9322621012625 242.43622656352227 109.10676902545055 242.4189568468961 104.28125 242.3984375 C104.3772196960449 243.1976512145996 104.47318939208981 243.9968649291992 104.57206726074219 244.82029724121094 C107.36199777016282 268.1254545299825 109.98337681541841 291.4468845782409 112.483154296875 314.784912109375 C112.89382859422727 318.6142886726441 113.31022604147466 322.442982596007 113.731201171875 326.271240234375 C114.25015901404163 330.99092033484067 114.75960119087176 335.71153678500303 115.26224327087402 340.43298149108887 C115.45232308439893 342.2038259340135 115.64565446021072 343.97432483959886 115.84247779846191 345.7444324493408 C116.1148212445031 348.199914824552 116.37485430885141 350.65641961096935 116.632080078125 353.113525390625 C116.71354782104493 353.8225651550292 116.79501556396485 354.5316049194337 116.87895202636719 355.2621307373047 C117.53101900932091 361.7135621428921 118.0656719317131 368.2022258917377 113.84375 373.3984375 C107.81686483390797 378.10234787353534 99.73639652113775 376.7011677013761 92.3701171875 376.74853515625 C90.48457479309002 376.7650750018149 88.599094590233 376.79233909149787 86.7138671875 376.83056640625 C83.99120656836357 376.88547801116067 81.27001562958344 376.90723176169286 78.546875 376.921875 C77.7091656494141 376.94454437255854 76.8714562988281 376.9672137451172 76.00836181640625 376.9905700683594 C72.00105364204438 376.97618454671465 69.11073242752292 376.72653690766765 65.8271484375 374.30322265625 C60.76875998092453 368.5317702342769 60.55884488606671 360.42047782666396 59.49365234375 353.050537109375 C59.32754959106444 351.927738494873 59.16144683837888 350.8049398803711 58.99031066894531 349.6481170654297 C58.444506500149316 345.9496880305142 57.90563769907021 342.2502875405227 57.3671875 338.55078125 C56.989194192114155 335.974368092264 56.61090415716973 333.39799845228794 56.232330322265625 330.82167053222656 C55.44055388250263 325.4280743267675 54.65272137902423 320.033912970558 53.8671875 314.639404296875 C52.96035940751631 308.41230943237974 52.04702298687425 302.18619519473737 51.13025891780853 295.9605559706688 C50.24637851432249 289.9570271286556 49.36737375703001 283.9527953860935 48.4904670715332 277.94824409484863 C48.11772126504525 275.3991742088929 47.743723043915 272.8502871356359 47.36845016479492 270.3015880584717 C46.844799559254 266.74063566223805 46.32669257875659 263.17891957516156 45.81005859375 259.616943359375 C45.73214836120604 259.09088500976566 45.73214836120604 259.09088500976566 45.33787536621094 256.4287109375 C45.19772506713866 255.45453720092775 45.05757476806639 254.4803634643555 44.913177490234375 253.47666931152344 C44.790411281585705 252.63586791038517 44.667645072937034 251.7950665092468 44.54115867614746 250.928786277771 C44.250483217988176 248.0989065631586 44.28125 245.24320663318997 44.28125 242.3984375 C35.70124999999996 242.72843750000004 27.121250000000032 243.05843749999997 18.28125 243.3984375 C17.660808105468732 247.15887451171875 17.040366210937464 250.9193115234375 16.401123046875 254.793701171875 C14.351203072253838 267.2085065277201 12.289822518367487 279.6213857259101 10.222506523132324 292.03330516815186 C8.969196418727279 299.5597613225856 7.719827463853903 307.0868320736662 6.479736328125 314.615478515625 C5.398781948603755 321.1779364887921 4.3104318687387035 327.73911756834406 3.2132075428962708 334.2988756299019 C2.6325679904028902 337.77181517134153 2.0556340961299497 341.24527880990473 1.4875545501708984 344.7202968597412 C0.8530328679864851 348.6008783347951 0.2020017695128331 352.478590166859 -0.450439453125 356.356201171875 C-0.6360191345214616 357.5070671081543 -0.8215988159179801 358.65793304443355 -1.0128021240234375 359.8436737060547 C-1.1936233520507926 360.90231628417973 -1.3744445800781477 361.96095886230466 -1.5607452392578125 363.0516815185547 C-1.712841081619274 363.9688655376434 -1.8649369239807356 364.88604955673213 -2.021641731262207 365.8310270309448 C-3.026420112427786 369.5315691856888 -4.775334057220334 372.36202466683676 -7.345947265625 375.18603515625 C-11.035323592659438 377.071151201116 -14.598395642870571 376.8264570884278 -18.68359375 376.796875 C-19.553917388916034 376.7997451782227 -20.42424102783201 376.80261535644536 -21.320938110351563 376.8055725097656 C-23.15919648718193 376.807611369263 -24.997476645823298 376.8020939448977 -26.835693359375 376.78955078125 C-29.64291170809352 376.77351369901896 -32.4486861172486 376.78939519549726 -35.255859375 376.80859375 C-37.04427400014117 376.80661090655974 -38.8326877293423 376.8027663803409 -40.62109375 376.796875 C-41.45769027709963 376.80294769287116 -42.2942868041992 376.8090203857422 -43.15623474121094 376.8152770996094 C-47.8422884161688 376.75900886090517 -50.897135199575075 376.40370974783264 -54.71875 373.3984375 C-58.383483021364924 369.1018539577101 -57.965841194770064 364.7623756845826 -57.71875 359.3984375 C-57.393173557955606 355.67957661242235 -56.930087305382386 351.98415439646135 -56.449462890625 348.282470703125 C-56.31451919555664 347.2081478881836 -56.17957550048828 346.1338250732422 -56.04054260253906 345.0269470214844 C-55.59619157724336 341.5003358388999 -55.14390223422163 337.9747933204928 -54.69140625 334.44921875 C-54.37946394027145 331.9878657834387 -54.06798312722168 329.5264542885784 -53.75694274902344 327.0649871826172 C-53.105402902380064 321.9178095503892 -52.45028469027878 316.7711053995917 -51.792236328125 311.624755859375 C-50.94915877537315 305.0313290431951 -50.11193897637486 298.43718682112905 -49.27700138092041 291.84272480010986 C-48.47944250790147 285.5446598380477 -47.67943328632373 279.2469070387611 -46.87890625 272.94921875 C-46.7265507698059 271.7497542762756 -46.57419528961182 270.5502898025513 -46.41722297668457 269.3144779205322 C-45.9852826420657 265.9182217433845 -45.55165638588193 262.5221854751254 -45.117431640625 259.126220703125 C-44.990116577148456 258.12399978637694 -44.862801513671855 257.1217788696289 -44.73162841796875 256.0891876220703 C-44.14413993485209 251.50843067271416 -43.52439637974982 246.94726015828115 -42.71875 242.3984375 C-44.025456542968755 242.419384765625 -45.33216308593751 242.44033203125002 -46.678466796875 242.4619140625 C-51.53317274054547 242.5343930337271 -56.3878309821996 242.58026624859258 -61.242919921875 242.6181640625 C-63.34293666983547 242.6382614675125 -65.44289758193315 242.66554416205105 -67.542724609375 242.7001953125 C-70.5637795813991 242.7487952032257 -73.5840937658169 242.77142511545378 -76.60546875 242.7890625 C-77.07378868103027 242.79938507080078 -77.07378868103027 242.79938507080078 -79.44377136230469 242.85162353515625 C-83.60819305383149 242.85305240649132 -86.0963815631454 242.74553425329873 -89.788330078125 240.6865234375 C-91.98713821434376 238.08032262143297 -92.61948593969447 236.7942963397722 -92.71875 233.3984375 C-92.085205078125 230.921142578125 -92.085205078125 230.921142578125 -90.92578125 228.10546875 C-90.4560791015625 226.9538525390625 -89.98637695312499 225.802236328125 -89.50244140625 224.61572265625 C-88.90913311610069 223.209430582216 -88.31444604461092 221.8037198015628 -87.71875 220.3984375 C-87.37261657714845 219.57293395996095 -87.02648315429687 218.7474304199219 -86.66986083984375 217.89691162109375 C-83.61525815609173 210.61232937420493 -80.51229613906418 203.34869683592916 -77.40625 196.0859375 C-76.39646385217787 193.7195606245583 -75.38686445664888 191.353104049963 -74.37744140625 188.986572265625 C-69.22454073110845 176.91188506210727 -64.05470893333847 164.84450964425264 -58.87243843078613 152.7824001312256 C-58.0474733733613 150.86204835198703 -57.22278091508349 148.94157973972324 -56.39817810058594 147.0210723876953 C-55.85635924494531 145.75924447086527 -55.314534940324506 144.49741889376946 -54.772705078125 143.235595703125 C-54.640026526451095 142.9266016626358 -54.640026526451095 142.9266016626358 -53.96859264373779 141.36290454864502 C-52.15742922865337 137.14583597565132 -50.34217371675868 132.93054186962354 -48.526123046875 128.715576171875 C-39.43161775609826 107.57251060653556 -39.43161775609826 107.57251060653556 -35.71875 97.3984375 C-36.11255859375001 97.85283203124999 -36.11255859375001 97.85283203124999 -38.10546875 100.15234375 C-38.62504150390623 100.75183837890626 -39.14461425781252 101.35133300781251 -39.679931640625 101.968994140625 C-40.84713598563073 103.31579378012464 -42.014289572300385 104.662637410765 -43.181396484375 106.009521484375 C-46.13800296255957 109.42141611425967 -49.095250959536486 112.83274719220304 -52.0546875 116.2421875 C-53.13027363471991 117.48171417176229 -54.20579495903726 118.72129708517008 -55.28125 119.9609375 C-55.81613037109375 120.57743164062498 -56.3510107421875 121.19392578125002 -56.902099609375 121.8291015625 C-61.1146004947085 126.68953277268702 -65.29446373300573 131.5773073328844 -69.4697265625 136.4697265625 C-73.13164004350068 140.74725191622395 -76.89591208062882 144.922102158594 -80.6953125 149.078125 C-82.73381089423819 151.4157081007287 -84.56783502007079 153.83922545302187 -86.40625 156.3359375 C-89.16576380194698 159.90372994416487 -91.23952298293557 162.14425393522197 -95.71875 163.3984375 C-101.46421021299915 163.5427612613313 -105.43810202381604 162.5486033188726 -109.727294921875 158.703369140625 C-110.26072509765623 158.19024169921875 -110.7941552734375 157.6771142578125 -111.34375 157.1484375 C-112.53979556299595 156.05796931078135 -113.73643225232468 154.96814920221215 -114.93359375 153.87890625 C-115.5470263671875 153.3096240234375 -116.160458984375 152.740341796875 -116.79248046875 152.15380859375 C-118.77300694109039 150.34899422922183 -120.79792246003058 148.61238015562992 -122.84765625 146.88671875 C-123.18659912109376 146.60038574218748 -123.18659912109376 146.60038574218748 -124.90185546875 145.1513671875 C-126.20942857905607 144.0486100357632 -127.51953922651268 142.94885265535288 -128.83251953125 141.8525390625 C-133.13303708043867 138.17236680525116 -136.19680846329132 135.00814518354343 -137.34375 129.2734375 C-135.7322650000101 119.28223050006272 -126.96706935407317 110.6216678094853 -120.95703125 102.69921875 C-117.66835386359506 98.35243651353915 -114.46539052206901 93.94716128785717 -111.28125 89.5234375 C-110.74089111328124 88.7730419921875 -110.2005322265625 88.022646484375 -109.643798828125 87.24951171875 C-108.00118375181796 84.9664890120693 -106.35993648451802 82.68248730616841 -104.71875 80.3984375 C-97.52423650435776 70.39710563393317 -90.28849954444837 60.429562770305154 -82.962646484375 50.52392578125 C-79.44642089925938 45.76342190197289 -75.9677509857255 40.978292137273456 -72.518310546875 36.169189453125 C-50.4076419232145 5.361249514894411 -50.4076419232145 5.361249514894411 -29.172119140625 1.01385498046875 C-19.5774664920811 -0.5126859732054925 -9.683501096164434 -0.029073303381835558 0 0 Z M-48.03125 30.2109375 C-52.18265457269621 35.53306689163992 -56.06469396753084 41.04358530965976 -59.92724609375 46.57763671875 C-63.75397003982292 52.06032775343397 -67.67677637229531 57.46323557941679 -71.65625 62.8359375 C-76.21662084988003 68.99565936663265 -80.74253491123636 75.17726876006614 -85.21875 81.3984375 C-90.24858635546127 88.38665880907055 -95.34022701245203 95.32685282841896 -100.45751953125 102.251220703125 C-106.61009680018668 110.58632924546225 -112.67122003816763 118.98692838013613 -118.71875 127.3984375 C-115.1233146742783 131.80022237649797 -111.49753742479169 135.6541033025718 -107.03125 139.2109375 C-106.09925781250001 139.95988281249998 -105.167265625 140.70882812499997 -104.20703125 141.48046875 C-102.42675650652922 142.85270564017924 -100.58899700559286 144.1516061629381 -98.71875 145.3984375 C-97.93113281249998 144.48964843750002 -97.14351562499999 143.580859375 -96.33203125 142.64453125 C-82.41796874982435 126.5898437497973 -82.41796874982435 126.5898437497973 -80.81494140625 124.740234375 C-79.74295182065362 123.50329808963153 -78.67101243531928 122.26631829662415 -77.59912109375 121.029296875 C-74.87844277052804 117.88961285384562 -72.15689084093827 114.75069420389059 -69.43359375 111.61328125 C-63.08897217521741 104.30192307433259 -56.766615270839196 96.97221416522365 -50.47265625 89.6171875 C-50.24892333984374 89.35679687499999 -50.24892333984374 89.35679687499999 -49.11669921875 88.0390625 C-48.12001547696681 86.86936030915422 -47.13307939083006 85.69132287614406 -46.15283203125 84.5078125 C-45.63188964843749 83.88390625 -45.110947265624986 83.25999999999999 -44.57421875 82.6171875 C-44.105241699218766 82.04935546874998 -43.6362646484375 81.48152343750002 -43.153076171875 80.896484375 C-40.063467993474546 77.66961870986549 -36.68702570761903 76.52859766776191 -32.296875 76.23828125 C-26.544736289144936 76.45616529207786 -23.18135873340833 77.90874743906704 -18.99609375 81.828125 C-16.173751136712212 85.29779390073912 -16.35543573657438 89.3160431235959 -16.408172607421875 93.57742309570313 C-16.971919032665767 98.69800438715657 -19.098468029391597 103.09058475855568 -21.22265625 107.73828125 C-21.6924238586426 108.80541351318357 -22.16219146728514 109.87254577636719 -22.646194458007813 110.97201538085938 C-24.174575471480637 114.43430622772053 -25.72787282663012 117.88479927303888 -27.28125 121.3359375 C-28.347832908348636 123.74221175945797 -29.412435238558317 126.14936484544853 -30.47509765625 128.557373046875 C-32.584495428802086 133.3335970664633 -34.70170981416379 138.10621748021202 -36.82568359375 142.8759765625 C-40.49157594282738 151.12188642370393 -44.05689540432826 159.4090605837838 -47.59375 167.7109375 C-48.1699199904794 169.05980341311795 -48.746254144363434 170.40859921562844 -49.32275390625 171.75732421875 C-50.48694368855536 174.48162672623346 -51.64987332240423 177.20646245484977 -52.81201171875 179.931640625 C-54.60239542584702 184.12847191506972 -56.39919878869031 188.32254043533044 -58.1961669921875 192.5165557861328 C-59.79541266093304 196.2512446878997 -61.39139972623059 199.9873202217584 -62.98663330078125 203.72372436523438 C-63.76127586572696 205.53659332045208 -64.53709857287046 207.34895848975486 -65.31414794921875 209.16079711914063 C-66.38860624165451 211.66696277812906 -67.45852894160555 214.17501715339438 -68.52734375 216.68359375 C-68.85150772094727 217.4369500732422 -69.17567169189454 218.1903063964844 -69.50965881347656 218.96649169921875 C-71.71875 224.17024869140653 -71.71875 224.17024869140653 -71.71875 226.3984375 C-4.728749999999991 226.3984375 62.26125000000002 226.3984375 131.28125 226.3984375 C119.7885689077807 198.81600287867377 119.7885689077807 198.81600287867377 116.08203125 190.140625 C115.6474711608887 189.12160598754883 115.21291107177734 188.10258697509767 114.76518249511719 187.0526885986328 C113.84630960731397 184.8980518184655 112.92710400873386 182.74355689725218 112.007568359375 180.58920288085938 C110.54821118592065 177.16663734267536 109.09305309907751 173.74230968964633 107.638671875 170.317626953125 C102.90654480899798 159.18399068289762 98.14985695880728 148.06369500084315 93.29374694824219 136.983642578125 C91.12953995184552 132.04513579994523 88.98333960515708 127.09883835848154 86.83676147460938 122.15264892578125 C85.80599467411594 119.7891512694498 84.76784659595512 117.428858007288 83.72207641601563 115.07196044921875 C82.26481162635184 111.78623608261802 80.83312025214701 108.49041950328979 79.40625 105.19140625 C78.97100509643553 104.22809890747072 78.53576019287107 103.26479156494139 78.08732604980469 102.27229309082031 C75.56020713807447 96.34463464493041 74.56217036612645 91.71228964710957 76.28125 85.3984375 C78.24348107638474 81.32303449520089 79.65150960825935 79.75489432551356 83.59375 77.5234375 C88.89694287727616 75.90551424930558 92.48850592258134 75.58662886116892 97.59375 77.8984375 C98.48062500000003 78.3934375 99.3675 78.88843750000001 100.28125 79.3984375 C100.94124999999997 79.3984375 101.60125 79.3984375 102.28125 79.3984375 C102.39919921875003 79.67623046874999 102.39919921875003 79.67623046874999 102.99609375 81.08203125 C104.59402520262597 83.96219341233189 106.58625500151402 86.06212826060721 108.84375 88.4609375 C112.29587571144447 92.17322340998811 115.60050184484453 95.94659888298867 118.78125 99.8984375 C121.83473678732923 103.6830408420418 124.9879330108314 107.32051286979208 128.28125 110.8984375 C131.57456698916855 114.4763621302078 134.72776321267088 118.1138341579582 137.78125 121.8984375 C141.6938211957621 126.74752839687534 145.82194440025984 131.35253359249435 150.0390625 135.9375 C152.5470605098172 138.6901807424823 154.93648690859396 141.50656302059923 157.28125 144.3984375 C161.5018169059686 143.88325092931836 163.64726441057053 141.49728099923573 166.65625 138.6484375 C170.44836229159216 135.1050715300786 174.2509591148946 131.66624092035568 178.28125 128.3984375 C174.6855106435525 122.72095430560921 170.7680973390257 117.3185758333687 166.71875 111.9609375 C160.10217262639839 103.20434158864919 153.6853332284943 94.3110413964576 147.28125 85.3984375 C140.08946406285384 75.40089730347688 132.8552051691292 65.43811334076287 125.533935546875 55.534912109375 C120.81941363594217 49.15015520774929 116.16508840690847 42.72342622053935 111.54296875 36.271484375 C104.11553220473536 25.93226357998512 97.42432382984447 18.941475958928805 84.38600540161133 16.66551971435547 C75.78467005371692 15.574056217280742 66.95996409599701 15.973486565853165 58.30859375 16 C55.97554941053488 15.997975695456915 53.6425056907151 15.995061295765026 51.30946350097656 15.991302490234375 C46.43696017346747 15.98689683485938 41.564622623719856 15.993254035426446 36.692138671875 16.00732421875 C30.469625234409023 16.02442434891691 24.247499840875832 16.01455814555993 18.02500057220459 15.996606826782227 C13.21294772924034 15.985729580037855 8.400985817316666 15.989233250052166 3.588930130004883 15.996990203857422 C1.2953747117201146 15.998980820914937 -0.9981891618981535 15.996573288628042 -3.2917346954345703 15.989551544189453 C-6.504687318879121 15.981870954806084 -9.71702445920954 15.993633197487952 -12.929931640625 16.01025390625 C-13.396320495605437 16.00721755981445 -13.396320495605437 16.00721755981445 -15.75653076171875 15.991851806640625 C-28.949599172995647 16.117297401518215 -39.439197234736156 20.045474713089988 -48.03125 30.2109375 Z M-26.71875 243.3984375 C-26.983093845589906 244.8217820917739 -27.18903353343873 246.25604125597886 -27.370498657226563 247.6923065185547 C-27.489671478271475 248.61898132324222 -27.608844299316388 249.54565612792965 -27.73162841796875 250.5004119873047 C-27.858943481445294 251.5253224182129 -27.986258544921867 252.55023284912113 -28.117431640625 253.606201171875 C-28.254127655029293 254.67935577392575 -28.390823669433587 255.75251037597656 -28.531661987304688 256.8581848144531 C-28.98505508330686 260.4270607272795 -29.432137982632014 263.9966954011616 -29.87890625 267.56640625 C-30.191091861560665 270.0392846171673 -30.503549519167308 272.51212865426936 -30.816268920898438 274.9849395751953 C-31.472156082912306 280.1791494918362 -32.12506432341837 285.37372541225375 -32.775634765625 290.568603515625 C-33.4439741896465 295.90503348429695 -34.11613090634671 301.24096439002665 -34.792236328125 306.576416015625 C-35.60736639349358 313.0091437256099 -36.41884841607887 319.4423193198005 -37.22714042663574 325.87590980529785 C-37.53587021357092 328.3300344117606 -37.84567543206913 330.78402397523945 -38.156572341918945 333.2378749847412 C-38.59116593516427 336.6727064405159 -39.020952915775894 340.10810617892645 -39.449462890625 343.543701171875 C-39.57880218505858 344.55849044799805 -39.708141479492184 345.5732797241211 -39.841400146484375 346.6188201904297 C-39.957753143310526 347.559594116211 -40.074106140136735 348.50036804199226 -40.19398498535156 349.4696502685547 C-40.2959269809723 350.2813728618621 -40.39786897659303 351.09309545516965 -40.50290012359619 351.9294157028198 C-40.74883865680755 354.74260980504584 -40.71875 357.57451348917436 -40.71875 360.3984375 C-33.12875 360.3984375 -25.538749999999993 360.3984375 -17.71875 360.3984375 C-15.213825057884833 347.3963614086151 -13.033782602033 334.35685402238767 -10.92578125 321.28515625 C-10.571452278354343 319.095589124719 -10.217014071854805 316.9060396739821 -9.862472534179688 314.7165069580078 C-9.125817709611056 310.16416416749325 -8.390633959789852 305.61158691909935 -7.656494140625 301.058837890625 C-6.714608351441655 295.2186743883893 -5.768722446434879 289.37916667225966 -4.8217363357543945 283.5398283004761 C-4.091744746153495 279.0355159918975 -3.3639623592923726 274.5308488936325 -2.6368465423583984 270.0260715484619 C-2.288685460293152 267.8709237690672 -1.9398032497016402 265.7158923593657 -1.590188980102539 263.56097984313965 C-1.1044878340356945 260.56534677480664 -0.6217892786344237 257.5692451330524 -0.139892578125 254.572998046875 C-0.06744323730470114 254.12809776306153 -0.06744323730470114 254.12809776306153 0.2991943359375 251.8766326904297 C0.4294853210449219 251.0626300048828 0.5597763061523438 250.24862731933592 0.6940155029296875 249.4099578857422 C0.8081085491180602 248.7034443187714 0.9222015953064329 247.9969307518005 1.0397520065307617 247.2690076828003 C1.28125 245.3984375 1.28125 245.3984375 1.28125 242.3984375 C-3.1979032813300137 242.3695741151198 -7.677032911637866 242.35168562637796 -12.15625 242.3359375 C-13.435644531249977 242.32755859375004 -14.715039062500011 242.31917968749997 -16.033203125 242.310546875 C-17.248144531250006 242.30732421875 -18.46308593750001 242.30410156250002 -19.71484375 242.30078125 C-20.84075927734375 242.29554443359376 -21.9666748046875 242.29030761718752 -23.126708984375 242.284912109375 C-25.71875 242.3984375 -25.71875 242.3984375 -26.71875 243.3984375 Z M60.28125 242.3984375 C63.957332605820056 270.0104277482176 67.69420717875323 297.6135292226014 71.55227661132813 325.20068359375 C71.95574355058966 328.08588673552697 72.35757721132671 330.9713100511467 72.75802612304688 333.85693359375 C73.32145831230412 337.9156351272443 73.89082962901136 341.9734807374251 74.4609375 346.03125 C74.6304441833496 347.25595001220705 74.79995086669919 348.480650024414 74.97459411621094 349.7424621582031 C75.13234817504883 350.8575717163086 75.29010223388673 351.9726812744141 75.45263671875 353.12158203125 C75.58918670654293 354.0972512817383 75.72573669433598 355.0729205322266 75.86642456054688 356.0781555175781 C76.28125 358.3984375 76.28125 358.3984375 77.28125 360.3984375 C84.87125000000003 360.3984375 92.46125 360.3984375 100.28125 360.3984375 C98.98162530902778 345.0352034523022 97.5295972951638 329.70217816465845 95.8984375 314.37109375 C95.67690889310836 312.27406225941525 95.45556877934962 310.1770108490483 95.23440551757813 308.07994079589844 C94.66090075519003 302.6466826683696 94.08489290536528 297.2136929552636 93.50830078125 291.78076171875 C92.91673418547589 286.2023133350213 92.32762159260028 280.6236058129604 91.73828125 275.044921875 C90.58829239603267 264.162510053313 89.4354223068791 253.28040642642918 88.28125 242.3984375 C79.04124999999999 242.3984375 69.80124999999998 242.3984375 60.28125 242.3984375 Z " fill="#FFFFFF" transform="translate(270.71875,164.6015625)"/>
<path d="M0 0 C8.658486516170115 8.109411761486172 14.561322494502633 19.278803046240114 15.390625 31.16015625 C15.607595216765787 45.751403327500526 12.07000951886846 57.063065733884486 2.1875 67.9375 C-8.624060663988189 78.30702070498353 -21.2378041424638 80.83536089433568 -35.67578125 80.5859375 C-46.94148238949441 80.08670664928445 -55.8575354683918 75.0317166652211 -63.8125 67.25 C-74.03385481647939 55.880674448192494 -76.75309058849464 43.34390818187492 -76.00341796875 28.42822265625 C-75.03548590933028 17.384885272435653 -69.01908100134841 8.000197541821663 -61.125 0.5 C-43.01695272703711 -14.315675041515078 -18.38389412038032 -14.476802528800604 0 0 Z M-51.8125 14.25 C-58.00217821452645 21.645803947978067 -60.30763343578724 28.544830050365363 -60.12890625 38.1484375 C-59.367000268385084 45.61699736916371 -56.238107212230375 52.06028875351876 -50.8125 57.25 C-41.19656642209702 63.79931373494992 -33.152658041290124 65.66423358029519 -21.46484375 63.89453125 C-14.48747858614513 61.75977270910806 -8.056739073391384 55.943275325502356 -4.32421875 49.80078125 C-0.40518174677367824 41.178899842902126 0.4177423527819428 33.29993794481402 -2.91015625 24.34375 C-6.200070224543936 16.710010214911037 -12.012192717671837 11.361281823515668 -19.1875 7.375 C-31.29449060414214 3.61765808836968 -42.195456850590006 5.754638747557493 -51.8125 14.25 Z " fill="#FFFFFF" transform="translate(330.8125,70.75)"/>
</svg>
