<?xml version="1.0" encoding="UTF-8"?>
<!-- Generator: visioncortex VTracer 0.6.12 -->
<svg version="1.1" xmlns="http://www.w3.org/2000/svg" width="600" height="600">
<path d="M0 0 C0.5877243804931709 -0.00335861206053778 0.5877243804931709 -0.00335861206053778 3.5619659423828125 -0.020355224609375 C7.4240041307532465 -0.03925551549269812 11.285867736517929 -0.04325567007668951 15.14794921875 -0.04541015625 C16.489226786587665 -0.04826164307547742 17.830503670274396 -0.051454486154256074 19.17177963256836 -0.054981231689453125 C26.199335251853398 -0.07343700393431618 33.22681548127309 -0.08165785835430484 40.25439453125 -0.080078125 C46.760722379910845 -0.07887941439275892 53.266717087062176 -0.09993978398654235 59.772960782051086 -0.13156545162200928 C65.39461294079854 -0.15789783775474575 71.01615747220228 -0.1684383209890541 76.63787066936493 -0.1671673059463501 C79.97960082588907 -0.16666240885285788 83.32080108471689 -0.1739797410276367 86.66250991821289 -0.19352340698242188 C108.42336189244588 -0.3088599980883373 126.849451086501 0.2987334680807123 143.43701171875 15.86865234375 C151.0369825941312 23.567969243645962 157.04701780890878 32.67502669915652 163.33544921875 41.44287109375 C166.7923829751158 46.25559835310369 170.3041402942763 51.026411452610745 173.82763671875 55.79052734375 C178.90998180755668 62.66734307493152 183.93766742465857 69.58086197409989 188.93310546875 76.52099609375 C192.86155703985906 81.97136594906601 196.8347049944582 87.38725575990503 200.82763671875 92.79052734375 C205.97070951393692 99.75052005314848 211.06557283580338 106.7429848868 216.11767578125 113.769287109375 C218.73920302931515 117.41214129488117 221.37555481785347 121.0419756281824 224.05029296875 124.64599609375 C224.56052001953122 125.33467773437502 225.0707470703125 126.02335937499998 225.596435546875 126.73291015625 C226.5577369862005 128.0277437415752 227.5222360233078 129.32021179848158 228.490478515625 130.60986328125 C232.23938873088952 135.66326656858098 233.25545628723222 138.9801887086369 232.82763671875 145.29052734375 C230.9391990853527 149.93522831909615 228.8600223153253 152.46417880714296 224.89013671875 155.47802734375 C220.64704335755857 158.80187722906902 216.63219337300285 162.2357867811786 212.70263671875 165.91552734375 C197.69673199413637 179.88369944239253 197.69673199413637 179.88369944239253 188.47998046875 179.75146484375 C183.63953288786047 178.91026776783696 181.04095815799496 175.80627903610036 177.82763671875 172.29052734375 C177.10833984375 171.52998046875 176.38904296875 170.76943359375002 175.64794921875 169.98583984375 C170.91913645306988 164.86432290375734 166.5256964769863 159.4936934100213 162.14404296875 154.07568359375 C158.98671577507207 150.27943690050824 155.63963080572273 146.6726937592266 152.29638671875 143.04052734375 C149.09882375562472 139.4786850557117 146.11375329255844 135.76486901269573 143.10888671875 132.04052734375 C139.9750611895725 128.2627650620018 136.64706976883667 124.6788846690776 133.31982421875 121.07177734375 C130.00275828251097 117.36997335221048 126.9107012367736 113.50666828175781 123.83544921875 109.60302734375 C121.96254212232463 107.44590477354802 120.12839827352309 105.95421947087948 117.82763671875 104.29052734375 C117.931319231987 104.91208035051824 118.03500174522401 105.53363335728645 118.14182615280151 106.17402130365372 C124.28589762341778 143.00721405367767 130.4240673239359 179.8413857759091 136.5545679628849 216.67683977261186 C137.2905673568975 221.09910152031318 138.0266160872003 225.52135505506396 138.7626953125 229.943603515625 C138.90923543632033 230.82399870030582 139.0557755601406 231.70439388498664 139.20675629377365 232.61146771162748 C141.58004829740457 246.86918996174813 143.957336967809 261.1262430578668 146.33610171079636 275.38305313140154 C148.7765997062274 290.01040094989196 151.2128050829486 304.6384590021753 153.6450219154358 319.2671861052513 C155.14612436319544 328.294827802328 156.65057760329285 337.32189794416155 158.1593133211136 346.3482671305537 C159.19339966911843 352.53690531937326 160.22331794287248 358.726228079203 161.2499564886093 364.91610611230135 C161.84250996298306 368.48800603892346 162.43690094626197 372.05957455728833 163.03624153137207 375.6303424835205 C163.6860954781862 379.5023544499509 164.32717197517604 383.37579022266414 164.9674072265625 387.24940490722656 C165.15806369304659 388.37684476435186 165.34872015953061 389.50428462147715 165.54515409469604 390.6658893227577 C168.04222780306975 405.903189974297 168.04222780306975 405.903189974297 162.82763671875 413.29052734375 C159.6404846785128 415.39323651106395 156.9907394643845 415.551981183032 153.220458984375 415.5810546875 C152.09571670532227 415.5938143920898 150.97097442626955 415.60657409667965 149.81214904785156 415.6197204589844 C148.60167404174803 415.621946105957 147.39119903564455 415.62417175292967 146.14404296875 415.62646484375 C144.8963865661621 415.6331216430665 143.6487301635742 415.63977844238275 142.36326599121094 415.6466369628906 C139.72453539474128 415.65676280528305 137.08621686544404 415.6623192180666 134.447509765625 415.6611328125 C131.07355164483135 415.6609295375199 127.7004350534167 415.68824490307384 124.32667636871338 415.72267723083496 C121.0991636239221 415.75031646311584 117.87165799846974 415.7490958755591 114.64404296875 415.75146484375 C113.4355921936035 415.76583587646485 112.227141418457 415.7802069091797 110.98207092285156 415.7950134277344 C109.85417648315433 415.78886016845695 108.72628204345699 415.78270690917975 107.564208984375 415.7763671875 C106.57477798461912 415.7792172241211 105.58534698486329 415.7820672607422 104.56593322753906 415.7850036621094 C101.0051402939913 415.14200252086357 99.38262853946236 413.8185272749571 96.82763671875 411.29052734375 C95.60346984863281 409.17327880859375 95.60346984863281 409.17327880859375 94.762451171875 406.85986328125 C94.44031646728513 405.9761706542969 94.11818176269531 405.09247802734376 93.78628540039063 404.1820068359375 C92.02882239314602 398.8811407928847 90.42282352739181 393.5454390175678 88.87060546875 388.18115234375 C88.49097459902009 386.88304693387363 88.11087900290033 385.5850773591576 87.73036193847656 384.2872314453125 C86.9139096664826 381.49922402601214 86.10046492223034 378.7103640965544 85.2894287109375 375.9207763671875 C83.99876417550786 371.4817267201538 82.70143807135304 367.04464215735265 81.40283203125 362.60791015625 C80.0200834411279 357.8828866868088 78.63761827528492 353.1577823048634 77.25723266601563 348.43206787109375 C72.08174609680333 330.7168291439159 66.85848616980348 313.0157120306353 61.634185791015625 295.3148193359375 C60.08630636450903 290.07025354617764 58.539259628671914 284.8254423898907 56.992431640625 279.58056640625 C56.508174103856845 277.93859849148953 56.023916099644 276.29663071459015 55.53965759277344 274.6546630859375 C55.30882917404176 273.8719956970215 55.078000755310086 273.08932830810545 54.84017753601074 272.28294372558594 C53.169585622678994 266.6187297064498 51.49860191518428 260.9546312519012 49.82763671875 255.29052734375 C46.658611238996286 263.2027347507168 44.35436088367882 271.372423620581 41.95263671875 279.54052734375 C41.470697334268635 281.17188382172225 40.98849801585666 282.8031635286797 40.50605773925781 284.4343719482422 C39.478359115148265 287.91089820349674 38.45239270283204 291.3879293860293 37.427642822265625 294.8653259277344 C35.81994745007614 300.3194447303141 34.20542683873927 305.77152966314367 32.590087890625 311.223388671875 C27.8719655311659 327.15438619768616 23.166106216785067 343.08857309015826 18.535919189453125 359.0453796386719 C17.020467134979327 364.2677584615194 15.495921385378125 369.4874677627879 13.96891975402832 374.7064800262451 C12.75942910402614 378.8437507736593 11.563229323133925 382.9845651773312 10.37682819366455 387.1285123825073 C9.472425119895632 390.27318630148716 8.548883237526582 393.41224286823854 7.62841796875 396.55224609375 C7.314798126220694 397.6641178894042 7.0011782836914165 398.7759896850587 6.6780548095703125 399.9215545654297 C4.927432479035673 405.82014753772364 3.2635674022684498 409.9634649866498 -1.17236328125 414.29052734375 C-3.7511129280958357 415.5799021671729 -5.648880236177007 415.44588806139257 -8.53662109375 415.4833984375 C-9.097453918457035 415.49142990112307 -9.097453918457035 415.49142990112307 -11.93560791015625 415.5320739746094 C-17.072613478165692 415.57647204605564 -22.20952979425661 415.61803647627835 -27.3466796875 415.640625 C-30.05698524212977 415.65394784599584 -32.766534900984794 415.68176745433607 -35.4765625 415.72265625 C-39.38034983875596 415.78155299281275 -43.28377186772556 415.79929820069196 -47.18798828125 415.81396484375 C-48.397551879882826 415.83663421630854 -49.607115478515624 415.8593035888672 -50.85333251953125 415.8826599121094 C-60.236500408497875 415.85908327611025 -60.236500408497875 415.85908327611025 -63.85888671875 413.0703125 C-66.93179101713639 409.37802795573793 -68.21403423557956 406.9219008544587 -68.0898380279541 402.0597515106201 C-67.92198987960813 400.7905190467834 -67.75414173126222 399.5212865829468 -67.58120727539063 398.2135925292969 C-67.4856484758854 397.48352804064757 -67.39008967638017 396.75346355199815 -67.2916351556778 396.00127589702606 C-65.77158940836506 384.8039779978735 -63.841934552992456 373.6621203635665 -61.96671152114868 362.5202658176422 C-61.38841002058862 359.0785777985938 -60.81492257024078 355.63608709576937 -60.24082946777344 352.1936950683594 C-59.248711580550946 346.24854796742903 -58.25369847552102 340.30389153781556 -57.25669479370117 334.359561920166 C-55.8147614486399 325.7621858073671 -54.377861494053036 317.1639741274396 -52.942229107022285 308.56554387509823 C-50.61144744075099 294.60634650783646 -48.27740130595666 280.6476972178058 -45.94091796875 266.689453125 C-45.801490077525386 265.85650021657347 -45.66206218630077 265.02354730814693 -45.518409207463264 264.1653534024954 C-45.23618108063522 262.4793093378989 -44.953952538223064 260.7932653428673 -44.67172358185053 259.10722141712904 C-44.60174642961471 258.68917526904494 -44.60174642961471 258.68917526904494 -44.24761962890625 256.5736083984375 C-44.107524116858826 255.73667737372216 -43.96742860481143 254.89974634900693 -43.82308777421713 254.0374537780881 C-42.26244531416526 244.71387754856335 -40.70260981599381 235.390166373616 -39.14306640625 226.06640625 C-39.00320306107403 225.23023600593206 -38.863339715898036 224.39406576186423 -38.719238087534904 223.5325570255518 C-36.3896786268885 209.60488056401766 -34.06206252782323 195.67687981300548 -31.73557150363922 181.74869048595428 C-30.301882234428177 173.16622350959284 -28.866268183307596 164.58408248725368 -27.428170576691628 156.00235305726528 C-26.445024074396883 150.13496810272056 -25.463532038399535 144.26730802792827 -24.483356699347496 138.39942599833012 C-23.91752768011156 135.0124779711532 -23.350871437940555 131.62567343461603 -22.78209114074707 128.23921966552734 C-22.166909024381425 124.57408237156335 -21.554682292221344 120.90846351598293 -20.943206787109375 117.24270629882813 C-20.761696456670762 116.16579343914987 -20.58018612623215 115.0888805794716 -20.39317548274994 113.97933399677277 C-20.311932385563864 113.49043058812617 -20.311932385563864 113.49043058812617 -19.900793075561523 111.01628303527832 C-19.829947726130484 110.5931357008219 -19.829947726130484 110.5931357008219 -19.47142732143402 108.4517537355423 C-19.17236328125 106.29052734375 -19.17236328125 106.29052734375 -19.17236328125 103.29052734375 C-24.1617605828219 108.67574322039445 -29.061757930175702 114.07469638079027 -33.67236328125 119.79052734375 C-37.51071742343521 124.54792402702179 -41.5685868684119 129.04836652548977 -45.70751953125 133.54443359375 C-48.09943625433132 136.20927900789604 -50.36491211788072 138.93884559532148 -52.60986328125 141.72802734375 C-55.83180292218236 145.72277790384783 -59.179002931914425 149.53598117390334 -62.67236328125 153.29052734375 C-67.75900712407724 158.75959898680367 -72.48841650799432 164.47218721134647 -77.17236328125 170.29052734375 C-83.91135332916744 178.6540953496475 -83.91135332916744 178.6540953496475 -89.43408203125 179.73193359375 C-95.83998642624636 180.0517130401991 -99.10087613786385 178.59518367754458 -103.89892578125 174.41162109375 C-104.64916015625 173.71166015625 -105.39939453125 173.01169921874998 -106.17236328125 172.29052734375 C-106.56810546874999 171.93539062499997 -106.56810546874999 171.93539062499997 -108.57080078125 170.13818359375 C-110.23993151744318 168.64017824849145 -111.90126709768053 167.13344721281362 -113.55517578125 165.61865234375 C-116.2731342957188 163.20088626222253 -119.07756685058514 160.93211311777566 -121.92236328125 158.66552734375 C-132.28604167016877 150.2101750037823 -132.28604167016877 150.2101750037823 -134.23486328125 143.79052734375 C-134.10066571010964 136.27546335988995 -129.62505662196727 130.7805033286046 -125.29736328125 124.97802734375 C-124.12136925691438 123.37662107300395 -122.94559404299717 121.77505409934872 -121.77001953125 120.17333984375 C-121.1707666015625 119.36155273437498 -120.571513671875 118.54976562500002 -119.9541015625 117.71337890625 C-117.72331500071996 114.67990044103965 -115.52364044416353 111.62479387965772 -113.326171875 108.567138671875 C-107.74375070293965 100.79988221139396 -102.08767123930221 93.08891635225257 -96.403076171875 85.396240234375 C-92.45829286903853 80.05217118188338 -88.55273920136386 74.68151189456512 -84.67236328125 69.29052734375 C-79.6366765660122 62.29447597051208 -74.54361434777212 55.34309698474135 -69.413818359375 48.415771484375 C-66.48043741148999 44.44808882920063 -63.57307940765844 40.46545674223407 -60.71533203125 36.44287109375 C-48.37051240700603 19.06821874423335 -36.89234138778738 5.010413522249678 -15.049198150634766 0.7259788513183594 C-10.04072783258303 -0.0321272095531242 -5.05661616969482 -0.00420841094393154 0 0 Z M-34.958984375 31.32763671875 C-36.6667760728954 33.52043122776578 -38.27338949466184 35.75856093144992 -39.85986328125 38.04052734375 C-41.070422604531785 39.73220427988787 -42.28137125234724 41.423602672952995 -43.49267578125 43.11474609375 C-44.101435546874995 43.97374511718749 -44.71019531249999 44.83274414062498 -45.33740234375 45.7177734375 C-48.25038788439963 49.80199930596271 -51.246445281456715 53.82387297778044 -54.23486328125 57.85302734375 C-60.947681918518896 66.95073687733779 -67.56817922361381 76.11380658685198 -74.17236328125 85.29052734375 C-81.36348507387372 95.28281648103541 -88.59419575394423 105.2422585201131 -95.910888671875 115.14306640625 C-102.0636795871406 123.47815779363884 -108.12476775117739 131.87892702502404 -114.17236328125 140.29052734375 C-110.61231608934638 144.64584627994338 -107.03914625280831 148.46862390824788 -102.60986328125 151.97802734375 C-102.15546875 152.34089843750002 -102.15546875 152.34089843750002 -99.85595703125 154.17724609375 C-98.97037109375 154.87462890625 -98.08478515625 155.57201171875 -97.17236328125 156.29052734375 C-95.50502557231233 157.62302144126414 -93.83814794390527 158.95609225232818 -92.17236328125 160.29052734375 C-91.41052734375 159.39591796875004 -90.64869140625 158.50130859374997 -89.86376953125 157.57958984375 C-85.12971596144897 152.03226792032774 -80.39712538339501 146.49432209769992 -75.48486328125 141.10302734375 C-72.45523459763734 137.7682562027951 -69.56628235857784 134.35765095694597 -66.73486328125 130.85302734375 C-62.874111911134236 126.07912434522427 -58.79799252793197 121.55664306854032 -54.64111328125 117.04052734375 C-51.450331188124125 113.48623842988826 -48.47112384793269 109.78082019551641 -45.47314453125 106.06396484375 C-42.25697256908694 102.18708522891848 -38.857657554391324 98.49205256597978 -35.43408203125 94.79833984375 C-33.912218018541694 93.1108844099698 -32.44816069483491 91.36966056873044 -31.04345703125 89.58349609375 C-28.166032665685407 86.05729963741095 -25.31697969157608 84.545506167779 -20.77392578125 84.00537109375 C-15.509314028885342 83.82356017737703 -11.60598024111539 84.19730620896019 -7.17236328125 87.29052734375 C-3.2686797727130568 91.17299518104488 -1.2913471585332559 94.3463225030431 -0.9488677978515625 99.94245910644531 C-1.0440500528770826 107.32620995439635 -2.5195514413589137 114.59818787318488 -3.748291015625 121.859619140625 C-4.027046481333315 123.53949869676 -4.305160777422827 125.21948475210411 -4.582688331604004 126.89956760406494 C-5.33982661647434 131.47174575231497 -6.105949253855442 136.04237810761862 -6.873655319213867 140.61279201507568 C-7.689156526192875 145.47729791466554 -8.496319450355713 150.34318747391808 -9.304443359375 155.20892333984375 C-10.683045442799482 163.50260773575758 -12.066849795644316 171.79540990978307 -13.454315185546875 180.08761596679688 C-15.427706499189128 191.88178719888646 -17.392586258378202 203.6773637707795 -19.355263829231262 215.47332203388214 C-23.61630829480046 241.0809497337953 -27.892104592989 266.6861052214476 -32.17236328125 292.29052734375 C-32.453166981275956 293.97038756086226 -32.73396943300949 295.6502479866384 -33.0147705078125 297.3301086425781 C-34.245506644971925 304.6926986511079 -35.47645337659685 312.0552534119135 -36.70762634277344 319.4177703857422 C-37.557931062110015 324.5026746393011 -38.407829535415715 329.5876466160685 -39.25733947753906 334.6726837158203 C-39.64901582915178 337.0170595775857 -40.04069364269975 339.3614351951052 -40.432373046875 341.705810546875 C-40.617585458755514 342.814526720047 -40.80279787063597 343.92324289321897 -40.99362277984619 345.0655565261841 C-42.05689019774002 351.42792932306514 -43.12397395056735 357.7896467400764 -44.19439506530762 364.1508197784424 C-44.83372117699702 367.95299707603635 -45.47061263982664 371.75557932314484 -46.106903076171875 375.55826568603516 C-46.392621076060095 377.2621226582103 -46.67947229994479 378.9657900838805 -46.96759033203125 380.6692428588867 C-47.34922867400934 382.92590918958626 -47.726988319929404 385.1831906836503 -48.103759765625 387.440673828125 C-48.31226058959959 388.6797801208496 -48.520761413574235 389.9188864135742 -48.73558044433594 391.19554138183594 C-49.17236328125 394.29052734375 -49.17236328125 394.29052734375 -49.17236328125 398.29052734375 C-36.96236328124999 398.29052734375 -24.752363281249984 398.29052734375 -12.17236328125 398.29052734375 C-7.024491650911102 382.4007635781039 -2.0962171799937437 366.4793131769826 2.555328369140625 350.43817138671875 C4.174044601940864 344.86044026781576 5.804833441101323 339.28624005352987 7.435449600219727 333.7119789123535 C7.820168810253108 332.39680315027266 8.204810749415344 331.08160478228325 8.589376449584961 329.76638412475586 C12.91402640421677 314.9762134201499 17.255706169606782 300.19109605505486 21.638715744018555 285.41810417175293 C22.746019664833113 281.6857432958917 23.850783489220333 277.9526796802659 24.9488525390625 274.21759033203125 C25.984059493839 270.6966639031141 27.02645227895053 267.1779438244431 28.074247360229492 263.6607437133789 C28.64088115448277 261.75224147402344 29.200213600314385 259.8415761711731 29.759292602539063 257.93084716796875 C34.46009963940355 242.2232106738287 34.46009963940355 242.2232106738287 39.89013671875 237.79052734375 C45.184562648231264 235.24009420782784 51.38807844653206 235.22002025718496 56.94873046875 236.95068359375 C62.50990462838308 239.71333140208384 64.8077284579607 244.4433537476641 66.80538940429688 250.02001953125 C67.86995178269262 253.37872860178095 68.8710406947373 256.7510638503204 69.85498046875 260.13427734375 C70.23963562545259 261.4330377551892 70.62507964622296 262.7315647458797 71.01124572753906 264.0298767089844 C72.0549404908287 267.5467747755957 73.0877802253147 271.0667774912903 74.11874389648438 274.5874252319336 C75.20661850604938 278.29523071362763 76.30474192693521 281.99999808858405 77.40185546875 285.705078125 C79.25730946581893 291.9758055747729 81.10679802974357 298.2482648556461 82.9521484375 304.52197265625 C85.84975822832007 314.37229714579144 88.7611245406888 324.2185282630724 91.67529296875 334.06396484375 C92.63048525887439 337.2911686831875 93.58565118935098 340.518380320927 94.540771484375 343.74560546875 C94.77330218315126 344.53125507354736 95.00583288192752 345.3169046783447 95.24540996551514 346.1263618469238 C96.84021406755141 351.51567120385135 98.43209834592727 356.9058372392656 100.022705078125 362.29638671875 C100.6617838082708 364.4612013420676 101.30091996324165 366.6259990024636 101.94007682800293 368.7907905578613 C102.33513655179468 370.1294134358985 102.72994118457763 371.4681116321185 103.12445259094238 372.8068962097168 C103.67001939361 374.6582475908965 104.21658883433724 376.5093034157055 104.76318359375 378.3603515625 C105.06703979492187 379.39070526123055 105.37089599609374 380.4210589599609 105.6839599609375 381.4826354980469 C107.36933304529765 387.0941147740424 109.10455507714198 392.690512008524 110.82763671875 398.29052734375 C123.03763671875004 398.29052734375 135.24763671875002 398.29052734375 147.82763671875 398.29052734375 C147.23304754903177 391.7500464768498 146.63884873223458 385.4182120727288 145.5487823486328 378.97816467285156 C145.42304861724375 378.2154066079854 145.29731488585475 377.4526485431195 145.16777104139328 376.66677659749985 C144.7513013656702 374.14626500771817 144.3291627453121 371.6267385549503 143.906982421875 369.107177734375 C143.60408735697473 367.2813375177458 143.30154614132914 365.45543857042594 142.99932861328125 363.6294860839844 C142.17769824810324 358.6715720029335 141.35110695260448 353.7144964662028 140.5236246585846 348.75755620002747 C139.64243313537554 343.4735705226111 138.76584670399347 338.18882081194045 137.8887176513672 332.90415954589844 C136.21224479928685 322.8077982429258 134.53164339126022 312.7121286524796 132.8495780825615 302.6166977286339 C130.9917967632299 291.46544106211985 129.13861203419026 280.3134224251658 127.28585267066956 269.1613304615021 C125.83165152437414 260.4090176614325 124.37652282138481 251.65685899755613 122.92146062850952 242.9046893119812 C122.55948703833576 240.7273487644173 122.19753997060911 238.5500038074432 121.83561944961548 236.3726544380188 C117.95480939607631 213.02536967260676 114.06642062723813 189.67946426374027 110.13499653339386 166.34064257144928 C109.14033972283454 160.43254496426266 108.14846539954249 154.52397945433643 107.15661281347275 148.6154105067253 C106.23145450133029 143.106659108244 105.30123452108728 137.59879433614822 104.36705160140991 132.0915665626526 C103.79957387984683 128.73924481787355 103.2367579461586 125.38615285903052 102.67523789405823 122.03282856941223 C102.4167389071672 120.49516702561459 102.15626483094888 118.95783595165494 101.89362502098083 117.42087626457214 C101.53650387363814 115.32968352952082 101.18644844962358 113.23742250014578 100.83805847167969 111.14476013183594 C100.64156802177433 109.98192725181582 100.44507757186886 108.81909437179564 100.24263286590576 107.6210241317749 C99.33420685042427 100.33057108189655 99.72993003584668 95.37099532483234 103.82763671875 89.29052734375 C107.88808935132283 85.42814557130268 111.09387478952118 84.14276258668508 116.64013671875 84.04052734375 C117.47158203125002 84.01474609375 118.30302734374999 83.98896484375001 119.15966796875 83.96240234375 C125.63419209224656 84.75868349510245 129.4948665859385 88.59127469897822 133.64013671875 93.29052734375 C134.1607568359375 93.8672216796875 134.68137695312498 94.443916015625 135.2177734375 95.0380859375 C139.1639862033726 99.4447103862193 142.91348647993522 103.9985351690529 146.61669921875 108.61083984375 C148.9369862234492 111.42306048902145 151.35834806027088 114.10849997007887 153.82763671875 116.79052734375 C157.92114763344267 121.23779846094698 161.75206170447734 125.83770197394722 165.54638671875 130.54052734375 C168.68077093278862 134.3189631086185 172.01020017466118 137.9030611891863 175.33544921875 141.51318359375 C178.63705102612147 145.1925548869179 181.73640467949326 149.01756322076972 184.81982421875 152.88037109375 C186.71482525133928 155.15510968734452 188.6999000629218 157.2343513377815 190.82763671875 159.29052734375 C193.6137044141209 158.0003018219694 195.8331171069604 156.5967346349255 198.14013671875 154.57568359375 C198.74083984375 154.0542578125 199.34154296875 153.53283203125 199.96044921875 152.99560546875 C200.57662109375002 152.4535546875 201.19279296874998 151.91150390625 201.82763671875 151.35302734375 C209.33095730639315 144.79939482211603 209.33095730639315 144.79939482211603 212.82763671875 142.29052734375 C211.20287253088844 137.23790700344887 208.19359024691323 133.38230482963291 205.07763671875 129.16552734375 C204.50271484375003 128.3785546875 203.92779296875 127.59158203125003 203.33544921875 126.78076171875 C201.5055573113071 124.2795133647453 199.66764040705607 121.78434438064636 197.82763671875 119.29052734375 C196.65575897680685 117.69938352985474 195.4838839338296 116.10823772816661 194.31201171875 114.51708984375 C192.56349263913353 112.14446736069829 190.81424437344003 109.7723947716097 189.063232421875 107.401611328125 C182.37579672570484 98.34148344893475 175.80084160928607 89.2009514247566 169.22314453125 80.06103515625 C161.39516241043685 69.18751591852472 153.50834714040968 58.360296519154645 145.52978515625 47.5966796875 C143.8502594682766 45.32117772986993 142.18540681044715 43.03554939164758 140.52294921875 40.74755859375 C139.47891477677217 39.32420808602538 138.4346548047164 37.90102296987291 137.39013671875 36.47802734375 C136.93050537109377 35.83849121093749 136.4708740234375 35.19895507812498 135.997314453125 34.5400390625 C131.75555884824217 28.79916759437245 126.85634636361931 23.71515407514198 120.14013671875 20.97802734375 C119.41439453124997 20.672519531250003 118.68865234375 20.367011718750007 117.94091796875 20.05224609375 C114.10185058256229 18.668478736436498 110.76344525657959 18.16268677903946 106.67515563964844 18.143356323242188 C105.63378448486327 18.136201019287114 104.5924133300781 18.12904571533204 103.51948547363281 18.121673583984375 C102.95089561462402 18.120329132080087 102.95089561462402 18.120329132080087 100.073486328125 18.113525390625 C98.87137512207028 18.10695419311523 97.66926391601567 18.100382995605457 96.43072509765625 18.093612670898438 C92.44714100543433 18.073881671520667 88.46359718186397 18.062211061252015 84.47998046875 18.05224609375 C83.10455366018112 18.04819618117 81.72912704753207 18.044079189705144 80.35370063781738 18.03989601135254 C73.88719679244491 18.020850166437555 67.42070428352667 18.006620670634163 60.95417779684067 17.99828404188156 C53.51147660952708 17.988528564891112 46.069074166506596 17.962251100727713 38.626478135585785 17.9217831492424 C32.86066573703968 17.89151848190579 27.094938438884668 17.87680522020844 21.329048216342926 17.873503029346466 C17.891862634091837 17.871163343157917 14.454996380594338 17.86234629260096 11.01789665222168 17.8370418548584 C7.174207985959754 17.812610902031565 3.3312918934440745 17.81362359713077 -0.512451171875 17.820556640625 C-1.635461273193357 17.807746582031257 -2.758471374511714 17.794936523437514 -3.9155120849609375 17.78173828125 C-16.332884452102064 17.862996557215865 -26.672041091613238 21.87884541558259 -34.958984375 31.32763671875 Z " fill="#FFFFFF" transform="translate(201.17236328125,149.70947265625)"/>
<path d="M0 0 C5.610000000000014 0 11.220000000000027 0 17 0 C17 93.06 17 186.12 17 282 C11.389999999999986 282 5.779999999999973 282 0 282 C0 188.94 0 95.88 0 0 Z " fill="#FFFFFF" transform="translate(482,101)"/>
<path d="M0 0 C1.4093209725535303 1.0233447782686085 2.8061158057289504 2.064246566488201 4.1875 3.125 C4.802382812500014 3.5645703125000026 5.417265625000027 4.004140624999998 6.05078125 4.45703125 C15.426105476631108 11.670418182685125 20.087027044613137 22.898147591401397 22.9375 34.0625 C24.12518774150476 48.611674833433725 22.089920286062068 62.113160132844826 13.02734375 73.9453125 C3.7679716592682553 84.71611933771332 -6.76354669242977 91.12051855186107 -20.8125 93.125 C-36.35416939675147 94.17456728393648 -49.486717376119316 90.40870460313667 -61.5625 80.4375 C-72.05513557660697 70.54551619164245 -77.14937986308848 57.61052572182801 -77.84765625 43.35546875 C-77.67796938731593 27.763131478919178 -71.89660261704611 16.49715071162636 -61.375 5.375 C-45.236355063639365 -10.085250569566703 -18.689520455027775 -11.856457049934154 0 0 Z M-52.6015625 22.04296875 C-58.24829162939801 29.01097686287784 -60.47272675302102 36.35788146476632 -60.1484375 45.30078125 C-58.95412711755898 55.34132086052149 -54.309552549364184 62.4782521327522 -46.8125 69.125 C-38.444685837141094 74.93969514511761 -30.916992067151085 75.9524728221081 -20.8125 75.125 C-11.953120874303806 72.95662049371072 -3.8229972876112015 67.74072890207279 1.15625 60.01953125 C5.691293223560933 51.68810714610959 6.614048910515919 42.7061456405134 4.6015625 33.421875 C1.558676260503944 24.544463769176645 -4.807323288126327 17.338056123681 -13.125 13.0625 C-27.623703450562004 6.501895056992076 -41.97724815190793 10.653147036215692 -52.6015625 22.04296875 Z " fill="#FFFFFF" transform="translate(277.8125,41.875)"/>
<path d="M0 0 C27.720000000000027 0 55.44 0 84 0 C84 22.110000000000014 84 44.22000000000003 84 67 C56.27999999999997 67 28.560000000000002 67 0 67 C0 44.889999999999986 0 22.779999999999973 0 0 Z M17 18 C17 28.560000000000002 17 39.120000000000005 17 50 C33.170000000000016 50 49.34000000000003 50 66 50 C66 39.44 66 28.879999999999995 66 18 C49.829999999999984 18 33.65999999999997 18 17 18 Z " fill="#FFFFFF" transform="translate(449,399)"/>
<path d="M0 0 C5.940000000000055 0 11.879999999999995 0 18 0 C18 49.5 18 99 18 150 C12.059999999999945 150 6.1200000000000045 150 0 150 C0 100.5 0 51 0 0 Z " fill="#FFFFFF" transform="translate(515,233)"/>
<path d="M0 0 C5.610000000000014 0 11.220000000000027 0 17 0 C17 22.110000000000014 17 44.22000000000003 17 67 C11.389999999999986 67 5.779999999999973 67 0 67 C0 44.889999999999986 0 22.779999999999973 0 0 Z " fill="#FFFFFF" transform="translate(449,316)"/>
</svg>
