<?xml version="1.0" encoding="UTF-8"?>
<!-- Generator: visioncortex VTracer 0.6.12 -->
<svg version="1.1" xmlns="http://www.w3.org/2000/svg" width="1201" height="1201">
<path d="M0 0 C0.9822656249999682 -0.03287109374997499 1.9645312499999363 -0.06574218750000682 2.9765625 -0.099609375 C16.329876303555807 -0.19499018788252442 27.959870614950546 5.947148352051386 39.625 11.875 C39.922310180664 12.024873657226578 39.922310180664 12.024873657226578 41.4268798828125 12.7833251953125 C54.01351619319394 19.136357005615196 66.19541210947455 26.12669922283061 78.25 33.4375 C79.03890625000008 33.91203613281249 79.82781249999994 34.38657226562498 80.640625 34.87548828125 C97.69705703741784 45.1592942233907 111.41445649191849 55.94084038830874 122.84326171875 72.42333984375 C125.35500684912904 76.0196427464968 127.92908091181619 79.57087807133507 130.5 83.125 C131.04559570312495 83.88031005859375 131.59119140625 84.6356201171875 132.1533203125 85.413818359375 C138.4599493602865 94.13175161987681 144.8546584795049 102.78456412036718 151.25 111.4375 C164.50059337749644 129.36563323496887 164.50059337749644 129.36563323496887 170.290771484375 137.408447265625 C171.38721315703037 138.9259095360827 172.49089878658413 140.43816430681284 173.601806640625 141.945068359375 C176.084965445614 145.32828382610342 178.43756869421247 148.67174859621935 180.48828125 152.3359375 C187.84406539255633 164.85036575049094 200.31460830708284 170.27913040286512 212.8094482421875 176.64114379882813 C218.31153949722398 179.44318085885493 223.66543486661544 182.45650246247914 229 185.5625 C236.55186519062693 189.91128180234443 244.14142083238653 194.18877865465333 251.75 198.4375 C268.69864623157946 207.90910784654773 285.54533627113983 217.54168347910252 302.25 227.4375 C301.65839011170976 232.14091023641424 300.33938612538066 235.96032794838698 298.42578125 240.2890625 C298.278634262085 240.6251930999756 298.278634262085 240.6251930999756 297.5339813232422 242.3262176513672 C296.88916806450334 243.79795350184122 296.2414060430634 245.2684000961318 295.591064453125 246.73770141601563 C293.7918803072172 250.80428250583032 292.016017332827 254.88103914473845 290.23828125 258.95703125 C289.85108917236323 259.84353866577146 289.4638970947266 260.7300460815429 289.0649719238281 261.64341735839844 C283.6930486479283 273.969437021167 278.47936125238084 286.36302029190097 273.25 298.75 C272.25433716703765 301.1069437391659 271.2586508179618 303.4638775443857 270.262939453125 305.82080078125 C267.9237653970888 311.3590565092135 265.58616578386284 316.8979746778996 263.25 322.4375 C259.2115293976276 321.1840794795862 255.60027810848874 319.69617469191996 251.890625 317.671875 C250.8709765625 317.1188671875 249.851328125 316.56585937499995 248.80078125 315.99609375 C247.71152343749998 315.3992578125001 246.62226562499995 314.80242187499994 245.5 314.1875 C243.75012616146762 313.2367811428446 242.0002483728333 312.2860694595952 240.2501220703125 311.3358154296875 C238.44004908349257 310.3522698946306 236.63108716486317 309.36670421264307 234.822265625 308.380859375 C229.3095155088563 305.37871903979794 223.77882477463436 302.40989589620153 218.25 299.4375 C216.08324958982826 298.2709888703589 213.91658316974804 297.1043217190813 211.75 295.9375 C210.6775 295.36 209.60500000000002 294.7825 208.5 294.1875 C205.24999999999977 292.4374999999999 202 290.6875 198.75 288.9375 C197.67677490234382 288.35967773437505 196.60354980468742 287.78185546875 195.497802734375 287.1865234375 C193.338230118561 286.0235392820696 191.17888638238026 284.8601300112716 189.019775390625 283.6962890625 C183.49640051583788 280.7196948587125 177.96884765855725 277.75132763565057 172.43359375 274.796875 C146.77008445284378 261.0835776070587 122.66778224525092 247.52915795445688 103.640625 224.984375 C103.18171875000007 224.47390625000003 102.72281249999992 223.96343750000005 102.25 223.4375 C101.92000000000007 223.4375 101.58999999999992 223.4375 101.25 223.4375 C98.36606734628731 236.08495318717553 95.52090721622528 248.74044413461513 92.72494697570801 261.40765476226807 C91.42544086691896 267.2893450094349 90.11275571351803 273.16743269034873 88.76953125 279.039306640625 C87.47374651155565 284.70604823283315 86.21313798788981 290.37957880439126 84.97655868530273 296.0595226287842 C84.49861561439343 298.2252453711766 84.00805491095275 300.38822326622926 83.50473403930664 302.548189163208 C82.80174338671839 305.5747351860132 82.14427266920484 308.60794116061606 81.49658203125 311.646728515625 C81.38761344909665 312.0923312377929 81.38761344909665 312.0923312377929 80.83616638183594 314.34735107421875 C79.62417998883984 320.3494607128546 79.62417998883984 320.3494607128546 81.45063400268555 323.52490043640137 C82.96049747387565 325.30267951759265 84.52444286302705 326.87165740112505 86.25 328.4375 C86.84425781250002 329.12457031250005 87.43851562500004 329.811640625 88.05078125 330.51953125 C92.72926220647946 335.87500169888983 97.48409762554434 341.1598228739249 102.25 346.4375 C107.01786974756601 351.7173557607275 111.76512218155642 357.0104180603055 116.4375 362.375 C119.28269289734442 365.6126332969782 122.1785383557824 368.80436290008277 125.06640625 372.00390625 C126.958486850285 374.11261146284005 128.82905757755384 376.23669801276196 130.6875 378.375 C133.49822524714295 381.6030951214286 136.3657990028263 384.77488442693016 139.25 387.9375 C142.70328153421406 391.7241299779391 146.11099051065776 395.5422631993215 149.47265625 399.41015625 C152.30432947424674 402.6401307629319 155.19202506955685 405.8194065585326 158.0703125 409.0078125 C160.52077634160128 411.73933312630106 162.92737705466095 414.5060734760301 165.328125 417.28125 C166.74551554608252 418.87149305170226 168.19919784861986 420.42956484823503 169.671875 421.96875 C185.6662390247543 438.79519076592646 198.17802933280598 458.2863668327685 206.5078125 479.96875 C206.89049285888677 480.95642868042 207.27317321777343 481.9441073608398 207.66744995117188 482.9617156982422 C211.7210066347168 493.5147732022233 215.47505043713807 504.17111529863655 219.19052124023438 514.8469543457031 C221.25240476412455 520.770812167374 223.3286304769881 526.6896503432052 225.40234375 532.609375 C225.81629898071287 533.7923365783691 226.23025421142574 534.9752981567383 226.65675354003906 536.1941070556641 C230.37416779757473 546.8114866221357 234.14441030712726 557.4094576106995 237.9375 568 C239.14982912926553 571.386686698837 240.36201064777424 574.7734262299259 241.57421875 578.16015625 C241.8733416748047 578.9956550598145 242.17246459960938 579.8311538696289 242.48065185546875 580.6919708251953 C244.73032996089796 586.9781662236899 246.97084737784758 593.2675862763477 249.20703125 599.55859375 C249.54007263183598 600.4954803466796 249.87311401367185 601.4323669433594 250.21624755859375 602.3976440429688 C251.8900558809862 607.1074702598956 253.56236764680318 611.8178230426697 255.23291015625 616.52880859375 C258.30959706912176 625.2002990701282 261.39861422967715 633.8667908111852 264.5328674316406 642.5176696777344 C265.9558180278814 646.4453144349983 267.3737671827321 650.3747580213445 268.791748046875 654.30419921875 C269.46866663828723 656.1748324177878 270.148326192545 658.0444761733072 270.830810546875 659.9130859375 C271.77018261525245 662.4852701227529 272.70047910338053 665.0605678856799 273.62890625 667.63671875 C273.91133682250984 668.4021147155762 274.19376739501945 669.1675106811523 274.48475646972656 669.9561004638672 C275.13118979587125 671.7635216221149 275.6989245459953 673.5987604500839 276.25 675.4375 C275.25 677.4375 275.25 677.4375 272.3190155029297 678.4973449707031 C270.99133622088686 678.8893355305858 269.6610227190772 679.2724626410449 268.328857421875 679.64892578125 C267.6031555175781 679.8606996154786 266.8774536132812 680.072473449707 266.1297607421875 680.2906646728516 C263.70710999504104 680.9955745898928 261.2813695159874 681.6891774256292 258.85546875 682.3828125 C257.1525814451836 682.8757828244129 255.44989182611994 683.369436485364 253.7473907470703 683.8637390136719 C249.23093111857884 685.1729728311083 244.71177075083028 686.4726393450134 240.1920166015625 687.7704467773438 C235.70770767128852 689.0598967438442 231.22603843206184 690.3584493832062 226.744140625 691.65625 C218.97971901440246 693.9036217124246 211.2112600026154 696.1366358790256 203.44120597839355 698.364444732666 C198.8364419955435 699.686994157084 194.2369087769623 701.0256090637425 189.64300441741943 702.3854007720947 C187.63545337650703 702.9793186686221 185.62681773532267 703.5694011097552 183.6177520751953 704.1581726074219 C181.22973801205853 704.8593273376978 178.84388976861226 705.5679198054472 176.4607391357422 706.2854309082031 C175.4235121154785 706.5881088256835 174.38628509521482 706.8907867431641 173.317626953125 707.20263671875 C172.42767532348626 707.467448425293 171.53772369384774 707.7322601318359 170.6208038330078 708.0050964355469 C168.0192359593973 708.4795883382737 166.64923559931822 708.5604669380715 164.25 707.4375 C163.1063232421875 705.5791473388672 163.1063232421875 705.5791473388672 162.185546875 703.100341796875 C161.82916137695315 702.1650212097168 161.4727758789063 701.2297006225585 161.1055908203125 700.2660369873047 C160.73043334960937 699.2333619689941 160.35527587890624 698.2006869506836 159.96875 697.13671875 C159.5629772949219 696.0595307922363 159.1572045898438 694.9823428344727 158.7391357421875 693.8725128173828 C157.3950255319461 690.2952201599114 156.07288403643565 686.7101903613213 154.75 683.125 C153.81032742091634 680.614563264914 152.86928369746715 678.1046971878302 151.92578125 675.595703125 C150.46841060913505 671.717380855084 149.0123597145157 667.8385943745603 147.563720703125 663.9570007324219 C143.2774814597218 652.4734912383904 138.88875452016373 641.0307623786603 134.47061157226563 629.597412109375 C132.4172029538363 624.2815598707908 130.37039742155036 618.963169887549 128.32421875 613.64453125 C127.91479537963869 612.5804202270508 127.50537200927738 611.5163092041016 127.08354187011719 610.4199523925781 C123.92497656293074 602.2051996807544 120.7818512048525 593.9846065185932 117.64453125 585.76171875 C117.17659149169924 584.535266418457 116.70865173339848 583.308814086914 116.22653198242188 582.0451965332031 C113.56337375694613 575.063431425222 110.90314741994712 568.0805556056272 108.24456787109375 561.0970458984375 C107.03898159808296 557.9376902715218 105.82599460537938 554.7812498685471 104.6123046875 551.625 C102.99901457717806 547.4239559437659 101.42774280127696 543.2099384558844 99.8798828125 538.984375 C99.10888977084699 536.9205109668686 98.33773735822479 534.856706460809 97.56640625 532.79296875 C97.23252395629879 531.8566007995605 96.89864166259758 530.9202328491211 96.55464172363281 529.9554901123047 C93.04442792974805 520.6725804533252 87.00828677409743 515.2981729337644 79.25 509.4375 C77.3919607590525 507.92140032166253 75.53749346591223 506.400907019329 73.6875 504.875 C72.80964843750007 504.1724609375 71.93179687499992 503.46992187499995 71.02734375 502.74609375 C67.24182717548729 499.5994829264598 63.67494838079995 496.2406233441012 60.08349609375 492.87646484375 C56.75827676836866 489.77955297130984 53.36270929252396 486.8412100799201 49.8125 484 C44.79158052060575 479.97303255728343 40.125781831605764 475.6453529655266 35.44384765625 471.23681640625 C31.127731222257125 467.1948141284812 26.644963686786014 463.4415458286319 22.02734375 459.74609375 C18.825572008118797 457.08470542447003 15.78765082224163 454.2828775394272 12.75 451.4375 C8.854237186009641 447.7886155101469 4.916657155676603 444.2805156249034 0.75 440.9375 C-4.011084775618315 437.1175598893295 -8.462730250603954 433.0481118075329 -12.9140625 428.87890625 C-16.2611686925718 425.76181446402677 -19.680141406002804 422.80168887192804 -23.25 419.9375 C-28.649405799318743 415.60221067207976 -33.69050366467013 410.9429853912213 -38.75 406.22265625 C-41.11007541667959 404.02222433875045 -43.501592870869445 401.86668542874054 -45.9375 399.75 C-46.551093750000064 399.216328125 -47.164687500000014 398.68265625000004 -47.796875 398.1328125 C-49.24400814862315 396.8767009269952 -50.692067993422256 395.62165680308203 -52.140625 394.3671875 C-72.85131422311298 376.13415741707536 -87.90977478964749 351.43996987019955 -89.89736938476563 323.35516357421875 C-90.59609725981869 307.3647131155021 -88.2093704472137 292.04240727959336 -85.59375 276.3125 C-85.16621677494743 273.6642978505571 -84.74006736395381 271.0159103175097 -84.3157958984375 268.3671875 C-83.31924509921015 262.1632976475564 -82.30683655947644 255.96211858200013 -81.28773069381714 249.76189804077148 C-79.78907901094107 240.6402644469564 -78.3123311411909 231.5150777260185 -76.83869171142578 222.38937377929688 C-76.73023784160614 221.7177904701233 -76.6217839717865 221.04620716094973 -76.51004362106323 220.35427284240723 C-76.2938542724379 219.0154633497907 -76.07771463069241 217.67664582956422 -75.86162614822388 216.3378200531006 C-75.13032233318262 211.81113634173118 -74.38995798992141 207.28598966254276 -73.6468505859375 202.76123046875 C-73.26255035636757 200.40333067348638 -72.87831037731326 198.04542105727893 -72.494140625 195.6875 C-72.31647659301757 194.61637969970707 -72.13881256103514 193.54525939941402 -71.95576477050781 192.44168090820313 C-71.79589584350583 191.45545745849608 -71.63602691650385 190.46923400878904 -71.4713134765625 189.453125 C-71.33120094299318 188.600087890625 -71.19108840942386 187.74705078124998 -71.0467300415039 186.8681640625 C-70.74137239103948 184.36682694330705 -70.69809749117326 181.9548199881013 -70.75 179.4375 C-73.02214699386161 181.37347729331668 -75.29275363414911 183.3112117249333 -77.5625 185.25 C-78.20509765625002 185.79720703124997 -78.84769531250004 186.3444140625 -79.509765625 186.908203125 C-80.13173828125002 187.43994140625 -80.75371093749999 187.9716796875 -81.39453125 188.51953125 C-81.96534423828126 189.00655517578127 -82.53615722656252 189.4935791015625 -83.124267578125 189.995361328125 C-86.02437087172058 192.567956335674 -88.03577592497527 194.59156863320152 -89.5048828125 198.22998046875 C-89.66104316711426 198.61133903503418 -89.66104316711426 198.61133903503418 -90.45130920410156 200.54124450683594 C-90.6166088104248 200.955962600708 -90.6166088104248 200.955962600708 -91.453125 203.0546875 C-91.80753158569337 203.92621963500977 -92.16193817138674 204.79775177001954 -92.52708435058594 205.69569396972656 C-93.69192311957386 208.56510464693906 -94.84595143547449 211.43873459475446 -96 214.3125 C-96.81155560900362 216.31742226267272 -97.6238192678261 218.32205805591616 -98.436767578125 220.326416015625 C-100.09104070757144 224.4085026232783 -101.74104833546619 228.49227118389354 -103.38720703125 232.57763671875 C-105.49851268843895 237.81687379361415 -107.61962761494107 243.0520567957767 -109.74609375 248.28515625 C-114.45568766815973 259.8797006673776 -119.15726375827205 271.4774346929604 -123.83073425292969 283.0865936279297 C-125.20099175854045 286.48918185887203 -126.57370813145076 289.8907754609289 -127.94668579101563 293.2922668457031 C-128.59813596388955 294.908201168936 -129.24837906325456 296.52462273218873 -129.89730834960938 298.1415710449219 C-130.7970361764115 300.3833597205348 -131.7008437309786 302.6234651084718 -132.60546875 304.86328125 C-132.86525512695312 305.5137240600586 -133.12504150390623 306.16416687011724 -133.3927001953125 306.8343200683594 C-135.2823868035286 311.4965883096572 -137.45936759044798 315.95825468309476 -139.75 320.4375 C-149.0633565292972 318.7928391724781 -158.0423108701794 316.15085805093213 -167.10546875 313.5 C-168.77823917337076 313.01403731210587 -170.4511181472762 312.528448134976 -172.1240997314453 312.043212890625 C-176.50358230728386 310.77192476643404 -180.88161319213862 309.49570838443765 -185.25933837890625 308.2183837890625 C-189.70784964616013 306.92131108564524 -194.15767794484447 305.6287738142843 -198.607421875 304.3359375 C-203.61402958002714 302.8810355355565 -208.62049489708983 301.42565587709123 -213.6260223388672 299.967041015625 C-214.38856323242186 299.7448489379883 -215.1511041259766 299.5226568603516 -215.93675231933594 299.2937316894531 C-217.34691119331626 298.8827445644131 -218.75702576467364 298.4716053814841 -220.16708374023438 298.0602722167969 C-224.35755820406013 296.8389412667252 -228.55222109848188 295.6334100274746 -232.75 294.4375 C-231.26614381552872 287.0396114997001 -229.07953263281786 280.0205803957631 -226.671875 272.875 C-226.26883651733397 271.6673498535156 -225.865798034668 270.4596997070312 -225.45054626464844 269.2154541015625 C-224.3643557159687 265.9617575889433 -223.27240844142784 262.71002162203786 -222.17910385131836 259.4587097167969 C-221.26587034321454 256.7406623420095 -220.35594218239447 254.02151308420457 -219.44596004486084 251.30237579345703 C-213.62031812866724 233.89652622642348 -207.7658758956191 216.49985884720184 -201.788330078125 199.1455078125 C-201.23900273908504 197.55016199159127 -200.68976775931424 195.95478436552355 -200.140625 194.359375 C-199.87021896362307 193.5737921142578 -199.5998129272461 192.7882092285156 -199.3212127685547 191.97882080078125 C-197.43363046474377 186.47679515016443 -195.5899502309448 180.96115388934498 -193.7637176513672 175.4384765625 C-192.40915233935368 171.3454038338673 -191.0437075900386 167.25599495788435 -189.67764282226563 163.166748046875 C-189.0246291445664 161.20189037167978 -188.37686241371716 159.23528003402794 -187.73471069335938 157.266845703125 C-186.84567968640704 154.543020993502 -185.93850255596914 151.82586338661923 -185.02734375 149.109375 C-184.76955139160157 148.30308654785154 -184.51175903320313 147.49679809570313 -184.24615478515625 146.66607666015625 C-182.5785831300982 141.76833307470417 -180.73697518863997 138.90715629713122 -176.75 135.4375 C-175.22211997712327 133.89896987508712 -173.6947831159187 132.3599001725911 -172.16796875 130.8203125 C-170.42454826656757 129.06763959550312 -168.68105665203495 127.31503744420877 -166.9375 125.5625 C-166.07318359375 124.68980468749999 -165.2088671875 123.81710937499997 -164.318359375 122.91796875 C-159.87960011061125 118.4624594506513 -155.38333010851528 114.17232693844937 -150.610595703125 110.07763671875 C-147.50973011991948 107.34418769788994 -144.64035736814645 104.38997165062324 -141.75 101.4375 C-134.51810322501507 94.12178827490328 -134.51810322501507 94.12178827490328 -130.8125 91 C-126.72378827276265 87.54711385453606 -123.01265523955357 83.73672581653864 -119.25 79.9375 C-114.94812357946569 75.59385271969597 -110.6469209691088 71.377012395039 -105.96875 67.4375 C-101.89511920012308 63.76549477194192 -98.09870010904513 59.8041682792217 -94.240478515625 55.908447265625 C-90.58153028566574 52.22757001643265 -86.8725990926913 48.715838404127226 -82.90234375 45.37109375 C-79.72645851096013 42.51798450621641 -76.75260075465167 39.47109584933577 -73.75 36.4375 C-69.50777535742247 32.15571172289958 -65.27337422432731 27.94784718788594 -60.6484375 24.07421875 C-59.234596352764584 22.855289859687957 -57.87193851143297 21.57650331068072 -56.5390625 20.26953125 C-41.570923010245 5.810017859411516 -20.408036530969184 0.11865137518003621 0 0 Z M-49.1796875 56.8984375 C-51.23258978780541 58.92638048947339 -53.29772070395211 60.82843306177779 -55.5 62.6875 C-59.6425655141868 66.21381609885321 -63.4249157562615 70.07511605617628 -67.25 73.9375 C-71.55186998162367 78.28115599407272 -75.85307915347533 82.49798770818978 -80.53125 86.4375 C-84.60488079987687 90.10950522805803 -88.40129989095487 94.0708317207783 -92.259521484375 97.966552734375 C-95.91846971433421 101.64742998356735 -99.62740090730875 105.15916159587277 -103.59765625 108.50390625 C-106.77352679841141 111.35700229621352 -109.74759551801986 114.40373062397987 -112.75 117.4375 C-120.0311020247101 124.79466472541225 -120.0311020247101 124.79466472541225 -123.6875 127.875 C-128.49109191187154 131.93159705732563 -132.817271428068 136.48086254775416 -137.2373046875 140.9443359375 C-141.07614835224803 144.80638671760164 -144.9525109327883 148.55131946805096 -149.13671875 152.04296875 C-153.072003420332 155.44465549893107 -155.27379824000553 158.01097040797214 -156.90966796875 163.024169921875 C-157.09737762451175 163.58919471740722 -157.09737762451175 163.58919471740722 -158.04730224609375 166.4485626220703 C-158.2444583129883 167.0622646331787 -158.2444583129883 167.0622646331787 -159.2421875 170.16796875 C-159.66834771009286 171.4643280070602 -160.0956389323814 172.7603159365637 -160.52398681640625 174.0559539794922 C-161.4325243328131 176.81121782955006 -162.33373700078556 179.56872374029683 -163.22906494140625 182.32830810546875 C-164.62647294189503 186.63503428430488 -166.03970993148414 190.9364471983315 -167.45654296875 195.23681640625 C-167.9304758319863 196.67577288699613 -168.40438330842835 198.1147377293529 -168.87826538085938 199.5537109375 C-169.11246562957763 200.26484039306638 -169.34666587829588 200.97596984863281 -169.58796310424805 201.70864868164063 C-170.2973115116137 203.86460796231074 -171.00504571380338 206.02109083733006 -171.71231079101563 208.177734375 C-175.674547623713 220.2543525931644 -179.74393614812465 232.29256295244716 -183.875 244.3125 C-184.4412997374339 245.96246441967855 -185.0075452152372 247.61244746353748 -185.57373046875 249.262451171875 C-185.7054817199707 249.6462267303467 -185.7054817199707 249.6462267303467 -186.37222290039063 251.58836364746094 C-187.09161777208664 253.68464791739177 -187.8100432138254 255.78126221823265 -188.5283203125 257.8779296875 C-189.2727470975421 260.0469429820472 -190.0210790576885 262.2146276886921 -190.7763671875 264.3798828125 C-192.75 270.10823170731703 -192.75 270.10823170731703 -192.75 273.4375 C-181.2 276.73749999999995 -169.64999999999998 280.0375 -157.75 283.4375 C-155.72875 278.44624999999996 -153.70749999999998 273.45500000000004 -151.625 268.3125 C-145.34730519804447 252.8244123104239 -139.0574664322951 237.3412613722419 -132.75714111328125 221.86236572265625 C-131.80504199062244 219.5228060846082 -130.85333180957593 217.18308812099633 -129.90203857421875 214.84320068359375 C-127.67743907060293 209.37194668428617 -125.44634516426424 203.90363637468715 -123.198486328125 198.44189453125 C-121.62011823049153 194.60007058881263 -120.0898666098883 190.74527179460364 -118.604248046875 186.86669921875 C-115.21198060669599 178.14714936345786 -112.45677147536753 171.22905781993381 -104.4375 165.8125 C-103.69548339843749 165.25731689453124 -102.95346679687498 164.7021337890625 -102.18896484375 164.130126953125 C-100.72491200916556 163.03518846017323 -99.24970011695211 161.95496581289717 -97.76220703125 160.89208984375 C-95.02851044056706 158.91594761039778 -92.46296211711854 156.78846185618113 -89.875 154.625 C-88.16668197044919 153.22914793687374 -86.45834915917771 151.83331396416537 -84.75 150.4375 C-83.90824218749998 149.7478515625 -83.06648437500002 149.05820312499998 -82.19921875 148.34765625 C-80.42050049351155 146.89042484875836 -78.64052278189098 145.43472958348036 -76.859375 143.98046875 C-74.44735389291145 142.01086562893204 -72.04359490695333 140.03141432866892 -69.640625 138.05078125 C-68.19802304356699 136.86705784674905 -66.75531502676927 135.68346368708 -65.3125 134.5 C-64.62583251953129 133.93184570312502 -63.93916503906246 133.36369140624998 -63.231689453125 132.7783203125 C-62.57902099609373 132.244326171875 -61.926352539062464 131.71033203125 -61.25390625 131.16015625 C-60.96422973632809 130.92171997070312 -60.96422973632809 130.92171997070312 -59.498291015625 129.715087890625 C-55.58688552254591 126.85677411527479 -52.65853356301318 126.14333303996096 -47.8125 126.125 C-46.792851562500005 126.10824218749997 -45.77320312500001 126.091484375 -44.72265625 126.07421875 C-40.40200613740774 126.60223512381219 -37.74945857776538 128.22387172699916 -35 131.5625 C-31.092304244696948 140.5502002371971 -33.470709739518156 149.97938398216894 -35.023193359375 159.260009765625 C-35.28025942302315 160.85094921205143 -35.53623681712895 162.44206488872373 -35.79121398925781 164.03334045410156 C-36.340485078236725 167.44742108832213 -36.89706839391738 170.86019823792026 -37.45936393737793 174.27215766906738 C-38.35043261943588 179.68135990653036 -39.223023006190374 185.09344526376378 -40.09291076660156 190.50608825683594 C-42.100567699874205 202.98061515969863 -44.13137554242019 215.4513502573095 -46.163673400878906 227.92188262939453 C-48.024146764363195 239.3385282193184 -49.87948727980108 250.75593856177488 -51.71447283029556 262.1767124533653 C-52.57728031769989 267.542280464951 -53.45199092626365 272.90572199127837 -54.33623683452606 278.26779663562775 C-54.88720236602035 281.62479306055207 -55.42757076540033 284.98343639474126 -55.96526908874512 288.3425807952881 C-56.214006123174045 289.88303267773847 -56.46695895454354 291.42281170090257 -56.72478103637695 292.9617691040039 C-60.47668747637658 315.39726633697524 -59.15438505865677 335.64700847239897 -45.98828125 355.03125 C-44.309234700930574 357.234762774509 -42.560644505977734 359.3413935223591 -40.75 361.4375 C-40.21890625000003 362.100078125 -39.687812500000064 362.76265624999996 -39.140625 363.4453125 C-35.161402616456826 368.2772253943024 -30.664742561537878 372.0668826223398 -25.7734375 375.953125 C-22.474995844690284 378.6634724066886 -19.361039929185495 381.5169319032136 -16.25 384.4375 C-12.354703853563024 388.0868376526091 -8.416603435691513 391.59452747601495 -4.25 394.9375 C0.5110847756184285 398.7574401106706 4.962730250603954 402.8268881924671 9.4140625 406.99609375 C12.761168692571687 410.1131855359731 16.180141406002917 413.0733111280721 19.75 415.9375 C25.154367824619953 420.27677343582627 30.19955122834267 424.941464151693 35.265625 429.6640625 C39.883537609349446 433.9685551377311 44.657616065645925 438.0806240548136 49.4609375 442.17578125 C50.66162041040775 443.2003309235504 51.86213621170532 444.2250764610624 53.0625 445.25 C53.66868164062498 445.7673168945312 54.274863281249964 446.2846337890626 54.8994140625 446.817626953125 C58.64070820347729 450.02252229489477 62.31115383025087 453.2895927779672 65.9375 456.625 C69.4113630911861 459.8148684443154 72.94910024866283 462.857988944452 76.625 465.8125 C81.42140710433796 469.67968863398187 85.92041460060864 473.78730715894994 90.41357421875 477.99560546875 C93.76081784544931 481.11289335917627 97.17995905522389 484.0731648233773 100.75 486.9375 C101.63558593750008 487.6696875 102.52117187499994 488.401875 103.43359375 489.15625 C105.40388763014334 490.75216071567775 107.42206942908297 492.2899141302421 109.47265625 493.78125 C117.0971274488868 499.64926107703116 120.69850368249445 505.79688940326 124.0390625 514.7734375 C124.4625346374512 515.8713461303711 124.8860067749024 516.9692547607422 125.32231140136719 518.1004333496094 C126.64590372986822 521.5408213882301 127.94794662796949 524.9889127589092 129.25 528.4375 C130.0582354097587 530.54012111469 130.8683258892013 532.6420302467654 131.680419921875 534.7431640625 C134.16207014086785 541.1750146160875 136.61312946668113 547.618302652321 139.0625 554.0625 C139.96714071072347 556.4375860265059 140.87201265348017 558.8125839907333 141.777099609375 561.1875 C143.6550654322266 566.1158568704567 145.5320524209851 571.0445846737626 147.408203125 575.9736328125 C150.22241658079315 583.3663197653661 153.0401278516308 590.757668862481 155.859375 598.1484375 C156.3151190185547 599.3433581542969 156.7708630371094 600.5382788085938 157.24041748046875 601.7694091796875 C159.47959953195618 607.6388694967833 161.7212793252885 613.5073576009177 163.9677734375 619.3740234375 C164.82231432314234 621.6061011484115 165.67680751280523 623.8381971201733 166.53125 626.0703125 C166.94070861816408 627.1397912597656 167.35016723632816 628.2092700195312 167.77203369140625 629.3111572265625 C169.93890103136619 634.9791595484987 172.08578106512027 640.6538082989302 174.20045471191406 646.3414916992188 C175.31379618171036 649.333552921329 176.43761267232912 652.3216102889011 177.56320190429688 655.30908203125 C178.05572358278027 656.6259501593432 178.54265508186927 657.944925107136 179.02346801757813 659.26611328125 C179.65932380331287 661.013249772866 180.31529542419196 662.7530281498307 180.97265625 664.4921875 C181.1467199707031 664.9639038085937 181.1467199707031 664.9639038085937 182.027587890625 667.35107421875 C183.25 669.4375 183.25 669.4375 185.0226287841797 670.1411285400391 C187.73251146234793 670.501702421908 189.49189974360115 670.0445140236134 192.1103515625 669.265869140625 C193.07104553222655 668.9855030822754 194.0317395019531 668.7051370239258 195.02154541015625 668.4162750244141 C196.0508416748047 668.1048808288574 197.08013793945315 667.7934866333007 198.140625 667.47265625 C199.2003753662109 667.160496673584 200.2601257324219 666.8483370971679 201.35198974609375 666.5267181396484 C204.7375055673881 665.5271440475113 208.11870906928095 664.5137634248005 211.5 663.5 C213.79400040653604 662.8200505141981 216.08826830273836 662.1410027803569 218.3828125 661.462890625 C224.00835452538865 659.7982132437072 229.63041802125167 658.1221805637973 235.25 656.4375 C233.84456805199375 649.3610428743291 231.74106826642299 642.7702640026803 229.27734375 635.99609375 C228.8825532531739 634.8965939331055 228.4877627563476 633.7970941162109 228.0810089111328 632.6642761230469 C226.78799562276686 629.0660948633797 225.48765392989105 625.4706065021671 224.1875 621.875 C223.27962258963476 619.351386686775 222.37224565103702 616.827601232208 221.4658203125 614.303466796875 C221.00602264814188 613.0232658155495 220.5462142634177 611.7430686845066 220.08639526367188 610.4628753662109 C219.85789760589591 609.8266921806336 219.62939994812018 609.1905089950561 219.39397811889648 608.5350475311279 C218.6968863747975 606.5950716015062 217.9990749321695 604.6553559634606 217.30105590820313 602.7157135009766 C213.34356228202353 591.71655327573 209.4306171953035 580.7019015967959 205.53591918945313 569.6803588867188 C204.49981688831963 566.7494820223957 203.46197186299014 563.8192279680089 202.423583984375 560.88916015625 C199.27985234660673 552.0163488360896 196.1433018748021 543.1411743135038 193.02996826171875 534.2576446533203 C191.6129338600856 530.217594679101 190.19034082702763 526.1795136175033 188.7669677734375 522.1416931152344 C188.1062270427367 520.2629124185128 187.44796360920384 518.3832579958496 186.7926025390625 516.5025939941406 C183.34033055728287 506.5977964348449 179.68853280669168 496.82009686212086 175.5859375 487.1640625 C175.2265710449219 486.31338699340813 174.86720458984382 485.4627114868165 174.4969482421875 484.5862579345703 C167.6964370844853 468.8723921213809 157.27685165742923 453.80306283087464 144.8515625 441.99609375 C142.4569376856257 439.66571496723077 140.31415413550576 437.13406432299666 138.1328125 434.60546875 C136.03424680348098 432.1890704894854 133.89560299750588 429.8122097582565 131.75 427.4375 C129.06016569238523 424.45687279426465 126.38689636019751 421.4650476728193 123.75 418.4375 C119.6391896139919 413.7204871607556 115.44332154648703 409.0811111085259 111.25 404.4375 C106.48213025243422 399.1576442392727 101.73487781844347 393.8645819396944 97.0625 388.5 C94.2173071026557 385.2623667030218 91.32146164421738 382.070637099917 88.43359375 378.87109375 C86.54151314971523 376.7623885371602 84.67094242244616 374.63830198723804 82.8125 372.5 C80.00177475285727 369.2719048785716 77.13420099717348 366.1001155730696 74.25 362.9375 C70.79795492238225 359.15222583495006 67.3911252646792 355.33577624802695 64.03125 351.46875 C61.939370017690294 349.08327282719074 59.81466111745408 346.7290583033158 57.6875 344.375 C56.935976562499945 343.5280859375 56.184453125000005 342.681171875 55.41015625 341.80859375 C53.250000000000114 339.4375000000001 53.250000000000114 339.4375000000001 51.30859375 337.59765625 C47.317369206978924 333.66199399760103 47.317369206978924 333.66199399760103 47.13768196105957 330.39602184295654 C48.05489040980797 323.02995434546256 49.50533111556467 315.8157369320286 51.06982421875 308.561767578125 C51.361111310858746 307.1924518406205 51.65194103532781 305.8230387431662 51.942352294921875 304.4535369873047 C52.72658134014125 300.7625820859016 53.517673340967804 297.07313113186956 54.31047201156616 293.38400864601135 C54.97357481908341 290.2953808918028 55.63330443970267 287.2060365494475 56.29306614398956 284.11669367551804 C57.849762041530084 276.82778590975613 59.412083829069616 269.5400999948663 60.97802734375 262.253173828125 C62.590382201152806 254.74982589245383 64.19348633189475 247.244544104625 65.7920264005661 239.7382419705391 C67.16860747896033 233.275716808713 68.55076880501633 226.81440256913936 69.93741619586945 220.35402983427048 C70.76391824746213 216.50314381408236 71.58836626340371 212.65184827139478 72.40749740600586 208.7993869781494 C73.17754424823761 205.17902945559229 73.95458279810737 201.56024139562328 74.7369270324707 197.9425220489502 C75.15739597137485 195.99001678501497 75.57082454954309 194.03599950149135 75.9840087890625 192.08193969726563 C79.52224401427964 175.81054139071824 79.52224401427964 175.81054139071824 86.25 171.4375 C88.91853826964916 170.54798724345028 90.73541469261068 170.21683063083987 93.5 170.125 C94.22703124999998 170.08761718749997 94.95406249999996 170.050234375 95.703125 170.01171875 C101.44757604581389 170.97206409354862 105.04390408770132 173.83299101065222 108.4609375 178.34375 C109.52904067179679 179.86567243545915 110.58327317744204 181.39740340812028 111.625 182.9375 C112.75965058211455 184.56043170018614 113.89506954077683 186.1828264667912 115.03125 187.8046875 C115.5791015625 188.59584960937502 116.126953125 189.38701171875 116.69140625 190.2021484375 C124.21772806944875 200.9964784153936 132.04735544298705 211.0678729396708 142.25 219.4375 C143.09304687500003 220.16453124999998 143.93609375000005 220.89156249999996 144.8046875 221.640625 C154.4158582742101 229.543709721499 165.20081178526925 235.0603012485302 176.18505859375 240.8203125 C180.81890908808055 243.2653201210328 185.40812224569504 245.78983053072966 190 248.3125 C196.08094179132013 251.63966058242215 202.1754798074819 254.94022429879055 208.2890625 258.20703125 C208.8922682189941 258.5294177246094 209.4954739379882 258.8518041992188 210.11695861816406 259.1839599609375 C212.55715214912016 260.487646951829 214.99757276954915 261.7908941292229 217.43954467773438 263.09124755859375 C223.15865054801384 266.13680547682156 228.86853712313678 269.1859601748895 234.48046875 272.42578125 C235.2282861328125 272.85737548828126 235.97610351562503 273.2889697265625 236.74658203125 273.733642578125 C238.07736743814576 274.5091215241664 239.40304273099787 275.29347148768284 240.72216796875 276.088623046875 C242.44140625 277.09375 242.44140625 277.09375 245.25 278.4375 C248.25 277.4375 248.25 277.4375 249.967529296875 274.111083984375 C250.59759193357365 272.6399863153854 251.21570574091834 271.1637353633764 251.82421875 269.68359375 C251.9885666656494 269.29587043762206 251.9885666656494 269.29587043762206 252.8202667236328 267.33375549316406 C253.86959888883484 264.8516804323384 254.90365715954795 262.3635611587499 255.9375 259.875 C256.6454888943781 258.19294002452887 257.3544610337426 256.51129353832346 258.064453125 254.830078125 C259.8044218427751 250.70393336847633 261.5307170578012 246.57230443123842 263.25 242.4375 C260.8872860500485 239.8203771375255 258.4156414711282 238.26428250580943 255.33203125 236.57421875 C254.3372778320313 236.02427246093748 253.3425244140625 235.47432617187496 252.317626953125 234.90771484375 C251.24343505859383 234.31941894531246 250.16924316406244 233.73112304687504 249.0625 233.125 C246.78021617701222 231.86254423782987 244.49899168362606 230.59817178894616 242.21875 229.33203125 C241.6369648742675 229.00912109374997 241.05517974853524 228.68621093749994 240.4557647705078 228.353515625 C234.60474039365783 225.09646077179502 228.83193033958833 221.71125001667713 223.0625 218.3125 C215.48812644541738 213.85865718910316 207.85674196307264 209.54927231217857 200.125 205.375 C198.31996762432573 204.38604587111678 196.51527935170725 203.39646342570438 194.7109375 202.40625 C190.99394176689748 200.3688055303585 187.2464310394347 198.40630772897953 183.4765625 196.46875 C170.50466415891094 189.58917991013777 162.7770802308189 182.2261435146695 154.87548828125 169.91357421875 C152.1558800564486 165.77084868316336 149.15892625804872 161.83880434697437 146.1875 157.875 C141.12290623177887 151.02149727868635 136.1227252735348 144.1230087158716 131.144287109375 137.206787109375 C126.63723046294479 130.95339097227406 122.06682112361318 124.74819535408852 117.48486328125 118.549560546875 C114.04564897339571 113.8911968183109 110.63414464668904 109.21459158951745 107.253662109375 104.513427734375 C105.64179621066819 102.27334247775514 104.02264524482416 100.03867602772453 102.40234375 97.8046875 C100.30498835616095 94.91138282927466 98.23978435932622 91.99844696402238 96.19140625 89.0703125 C90.15612491212619 80.55371844847014 84.2174314270012 73.99168566819685 75.25 68.4375 C74.38713378906255 67.89802734375002 73.52426757812498 67.35855468750003 72.63525390625 66.802734375 C59.01099935165007 58.34238353936047 45.1383691098647 50.28868075864028 30.9306640625 42.84716796875 C29.11904418061863 41.894500100081245 27.313799155736206 40.92962524710504 25.5146484375 39.95361328125 C-4.766950810335402 23.593782408666357 -26.274981713608213 33.73852607810517 -49.1796875 56.8984375 Z " fill="#FFFFFF" transform="translate(583.75,299.5625)"/>
<path d="M0 0 C5.780327309337963 4.074385438673744 10.955235632265953 8.637063186801925 16.1484375 13.4296875 C18.84657873988317 15.861710699785135 21.607122665309134 18.161778742424303 24.4375 20.4375 C28.97236161470937 24.095062639459798 33.25536182506289 27.94617027237109 37.51708984375 31.91162109375 C41.62779276018932 35.71398806560023 45.92275583974106 39.24270591979155 50.28515625 42.75390625 C53.10673495163087 45.08830589523416 55.80590711624234 47.519905983604644 58.5 50 C62.93360653087586 54.08093328410166 67.51823547177037 57.9014338076762 72.20703125 61.68359375 C76.95607093277863 65.62230778061223 81.47475701786186 69.80736675349294 86 74 C83.84077770490285 80.8157608333263 81.29076963366526 87.42246180247082 78.578125 94.03515625 C78.15505065917966 95.07208114624018 77.73197631835933 96.10900604248047 77.29608154296875 97.17735290527344 C76.40320420950809 99.36383898314386 75.50891244773311 101.54974794138309 74.61328125 103.735107421875 C73.26454808344977 107.02699215090672 71.92098093999925 110.32094846492475 70.578125 113.615234375 C68.07249415511501 119.75200922817146 65.54657953418564 125.88010507989577 63 132 C62.658458862304656 132.8212335205078 62.31691772460931 133.6424670410156 61.96502685546875 134.48858642578125 C58.563210355053116 142.61741983779655 54.955676772748575 150.35008161469727 50.125 157.75 C48.99062472828541 159.53546640400054 47.85790268878009 161.32198390845247 46.7265625 163.109375 C46.12747070312503 164.05103515625 45.528378906250055 164.99269531250002 44.9111328125 165.962890625 C41.74153159303398 170.99991657928683 38.67045001831889 176.09644042475497 35.59344482421875 181.1903076171875 C30.27662013868826 189.98985279865428 24.92799355672753 198.76845712289787 19.5 207.5 C14.508734058004507 215.53010992428233 9.586560903616373 223.6009192285792 4.6875 231.6875 C-1.562333945200578 242.00365180673884 -7.856785307816381 252.29067623908884 -14.1884765625 262.556884765625 C-18.50737200357605 269.5630810650573 -22.794038525734322 276.5879862751319 -27.0625 283.625 C-34.26154956548305 295.4877680999532 -41.618341358787234 307.2502097442514 -49 319 C-51.78454332566895 317.7023487414358 -54.07241613067981 316.2731536750789 -56.43359375 314.3125 C-56.75457031249999 314.0482421875 -56.75457031249999 314.0482421875 -58.37890625 312.7109375 C-59.058242187500014 312.1463281250001 -59.73757812500003 311.58171874999994 -60.4375 311 C-65.40069925797007 306.9179484363797 -70.38587049104797 302.89160293046666 -75.5 299 C-81.11560335711926 294.718797440612 -86.59275315321145 290.286571899366 -92.05859375 285.81640625 C-96.15607022435915 282.4739350377108 -100.29479942475837 279.205944993006 -104.5 276 C-114.20761106568409 268.59506821331706 -123.63434031420536 260.83125485319147 -133 253 C-131.56594155381862 249.1385977841196 -129.7685307497265 245.70214214657517 -127.68359375 242.15234375 C-127.3552101135254 241.59170227050777 -127.0268264770508 241.03106079101565 -126.68849182128906 240.45343017578125 C-125.6085142567253 238.6125919128391 -124.52318588216127 236.77497650763098 -123.4375 234.9375 C-122.67764762719304 233.64564021253534 -121.9178833825543 232.3537285857451 -121.158203125 231.061767578125 C-115.4980278843878 221.4545693911855 -109.72218283812748 211.9198313234789 -103.91061401367188 202.4036865234375 C-99.45773494331803 195.109379220954 -95.09520166258017 187.78250487975777 -90.9580078125 180.303955078125 C-88.28888225355877 175.48124206018383 -85.48970065810067 170.75309410126124 -82.638916015625 166.036865234375 C-79.37041278862677 160.62819630431795 -76.14860298481938 155.1929265312035 -72.9375 149.75 C-68.6462160506498 142.47872841184494 -64.35071919581577 135.21001884242185 -60.04296875 127.948486328125 C-58.673012147281895 125.63820181422011 -57.30753035230555 123.32535344918654 -55.9453125 121.010498046875 C-52.90428651507847 115.84942511855434 -49.84182766057393 110.71174394876482 -46.62109375 105.66015625 C-37.19985003714055 90.71438357048885 -30.74300540622636 74.824279630864 -24.201171875 58.48193359375 C-20.366913219627463 48.91146038083036 -16.44724899696496 39.375467034908525 -12.547149658203125 29.831695556640625 C-11.203194108505102 26.53845695930295 -9.863501545665088 23.24351616362594 -8.525146484375 19.947998046875 C-8.10642272949218 18.918334197998092 -7.687698974609361 17.88867034912107 -7.25628662109375 16.827804565429688 C-6.467250489930564 14.887235712385404 -5.679385321174209 12.946190191963524 -4.89288330078125 11.004592895507813 C-4.540465698242201 10.138760833740207 -4.188048095703152 9.272928771972602 -3.824951171875 8.380859375 C-3.5193376159668333 7.627845458984325 -3.213724060058553 6.874831542968764 -2.8988494873046875 6.0989990234375 C-2.0090228844007925 4.021070296877724 -1.0319193278243688 2.010626233067228 0 0 Z M12 52 C11.587499999999977 53.02657714843747 11.174999999999955 54.05315429687505 10.75 55.11083984375 C9.180203978796499 59.01499903399531 7.606057119015816 62.9173928415446 6.03076171875 66.8193359375 C5.356770246625615 68.4904261151878 4.683872870757682 70.16195809335863 4.01220703125 71.833984375 C-9.326553435697178 105.03089948014588 -9.326553435697178 105.03089948014588 -17 117.4375 C-18.129235923804572 119.30709258300158 -19.258125982272986 121.1768941009907 -20.38671875 123.046875 C-20.973725585937473 124.01173828125002 -21.560732421875002 124.97660156250004 -22.16552734375 125.970703125 C-25.423719681183798 131.3510132824233 -28.612478105219225 136.77246781850818 -31.8125 142.1875 C-33.17282030887259 144.4832855356873 -34.53344333457562 146.77888854334014 -35.89453125 149.07421875 C-36.580260402202725 150.230945461558 -37.265970037861734 151.3876837431094 -37.95166015625 152.54443359375 C-38.29054260253906 153.11611267089847 -38.629425048828125 153.68779174804695 -38.97857666015625 154.27679443359375 C-41.98622889170167 159.35089335520843 -44.99302512997741 164.42549964963348 -48 169.5 C-52.034699598317275 176.30886452673633 -56.06960801723545 183.11760491456835 -60.10546875 189.92578125 C-65.28905314241672 198.67033849346888 -70.47137487686535 207.4156421737796 -75.6484375 216.1640625 C-76.22239257812498 217.13384033203124 -76.79634765625002 218.10361816406248 -77.3876953125 219.102783203125 C-78.483056771348 220.95675432538224 -79.57624664967318 222.8120106162346 -80.6669921875 224.668701171875 C-82.88037416504551 228.4353398630559 -85.10158135252777 232.18965496426142 -87.4296875 235.88671875 C-87.76097656249999 236.42103515625 -87.76097656249999 236.42103515625 -89.4375 239.125 C-89.71529296875002 239.55941406249997 -89.71529296875002 239.55941406249997 -91.12109375 241.7578125 C-92 244 -92 244 -91.51171875 246.02734375 C-89.4569275540295 248.7086604269124 -87.09738622603487 250.4345533101257 -84.375 252.4375 C-80.41887318113749 255.37955454602582 -76.52099378573075 258.36323800053424 -72.72265625 261.5078125 C-72.00996582031252 262.0976391601563 -71.29727539062503 262.68746582031247 -70.56298828125 263.295166015625 C-69.16528517185435 264.45734988984 -67.77159600859306 265.6243812129917 -66.38232421875 266.796630859375 C-65.73924316406249 267.3290942382812 -65.09616210937497 267.8615576171875 -64.43359375 268.41015625 C-64.15028198242186 268.64802856445317 -64.15028198242186 268.64802856445317 -62.716552734375 269.851806640625 C-60.82556309431948 271.11667995554194 -59.2220335372578 271.5791718242715 -57 272 C-49.75879144208426 260.34817094539505 -42.56612730828044 248.66862310930514 -35.44482421875 236.943115234375 C-30.989493853863223 229.61245006269053 -26.50099851590778 222.30270113565962 -22 215 C-16.975843905106842 206.84785691489787 -11.971803531402088 198.68417887246778 -7 190.5 C-2.701299712759692 183.42382897922312 1.6157874937954944 176.35952958746464 5.9609375 169.311767578125 C7.324093081447302 167.0977822497806 8.683451085211345 164.8814543961023 10.0390625 162.662841796875 C13.140366475665132 157.5936616619408 16.26807996390096 152.55950731424355 19.5625 147.61328125 C32.62083628325581 127.674567865359 40.70561011467976 105.23785565215019 49 83 C48.10539062500004 82.2381640625 47.21078124999997 81.47632812500001 46.2890625 80.69140625 C40.74174057657774 75.95735268019894 35.20379475394998 71.22476210214506 29.8125 66.3125 C16.533604887983756 54.26680244399188 16.533604887983756 54.26680244399188 12 52 Z " fill="#FFFFFF" transform="translate(503,698)"/>
<path d="M0 0 C17.27149201462703 13.857952294921972 28.152160946338086 32.15574599349691 32 54 C33.820838843449565 81.77972199640845 28.198167578960465 104.30980663966102 9.765625 125.578125 C-4.443848209745283 140.71632194894437 -24.486664455717914 150.39579282223497 -45.24609375 151.38671875 C-70.36041703507465 152.0523024071864 -91.05650471410183 145.77210649818653 -110 129 C-126.31395004258638 113.40544178005965 -135.7739451230284 92.86457006652279 -136.35400390625 70.293701171875 C-136.53671782167874 46.52602010326075 -129.02350238912595 24.96730640999749 -112.5546875 7.47265625 C-82.01009385600003 -22.091147689834855 -34.19424593201302 -26.19953491128885 0 0 Z M-92 32 C-102.60483092067534 44.89175056578273 -106.3483851358136 58.41486282949319 -105 75 C-101.9280729371452 90.49926836258547 -94.01284795223387 102.38770865461083 -81.5234375 111.8828125 C-68.64665572119202 120.22965150320124 -53.38551870904257 122.24183886085132 -38.46875 119.3046875 C-23.322481745003415 114.65931141148297 -11.434164651842593 104.92216289345072 -4 91 C1.7875621707370328 78.45735006767322 3.5915570755042836 63.777002986872446 -0.625 50.375 C-2.8236008295765487 44.8862394782754 -5.6435637262063665 39.860459616733976 -9 35 C-9.416367187499986 34.38640624999999 -9.832734374999973 33.772812499999986 -10.26171875 33.140625 C-18.16193119574848 22.79680329926026 -31.34237921988597 16.028942154459457 -44 14 C-63.166435971748115 12.706689608101073 -78.56289696964234 18.006725486597702 -92 32 Z " fill="#FFFFFF" transform="translate(705,138)"/>
<path d="M0 0 C49.83000000000004 0 99.66000000000008 0 151 0 C151 10.230000000000018 151 20.460000000000036 151 31 C101.17000000000007 31 51.34000000000003 31 0 31 C0 20.769999999999982 0 10.539999999999964 0 0 Z " fill="#FFFFFF" transform="translate(930,1050)"/>
<path d="M0 0 C49.83000000000004 0 99.65999999999997 0 151 0 C151 10.230000000000018 151 20.460000000000036 151 31 C101.16999999999996 31 51.34000000000003 31 0 31 C0 20.769999999999982 0 10.539999999999964 0 0 Z " fill="#FFFFFF" transform="translate(660,1050)"/>
<path d="M0 0 C49.829999999999984 0 99.66000000000003 0 151 0 C151 10.230000000000018 151 20.460000000000036 151 31 C101.16999999999996 31 51.339999999999975 31 0 31 C0 20.769999999999982 0 10.539999999999964 0 0 Z " fill="#FFFFFF" transform="translate(390,1050)"/>
<path d="M0 0 C49.83000000000001 0 99.66000000000003 0 151 0 C151 10.230000000000018 151 20.460000000000036 151 31 C101.16999999999999 31 51.339999999999975 31 0 31 C0 20.769999999999982 0 10.539999999999964 0 0 Z " fill="#FFFFFF" transform="translate(120,1050)"/>
</svg>
