<?xml version="1.0" encoding="UTF-8"?>
<!-- Generator: visioncortex VTracer 0.6.12 -->
<svg version="1.1" xmlns="http://www.w3.org/2000/svg" width="600" height="600">
<path d="M0 0 C1.021909332275385 -0.004285125732423012 2.04381866455077 -0.008570251464846024 3.0966949462890625 -0.0129852294921875 C5.254315798619388 -0.01871901073516824 7.411955978578931 -0.019235816079799406 9.569580078125 -0.014892578125 C12.863780643921217 -0.01173325629871158 16.157082293340068 -0.03520204591873011 19.451171875 -0.060546875 C21.550780120361992 -0.06282007783164545 23.650390773413278 -0.06352326685914278 25.75 -0.0625 C26.731414642334016 -0.07170974731445057 27.712829284667976 -0.08091949462890824 28.723983764648438 -0.0904083251953125 C34.000832500030754 -0.054851246227535455 38.00751659910486 0.11970127067692715 42.44140625 3.30078125 C46.15025080943445 7.19500144007479 46.70919351642698 9.933838500662063 46.69122314453125 15.295867919921875 C46.598686114900545 17.781257334314063 46.48415200385921 20.265885000281145 46.3525390625 22.74951171875 C46.29572554086462 24.123806036057573 46.24133133636684 25.498202169065934 46.18916320800781 26.8726806640625 C46.07583888688646 29.832534167336433 45.953586731028736 32.7918458488886 45.82691192626953 35.751155853271484 C45.63315117764188 40.474738213315774 45.510847650060555 45.19851003349632 45.40716552734375 49.924835205078125 C45.39831301808357 50.325951403975495 45.39831301808357 50.325951403975495 45.353513956069946 52.35584247112274 C45.28162945502089 55.66805591349775 45.21190557880044 58.98031281904045 45.14260911941528 62.29258131980896 C44.944126408643456 71.61395395490436 44.68092985566983 80.92264092391426 44.21630859375 90.23486328125 C43.73734657203863 100.04558088599066 43.453001534147745 109.84497516178052 43.45703125 119.66796875 C43.457034397125256 120.4607242488861 43.45703754425051 121.25347974777222 43.457040786743164 122.07025814056396 C43.56297148849444 143.68847064302935 46.59518406240716 158.88207032502393 61.94525146484375 174.73391723632813 C69.88398766526717 182.31823692073 78.3444626020198 189.15733860796243 87.44140625 195.30078125 C87.84766738891602 194.1993327331543 88.25392852783204 193.0978842163086 88.67250061035156 191.9630584716797 C89.22313721501718 190.47040167007785 89.77379258834355 188.97775179209557 90.324462890625 187.485107421875 C90.61085915565491 186.70879313468933 90.89725542068481 185.93247884750366 91.1923303604126 185.13263988494873 C92.7166638057675 181.00167604355264 94.2432817145986 176.87158672928018 95.775146484375 172.743408203125 C98.84691695822642 164.4512572754493 101.86286113115813 156.14771845244226 104.7265625 147.78125 C105.49267836057135 145.57270611515887 106.26069257647896 143.36483250175291 107.0294189453125 141.15719604492188 C107.50585389162791 139.7719825108222 107.97365142579218 138.38376266891746 108.4320068359375 136.99246215820313 C111.71347039998079 127.0406191444907 115.7995887216083 118.01425033199138 125.330810546875 112.685302734375 C131.20317709337206 110.38704365372385 137.59138394532766 109.80048379811956 143.79296875 108.8828125 C145.2313867570411 108.66288174392992 146.66967761733792 108.4421180182633 148.10784912109375 108.2205810546875 C151.96146373675782 107.62938313602382 155.81673383419815 107.04975539025696 159.67247772216797 106.47262954711914 C163.67662419951552 105.87157433543598 167.6792936935496 105.26083851022898 171.68212890625 104.651123046875 C177.35605286933395 103.78787193063698 183.03054237638952 102.92850497223205 188.70576286315918 102.07381916046143 C196.73601133676698 100.86441291278419 204.76353463720807 99.63886538870699 212.78836059570313 98.39399719238281 C217.6654943680686 97.6375910421923 222.5434469324913 96.88656378647428 227.42156982421875 96.13656616210938 C229.6686518689242 95.79019774172349 231.91544331584146 95.44193829766846 234.16192626953125 95.09170532226563 C237.26195027377378 94.60938147308019 240.36316717185167 94.13562484632018 243.46484375 93.6640625 C244.35234313964844 93.52399780273436 245.23984252929688 93.38393310546877 246.15423583984375 93.2396240234375 C259.8127364019139 91.19089842525256 259.8127364019139 91.19089842525256 265.25390625 93.48828125 C270.76569994575243 98.05519602648059 272.23426620238604 102.19393879464124 273.36328125 109.00390625 C273.51299377441404 109.84113220214846 273.66270629882814 110.67835815429686 273.81695556640625 111.54095458984375 C274.1297461868715 113.30811674256304 274.43524715290096 115.07658284615428 274.73388671875 116.84619140625 C275.1880633703797 119.53102008648136 275.66623872589867 122.21070311043343 276.1484375 124.890625 C276.45065382952475 126.61563461036076 276.7514799297255 128.34088847688076 277.05078125 130.06640625 C277.1913494873047 130.8573468017578 277.3319177246094 131.64828735351563 277.47674560546875 132.46319580078125 C279.6963352399139 145.79092327017213 279.6963352399139 145.79092327017213 276.75390625 151.67578125 C272.06169520517864 157.00207486844587 267.3043737562544 157.94367897188008 260.5712890625 158.894775390625 C259.68768707275393 159.02855087280273 258.8040850830078 159.16232635498048 257.8937072753906 159.30015563964844 C254.97874115415323 159.7389728412897 252.06174893807963 160.1623710946942 249.14453125 160.5859375 C247.1104185986265 160.8896940889388 245.07646456121972 161.19451457583673 243.04266357421875 161.50035095214844 C237.68814148867597 162.30305521064346 232.3318377681943 163.09314894960482 226.9749755859375 163.88006591796875 C218.4152111174128 165.1397345914754 209.85834509549886 166.41895276817607 201.30135345458984 167.6972942352295 C198.32132380546204 168.14073062902102 195.34058603271012 168.57911408765574 192.35968017578125 169.01661682128906 C190.51614100012364 169.28971754774517 188.67261415250562 169.56290151060094 186.8291015625 169.836181640625 C186.00904632568358 169.95518829345704 185.18899108886717 170.07419494628905 184.34408569335938 170.19680786132813 C178.98209913607508 170.9964594874933 173.71803266601512 172.05783607299375 168.44140625 173.30078125 C168.3424269580841 173.63448038101197 168.3424269580841 173.63448038101197 167.84153175354004 175.32320022583008 C166.0796026206384 181.25319211355222 164.22502590318982 187.14696597024513 162.3046875 193.02734375 C162.02038375854494 193.90103607177736 161.73608001708982 194.77472839355468 161.4431610107422 195.67489624023438 C160.54781779792285 198.42554272392817 159.65089164614784 201.1756699008415 158.75390625 203.92578125 C158.14117058708916 205.80725732680378 157.52853945670694 207.68876744984073 156.916015625 209.5703125 C155.42568537809944 214.14752926320477 153.9339367165088 218.7242814816085 152.44140625 223.30078125 C152.93586746215823 223.05244033813477 153.4303286743164 222.80409942626954 153.9397735595703 222.54823303222656 C159.0807924398925 219.96667204167784 164.2232106927612 217.3879151813336 169.366455078125 214.810791015625 C171.2864130227207 213.84829582212637 173.20601154152502 212.88508331130106 175.125244140625 211.921142578125 C177.8820353073619 210.53669046208216 180.64010365738784 209.15481294951712 183.3984375 207.7734375 C184.25790481567384 207.3411231994629 185.11737213134768 206.90880889892577 186.0028839111328 206.46339416503906 C186.80348739624026 206.06305465698244 187.60409088134764 205.66271514892577 188.428955078125 205.250244140625 C189.13288894653323 204.89716690063477 189.8368228149414 204.54408966064454 190.5620880126953 204.18031311035156 C196.7917303696654 201.26480427167348 204.28557545758116 201.17883971019364 210.88671875 202.9609375 C218.3639037583311 206.38689509092524 224.94612232864085 211.87269260674697 231.5390625 216.73046875 C237.34293476311552 220.99094525457213 243.28923919214992 225.0344335268748 249.247802734375 229.07421875 C249.62392700195312 229.329453125 249.62392700195312 229.329453125 251.52734375 230.62109375 C252.18782714843752 231.0672705078125 252.84831054687498 231.51344726562502 253.52880859375 231.97314453125 C255.5351844868461 233.36587775905912 257.4874973361368 234.8353495646026 259.44140625 236.30078125 C259.77140625 224.09078124999996 260.10140625 211.88078124999998 260.44140625 199.30078125 C266.38140625 199.30078125 272.32140625 199.30078125 278.44140625 199.30078125 C278.4661201264312 205.9210584256703 278.4842728805369 212.54130875819885 278.496337890625 219.16162109375 C278.5013674818599 221.41390449770483 278.5081919089446 223.666184636453 278.516845703125 225.91845703125 C278.5289713131499 229.15528163671604 278.53464830877374 232.39206308075495 278.5390625 235.62890625 C278.5442237854004 236.63632873535153 278.5493850708008 237.64375122070317 278.55470275878906 238.68170166015625 C278.554740524292 239.15203826904298 278.554740524292 239.15203826904298 278.554931640625 241.5322265625 C278.5571522521973 242.35829406738281 278.55937286376957 243.18436157226563 278.56166076660156 244.03546142578125 C278.44400301241603 246.25186419020145 278.05739412888374 248.1738181812234 277.44140625 250.30078125 C278.103984375 250.514765625 278.76656249999996 250.72875 279.44921875 250.94921875 C283.4803744594484 252.770080206226 286.77821226812375 255.2923416839816 290.31640625 257.92578125 C295.690173775624 261.87957278661634 301.09280461719277 265.7729690501006 306.59765625 269.54296875 C307.6303564453125 270.2511474609375 308.663056640625 270.959326171875 309.72705078125 271.68896484375 C311.75525503643064 273.07540129130115 313.7873732677084 274.4561327506679 315.82373046875 275.83056640625 C316.7571728515625 276.4704248046875 317.69061523437495 277.110283203125 318.65234375 277.76953125 C319.48040527343755 278.33091796875 320.308466796875 278.8923046875 321.16162109375 279.470703125 C324.40562866206847 282.0748025822837 327.00813105134716 284.70622775728333 328.11328125 288.7734375 C328.3530725879061 296.72252035158675 325.57322608066386 301.17549016163593 320.86328125 307.38818359375 C318.55143722609546 310.4978996107947 316.3701835620674 313.6975654954069 314.16455078125 316.883056640625 C311.28357950318457 321.04162641016546 308.3771646859209 325.1807209670576 305.44140625 329.30078125 C304.90547851562496 330.06583984375 304.3695507812499 330.8308984375 303.8173828125 331.619140625 C303.5606982421875 331.976533203125 303.5606982421875 331.976533203125 302.26171875 333.78515625 C301.81328613281244 334.416474609375 301.364853515625 335.04779296875 300.90283203125 335.6982421875 C298.7469960989754 338.06224269860104 296.52309615011507 339.1042983809542 293.3984375 339.671875 C282.63922230828746 340.0050383119474 274.76953361164544 332.5486612801333 266.48046875 326.5078125 C264.495380885547 325.0661998477944 262.4826989742198 323.6616430661465 260.44140625 322.30078125 C260.11978515625 322.904384765625 259.7981640625 323.50798828125 259.466796875 324.1298828125 C243.51173894494917 353.98018020944954 224.27227168692673 381.2116487935192 197.44140625 402.30078125 C196.93673828124997 402.708125 196.93673828124997 402.708125 194.3828125 404.76953125 C187.0690765023818 410.61102902656205 179.45383141414266 415.6237636964133 171.3134765625 420.2392578125 C170.1005555673496 420.92702261256704 168.89129374314615 421.62129755199 167.6865234375 422.3232421875 C136.0965111608279 440.68952839486747 98.81396660192746 449.30078125 62.44140625 449.30078125 C62.44140625 443.36078125 62.44140625 437.42078125 62.44140625 431.30078125 C64.41238281250003 431.1422265625 66.383359375 430.983671875 68.4140625 430.8203125 C117.28681486274576 426.6494851962929 162.11521908286738 411.42362554471123 197.962890625 376.72802734375 C199.4998503423879 375.24436378565065 201.05642390275528 373.7830584826938 202.61328125 372.3203125 C219.77295403785968 355.94846564958743 235.86002714911587 334.04491855265235 243.44140625 311.30078125 C242.76787109375 310.84340576171877 242.09433593749998 310.3860302734375 241.400390625 309.914794921875 C239.38757146474973 308.5477037897725 237.37506665450547 307.18014976935484 235.36279296875 305.812255859375 C233.07451916347833 304.257062671085 230.78426980060965 302.7048370651069 228.49267578125 301.154541015625 C223.44209206377138 297.73343270134905 218.40378863215994 294.30447575048737 213.46484375 290.72265625 C212.75134765625 290.2106567382813 212.0378515625 289.6986572265625 211.302734375 289.171142578125 C210.01809230516164 288.2444507998702 208.74256709911504 287.30492902194726 207.478515625 286.350341796875 C203.2634704998748 283.33102466454534 200.55248449480223 282.8973645856625 195.44140625 283.30078125 C192.44140625 284.471435546875 192.44140625 284.471435546875 189.44140625 286.125 C188.31943847656248 286.7346459960938 187.19747070312502 287.3442919921875 186.04150390625 287.972412109375 C184.8412794543263 288.6440256649014 183.6412518128427 289.31599103864113 182.44140625 289.98828125 C181.18342024317474 290.67898321814596 179.92478402462342 291.36850215846204 178.66552734375 292.056884765625 C170.16477311830982 296.7198170467622 161.73130313136386 301.5050690846996 153.310791015625 306.31103515625 C144.1476723356434 311.5206444809143 134.8501109564176 316.467311906969 125.535400390625 321.398681640625 C119.62783507555423 324.52766560357423 113.7341553036814 327.67334689697196 107.88671875 330.9140625 C106.88648681640626 331.46763427734373 105.88625488281252 332.0212060546875 104.855712890625 332.591552734375 C103.01817885964681 333.612335058407 101.1837663477495 334.6387671080541 99.353271484375 335.672119140625 C88.45005716621938 341.7222771005463 77.18583482244821 342.9508598619761 64.984375 340.6484375 C50.091836746114154 336.19405827900465 41.22620867469766 323.8320093320743 31.82421875 312.21875 C29.233847770473005 309.04660717753006 26.594577584963986 305.9203483080309 23.94140625 302.80078125 C19.821347891942764 297.9527747571772 15.77344194667657 293.0523170704236 11.7578125 288.1171875 C9.1635335908924 284.96292933226545 6.525343598350304 281.848751448472 3.87890625 278.73828125 C0.008988233345775143 274.18793808756044 -3.758192720664937 269.5724528964207 -7.46875 264.890625 C-9.930446327224189 261.8399620748605 -12.456716582416504 258.84931984166155 -14.99609375 255.86328125 C-28.788966604958887 239.6432645067291 -28.788966604958887 239.6432645067291 -30.77137279510498 236.18529510498047 C-32.55859375 234.30078125 -32.55859375 234.30078125 -35.44099140167236 233.80414581298828 C-36.6250768184662 233.8056539154053 -37.809162235260004 233.8071620178223 -39.02912902832031 233.8087158203125 C-39.35906170934439 233.80637632608415 -39.35906170934439 233.80637632608415 -41.028721034526825 233.79453706741333 C-43.244558398338086 233.78358543658896 -45.459264811691014 233.80110970499777 -47.675048828125 233.818359375 C-49.26179846056897 233.81617399826757 -50.848546485517915 233.8121780091422 -52.43528747558594 233.80650329589844 C-55.85501192263794 233.7979287032291 -59.274422782561686 233.80173566622022 -62.69413185119629 233.81492614746094 C-68.10231963899545 233.83523334377793 -73.5101901428234 233.82529783947962 -78.91838073730469 233.8106689453125 C-91.37875581247204 233.78160761215617 -103.83903835311858 233.79236235175904 -116.29943084716797 233.8033676147461 C-127.71059666420791 233.81304099500494 -139.1215974574302 233.81432122954084 -150.53273504972458 233.78348684310913 C-155.90773735652235 233.77011081717814 -161.28226554360162 233.77607723885603 -166.65723955631256 233.7968521118164 C-170.0041570019236 233.80584169332178 -173.35089192929678 233.79836051099164 -176.6977939605713 233.78643989562988 C-178.24817523161755 233.78431006311297 -179.79858356133843 233.78902476069283 -181.34891891479492 233.80114555358887 C-183.46880540961155 233.81678251988285 -185.5872472564268 233.8077723759613 -187.7071075439453 233.7928466796875 C-188.89232403755187 233.7943547821045 -190.07754053115843 233.7958628845215 -191.29867267608643 233.79741668701172 C-195.25777200270983 233.19426434691843 -197.43491775232073 231.75797205325523 -200.55859375 229.30078125 C-202.66907027719034 226.30153687555367 -202.81846461515983 223.7709635541837 -202.84912109375 220.152587890625 C-202.8555009460449 219.64026863098144 -202.8555009460449 219.64026863098144 -202.88778686523438 217.04762268066406 C-202.8888996887207 216.49706962585446 -202.8888996887207 216.49706962585446 -202.89453125 213.7109375 C-202.9011880493164 212.57426132202147 -202.9078448486328 211.43758514404294 -202.91470336914063 210.26646423339844 C-202.92482556674358 207.86328753711962 -202.9295205233816 205.46008275771499 -202.92919921875 203.056884765625 C-202.93357320242413 199.3805514875155 -202.96990165644692 195.70541782810506 -203.0078125 192.029296875 C-203.01368052164057 189.69401452213856 -203.01765001140478 187.3587264676024 -203.01953125 185.0234375 C-203.03390228271485 183.9243556213379 -203.0482733154297 182.8252737426758 -203.06307983398438 181.69288635253906 C-203.0176386310571 174.10275521252757 -203.0176386310571 174.10275521252757 -200.77978515625 170.193115234375 C-196.91275018158584 166.89861225694898 -194.1579340105756 166.05071531469838 -189.08221435546875 166.0694122314453 C-187.96919448852537 166.06836486816405 -186.85617462158203 166.06731750488282 -185.7094268798828 166.0662384033203 C-185.10107749938965 166.07065696716307 -185.10107749938965 166.07065696716307 -182.0224609375 166.093017578125 C-180.049976309569 166.09485722912896 -178.07749164730149 166.09668678704654 -176.1050066947937 166.09813725948334 C-173.98635900209035 166.10134262377974 -171.8677690031375 166.10922018074487 -169.74913787841797 166.1180820465088 C-165.32752232164444 166.13525601236236 -160.90607005933833 166.1319861191322 -156.48443603515625 166.1244354248047 C-143.9115724270329 166.10526087617384 -131.33891988781505 166.0985212246855 -118.76611328125 166.146240234375 C-111.82058975723675 166.1724337296438 -104.87553108147102 166.17366900345274 -97.93000340461731 166.1470929980278 C-94.25738129909237 166.13412623479198 -90.58576720905648 166.13405913910083 -86.9132308959961 166.1649570465088 C-82.81229718570273 166.19938996100322 -78.71331301547241 166.1795248527779 -74.6123046875 166.155517578125 C-73.4037028503418 166.1744758605957 -72.1951010131836 166.1934341430664 -70.94987487792969 166.2129669189453 C-65.13282159166857 166.134599959737 -61.42942010199127 165.81569290774328 -56.93804931640625 161.9250946044922 C-55.79023259197976 160.7372385469477 -54.66177822295057 159.5301995128215 -53.55859375 158.30078125 C-52.52723409017398 157.34166045287773 -51.48607839406026 156.39292201574474 -50.43359375 155.45703125 C-49.48484375000001 154.58046875 -48.53609374999999 153.70390625 -47.55859375 152.80078125 C-44.2590659810285 149.761091292835 -40.94907767898269 146.7392006551183 -37.55859375 143.80078125 C-37.272927932739265 143.5366316986084 -37.272927932739265 143.5366316986084 -35.82728576660156 142.1998748779297 C-33.55859375000006 140.30078125000003 -33.55859375000006 140.30078125000003 -30.585678100585938 138.5136260986328 C-25.90407083666716 135.26204565515172 -22.33577648959593 132.3527084317873 -20.884113311767578 126.65215682983398 C-19.819422260888956 118.46290457789678 -20.163554600743055 110.20449510443254 -20.34375 101.96875 C-20.35640347970221 99.28581363712195 -20.3638423395129 96.60339718544981 -20.363876342773438 93.92048645019531 C-20.373925932969996 87.5982389334487 -20.440545572141644 81.27807987285269 -20.53169196844101 74.95652896165848 C-20.693838692408775 63.6285343105632 -20.772687047701936 52.29997677749739 -20.81002515554428 40.970926105976105 C-20.82803511164076 36.3619830863708 -20.89325073903754 31.75506888693306 -20.969741821289063 27.146774291992188 C-20.990036257056488 24.736122812494713 -21.009370309195333 22.32546299099056 -21.027587890625 19.914794921875 C-21.05506607055665 18.82220870971679 -21.08254425048827 17.729622497558594 -21.110855102539063 16.603927612304688 C-21.127681005113544 8.328222902916835 -21.127681005113544 8.328222902916835 -18.163818359375 4.65966796875 C-12.573279002799751 -0.4022560555429564 -7.222270659203275 -0.006693279687233655 0 0 Z M-3.55859375 18.30078125 C-3.5318457031249864 20.079083251953122 -3.5318457031249864 20.079083251953122 -3.396484375 29.078369140625 C-3.2308901828043304 40.87268357996993 -3.1535170921058864 52.666474834430346 -3.1207504272460938 64.46177005767822 C-3.098769244938495 71.60891127357309 -3.047361184090846 78.7534831664349 -2.92431640625 85.899658203125 C-2.817023864798216 92.13546367883009 -2.7673465552667267 98.36875029176824 -2.784144878387451 104.60549920797348 C-2.7910856956245027 107.90332070589903 -2.7624470002223234 111.1943180154685 -2.6817169189453125 114.49131965637207 C-2.181741366705552 136.07964691358453 -2.181741366705552 136.07964691358453 -7.959228515625 143.10519409179688 C-11.184208407442867 146.3885249278782 -14.670908715119964 149.1459348872696 -18.440200805664063 151.77543449401855 C-24.39678926966218 156.06447015879897 -29.695312630342215 161.30218003957563 -35.05859375 166.30078125 C-44.85686780409998 175.38449444123407 -44.85686780409998 175.38449444123407 -49.55859375 179.30078125 C-50.140040245056156 179.8164808368683 -50.72148674011231 180.33218042373656 -51.320552825927734 180.863507270813 C-54.09869831262969 182.64763738902687 -55.76471840849575 182.68389020750234 -59.05084228515625 182.6995086669922 C-60.167009277343766 182.71204681396483 -61.28317626953125 182.7245849609375 -62.43316650390625 182.7375030517578 C-63.65308288574221 182.73606796264647 -64.87299926757811 182.73463287353516 -66.1298828125 182.733154296875 C-67.41793823242188 182.74334594726562 -68.70599365234375 182.75353759765625 -70.0330810546875 182.7640380859375 C-73.56167970460695 182.7916218116008 -77.09011719879112 182.80089438441624 -80.6188097000122 182.80689215660095 C-84.3077667421673 182.8162723182532 -87.99660323937951 182.8424753857507 -91.68548583984375 182.8668975830078 C-98.6693574861873 182.9105762137253 -105.65320575735785 182.93911474680723 -112.63717246055603 182.96222096681595 C-120.58881561832335 182.98926537107326 -128.5403375910638 183.0331773147296 -136.4918942451477 183.07850968837738 C-152.84741207592558 183.17137554079395 -169.202917157477 183.2408205949071 -185.55859375 183.30078125 C-185.55859375 193.86078125 -185.55859375 204.42078125 -185.55859375 215.30078125 C-183.14095703125 215.2923620605469 -183.14095703125 215.2923620605469 -170.90625 215.249755859375 C-154.9366606425191 215.20069030934872 -138.96734807415595 215.2005297881579 -122.99771118164063 215.22562313079834 C-113.31451179718259 215.2396429979433 -103.63186098342783 215.23691708715563 -93.94873046875 215.194580078125 C-85.50747595549322 215.15771554467005 -77.06689043667063 215.15246342412524 -68.62560749053955 215.1849518418312 C-64.15694562768505 215.2010524308081 -59.689538322307385 215.20147233352316 -55.220977783203125 215.16401481628418 C-51.011271285288984 215.12922712513256 -46.80373139678724 215.13683822002184 -42.59408760070801 215.17641067504883 C-41.05261037923293 215.18353062751225 -39.51097226241478 215.17540457483665 -37.96967887878418 215.15055656433105 C-26.340231247922247 214.97589636065834 -26.340231247922247 214.97589636065834 -21.898025512695313 218.2792682647705 C-19.876636145388147 220.52600093507994 -18.199568132149437 222.76828178207518 -16.55859375 225.30078125 C-15.778710937499994 226.2340625 -14.998828124999989 227.16734375 -14.1953125 228.12890625 C-13.873691406250003 228.528515625 -13.873691406250003 228.528515625 -12.24609375 230.55078125 C-8.89803400805991 234.67678946898297 -5.500307226708998 238.75311128086088 -2.05859375 242.80078125 C2.061403057280984 247.6488410619188 6.109369241166462 252.54924381696128 10.125 257.484375 C12.719278909107516 260.63863316773444 15.357468901649838 263.75281105152817 18.00390625 266.86328125 C21.873824266654196 271.4136244124395 25.64100522066491 276.02910960357923 29.3515625 280.7109375 C32.27296365256723 284.3312907040226 35.28849470502081 287.86857259953996 38.302490234375 291.411865234375 C41.23847288167309 294.8675447236495 44.13785048794557 298.3490715346894 47.00390625 301.86328125 C47.72578125000001 302.742421875 48.44765625000002 303.6215625 49.19140625 304.52734375 C50.79808040588398 306.5077927963153 52.37711341104966 308.49859419648925 53.94140625 310.51171875 C59.95553303929711 318.15479112318957 64.55092556918964 322.6657908045721 74.25390625 324.30078125 C84.1639325783625 324.82278102845413 93.29693944662836 319.0346673554859 101.69140625 314.36328125 C102.73296875 313.791904296875 103.77453125 313.22052734375 104.84765625 312.6318359375 C112.68208356292263 308.3195892613351 120.45242483939273 303.8961179202681 128.220458984375 299.4658203125 C138.0101587349141 293.9161451729228 147.9574457833276 288.6708900109365 157.90966796875 283.420654296875 C166.05491227425534 279.1206438706658 174.16026992169998 274.76689986808515 182.141845703125 270.167236328125 C187.5747883311741 267.07714991491974 192.45898580300235 265.0190393306963 198.75390625 264.92578125 C199.61628906250002 264.89742187499996 200.47867187499997 264.86906250000004 201.3671875 264.83984375 C209.61840474466578 266.0770021170528 216.56828711794685 271.12443547577357 223.3046875 275.75390625 C224.2179228210449 276.3729583740234 225.13115814208982 276.99201049804685 226.0720672607422 277.62982177734375 C228.97063611381083 279.59677462375896 231.8623887671992 281.5734811209339 234.75390625 283.55078125 C236.68248645249702 284.8626501599093 238.61151929574686 286.17385390148655 240.541015625 287.484375 C244.23081286538718 289.9911050235828 247.91817039181768 292.50136243736216 251.60400390625 295.013916015625 C255.44386033854897 297.62807232567445 259.29992289368244 300.2149129610374 263.171875 302.78125 C266.6989868553193 305.1200464371823 270.1790629468351 307.5095688789446 273.62890625 309.9609375 C274.4294140625 310.52619140625 275.22992187499995 311.0914453125 276.0546875 311.673828125 C277.6832537665939 312.82661848555955 279.30541532055827 313.9884972624748 280.921875 315.158203125 C281.7120703124999 315.71185546875 282.50226562500006 316.2655078125 283.31640625 316.8359375 C284.01507812499995 317.33488525390624 284.71375 317.8338330078125 285.43359375 318.347900390625 C287.44140625 319.30078125 287.44140625 319.30078125 289.535400390625 319.164306640625 C291.87113387705017 318.1060910211187 292.65945363484 317.082735651177 294.0625 314.94921875 C294.52333984375 314.2621484375 294.98417968750005 313.575078125 295.458984375 312.8671875 C295.92755859375006 312.1440234375 296.3961328125 311.420859375 296.87890625 310.67578125 C297.81451174078245 309.26653358982 298.7507057627091 307.8576764735699 299.6875 306.44921875 C300.1397998046875 305.755380859375 300.59209960937505 305.06154296875 301.05810546875 304.3466796875 C302.4151528587978 302.3396099507191 303.8705229472009 300.4437424252281 305.3515625 298.52734375 C307.44140625 295.30078125 307.44140625 295.30078125 307.314208984375 293.28857421875 C306.1814724927708 290.708786662207 304.8950916089549 289.8420154025327 302.56640625 288.26953125 C301.75469970703125 287.7124951171875 300.9429931640625 287.155458984375 300.106689453125 286.58154296875 C299.22714599609367 285.9938916015625 298.34760253906256 285.406240234375 297.44140625 284.80078125 C295.6012729519132 283.54339238618644 293.7614338203415 282.2855729247031 291.921875 281.02734375 C290.9968115234375 280.399892578125 290.071748046875 279.77244140625 289.11865234375 279.1259765625 C285.29796918360057 276.52125038109585 281.5245258152204 273.8522219712678 277.75390625 271.17578125 C276.3608477668438 270.19116471856137 274.967619039347 269.2067890078754 273.57421875 268.22265625 C271.508714895274 266.7624746669988 269.44332220827584 265.3021359313366 267.3779296875 263.841796875 C258.23708110043964 257.3797906534727 249.0795372712616 250.94242422751256 239.905517578125 244.527587890625 C235.09559110572326 241.1629238069453 230.2915540713829 237.7902020800302 225.4970703125 234.403564453125 C224.06486267557614 233.3919435416435 222.63194165257926 232.3813317080863 221.1982421875 231.371826171875 C218.2293075851352 229.28007679293614 215.27267361847072 227.17752567533125 212.33984375 225.03515625 C211.46585937499998 224.4009375 210.59187500000002 223.76671875 209.69140625 223.11328125 C208.97468750000002 222.58347656249998 208.25796874999997 222.05367187499996 207.51953125 221.5078125 C205.0565670249885 220.07725621141253 203.27817426407432 219.60583464297372 200.44140625 219.30078125 C197.96212768554676 220.12289428710943 197.96212768554676 220.12289428710943 195.33154296875 221.46630859375 C194.83605453491214 221.7149919128418 194.83605453491214 221.7149919128418 192.32858276367188 222.97348022460938 C191.79934707641598 223.2479145812988 191.79934707641598 223.2479145812988 189.12109375 224.63671875 C188.02548126220705 225.19066314697267 186.92986877441405 225.74460754394534 185.80105590820313 226.31533813476563 C182.29935790158487 228.0890971918392 178.80779530429896 229.8818286290591 175.31640625 231.67578125 C171.81588933274833 233.45843856943952 168.31343381820568 235.2372270315185 164.81033325195313 237.01480102539063 C162.63036904675062 238.12273856101325 160.4523091047974 239.2344322993182 158.27633666992188 240.35018920898438 C157.29166412353516 240.853860168457 156.30699157714844 241.3575311279297 155.29248046875 241.87646484375 C154.4259786987305 242.32138275146485 153.55947692871092 242.7663006591797 152.66671752929688 243.22470092773438 C148.42903293698504 245.27389244722184 145.12677751565087 245.62391030280355 140.44140625 245.30078125 C136.71903438778145 243.60879403990066 134.62969682871375 241.72285833217006 132.44140625 238.30078125 C130.8459705833613 230.38696822344627 133.81681781579408 222.5698118023139 136.23828125 215.13671875 C136.43330230712888 214.5206929016113 136.43330230712888 214.5206929016113 137.42022705078125 211.40322875976563 C138.24201449686723 208.81016490212875 139.07321108461434 206.2203902465477 139.912109375 203.6328125 C140.97995847439785 200.3381570088644 142.02923982834528 197.03796421096786 143.0721549987793 193.73534202575684 C144.07825118774429 190.5541863973172 145.095881572074 187.37677828104015 146.11328125 184.19921875 C146.48636413574218 183.02507415771484 146.85944702148436 181.85092956542968 147.24383544921875 180.64120483398438 C153.06582322794327 162.7210958381681 153.06582322794327 162.7210958381681 161.44140625 157.30078125 C169.81228991974922 153.67845820477135 179.3861908170387 152.92777705660453 188.33386039733887 151.63717460632324 C191.1719873426067 151.22759408403073 194.0085870449867 150.8085933510258 196.84498596191406 150.38722229003906 C203.87911539055835 149.34417590635147 210.91554598025994 148.31701418815427 217.95196533203125 147.28955078125 C223.921839439378 146.41722523109223 229.8907532123347 145.53880390037386 235.85850715637207 144.65208625793457 C238.65346309319034 144.23940067519453 241.44963486936393 143.8357921948474 244.24595642089844 143.43247985839844 C245.95236755041208 143.1799637104495 247.65871574519963 142.92702177850242 249.364990234375 142.673583984375 C250.1426574707031 142.56392807006836 250.92032470703123 142.4542721557617 251.7215576171875 142.34129333496094 C255.2694562265733 141.80510743661824 257.40772881325825 141.32323287449452 260.44140625 139.30078125 C259.7771833140819 135.32948720513667 259.101509778209 131.3603329443742 258.4150390625 127.392822265625 C258.1830179089408 126.04212769311985 257.9541645030311 124.69088506205279 257.728515625 123.339111328125 C257.4041215257721 121.39914924787388 257.0674792185462 119.4612476941409 256.73046875 117.5234375 C256.5314697265625 116.35562744140626 256.332470703125 115.18781738281251 256.12744140625 113.984619140625 C255.9010498046875 113.09895263671876 255.67465820312498 112.2132861328125 255.44140625 111.30078125 C252.90696582616852 110.03356103808426 251.75241733906284 110.39252101760985 248.96481323242188 110.81245422363281 C248.49381950378415 110.88184204101563 248.49381950378415 110.88184204101563 246.1103057861328 111.23298645019531 C245.0734312438965 111.39240219116209 244.03655670166017 111.55181793212893 242.96826171875 111.716064453125 C242.4234641265869 111.79729049682618 242.4234641265869 111.79729049682618 239.6664581298828 112.20834350585938 C236.04619830442567 112.74981749379555 232.4274073727318 113.30051226336087 228.80859375 113.8515625 C226.29719602541394 114.22978791752695 223.78573062890598 114.60756424847523 221.27420043945313 114.98490905761719 C215.99924629423828 115.7788453369474 210.7249541518753 116.57699114671615 205.451171875 117.378662109375 C199.36852341620283 118.30324200166876 193.28483047869287 119.22066797988262 187.20048797130585 120.13402873277664 C181.3394684940818 121.01397583506736 175.47913585033183 121.8984258492197 169.61911392211914 122.78499412536621 C167.13064906943816 123.16116218801557 164.64203043079874 123.53631438400814 162.15325546264648 123.91042518615723 C158.66521143486187 124.43552875200947 155.17797792615454 124.96572036253653 151.69091796875 125.497314453125 C150.66618881225588 125.6506575012207 149.6414596557617 125.80400054931641 148.58567810058594 125.96199035644531 C133.4055853949958 128.29281490214618 133.4055853949958 128.29281490214618 130.25341796875 131.588134765625 C127.29393958727519 136.9556616533452 125.47587821498865 142.9385054169332 123.44921875 148.703125 C122.97686080598987 150.02653485731628 122.50369069366809 151.34965508139288 122.02975463867188 152.67250061035156 C120.78549672640327 156.1510975271687 119.55056312085475 159.6329265990041 118.318115234375 163.11572265625 C116.35581612016006 168.6565568553356 114.37981415826806 174.19251154559558 112.40291976928711 179.72815132141113 C111.72315406145754 181.6359492977886 111.04791042189674 183.54535666761464 110.37283325195313 185.45481872558594 C109.08396320672608 189.07846459480078 107.77041577186003 192.69167108564497 106.44140625 196.30078125 C106.19999656677248 196.96429218292235 105.95858688354491 197.6278031158447 105.7098617553711 198.31142044067383 C104.96336333446982 200.34714311519213 104.19703058857482 202.37436270814203 103.42529296875 204.400634765625 C102.97386932373047 205.6030934143066 102.52244567871094 206.80555206298828 102.05734252929688 208.04444885253906 C100.2994830859277 211.5867758173847 98.43811572411653 213.74229267500436 95.44140625 216.30078125 C92.828125 217.03515625 92.828125 217.03515625 90.12890625 217.05078125 C89.24589843749999 217.08687499999996 88.36289062499998 217.12296875000004 87.453125 217.16015625 C84.2762892773635 216.25366616053174 83.30156796110612 215.46028830951502 80.93702697753906 213.26771545410156 C77.82258128495812 210.46675842449486 74.63046041823662 207.88578659682065 71.27330017089844 205.38084411621094 C52.43070220434595 191.15100421610595 30.174020381857133 174.04664532662835 26.070459365844727 149.45757484436035 C23.58452560104024 131.39382882268373 24.55793397334503 112.92117306756839 25.61076581478119 94.78049886226654 C26.086161589290157 86.41823352988581 26.275720628638055 78.05556924507533 26.44943916797638 69.68247425556183 C26.811225657874388 52.53411624501808 27.543149438830937 35.43069622790762 28.44140625 18.30078125 C17.881406249999998 18.30078125 7.3214062499999955 18.30078125 -3.55859375 18.30078125 Z " fill="#FFFFFF" transform="translate(237.55859375,58.69921875)"/>
<path d="M0 0 C3.8299070566051796 0.6474366690927695 6.5283897999023 2.453112368983625 9.75 4.5625 C10.734843749999982 5.2031640624999795 11.71968750000002 5.843828125000016 12.734375 6.50390625 C13.482031249999977 6.997617187499998 14.229687500000011 7.4913281249999955 15 8 C14.654006103950508 13.503465409037346 11.281216137656372 17.034381167671427 8 21.1875 C7.4120263671874795 21.943454589843725 6.824052734375016 22.699409179687507 6.21826171875 23.478271484375 C1.7114029376782582 29.22227099827984 -3.0273545017959123 34.65465128891276 -8 40 C-9.192212125563742 41.37091629856047 -10.379919991273823 42.745766237013754 -11.5625 44.125 C-36.772899788291056 72.99497395110751 -71.29587322118829 93.88464074002366 -107 107 C-107.7510400390625 107.27827636718746 -108.502080078125 107.55655273437503 -109.27587890625 107.84326171875 C-133.14568218406578 116.57251884330105 -158.61444743797938 121.19170379902027 -184 122 C-184.6749853515625 122.02191406249995 -185.349970703125 122.043828125 -186.04541015625 122.06640625 C-236.95562933388703 123.48748703653564 -288.50992095270516 109.32671936486327 -331 81 C-329.61219205377614 77.10993227194825 -327.78477730380905 74.03441292195703 -325.375 70.6875 C-325.0591796875 70.24599609375002 -325.0591796875 70.24599609375002 -323.4609375 68.01171875 C-322.978828125 67.34785156250001 -322.49671875 66.68398437500002 -322 66 C-318.56007690102643 66.66093072119935 -316.0173376553628 68.01937812952104 -313.01953125 69.80859375 C-286.05208231188203 85.59484724027601 -257.8728410944266 96.07904505368776 -227 101 C-226.2879541015625 101.11859374999995 -225.57590820312498 101.2371875 -224.84228515625 101.359375 C-166.5879373076598 110.72242732103632 -104.7066409933509 93.53025699230363 -57.16064453125 59.5888671875 C-38.5150203221466 45.98690801624832 -21.616827252172754 29.646670263790668 -8 11 C-7.1864117558596945 9.896977657068817 -6.372611991181941 8.794111298066696 -5.55859375 7.69140625 C-3.689000130856698 5.139004526473968 -1.8354558554403866 2.577001057781672 0 0 Z " fill="#FFFFFF" transform="translate(493,419)"/>
<path d="M0 0 C8.236850461634731 8.104472507787051 12.281301572263686 18.75597471588273 12.625 30.27734375 C12.089907120990432 43.39574981604113 6.925177300346093 54.37803636248313 -2.60546875 63.3984375 C-12.828122788511024 71.52228115184329 -25.10647762930779 73.39894883910398 -37.8125 72.15234375 C-45.68446154444308 70.57256583458155 -51.864348732577355 67.4953800616459 -57.8125 62.15234375 C-58.42867187499999 61.62769531250001 -59.04484375000001 61.10304687500002 -59.6796875 60.5625 C-67.27394173573308 53.63640976354816 -71.189117714877 44.345216270649985 -72.06640625 34.22265625 C-72.56212389310693 20.88625256125229 -68.72945427970089 10.101960014298612 -59.8125 0.15234375 C-42.93492479190118 -16.40877692294697 -17.21336764502928 -14.813426963751155 0 0 Z M-50.4375 17.08984375 C-54.44125034384794 23.095469265771925 -54.651837680825025 29.131633773932407 -53.8125 36.15234375 C-51.6696984444265 42.99208978676364 -47.957291082258365 48.39375926507739 -41.8125 52.15234375 C-35.49357996882628 55.35298853301538 -29.67825309855047 55.76063809457159 -22.8125 54.15234375 C-15.158042277189054 51.63711341479569 -10.879036694820343 46.73434068768859 -6.9375 39.90234375 C-4.695363339468287 32.42855488156093 -4.848529497294919 25.243525230667046 -8.421875 18.22265625 C-12.582237061709975 12.028858798577858 -18.50456256937423 7.719320846130387 -25.8125 6.15234375 C-36.094444240076285 4.491557838263532 -43.988918724203614 9.401150690396605 -50.4375 17.08984375 Z " fill="#FFFFFF" transform="translate(188.8125,136.84765625)"/>
<path d="M0 0 C3.959068171885008 1.4330813492380798 7.287181811680455 3.3314194919366855 10.8125 5.625 C11.788320312499991 6.256640624999989 12.764140624999982 6.888281249999977 13.76953125 7.5390625 C14.505585937499973 8.021171874999993 15.241640625000002 8.503281249999986 16 9 C4.256598008209721 32.36877984295961 -16.029243735689988 52.12948741715496 -37.33984375 66.84423828125 C-38.97984754143954 67.98597033252571 -40.584164353831 69.17841637595029 -42.1875 70.37109375 C-45 72 -45 72 -47.13671875 72.08203125 C-49.90520151508156 70.47433790423986 -51.1181249353657 68.38066457641872 -52.8125 65.6875 C-53.43769531250001 64.7219921875 -54.06289062500002 63.756484375000014 -54.70703125 62.76171875 C-56 60 -56 60 -55.790771484375 57.989501953125 C-54.81284508540671 55.529136956152854 -53.84646566250177 54.838850698723434 -51.640625 53.40625 C-50.943242187500005 52.93936767578123 -50.24585937500001 52.47248535156251 -49.52734375 51.991455078125 C-49.15158203124997 51.74536499023441 -49.15158203124997 51.74536499023441 -47.25 50.5 C-39.102996568143624 44.963974243626126 -32.02894912403485 38.874678635715895 -25 32 C-24.214960937499995 31.276835937499982 -23.42992187499999 30.55367187500002 -22.62109375 29.80859375 C-13.586172285352347 21.290877091915377 -5.9491561434782625 10.880879407311795 0 0 Z " fill="#FFFFFF" transform="translate(441,376)"/>
</svg>
