<?xml version="1.0" encoding="UTF-8"?>
<!-- Generator: visioncortex VTracer 0.6.12 -->
<svg version="1.1" xmlns="http://www.w3.org/2000/svg" width="600" height="600">
<path d="M0 0 C0.9797680664062227 0.3349951171875034 1.9595361328125023 0.6699902343749997 2.968994140625 1.01513671875 C6.1725936157619685 2.1131111245850605 9.371411083500163 3.2243576996784356 12.5703125 4.3359375 C14.8215249516374 5.110597138240202 17.07299348034121 5.88451296701966 19.32470703125 6.65771484375 C26.11976263926107 8.99487119723615 32.908476688198164 11.350031875921715 39.6953125 13.7109375 C40.18878173828125 13.882543945312499 40.18878173828125 13.882543945312499 42.68603515625 14.7509765625 C50.74259746952771 17.553859423845964 58.79664565978612 20.363896980951125 66.84716796875 23.18408203125 C79.4407527685409 27.59332892832262 92.06098406773367 31.919954609240875 104.6953125 36.2109375 C120.1066117688539 41.44521427759642 135.48780275994903 46.7591578386055 150.848388671875 52.140380859375 C161.05458338013523 55.71485299483038 171.2694801943935 59.26069361306388 181.5078125 62.7421875 C182.48923217773438 63.07593383789063 183.47065185546876 63.40968017578125 184.4818115234375 63.7535400390625 C189.17586028908374 65.34852594490654 193.87123749247945 66.93947879389364 198.568359375 68.525390625 C200.28776711470118 69.10805315147807 202.00716846133537 69.69073454401729 203.7265625 70.2734375 C204.45431884765617 70.51775512695312 205.18207519531256 70.76207275390625 205.931884765625 71.0137939453125 C211.83883143234186 73.01856613198173 217.68889294592407 75.17057389694067 223.5399169921875 77.331787109375 C224.4212517929077 77.65693046569824 225.3025865936279 77.98207382202149 226.21062850952148 78.31707000732422 C228.37233493005192 79.11463364745131 230.53389159883955 79.91260048901663 232.6953125 80.7109375 C232.7656687775626 105.47776441623122 232.81843026006652 130.2445761595873 232.8507490158081 155.01148319244385 C232.8661599158038 166.513467621783 232.88713776026475 178.0153896391794 232.921630859375 189.517333984375 C232.95171138435023 199.55273704858536 232.97092937246248 209.5880948700186 232.97757798433304 219.62354177236557 C232.98145892594732 224.9278625931115 232.99045634478762 230.23205408226306 233.0125026702881 235.53633308410645 C233.24952798533525 294.9252404877979 221.5922020029318 346.92705584084933 182.6953125 393.7109375 C181.82673322866918 394.77336418254 180.95824318590257 395.8358638196923 180.08984375 396.8984375 C169.83792355165514 409.3248920346208 158.88037466554914 421.1629840267611 146.6953125 431.7109375 C145.95796875000002 432.3980078125 145.22062499999998 433.085078125 144.4609375 433.79296875 C137.3244709441554 440.4385038817009 129.62303031623537 446.2789744489895 121.8251953125 452.1162109375 C119.86814458409509 453.58153135908884 117.91817390330863 455.05581189781856 115.96875 456.53125 C90.92854170028704 475.33695745774367 63.64147626419208 490.70138357859855 35.6953125 504.7109375 C34.75800292968751 505.1816064453126 33.820693359375014 505.65227539062494 32.85498046875 506.13720703125 C22.559201291412307 511.269053700944 12.092809246499485 515.918281962288 1.4453125 520.2734375 C0.409389648437525 520.703662109375 -0.6265332031250068 521.13388671875 -1.69384765625 521.5771484375 C-11.852404852129553 525.6392492325988 -18.540385924819702 526.770953754304 -28.7421875 522.5234375 C-29.638327636718714 522.165400390625 -30.53446777343754 521.80736328125 -31.457763671875 521.4384765625 C-43.26823180728877 516.6346976817997 -54.807836287791304 511.2144165934236 -66.3046875 505.7109375 C-67.31434570312501 505.23140624999996 -68.32400390625 504.7518749999999 -69.3642578125 504.2578125 C-101.91219109700887 488.7252687890052 -133.1436356705047 469.2801821943416 -161.3046875 446.7109375 C-161.80806640625 446.31326171875 -161.80806640625 446.31326171875 -164.35546875 444.30078125 C-170.74920159854378 439.17313411403916 -176.7890042902697 433.6944874653277 -182.7841796875 428.11376953125 C-184.29109321520457 426.7234796901789 -185.813939964612 425.3533046738591 -187.34375 423.98828125 C-209.76906653606898 403.9176229502183 -228.5392871976993 379.4445352310846 -242.3046875 352.7109375 C-242.7302392578125 351.89109375 -243.155791015625 351.07125 -243.59423828125 350.2265625 C-251.86427922883829 334.12483290589006 -257.7763722090548 317.5927016160035 -261.6171875 299.8984375 C-261.7646240234375 299.2195849609375 -261.912060546875 298.540732421875 -262.06396484375 297.84130859375 C-264.9655202325417 283.2995157601224 -265.5942267045552 268.8432771548842 -265.53173828125 254.064208984375 C-265.5311725479776 252.16024786392973 -265.53149388191343 250.2562863089713 -265.5326232910156 248.35232543945313 C-265.5331914821913 243.23981950591116 -265.5215246968407 238.12740956285938 -265.50747537612915 233.0149257183075 C-265.4948779741221 227.65115532461328 -265.4937904754811 222.28738214878098 -265.4914245605469 216.92359924316406 C-265.48523605248806 206.7916361841859 -265.4688612215849 196.6597168608658 -265.4487255811691 186.52777296304703 C-265.42628422436917 174.98225992088766 -265.4153525372833 163.43674466747575 -265.40533471107483 151.89121520519257 C-265.38449235012774 128.1644318288616 -265.34936810188145 104.43768712749085 -265.3046875 80.7109375 C-260.3226249606551 78.95809651744497 -255.34034927801258 77.20586305525119 -250.3578929901123 75.45414161682129 C-248.67042630183977 74.86077633050836 -246.98301341511225 74.2672580114363 -245.2956600189209 73.67357063293457 C-230.65610936596886 68.52290574490719 -215.9927940586341 63.444839108233694 -201.31094360351563 58.415985107421875 C-195.13323505847404 56.29935693672641 -188.95708070595808 54.17819899319926 -182.7807788848877 52.05747032165527 C-181.37513882579725 51.57484000731222 -179.96948271207884 51.09225644878832 -178.56381034851074 50.60972023010254 C-164.57522798708865 45.80772016749363 -150.59493575031885 40.9818823901378 -136.6171875 36.1484375 C-114.33234623085875 28.443459147446518 -92.03962489403972 20.761581656510458 -69.743408203125 13.089599609375 C-68.54804946899415 12.677950592041014 -67.35269073486327 12.266301574707029 -66.12110900878906 11.842178344726563 C-63.75510054535357 11.02869469489709 -61.38827838191273 10.217573506199741 -59.02061462402344 9.408920288085938 C-53.45560179263509 7.504796497751471 -47.902539247026425 5.576541789866276 -42.3765926361084 3.562037467956543 C-39.74320402950627 2.603652420202792 -37.105019260852146 1.658882487519584 -34.46640396118164 0.7149982452392578 C-32.61849056373467 0.047566494228775014 -30.777707941522294 -0.6395061748230333 -28.937225341796875 -1.3271636962890625 C-17.816917310564577 -5.292856316759568 -10.886148877075641 -3.813956432205572 0 0 Z M-22.533935546875 15.428955078125 C-23.639790039062518 15.808845825195313 -24.745644531250036 16.188736572265626 -25.885009765625 16.58013916015625 C-27.09987060546871 17.000997924804686 -28.314731445312532 17.421856689453122 -29.56640625 17.85546875 C-30.846589214025585 18.29654767027499 -32.12686472693946 18.737358057311823 -33.4072265625 19.17791748046875 C-36.87769792150925 20.37293926620233 -40.34684099133449 21.57177511300332 -43.81576156616211 22.771289825439453 C-47.4692675002957 24.033899294306607 -51.123986682701684 25.292987306455515 -54.778564453125 26.552490234375 C-62.93457248236467 29.36411491159211 -71.088808592374 32.18085518183108 -79.24273681640625 34.998504638671875 C-82.409076343837 36.09251932457708 -85.57563022751893 37.18591258776512 -88.7421875 38.279296875 C-97.72485097405854 41.381000818412076 -106.70732534749484 44.48324871937953 -115.688720703125 47.588623046875 C-130.89860059243773 52.84712130749021 -146.11396902600427 58.08951016873597 -161.33204555511475 63.32422351837158 C-173.32420540428382 67.44941361756955 -185.3146905138545 71.57946549920722 -197.3046875 75.7109375 C-197.92003356933594 75.92292785644531 -197.92003356933594 75.92292785644531 -201.0340576171875 76.9957275390625 C-208.12040235630488 79.43740581090404 -215.20561580680342 81.88231731557657 -222.28912353515625 84.33221435546875 C-224.45263090844568 85.08001806468583 -226.61648601831536 85.82681653536235 -228.78070068359375 86.57257080078125 C-231.73236408823107 87.58990150216614 -234.68275244313577 88.610843455133 -237.6328125 89.6328125 C-238.50561859130858 89.93277130126953 -239.37842468261718 90.23273010253905 -240.27767944335938 90.54177856445313 C-246.1904286526404 92.5966786526404 -246.1904286526404 92.5966786526404 -247.3046875 93.7109375 C-247.40896250570316 96.04637166431908 -247.4480209719954 98.3524834564833 -247.44512939453125 100.68869018554688 C-247.4481005167961 101.42751249432564 -247.45107163906096 102.1663348031044 -247.45413279533386 102.92754566669464 C-247.46285849535684 105.42289974364834 -247.46433139224254 107.91820605802536 -247.4658203125 110.41357421875 C-247.4704463831429 112.19567976313431 -247.47547075404287 113.97778431200311 -247.48086547851563 115.7598876953125 C-247.49402662029235 120.62045295562791 -247.50044362021507 125.4810043714057 -247.50487613677979 130.3415846824646 C-247.50780568553265 133.38354904100822 -247.5119106452443 136.4255096179379 -247.5163803100586 139.46747207641602 C-247.53007552801301 148.9987987944407 -247.53972778028518 158.53011686783833 -247.54358220100403 168.0614527463913 C-247.54804432938295 179.03464555907883 -247.5654972774122 190.0077126476499 -247.5945827960968 200.98086726665497 C-247.61630633776838 209.47453493904874 -247.62629241853688 217.96816756486055 -247.62762331962585 226.4618626832962 C-247.62866531657716 231.52681818476458 -247.63444076349566 236.59165584325922 -247.6524429321289 241.6565818786621 C-247.6691049154367 246.43855604662508 -247.67099267579295 251.22032622030588 -247.66230392456055 256.0023193359375 C-247.66154267289548 257.74235714837675 -247.66575310894285 259.4824067324906 -247.67576217651367 261.22241592407227 C-247.76015742191106 276.83132261449754 -246.1152830634794 292.2057560746776 -241.6171875 307.2109375 C-241.4893688964844 307.644384765625 -241.4893688964844 307.644384765625 -240.842529296875 309.837890625 C-233.69054716347603 333.28701237384905 -222.12855670685883 355.24110345425686 -207.3046875 374.7109375 C-206.5725 375.67515625 -205.8403125 376.639375 -205.0859375 377.6328125 C-201.09081149140755 382.73769573320146 -196.8150574741025 387.56565133788774 -192.4453125 392.3515625 C-190.58715283146734 394.39960709816376 -188.78441329486634 396.4805071972929 -186.9921875 398.5859375 C-183.91413405105823 402.1149615705309 -180.66855945088508 405.4550561385951 -177.3671875 408.7734375 C-176.88918701171875 409.2560302734375 -176.4111865234375 409.738623046875 -175.918701171875 410.23583984375 C-163.85724898078038 422.2466562154026 -150.26894989043393 433.00308577015176 -136.4921875 442.9609375 C-136.11296142578124 443.2352661132812 -136.11296142578124 443.2352661132812 -134.19384765625 444.62353515625 C-130.92900863000233 446.95345307703974 -127.91570088062241 448.9054308096888 -124.3046875 450.7109375 C-124.3046875 431.2409375 -124.3046875 411.7709375 -124.3046875 391.7109375 C-102.5246875 391.7109375 -80.7446875 391.7109375 -58.3046875 391.7109375 C-58.3046875 369.9309375 -58.3046875 348.1509375 -58.3046875 325.7109375 C-36.52468750000003 325.7109375 -14.744687499999998 325.7109375 7.6953125 325.7109375 C7.6953125 303.9309375 7.6953125 282.1509375 7.6953125 259.7109375 C29.805312500000014 259.7109375 51.91531250000003 259.7109375 74.6953125 259.7109375 C74.6953125 237.93093750000003 74.6953125 216.1509375 74.6953125 193.7109375 C96.47531249999997 193.7109375 118.2553125 193.7109375 140.6953125 193.7109375 C140.6953125 171.6009375 140.6953125 149.4909375 140.6953125 126.7109375 C165.11531250000002 126.7109375 189.53531250000003 126.7109375 214.6953125 126.7109375 C214.6953125 115.82093750000001 214.6953125 104.9309375 214.6953125 93.7109375 C203.44607243802852 89.21124147521138 203.44607243802852 89.21124147521138 198.833251953125 87.630615234375 C197.78804885864258 87.27104232788086 196.74284576416017 86.91146942138671 195.6659698486328 86.54100036621094 C194.55803573608398 86.16266555786133 193.45010162353515 85.78433074951172 192.30859375 85.39453125 C191.71388023376466 85.19027778625488 191.71388023376466 85.19027778625488 188.7042694091797 84.15663146972656 C186.14355004185023 83.27746773373555 183.5825482970787 82.39918906435159 181.02099609375 81.5224609375 C176.9323827725829 80.1230186391068 172.8449830939971 78.72005572636623 168.7578125 77.31640625 C167.3596510344642 76.83626918566173 165.96148818715488 76.35613614503632 164.56332397460938 75.87600708007813 C163.86773754119872 75.63713901519776 163.17215110778807 75.39827095031738 162.45548629760742 75.15216445922852 C160.33138284607355 74.42287628925698 158.20716529234818 73.69392138028195 156.08291625976563 72.96505737304688 C142.7801716683623 68.40022632621165 129.48697307255657 63.80793494596064 116.1953125 59.2109375 C101.87070645630524 54.25798351679775 87.54378779240108 49.31185857020182 73.2109375 44.3828125 C71.89504423143677 43.9302338559269 70.57915169428321 43.47765308524097 69.26325988769531 43.02507019042969 C64.0329826651083 41.226256841491875 58.80269304129121 39.42747988440789 53.572113037109375 37.629547119140625 C40.48971264277782 33.1323285237568 27.41165027759814 28.623668978017378 14.35546875 24.05078125 C13.331439514160138 23.692290954589843 12.307410278320333 23.333800659179687 11.252349853515625 22.964447021484375 C6.518401632606583 21.306332908123693 1.7859255703764347 19.644188113777616 -2.9443359375 17.9755859375 C-4.5787540964737445 17.40163021254496 -6.213192815885122 16.827733031470665 -7.84765625 16.25390625 C-8.584028167724568 15.99254379272461 -9.32040008544925 15.731181335449222 -10.079086303710938 15.461898803710938 C-15.278464444945428 13.640817955389153 -17.38219661395766 13.65141527544337 -22.533935546875 15.428955078125 Z M157.6953125 144.7109375 C157.6953125 166.4909375 157.6953125 188.2709375 157.6953125 210.7109375 C135.91531250000003 210.7109375 114.1353125 210.7109375 91.6953125 210.7109375 C91.6953125 232.8209375 91.6953125 254.93093750000003 91.6953125 277.7109375 C69.91531250000003 277.7109375 48.1353125 277.7109375 25.6953125 277.7109375 C25.6953125 299.4909375 25.6953125 321.2709375 25.6953125 343.7109375 C3.9153125000000273 343.7109375 -17.864687500000002 343.7109375 -40.3046875 343.7109375 C-40.3046875 365.4909375 -40.3046875 387.2709375 -40.3046875 409.7109375 C-62.414687500000014 409.7109375 -84.5246875 409.7109375 -107.3046875 409.7109375 C-107.3046875 427.2009375 -107.3046875 444.6909375 -107.3046875 462.7109375 C-84.04343974984306 476.3558034986954 -60.69168632542866 489.296996059624 -35.9296875 500.0234375 C-35.29107788085935 500.3006060791015 -34.65246826171875 500.5777746582031 -33.9945068359375 500.86334228515625 C-17.170065014361512 508.12985569787975 -17.170065014361512 508.12985569787975 -12.39990234375 507.05859375 C-11.448090820312473 506.6344921875 -10.496279296875002 506.21039062499995 -9.515625 505.7734375 C-8.969827880859384 505.5356457519531 -8.969827880859384 505.5356457519531 -6.207763671875 504.332275390625 C-5.625631103515616 504.06475463867184 -5.625631103515616 504.06475463867184 -2.6796875 502.7109375 C-1.4423563086144213 502.1582063204032 -0.20447007355306823 501.60671616725597 1.033935546875 501.056396484375 C4.937569012929657 499.30977014021425 8.817299719083962 497.51356899415146 12.6953125 495.7109375 C13.95229210135551 495.1303297490989 15.209290547429589 494.54976279395805 16.46630859375 493.96923828125 C70.23775551914656 469.04794478573956 127.05646209034705 434.58721651108544 164.52734375 387.43359375 C165.93327380678727 385.66794825525994 167.3669348256176 383.9238992719911 168.83203125 382.20703125 C196.47657298343074 349.6986383677789 215.18149416410142 306.91689196475943 214.92236328125 263.91259765625 C214.92250930786133 263.26296302795413 214.92250930786133 263.26296302795413 214.92324829101563 259.9754180908203 C214.92381483818394 256.46183879796877 214.91217568610625 252.94840010494994 214.89810037612915 249.43485307693481 C214.88547465907254 245.74469270466238 214.88441329508237 242.0545280061417 214.88204956054688 238.36434936523438 C214.8758691924736 231.39846423940236 214.85950573804757 224.43264297651388 214.83935058116913 217.46678578853607 C214.81688344659187 209.52708071214482 214.80597114257262 201.58737235304204 214.79595971107483 193.647643327713 C214.7751358486887 177.33536492873384 214.73850348109295 161.0231743438657 214.6953125 144.7109375 C195.88531250000005 144.7109375 177.0753125 144.7109375 157.6953125 144.7109375 Z " fill="#FFFFFF" transform="translate(316.3046875,39.2890625)"/>
<path d="M0 0 C3.8502799107968144 1.7820068732126515 6.279914203687383 4.076754051152847 9.25 7.125 C10.142031250000002 8.035078124999998 11.034062500000005 8.945156249999997 11.953125 9.8828125 C12.290859374999968 10.232148437500001 12.290859374999968 10.232148437500001 14 12 C8.921166500150548 18.138976562799158 3.388682092904048 23.749202775309044 -2.250457763671875 29.370712280273438 C-3.2911742758174114 30.41186540410004 -4.331670785249287 31.453238476559193 -5.371967434883118 32.49481111764908 C-8.217966584864769 35.34303754353067 -11.067059567647675 38.188151190932246 -13.9166841506958 41.03274977207184 C-16.99408730555831 44.1058231655434 -20.068588333139132 47.18179767008087 -23.143447875976563 50.257415771484375 C-28.466850733610727 55.581342263167926 -33.79207736044407 60.903438844233165 -39.11855697631836 66.22428703308105 C-46.81969308581944 73.91728641638241 -54.51805721320943 81.61305482062949 -62.2157536894083 89.30949575453997 C-74.70568183268449 101.79723679645514 -87.1978402052161 114.28274433811026 -99.69140625 126.766845703125 C-111.82571769422617 138.8919741969144 -123.95897547725403 151.01815546255872 -136.0908203125 163.145751953125 C-136.8389798615873 163.89364877872168 -137.58713941067458 164.64154560431837 -138.35797046124935 165.41210597008467 C-142.11136575159827 169.16419619639447 -145.86474036389797 172.91630710703964 -149.6181046962738 176.66842830181122 C-180.7421979827253 207.7821596146519 -211.8699130147604 238.89226561487982 -243 270 C-246.85027991079693 268.2179931267873 -249.2799142036873 265.92324594884724 -252.25 262.875 C-253.14203125 261.964921875 -254.0340625 261.05484375 -254.953125 260.1171875 C-255.290859375 259.7678515625 -255.290859375 259.7678515625 -257 258 C-251.92116650015052 251.86102343720074 -246.38868209290405 246.25079722469104 -240.74954223632813 240.62928771972656 C-239.70882572418256 239.5881345959 -238.6683292147507 238.5467615234408 -237.62803256511688 237.50518888235092 C-234.7820334151352 234.65696245646927 -231.9329404323523 231.81184880906778 -229.0833158493042 228.96725022792816 C-226.00591269444175 225.89417683445663 -222.93141166686087 222.81820232991913 -219.85655212402344 219.74258422851563 C-214.5331492663893 214.41865773683207 -209.207922639556 209.09656115576684 -203.88144302368164 203.77571296691895 C-196.18030691418062 196.08271358361765 -188.48194278679054 188.3869451793704 -180.7842463105917 180.69050424546003 C-168.29431816731557 168.20276320354486 -155.8021597947839 155.71725566188974 -143.30859375 143.233154296875 C-131.17428230577383 131.10802580308558 -119.041024522746 118.9818445374413 -106.9091796875 106.854248046875 C-106.16102013841271 106.10635122127832 -105.41286058932542 105.35845439568163 -104.64202953875065 104.58789402991533 C-100.88863424840167 100.8358038036055 -97.13525963610209 97.08369289296036 -93.3818953037262 93.33157169818878 C-62.257802017274685 62.2178403853481 -31.130086985239586 31.107734385120153 0 0 Z " fill="#FFFFFF" transform="translate(368,102)"/>
</svg>
