<?xml version="1.0" encoding="UTF-8"?>
<!-- Generator: visioncortex VTracer 0.6.12 -->
<svg version="1.1" xmlns="http://www.w3.org/2000/svg" width="600" height="600">
<path d="M0 0 C1.026977226734175 -0.006388821601866823 2.0539544534683216 -0.012777643203733646 3.1120522022247314 -0.019360065460205078 C6.558433560911936 -0.034638418295195095 10.003670598410963 -0.014128507536987911 13.45001220703125 0.0062255859375 C15.918877985934643 0.002725183133655662 18.387741514226718 -0.002932474967650478 20.856597900390625 -0.010589599609375 C26.87028973758663 -0.023378644436903073 32.883532435849986 -0.012880318447166417 38.89716622233391 0.008523643016815186 C45.90423057220585 0.032546335250977165 52.911217745335364 0.03081834566563657 59.91831412911415 0.028217732906341553 C72.42602049660991 0.024527067112053658 84.9335680245108 0.04535391978876646 97.44122314453125 0.0794677734375 C109.56821714189101 0.11253099573958991 121.69504434712815 0.12673088404429933 133.82208251953125 0.1204833984375 C147.03229691531834 0.11371134476267741 160.24244143326945 0.11620489080354446 173.45264554023743 0.13584280014038086 C173.80234393067656 0.13636254295706607 173.80234393067656 0.13636254295706607 175.57202972471714 0.13899275660514832 C176.97661808670478 0.14108361806125913 178.3812064189027 0.14319459069302098 179.78579472005367 0.1453259289264679 C184.66529514577792 0.15220872806947483 189.54477399827238 0.15289291235578162 194.42427825927734 0.1514434814453125 C201.0004996177948 0.14984894894691791 207.57654941117715 0.1648130031680779 214.15272903442383 0.19067001342773438 C216.56455394112243 0.19782299411954085 218.97640002171642 0.19991963240693877 221.38823318481445 0.19655227661132813 C224.68465530253275 0.19282833835796964 227.98049995144436 0.20761784593528176 231.27685546875 0.22705078125 C231.75230186820033 0.22438681840896635 231.75230186820033 0.22438681840896635 234.15834879875183 0.2109055519104004 C240.23719137342948 0.27258010125129317 245.2519626957474 1.3505630341495873 250.89239501953125 3.6214599609375 C250.89239501953125 4.281459960937497 250.89239501953125 4.9414599609375 250.89239501953125 5.6214599609375 C251.73802001953123 5.786459960937499 252.58364501953128 5.951459960937498 253.45489501953125 6.1214599609375 C258.2411913473163 8.21002563124371 260.7312605915301 11.564798346311306 263.89239501953125 15.6214599609375 C264.4557153320313 16.3046630859375 265.01903564453124 16.987866210937497 265.59942626953125 17.6917724609375 C266.89239501953125 19.621459960937507 266.89239501953125 19.621459960937507 266.89239501953125 22.6214599609375 C267.5523950195313 22.6214599609375 268.21239501953124 22.6214599609375 268.89239501953125 22.6214599609375 C270.77656270582014 27.39230400219865 271.1760152709317 31.67777128194163 271.1440773010254 36.74562072753906 C271.1469841825962 37.5510353410244 271.14989106416704 38.35644995450974 271.15288603305817 39.18627107143402 C271.1601955711895 41.8900851070438 271.15323819513026 44.593672897119035 271.1463623046875 47.2974853515625 C271.14866635492024 49.25354408187066 271.1518425042997 51.20960194729841 271.1558167934418 53.16565799713135 C271.16418105015225 58.54488767756355 271.160032099189 63.92404657279815 271.15384435653687 69.30327653884888 C271.1493275502587 75.10293595124274 271.1562997933056 80.90258301460283 271.16180419921875 86.70223999023438 C271.1707080881878 98.06540690228502 271.1687717537351 109.4285474276524 271.1629789173603 120.79171538352966 C271.15846635087115 130.02493363789443 271.1578477678913 139.2581444853249 271.16002655029297 148.49136352539063 C271.16033301636577 149.80433947622777 271.16063948243857 151.1173154270649 271.16095523536205 152.4700785279274 C271.1614343683709 154.46854777393293 271.16191352942906 156.46701701997625 271.16240901779383 158.46548626199365 C271.1685280821182 183.44325376201135 271.16297840391707 208.4210068581971 271.1522152237594 233.39877213537693 C271.14272389742575 255.59377735615624 271.14357314735724 277.78875962807615 271.15313720703125 299.9837646484375 C271.1638446744408 324.9156234328379 271.1680941342881 349.8474694891722 271.16191267967224 374.7793302536011 C271.161275565924 377.43673896589394 271.16064682487803 380.09414768020764 271.16002655029297 382.7515563964844 C271.1597179992497 384.0591304641962 271.1594094482064 385.36670453190806 271.15909154713154 386.7139020562172 C271.15736304255734 395.9384724201009 271.1602830579858 405.163034654716 271.1649856567383 414.3876037597656 C271.1705886960155 425.62575019889806 271.1690901965397 436.8638686910934 271.15842416882515 448.1020119190216 C271.15315969204653 453.83836737850334 271.15112392844907 459.5746762030591 271.15772247314453 465.31103134155273 C271.16366795784205 470.55893798024977 271.1604299805543 475.80675461190765 271.1497673690319 481.0546530485153 C271.14752739107865 482.9563166359136 271.14868295968125 484.8579877773127 271.1535189449787 486.75964653491974 C271.15957671332256 489.33897309596716 271.1533864806151 491.9179889959473 271.1440773010254 494.49729919433594 C271.1487596333027 495.2402817666531 271.15344196558 495.98326433897023 271.1582661867142 496.74876153469086 C271.12690911703766 501.07863654541325 270.48274824363705 504.59457463754575 268.89239501953125 508.6214599609375 C268.2323950195312 508.6214599609375 267.57239501953126 508.6214599609375 266.89239501953125 508.6214599609375 C266.83245361328125 508.9160107421875 266.83245361328125 508.9160107421875 266.52911376953125 510.4066162109375 C264.77400563440574 516.5118083128772 259.8913668397248 521.005182473989 254.89239501953125 524.6214599609375 C252.5173950195313 525.4339599609375 252.5173950195313 525.4339599609375 250.89239501953125 525.6214599609375 C250.89239501953125 526.2814599609375 250.89239501953125 526.9414599609376 250.89239501953125 527.6214599609375 C243.1734688870602 530.7518997156369 236.39001391099117 531.0481472408493 228.11480712890625 531.0091400146484 C226.72751656897356 531.0133182570421 225.34022942918818 531.0187984585947 223.95294857025146 531.0254598259926 C220.15966067752328 531.0398686466859 216.3665909023362 531.0356841218255 212.5732913017273 531.0282930135727 C208.47505899309903 531.0235523682281 204.37687326388476 531.0360790178024 200.27865600585938 531.0463104248047 C192.2576972110411 531.063485459401 184.2368167990913 531.0643412313859 176.2158443927765 531.0590975210071 C169.69581893030085 531.0550526407379 163.17581659697487 531.0565031520885 156.65579223632813 531.061845779419 C155.72708877503874 531.0625942014531 154.7983853137493 531.0633426234871 153.84153932332993 531.0641137249768 C151.9547727052539 531.0656452299041 150.06800609271983 531.0671835773813 148.18123948574066 531.0687286928296 C130.49771933156967 531.0824487199894 112.81424345024914 531.0770192452837 95.13072431087494 531.0655434802175 C78.95808337693404 531.0556087482963 62.78555681177863 531.0685568049576 46.61293351650238 531.092477671802 C29.99802089818064 531.1168672262962 13.383161552878022 531.1264770724164 -3.2317686080932617 531.1198249459267 C-12.556310164116496 531.1163327785059 -21.8807637380624 531.1185648042926 -31.205291748046875 531.1360759735107 C-39.14183253877633 531.1507960166047 -47.07822336565073 531.1514358331217 -55.014761209487915 531.1340050622821 C-59.06251528283778 531.125491586331 -63.11000143236333 531.1233539373902 -67.15774154663086 531.1386566162109 C-70.86627632394683 531.1525032158477 -74.57431363243504 531.1477413972809 -78.28281962871552 531.1284173801541 C-80.25310918911833 531.1228814920562 -82.22342407265398 531.1369290364862 -84.19366550445557 531.1517714858055 C-91.42498192895476 531.09176908826 -96.79810564057749 530.2127873110411 -103.10760498046875 526.6214599609375 C-104.01510498046875 526.1470849609375 -104.92260498046875 525.6727099609375 -105.85760498046875 525.1839599609375 C-108.62605201692517 523.2614272967317 -110.85846139196568 521.1276485309838 -113.10760498046875 518.6214599609375 C-113.10760498046875 517.9614599609375 -113.10760498046875 517.3014599609374 -113.10760498046875 516.6214599609375 C-114.09760498046874 516.2914599609375 -115.08760498046875 515.9614599609375 -116.10760498046875 515.6214599609375 C-116.27260498046876 515.1264599609375 -116.27260498046876 515.1264599609375 -117.10760498046875 512.6214599609375 C-117.76760498046875 512.2914599609376 -118.42760498046874 511.9614599609374 -119.10760498046875 511.6214599609375 C-122.80613243208417 503.41699782562114 -122.54549977281219 495.1861989527066 -122.5289306640625 486.3627624511719 C-122.53669066614354 484.70593256559164 -122.5457326640018 483.04910827532296 -122.55594086647034 481.3922916650772 C-122.5800523708993 476.854080336672 -122.58551398894159 472.31601160805724 -122.5877332687378 467.77774381637573 C-122.59330178184149 462.87788831479935 -122.61595133730978 457.9781058550424 -122.63613891601563 453.0782928466797 C-122.67681174032539 442.37416189655534 -122.69494854719652 431.67006477154166 -122.7081708908081 420.9658694267273 C-122.71646647762617 414.28228893698264 -122.72917958827821 407.59872140937597 -122.74268341064453 400.9151496887207 C-122.77924232067555 382.4078547757276 -122.81014988585139 363.90057021196526 -122.82030868530273 345.3932399749756 C-122.82096738353371 344.20980488456786 -122.82162608176469 343.02636979416013 -122.82230474054813 341.8070730343461 C-122.82295957371592 340.62084000699224 -122.82361440688372 339.4346069796383 -122.82428908348083 338.2124274969101 C-122.82561947673268 335.8087325839313 -122.82695916676043 333.40503767608027 -122.82830810546875 331.0013427734375 C-122.82897239476442 329.8090319366753 -122.82963668406009 328.6167210999131 -122.83032110333443 327.3882796317339 C-122.84217694417612 308.04881051549614 -122.89458339440382 288.7096796746677 -122.96438667178154 269.37034134566784 C-123.03548398586408 249.51230117457226 -123.07291193241197 229.6544309706781 -123.07641243934631 209.79626142978668 C-123.07916423200662 198.64733595082717 -123.09646035023924 187.49885203095374 -123.15087127685547 176.35004806518555 C-123.19701520523354 166.8619577853249 -123.21247089974256 157.37444567197838 -123.18765696883202 147.88626454770565 C-123.17591777695398 143.0445118865985 -123.17881604363001 138.2039242850313 -123.22082901000977 133.36231422424316 C-123.2589354953526 128.9304779751717 -123.25556046284743 124.50068639377005 -123.21905687451363 120.06885452568531 C-123.21316593845818 118.4653562888696 -123.22251562677877 116.86171505776986 -123.24858996272087 115.25841800868511 C-123.43165404152762 103.24183409208729 -123.43165404152762 103.24183409208729 -120.129234790802 99.20032620429993 C-117.86772607784904 97.44700444812685 -115.57125904319727 96.06532394038956 -113.10760498046875 94.6214599609375 C-111.55014395713805 92.96400773525237 -111.55014395713805 92.96400773525237 -110.29510498046875 91.3089599609375 C-108.10760498046875 88.6214599609375 -108.10760498046875 88.6214599609375 -106.14276123046875 87.6566162109375 C-103.86859341387334 86.4998897783122 -102.89735584798541 85.38219344675336 -101.35760498046875 83.3714599609375 C-98.5819343049003 79.97741202093862 -95.5507305311464 77.62663739516329 -91.99041748046875 75.1019287109375 C-90.14851861275679 73.65363063860796 -88.84435088885544 72.22118813755294 -87.42010498046875 70.3714599609375 C-84.99878148444242 67.49204823593323 -83.54375572537873 66.86229217437722 -80.10760498046875 65.6214599609375 C-79.94260498046876 65.1264599609375 -79.94260498046876 65.1264599609375 -79.10760498046875 62.6214599609375 C-77.43572998046875 61.226928710937486 -77.43572998046875 61.226928710937486 -75.35760498046875 59.8089599609375 C-72.6272499913145 57.85731584213028 -70.45986487108834 56.03683310874392 -68.42010498046875 53.3714599609375 C-65.99878148444242 50.492048235933225 -64.54375572537873 49.86229217437722 -61.10760498046875 48.6214599609375 C-60.777604980468766 47.63145996093749 -60.44760498046875 46.64145996093751 -60.10760498046875 45.6214599609375 C-58.58416748046872 44.12145996093747 -58.58416748046872 44.12145996093747 -56.73260498046875 42.6214599609375 C-54.39782166786341 40.71389231829825 -52.23291511882104 38.75819649788308 -50.10760498046875 36.6214599609375 C-48.622928105189885 35.394987759620165 -47.138069387038655 34.168730695228305 -45.65057373046875 32.9456787109375 C-44.22053516852256 31.7183797932166 -42.87763507808231 30.391490058551057 -41.54510498046875 29.0589599609375 C-39.18743381530146 26.701288795770203 -36.714742118482604 24.69379973730748 -34.10760498046875 22.6214599609375 C-33.38572998046874 21.8789599609375 -32.663854980468756 21.1364599609375 -31.92010498046875 20.3714599609375 C-30.10760498046875 18.6214599609375 -30.10760498046875 18.6214599609375 -28.10760498046875 18.6214599609375 C-27.447604980468753 17.3014599609375 -26.787604980468757 15.9814599609375 -26.10760498046875 14.6214599609375 C-25.447604980468753 14.6214599609375 -24.787604980468757 14.6214599609375 -24.10760498046875 14.6214599609375 C-23.777604980468766 13.631459960937498 -23.447604980468753 12.641459960937496 -23.10760498046875 11.6214599609375 C-21.43572998046878 10.191772460937521 -21.43572998046878 10.191772460937521 -19.35760498046875 8.7464599609375 C-16.811282960855408 6.967922061741916 -15.032432854273054 5.525259344012426 -13.101634979248047 3.0543441772460938 C-8.81181582810666 -0.43147036298407926 -5.376228741364287 -0.07011639346657006 0 0 Z M-0.10760498046875 20.6214599609375 C-0.10760498046875 21.281459960937497 -0.10760498046875 21.9414599609375 -0.10760498046875 22.6214599609375 C-0.8294799804687614 22.8483349609375 -1.5513549804687443 23.0752099609375 -2.29510498046875 23.3089599609375 C-5.671929154519489 24.884811242161177 -7.665275374634348 26.830226125698175 -10.10760498046875 29.6214599609375 C-10.10760498046875 30.281459960937497 -10.10760498046875 30.941459960937493 -10.10760498046875 31.6214599609375 C-11.427604980468743 32.2814599609375 -12.747604980468736 32.94145996093749 -14.10760498046875 33.6214599609375 C-14.10760498046875 34.2814599609375 -14.10760498046875 34.94145996093749 -14.10760498046875 35.6214599609375 C-15.757604980468756 36.2814599609375 -17.40760498046876 36.94145996093749 -19.10760498046875 37.6214599609375 C-19.10760498046875 38.2814599609375 -19.10760498046875 38.94145996093749 -19.10760498046875 39.6214599609375 C-20.427604980468743 40.2814599609375 -21.747604980468736 40.94145996093749 -23.10760498046875 41.6214599609375 C-23.10760498046875 42.2814599609375 -23.10760498046875 42.94145996093749 -23.10760498046875 43.6214599609375 C-23.643854980468745 43.84833496093751 -24.18010498046874 44.0752099609375 -24.73260498046875 44.3089599609375 C-27.93220659465976 46.07716085299043 -30.397977211400757 48.15816198905749 -33.10760498046875 50.6214599609375 C-33.10760498046875 51.2814599609375 -33.10760498046875 51.94145996093749 -33.10760498046875 52.6214599609375 C-33.82947998046876 52.8277099609375 -34.551354980468744 53.033959960937494 -35.29510498046875 53.2464599609375 C-38.280841445790884 54.70615334398387 -39.583781377811874 56.29627119475951 -41.57244873046875 58.8988037109375 C-44.117757206725855 61.754989558340526 -47.22699982739417 63.86943926278886 -50.31463623046875 66.1058349609375 C-50.906315917968755 66.6059912109375 -51.49799560546876 67.1061474609375 -52.10760498046875 67.6214599609375 C-52.10760498046875 68.2814599609375 -52.10760498046875 68.9414599609375 -52.10760498046875 69.6214599609375 C-53.42760498046874 70.2814599609375 -54.747604980468736 70.9414599609375 -56.10760498046875 71.6214599609375 C-56.10760498046875 72.2814599609375 -56.10760498046875 72.9414599609375 -56.10760498046875 73.6214599609375 C-56.82947998046876 73.8483349609375 -57.551354980468744 74.0752099609375 -58.29510498046875 74.3089599609375 C-61.72311608926486 75.90869847837568 -63.48550092043388 77.88016935271921 -66.10760498046875 80.6214599609375 C-68.49373515597222 82.71787449961761 -70.89833113312773 84.79038292641978 -73.31463623046875 86.8519287109375 C-73.90631591796875 87.4358740234375 -74.49799560546876 88.0198193359375 -75.10760498046875 88.6214599609375 C-75.10760498046875 89.2814599609375 -75.10760498046875 89.9414599609375 -75.10760498046875 90.6214599609375 C-75.76760498046875 90.9514599609375 -75.76760498046875 90.9514599609375 -79.10760498046875 92.6214599609375 C-79.10760498046875 93.2814599609375 -79.10760498046875 93.9414599609375 -79.10760498046875 94.6214599609375 C-79.50979248046875 94.7555224609375 -79.50979248046875 94.7555224609375 -81.54510498046875 95.4339599609375 C-81.96791748046874 95.62989746093751 -81.96791748046874 95.62989746093751 -84.10760498046875 96.6214599609375 C-84.43760498046873 97.61145996093751 -84.76760498046875 98.60145996093752 -85.10760498046875 99.6214599609375 C-87.17010498046875 100.8089599609375 -87.17010498046875 100.8089599609375 -89.10760498046875 101.6214599609375 C-89.10760498046875 102.2814599609375 -89.10760498046875 102.9414599609375 -89.10760498046875 103.6214599609375 C-89.46854248046876 103.7245849609375 -89.46854248046876 103.7245849609375 -91.29510498046875 104.2464599609375 C-94.91844419109091 106.01787024168613 -96.62517259928447 108.48575590049421 -99.10760498046875 111.6214599609375 C-99.60260498046875 111.95145996093748 -99.60260498046875 111.95145996093748 -102.10760498046875 113.6214599609375 C-102.48020046949387 116.30001604557037 -102.48020046949387 116.30001604557037 -102.4767484664917 119.78653907775879 C-102.4802099993825 120.42874039292337 -102.48367153227329 121.0709417080879 -102.48723796010017 121.73260366916656 C-102.49523985907965 123.90538978844046 -102.48167037452322 126.07752182053491 -102.46836853027344 128.25027465820313 C-102.4696755833446 129.81530170294792 -102.4723001509158 131.380328114924 -102.47613602876663 132.94535100460052 C-102.48287269496046 137.26211203555022 -102.47080488545342 141.57865153132815 -102.45580184459686 145.89538431167603 C-102.44289134998357 150.54433614558886 -102.44722739502267 155.19327467225293 -102.44950866699219 159.8422393798828 C-102.45108457043773 167.90224817169644 -102.4416423223631 175.9621843178627 -102.42479515075684 184.02217483520508 C-102.40045255697892 195.67567209352273 -102.39260474565248 207.32913409148756 -102.38883117586374 218.98265402019024 C-102.38225923319092 237.88799207983118 -102.36227795131353 256.79329138942364 -102.33392333984375 275.6986083984375 C-102.3064019714527 294.06742152474715 -102.28515899166327 312.4362241401548 -102.27239990234375 330.8050537109375 C-102.27161173187196 331.9365995879471 -102.27082356140018 333.0681454649568 -102.2700115069747 334.2339806109667 C-102.26609650046885 339.9104022812191 -102.26230535111168 345.58682402615096 -102.258575797081 351.26324582099915 C-102.22745676389968 398.3826773821555 -102.17460078639624 445.5020666754751 -102.10760498046875 492.6214599609375 C-101.44760498046875 492.6214599609375 -100.78760498046876 492.6214599609375 -100.10760498046875 492.6214599609375 C-100.08891357421875 492.92890136718756 -100.08891357421875 492.92890136718756 -99.99432373046875 494.4847412109375 C-99.96145263671875 494.88886230468756 -99.96145263671875 494.88886230468756 -99.79510498046875 496.9339599609375 C-99.73709716796876 497.7344677734375 -99.67908935546875 498.53497558593745 -99.61932373046875 499.3597412109375 C-99.01921672720312 502.0121225459818 -98.25051530757239 502.9864987484066 -96.10760498046875 504.6214599609375 C-95.44760498046875 504.6214599609375 -94.78760498046876 504.6214599609375 -94.10760498046875 504.6214599609375 C-93.94260498046876 505.1164599609375 -93.94260498046876 505.1164599609375 -93.10760498046875 507.6214599609375 C-90.13760498046875 507.9514599609374 -87.16760498046875 508.2814599609376 -84.10760498046875 508.6214599609375 C-84.10760498046875 509.2814599609376 -84.10760498046875 509.94145996093744 -84.10760498046875 510.6214599609375 C20.502395019531264 510.6214599609375 125.11239501953128 510.6214599609375 232.89239501953125 510.6214599609375 C232.89239501953125 509.9614599609374 232.89239501953125 509.30145996093756 232.89239501953125 508.6214599609375 C233.79989501953128 508.6627099609375 234.70739501953125 508.7039599609375 235.64239501953125 508.7464599609375 C240.55701832168484 508.5574359877778 242.0779964566583 507.45524896578365 245.51739501953125 503.9339599609375 C249.97470524465092 498.8946442605634 250.18631750667686 492.0739504095095 250.1440773010254 485.6581573486328 C250.14553074181083 485.2702182811498 250.14553074181083 485.2702182811498 250.15288603305817 483.3070114850998 C250.1601792033398 480.70968108849956 250.15324585970376 478.11258742767234 250.1463623046875 475.5152587890625 C250.14866700212133 473.6332960569226 250.1518435876464 471.7513342244173 250.15581679344177 469.8693742752075 C250.16417215135726 464.6995618969517 250.1600361245831 459.52982328109067 250.15384435653687 454.3600106239319 C250.1493239242841 448.78393711671265 250.15630160139858 443.2078763966658 250.16180419921875 437.6318054199219 C250.17070419817725 426.70893481183805 250.16877348010962 415.7860916672067 250.1629789173603 404.86321997642517 C250.1584648258879 395.9871089550513 250.15784843069395 387.11100563829007 250.16002655029297 378.2348937988281 C250.16017978332934 377.60359618097544 250.16017978332934 377.60359618097544 250.16095523536205 374.40884763002396 C250.16159467663937 371.8440264838312 250.16224310287384 369.2792053398631 250.16290041804314 366.7143841981888 C250.16844280898908 343.3418691205076 250.16269207467315 319.96937166925153 250.1522152237594 296.5968600064516 C250.1427240299006 275.2609764430351 250.14357328543616 253.92511675337596 250.15313720703125 232.5892333984375 C250.16384669172197 208.61762326504117 250.16805615099486 184.64602805142613 250.16191267967224 160.6744146347046 C250.1612755715363 158.11895179956537 250.16064683036245 155.56348896232615 250.16002655029297 153.00802612304688 C250.15971799924972 151.7506417399645 250.15940944820642 150.49325735688208 250.15909154713154 149.1977704167366 C250.15736364643618 140.33082846904747 250.16028176151985 131.46389498303876 250.16498565673828 122.59695434570313 C250.17059092182944 111.79327623732942 250.16908548886533 100.98962719697164 250.15842416882515 90.18595242500305 C250.15316270439956 84.67224480107751 250.15111883026157 79.15858566859606 250.15772247314453 73.64487838745117 C250.16367415461588 68.59927094381587 250.16041966955027 63.55375702597732 250.1497673690319 58.50815808773041 C250.1475300356846 56.68120331387776 250.14867708216013 54.85424066803532 250.1535189449787 53.02729094028473 C250.15959059938234 50.54633542258102 250.15337231097624 48.06570127317144 250.1440773010254 45.58476257324219 C250.1487596333027 44.87357107996941 250.15344196558 44.16237958669663 250.15826618671417 43.42963683605194 C250.09882829848578 35.504931733739824 248.33250615625627 30.19109755329886 242.89239501953125 24.6214599609375 C239.6303058260135 22.306428920376533 236.824814602539 22.442713616255332 232.89239501953125 22.6214599609375 C232.89239501953125 21.961459960937503 232.89239501953125 21.3014599609375 232.89239501953125 20.6214599609375 C219.69239501953126 20.6214599609375 206.49239501953127 20.6214599609375 192.89239501953125 20.6214599609375 C192.89239501953125 33.16145996093749 192.89239501953125 45.7014599609375 192.89239501953125 58.6214599609375 C199.16239501953123 58.6214599609375 205.43239501953127 58.6214599609375 211.89239501953125 58.6214599609375 C211.89239501953125 97.89145996093751 211.89239501953125 137.16145996093752 211.89239501953125 177.6214599609375 C204.96239501953124 177.6214599609375 198.03239501953124 177.6214599609375 190.89239501953125 177.6214599609375 C190.89239501953125 174.9814599609375 190.89239501953125 172.3414599609375 190.89239501953125 169.6214599609375 C190.56239501953127 169.6214599609375 190.23239501953122 169.6214599609375 189.89239501953125 169.6214599609375 C189.89239501953125 171.9314599609375 189.89239501953125 174.2414599609375 189.89239501953125 176.6214599609375 C187.57995709947028 176.64831407871884 185.26743231814305 176.66778837143673 182.95489501953125 176.6839599609375 C181.66712158203126 176.6955615234375 180.37934814453126 176.7071630859375 179.05255126953125 176.7191162109375 C175.89239501953125 176.6214599609375 175.89239501953125 176.6214599609375 174.89239501953125 175.6214599609375 C174.4377964403037 172.96682875137432 174.18996264429933 170.29956858385043 173.89239501953125 167.6214599609375 C173.56239501953127 167.6214599609375 173.23239501953122 167.6214599609375 172.89239501953125 167.6214599609375 C172.89239501953125 170.9214599609375 172.89239501953125 174.2214599609375 172.89239501953125 177.6214599609375 C165.96239501953124 177.6214599609375 159.03239501953124 177.6214599609375 151.89239501953125 177.6214599609375 C151.89239501953125 173.0014599609375 151.89239501953125 168.3814599609375 151.89239501953125 163.6214599609375 C151.5623950195312 163.6214599609375 151.23239501953128 163.6214599609375 150.89239501953125 163.6214599609375 C150.89239501953125 167.9114599609375 150.89239501953125 172.2014599609375 150.89239501953125 176.6214599609375 C146.27239501953125 176.6214599609375 141.65239501953124 176.6214599609375 136.89239501953125 176.6214599609375 C136.23239501953128 173.9814599609375 135.57239501953126 171.3414599609375 134.89239501953125 168.6214599609375 C134.5623950195312 168.6214599609375 134.23239501953128 168.6214599609375 133.89239501953125 168.6214599609375 C133.89239501953125 171.5914599609375 133.89239501953125 174.5614599609375 133.89239501953125 177.6214599609375 C126.96239501953124 177.6214599609375 120.03239501953124 177.6214599609375 112.89239501953125 177.6214599609375 C112.89239501953125 172.0114599609375 112.89239501953125 166.4014599609375 112.89239501953125 160.6214599609375 C112.56239501953121 160.6214599609375 112.23239501953128 160.6214599609375 111.89239501953125 160.6214599609375 C111.89239501953125 165.9014599609375 111.89239501953125 171.1814599609375 111.89239501953125 176.6214599609375 C101.2478637695313 177.0120849609375 101.2478637695313 177.0120849609375 97.89239501953125 176.6214599609375 C95.94317626953125 174.6058349609375 95.94317626953125 174.6058349609375 94.89239501953125 172.6214599609375 C94.89239501953125 174.2714599609375 94.89239501953125 175.9214599609375 94.89239501953125 177.6214599609375 C87.96239501953124 177.6214599609375 81.03239501953124 177.6214599609375 73.89239501953125 177.6214599609375 C73.89239501953125 173.6614599609375 73.89239501953125 169.7014599609375 73.89239501953125 165.6214599609375 C73.56239501953121 165.6214599609375 73.23239501953128 165.6214599609375 72.89239501953125 165.6214599609375 C72.83180908203121 166.2479443359375 72.77122314453129 166.8744287109375 72.70880126953125 167.5198974609375 C72.62501220703126 168.3371630859375 72.54122314453127 169.1544287109375 72.45489501953125 169.9964599609375 C72.41428955078123 170.4025146484375 72.41428955078123 170.4025146484375 72.20880126953125 172.4573974609375 C71.89239501953125 174.6214599609375 71.89239501953125 174.6214599609375 70.89239501953125 176.6214599609375 C70.50696533203126 176.6156591796875 70.50696533203126 176.6156591796875 68.55645751953125 176.5863037109375 C67.55356689453129 176.5772802734375 66.55067626953121 176.5682568359375 65.51739501953125 176.5589599609375 C65.01852783203128 176.5531591796875 65.01852783203128 176.5531591796875 62.49395751953125 176.5238037109375 C59.89239501953125 176.6214599609375 59.89239501953125 176.6214599609375 57.89239501953125 177.6214599609375 C57.56239501953121 176.9614599609375 57.23239501953128 176.3014599609375 56.89239501953125 175.6214599609375 C56.23239501953128 175.2914599609375 55.57239501953126 174.9614599609375 54.89239501953125 174.6214599609375 C54.89239501953125 175.6114599609375 54.89239501953125 176.6014599609375 54.89239501953125 177.6214599609375 C47.96239501953124 177.6214599609375 41.032395019531236 177.6214599609375 33.89239501953125 177.6214599609375 C33.89239501953125 174.3214599609375 33.89239501953125 171.0214599609375 33.89239501953125 167.6214599609375 C33.56239501953121 167.6214599609375 33.23239501953128 167.6214599609375 32.89239501953125 167.6214599609375 C32.89239501953125 170.5914599609375 32.89239501953125 173.5614599609375 32.89239501953125 176.6214599609375 C30.579957099470278 176.64831407871884 28.26743231814305 176.66778837143673 25.95489501953125 176.6839599609375 C24.667121582031257 176.6955615234375 23.379348144531264 176.7071630859375 22.05255126953125 176.7191162109375 C18.89239501953125 176.6214599609375 18.89239501953125 176.6214599609375 17.89239501953125 175.6214599609375 C17.437796440303714 172.96682875137435 17.189962644299356 170.29956858385043 16.89239501953125 167.6214599609375 C16.562395019531266 167.6214599609375 16.232395019531253 167.6214599609375 15.89239501953125 167.6214599609375 C15.89239501953125 170.9214599609375 15.89239501953125 174.2214599609375 15.89239501953125 177.6214599609375 C8.962395019531243 177.6214599609375 2.0323950195312364 177.6214599609375 -5.10760498046875 177.6214599609375 C-5.10760498046875 138.3514599609375 -5.10760498046875 99.08145996093748 -5.10760498046875 58.6214599609375 C1.4923950195312443 58.6214599609375 8.092395019531239 58.6214599609375 14.89239501953125 58.6214599609375 C14.89239501953125 46.08145996093751 14.89239501953125 33.5414599609375 14.89239501953125 20.6214599609375 C9.942395019531261 20.6214599609375 4.992395019531244 20.6214599609375 -0.10760498046875 20.6214599609375 Z M35.89239501953125 20.6214599609375 C35.89239501953125 33.16145996093749 35.89239501953125 45.7014599609375 35.89239501953125 58.6214599609375 C41.83239501953125 58.6214599609375 47.772395019531245 58.6214599609375 53.89239501953125 58.6214599609375 C53.89239501953125 46.08145996093751 53.89239501953125 33.5414599609375 53.89239501953125 20.6214599609375 C47.95239501953125 20.6214599609375 42.012395019531255 20.6214599609375 35.89239501953125 20.6214599609375 Z M74.89239501953125 20.6214599609375 C74.89239501953125 33.16145996093749 74.89239501953125 45.7014599609375 74.89239501953125 58.6214599609375 C80.83239501953125 58.6214599609375 86.77239501953125 58.6214599609375 92.89239501953125 58.6214599609375 C92.89239501953125 46.08145996093751 92.89239501953125 33.5414599609375 92.89239501953125 20.6214599609375 C86.95239501953125 20.6214599609375 81.01239501953125 20.6214599609375 74.89239501953125 20.6214599609375 Z M113.89239501953125 20.6214599609375 C113.89239501953125 33.16145996093749 113.89239501953125 45.7014599609375 113.89239501953125 58.6214599609375 C120.16239501953123 58.6214599609375 126.43239501953121 58.6214599609375 132.89239501953125 58.6214599609375 C132.89239501953125 46.08145996093751 132.89239501953125 33.5414599609375 132.89239501953125 20.6214599609375 C126.62239501953127 20.6214599609375 120.35239501953129 20.6214599609375 113.89239501953125 20.6214599609375 Z M152.89239501953125 20.6214599609375 C152.89239501953125 33.16145996093749 152.89239501953125 45.7014599609375 152.89239501953125 58.6214599609375 C159.16239501953123 58.6214599609375 165.43239501953127 58.6214599609375 171.89239501953125 58.6214599609375 C171.89239501953125 46.08145996093751 171.89239501953125 33.5414599609375 171.89239501953125 20.6214599609375 C165.62239501953127 20.6214599609375 159.35239501953123 20.6214599609375 152.89239501953125 20.6214599609375 Z " fill="#000000" transform="translate(226.10760498046875,34.3785400390625)"/>
<path d="M0 0 C6.27000000000001 0 12.539999999999992 0 19 0 C20.586453565355896 3.1729071307117493 20.120782133637306 6.58825384118861 20.09765625 10.0703125 C20.096241302490228 10.86654022216797 20.094826354980455 11.66276794433594 20.093368530273438 12.483123779296875 C20.087763448708984 15.03045380037905 20.07521013812476 17.57769646866018 20.0625 20.125 C20.057485652202047 21.850259148806444 20.052922632255218 23.57551967295305 20.048828125 25.30078125 C20.038642528787932 29.53391503574204 20.019068200274774 33.76685953900319 20 38 C25.939999999999998 38 31.879999999999995 38 38 38 C37.988398437499995 35.424453125 37.97679687499999 32.84890625 37.96484375 30.1953125 C37.95704962666622 27.706544222340398 37.950974884406605 25.217777293558925 37.945068359375 22.72900390625 C37.9400331756712 20.99657586158405 37.93320467521346 19.26415207768123 37.924560546875 17.53173828125 C37.912459346406706 15.044585667354838 37.90676362171172 12.557489134463793 37.90234375 10.0703125 C37.89718246459961 9.293179016113285 37.89202117919922 8.516045532226563 37.88670349121094 7.715362548828125 C37.88612829319669 2.227743413606646 37.88612829319669 2.227743413606646 39 0 C45.26999999999998 0 51.54000000000002 0 58 0 C59.586453565355896 3.172907130711728 59.120782133637306 6.588253841188617 59.09765625 10.0703125 C59.09624130249023 10.86654022216797 59.094826354980455 11.66276794433594 59.09336853027344 12.483123779296875 C59.087763448708984 15.03045380037905 59.07521013812476 17.57769646866018 59.0625 20.125 C59.05748565220205 21.850259148806444 59.05292263225522 23.57551967295305 59.048828125 25.30078125 C59.03864252878793 29.53391503574204 59.01906820027477 33.76685953900319 59 38 C64.94 38 70.88 38 77 38 C76.9883984375 35.424453125 76.97679687499999 32.84890625 76.96484375 30.1953125 C76.95704962666622 27.706544222340398 76.9509748844066 25.217777293558925 76.945068359375 22.72900390625 C76.9400331756712 20.99657586158405 76.93320467521346 19.26415207768123 76.924560546875 17.53173828125 C76.9124593464067 15.044585667354838 76.90676362171172 12.557489134463793 76.90234375 10.0703125 C76.89718246459961 9.293179016113285 76.89202117919922 8.516045532226563 76.88670349121094 7.715362548828125 C76.88612829319669 2.227743413606653 76.88612829319669 2.227743413606653 78 0 C84.26999999999998 0 90.54000000000002 0 97 0 C98.5864535653559 3.172907130711735 98.1207821336373 6.588253841188617 98.09765625 10.0703125 C98.09624130249023 10.86654022216797 98.09482635498046 11.66276794433594 98.09336853027344 12.483123779296875 C98.08776344870898 15.03045380037905 98.07521013812476 17.57769646866018 98.0625 20.125 C98.05748565220205 21.850259148806444 98.05292263225522 23.57551967295305 98.048828125 25.30078125 C98.03864252878793 29.53391503574204 98.01906820027477 33.76685953900319 98 38 C104.26999999999998 38 110.53999999999996 38 117 38 C117 25.460000000000008 117 12.920000000000002 117 0 C123.60000000000002 0 130.2 0 137 0 C137 12.540000000000006 137 25.08 137 38 C143.26999999999998 38 149.53999999999996 38 156 38 C155.9883984375 35.424453125 155.976796875 32.84890625 155.96484375 30.1953125 C155.95704962666622 27.706544222340398 155.9509748844066 25.217777293558925 155.945068359375 22.72900390625 C155.9400331756712 20.99657586158405 155.93320467521346 19.26415207768123 155.924560546875 17.53173828125 C155.9124593464067 15.044585667354838 155.90676362171166 12.557489134463793 155.90234375 10.0703125 C155.8971824645996 9.293179016113285 155.89202117919922 8.516045532226563 155.88670349121094 7.715362548828125 C155.8861282931967 2.2277434136066177 155.8861282931967 2.2277434136066177 157 0 C163.26999999999998 0 169.53999999999996 0 176 0 C177.5864535653559 3.172907130711728 177.1207821336373 6.588253841188617 177.09765625 10.0703125 C177.09694877624509 10.468426361083985 177.09694877624509 10.468426361083985 177.09336853027344 12.483123779296875 C177.08776344870898 15.03045380037905 177.0752101381247 17.57769646866018 177.0625 20.125 C177.05748565220205 21.850259148806444 177.05292263225522 23.57551967295305 177.048828125 25.30078125 C177.03864252878793 29.53391503574204 177.01906820027477 33.76685953900319 177 38 C183.26999999999998 38 189.53999999999996 38 196 38 C196 77.27000000000001 196 116.54000000000002 196 157 C188 157 180 157 172 157 C171.06027343749997 157.023203125 170.120546875 157.04640625 169.15234375 157.0703125 C168.0914453125 157.088359375 167.03054687500003 157.10640625 165.9375 157.125 C164.8740234375 157.148203125 163.810546875 157.17140625 162.71484375 157.1953125 C160 157 160 157 158 155 C157.66999999999996 155.66 157.34000000000003 156.32 157 157 C149 157 141 157 133 157 C132.06027343749997 157.0348046875 131.120546875 157.069609375 130.15234375 157.10546875 C129.0914453125 157.1325390625 128.03054687500003 157.159609375 126.9375 157.1875 C125.8740234375 157.2223046875 124.810546875 157.257109375 123.71484375 157.29296875 C122.81894531249998 157.1962890625 121.92304687500001 157.099609375 121 157 C120.34000000000003 156.01 119.68 155.02 119 154 C118.66999999999996 154.99 118.34000000000003 155.98 118 157 C110 157 102 157 94 157 C93.06027343749997 157.0348046875 92.120546875 157.069609375 91.15234375 157.10546875 C90.09144531250001 157.1325390625 89.03054687500003 157.159609375 87.9375 157.1875 C86.8740234375 157.2223046875 85.810546875 157.257109375 84.71484375 157.29296875 C83.81894531249998 157.1962890625 82.92304687500001 157.099609375 82 157 C81.34000000000003 156.01 80.68 155.02 80 154 C79.67000000000002 154.99 79.34000000000003 155.98 79 157 C72.07 157 65.13999999999999 157 58 157 C57.670000000000016 156.01 57.34000000000003 155.02 57 154 C56.34000000000003 154.99 55.68000000000001 155.98 55 157 C52.06640624999994 157.29296875 52.06640624999994 157.29296875 48.5625 157.1875 C47.98564453124999 157.17396484375 47.98564453124999 157.17396484375 45.06640625 157.10546875 C44.05449218749999 157.0706640625 43.04257812499998 157.035859375 42 157 C41.00999999999999 157 40.01999999999998 157 39 157 C31 157 23 157 15 157 C14.060273437499973 157.023203125 13.120546875000002 157.04640625 12.15234375 157.0703125 C11.091445312500014 157.088359375 10.030546874999999 157.10640625 8.9375 157.125 C7.8740234375 157.148203125 6.810546875 157.17140625 5.71484375 157.1953125 C3 157 3 157 1 155 C0.6700000000000159 155.66 0.3400000000000034 156.32 0 157 C-6.930000000000007 157 -13.860000000000014 157 -21 157 C-21 117.72999999999999 -21 78.45999999999998 -21 38 C-14.400000000000006 38 -7.800000000000011 38 -1 38 C-1.0116015625000045 35.424453125 -1.023203125000009 32.84890625 -1.03515625 30.1953125 C-1.042950373333781 27.706544222340398 -1.0490251155934232 25.217777293558925 -1.054931640625 22.72900390625 C-1.0599668243287965 20.99657586158405 -1.0667953247865682 19.26415207768123 -1.075439453125 17.53173828125 C-1.0875406535932939 15.044585667354838 -1.09323637828831 12.557489134463793 -1.09765625 10.0703125 C-1.1028175354003906 9.293179016113285 -1.1079788208007813 8.516045532226563 -1.1132965087890625 7.715362548828125 C-1.1138717068033088 2.227743413606639 -1.1138717068033088 2.227743413606639 0 0 Z " fill="#B801F0" transform="translate(242,55)"/>
<path d="M0 0 C6.600000000000023 0 13.199999999999989 0 20 0 C20 12.540000000000006 20 25.08 20 38 C26.269999999999982 38 32.54000000000002 38 39 38 C38.988398437499995 35.424453125 38.97679687499999 32.84890625 38.96484375 30.1953125 C38.95704962666622 27.706544222340398 38.950974884406605 25.217777293558925 38.945068359375 22.72900390625 C38.9400331756712 20.99657586158405 38.93320467521346 19.26415207768123 38.924560546875 17.53173828125 C38.912459346406706 15.044585667354838 38.90676362171172 12.557489134463793 38.90234375 10.0703125 C38.89718246459961 9.293179016113285 38.89202117919922 8.516045532226563 38.88670349121094 7.715362548828125 C38.88612829319669 2.227743413606653 38.88612829319669 2.227743413606653 40 0 C46.26999999999998 0 52.54000000000002 0 59 0 C60.586453565355896 3.172907130711735 60.120782133637306 6.58825384118861 60.09765625 10.0703125 C60.09624130249023 10.86654022216797 60.094826354980455 11.66276794433594 60.09336853027344 12.483123779296875 C60.087763448708984 15.03045380037905 60.07521013812476 17.57769646866018 60.0625 20.125 C60.05748565220205 21.850259148806444 60.05292263225522 23.57551967295305 60.048828125 25.30078125 C60.03864252878793 29.53391503574204 60.01906820027477 33.76685953900319 60 38 C66.26999999999998 38 72.54000000000002 38 79 38 C79 77.27000000000001 79 116.54000000000002 79 157 C71 157 63 157 55 157 C54.06027343749997 157.023203125 53.120546875 157.04640625 52.15234375 157.0703125 C51.091445312500014 157.088359375 50.03054687500003 157.10640625 48.9375 157.125 C47.8740234375 157.148203125 46.810546875 157.17140625 45.71484375 157.1953125 C43 157 43 157 41 155 C40.670000000000016 155.66 40.34000000000003 156.32 40 157 C32 157 24 157 16 157 C15.541738281249991 157.02900390625 15.541738281249991 157.02900390625 13.22265625 157.17578125 C12.179804687499995 157.2208984375 11.136953124999991 157.266015625 10.0625 157.3125 C9.542363281250005 157.34150390625 9.542363281250005 157.34150390625 6.91015625 157.48828125 C4 157 4 157 1.8481788635253906 154.86771869659424 C-0.3452667990095506 151.4642682727448 -0.49429426085805517 149.64758747476938 -0.48101806640625 145.6282196044922 C-0.4837673950195267 144.98530723571776 -0.4837673950195267 144.98530723571776 -0.4976806640625 141.73178100585938 C-0.48352583764057044 140.31426626075316 -0.46898662462365337 138.89675531198168 -0.4541015625 137.479248046875 C-0.4529728159733395 135.98099294410426 -0.4536074771760923 134.4827356287642 -0.45587158203125 132.98448181152344 C-0.45701861242173436 128.9227296344529 -0.43351140807021693 124.86145055496877 -0.4055757522583008 120.79980826377869 C-0.3805601215987622 116.5530714601341 -0.3782199749954316 112.30632365045841 -0.37347412109375 108.05952453613281 C-0.3610448033835496 100.02016194313961 -0.32822384185936926 91.98101708807195 -0.28807616233825684 83.94175034761429 C-0.2433570484852794 74.78827221552962 -0.22137106806144402 65.63478365146088 -0.2012944221496582 56.481223464012146 C-0.1594911246971833 37.65402213703538 -0.08833365468535703 18.827036556528924 0 0 Z " fill="#BA01F3" transform="translate(359,55)"/>
<path d="M0 0 C6.27000000000001 0 12.539999999999992 0 19 0 C20.586453565355896 3.1729071307117493 20.120782133637306 6.58825384118861 20.09765625 10.0703125 C20.096241302490228 10.86654022216797 20.094826354980455 11.66276794433594 20.093368530273438 12.483123779296875 C20.087763448708984 15.03045380037905 20.07521013812476 17.57769646866018 20.0625 20.125 C20.057485652202047 21.850259148806444 20.052922632255218 23.57551967295305 20.048828125 25.30078125 C20.038642528787932 29.53391503574204 20.019068200274774 33.76685953900319 20 38 C26.269999999999982 38 32.54000000000002 38 39 38 C39 77.27000000000001 39 116.54000000000002 39 157 C31 157 23 157 15 157 C14.060273437499973 157.023203125 13.120546875000002 157.04640625 12.15234375 157.0703125 C11.091445312500014 157.088359375 10.030546874999999 157.10640625 8.9375 157.125 C7.8740234375 157.148203125 6.810546875 157.17140625 5.71484375 157.1953125 C3 157 3 157 1 155 C0.6700000000000159 155.66 0.3400000000000034 156.32 0 157 C-6.930000000000007 157 -13.860000000000014 157 -21 157 C-21 117.72999999999999 -21 78.45999999999998 -21 38 C-14.400000000000006 38 -7.800000000000011 38 -1 38 C-1.0116015625000045 35.424453125 -1.023203125000009 32.84890625 -1.03515625 30.1953125 C-1.042950373333781 27.706544222340398 -1.0490251155934232 25.217777293558925 -1.054931640625 22.72900390625 C-1.0599668243287965 20.99657586158405 -1.0667953247865682 19.26415207768123 -1.075439453125 17.53173828125 C-1.0875406535932939 15.044585667354838 -1.09323637828831 12.557489134463793 -1.09765625 10.0703125 C-1.1028175354003906 9.293179016113285 -1.1079788208007813 8.516045532226563 -1.1132965087890625 7.715362548828125 C-1.1138717068033088 2.227743413606639 -1.1138717068033088 2.227743413606639 0 0 Z " fill="#BC01F5" transform="translate(242,55)"/>
<path d="M0 0 C6.269999999999982 0 12.54000000000002 0 19 0 C20.389348718280587 2.7786974365611385 20.119693123103275 5.018297027668837 20.113037109375 8.130126953125 C20.112843875885005 8.774743175506593 20.11265064239501 9.419359397888186 20.112451553344727 10.08350944519043 C20.110123252765447 12.280976435726345 20.100103470442548 14.478337824096783 20.08984375 16.67578125 C20.085777933844554 18.26890505516866 20.08195559611505 19.86202949694129 20.078353881835938 21.455154418945313 C20.017327457352792 42.94940231379687 19.8246078570819 64.44342175849647 19.627685546875 85.936767578125 C19.57190972595555 92.04876466532426 19.521990297548427 98.1607959629338 19.47328281402588 104.27285289764404 C19.434321328140243 109.03673736542046 19.391257912057256 113.80057839375979 19.34705924987793 118.56441688537598 C19.3268145831791 120.8205364071425 19.30807432349991 123.07666998938157 19.290925979614258 125.33281517028809 C19.266732109602003 128.4643653224219 19.236727209374408 131.59580990007558 19.205322265625 134.727294921875 C19.199566802978495 135.63890884399413 19.193811340332047 136.5505227661133 19.187881469726563 137.48976135253906 C19.01745873741379 152.47381189387931 19.01745873741379 152.47381189387931 16 157 C13.066406249999943 157.3984375 13.066406249999943 157.3984375 9.5625 157.375 C8.408789062499977 157.382734375 7.255078125000011 157.39046875 6.06640625 157.3984375 C3 157 3 157 1.3332700729370117 155.7577428817749 C-0.3645266995591214 153.5194190401683 -0.38275331870062246 152.27082901177474 -0.3987274169921875 149.47767639160156 C-0.40499649047853836 149.01360633850098 -0.40499649047853836 149.01360633850098 -0.4367218017578125 146.66513061523438 C-0.435286712646473 145.6477883911133 -0.4338516235351335 144.6304461669922 -0.432373046875 143.582275390625 C-0.4425646972656523 142.50824966430665 -0.4527563476562477 141.4342239379883 -0.4632568359375 140.32765197753906 C-0.4935984730907421 136.7509346036255 -0.5027035339550707 133.17448605329326 -0.51171875 129.59765625 C-0.5285909050039663 127.08742915973633 -0.5467444997030952 124.5772103871326 -0.5661163330078125 122.06700134277344 C-0.608945630431208 116.09636422136597 -0.6383403897229414 110.1258029871318 -0.6614397168159485 104.15506881475449 C-0.6905455474728228 96.85393650800404 -0.7411849228296319 89.55296995743959 -0.791015625 82.251953125 C-0.8808187137927916 68.59549724550264 -0.9404192342773285 54.93904862841501 -0.9878463745117188 41.282386779785156 C-0.9994262986286913 38.154942226793025 -1.0131823494742207 35.027516674823275 -1.02789306640625 31.90008544921875 C-1.0484665994947022 27.500697050265558 -1.0643753310207558 23.1013252502201 -1.075296401977539 18.701902389526367 C-1.0797336584066102 17.166248491148764 -1.08575621825986 15.630598231450293 -1.0934810638427734 14.09495735168457 C-1.1032950807053794 12.04956894662591 -1.1062065989680718 10.004150733145579 -1.108642578125 7.958740234375 C-1.1118904113769759 6.843293304443357 -1.1151382446288949 5.727846374511721 -1.1184844970703125 4.5785980224609375 C-1 2 -1 2 0 0 Z " fill="#BC01F5" transform="translate(281,55)"/>
<path d="M0 0 C6.930000000000007 0 13.860000000000014 0 21 0 C21 39.27000000000001 21 78.54000000000002 21 119 C14.069999999999993 119 7.139999999999986 119 0 119 C0 79.72999999999999 0 40.45999999999998 0 0 Z " fill="#040005" transform="translate(221,93)"/>
<path d="M0 0 C6.600000000000023 0 13.199999999999989 0 20 0 C20.329999999999984 39.27000000000001 20.660000000000025 78.54000000000002 21 119 C14.069999999999993 119 7.139999999999986 119 0 119 C0 79.72999999999999 0 40.45999999999998 0 0 Z " fill="#040005" transform="translate(300,93)"/>
<path d="M0 0 C6.600000000000023 0 13.199999999999989 0 20 0 C20 39.27000000000001 20 78.54000000000002 20 119 C13.399999999999977 119 6.800000000000011 119 0 119 C0 79.72999999999999 0 40.45999999999998 0 0 Z " fill="#010001" transform="translate(418,93)"/>
<path d="M0 0 C6.600000000000023 0 13.199999999999989 0 20 0 C20 39.27000000000001 20 78.54000000000002 20 119 C13.399999999999977 119 6.800000000000011 119 0 119 C0 79.72999999999999 0 40.45999999999998 0 0 Z " fill="#040005" transform="translate(379,93)"/>
<path d="M0 0 C6.600000000000023 0 13.199999999999989 0 20 0 C20 39.27000000000001 20 78.54000000000002 20 119 C13.399999999999977 119 6.800000000000011 119 0 119 C0 79.72999999999999 0 40.45999999999998 0 0 Z " fill="#030005" transform="translate(261,93)"/>
<path d="M0 0 C6.269999999999982 0 12.54000000000002 0 19 0 C19.329999999999984 39.27000000000001 19.660000000000025 78.54000000000002 20 119 C13.399999999999977 119 6.800000000000011 119 0 119 C0 79.72999999999999 0 40.45999999999998 0 0 Z " fill="#000000" transform="translate(340,93)"/>
</svg>
