<?xml version="1.0" encoding="UTF-8"?>
<!-- Generator: visioncortex VTracer 0.6.12 -->
<svg version="1.1" xmlns="http://www.w3.org/2000/svg" width="2500" height="2500">
<path d="M0 0 C1.910246373098289 -0.004180880755797034 3.820489561408749 -0.010112044948073162 5.7307257652282715 -0.017617464065551758 C10.960200388025441 -0.033125791012594163 16.189377739699466 -0.023909944408103456 21.418847262859344 -0.01050565391778946 C27.115644969682762 -0.0003292152825054018 32.812398246675 -0.013410225899775696 38.50918960571289 -0.023478984832763672 C48.48709572391431 -0.037909445743594006 58.46491523491784 -0.03749749801815483 68.44282531738281 -0.02729034423828125 C79.1435212364729 -0.01637357332296574 89.84415002923254 -0.013979223894637016 100.54484558105469 -0.02223968505859375 C101.2219511828572 -0.022756375563318443 101.89905678465959 -0.023273066068071557 102.59668073803186 -0.023805413860827684 C105.35464936818141 -0.025938614842374363 108.1126179400901 -0.028133463008032322 110.8705864585936 -0.0304065162781626 C136.53037218308475 -0.05153973941978052 162.1901238995838 -0.053009335605537444 187.84991455078125 -0.04181671142578125 C188.60953716918834 -0.04148552966304919 189.3691597875952 -0.04115434790028871 190.15180127322674 -0.04081313032656908 C190.91264545813203 -0.04048141195437438 191.67348964303733 -0.0401496935822081 192.45738971233368 -0.03980792313814163 C215.64853816343782 -0.029710253142496867 238.8396725648572 -0.027111916385479162 262.03082275390625 -0.03189849853515625 C263.58455587401113 -0.032208416812835594 265.1382889943744 -0.03251704207451667 266.69202211499214 -0.032824378460645676 C272.93602664572154 -0.034066275257771395 279.1800311690846 -0.03534094468346893 285.42403568327427 -0.03666343353688717 C302.8779865489952 -0.04033124089025364 320.3319374634625 -0.042613807964670514 337.785888671875 -0.0438079833984375 C338.58066202264285 -0.04386256650556675 339.3754353734107 -0.04391714961266757 340.19429276511073 -0.043973386753350496 C365.5144997276918 -0.04561019396925303 390.83470179802293 -0.04110450786191677 416.1549072265625 -0.03240966796875 C416.56545103313397 -0.03226916995598117 416.56545103313397 -0.03226916995598117 418.6430515088141 -0.03155816486105323 C431.97649635856897 -0.026978518947714747 445.3099411009043 -0.022100599248886965 458.64338583499193 -0.01719747018069029 C511.5234809076924 0.002227475039461524 564.4035354721568 0.0013258703006329142 617.2836303710938 -0.01811981201171875 C630.6103922108889 -0.023004680228922325 643.9371540603242 -0.027848927941960255 657.263916015625 -0.03240966796875 C658.0845231414214 -0.03269146061037986 658.9051302672178 -0.032973253251981305 659.750604275614 -0.033263585064560175 C685.0447150201471 -0.04188991518105922 710.3388223974603 -0.04554512170702196 735.6329345703125 -0.0438079833984375 C736.4271223197507 -0.04375364616046795 737.2213100691883 -0.043699308922526825 738.039564114064 -0.043643325101584196 C755.4742111609116 -0.042393342661284805 772.9088578515612 -0.03985865446216508 790.3435045462102 -0.03616597200743854 C796.5818852310103 -0.034849438764439356 802.8202659288822 -0.03359711117400366 809.0586466304958 -0.03236312745139003 C810.6105550774319 -0.032053573135556235 812.162463523307 -0.031738651744092294 813.7143719680607 -0.03141834260895848 C836.8985945729751 -0.026646359881453918 860.0828013404468 -0.03070510547766503 883.2670219689608 -0.04081313032656908 C884.0266445873676 -0.04114431208930114 884.786267205775 -0.04147549385206162 885.5689086914063 -0.04181671142578125 C886.3271264331042 -0.04214744078927879 887.0853441748022 -0.04247817015274791 887.8665382117033 -0.042818921618163586 C913.4531771948282 -0.05385758814094288 939.0397754146736 -0.04978164134999474 964.6264085769653 -0.028693735599517822 C967.3755982287735 -0.026484379790161938 970.1247879220512 -0.024337556099851554 972.8739776611328 -0.02223968505859375 C973.5486632219702 -0.021718857805240077 974.2233487828075 -0.021198030551886404 974.91847936064 -0.02066142065450549 C986.2371803976939 -0.012302158115744533 997.5558181646486 -0.01969968494589125 1008.8745179921389 -0.03127843327820301 C1018.7259180922911 -0.040244953776721104 1028.5772407079921 -0.03467113385971743 1038.4286293238401 -0.01725935749709606 C1044.041944178774 -0.007742142534937102 1049.655067042192 -0.0044951321186772475 1055.2683758735657 -0.01888328790664673 C1060.3803867056758 -0.03185283872218747 1065.4920361380136 -0.02624590526224324 1070.6040208935738 -0.006160646677017212 C1072.4365245281695 -0.0021499183810647082 1074.2690584444479 -0.0047490192909833695 1076.1015378832817 -0.01498439908027649 C1090.4183788810724 -0.08924269211698288 1104.2234234820728 1.3363239604938144 1117.0844116210938 8.253364562988281 C1117.7452172851563 8.597705383300763 1118.4060229492188 8.942046203613302 1119.0868530273438 9.296821594238281 C1124.8575215848575 12.398679369347747 1129.8843179459186 16.063950144162277 1134.7094116210938 20.50336456298828 C1135.5498803710936 21.252309875488265 1136.3903491210938 22.001255187988306 1137.2562866210938 22.77289581298828 C1143.8149246797914 28.924103325615306 1148.4209228112334 35.626744176197576 1152.7094116210938 43.50336456298828 C1153.1928100585938 44.38637237548829 1153.6762084960938 45.269380187988304 1154.1742553710938 46.17914581298828 C1162.761941296458 63.38062005254767 1162.291660858808 81.60649539100098 1162.2190462574363 100.32277773413807 C1162.2082216446704 104.27421635628451 1162.2208766753013 108.22559660736346 1162.2303936481476 112.17702907323837 C1162.2439199102246 119.11731663358864 1162.2426738891866 126.05747838075223 1162.2316594719887 132.99776858091354 C1162.2152451615161 143.38761997217267 1162.2220095014438 153.77736988172603 1162.23319003894 164.16722365492024 C1162.2515707436062 181.87706607596937 1162.2509994224386 199.58686251439525 1162.2400665283203 217.29670906066895 C1162.2290566757172 235.24058018230562 1162.2267440304943 253.18442104792234 1162.2350158691406 271.12829399108887 C1162.2355325596454 272.26217349373735 1162.23604925015 273.39605299638583 1162.2365815979429 274.5642924839631 C1162.2387147102716 279.18250124826704 1162.240909545885 283.8007099777386 1162.2431827003602 288.4189186752774 C1162.2643350081169 331.4228777289442 1162.2657770707597 374.42681650298596 1162.2545928955078 417.43077850341797 C1162.254261713745 418.704804874342 1162.2539305319824 419.97883124526584 1162.2535893144086 421.29146447591484 C1162.2532575960365 422.56752970824016 1162.2529258776642 423.8435949405655 1162.2525841072202 425.15832881629467 C1162.2424932445465 464.0272341717317 1162.2398849392314 502.8961311459707 1162.2446746826172 541.7650375366211 C1162.2449846002346 544.3674169938719 1162.2452932255023 546.9697964512769 1162.2456005625427 549.5721759088337 C1162.2468424197289 560.0299414152097 1162.2481170858432 570.4877069171835 1162.249439617619 580.945472413674 C1162.2531077315164 610.1796363530968 1162.2553966496516 639.4138003400905 1162.2565841674805 668.6479644775391 C1162.256611641227 669.3134699380997 1162.2566391149733 669.9789753986604 1162.2566674212576 670.6646476913593 C1162.258422218691 713.7602994792086 1162.2540201403735 756.8559482537898 1162.2451858520508 799.9515991210938 C1162.2450453790668 800.6395189995346 1162.2449049060826 801.327438877976 1162.2447601763415 802.0362048133393 C1162.2400548580865 825.0777100932021 1162.2350305494367 848.1192153045174 1162.2299736542627 871.160720509477 C1162.21469216309 940.8373777485535 1162.2063174266905 1010.5140242093344 1162.2304349796614 1134.9480161148822 C1162.2354878704919 1157.9837207166436 1162.240481969699 1181.0194253288778 1162.2451858520508 1204.0551300048828 C1162.2453268309107 1204.7428566787235 1162.2454678097704 1205.430583352564 1162.245613060717 1206.1391502286424 C1162.2544351855659 1249.212355437658 1162.2583623382293 1292.2855585513562 1162.2565841674805 1335.3587646484375 C1162.2565571430598 1336.024048425373 1162.2565301186394 1336.6893322023086 1162.256502275297 1337.3747760936967 C1162.2552753517089 1367.2481427388411 1162.2527200641302 1397.1215091993865 1162.2489421560895 1426.9948756347876 C1162.2476255771112 1437.4433173319408 1162.246373256545 1447.891759036902 1162.2451393115334 1458.3402007441036 C1162.244829757866 1460.9395241121388 1162.244514836498 1463.5388474795402 1162.244194526691 1466.1381708462723 C1162.23941921844 1504.9972056543372 1162.2434877498067 1543.8562310194548 1162.2535893144086 1582.7152646500617 C1162.25375490529 1583.3522778355236 1162.25375490529 1583.3522778355236 1162.2545928955078 1586.5759506225586 C1162.2547582601896 1587.2117897729481 1162.2547582601896 1587.2117897729481 1162.2555951057002 1590.4295212309808 C1162.2666249196784 1633.3088724127322 1162.2625758045615 1676.188199262386 1162.2414699196815 1719.0675469636917 C1162.2392604827558 1723.6711763284281 1162.237113668423 1728.2748057179617 1162.2350158691406 1732.8784351348877 C1162.2344950418874 1734.0082514259311 1162.233974214634 1735.1380677169748 1162.2334376047365 1736.3021208653226 C1162.2255452912364 1754.198372546098 1162.2310439258185 1772.0945939917729 1162.24209189252 1789.9908429461066 C1162.2526680802198 1807.5842204357036 1162.2489677949623 1825.1775468669566 1162.2300355415791 1842.7709178756922 C1162.2193576970678 1853.0873209549782 1162.2195895459784 1863.4035840916135 1162.2359619296622 1873.7199805011041 C1162.2457431034827 1880.5730314606044 1162.2409999652216 1887.4259735415299 1162.2244945142884 1894.2790113440715 C1162.2155443038298 1898.1627889501615 1162.2126925239934 1902.0462880734012 1162.2277605831623 1905.9300531074405 C1162.3602720441845 1942.6168116675053 1162.3602720441845 1942.6168116675053 1153.8969116210938 1957.9408645629883 C1153.549267578125 1958.5978836059571 1153.2016235351562 1959.254902648926 1152.8434448242188 1959.9318313598633 C1141.8314802863574 1980.337460794 1125.1613113815854 1994.5064044340006 1102.9510346837342 2001.3537635840476 C1093.1817033811672 2003.8831565856767 1083.8002097019591 2003.9237892415103 1073.7879667282104 2003.8836812973022 C1071.8812185929146 2003.887118701925 1069.9744724562042 2003.891868115334 1068.0677304565907 2003.8978022634983 C1062.8340242622812 2003.9102915196358 1057.600481433853 2003.9041710340152 1052.3667745580897 2003.8949685869738 C1046.6705599696838 2003.8882539743563 1040.9743733187709 2003.898927336511 1035.2781646847725 2003.9073644280434 C1025.2966339319591 2003.9197371888822 1015.3151501829691 2003.9209411160973 1005.3336143493652 2003.9148139953613 C994.6268294789977 2003.9082592336094 983.9200832038164 2003.908069116831 973.213300704956 2003.9158611297607 C972.536281179699 2003.9163491280838 971.859261654442 2003.9168371264068 971.1617263859953 2003.9173399125575 C968.4041871349348 2003.9193481618595 965.6466479221592 2003.9214012740472 962.8891087473312 2003.9235116543423 C934.9143241535016 2003.9448984716018 906.9395613355173 2003.946968593119 878.9647706174001 2003.9414546146 C875.1008619930426 2003.9406988812889 871.2369533643378 2003.9399712630407 867.3730447292328 2003.9392726421356 C866.6055549187081 2003.939133550667 865.838065108183 2003.938994459199 865.0473180306726 2003.9388511528377 C848.0313135189315 2003.9358976541107 831.0153116200381 2003.9389128481944 813.9993075804668 2003.9431689311168 C811.6698077062142 2003.9437510873322 809.3403078290776 2003.9443199329494 807.0108079505153 2003.9448845633306 C800.766049472745 2003.9463995431433 794.5212909980573 2003.9479264539123 788.2765325291548 2003.949477569433 C744.6877912008918 2003.9602328830306 701.0990522936268 2003.9649375860622 657.5103101730347 2003.957007408142 C657.0995673312389 2003.9569332552041 657.0995673312389 2003.9569332552041 655.0209596166969 2003.9565579963964 C645.8607087673583 2003.9548990254261 636.7004579360125 2003.9531494419543 627.5402071103454 2003.9513649865985 C626.7131854920315 2003.9512039618103 625.8861638737176 2003.9510429370212 625.0340809942427 2003.9508770326938 C618.3228183801621 2003.949569385014 618.3228183801621 2003.949569385014 615.0004696651595 2003.9489158435026 C562.1002964673164 2003.9385243546694 509.2001565381079 2003.9462913981533 456.29998779296875 2003.9699172973633 C442.97010650169204 2003.9758607902922 429.64022519399373 2003.9817523903603 416.3103437423706 2003.9873266220093 C415.4895506835351 2003.9876703923305 414.66875762469954 2003.9880141626518 413.82309204892954 2003.9883683502558 C388.5230107391244 2003.9988971267994 363.2229322066057 2004.0044897675848 337.92284870147705 2004.0048837661743 C337.5256541476879 2004.0048901572454 337.5256541476879 2004.0048901572454 335.51560898154275 2004.0049224999384 C318.07639374479413 2004.005150801203 300.6371787507512 2004.004144615637 283.1979636485048 2004.0020134471415 C276.9578602676462 2004.0012586938728 270.71775687840704 2004.0005804854022 264.4776534855482 2003.9999332954758 C262.92530327014174 2003.999770604034 261.37295305524844 2003.999602938471 259.8206028409186 2003.999430279655 C235.09475238347545 2003.9967101065686 210.36892213267458 2004.0052590170912 185.6430760185467 2004.0192843849072 C160.04568886228708 2004.033697657792 134.44834010931424 2004.033234823225 108.85095425695181 2004.0159096643329 C106.10054478081031 2004.0141055207723 103.35013527191472 2004.0123653272894 100.5997257232666 2004.0106754302979 C99.92473918348378 2004.0102549293597 99.24975264370096 2004.0098344284215 98.5543119663489 2004.0094011850306 C87.2304829421173 2004.002728387928 75.9067196689798 2004.0118380566628 64.58289486798458 2004.0251443532761 C54.726957848256006 2004.0356179080154 44.87109601297573 2004.0315558337466 35.01516641792841 2004.0156643169466 C29.39920448564351 2004.0070161467356 23.783435853094034 2004.0046481057602 18.16748370975256 2004.0199336335063 C13.053038108110513 2004.0337227829332 7.9389511095042735 2004.0289276037493 2.8245263285934925 2004.0096484459937 C0.9911322475815041 2004.0059293545828 -0.8422910794057543 2004.00882479322 -2.675658654421568 2004.0193615294993 C-17.039872728956425 2004.096191157074 -30.838479681123317 2002.6579368902003 -43.72808837890625 1995.6908645629883 C-44.389296875000014 1995.3468460083009 -45.05050537109378 1995.0028274536135 -45.73175048828125 1994.6483840942383 C-51.05345999765507 1991.8036053092396 -55.738349386812615 1988.4663784663348 -60.29058837890625 1984.5033645629883 C-60.87711181640623 1984.0586380004884 -61.463635253906205 1983.6139114379885 -62.06793212890625 1983.1557083129883 C-70.24706036076327 1976.7941641326552 -75.87515260395276 1967.841320826019 -80.60308837890625 1958.7533645629883 C-80.91624999999999 1958.1715139770508 -81.22941162109373 1957.5896633911134 -81.55206298828125 1956.9901809692383 C-89.58763093580978 1940.7645561844024 -88.86834785370922 1923.3667426100942 -88.80022301524878 1905.7487412514165 C-88.78940877832804 1901.7890087568185 -88.80204984448892 1897.8293349032274 -88.81157040596008 1893.8696085810661 C-88.82510328417618 1886.9131466560484 -88.82384595043732 1879.9568102216904 -88.81283622980118 1873.000345647335 C-88.79642888182138 1862.586279746236 -88.80318326189229 1852.172315160206 -88.81436679675244 1841.7582468942273 C-88.8327517934191 1824.0075725600682 -88.83217408550342 1806.2569440936704 -88.82124328613281 1788.5062656402588 C-88.81023493286705 1770.5200488582418 -88.80791958425186 1752.533862259571 -88.81619262695313 1734.547643661499 C-88.81670931745782 1733.4112526072283 -88.81722600796263 1732.2748615529574 -88.81775835575536 1731.104034406133 C-88.81989145871444 1726.475625854493 -88.82208629299998 1721.8472173376138 -88.8243594581727 1717.2188088526018 C-88.84551378430058 1674.1159773800823 -88.846952937315 1631.013166139346 -88.83576965332031 1587.9103317260742 C-88.83560406243896 1587.271803502841 -88.83560406243896 1587.271803502841 -88.8347660722211 1584.0404637064785 C-88.8344343538489 1582.761364599932 -88.83410263547671 1581.4822654933855 -88.83376086503267 1580.1644058078527 C-88.82367072068826 1541.205902189771 -88.82106136283289 1502.2474069334467 -88.82585144042969 1463.2889022827148 C-88.82616135797718 1460.680705399716 -88.82646998324572 1458.0725085165632 -88.82677732035518 1455.464311633259 C-88.82801917335473 1444.983215782385 -88.82929383911869 1434.502119935904 -88.83061637543142 1424.0210240948945 C-88.83428452173098 1394.721489894533 -88.83657341608682 1365.4219556610165 -88.83776092529297 1336.1224212646484 C-88.83778839903937 1335.4554230457888 -88.83781587278588 1334.788424826929 -88.83784417907009 1334.1012145408313 C-88.83959902290155 1290.9077562209154 -88.83519666428435 1247.7143009073504 -88.82636260986328 1204.5208435058594 C-88.82622213687921 1203.8313440042368 -88.82608166389514 1203.141844502614 -88.82593693415402 1202.4314510767 C-88.82123159256594 1179.33691629875 -88.81620729511553 1156.2423815891827 -88.81115041207522 1133.1478468859568 C-88.79586886741606 1063.310420246898 -88.78749417298582 993.473004361251 -88.81161173747387 868.7520319641335 C-88.81666461443717 845.6633165442995 -88.82165870397819 822.5746011140168 -88.82636260986328 799.4858856201172 C-88.82650358872309 798.7965798849059 -88.826644567583 798.1072741496946 -88.8267898185295 797.3970803619013 C-88.83561170507426 754.2261557935375 -88.83953914152562 711.0552333157112 -88.83776092529297 667.8843078613281 C-88.83773390087242 667.2175316076138 -88.83770687645188 666.5507553538995 -88.83767903310945 665.8637737591635 C-88.8364521191537 635.9236237316165 -88.83389685238717 605.9834738994796 -88.83011891390197 576.0433240791317 C-88.8288023300895 565.571562745961 -88.8275500102659 555.0998014049962 -88.82631606934592 544.628040061798 C-88.82600651574705 542.0229060896439 -88.82569159438151 539.4177721181221 -88.82537128450349 536.8126381472684 C-88.82059562467896 497.86384370630776 -88.82466518931483 458.91505868589434 -88.8347660722211 419.9662654194981 C-88.8350972539838 418.68920897303155 -88.83542843574662 417.4121525265649 -88.83576965332031 416.09639739990234 C-88.83610038268375 414.82169374426826 -88.83643111204731 413.5469900886342 -88.8367718635127 412.23365904949605 C-88.84780074365847 369.2559350552517 -88.84375446385457 326.27823533825574 -88.82264667749405 283.30051481723785 C-88.82043723199422 278.68670505859245 -88.8182904186516 274.0728952752046 -88.81619262695313 269.45908546447754 C-88.81567179969977 268.3267677467037 -88.81515097244642 267.19445002892985 -88.81461436254904 266.02781965304166 C-88.80672080430918 248.08901752558182 -88.81222200680281 230.15024555531738 -88.82326865033247 212.21144614671357 C-88.83384258451565 194.5779534259068 -88.83014867499026 176.94451165264917 -88.81121229939163 159.31102540157735 C-88.80053103915384 148.96993028777752 -88.8007722568052 138.62897478190013 -88.81713868747465 128.2878863089718 C-88.82691483487133 121.4197480736579 -88.82218463736751 114.55171853065309 -88.80567127210088 107.68359344033524 C-88.79671505488568 103.79041407919277 -88.79388334252985 99.89751268078567 -88.80893734097481 96.00434579700232 C-88.93598831822271 60.71361666066383 -88.93598831822271 60.71361666066383 -80.47808837890625 45.06586456298828 C-80.13406982421873 44.40465606689452 -79.7900512695312 43.743447570800754 -79.43560791015625 43.06220245361328 C-76.5908291251576 37.740492944239406 -73.2536022822527 33.055603555081746 -69.29058837890625 28.50336456298828 C-68.84586181640623 27.916841125488304 -68.4011352539062 27.33031768798827 -67.94293212890625 26.72602081298828 C-61.581387948573024 18.546892581131317 -52.62854464193674 12.918800337941832 -43.54058837890625 8.190864562988281 C-42.958737792968805 7.87770294189454 -42.376887207031245 7.564541320800799 -41.77740478515625 7.241889953613281 C-28.46238093391048 0.6477661341322971 -14.52408054344221 -0.08112477406402263 0 0 Z M-19.31402587890625 68.15180206298828 C-19.760041503906223 68.72156768798828 -20.206057128906195 69.29133331298829 -20.66558837890625 69.87836456298828 C-20.896330566406277 70.1606692504883 -20.896330566406277 70.1606692504883 -22.06402587890625 71.58930206298828 C-24.663895220851828 75.6464230106103 -25.540604766239653 79.19053610876466 -25.541821382939816 83.98180647566915 C-25.546949594481816 85.07985501704036 -25.55207780602393 86.17790355841163 -25.557361417915672 87.30922629800625 C-25.552816203949078 88.51337763990978 -25.54827098998237 89.71752898181325 -25.543588042259216 90.95816975831985 C-25.5466411380703 92.24617360741598 -25.54969423388127 93.53417745651211 -25.552839847747236 94.86121172527783 C-25.56107224730067 98.45641014175942 -25.556783082668858 102.05150340169041 -25.55054811388254 105.64670186210424 C-25.545953700881455 109.56498732587187 -25.55295212648025 113.48325473307733 -25.558481752872467 117.40153661370277 C-25.56660389677245 124.30200405149373 -25.567234521990713 131.20244137223017 -25.563069865107536 138.10291186720133 C-25.55686932408946 148.43322882902862 -25.562134998584725 158.7635180241922 -25.569667280477006 169.09383296393207 C-25.582157831955783 186.69726128305058 -25.58507610787717 204.30067977593205 -25.58283233642578 221.90411186218262 C-25.58058610499745 239.7514184619455 -25.582642260692523 257.59871671237437 -25.589977264404297 275.4460220336914 C-25.59043657054542 276.5719223823986 -25.590895876686545 277.6978227311058 -25.591369101195596 278.85784127219813 C-25.593252306223803 283.4432195424587 -25.595163674142896 288.02859779981327 -25.597111482347827 292.61397604309605 C-25.6174188611069 340.4899393401827 -25.623524131079648 388.36589796433736 -25.62469570338726 436.24186507612467 C-25.62482519405171 441.39788185077805 -25.624961072098813 446.55389862521224 -25.625102519989014 451.7099153995514 C-25.625136528956887 452.98933173031014 -25.625170537924873 454.2687480610691 -25.625205577467568 455.58693458366906 C-25.626021882451482 483.91664893754717 -25.63039974417984 512.24636239508 -25.63541420956608 540.5760762740974 C-25.63747086662147 552.2348216923283 -25.639450905834565 563.8935671241509 -25.641446709632874 575.5523125529289 C-25.641667888323468 576.8404343156398 -25.64188906701395 578.1285560783505 -25.642116948089097 579.4557118338707 C-25.647315861407606 609.7967286644919 -25.651781443996242 640.1377455756794 -25.655481338500977 670.478762626648 C-25.6555620792966 671.1398750273089 -25.65564282009234 671.80098742797 -25.655726007578778 672.4821335377419 C-25.6608529478699 714.6163059756162 -25.66265093302502 756.7504778633723 -25.662125341579667 798.8846505928741 C-25.662099830856732 800.9568131335664 -25.662075906093378 803.0289756742709 -25.662052517873235 805.1011382149882 C-25.66188783328471 819.6592483329141 -25.661682414551137 834.2173584502016 -25.661466759531322 848.7754685674499 C-25.661405220374945 852.9496780429058 -25.661345091970475 857.1238875183822 -25.66128513035983 861.2980969938608 C-25.66123494260239 864.7799345732394 -25.66118336335353 868.2617721525862 -25.661128906765953 871.7436097319005 C-25.660105989138742 937.5112273622381 -25.662943141530832 1003.2788400842082 -25.68182373046875 1069.0464553833008 C-25.68202244765257 1069.7389049984154 -25.682221164836392 1070.43135461353 -25.68242590375303 1071.1447875503145 C-25.68864860261624 1092.7801824768903 -25.695381586259714 1114.4155772421711 -25.70220947265625 1136.0509719848633 C-25.709212196248018 1158.2502100784911 -25.716153067161372 1180.4494481869633 -25.72273826599121 1202.6486864089966 C-25.72294131818444 1203.3321959536447 -25.723144370377668 1204.0157054982928 -25.723353575667716 1204.719927453385 C-25.73604978438709 1247.519147192867 -25.743895206525394 1290.3183655357943 -25.7464542388916 1333.1175870895386 C-25.746494294151944 1333.7785018619663 -25.746534349412286 1334.4394166343943 -25.74657561846834 1335.1203591271988 C-25.748365446367302 1364.795695893696 -25.748938481330356 1394.4710325791636 -25.748355612216983 1424.146369390859 C-25.748162634440177 1434.5253095377186 -25.748058553544183 1444.9042496853895 -25.747998153441586 1455.2831898338045 C-25.747982325177304 1457.8653151134622 -25.747961915491146 1460.447440393096 -25.74793690664228 1463.0295656726812 C-25.747583903343525 1504.2152300404348 -25.758994663120006 1545.4008806755312 -25.77624453813769 1586.5865411058767 C-25.79352467630349 1628.055174648381 -25.79794389019935 1669.5237891483519 -25.78472189436434 1710.9924247734307 C-25.782897182000966 1716.7171177847574 -25.781210655160066 1722.4418108292818 -25.779605865478516 1728.16650390625 C-25.77928569085543 1729.2887467553949 -25.77896551623246 1730.41098960454 -25.778635639348067 1731.56723981275 C-25.77392149428897 1749.3686538533482 -25.782663499744444 1767.1700350589053 -25.79694823938189 1784.971442924958 C-25.810699932637704 1802.4569920515605 -25.81027665179522 1819.9424924724676 -25.79456396633759 1837.4280404939782 C-25.785770294408053 1847.6912972572454 -25.788017452366603 1857.9544109433136 -25.80629753653193 1868.21765599653 C-25.817336018105152 1875.0241625610824 -25.814005054757217 1881.830561769798 -25.798731970542576 1888.637059967994 C-25.790469327956203 1892.5017670794596 -25.78853371203968 1896.3661915556686 -25.804233349859715 1900.2308819629252 C-25.820944477410876 1904.378319144589 -25.806889557718932 1908.525077055594 -25.78968369960785 1912.6725118756294 C-25.799482938363212 1913.869490991172 -25.809282177118575 1915.0664701067144 -25.819378362502903 1916.2997213166673 C-25.75578244349117 1923.6053381505594 -24.960681862058323 1929.4617763689157 -19.91412000125274 1935.0191620134283 C-14.443508434516502 1939.9811321702655 -8.675326955411379 1940.8024005853904 -1.5515161156654358 1940.7552135586739 C-0.7864025780721704 1940.7581424236369 -0.021289040478905008 1940.7610712885999 0.7670097558293492 1940.7640889070462 C3.3388571327930094 1940.7714838424772 5.910467834247811 1940.7646090754024 8.482314109802246 1940.7578401565552 C10.349517364330495 1940.7602293460127 12.216719668460428 1940.7634941044162 14.083920031785965 1940.7675567567348 C19.24037490971932 1940.7762099407169 24.396757375636298 1940.7723365897791 29.55321344267577 1940.7665010327473 C35.1534119739988 1940.7623440113093 40.753596964264034 1940.7697251131035 46.3537922501564 1940.775653541088 C56.17732966258791 1940.7844349195075 66.0008462319613 1940.7857207912625 75.82438659667969 1940.7821502685547 C86.36638903536857 1940.778328669584 96.90837868197411 1940.7787253044285 107.45038032531738 1940.784460067749 C108.11590451250254 1940.7848188934458 108.78142869968781 1940.7851777191427 109.46712028648471 1940.7855474183452 C112.17764074167235 1940.7870223042346 114.88816117833028 1940.7885266971707 117.59868159607868 1940.7900688845257 C145.12567186657554 1940.805712225928 172.65265287197576 1940.8083819442754 200.17964679267607 1940.8059128222812 C203.98437225866383 1940.8055743844102 207.7890977257008 1940.8052522865546 211.59382319450378 1940.8049471378326 C212.34950858030288 1940.8048860943404 213.1051939661021 1940.8048250508482 213.88377890904667 1940.8047621575533 C230.62299133051397 1940.803490833774 247.36220247567098 1940.806090590875 264.10141451930394 1940.8094732047175 C267.9223402291153 1940.8102439426366 271.74326594403453 1940.810988667069 275.5641916580498 1940.8117382191122 C277.0976533538569 1940.8120399103436 278.6311150496267 1940.812341791354 280.1645767453592 1940.812643861631 C280.54462816344505 1940.812718701557 280.54462816344505 1940.812718701557 282.46791867315187 1940.8130974369415 C284.00537715714995 1940.8134009656496 285.54283564092066 1940.813705647981 287.08029412446194 1940.8140114813286 C330.7124876565381 1940.822686158378 374.3446800623026 1940.8273271954827 417.97687435150146 1940.8230638504028 C418.78502692071083 1940.822985793533 419.5931794899202 1940.8229077366632 420.4258215309237 1940.822827314434 C429.4378391247885 1940.8219544938956 438.4498567125743 1940.8210252315448 447.46187429875135 1940.8200766816735 C448.27554655062613 1940.8199911723605 449.0892188025007 1940.8199056630483 449.92754778928065 1940.819817562544 C456.68901263107045 1940.81910671278 456.68901263107045 1940.81910671278 459.79923247138504 1940.8187753352104 C511.8522255986245 1940.8132387172227 563.9052009949573 1940.8207834120744 615.9581909179688 1940.8395462036133 C629.0747956856958 1940.844268284467 642.1914004642813 1940.848948737359 655.3080053329468 1940.85338306427 C656.1156090036752 1940.8536563864309 656.9232126744032 1940.8539297085917 657.7552891836385 1940.8542113132426 C682.6387956321751 1940.8625801983362 707.5223006039319 1940.8672620453399 732.4058084487915 1940.8680906295776 C733.1868305346329 1940.8681169960291 733.9678526204743 1940.8681433624806 734.7725420422503 1940.868170527916 C751.9162435746985 1940.8687112635344 769.0599449888391 1940.8683389594044 786.2036464839766 1940.8671308133926 C792.3376450416765 1940.8667051746452 798.471643602981 1940.866340053949 804.6056421660469 1940.8660013728659 C806.1316657764005 1940.865916070376 807.6576893865549 1940.86582713519 809.1837129964842 1940.8657345532556 C833.5167436278905 1940.8642847698493 857.8497622209384 1940.87141854098 882.1827899623895 1940.8827385137556 C907.3649981761428 1940.8943776934093 932.5471848706425 1940.894964151259 957.7293931767344 1940.882895089686 C960.4319427175396 1940.881643217418 963.1344922754035 1940.8804397389486 965.8370418548584 1940.8792743682861 C966.5003068497967 1940.878984074161 967.1635718447355 1940.8786937800364 967.8469357789145 1940.87839468912 C979.0012450435854 1940.873800910052 990.1555215241351 1940.8810885819112 1001.3098254071083 1940.8914836042095 C1011.0017266616737 1940.899690438211 1020.6935852312338 1940.8970799022854 1030.3854829727206 1940.8855083368253 C1035.9152387634235 1940.8792143590326 1041.4448835743603 1940.8777471115209 1046.9746332094073 1940.8893716707826 C1052.0003796854326 1940.8998400290538 1057.0259202264447 1940.8966237043269 1062.0516554005444 1940.8822671435773 C1063.8630700146362 1940.8795277309628 1065.6745008491794 1940.8818660226534 1067.485900271684 1940.8897742889822 C1069.9391820331948 1940.8997579440293 1072.3917385625243 1940.8913282276935 1074.8449901938438 1940.8782613873482 C1075.5466238246463 1940.8855517488464 1076.2482574554485 1940.8928421103442 1076.9711527114268 1940.9003533918876 C1083.981914214213 1940.8229632173325 1089.6539648083292 1938.4183822976202 1094.7094116210938 1933.5033645629883 C1097.9366798403937 1928.0861643377348 1098.834097942077 1923.2740423011392 1098.835500791669 1917.0411794036627 C1098.8381705020088 1915.946768017141 1098.840840212349 1914.8523566306194 1098.8435908230022 1913.7247812626883 C1098.8414363511558 1912.5247035756056 1098.8392818793095 1911.3246258885229 1098.8370621204376 1910.0881822109222 C1098.8387128991913 1908.8044691566101 1098.8403636779449 1907.5207561022971 1098.8420644802973 1906.1981426523998 C1098.8465269797564 1902.6150244374194 1098.8447314142422 1899.031931974232 1098.8419626969844 1895.4488130463287 C1098.840044690063 1891.5436384148643 1098.8439195402595 1887.6384688647317 1098.8470594882965 1883.7332956194878 C1098.8517808469423 1876.8559367958878 1098.8527557105135 1869.9785851685565 1098.8513311445713 1863.101224988699 C1098.8492141681643 1852.8054841965723 1098.8528174575779 1842.5097508811582 1098.857545918203 1832.2140112413326 C1098.8654288412163 1814.6694500237327 1098.8685084423214 1797.124890838304 1098.8689918518066 1779.580327987671 C1098.8694937709545 1761.7926873596941 1098.872135890294 1744.0050490117903 1098.87739944458 1726.2174091339111 C1098.877729578095 1725.095268910688 1098.87805971161 1723.9731286874646 1098.8783998491708 1722.8169842150528 C1098.8797498032127 1718.2469168294006 1098.881112466054 1713.6768494477778 1098.8824919547187 1709.1067820709432 C1098.8988062578035 1654.9635883317826 1098.90518189437 1600.8203950254979 1098.9099398243707 1546.677199246129 C1098.9123216449975 1519.7260115423114 1098.916024822001 1492.7748240877534 1098.919976921752 1465.8236365746707 C1098.9327427092037 1378.7204146315146 1098.9434866302572 1291.6171928493122 1098.9468982238614 1204.5139700269501 C1098.9470338031574 1201.0706868761972 1098.9471728319518 1197.6274037255848 1098.947311764583 1194.184120574966 C1098.9475342394999 1188.6636592805228 1098.9477556082034 1183.143197986038 1098.9479756439105 1177.6227366914973 C1098.9480029146505 1176.9386541187723 1098.9480301853903 1176.2545715460474 1098.9480582825163 1175.5497591983913 C1098.9481133953727 1174.167171049298 1098.9481685057026 1172.784582900205 1098.9482236135082 1171.4019947511115 C1098.9486102315336 1161.7034519261665 1098.9489981750087 1152.0049091012797 1098.9493927444673 1142.3063662766544 C1098.9495338529207 1138.8360152648445 1098.9496739256988 1135.3656642529997 1098.9498116406612 1131.8953132410534 C1098.9524160900435 1066.3460628703742 1098.9577479312018 1000.7968148662935 1098.9736938476563 935.2475662231445 C1098.973861640901 934.5574368606988 1098.9740294341457 933.867307498253 1098.9742023120343 933.1562651248241 C1098.9794530526096 911.5934166998325 1098.9850273908146 890.0305683593951 1098.9906616210938 868.4677200317383 C1098.9964425192554 846.3429018975798 1099.002173030301 824.2180837532517 1099.0076179504395 802.0932655334473 C1099.0077857579176 801.412044885164 1099.007953565396 800.7308242368808 1099.0081264579494 800.0289605386497 C1099.018617941186 757.3718195579291 1099.025475152905 714.7146792458578 1099.0284843444824 672.0575370788574 C1099.0285778303141 670.7403206386813 1099.0286713161458 669.4231041985051 1099.0287676348817 668.0659721086267 C1099.0307864536965 639.1531400324262 1099.0319426872422 610.240307980672 1099.0322962206556 581.3274758380139 C1099.0324323989075 570.9825251330735 1099.0326413963 560.6375744297061 1099.0328894730192 550.2926237268839 C1099.0329510330823 547.7189592068684 1099.0330093537316 545.1452946867732 1099.0330644224305 542.5716301666107 C1099.0339850814098 501.523671619394 1099.0439633940728 460.4757214632409 1099.0585219091736 419.4277656781487 C1099.0731223176783 378.0964137683361 1099.0781893968604 336.76507216605864 1099.0701023667352 295.43371813429985 C1099.0689869243574 289.7274535176705 1099.0679762815244 284.021188886843 1099.0670280456543 278.3149242401123 C1099.0668380778445 277.19629798183917 1099.066648110035 276.077671723566 1099.0664523856249 274.92514769989066 C1099.0637144426569 257.183984627708 1099.0710744413348 239.44284056359209 1099.0826014137128 221.70168162777554 C1099.0937162798443 204.27359147543376 1099.0941995426417 186.84552830050075 1099.0832312284037 169.41743774805218 C1099.0771163768736 159.18905855275347 1099.079278293711 148.96076057819573 1099.0934832015773 138.7323889656691 C1099.102091594934 131.94770790958302 1099.0999086693478 125.16308690012261 1099.0887844894314 118.37840961024631 C1099.0827765355577 114.52696733315105 1099.0814956668817 110.67568480515979 1099.09346935153 106.82425286620855 C1099.1062213821497 102.68935593587901 1099.095852777102 98.55484050658254 1099.0831577777863 94.4199435710907 C1099.0905662744212 93.2294288524892 1099.0979747710562 92.03891413388772 1099.1056077675894 90.81232321169227 C1099.0488593240723 82.06558513486743 1098.1620790441789 73.9560319860733 1091.7094116210938 67.50336456298828 C1086.2786853503578 63.701856173473175 1081.7149839626368 63.355974989134666 1075.2198870182037 63.37571406364441 C1074.8386704510403 63.374888674267595 1074.8386704510403 63.374888674267595 1072.90948358085 63.370711703784764 C1070.3347700029344 63.366371147097254 1067.7601131902293 63.369192900526514 1065.1853981018066 63.3719367980957 C1063.3208293254186 63.37028790190527 1061.4562608928763 63.36820197064719 1059.5916930437088 63.36571669578552 C1054.4332383855472 63.36013073068068 1049.2748002675871 63.36082597595504 1044.1163435466588 63.36249428614974 C1038.5174219678454 63.36322316089786 1032.9185051364216 63.35820768705287 1027.3195855617523 63.35391926765442 C1016.1992993116796 63.346325039911505 1005.0790178605037 63.344145486745845 993.9587292885408 63.34359021205455 C984.7101353659452 63.34295649443942 975.4615444090416 63.339992276486385 966.2129516601563 63.33537673950195 C965.8802684989676 63.33521167274449 965.8802684989676 63.33521167274449 964.196690077195 63.33437633491121 C961.4868628455256 63.333026369650554 958.7770356206483 63.33166370582023 956.0672084038379 63.330284229363315 C923.968140745352 63.31397273713958 891.8690738183639 63.30759459489576 859.7700027197134 63.302836359711364 C843.790421989778 63.30045418945315 827.8108416800155 63.29675093662195 811.8312612716109 63.292799262329936 C760.5895533321386 63.28013438562533 709.347845412811 63.26935022131727 658.1061359338928 63.26595880440436 C655.6565454440574 63.26579656346041 653.2069549544674 63.26563100351848 650.7573644649237 63.26546441949904 C645.8445684600902 63.26513061779275 640.9317724550378 63.264800137018824 636.0189764499664 63.26446986198425 C630.2671309714924 63.26408295872125 624.5152854932151 63.26369335331759 618.7634400152601 63.26329879788682 C617.1172073541579 63.263186378470664 615.470974692987 63.26307496054358 613.8247420317493 63.26296454342082 C560.9424173512411 63.25941436141727 508.0601062514447 63.2443331079686 455.1777867549099 63.22102680010721 C417.18367865098844 63.20428881106602 379.18957310711266 63.188811677235606 341.19546127319336 63.18429183959961 C340.41435848366245 63.18419835376784 339.6332556941313 63.18410486793613 338.82848312309943 63.18400854920037 C321.68263578661663 63.18198965246887 304.5367884913592 63.180833483334766 287.3909410428023 63.18047996342648 C281.2560513453607 63.180343786916296 275.1211616505723 63.18013479056032 268.9862719567027 63.17988671106286 C267.4600223582736 63.1798251509141 265.93377275971034 63.17976683027371 264.40752316103317 63.17971176165156 C240.07262343711352 63.17879138885394 215.7377378762394 63.16881650100447 191.4028428136371 63.15425427490845 C166.89701924543192 63.139648418131 142.39121306745312 63.13459017074365 117.88538591761608 63.142673817346804 C114.50074924665853 63.14378923175434 111.11611255177002 63.144799882313464 107.73147583007813 63.145748138427734 C107.06798030201116 63.14593810623745 106.40448477394409 63.14612807404717 105.7208833207842 63.14632379845716 C94.56574868448183 63.14922631326925 83.41064872993525 63.140230763317675 72.25552179012448 63.12810872774571 C62.5609408872042 63.11839604822961 52.86640089913749 63.119501283362524 43.171820416115224 63.129544955678284 C37.64131687962936 63.1349638745848 32.11092527009521 63.135561148641784 26.580430775880814 63.12303623557091 C21.55281372924685 63.11174470988237 16.525400274841672 63.114169266113265 11.497790470719337 63.12770330905914 C9.686813867599653 63.130146228472086 7.87582182368044 63.127522070060024 6.064862206578255 63.119306832551956 C3.609770632889308 63.10889853195812 1.155398455003251 63.116965001733035 -1.2996671199798584 63.129618406295776 C-1.9990281437989097 63.12220990966074 -2.698389167617961 63.1148014130257 -3.418942949734628 63.10716841649264 C-9.210295256698942 63.16992482350702 -14.743612606183433 64.42841518829903 -19.31402587890625 68.15180206298828 Z " fill="#000000" transform="translate(712.2905883789063,251.49663543701172)"/>
<path d="M0 0 C0.5779833984374818 0.45987304687503183 1.1559667968749636 0.9197460937500068 1.75146484375 1.3935546875 C35.61706655057924 28.65956380223804 56.049195674594785 67.16090729791097 61.3125 110.1875 C62.281630097517336 125.42927335186562 62 140.72744723186213 62 156 C111.5 156 161 156 212 156 C212 177.12 212 198.24 212 220 C162.5 220 113 220 62 220 C62 280.72 62 341.44000000000005 62 404 C91.36999999999989 404 120.74000000000001 404 151 404 C151 425.12 151 446.24 151 468 C121.63000000000011 468 92.25999999999999 468 62 468 C62 530.37 62 592.74 62 657 C111.5 657 161 657 212 657 C212 677.79 212 698.5799999999999 212 720 C162.5 720 113 720 62 720 C62 781.05 62 842.0999999999999 62 905 C91.36999999999989 905 120.74000000000001 905 151 905 C151 925.79 151 946.5799999999999 151 968 C121.63000000000011 968 92.25999999999999 968 62 968 C62 1030.37 62 1092.74 62 1157 C111.5 1157 161 1157 212 1157 C212 1178.12 212 1199.24 212 1221 C162.5 1221 113 1221 62 1221 C61.91750000000002 1245.110625 61.835000000000036 1269.22125 61.75 1294.0625 C61.69295898437508 1301.6525805664062 61.635917968749936 1309.2426611328126 61.5771484375 1317.062744140625 C61.58642578125 1326.3895263671836 61.58642578125 1326.3895263671836 61.60601806640625 1330.767074584961 C61.61550511616133 1333.8006225583813 61.591727568217266 1336.831874071085 61.54693603515625 1339.8650970458984 C61.13779114441991 1369.430268492787 61.13779114441991 1369.430268492787 68.8671875 1378.296630859375 C70.84091830433431 1380.2977917645449 72.89386364863913 1382.132241631416 75 1384 C77.05366516113281 1386.764846801758 77.05366516113281 1386.764846801758 78.515625 1389.09375 C78.74648803710943 1389.4593603515625 78.74648803710943 1389.4593603515625 79.914794921875 1391.3095703125 C80.35541259765614 1392.032412109375 80.79603027343751 1392.75525390625 81.25 1393.5 C81.74540283203123 1394.302763671875 82.24080566406246 1395.10552734375 82.751220703125 1395.9326171875 C84.18524154099168 1398.2783071624215 85.5977718782608 1400.6351947721905 87 1403 C87.1907006835936 1403.319365234375 87.1907006835936 1403.319365234375 88.15576171875 1404.935546875 C114.85450356692627 1450.2827875244611 119.9403864619494 1507.1586905884694 107.84521484375 1557.73779296875 C98.80959833310362 1592.611827577432 82.24431629563401 1624.2846255639683 57.375 1650.44921875 C55.000000000000455 1652.9999999999995 55.000000000000455 1652.9999999999995 52.91796875 1655.625 C51.1663692988559 1657.7939866930665 49.435442855361316 1659.518902577127 47.3125 1661.3125 C45.210780259478724 1663.1003016736313 43.12604591303739 1664.8817830256608 41.11328125 1666.76953125 C28.312249978061118 1678.715483812222 13.519162474723089 1688.0364831937118 -2 1696 C-2.737666015625109 1696.386396484375 -3.475332031249991 1696.7727929687499 -4.2353515625 1697.1708984375 C-52.83742632485837 1722.435506364077 -111.92484079194355 1725.8288206320558 -164 1710 C-176.85833151382758 1705.8001424931617 -189.10992325500138 1700.4279243122096 -201 1694 C-201.2993041992188 1693.8403173828124 -201.2993041992188 1693.8403173828124 -202.81396484375 1693.0322265625 C-251.64317008945454 1666.8143104180363 -287.86808664864225 1620.7809947449693 -304.24609375 1568.12109375 C-320.57803527935425 1512.7940996248408 -313.84951263020025 1454.7993748352164 -286.995361328125 1404.001708984375 C-280.06777776994204 1391.3477431103322 -271.2391766828796 1378.2391766828796 -261 1368 C-260.89119535604505 1366.102070191751 -260.85310679584404 1364.2000693024017 -260.84178161621094 1362.299057006836 C-260.8368946027756 1361.6812232923508 -260.8368946027756 1361.6812232923508 -260.8121633529663 1358.5546102523804 C-260.80624821949596 1357.1671851961933 -260.8004231026457 1355.7797597539509 -260.794677734375 1354.392333984375 C-260.78496860617065 1352.9203999804765 -260.7748234891892 1351.4484687974366 -260.7642755508423 1349.9765405654907 C-260.7371449938046 1346.0214188080845 -260.71601131304374 1342.0662858731464 -260.69608306884766 1338.1111221313477 C-260.676510744644 1334.4048269526472 -260.6515792832445 1330.6985755710166 -260.6270751953125 1326.9923095703125 C-260.55847437498005 1316.1407392269064 -260.49851987909483 1305.2891156200262 -260.4375 1294.4375 C-260.2931249999999 1270.203125 -260.14875000000006 1245.96875 -260 1221 C-310.49 1221 -360.98 1221 -413 1221 C-413 1199.88 -413 1178.76 -413 1157 C-362.51 1157 -312.02 1157 -260 1157 C-260 1094.63 -260 1032.26 -260 968 C-290.3599999999999 968 -320.72 968 -352 968 C-352 947.21 -352 926.4200000000001 -352 905 C-321.6400000000001 905 -291.28 905 -260 905 C-260 843.95 -260 782.9000000000001 -260 720 C-310.49 720 -360.98 720 -413 720 C-413 699.21 -413 678.4200000000001 -413 657 C-362.51 657 -312.02 657 -260 657 C-260 594.63 -260 532.26 -260 468 C-290.3599999999999 468 -320.72 468 -352 468 C-352 446.88 -352 425.76 -352 404 C-321.6400000000001 404 -291.28 404 -260 404 C-260 343.28 -260 282.55999999999995 -260 220 C-310.49 220 -360.98 220 -413 220 C-413 198.88 -413 177.76 -413 156 C-362.51 156 -312.02 156 -260 156 C-260 142.79999999999995 -260 129.60000000000002 -260 116 C-259.27214194908925 108.45326126161012 -258.5558309356595 101.3480952631545 -257 94 C-256.83902832031254 93.21044921875 -256.6780566406251 92.4208984375 -256.51220703125 91.607421875 C-247.84632917949352 50.6172369162594 -221.41012887135503 14.418987244782727 -186.6962890625 -8.5224609375 C-129.90164746933647 -44.60348060728097 -53.0035679109958 -42.35882882000078 0 0 Z M-162 53 C-162.64195312499987 53.49628906250001 -163.28390624999997 53.99257812500002 -163.9453125 54.50390625 C-181.8083738015066 68.93176345506294 -193.35415726436577 92.43224483124789 -196 115 C-196.37084530748234 122.08220767404453 -196.24112581383838 129.18604137177567 -196.20864009857178 136.2750701904297 C-196.20606092219623 138.4633823685066 -196.2043751800104 140.65169574914842 -196.20349988341331 142.84000927209854 C-196.19855014176915 148.86482977732226 -196.18106544774196 154.88955935443005 -196.16164572816342 160.9143481850624 C-196.144761496319 166.78892651745264 -196.13754864956218 172.66351147500689 -196.13015080828336 178.5381082529202 C-196.11454339124225 190.69832781998866 -196.08975547956493 202.85851271872343 -196.06007957458496 215.018705368042 C-196.0165718035223 232.89824363315824 -195.98648118347637 250.77779080273388 -195.95901287754532 268.65736002195626 C-195.94769820638749 275.99436252841303 -195.93602486494274 283.3313644765923 -195.92435944080353 290.66836643218994 C-195.92306105911325 291.4879963428666 -195.92176267742298 292.3076262535435 -195.92042495083297 293.15209343424067 C-195.9015566013577 305.0377896565408 -195.88093195862461 316.92348182416595 -195.8590082678129 328.8091727900319 C-195.767090746667 378.6427016696557 -195.7071343818302 428.47619017245177 -195.67025208252016 478.3097893334925 C-195.66686930955302 482.8567677176368 -195.663400855389 487.40374603638634 -195.65994220227003 491.950724363327 C-195.63885477766667 519.7445957322225 -195.61905140680847 547.5384680167926 -195.5995498802513 575.3323405385017 C-195.580130446064 603.0037716327649 -195.5596401676762 630.6752016187402 -195.5368025036296 658.3466301225126 C-195.53442323040076 661.2346122414633 -195.5320661944411 664.1225943780066 -195.52971064019948 667.0105765163898 C-195.49325427167514 711.4873477960032 -195.44145339466263 755.9640429167916 -195.348388671875 800.4407348632813 C-195.34638841294964 801.3972764701675 -195.3443881540245 802.3538180770538 -195.3423272811924 803.3393457932398 C-195.31000048529404 818.7624198307451 -195.27657734406466 834.1854915015942 -195.24298250244465 849.6085628215224 C-195.14621271471674 894.040845816779 -195.0601076380458 938.4730486636249 -195.03919315338135 982.9054412841797 C-195.03875768193097 983.8193649451341 -195.0383222104806 984.7332886060885 -195.0378735429258 985.6749069234356 C-195.0289051646903 1004.8376376234166 -195.0240893555631 1024.0003669031626 -195.0245353069622 1043.1630996875465 C-195.02474061683824 1052.1370229945687 -195.02410782667425 1061.1109461470164 -195.02302742004395 1070.0848693847656 C-195.02298277795512 1070.5266277841897 -195.02298277795512 1070.5266277841897 -195.02275686193025 1072.7621930176392 C-195.0194820966194 1101.2104856357014 -194.95502944649115 1129.6582361826413 -194.85804793948773 1158.1063516652212 C-194.76060007358024 1186.7632680408062 -194.72195689153045 1215.4196062533724 -194.76508009244571 1244.0766752178315 C-194.77102579815164 1248.0393611156458 -194.77628926268085 1252.0020476489296 -194.7811393737793 1255.964735031128 C-194.78162678481112 1256.3531201746478 -194.78162678481112 1256.3531201746478 -194.78409338003257 1258.3185843857937 C-194.79774962648844 1270.6025544464983 -194.74757406982962 1282.885396579327 -194.67053061976912 1295.1690976810642 C-194.59602569658364 1307.2575416311574 -194.58955372451715 1319.3444516441125 -194.65466342517175 1331.4329663477838 C-194.686657255814 1337.8965356830686 -194.68872543101702 1344.3562521704353 -194.60662227123976 1350.8194650411606 C-194.10026946349012 1393.185995005362 -194.10026946349012 1393.185995005362 -203.6377981044352 1403.7993566989899 C-206.81422292851016 1406.6649465117034 -210.12015078654758 1409.0578432095724 -213.72536719590425 1411.3518147468567 C-219.98960974245483 1415.8908472310216 -224.03662830070562 1423.4751349997082 -228 1430 C-228.44134277343755 1430.7259033203125 -228.8826855468751 1431.451806640625 -229.33740234375 1432.19970703125 C-248.13576599887983 1463.8706382388468 -254.95942539109865 1503.0220496035163 -246 1539 C-245.81727539062513 1539.7632861328125 -245.63455078125003 1540.526572265625 -245.4462890625 1541.31298828125 C-240.67593118059472 1560.6411624579353 -232.22652370246396 1579.2474750799715 -220 1595 C-219.41476562499997 1595.804375 -218.82953124999995 1596.60875 -218.2265625 1597.4375 C-195.39414645276406 1627.7477815648895 -160.19129338346283 1648.7902373918914 -122.6318359375 1654.3505859375 C-83.24717688844021 1659.6363804813204 -42.82645783570774 1650.9091657653144 -10.7109375 1626.86328125 C23.091313304423693 1600.5553400085225 43.04396054916788 1565.4399651399108 49.59375 1523.16796875 C53.82425741786801 1486.414300764509 43.90792241647341 1447.9132819718102 21 1418.6875 C19.68245498409624 1417.1116639809786 18.34892746844571 1415.5490573626082 17 1414 C16.27941406250011 1413.16984375 15.558828124999991 1412.3396875 14.81640625 1411.484375 C8.49071665412498 1404.33645538733 8.49071665412498 1404.33645538733 5.819811932742596 1402.505173984915 C1.5450992930057055 1399.205003679431 -1.0862881233842927 1396.142488826352 -1.836332306265831 1390.733250848949 C-2.273803875710655 1385.1529204681158 -2.180075539693007 1379.5708121084858 -2.1146678924560547 1373.9782629013062 C-2.122124360945918 1371.7930620040315 -2.133531070389836 1369.6078716446243 -2.148529052734375 1367.4227094948292 C-2.178390840205793 1361.396839925707 -2.151998993930647 1355.3723116217902 -2.11673085950315 1349.3465193239972 C-2.091240698943011 1343.474129453167 -2.1082788006535793 1337.601961455272 -2.1241166564286686 1331.7295600965444 C-2.1554064351573743 1319.5718105368726 -2.1441597547266156 1307.4144326231867 -2.1098499298095703 1295.256706237793 C-2.0752609852015667 1282.9356438947852 -2.0603422562985543 1270.6147903361962 -2.069490432739258 1258.29368019104 C-2.0700571618822323 1257.5155252550817 -2.070623891025207 1256.737370319123 -2.07120779377874 1255.93563493056 C-2.074191440526647 1251.9677822917886 -2.0775018224658197 1247.9999299954811 -2.0809326376765966 1244.03207772132 C-2.1051443303520045 1215.3070181206463 -2.086268291899387 1186.5821174651844 -2.0450706481933594 1157.857084274292 C-2.0044213046244295 1129.3982072534113 -1.9837185045143997 1100.9394233268288 -1.9892616271972656 1072.4805164337158 C-1.9893440616137923 1072.0385496336808 -1.9893440616137923 1072.0385496336808 -1.989761229720898 1069.801929766836 C-1.9914595445859504 1060.827151870341 -1.9935651564710497 1051.8523741036852 -1.9959373269521166 1042.8775963616936 C-2.0009850431627 1023.7069189428821 -2.0030680022507568 1004.5362414354249 -2.003755569458008 985.3655633926392 C-2.0037912773050266 984.4514853070857 -2.0038269851520454 983.5374072215322 -2.003863775054924 982.5956298000528 C-2.005350117704893 939.0857023722176 -1.9766796114301997 895.575804314477 -1.9436006515752524 852.0658914459636 C-1.93994131309546 847.2525105806012 -1.9363012899800651 842.4391297006377 -1.932661309838295 837.6257488206029 C-1.9319398845932483 836.6718108941122 -1.9312184593482016 835.7178729676214 -1.9304751727322582 834.735027831237 C-1.9224522609761152 824.1174803721126 -1.914513378260608 813.499932852545 -1.90667724609375 802.8823852539063 C-1.905969395044849 801.9253689113789 -1.9052615439961755 800.9683525688515 -1.904532242915593 799.9823357310961 C-1.8717344521694486 755.5277794390506 -1.853999771118879 711.0732219467436 -1.8416248608846217 666.6186556970933 C-1.8408205209748303 663.73390198892 -1.8400048766177406 660.8491482841121 -1.8391873743385077 657.9643945796415 C-1.8271887536488975 615.4303339690506 -1.8192759816370199 572.8962738822538 -1.8171431495575234 530.362211611995 C-1.8170033588405659 527.5941413564143 -1.8168556579839787 524.8260711013562 -1.816705864854157 522.0580008463003 C-1.8158234074744541 505.63045298933696 -1.8149691833573343 489.20290513666305 -1.8148663192987442 472.7753572538495 C-1.8145484087281147 430.9091750005466 -1.8022944304198063 389.04303938074145 -1.7658159138518386 347.1768720498949 C-1.7502013427142629 329.22932299686704 -1.736028985484154 311.2817779404571 -1.7296040058135986 293.3342229127884 C-1.7294571151833225 292.92537098222147 -1.7294571151833225 292.92537098222147 -1.7287137595703825 290.8563324245042 C-1.7258619056437965 282.7396846247592 -1.723501493316462 274.6230368026879 -1.7217953723738901 266.50638868121314 C-1.7209491248524955 262.5463015040606 -1.7199747964750713 258.58621436880037 -1.7189159393310547 254.626127243042 C-1.718813164274252 254.23799046656848 -1.718813164274252 254.23799046656848 -1.7182930601993576 252.2737831432023 C-1.7147356446491813 239.98970331946828 -1.70094692147336 227.70565680000755 -1.6828098561963998 215.42159073680523 C-1.6651571467832582 203.33805585688424 -1.6581021406923355 191.25455357204783 -1.6622416083700955 179.17100609489717 C-1.6639906248033185 172.7090605648982 -1.6609187219874002 166.24721523089806 -1.644504651427269 159.7852881476283 C-1.6296353295053905 153.90321335875433 -1.6286587530560155 148.02130401119257 -1.638612613081932 142.13922034576535 C-1.639764841397664 140.02790602574578 -1.6359045176120617 137.91658126065067 -1.6263239681720734 135.8052883632481 C-1.495333359396227 105.2091077732091 -9.279737838654455 79.9871778253866 -31 58 C-31.290683593750146 57.673222656250005 -31.290683593750146 57.673222656250005 -32.76171875 56.01953125 C-46.77936881516598 40.58952349564851 -70.80432399834399 31.03024647112261 -91.21630859375 29.87451171875 C-117.88969558824033 28.803701952378503 -141.28743173559224 35.76557999131364 -162 53 Z " fill="#000000" transform="translate(1351,408)"/>
<path d="M0 0 C20.789999999999964 0 41.57999999999993 0 63 0 C62.995935802459826 6.827396478652986 62.991871604919424 13.654792957305858 62.98768424987793 20.689080238342285 C62.967980404485616 54.32991011567344 62.95002928954432 87.97074088208456 62.93310546875 121.611572265625 C62.93270622394971 122.40479227712376 62.932306979149644 123.19801228862252 62.93189563602209 124.01526927016675 C62.88918506250866 208.99479310302593 62.86108486443845 293.97430686330665 62.862579345703125 378.95384216308594 C62.86260881756834 380.84105992224045 62.86263827901212 382.7282776813952 62.8626677300781 384.61549544055015 C62.86333046014283 424.2270409292372 62.86605047212424 463.8385860621539 62.87114762948477 503.45013122567616 C62.87370583062375 523.3477611638741 62.87586862749254 543.2453911296709 62.87765759672038 563.1430211520055 C62.87792975461957 566.1445390627748 62.87821320128842 569.1460569723458 62.878497118130326 572.147574882023 C62.882770493913085 618.3770993025264 62.87855403514527 664.6066038385675 62.84979248046875 710.8361206054688 C62.84917405272495 711.830404900682 62.84855562498092 712.8246891958952 62.84791845700238 713.8491033182363 C62.83789581299607 729.8803267712417 62.82716188818222 745.9115497482267 62.816333583323285 761.942772674025 C62.78516275981406 808.1069962538286 62.759234984976956 854.2711956972348 62.768144607543945 900.4354314804077 C62.76832519048935 901.384384757019 62.76850577343498 902.3333380336303 62.76869182859082 903.3110474701389 C62.77275018788919 924.1408443629737 62.77951460872191 944.9706394655054 62.78884269093396 965.8004346374364 C62.79254806640256 974.1811290499859 62.79586374379164 982.5618236085529 62.79904556274414 990.9425182342529 C62.79940320306332 991.8597594598918 62.79976084338273 992.777000685531 62.800129321287386 993.7220370998257 C62.8114662964349 1023.2955144143466 62.79105675412143 1052.8688656928505 62.7540604902897 1082.442318898975 C62.71694990014362 1112.2229927624755 62.710841711896364 1142.003497601498 62.74805841984926 1171.7841765235935 C62.75318925068473 1175.8960947354942 62.757963144595806 1180.0080132906955 62.762521743774414 1184.1199321746826 C62.76342829398459 1184.9260115109425 62.764334844194764 1185.7320908472022 62.76526886562351 1186.5625968300155 C62.77871913026797 1199.345554758232 62.75847685072927 1212.1282306825444 62.72429897024995 1224.911140690354 C62.69140970966669 1237.4695423040985 62.6939146250661 1250.0275173423186 62.73450141446665 1262.5859011483844 C62.755244998829994 1269.3088877860134 62.75878610364248 1276.0307302141196 62.71921335160732 1282.7537198737264 C62.68356189319047 1288.8625283366755 62.69338784687557 1294.969460630195 62.740460842847824 1301.0781763158739 C62.74929768606489 1303.2814583201325 62.741149240911 1305.4848858783043 62.714509293437004 1307.688024546951 C62.52902100717165 1324.1267186983648 62.52902100717165 1324.1267186983648 66.18189145624638 1328.7786232754588 C68.73611413404888 1330.5943523066378 71.11786513511652 1331.798211703318 74 1333 C85.85331757610015 1341.3357120840901 94.44480105323464 1356.2674640682942 97.52734375 1370.27734375 C100.01052251309784 1389.8349417767129 97.94977769391062 1407.2304585711368 87 1424 C84.21465325981217 1427.5768661375794 81.22912788519761 1430.821414986049 78 1434 C77.35160156250004 1434.647109375 76.70320312500007 1435.29421875 76.03515625 1435.9609375 C63.68257519645567 1447.5304305930947 46.9645953864142 1452.877948369793 30.265625 1453.03515625 C10.701188240184365 1452.2030588359414 -6.101292916745706 1444.8710086329759 -19.529296875 1430.662109375 C-32.29914973343125 1416.23031019502 -36.985389921794194 1398.2847170266473 -36.1748046875 1379.26806640625 C-34.729170258892964 1360.5111615993237 -25.339799675540917 1344.9923234795276 -11.46875 1332.76953125 C-7.620445292322074 1329.6588182779603 -4.6878710970543125 1327.8751484388217 0 1326 C0 888.4200000000001 0 450.8399999999999 0 0 Z " fill="#BD03F7" transform="translate(1217,534)"/>
</svg>
