<?xml version="1.0" encoding="UTF-8"?>
<!-- Generator: visioncortex VTracer 0.6.12 -->
<svg version="1.1" xmlns="http://www.w3.org/2000/svg" width="601" height="601">
<path d="M0 0 C0.6579254150390739 -0.006571197509771309 1.3158508300781193 -0.013142395019542619 1.99371337890625 -0.0199127197265625 C4.156780529187415 -0.03950908670262265 6.319778357095004 -0.05128375409969976 8.48291015625 -0.061279296875 C9.229716682434088 -0.06535482406616211 9.976523208618175 -0.06943035125732422 10.745960235595703 -0.07362937927246094 C14.706613827267404 -0.09444207441879371 18.667233373026875 -0.10875886557425929 22.6279296875 -0.1181640625 C26.673253292015033 -0.12915898253021396 30.71801628224685 -0.16349125966547717 34.76314353942871 -0.20333576202392578 C37.91204686833447 -0.22978118619516863 41.06082288325905 -0.23788073983749314 44.2098274230957 -0.24144554138183594 C45.69824593172402 -0.2462476971743115 47.186661323537436 -0.2576736260620862 48.67496871948242 -0.27648353576660156 C68.17596779376328 -0.5074339331735018 86.64989978985966 4.180349763609058 101.087890625 17.989990234375 C114.70315839260326 31.559026192920157 122.046302148824 47.98392239872021 122.26722717285156 67.277099609375 C122.27009751770737 69.21508706305474 122.26753266003783 71.15308764115915 122.260498046875 73.091064453125 C122.26064407348633 74.15537185668944 122.26079010009767 75.21967926025391 122.26094055175781 76.31623840332031 C122.26024747909184 79.81151411944745 122.25248352490274 83.30673561957835 122.24462890625 86.802001953125 C122.2427625759729 89.2343747038978 122.24133968735077 91.66674783191564 122.24034118652344 94.09912109375 C122.23653295191656 100.48428393151619 122.22671717127378 106.86942382861764 122.21563720703125 113.25457763671875 C122.20538662192331 119.77689300266962 122.20083576073068 126.29921209447639 122.19580078125 132.821533203125 C122.18509334109552 145.60669920959162 122.1682310193022 158.39184935795345 122.14697265625 171.177001953125 C122.82969238281248 171.15742431640626 123.51241210937496 171.13784667968753 124.2158203125 171.11767578125 C125.11349121093747 171.10244873046872 126.011162109375 171.0872216796875 126.93603515625 171.071533203125 C127.8250048828125 171.05195556640626 128.713974609375 171.03237792968753 129.6298828125 171.01220703125 C134.59055045831877 171.33698401097138 137.27580725631822 174.21165650995738 140.45947265625 177.739501953125 C144.3436824769899 183.35002724974925 143.40788043135944 189.85759198373108 143.45947265625 196.427001953125 C143.4884765625 197.642587890625 143.51748046875002 198.85817382812502 143.54736328125 200.110595703125 C143.59631269790918 207.01622879181662 143.45327836403658 211.6469618895286 139.14697265625 217.177001953125 C129.66234250358474 224.53242941845724 125.45349820044771 222.177001953125 111.14697265625 222.177001953125 C111.14697265625 241.64700195312503 111.14697265625 261.117001953125 111.14697265625 281.177001953125 C139.85697265625004 281.177001953125 168.56697265625002 281.177001953125 198.14697265625 281.177001953125 C198.14697265625 261.707001953125 198.14697265625 242.237001953125 198.14697265625 222.177001953125 C192.20697265625 222.177001953125 186.26697265625 222.177001953125 180.14697265625 222.177001953125 C172.22475583563744 218.7817661728625 172.22475583563744 218.7817661728625 169.77197265625 215.739501953125 C169.28986328125 215.16329101562496 168.80775390625 214.58708007812504 168.31103515625 213.993408203125 C165.10109500512579 208.98460897402174 165.9256611520285 202.64318473699956 165.89697265625 196.927001953125 C165.88666015625 196.42104492187502 165.88666015625 196.42104492187502 165.83447265625 193.860595703125 C165.80067344414567 187.34579757001603 165.9183001150036 180.7210875424222 170.56396484375 175.62158203125 C174.7388960966199 171.97656571069223 177.92773296599597 171.04428455455025 183.33447265625 171.114501953125 C184.23552734375 171.123525390625 185.13658203125 171.13254882812498 186.06494140625 171.141845703125 C186.40847656250003 171.147646484375 186.40847656250003 171.147646484375 188.14697265625 171.177001953125 C188.143285484314 170.59814963340762 188.13959831237793 170.01929731369017 188.13579940795898 169.4229040145874 C188.04707421877015 155.27258538321848 187.9810824796607 141.12230897813686 187.93972396850586 126.97177028656006 C187.91918650277137 120.12837609626234 187.8912370991339 113.28516872296831 187.84521484375 106.44189453125 C187.80075879844264 99.82829808855274 187.77778332603248 93.21484358337571 187.76746368408203 86.6010913848877 C187.76011661348417 84.08752465228747 187.74577044860246 81.57396757602936 187.72405242919922 79.06048393249512 C187.53200854379645 55.89739897831291 189.98713212669253 37.997303160948945 206.14697265625 20.177001953125 C218.75804611232627 7.383489821373104 234.94189240205475 0.15040088763251447 253 0 C253.65792541503907 -0.006571197509771309 254.31585083007815 -0.013142395019542619 254.99371337890625 -0.0199127197265625 C257.1567805291874 -0.03950908670262265 259.3197783570951 -0.05128375409969976 261.48291015625 -0.061279296875 C262.22971668243406 -0.06535482406616211 262.9765232086182 -0.06943035125732422 263.7459602355957 -0.07362937927246094 C267.7066138272672 -0.09444207441879371 271.66723337302705 -0.10875886557425929 275.6279296875 -0.1181640625 C279.67325329201503 -0.12915898253021396 283.7180162822469 -0.16349125966547717 287.7631435394287 -0.20333576202392578 C290.9120468683345 -0.22978118619516863 294.0608228832591 -0.23788073983749314 297.2098274230957 -0.24144554138183594 C298.69824593172405 -0.2462476971743115 300.18666132353746 -0.2576736260620862 301.6749687194824 -0.27648353576660156 C321.16298289752615 -0.5072801530038475 339.67744521371543 4.168204097201993 354.090087890625 17.99658203125 C369.63209092820443 33.52277160126536 375.2385221199829 51.492449682975035 375.2713928222656 73.14810180664063 C375.26779754638665 74.10332733154297 375.2642022705079 75.05855285644532 375.260498046875 76.042724609375 C375.26064407348633 77.0780633544922 375.26079010009767 78.11340209960937 375.2609405517578 79.18011474609375 C375.2602496274196 82.56712006906412 375.2524959932074 85.95406885968887 375.24462890625 89.341064453125 C375.24276180897755 91.70331797249722 375.241339283293 94.06557188135378 375.24034118652344 96.42782592773438 C375.2365389869011 102.61896856047827 375.2267284884308 108.81008741018405 375.21563720703125 115.001220703125 C375.20537352038946 121.32934243145615 375.2008329763504 127.65746803481113 375.19580078125 133.985595703125 C375.18510400789387 146.38274151893086 375.1680554013774 158.7798697514612 375.14697265625 171.177001953125 C375.8296923828125 171.15742431640626 376.51241210937496 171.13784667968753 377.2158203125 171.11767578125 C378.1134912109376 171.10244873046872 379.01116210937494 171.0872216796875 379.93603515625 171.071533203125 C380.82500488281244 171.05195556640626 381.713974609375 171.03237792968753 382.6298828125 171.01220703125 C387.59055045831883 171.33698401097138 390.2758072563182 174.21165650995738 393.45947265625 177.739501953125 C397.2589315406958 183.22760923065778 396.40675098899885 189.4359733263001 396.45947265625 195.864501953125 C396.48847656249995 197.02401367187497 396.51748046875 198.183525390625 396.54736328125 199.378173828125 C396.599824341959 206.47655888867018 396.06397838689736 211.18877376778278 392.14697265625 217.177001953125 C382.845403989239 224.58029130033782 378.08891875374957 222.177001953125 364.14697265625 222.177001953125 C364.14697265625 241.64700195312503 364.14697265625 261.117001953125 364.14697265625 281.177001953125 C374.37697265625 281.177001953125 384.60697265625004 281.177001953125 395.14697265625 281.177001953125 C395.14697265625 286.457001953125 395.14697265625 291.737001953125 395.14697265625 297.177001953125 C236.41697265624998 297.177001953125 77.68697265624996 297.177001953125 -85.85302734375 297.177001953125 C-85.85302734375 291.897001953125 -85.85302734375 286.617001953125 -85.85302734375 281.177001953125 C-75.62302734375 281.177001953125 -65.39302734374999 281.177001953125 -54.85302734375 281.177001953125 C-54.85302734375 261.707001953125 -54.85302734375 242.237001953125 -54.85302734375 222.177001953125 C-60.79302734375 222.177001953125 -66.73302734375 222.177001953125 -72.85302734375 222.177001953125 C-79.74872161851486 219.22170440679724 -82.56657948159703 217.7498976774309 -85.85302734375 211.177001953125 C-86.1346918210215 206.98590583878752 -86.16674635036583 202.79302933800437 -86.203125 198.59326171875 C-86.2196226185794 197.19953643150774 -86.24683119454915 195.8058935824057 -86.28515625 194.41259765625 C-86.64181199972899 181.3667506020327 -86.64181199972899 181.3667506020327 -83.49755859375 176.841064453125 C-80.01238158015583 173.33014757975536 -77.41656319818514 171.28293318677936 -72.342041015625 171.0732421875 C-71.89719360351563 171.07940551757815 -71.89719360351563 171.07940551757815 -69.64599609375 171.110595703125 C-68.74776123046875 171.12018310546875 -67.84952636718751 171.1297705078125 -66.924072265625 171.1396484375 C-66.24062744140625 171.15197509765625 -65.5571826171875 171.1643017578125 -64.85302734375 171.177001953125 C-64.85671451568604 170.6033033657074 -64.86040168762207 170.0296047782898 -64.86420059204102 169.43852138519287 C-64.95293059509281 155.413381310491 -65.0189198195583 141.38828384979377 -65.06027603149414 127.36292171478271 C-65.08081242012295 120.58006075187097 -65.10875969031852 113.79738830748624 -65.15478515625 107.0146484375 C-65.19924528287366 100.4594094299803 -65.22221749585869 93.90429204339333 -65.23253631591797 87.34890937805176 C-65.23988270315442 84.85767106100877 -65.25422749901207 82.36644247297781 -65.27594757080078 79.87528800964355 C-65.46750865802932 56.977593354713946 -63.05493768138729 37.77614125565947 -46.85302734375 20.177001953125 C-34.22601243922358 7.390151416895719 -18.07053630533474 0.1505044028327518 0 0 Z M-35.85302734375 32.177001953125 C-43.33249805608594 41.15548976020884 -48.986611395240914 52.15361207471159 -48.97328186035156 64.03022766113281 C-48.97465935707092 64.97752652168273 -48.976036853790276 65.92482538223265 -48.97745609283447 66.90083026885986 C-48.973857984542846 67.93209631919859 -48.97025987625122 68.96336236953735 -48.966552734375 70.02587890625 C-48.96667326927185 71.13664637565614 -48.9667938041687 72.24741384506225 -48.966917991638184 73.39184093475342 C-48.96617233440335 76.98300881249631 -48.95855984008034 80.57412462340932 -48.95068359375 84.165283203125 C-48.949213101218845 86.38415501935674 -48.94819305133939 88.60302718154145 -48.9476318359375 90.8218994140625 C-48.94239139221128 99.04443888772423 -48.928430178112265 107.26697093311412 -48.91552734375 115.489501953125 C-48.894902343750005 133.86637695312498 -48.87427734375001 152.24325195312497 -48.85302734375 171.177001953125 C2.2969726562500057 171.177001953125 53.44697265625001 171.177001953125 106.14697265625 171.177001953125 C106.20884765624999 153.645751953125 106.27072265625 136.114501953125 106.33447265625 118.052001953125 C106.36178466796875 112.54109863281252 106.3890966796875 107.03019531249998 106.417236328125 101.352294921875 C106.4307861328125 94.56005859375375 106.4307861328125 94.56005859375375 106.43330383300781 91.36819458007813 C106.43787426204025 89.16545792111125 106.44834908398639 86.96272819736464 106.46369934082031 84.76004028320313 C106.60243032227925 63.78216662943578 105.75367279633318 46.47168604719258 90.56103515625 30.466064453125 C80.33163423493585 20.766341249419355 68.67579628531195 16.10146895896773 54.59765625 16.015869140625 C53.31547210693361 16.00626159667968 52.03328796386717 15.996654052734385 50.712249755859375 15.98675537109375 C49.32330505813243 15.981904913748508 47.93435826172956 15.977626695116868 46.54541015625 15.973876953125 C46.191575717926014 15.972463264465318 46.191575717926014 15.972463264465318 44.40095901489258 15.965309143066406 C40.652393423670475 15.950359559125047 36.90386586360654 15.941104664818766 33.1552734375 15.936767578125 C29.315915765435477 15.931303596618278 25.4769164152859 15.907307677834694 21.637670516967773 15.878795623779297 C18.657064224920845 15.860011222079038 15.676541328590929 15.854955230823663 12.695880889892578 15.853431701660156 C11.28232499996534 15.850437756419097 9.8687693953309 15.84252198812905 8.455272674560547 15.829246520996094 C-8.588148549088828 15.680659563528991 -23.848168719902574 19.356526607487524 -35.85302734375 32.177001953125 Z M216.14697265625 33.177001953125 C209.6864211600597 41.71004719660803 204.01456397779003 52.009191339140045 204.02671813964844 62.94793701171875 C204.02534064292905 63.90225490570069 204.02396314620972 64.85657279968262 204.02254390716553 65.83980941772461 C204.02614201545714 66.88404193878173 204.02974012374875 67.92827445983886 204.033447265625 69.004150390625 C204.03332673072816 70.12470951080323 204.03320619583133 71.24526863098146 204.03308200836182 72.39978408813477 C204.03382866836785 76.02866853515997 204.04144574503766 79.65750168756853 204.04931640625 83.286376953125 C204.05078658799346 85.52612279536623 204.05180682926493 87.7658689799581 204.0523681640625 90.005615234375 C204.0576122090248 98.31274937841607 204.07157339260976 106.61987616883005 204.08447265625 114.927001953125 C204.10509765625 133.489501953125 204.12572265625 152.052001953125 204.14697265625 171.177001953125 C255.29697265624998 171.177001953125 306.44697265625 171.177001953125 359.14697265625 171.177001953125 C359.18822265625 154.120126953125 359.22947265625 137.06325195312502 359.27197265625 119.489501953125 C359.2901806640625 114.12611572265627 359.30838867187504 108.76272949218753 359.3271484375 103.23681640625 C359.336181640625 96.63049316407847 359.336181640625 96.63049316407847 359.3378601074219 93.52677917480469 C359.3409086576365 91.38317532304669 359.3478952727372 89.23957465802263 359.3581237792969 87.09599304199219 C359.45715727975687 65.22702491576814 358.89970736929286 46.819619500541194 343.15478515625 30.055908203125 C330.7408674353377 18.028504403926064 315.7950930296879 15.857396308014188 299.25244140625 15.876220703125 C297.81431456292376 15.872323423925423 296.3761888509124 15.867986670741374 294.9380645751953 15.863235473632813 C291.9349900035318 15.855810699765982 288.9320330643895 15.856036679030922 285.928955078125 15.861328125 C282.11319216129874 15.867110967420018 278.2979165229594 15.850202491910693 274.48223400115967 15.826983451843262 C271.51448329971174 15.812126074935406 268.54684663993623 15.811390668152029 265.579065322876 15.814493179321289 C264.1738927184033 15.813985746170658 262.76871272652 15.808858885252477 261.3635768890381 15.798681259155273 C243.70917384337127 15.686495905786273 228.38664267441152 19.780463313209083 216.14697265625 33.177001953125 Z M-69.85302734375 187.177001953125 C-69.85302734375 193.44700195312498 -69.85302734375 199.71700195312496 -69.85302734375 206.177001953125 C-44.31507336938584 206.20011787244204 -18.77712190120961 206.21797959586007 6.76084041595459 206.22881412506104 C18.61766350169239 206.23397774485716 30.474479981537115 206.24102169364437 42.331298828125 206.25244140625 C52.66167424436014 206.26238623387246 62.992044878424224 206.26885489883574 73.32242494821548 206.27109044790268 C78.79590322471694 206.27239789800842 84.26936781607824 206.2754859070218 89.74284172058105 206.2827320098877 C94.8882936266975 206.28948905561742 100.0337261314805 206.29161956228677 105.1791820526123 206.2901096343994 C107.07351791600408 206.2903861055098 108.96785438849847 206.29239309076377 110.86218643188477 206.29620742797852 C113.43674866768652 206.30113975381778 116.01123642175833 206.30000196018136 118.58580017089844 206.29725646972656 C118.96565668314696 206.29871289044615 118.96565668314696 206.29871289044615 120.88796085119247 206.3060832619667 C126.0328514455656 206.2911231638094 126.0328514455656 206.2911231638094 127.14697265625 205.177001953125 C127.14697265625 199.237001953125 127.14697265625 193.297001953125 127.14697265625 187.177001953125 C62.13697265625001 187.177001953125 -2.8730273437500102 187.177001953125 -69.85302734375 187.177001953125 Z M182.14697265625 188.177001953125 C182.04710290803905 191.02035243160088 182.00819384347682 193.8339735842536 182.02197265625 196.677001953125 C182.01810546874998 197.47493164062496 182.01423828125002 198.27286132812503 182.01025390625 199.094970703125 C182.0203649819303 205.05039427880524 182.0203649819303 205.05039427880524 183.14697265625 206.177001953125 C185.6740289609122 206.2769647768339 188.173817798362 206.3114139733717 190.701416015625 206.30398559570313 C191.1016785764694 206.30476559102533 191.1016785764694 206.30476559102533 193.1272497177124 206.30871284008026 C195.83045691488115 206.31272612921742 198.53360871443795 206.3095319341195 201.23681640625 206.306396484375 C203.16635165521154 206.30775037982755 205.09588664593264 206.30953024492237 207.02542114257813 206.31170654296875 C212.28146619901935 206.3162822750313 217.53749172271324 206.31449074407385 222.79353713989258 206.31132745742798 C228.28105982082724 206.30880457437917 233.76858077264234 206.3111411924409 239.256103515625 206.31271362304688 C248.4733103624269 206.314535529993 257.690509209983 206.31212845815548 266.90771484375 206.307373046875 C277.58057388085234 206.30193038783477 288.25341381832595 206.30369302951306 298.92627239227295 206.3091994524002 C308.07188169192733 206.31372998363952 317.2174852248768 206.3143814260319 326.3630952835083 206.3117607831955 C331.833202370199 206.31019767709523 337.30330046505827 206.31000515502774 342.7734069824219 206.31329727172852 C347.91477227726796 206.31617511787965 353.05611282618406 206.3142018943053 358.1974754333496 206.30840301513672 C360.0901980977114 206.3070749499409 361.98292282674754 206.30747031244982 363.8756446838379 206.30966567993164 C366.44796816678263 206.312375375224 369.02021102993297 206.30899829589487 371.592529296875 206.30398559570313 C371.97204474926 206.30510095655916 371.97204474926 206.30510095655916 373.89262294769287 206.3107453584671 C379.03282280860753 206.29115180076747 379.03282280860753 206.29115180076747 380.14697265625 205.177001953125 C380.23329139957673 203.834327823055 380.2540373889881 202.4872587346738 380.24462890625 201.141845703125 C380.24140624999995 200.332958984375 380.23818359375 199.52407226562502 380.23486328125 198.690673828125 C380.22648437500004 197.84053710937496 380.21810546874997 196.99040039062504 380.20947265625 196.114501953125 C380.20721679687495 195.6875 380.20721679687495 195.6875 380.19580078125 193.526611328125 C380.1839763901353 191.41004531858 380.16604034228226 189.29351510270283 380.14697265625 187.177001953125 C354.4786352172389 187.15367609995656 328.8102993586948 187.13602432413722 303.14195346832275 187.12518978118896 C291.22459624162 187.12002615541326 279.3072455872286 187.11298219528533 267.389892578125 187.1015625 C257.0067794492493 187.0916176905978 246.62367107823252 187.08514901177688 236.2405533194542 187.08291345834732 C230.7391293961163 187.08160600513622 225.23771908834692 187.0785179765893 219.7362995147705 187.0712718963623 C214.56458280824194 187.0645148793501 209.3928854044883 187.062384338078 204.22116470336914 187.0638942718506 C202.31715350158498 187.06361779944075 200.4131416938294 187.0616107973313 198.50913429260254 187.05779647827148 C195.92143499826108 187.05286419746835 193.33380980858794 187.0540019295927 190.74610900878906 187.05674743652344 C189.98250503599644 187.0538345950842 189.21890106320382 187.05092175364496 188.43215757608414 187.0479206442833 C183.2610938669344 187.0628807424406 183.2610938669344 187.0628807424406 182.14697265625 188.177001953125 Z M-38.85302734375 222.177001953125 C-38.85302734375 241.64700195312503 -38.85302734375 261.117001953125 -38.85302734375 281.177001953125 C5.366972656249999 281.177001953125 49.58697265625 281.177001953125 95.14697265625 281.177001953125 C95.14697265625 261.707001953125 95.14697265625 242.237001953125 95.14697265625 222.177001953125 C50.92697265625 222.177001953125 6.706972656250002 222.177001953125 -38.85302734375 222.177001953125 Z M214.14697265625 222.177001953125 C214.14697265625 241.64700195312503 214.14697265625 261.117001953125 214.14697265625 281.177001953125 C258.36697265625 281.177001953125 302.58697265625 281.177001953125 348.14697265625 281.177001953125 C348.14697265625 261.707001953125 348.14697265625 242.237001953125 348.14697265625 222.177001953125 C303.92697265625 222.177001953125 259.70697265625 222.177001953125 214.14697265625 222.177001953125 Z " fill="#FFFFFF" transform="translate(145.85302734375,151.822998046875)"/>
</svg>
