<?xml version="1.0" encoding="UTF-8"?>
<!-- Generator: visioncortex VTracer 0.6.12 -->
<svg version="1.1" xmlns="http://www.w3.org/2000/svg" width="600" height="600">
<path d="M0 0 C0.5101968383789028 -0.002855072021489491 0.5101968383789028 -0.002855072021489491 3.09210205078125 -0.017303466796875 C4.200776367187501 -0.01842132568359034 5.309450683593752 -0.01953918457030568 6.45172119140625 -0.02069091796875 C7.039825744628899 -0.023173370361334378 7.039825744628899 -0.023173370361334378 10.0159912109375 -0.035736083984375 C13.235210916565265 -0.04781929750248537 16.454394363575503 -0.055296289343417016 19.673632621765137 -0.059746742248535156 C21.68837192395918 -0.06268500015391965 23.70310563186942 -0.06679122565419959 25.71784210205078 -0.07125091552734375 C32.031636191345655 -0.08491448831782122 38.34541738139359 -0.0945864965047889 44.65922522544861 -0.09845280647277832 C51.928692123128954 -0.10292974200619653 59.1979706401098 -0.1204653404984839 66.46738028526306 -0.14945340156555176 C72.09900152750555 -0.17112498697233036 77.73056998059417 -0.1811600114858578 83.36223244667053 -0.1824939250946045 C86.71995077985179 -0.18353813242786998 90.0773512823202 -0.19082693055582922 93.43505096435547 -0.20731353759765625 C97.1855435708813 -0.22441415173213386 100.93558015306246 -0.22248358441511584 104.68609619140625 -0.21600341796875 C105.78667358398437 -0.22521820068359943 106.88725097656251 -0.23443298339843466 108.02117919921875 -0.243927001953125 C117.26243411953811 -0.19404107654229108 124.79294383595044 1.5671818005425706 132.10113525390625 7.39044189453125 C136.95112110948492 12.306264662176602 138.9524201812926 18.798267264823608 138.95353889465332 25.561233520507813 C138.95614664196967 26.69397673606872 138.95875438928604 27.826719951629627 138.96144115924835 28.993788719177246 C138.95921043753623 30.243671083450323 138.95697971582413 31.4935534477234 138.95468139648438 32.78131103515625 C138.95583301303094 34.11819787373366 138.95742081139988 35.455084396263885 138.9594086408615 36.79197025299072 C138.96359638004125 40.47351883053554 138.96151375756398 44.155041600113634 138.95842242240906 47.83659029006958 C138.9561663012872 51.803913973008065 138.95964900073724 55.77123311758362 138.96240234375 59.738555908203125 C138.9668567402067 67.51365993872508 138.96588503322963 75.28875433415874 138.96298970282078 83.0638587474823 C138.96073437995528 89.38098272878665 138.9604237102841 95.6981040034251 138.9615135192871 102.01522827148438 C138.9616667523235 102.91317267477513 138.9618199853599 103.81111707806588 138.96197786182165 104.73627191781998 C138.9622975763747 106.5602381237313 138.96262178934396 108.38420432885954 138.9629504531622 110.20817053318024 C138.96580427697867 127.32492046482588 138.96251974647276 144.44166504715946 138.95715008676052 161.55841410160065 C138.95268213664693 176.2560067749668 138.9534580965008 190.95359155120536 138.95806884765625 205.65118408203125 C138.9634163261358 222.7052940254831 138.96552959548026 239.7593992764654 138.96245658397675 256.8135099411011 C138.9621380235634 258.63089179919444 138.96182365312126 260.44827365802723 138.9615135192871 262.2656555175781 C138.9613592437655 263.1599201446772 138.96120496824383 264.0541847717762 138.9610460177064 264.97554832696915 C138.96018138479383 271.2875228624985 138.96164258954383 277.5994944299272 138.96399307250977 283.9114685058594 C138.96679318989274 291.6001460367031 138.96604831063442 299.28881335416753 138.9607123285532 306.9774897098541 C138.9580781927916 310.9028544414404 138.9570654173814 314.82820212371837 138.9603614807129 318.75356674194336 C138.96333031965008 322.34343642050874 138.96172173868226 325.9332731647622 138.95638392865658 329.523139834404 C138.95472887301452 331.4444582729112 138.95801209932773 333.36577897852885 138.96144115924835 335.28709506988525 C138.958833411932 336.4198382854462 138.95622566461563 337.55258150100707 138.95353889465332 338.7196502685547 C138.95337654232978 339.7011199855804 138.95321419000626 340.6825897026062 138.95304691791534 341.6938009262085 C138.82769775390625 344.1404418945313 138.82769775390625 344.1404418945313 137.82769775390625 347.14044189453125 C143.76769775390625 347.14044189453125 149.70769775390625 347.14044189453125 155.82769775390625 347.14044189453125 C155.49769775390624 346.15044189453124 155.16769775390625 345.16044189453123 154.82769775390625 344.14044189453125 C154.7310207020452 342.3438869612137 154.69318237662839 340.54393656154383 154.6878900527954 338.7447900772095 C154.68219881117344 337.6175971513987 154.67650756955146 336.49040422558784 154.67064386606216 335.3290539383888 C154.6694639891386 334.08531065165994 154.66828411221505 332.8415673649311 154.6670684814453 331.5601348876953 C154.66198066174985 330.24296743810174 154.65689284205436 328.92579998850823 154.6516508460045 327.5687183737755 C154.63773399332717 323.9045571461881 154.63015808175987 320.240405863 154.6236778497696 316.57622492313385 C154.6173092771618 313.4351772658921 154.60723873990895 310.29414595731913 154.59711719304323 307.15310848504305 C154.56377998678178 296.80224155416414 154.54226727795 286.45136466959076 154.52391734719276 276.1004616320133 C154.51912225669662 273.4046100600634 154.51413892803538 270.70875889244786 154.50911211967468 268.012907743454 C154.47813649171175 251.26952354528544 154.45145262706788 234.52613588484508 154.43469333648682 217.78273105621338 C154.4307438632796 213.9036769238378 154.42674087239723 210.02462285296053 154.42266845703125 206.14556884765625 C154.4216600959748 205.181453891322 154.42065173491835 204.21733893498777 154.41961281746626 203.22400837391615 C154.4026160217907 187.6155657174536 154.36151897579725 172.00728189056656 154.31064546853304 156.39891672879457 C154.25883374514737 140.37066840115614 154.2297462218016 124.342501661119 154.22249644994736 108.31417030096054 C154.21783822527004 99.31632782666898 154.20312961660085 90.31874526563558 154.16275215148926 81.32098579406738 C154.1283952978378 73.65554793818691 154.1145355504822 65.99041689424212 154.12717629224062 58.324906475842 C154.13299036748316 54.41641082586267 154.1292289866103 50.508563559980416 154.09900665283203 46.60016632080078 C154.07151144980588 43.015029263446735 154.07224029056556 39.43099707784435 154.09451710432768 35.845834009349346 C154.09922935793463 33.94900679946517 154.074579544779 32.052174926417706 154.04854780435562 30.155520498752594 C154.14035776450757 21.746511526900974 155.98951926181576 15.112488963146149 160.82769775390625 8.14044189453125 C166.4510476205292 3.186299360958813 172.65594840533024 -0.10210656985536559 180.23797798156738 -0.12241363525390625 C180.777748375535 -0.1262547802925127 180.777748375535 -0.1262547802925127 183.5093137025833 -0.14569330215454102 C184.68954920172692 -0.14396033763885896 185.86978470087053 -0.1422273731231627 187.08578491210938 -0.14044189453125 C188.3441134917736 -0.14638413906097014 189.60244207143785 -0.1523263835907045 190.8989018201828 -0.1584486961364746 C194.38947110986015 -0.1745632460704769 197.87995808738503 -0.17816640431891528 201.37056016921997 -0.1796436309814453 C205.13624807146726 -0.18334925167992822 208.9018934823563 -0.19844629940213565 212.6675567626953 -0.2119140625 C220.90120182641363 -0.23906457272688897 229.13482739171099 -0.25112787221404176 237.3685097694397 -0.2599353790283203 C242.5116774824155 -0.26546348648983553 247.65483769429977 -0.27393884222036036 252.79800033569336 -0.2829437255859375 C267.04339945644193 -0.3073279526497146 281.2887925733865 -0.3279261540218812 295.53421211242676 -0.33469390869140625 C296.44576120130716 -0.33513304084539186 297.35731029018757 -0.33557217299937747 298.29648207873106 -0.33602461218833923 C299.21019045449793 -0.33646116763353007 300.1238988302648 -0.3368977230787209 301.0652953386307 -0.33734750747680664 C302.91676020919806 -0.3382344336935432 304.76822507680544 -0.3391275603467818 306.61968994140625 -0.34002685546875 C307.53807698354126 -0.34046971499920176 308.45646402567627 -0.3409125745296535 309.402680978179 -0.3413688540458679 C324.2777331484632 -0.34926178890938786 339.15258918096526 -0.38416093233709603 354.027565613389 -0.4307458996772766 C369.3066824994418 -0.4782094477439074 384.5857010524744 -0.5030992971807393 399.86489284038544 -0.505429744720459 C408.4406883224097 -0.5072613373313857 417.01622830067294 -0.5187171236131007 425.5919532775879 -0.5550689697265625 C432.89580076022224 -0.5859206591140236 440.1993137954166 -0.5960831088676315 447.5032140761614 -0.579592764377594 C451.22730369239434 -0.5717965339889446 454.9507203491428 -0.573553488274996 458.67472648620605 -0.6017074584960938 C462.7195360441983 -0.6320059446799178 466.7628396477144 -0.615403519901335 470.8077087402344 -0.59454345703125 C471.9745599091053 -0.6106562662124588 473.1414110779763 -0.6267690753936819 474.3436213731766 -0.6433701515197754 C483.4281165262528 -0.5340456378445708 490.6782170596704 2.0973581411732596 497.26519775390625 8.51544189453125 C497.78082275390625 9.381691894531258 498.29644775390625 10.247941894531237 498.82769775390625 11.14044189453125 C499.50944816589356 12.240730066299449 500.19119857788087 13.341018238067619 500.8936080932617 14.474648475646973 C503.7364556226229 20.250379083886855 503.3811259699537 26.101015049277123 503.33563232421875 32.41813659667969 C503.34024617410194 33.76331857801529 503.34660233908835 35.10849551144861 503.3545413017273 36.45366197824478 C503.3711918410795 40.135263075614375 503.3630080035351 43.81644778163732 503.3505964279175 47.49805009365082 C503.3415305250859 51.47428881600507 503.3555233406951 55.45045691360065 503.36651611328125 59.42668151855469 C503.38429001517693 67.21051272493457 503.38046626207836 74.99418952921818 503.36886554956436 82.7780267521739 C503.3598264035786 89.10547982985292 503.35860931304444 95.43288968263022 503.3629608154297 101.76034736633301 C503.3635737475753 102.66143270511179 503.3641866797209 103.56251804389058 503.36481818556786 104.49090899899602 C503.3660971095238 106.32154715821252 503.36739396299515 108.15218530498896 503.36870855093 109.98282343894243 C503.3801112100866 127.14368252447011 503.3670059139607 144.30445610268242 503.34550708532333 161.4653011634946 C503.32763942923646 176.1831480679154 503.3307380750316 190.90086875656965 503.34918212890625 205.61871337890625 C503.37059963393835 222.71725163182316 503.37900940137047 239.81571494449565 503.36673307418823 256.9142647385597 C503.3654589041731 258.7384166998661 503.3642014207751 260.56256867290614 503.3629608154297 262.38672065734863 C503.3623437133432 263.28419429372997 503.3617266112566 264.1816679301113 503.3610908091068 265.10633773729205 C503.3576403242305 271.4240843649088 503.3634598187332 277.7417833760564 503.3728790283203 284.0595226287842 C503.3841103019839 291.7618712996807 503.38103540446593 299.4640569609501 503.35975605249405 307.166387014091 C503.3492602981205 311.09464068570855 503.34509840029045 315.0226228077676 503.3583526611328 318.9508743286133 C503.37031347750155 322.550288332513 503.36365405830986 326.14918030212846 503.34244245290756 329.74854726344347 C503.33589120049044 331.6602226655286 503.3488796206757 333.5719345928245 503.36267137527466 335.4835714697838 C503.2866227287818 343.85740877845626 502.1050173104709 350.9279666341463 496.20269775390625 357.20294189453125 C493.82769775390625 359.14044189453125 493.82769775390625 359.14044189453125 491.82769775390625 359.14044189453125 C491.82769775390625 359.8004418945313 491.82769775390625 360.46044189453124 491.82769775390625 361.14044189453125 C485.9550019495439 365.0663367650203 480.00051158044346 364.57021811201247 473.12457275390625 364.54449462890625 C472.48521789550784 364.54792625427245 472.48521789550784 364.54792625427245 469.24969482421875 364.56529235839844 C465.7538178471177 364.58319145655236 462.2581923118132 364.5820618136958 458.7622833251953 364.5763499736786 C455.83978350601956 364.57325390520526 452.9173316915567 364.5793550879268 449.9948387145996 364.58538872003555 C443.09924047138014 364.59942115862236 436.20376615951784 364.59788290506276 429.30816650390625 364.58648681640625 C422.2018726133999 364.5750018329144 415.09595595771924 364.5890902728299 407.9897117614746 364.61588329076767 C401.8799664577392 364.6380539194952 395.77033945835495 364.6446747739033 389.6605567932129 364.6388068795204 C386.01512869189924 364.63543991755597 382.3699424883102 364.63783493696786 378.72454833984375 364.6550579071045 C374.6597307139233 364.67342567931036 370.5956455493883 364.6593261414033 366.53082275390625 364.64215087890625 C365.32752319335935 364.6518188476563 364.1242236328125 364.66148681640624 362.88446044921875 364.67144775390625 C356.5409562224325 364.61525937288366 352.65642390286786 364.3960983968449 347.82769775390625 360.14044189453125 C347.17543212890627 359.6944262695313 346.5231665039062 359.24841064453125 345.85113525390625 358.78887939453125 C340.6842972117654 354.79743578851725 338.53810947137566 350.3828407398151 336.82769775390625 344.14044189453125 C336.29247634763135 339.6354167581243 336.29953403818325 335.1836780231188 336.33995056152344 330.65106201171875 C336.33748585883046 329.307417330844 336.3332653964312 327.9637749343406 336.3274558186531 326.62014055252075 C336.31663458441506 322.9523174395278 336.3305717271316 319.2849533729763 336.34877622127533 315.6171751022339 C336.36405552097625 311.65271563619257 336.35611008306853 307.6882922075679 336.35108947753906 303.72381591796875 C336.3448772839286 295.9693233586237 336.35981862534084 288.2150098565359 336.38181509822607 280.46055167913437 C336.4065396086945 271.43203597110437 336.4094211354636 262.40355272681387 336.4112188592553 253.37500816583633 C336.4150915096631 237.27269182907236 336.43753654922284 221.17045607328333 336.47100830078125 205.06817626953125 C336.5034777008448 189.43536033984196 336.52469688824914 173.80258696012402 336.53253173828125 158.16973876953125 C336.5327744836733 157.687724506557 336.5327744836733 157.687724506557 336.53400292247534 155.24844020605087 C336.53593154528926 151.3737198127253 336.5378436769819 147.4989994119053 336.53971902653575 143.62427899241447 C336.5472436185832 128.73075396606365 336.56287032488393 113.83723593745097 336.5802156291902 98.94371947646141 C336.58545520932654 94.44212665692982 336.5903882046956 89.94053397865076 336.59457755088806 85.43894004821777 C336.60348653870426 75.97704734190563 336.6152376907745 66.515175035608 336.63614358752966 57.05330032110214 C336.6447571246286 53.14016637027893 336.65183426444725 49.227046608802425 336.65465927124023 45.31390380859375 C336.65780517739717 41.080562605729284 336.6687149906126 36.84727852132795 336.68052673339844 32.61395263671875 C336.6803423708677 31.36593226909639 336.680158008337 30.117911901474002 336.67996805906296 28.832072734832764 C336.6821969810128 28.26885509729385 336.6821969810128 28.26885509729385 336.6934766769409 25.41863250732422 C336.69526524722573 24.440577578544605 336.6970538175106 23.46252264976502 336.698896586895 22.454829692840576 C336.82769775390625 20.140441894531307 336.82769775390625 20.140441894531307 337.82769775390625 18.14044189453125 C331.88769775390625 18.14044189453125 325.94769775390625 18.14044189453125 319.82769775390625 18.14044189453125 C320.15769775390623 18.800441894531247 320.4876977539063 19.460441894531243 320.82769775390625 20.14044189453125 C320.9246268222097 21.89957734975522 320.95688264789334 23.66241671245723 320.9591255187988 25.424219131469727 C320.96296666383745 26.551887804269796 320.966807808876 27.679556477069866 320.97076535224915 28.841396927833557 C320.9698988699913 30.090781534910207 320.9690323877335 31.340166141986856 320.9681396484375 32.627410888671875 C320.9696252095699 33.286978532671924 320.9696252095699 33.286978532671924 320.9771430492401 36.62479054927826 C320.98523231171833 40.298940731523885 320.9870036934303 43.97307139976118 320.9877405166626 47.64722943305969 C320.9895877909423 51.605126496621324 320.99713358366125 55.56301335373064 321.0038757324219 59.520904541015625 C321.0174743742598 68.1822026603009 321.02348646809145 76.84349616067323 321.02788639068604 85.50480318069458 C321.03064685658956 90.91175592795958 321.0348839099783 96.31870688109834 321.03939056396484 101.72565841674805 C321.0515864175616 116.69152781536536 321.0618843326963 131.65739577331664 321.0652656555176 146.62327003479004 C321.0654852215946 147.58169334135948 321.06570478767156 148.54011664792893 321.06593100726604 149.52758308500051 C321.0661492849886 150.4883263588697 321.06636756271126 151.44906963273883 321.0665924549103 152.43892633914948 C321.0670359236537 154.38581824373284 321.0674824870489 156.33271014761374 321.06793212890625 158.27960205078125 C321.0681535586715 159.2453317503631 321.0683749884367 160.21106144994496 321.0686031281948 161.2060556858778 C321.0725499521601 176.84953957651788 321.0899990288381 192.49297684912108 321.1132916510105 208.1364427357912 C321.1370047411914 224.1917627306036 321.149467528151 240.24705933983262 321.1506335735321 256.30239713191986 C321.15155048575696 265.31904154284217 321.15730664374445 274.3356252614361 321.17545318603516 283.3522529602051 C321.1908537624786 291.0316808255659 321.1959749836626 298.71102925406603 321.1877150833607 306.39046962559223 C321.1838080965558 310.3084000042392 321.18474038302384 314.2261704159583 321.1987724304199 318.14408111572266 C321.21150884968847 321.7331003069236 321.210316262769 325.32183929040184 321.1981817185879 328.91085807979107 C321.19529913296395 330.8195920431636 321.2071626600204 332.72833083510125 321.21960377693176 334.63702642917633 C321.1690127961712 343.41438642505767 320.21452519999235 350.5809974904428 313.82769775390625 357.14044189453125 C305.090000975394 364.2626201831795 305.090000975394 364.2626201831795 298.69450759887695 364.2746629714966 C297.6004394841194 364.2791208153963 296.5063713693619 364.28357865929604 295.37914967536926 364.28817158937454 C294.16731031179427 364.2879872268438 292.9554709482193 364.2878028643131 291.7069091796875 364.28761291503906 C291.06705373167995 364.2894512590766 291.06705373167995 364.2894512590766 287.82899737358093 364.2987543940544 C284.26500401907583 364.30879093349546 280.7010275065688 364.31249383862325 277.1370220184326 364.31514370441437 C273.29777177190914 364.3190418714299 269.4585349246421 364.32862054559627 265.6192932128906 364.3373565673828 C256.3415635046808 364.3571349094319 247.06383268088388 364.36718897237824 237.7860871553421 364.3760843575001 C233.41953212787826 364.3804650611172 229.0529783189113 364.3858324371489 224.6864242553711 364.3910732269287 C210.1752052476478 364.4080869607768 195.66398700433683 364.4225817769944 181.15275955200195 364.4298219680786 C177.385551442766 364.43173193620726 173.61834333973255 364.43365225757 169.85113525390625 364.43560791015625 C168.914787081182 364.4360916503519 167.97843890845775 364.4365753905475 167.01371654868126 364.43707378953695 C151.840921768416 364.445376467367 136.66820576877 364.4707167377046 121.49544540047646 364.50318858772516 C105.92604066135922 364.5362382756686 90.35667598552979 364.5542688389005 74.7872359752655 364.5574662089348 C66.04226342841861 364.55963326047083 57.297405756550205 364.56841033436126 48.552467346191406 364.59392738342285 C41.105728360276345 364.61560587428687 33.65913214152073 364.6236989141601 26.212365180253983 364.6139606013894 C22.412096298706473 364.6094075529076 18.6121221561352 364.6113599927715 14.811893463134766 364.63072204589844 C10.693193918671838 364.65152566843847 6.575151568783113 364.64139536031894 2.4564208984375 364.62818908691406 C1.2535044217109714 364.6391583329439 0.05058794498443575 364.65012757897375 -1.1887805461883545 364.66142922639847 C-7.509884582887622 364.61232034512045 -11.363858318356293 364.38568757415567 -16.17230224609375 360.14044189453125 C-16.50423583984375 359.89423095703125 -16.50423583984375 359.89423095703125 -18.18402099609375 358.64825439453125 C-23.499335180813418 354.26219094140595 -26.045284942299396 350.00343522799545 -27.17230224609375 343.14044189453125 C-27.261557650625726 341.2743030230335 -27.30132508717086 339.4054371945143 -27.303730010986328 337.537166595459 C-27.307571156024935 336.41459166288377 -27.31141230106354 335.29201673030855 -27.315369844436646 334.13542437553406 C-27.314503362178804 332.9071332573891 -27.313636879920956 331.67884213924407 -27.312744140625 330.413330078125 C-27.31571526288986 329.10458773851394 -27.318686385154727 327.7958453989029 -27.321747541427612 326.44744420051575 C-27.329806671397684 322.81620733802043 -27.331606505851994 319.18499025485374 -27.332345008850098 315.55374550819397 C-27.334197442911474 311.6367821939727 -27.341745709564194 307.71982909911424 -27.348480224609375 303.80287170410156 C-27.362056059440505 295.23878844295876 -27.368087016608115 286.67470986801186 -27.372490882873535 278.1106176376343 C-27.375254410896886 272.76243681209934 -27.37949195289503 267.4142577914186 -27.383995056152344 262.06607818603516 C-27.396186438782152 247.25621529678153 -27.406486210091117 232.4463538522421 -27.409870147705078 217.6364860534668 C-27.409979930743575 217.1626542792469 -27.409979930743575 217.1626542792469 -27.410535499453545 214.76477833092213 C-27.41075377717614 213.8148596607149 -27.410972054898735 212.8649409905076 -27.41119694709778 211.88623690605164 C-27.411640411885422 209.96136903691308 -27.412086975232512 208.03650116848587 -27.41253662109375 206.11163330078125 C-27.412758050858976 205.15683426052328 -27.4129794806242 204.20203522026543 -27.41320762038231 203.21830287575722 C-27.41715566913932 187.74704800198737 -27.434610487472135 172.27584022692247 -27.457896143198013 156.80460354685783 C-27.481614497611197 140.91755557853844 -27.494072208769396 125.03053124085312 -27.495238065719604 109.14346528053284 C-27.49615452061132 100.22464319848243 -27.50189947002442 91.30588249742141 -27.520057678222656 82.38707733154297 C-27.535465143091365 74.79265743041583 -27.540575290450697 67.1983178837398 -27.532319575548172 59.60388532280922 C-27.52841544072738 55.73036535280488 -27.529331050638724 51.857007172573645 -27.543376922607422 47.98350715637207 C-27.558477266864998 43.780717600454636 -27.55024243427262 39.578291902554355 -27.539794921875 35.37548828125 C-27.547851326465604 34.15612004995347 -27.555907731056216 32.936751818656916 -27.564208269119263 31.68043303489685 C-27.51137563168534 22.59680540750645 -26.305631673435933 14.217360464541457 -20.17230224609375 7.14044189453125 C-13.599497832601529 2.394654301060598 -8.136794999658832 0.02739981757088117 0 0 Z M-7.17230224609375 20.14044189453125 C-11.185351952193223 25.873606810281927 -10.588017380847141 31.95982854167599 -10.546524047851563 38.67304992675781 C-10.550498453974726 39.94871698319912 -10.554472860097889 41.22438403964043 -10.558567702770233 42.53870767354965 C-10.569143619131538 46.0728776416027 -10.561032796306165 49.606794288369144 -10.549817204475403 53.14095318317413 C-10.54097013291019 56.954896025002995 -10.54942013957671 60.7688059008255 -10.555679321289063 64.58274841308594 C-10.565166134609015 72.05133467444278 -10.558568655420586 79.51982429920639 -10.546416379511356 86.98840338736773 C-10.53279407792104 95.68438632533915 -10.5344344225975 104.38034625590387 -10.5365497097373 113.07633715122938 C-10.539739378730417 128.59064516608615 -10.528072797735618 144.10490726149703 -10.50848388671875 159.61920166015625 C-10.489476545477729 174.67683307159558 -10.482397227978055 189.7344106727693 -10.48797607421875 204.79205322265625 C-10.49403227952348 221.18662383090026 -10.493859954213917 237.581170777005 -10.482490241527557 253.9757394194603 C-10.481282940911449 255.72345983890966 -10.480076955185467 257.4711802592678 -10.478872299194336 259.218900680542 C-10.478268760479992 260.078829597123 -10.477665221765633 260.93875851370393 -10.477043393999338 261.8247458823025 C-10.47316239780747 267.8878517252049 -10.473558561079741 273.950948765322 -10.475458145141602 280.0140552520752 C-10.477579055947764 287.4010533336485 -10.472363816757948 294.788004261863 -10.457844592630863 302.17498905211687 C-10.450595372457165 305.94469216323023 -10.44652808325371 309.7143265592706 -10.451087951660156 313.48403549194336 C-10.455907482692325 317.5676975412348 -10.445259935891372 321.6511710674461 -10.432998657226563 325.7348175048828 C-10.436777980923651 326.9301364475489 -10.44055730462074 328.12545539021494 -10.44445115327835 329.35699611902237 C-10.438618959784506 330.4500705879927 -10.432786766290661 331.54314505696294 -10.426777839660645 332.66934299468994 C-10.425911062359809 333.611973901391 -10.425044285058974 334.5546048080921 -10.424151241779327 335.52580028772354 C-10.048715065697095 339.42349717554794 -9.16578562940515 342.2431020644435 -6.23480224609375 344.89044189453125 C-2.9398835011743074 346.8873623459976 -0.2923089177118072 347.26738044852846 3.4759674072265625 347.2808837890625 C4.430634002685551 347.28659393310545 5.385300598144539 347.29230407714846 6.368896484375 347.2981872558594 C7.4146685791015585 347.2993051147461 8.460440673828117 347.3004229736328 9.53790283203125 347.30157470703125 C10.640610198974613 347.3065396118164 11.743317565917977 347.3115045166016 12.879440307617188 347.3166198730469 C16.53537617164355 347.33125110667896 20.19126864529855 347.3380451081351 23.84722900390625 347.34356689453125 C26.384475723920332 347.3493175277629 28.92172242782783 347.35507527145325 31.458969116210938 347.36083984375 C36.102081426906295 347.37000835584723 40.74518068782827 347.3763075696494 45.38829976320267 347.3793365955353 C52.21578802812124 347.3838154383108 59.04307590357608 347.40135645038197 65.87050324678421 347.43033719062805 C71.78916851055135 347.45458579134674 77.70778402887578 347.4622822521506 83.62650108337402 347.4640121459961 C86.14190448257858 347.46704052022795 88.65730699885415 347.47507521957664 91.17267799377441 347.48819732666016 C94.6917095732885 347.50524483074645 98.21025300295418 347.503380432055 101.72930908203125 347.49688720703125 C102.76900848388672 347.50610198974607 103.8087078857422 347.51531677246095 104.87991333007813 347.5248107910156 C114.63120664378624 347.46842518940866 114.63120664378624 347.46842518940866 118.82769775390625 344.14044189453125 C122.18218883513666 337.2818531009979 122.25413982459926 331.083085327009 122.21537780761719 323.53936767578125 C122.22076334536075 322.28044267654417 122.22614888310432 321.02151767730714 122.23169761896133 319.72444343566895 C122.24611113461577 316.2462034484434 122.24192047874504 312.7682012398624 122.23453080654144 309.28994846343994 C122.22979131380049 305.5325506364374 122.24231579063081 301.7752036727732 122.25254821777344 298.017822265625 C122.26972553623679 290.6634843953225 122.27057855368727 283.3092320039406 122.26533531397581 275.95487928390503 C122.26129084812197 269.9768687202647 122.26274045129054 263.99888338474403 122.2680835723877 258.0208740234375 C122.26883199442179 257.1694564640522 122.26958041645585 256.3180389046669 122.27035151794553 255.44082081317902 C122.27188301897368 253.71108292928 122.27342136643051 251.9813450514295 122.27496648579836 250.25160717964172 C122.28868734486221 234.03885840069051 122.28325646205465 217.8261579073028 122.2717812731862 201.6134102344513 C122.2618465037419 186.78506367431555 122.27479449864782 171.95684185054336 122.2987154647708 157.12851452827454 C122.32310359919398 141.89564248203123 122.33271521474987 126.66282854141596 122.32606273889542 111.4299373626709 C122.32257024509599 102.88062282925682 122.32480472321976 94.3314042551817 122.34231376647949 85.7821044921875 C122.3570320507099 78.5053646148971 122.35767597670602 71.22878829663443 122.34024285525084 63.952051639556885 C122.33172786429122 60.240614136414365 122.32959527580991 56.529468866257616 122.34489440917969 52.81804656982422 C122.36128368345672 48.79229930352926 122.34660087781162 44.767257702466225 122.32890319824219 40.74151611328125 C122.33850820481777 39.571863727569564 122.34811321139335 38.40221134185791 122.35800927877426 37.19711494445801 C122.29626919222585 30.378600165145087 121.4791089860476 25.946835286631 117.82769775390625 20.14044189453125 C113.42404563458499 15.930039947224941 107.62914769028163 16.71870349903162 101.89044189453125 16.75225830078125 C100.78744247436524 16.747001342773444 99.68444305419922 16.74174438476564 98.54801940917969 16.736328125 C94.90282011160812 16.723127189612313 91.2580577329872 16.731867525335645 87.61285400390625 16.74200439453125 C85.07846492707341 16.739983551794694 82.54407641677611 16.73707202797459 80.00968933105469 16.733306884765625 C74.69774300234064 16.728883263267903 69.38595306941693 16.735028876101183 64.07403564453125 16.74932861328125 C57.94198655268197 16.765646044950245 51.81023686743498 16.7603717433999 45.67819505929947 16.743849396705627 C39.769110604474946 16.728567879397076 33.86011876139918 16.73022024784268 27.951017379760742 16.738994598388672 C25.441206822569967 16.74099531121226 22.931388622483595 16.7385418681489 20.421586990356445 16.731555938720703 C16.91230194898597 16.723932435424615 13.403590504339718 16.735559581000928 9.89434814453125 16.75225830078125 C8.857790832519527 16.74618560791015 7.821233520507803 16.74011291503905 6.753265380859375 16.733856201171875 C1.4459383018879777 16.78061262362567 -2.7516545715895617 16.86239463291605 -7.17230224609375 20.14044189453125 Z M174.07769775390625 21.01544189453125 C171.87764430255623 24.755532761826316 171.70197594458574 28.168041184991864 171.69626998901367 32.45446491241455 C171.69242884397508 33.53796484291553 171.68858769893646 34.621464773416506 171.68463015556335 35.737798035144806 C171.6854966378212 36.92756580293178 171.68636312007905 38.117333570718756 171.687255859375 39.34315490722656 C171.68428473711015 40.60753487765788 171.68131361484527 41.871914848089204 171.6782524585724 43.17460936307907 C171.67018480974195 46.68654962159357 171.6683930195018 50.19846943877445 171.6676549911499 53.71041786670685 C171.6658040474729 57.4971617983513 171.65825654367285 61.28389513128883 171.65151977539063 65.07063293457031 C171.63793800988677 73.35159225214284 171.63191209377038 81.63254672726478 171.62750911712646 89.91351532936096 C171.6247466602631 95.08361237411575 171.62050932122438 100.2537075486461 171.61600494384766 105.42380332946777 C171.6038129161607 119.73694268656286 171.59351318784266 134.05008054538075 171.59012985229492 148.36322498321533 C171.58991028621793 149.27928305309263 171.58969072014094 150.19534112296998 171.58946450054646 151.13915852829814 C171.58924622282385 152.05741178933533 171.58902794510126 152.97566505037247 171.58880305290222 153.92174416780472 C171.58835958611664 155.78248520766118 171.5879130227452 157.6432262467822 171.58746337890625 159.50396728515625 C171.58724194914103 160.42695968531075 171.5870205193758 161.3499520854652 171.5867923796177 162.300913952291 C171.5828436511593 177.25949541610282 171.56538705350115 192.2180281867099 171.542103856802 207.17659083753824 C171.51839499354617 222.53249172781574 171.50592822848438 237.88836817733693 171.5047619342804 253.24428766965866 C171.50384495813265 261.8668375770683 171.49808688988847 270.48932402511707 171.47994232177734 279.1118564605713 C171.46454767589543 286.45346774829693 171.45941713476375 293.79499596215646 171.46768042445183 301.13662032037973 C171.47158907997255 304.88229579574596 171.4706469121662 308.62780394039453 171.45662307739258 312.3734588623047 C171.4415567632305 316.434686309564 171.4497441451919 320.4955361453344 171.460205078125 324.55677795410156 C171.4521486735344 325.7398535567522 171.4440922689438 326.9229291594028 171.43579173088074 328.1418555378914 C171.47257028760254 334.2326355044827 171.75680355239956 338.8130068196744 174.82769775390625 344.14044189453125 C179.9528579101182 348.06768920157873 185.7004646335594 347.5648744560379 191.87847900390625 347.52862548828125 C192.9816244506836 347.53388244628906 194.08476989746094 347.53913940429686 195.22134399414063 347.5445556640625 C198.86110672662494 347.5577394300512 202.50043071034065 347.5490229420355 206.14019775390625 347.53887939453125 C208.67315759103326 347.5409005856923 211.20611686091013 347.54381240090726 213.73907470703125 347.5475769042969 C219.04504478944375 347.55199807818315 224.35085820366237 347.54586279142313 229.65679931640625 347.53155517578125 C235.78148486410464 347.5152299772456 241.90587075852562 347.52051902947335 248.03054904937744 347.5370343923569 C253.9348301664872 347.5523150787442 259.8390185949703 347.55066420841723 265.7433166503906 347.5418891906738 C268.25033612140084 347.5398886987903 270.7573632456257 347.5423411448363 273.2643737792969 347.5493278503418 C276.76876042242515 347.5569509464587 280.27257261215726 347.5453251798203 283.77691650390625 347.52862548828125 C284.8119027709961 347.53469818115235 285.8468890380859 347.54077087402345 286.9132385253906 347.5470275878906 C293.346713670328 347.49026461197815 298.0717826938117 346.8963569546258 302.82769775390625 342.14044189453125 C303.7749156402325 338.63151799831263 303.95502020427307 335.30973194317534 303.9619188308716 331.68775367736816 C303.9641477528214 331.14326649010184 303.9641477528214 331.14326649010184 303.97542744874954 328.3878313302994 C303.9752430862188 327.19708545565607 303.9750587236881 326.00633958101275 303.97486877441406 324.7795104980469 C303.97854546248914 323.51019255042075 303.9822221505642 322.24087460279463 303.9860102534294 320.93309247493744 C303.9960082343148 317.4120124646097 303.99974346537147 313.89094950027766 304.00239956378937 310.3698573112488 C304.00630896273697 306.5715408094822 304.01588660561197 302.77323772465127 304.0246124267578 298.9749298095703 C304.0443550954079 289.80523407938796 304.0544385849272 280.63553727987227 304.0633402168751 271.4658256173134 C304.0677252324258 267.1472234183197 304.07309135156254 262.8286224424085 304.0783290863037 258.5100212097168 C304.0953363725822 244.15480872627222 304.1098318541652 229.79959700040183 304.1170778274536 215.4443759918213 C304.11898768989397 211.72099430351358 304.12090803229 207.99761262155505 304.12286376953125 204.27423095703125 C304.12334750972684 203.34881344363095 304.12383124992255 202.42339593023064 304.12432964891195 201.46993546187878 C304.13263501697196 186.4693695216605 304.15798270254373 171.46888319123678 304.19044444710016 156.468352034688 C304.22350154946156 141.06721932753436 304.2415252171189 125.66612711586268 304.2447220683098 110.2649587392807 C304.24688801742275 101.61780822514814 304.2556494869475 92.97077393761754 304.28118324279785 84.32365798950195 C304.3028715103144 76.96192676900102 304.3109497868584 69.60034002587813 304.3012164607644 62.238580480217934 C304.2966667793461 58.4827213527 304.2985965708564 54.727160454330175 304.31797790527344 50.97134208679199 C304.3388106088822 46.8991309591986 304.3286408252733 42.827583404468015 304.31544494628906 38.755340576171875 C304.3264141923189 37.56905614495278 304.33738343834875 36.38277171373369 304.34868508577347 35.16053926944733 C304.2976985426549 28.659006036126414 303.97323829574566 24.293390919673186 299.82769775390625 19.14044189453125 C296.52792279083343 17.221051434177213 293.70776882268416 16.88990647463268 289.93218994140625 16.886474609375 C288.97332885742185 16.880834960937506 288.0144677734375 16.87519531250001 287.02655029296875 16.869384765625 C285.9863977050781 16.873433227539067 284.9462451171875 16.877481689453134 283.87457275390625 16.88165283203125 C283.32226989746096 16.879900512695315 283.32226989746096 16.879900512695315 280.52728271484375 16.87103271484375 C276.87735706354766 16.862232984286806 273.22762536657626 16.86805848214854 269.57769775390625 16.87481689453125 C267.040913521146 16.873469742693743 264.5041295398836 16.87152879114896 261.96734619140625 16.8690185546875 C256.6512380291305 16.86606966867356 251.3351993289931 16.87016646559445 246.01910400390625 16.87969970703125 C239.87913937007727 16.890583449591162 233.73930757691244 16.887057559073213 227.59934616088867 16.876046895980835 C221.68493293530992 16.865866528654152 215.77056087082417 16.866957836164374 209.85614013671875 16.87281036376953 C207.34271221316533 16.874145112307417 204.82928090275504 16.872505255287678 202.31585693359375 16.86785125732422 C198.80408734104788 16.862775812583692 195.29257330245565 16.870510922628824 191.78082275390625 16.88165283203125 C191.26074645996093 16.879628601074216 191.26074645996093 16.879628601074216 188.62884521484375 16.869384765625 C188.14941467285155 16.87220458984376 188.14941467285155 16.87220458984376 185.72320556640625 16.886474609375 C184.89363342285156 16.887228660583503 184.06406127929688 16.887982711792006 183.2093505859375 16.88875961303711 C179.46115943552232 17.28485147307873 176.6645228359354 18.243843592357166 174.07769775390625 21.01544189453125 Z M357.07769775390625 21.01544189453125 C354.8747149155664 24.760512719709 354.7019650392634 28.177971787407103 354.6962699890137 32.47008228302002 C354.69242884397505 33.55706560909749 354.6885876989365 34.644048935174936 354.68463015556335 35.76397114992142 C354.6854966378212 36.957629866004 354.686363120079 38.15128858208658 354.687255859375 39.38111877441406 C354.68428473711015 40.64958229720594 354.6813136148453 41.918045819997786 354.6782524585724 43.2249476313591 C354.6701846775382 46.74828945031214 354.66839301211974 50.27161089423319 354.6676549911499 53.79496085643768 C354.6658040705291 57.59397482347396 354.65825657840384 61.39297822560388 354.6515197753906 65.19198608398438 C354.637937916409 73.49980405394211 354.6319120793259 81.80761719716702 354.62750911712646 90.11544442176819 C354.62474667633575 95.30229243465001 354.6205093402787 100.48913858329931 354.61600494384766 105.67598533630371 C354.60381290446804 120.03544783772605 354.59351317811854 134.39490884565214 354.5901298522949 148.754376411438 C354.5899102862179 149.6734020925686 354.58969072014094 150.59242777369917 354.58946450054646 151.53930271789432 C354.5892462228239 152.46053092692046 354.58902794510124 153.3817591359466 354.5888030529022 154.33090335130692 C354.58835958608796 156.19767336124357 354.58791302271624 158.06444337044718 354.58746337890625 159.93121337890625 C354.587241949141 160.85719639383257 354.5870205193758 161.78317940875888 354.5867923796177 162.7372225150466 C354.58284364342137 177.74430285446374 354.5653870272475 192.7513346582606 354.542103856802 207.7583962455392 C354.51839511926624 223.16401767516913 354.5059282342272 238.56961474301346 354.5047619342804 253.97525471448898 C354.5038449511165 262.6257502119372 354.49808670607746 271.2761824554416 354.47994232177734 279.9266605377197 C354.4645478457498 287.29206032134147 354.4594170346365 294.6573773000303 354.4676804244518 302.02279011160135 C354.471589139699 305.7806169831092 354.47064661843314 309.53827706472225 354.4566230773926 313.2960834503174 C354.44155721793936 317.3704476943965 354.44974396912073 321.44443553020704 354.460205078125 325.51881408691406 C354.4521486735344 326.7057806378603 354.4440922689438 327.89274718880654 354.43579173088074 329.1156824231148 C354.4721139771087 335.1500942190524 354.5574618397509 339.95759217798144 357.82769775390625 345.14044189453125 C361.0942935384532 347.08947713105516 363.959081177046 347.39182562708544 367.7164764404297 347.40113830566406 C368.67389236450197 347.40822311401365 369.63130828857425 347.4153079223633 370.61773681640625 347.422607421875 C371.656318359375 347.4201300048828 372.69489990234376 347.41765258789064 373.76495361328125 347.41510009765625 C374.8679530334473 347.4202110290527 375.9709524536133 347.4253219604492 377.1073760986328 347.4305877685547 C380.75248646758763 347.44448481712715 384.39740779584366 347.44352693418483 388.04254150390625 347.44122314453125 C390.57693044403817 347.44510987290556 393.1113187336117 347.44944449497217 395.6457061767578 347.45420837402344 C400.9576149491564 347.4616707444773 406.26945436613596 347.4615174290132 411.58135986328125 347.45611572265625 C417.7133962514592 347.4500757243797 423.845203199391 347.46239000985685 429.97720044851303 347.48368579149246 C435.88627163419267 347.50344954374566 441.79527193397564 347.506472769662 447.70437812805176 347.50295066833496 C450.2141937395313 347.5034641603028 452.72401299697583 347.5087071085073 455.23380851745605 347.518762588501 C458.7430680423595 347.531097217456 462.25179635655707 347.52435270941083 465.76104736328125 347.51275634765625 C466.797604675293 347.52040008544924 467.8341619873047 347.5280438232422 468.9021301269531 347.5359191894531 C475.34312063595416 347.4888691583617 480.0657224009351 346.9024172475024 484.82769775390625 342.14044189453125 C485.90239081781056 339.0190408399864 485.9556892642879 336.07778961217343 485.9619188308716 332.795184135437 C485.9641477528214 332.24995077461006 485.9641477528214 332.24995077461006 485.97542744874954 329.49073952436447 C485.9752430862188 328.2931898599863 485.9750587236881 327.09564019560815 485.97486877441406 325.86180114746094 C485.97854546248914 324.58925407230856 485.9822221505642 323.31670699715613 485.9860102534294 322.00559788942337 C485.99602116978053 318.4708569688984 485.9997455666529 314.9361330293952 486.00239956378937 311.401379942894 C486.00630519460094 307.5900941523998 486.0158832092866 303.7788217753615 486.0246124267578 299.96754455566406 C486.04436728825783 290.7633188648377 486.05444082333827 281.55909208866325 486.0633402168751 272.35485050082207 C486.0677238452686 268.0208050868192 486.07309038096446 263.6867608944129 486.0783290863037 259.35271644592285 C486.0953387438976 244.94693219354866 486.1098338686746 230.54114870100716 486.1170778274536 216.13535594940186 C486.11898772198754 212.39771206174817 486.1209080575013 208.66006818039642 486.12286376953125 204.92242431640625 C486.12334750972684 203.99345068670812 486.12383124992255 203.06447705700992 486.12432964891195 202.10735271126032 C486.13263360088 187.05175784425717 486.15797784199253 171.99624233456262 486.19044444710016 156.94068213552237 C486.2235016995402 141.48534049563148 486.241525292147 126.03003921453524 486.2447220683098 110.5746620297432 C486.2468881686176 101.89619766531865 486.2556516621363 93.21784910277756 486.28118324279785 84.53941917419434 C486.3028718482385 77.15021550539342 486.31094967847525 69.76115577537522 486.3012164607644 62.37192388623953 C486.2966666714825 58.60189527047402 486.2985971332673 54.832163762460254 486.31797790527344 51.06217575073242 C486.3388100295616 46.9745851824203 486.3286409946868 42.887655715010226 486.31544494628906 38.80003356933594 C486.3264141923189 37.60917607009412 486.33738343834875 36.41831857085228 486.34868508577347 35.191374480724335 C486.2978153998125 28.680435862505874 485.9822836324813 24.29954892496309 481.82769775390625 19.14044189453125 C478.53920922073416 17.22947167709225 475.7321689732148 16.88992481573939 471.97015380859375 16.886474609375 C471.0197068786621 16.880834960937506 470.0692599487304 16.87519531250001 469.0900115966797 16.869384765625 C468.5746106719971 16.871408996582034 468.5746106719971 16.871408996582034 465.96636962890625 16.88165283203125 C464.8715174865722 16.87814819335938 463.77666534423827 16.87464355468751 462.6486358642578 16.87103271484375 C459.0311752472222 16.862233456374724 455.4139103476648 16.868058312433362 451.79644775390625 16.87481689453125 C449.2820837651733 16.87346972905425 446.76772003019113 16.871528766086385 444.25335693359375 16.8690185546875 C438.9843343558109 16.86606973686392 433.7153626381614 16.87016624647734 428.44635009765625 16.87969970703125 C422.3609166315505 16.890583434340385 416.2756171968782 16.88705753763429 410.1901869773865 16.876046895980835 C404.3280951458506 16.865866223729142 398.46605412664076 16.86695794722226 392.6039581298828 16.87281036376953 C390.11285889926944 16.874145064273648 387.62175625117885 16.872505423403283 385.1306610107422 16.86785125732422 C381.6500236281847 16.862775525603297 378.1696440508742 16.87051131933208 374.68902587890625 16.88165283203125 C373.65822402954103 16.877604370117183 372.62742218017576 16.873555908203116 371.5653839111328 16.869384765625 C370.6149369812012 16.875024414062494 369.6644900512695 16.88066406249999 368.68524169921875 16.886474609375 C367.86304389953614 16.887228660583503 367.0408460998535 16.887982711792006 366.19373321533203 16.88875961303711 C362.45313975317504 17.286657747721193 359.65906365310764 18.249692716815503 357.07769775390625 21.01544189453125 Z " fill="#BC02F6" transform="translate(62.17230224609375,117.85955810546875)"/>
<path d="M0 0 C1.2123028564453193 -0.010075836181641762 2.4246057128906386 -0.020151672363283524 3.67364501953125 -0.0305328369140625 C6.983954260406904 -0.05407848794928327 10.293698791248858 -0.06406130085109396 13.604052543640137 -0.06598019599914551 C15.677468102686703 -0.06811999872880392 17.75082536597796 -0.07453860936954015 19.82422637939453 -0.08247184753417969 C27.072959656872797 -0.11018893738464897 34.32152798736382 -0.12248228837172803 41.5703125 -0.1201171875 C48.30235080402389 -0.1183170490974561 55.033666232388555 -0.14993847124513593 61.76552176475525 -0.19734817743301392 C67.56539633251452 -0.236722743329409 73.36503610196678 -0.2526626826472409 79.16504311561584 -0.25075095891952515 C82.62019329898055 -0.24999014098435168 86.07470075356355 -0.25830980592735386 89.52971649169922 -0.2902851104736328 C93.38988317546068 -0.32503760562802597 97.24907798525305 -0.3109990286877462 101.109375 -0.29296875 C102.23702270507806 -0.3098272705078102 103.36467041015624 -0.32668579101562045 104.5264892578125 -0.34405517578125 C113.5158788033583 -0.2378602033206363 120.73980957933577 2.4665770320291216 127.2509765625 8.810791015625 C127.7666015625 9.677041015625008 128.2822265625 10.543291015624987 128.8134765625 11.435791015625 C129.4952269744873 12.536079187393199 130.17697738647462 13.636367359161369 130.87938690185547 14.769997596740723 C133.72223443121652 20.54572820498052 133.36690477854745 26.39636417037093 133.3214111328125 32.71348571777344 C133.32602498269569 34.05866769910904 133.3323811476821 35.40384463254236 133.34032011032104 36.74901109933853 C133.35697064967326 40.430612196708125 133.34878681212888 44.11179690273107 133.33637523651123 47.79339921474457 C133.32730933367964 51.76963793709882 133.34130214928882 55.7458060346944 133.352294921875 59.72203063964844 C133.37006882377068 67.50586184602832 133.3662450706721 75.28953865031193 133.3546443581581 83.07337587326765 C133.34560521217236 89.40082895094667 133.3443881216382 95.72823880372397 133.34873962402344 102.05569648742676 C133.34935255616904 102.95678182620554 133.34996548831464 103.85786716498433 133.3505969941616 104.78625812008977 C133.35187591811757 106.61689627930627 133.3531727715889 108.44753442608271 133.35448735952377 110.27817256003618 C133.36589001868037 127.43903164556386 133.3527847225546 144.59980522377617 133.33128589391708 161.76065028458834 C133.3134182378302 176.47849718900915 133.31651688362535 191.1962178776634 133.3349609375 205.9140625 C133.3563784425321 223.0126007529169 133.36478820996422 240.1110640655894 133.35251188278198 257.2096138596535 C133.35123771276687 259.03376582095984 133.34998022936884 260.8579177939999 133.34873962402344 262.6820697784424 C133.34843107298013 263.1308065966331 133.34843107298013 263.1308065966331 133.34686961770058 265.4016868583858 C133.34341913282424 271.7194334860026 133.34923862732694 278.03713249715014 133.35865783691406 284.35487174987793 C133.36988911057767 292.05722042077446 133.36681421305968 299.7594060820438 133.3455348610878 307.46173613518476 C133.33503910671425 311.3899898068023 133.3308772088842 315.31797192886137 133.34413146972656 319.24622344970703 C133.3560922860952 322.84563745360674 133.3494328669036 326.4445294232222 133.3282212615013 330.0438963845372 C133.3216700090842 331.95557178662233 133.33465842926944 333.86728371391825 133.3484501838684 335.77892059087753 C133.27240153737557 344.15275789955 132.09079611906463 351.2233157552401 126.1884765625 357.498291015625 C123.8134765625 359.435791015625 123.8134765625 359.435791015625 121.8134765625 359.435791015625 C121.8134765625 360.095791015625 121.8134765625 360.755791015625 121.8134765625 361.435791015625 C115.94078075813752 365.36168588611406 109.98629038903721 364.8655672331062 103.1103515625 364.83984375 C102.4709967041016 364.8432753753662 102.4709967041016 364.8432753753662 99.2354736328125 364.8606414794922 C95.73959665571135 364.8785405776461 92.24397112040697 364.87741093478957 88.74806213378906 364.87169909477234 C85.82556231461342 364.868603026299 82.90311050015043 364.87470420902054 79.98061752319336 364.8807378411293 C73.08501927997372 364.8947702797161 66.18954496811165 364.8932320261565 59.2939453125 364.8818359375 C52.187651421993564 364.87035095400813 45.08173476631316 364.8844393939236 37.97549057006836 364.9112324118614 C31.865745266333192 364.9334030405889 25.756118266948533 364.94002389499707 19.64633560180664 364.93415600061417 C16.000907500492985 364.9307890386497 12.355721296903937 364.9331840580616 8.7103271484375 364.95040702819824 C4.645509522517159 364.9687748004041 0.5814243579819731 364.95467526249706 -3.4833984375 364.9375 C-4.6866979980468955 364.94716796875 -5.889997558593734 364.9568359375 -7.1297607421875 364.966796875 C-13.473264968973865 364.9106084939774 -17.357797288538393 364.6914475179387 -22.1865234375 360.435791015625 C-22.838789062499984 359.989775390625 -23.491054687500025 359.543759765625 -24.1630859375 359.084228515625 C-29.330689433072223 355.0921935877659 -31.469269760523673 350.676124278586 -33.1865234375 344.435791015625 C-33.7315036406614 339.9521321307395 -33.73999758212739 335.51971433248247 -33.71464538574219 331.00697326660156 C-33.72141440860213 329.66973750563665 -33.7299102258541 328.33250957600524 -33.73996859788895 326.9952945113182 C-33.76236479307312 323.34490336150384 -33.76005660233852 319.6948938544369 -33.75339925289154 316.04445564746857 C-33.750513627026976 312.0981859327414 -33.770603581210196 308.15202047348026 -33.78755187988281 304.20579528808594 C-33.81684947992312 296.48442196298396 -33.82420314826419 288.7631794110196 -33.82297637313604 281.0417562201619 C-33.82214277485713 274.76394473797626 -33.82801787152886 268.4861744767615 -33.83860206604004 262.20837211608887 C-33.8712589129359 242.45473019184544 -33.88027076499753 222.70121526835266 -33.871512331068516 202.94755028933287 C-33.86552945216101 187.37762393270486 -33.89593664305988 171.8080123548774 -33.94313504546881 156.23816449195147 C-33.99126526421702 140.23566333138803 -34.0133076354748 124.23331368413017 -34.00782424211502 108.2307385802269 C-34.00525037012136 99.2525868321224 -34.01318754921192 90.27473674817321 -34.04889488220215 81.2966480255127 C-34.07905133685017 73.65434121144307 -34.0847443159077 66.0124931545015 -34.05908586829901 58.37016183882952 C-34.04668554350684 54.47383070028155 -34.04538847423947 50.57836129205231 -34.07479476928711 46.68210220336914 C-34.10146593623125 43.109456284919844 -34.0953365266904 39.538367195303806 -34.06396482139826 35.96577327698469 C-34.055584427469 34.07352642381693 -34.08139080102296 32.18122138052067 -34.108740985393524 30.28915363550186 C-33.97248930315203 20.78421735057225 -30.858339101579304 14.333506876780632 -24.303198039531708 7.461399614810944 C-16.991371044740276 0.5614420568738012 -9.666722474765947 -0.011571677786875512 0 0 Z M-12.9365234375 21.310791015625 C-15.139506275839835 25.05586184080275 -15.312256152142822 28.473320908500853 -15.317951202392578 32.76543140411377 C-15.321792347431199 33.85241473019124 -15.325633492469763 34.939398056268686 -15.329591035842896 36.05932027101517 C-15.328724553585062 37.25297898709775 -15.327858071327228 38.44663770318033 -15.32696533203125 39.67646789550781 C-15.329936454296103 40.94493141829969 -15.332907576560956 42.213394941091536 -15.335968732833862 43.52029675245285 C-15.344036513868105 47.04363857140589 -15.345828179286514 50.56696001532694 -15.346566200256348 54.09030997753143 C-15.348417120877173 57.88932394456771 -15.355964613002413 61.68832734669763 -15.362701416015625 65.48733520507813 C-15.376283274997263 73.79515317503586 -15.38230911208035 82.10296631826077 -15.386712074279785 90.41079354286194 C-15.389474515070503 95.59764155574376 -15.393711851127534 100.78448770439306 -15.398216247558594 105.97133445739746 C-15.410408286938207 120.3307969588198 -15.420708013287708 134.6902579667459 -15.424091339111328 149.04972553253174 C-15.42431090518835 149.96875121366236 -15.424530471265314 150.88777689479292 -15.424756690859795 151.83465183898807 C-15.424974968582376 152.7558800480142 -15.425193246305014 153.67710825704035 -15.425418138504028 154.62625247240067 C-15.425861605318289 156.49302248233732 -15.426308168690014 158.35979249154093 -15.4267578125 160.2265625 C-15.426979242265247 161.15254551492632 -15.427200672030438 162.07852852985263 -15.427428811788559 163.03257163614035 C-15.43137754798488 178.0396519755575 -15.448834164158768 193.04668377935434 -15.472117334604263 208.05374536663294 C-15.495826072140005 223.45936679626288 -15.508292957179037 238.8649638641072 -15.509459257125854 254.27060383558273 C-15.510376240289759 262.92109933303095 -15.516134485328791 271.57153157653534 -15.534278869628906 280.2220096588135 C-15.549673345656458 287.5874094424352 -15.554804156769762 294.95272642112405 -15.546540766954422 302.3181392326951 C-15.542632051707244 306.07596610420296 -15.543574572973114 309.833626185816 -15.557598114013672 313.59143257141113 C-15.572663973466888 317.66579681549024 -15.564477222285518 321.7397846513008 -15.55401611328125 325.8141632080078 C-15.562072517871854 327.00112975895405 -15.570128922462459 328.1880963099003 -15.578429460525513 329.4110315442085 C-15.542107214297573 335.44544334014614 -15.456759351655364 340.2529412990752 -12.1865234375 345.435791015625 C-8.91992765295305 347.3848262521489 -6.055140014360234 347.6871747481792 -2.2977447509765625 347.6964874267578 C-1.3403288269042832 347.7035722351074 -0.38291290283200397 347.71065704345705 0.603515625 347.71795654296875 C1.6420971679687568 347.7154791259766 2.6806787109375136 347.7130017089844 3.750732421875 347.71044921875 C4.853731842041043 347.7155601501465 5.956731262207029 347.72067108154295 7.0931549072265625 347.72593688964844 C10.73826527618138 347.7398339382209 14.383186604437412 347.7388760552786 18.0283203125 347.736572265625 C20.56270925263192 347.7404589939993 23.09709754220546 347.7447936160659 25.631484985351563 347.7495574951172 C30.94339375775013 347.75701986557107 36.25523317472971 347.75686655010696 41.567138671875 347.75146484375 C47.699175060052994 347.74542484547345 53.830982007984744 347.7577391309506 59.96297925710678 347.7790349125862 C65.87205044278642 347.7987986648394 71.78105074256939 347.8018218907558 77.69015693664551 347.7982997894287 C80.19997254812506 347.7988132813966 82.70979180556958 347.80405622960103 85.2195873260498 347.8141117095947 C88.72884685095323 347.8264463385498 92.23757516515082 347.8197018305046 95.746826171875 347.80810546875 C96.78338348388672 347.815749206543 97.81994079589845 347.8233929443359 98.88790893554688 347.8312683105469 C105.32889944454791 347.78421827945544 110.05150120952885 347.19776636859615 114.8134765625 342.435791015625 C115.8881696264043 339.31438996108017 115.94146807288166 336.3731387332672 115.94769763946533 333.09053325653076 C115.94992656141517 332.5452998957038 115.94992656141517 332.5452998957038 115.96120625734329 329.7860886454582 C115.96102189481257 328.58853898108003 115.96083753228186 327.3909893167019 115.96064758300781 326.1571502685547 C115.96432427108289 324.8846031934023 115.96800095915796 323.6120561182499 115.97178906202316 322.3009470105171 C115.98179997837428 318.7662060899921 115.98552437524665 315.23148215048894 115.98817837238312 311.69672906398773 C115.99208400319469 307.88544327349354 116.00166201788034 304.07417089645526 116.01039123535156 300.2628936767578 C116.03014609685158 291.05866798593144 116.04021963193202 281.854441209757 116.04911902546883 272.6501996219158 C116.05350265386232 268.316154207913 116.05886918955821 263.98211001550663 116.06410789489746 259.6480655670166 C116.08111755249138 245.2422813146424 116.09561267726838 230.8364978221009 116.10285663604736 216.4307050704956 C116.10476653058129 212.69306118284192 116.10668686609506 208.95541730149017 116.108642578125 205.2177734375 C116.10912631832059 204.28879980780187 116.1096100585163 203.35982617810367 116.1101084575057 202.40270183235407 C116.11841240947376 187.34710696535092 116.14375665058628 172.29159145565637 116.17622325569391 157.23603125661612 C116.20928050813393 141.78068961672523 116.22730410074075 126.32538833562899 116.23050087690353 110.87001115083694 C116.23266697721135 102.1915467864124 116.24143047073005 93.51319822387131 116.2669620513916 84.83476829528809 C116.28865065683226 77.44556462648717 116.296728487069 70.05650489646897 116.28699526935816 62.66727300733328 C116.28244548007626 58.89724439156777 116.28437594186107 55.127512883554004 116.30375671386719 51.35752487182617 C116.32458883815536 47.26993430351405 116.31441980328054 43.183004836103976 116.30122375488281 39.09538269042969 C116.31219300091266 37.90452519118787 116.3231622469425 36.71366769194603 116.33446389436722 35.486723601818085 C116.28359420840627 28.975784983599624 115.96806244107506 24.59489804605684 111.8134765625 19.435791015625 C108.52498802932791 17.524820798186 105.71794778180856 17.18527393683314 101.9559326171875 17.18182373046875 C101.00548568725583 17.176184082031256 100.05503875732416 17.17054443359376 99.07579040527344 17.16473388671875 C98.56038948059086 17.166758117675784 98.56038948059086 17.166758117675784 95.9521484375 17.177001953125 C94.85729629516595 17.17349731445313 93.76244415283202 17.16999267578126 92.63441467285156 17.1663818359375 C89.01695405581597 17.157582577468474 85.39968915625855 17.163407433527112 81.7822265625 17.170166015625 C79.26786257376705 17.168818850148 76.75349883878488 17.166877887180135 74.2391357421875 17.16436767578125 C68.97011316440467 17.16141885795767 63.70114144675517 17.16551536757109 58.43212890625 17.175048828125 C52.34669544014423 17.185932555434135 46.261396005471966 17.18240665872804 40.175965785980225 17.171396017074585 C34.313873954444375 17.161215344822892 28.451832935234506 17.16230706831601 22.589736938476563 17.16815948486328 C20.09863770786319 17.169494185367398 17.6075350597726 17.167854544497033 15.116439819335938 17.16320037841797 C11.635802436778476 17.158124646697047 8.155422859467933 17.16586044042583 4.6748046875 17.177001953125 C3.6440028381347815 17.172953491210933 2.613200988769563 17.168905029296866 1.5511627197265625 17.16473388671875 C0.60071578979489 17.170373535156244 -0.34973114013672557 17.17601318359374 -1.3289794921875 17.18182373046875 C-2.1511772918701126 17.182577781677253 -2.9733750915527253 17.183331832885756 -3.8204879760742188 17.18410873413086 C-7.561081438231213 17.582006868814943 -10.355157538298613 18.545041837909253 -12.9365234375 21.310791015625 Z " fill="#000000" transform="translate(432.1865234375,117.564208984375)"/>
<path d="M0 0 C33.329999999999984 0 66.65999999999997 0 101 0 C101 5.939999999999998 101 11.879999999999995 101 18 C67.67000000000002 18 34.34000000000003 18 0 18 C0 12.060000000000002 0 6.1200000000000045 0 0 Z " fill="#000000" transform="translate(432,399)"/>
<path d="M0 0 C33.329999999999984 0 66.65999999999997 0 101 0 C101 5.939999999999998 101 11.879999999999995 101 18 C67.67000000000002 18 34.34000000000003 18 0 18 C0 12.060000000000002 0 6.1200000000000045 0 0 Z " fill="#000000" transform="translate(432,349)"/>
<path d="M0 0 C33.329999999999984 0 66.65999999999997 0 101 0 C101 5.939999999999998 101 11.879999999999995 101 18 C67.67000000000002 18 34.34000000000003 18 0 18 C0 12.060000000000002 0 6.1200000000000045 0 0 Z " fill="#000000" transform="translate(432,200)"/>
<path d="M0 0 C33.329999999999984 0 66.65999999999997 0 101 0 C101 5.610000000000014 101 11.220000000000027 101 17 C99.05702675693567 18.942973243064387 96.1149581878185 18.120202975178984 93.52944946289063 18.124420166015625 C92.59797088623043 18.120824890136703 91.66649230957034 18.117229614257838 90.706787109375 18.113525390625 C89.7312840270996 18.113671417236333 88.75578094482421 18.113817443847665 87.75071716308594 18.113967895507813 C84.50957047351199 18.113268330842857 81.26848046348505 18.10547390794352 78.02734375 18.09765625 C75.78674856985276 18.095792224976094 73.54615298346596 18.09436824948989 71.30555725097656 18.093368530273438 C65.39540490289363 18.08954212707806 59.48527695469056 18.07971080239662 53.57513427734375 18.06866455078125 C47.549441834994525 18.05845305500651 41.52374546742766 18.05387147317515 35.498046875 18.048828125 C23.665353836307702 18.03808864285196 11.83267894343652 18.021010760286742 0 18 C0 12.060000000000002 0 6.1200000000000045 0 0 Z " fill="#000000" transform="translate(432,250)"/>
<path d="M0 0 C33 0 66 0 100 0 C100 5.939999999999998 100 11.879999999999995 100 18 C67 18 34 18 0 18 C0 12.060000000000002 0 6.1200000000000045 0 0 Z " fill="#000000" transform="translate(250,399)"/>
<path d="M0 0 C33 0 66 0 100 0 C100 5.939999999999998 100 11.879999999999995 100 18 C67 18 34 18 0 18 C0 12.060000000000002 0 6.1200000000000045 0 0 Z " fill="#000000" transform="translate(68,399)"/>
<path d="M0 0 C33 0 66 0 100 0 C100 5.939999999999998 100 11.879999999999995 100 18 C67 18 34 18 0 18 C0 12.060000000000002 0 6.1200000000000045 0 0 Z " fill="#000000" transform="translate(250,349)"/>
<path d="M0 0 C33 0 66 0 100 0 C100 5.939999999999998 100 11.879999999999995 100 18 C67 18 34 18 0 18 C0 12.060000000000002 0 6.1200000000000045 0 0 Z " fill="#000000" transform="translate(68,349)"/>
<path d="M0 0 C33 0 66 0 100 0 C100 5.939999999999998 100 11.879999999999995 100 18 C67 18 34 18 0 18 C0 12.060000000000002 0 6.1200000000000045 0 0 Z " fill="#000000" transform="translate(250,250)"/>
<path d="M0 0 C33 0 66 0 100 0 C100 5.939999999999998 100 11.879999999999995 100 18 C67 18 34 18 0 18 C0 12.060000000000002 0 6.1200000000000045 0 0 Z " fill="#000000" transform="translate(68,250)"/>
<path d="M0 0 C33 0 66 0 100 0 C100 5.939999999999998 100 11.879999999999995 100 18 C67 18 34 18 0 18 C0 12.060000000000002 0 6.1200000000000045 0 0 Z " fill="#000000" transform="translate(250,200)"/>
<path d="M0 0 C33 0 66 0 100 0 C100 5.939999999999998 100 11.879999999999995 100 18 C67 18 34 18 0 18 C0 12.060000000000002 0 6.1200000000000045 0 0 Z " fill="#000000" transform="translate(68,200)"/>
<path d="M0 0 C33.329999999999984 0 66.65999999999997 0 101 0 C101 5.610000000000014 101 11.220000000000027 101 17 C67.67000000000002 17 34.34000000000003 17 0 17 C0 11.389999999999986 0 5.779999999999973 0 0 Z " fill="#000000" transform="translate(432,300)"/>
<path d="M0 0 C33 0 66 0 100 0 C100 5.610000000000014 100 11.220000000000027 100 17 C67 17 34 17 0 17 C0 11.389999999999986 0 5.779999999999973 0 0 Z " fill="#000000" transform="translate(250,300)"/>
<path d="M0 0 C33 0 66 0 100 0 C100 5.610000000000014 100 11.220000000000027 100 17 C67 17 34 17 0 17 C0 11.389999999999986 0 5.779999999999973 0 0 Z " fill="#000000" transform="translate(68,300)"/>
</svg>
