<?xml version="1.0" encoding="UTF-8"?>
<!-- Generator: visioncortex VTracer 0.6.12 -->
<svg version="1.1" xmlns="http://www.w3.org/2000/svg" width="600" height="601">
<path d="M0 0 C48.88467890970804 -0.8739160475478513 100.85317252020263 12.964649991124446 140.55859375 42.125 C141.17250976562502 42.568115234375 141.78642578125 43.01123046875 142.4189453125 43.4677734375 C150.39520421217867 49.23332610424019 158.012380078842 55.16783641863053 165.19140625 61.91015625 C167.22206528322596 63.81012930584012 169.2970049273428 65.59746448571468 171.43359375 67.375 C207.59586472035647 98.9428840847784 230.4708303888856 146.23750743249164 240.37109375 192.4375 C240.56614501953118 193.34234130859375 240.76119628906258 194.2471826171875 240.962158203125 195.179443359375 C244.00722495660023 210.28926069940258 244.94236857160513 225.43119822411654 244.87109375 240.8125 C244.87018234252923 241.22500000000002 244.87018234252923 241.22500000000002 244.86557006835938 243.3125 C244.81574378822495 256.7743598679813 244.09526241171125 269.8748737233354 241.55859375 283.125 C241.39762207031254 283.99833984375 241.23665039062507 284.8716796875 241.07080078125 285.771484375 C234.11171528069963 322.4855070157522 218.91166362827505 357.8496588036732 195.55859375 387.125 C195.20023437500004 387.57939453125 195.20023437500004 387.57939453125 193.38671875 389.87890625 C181.83249553295565 404.28071284854997 169.12582552642033 417.7495693261839 154.55859375 429.125 C154.01058105468752 429.5653759765625 153.46256835937498 430.005751953125 152.89794921875 430.45947265625 C104.33501345410531 469.4263831567673 40.9905307544999 486.3771761522953 -20.65625 480.304931640625 C-75.24504657996118 474.0809817275309 -123.70856864478816 450.8532534594491 -163.44140625 413.125 C-163.9755615234375 412.6195263671875 -164.509716796875 412.114052734375 -165.06005859375 411.59326171875 C-173.3566782648109 403.6862010099558 -180.62542008120508 395.3320678012026 -187.44140625 386.125 C-187.8705029296875 385.5513671875 -188.299599609375 384.977734375 -188.74169921875 384.38671875 C-210.95853438869688 354.57359347840145 -225.45324052021726 320.5961827719087 -232.44140625 284.125 C-232.6051171875 283.326748046875 -232.768828125 282.52849609375 -232.9375 281.7060546875 C-238.25009044633805 255.0662674700156 -237.86423751777298 223.7032071569646 -232.44140625 197.125 C-232.2427294921875 196.1390283203125 -232.044052734375 195.153056640625 -231.83935546875 194.13720703125 C-220.55141485162198 139.87899359296506 -191.52009839286174 88.47057991842274 -147.44140625 54.125 C-146.18593515404524 53.11751485249269 -144.93074525465508 52.109679230466156 -143.67578125 51.1015625 C-102.46669932657358 18.372505436726897 -52.24072057034954 1.8975063090251822 0 0 Z M-29.56640625 18.8125 C-30.647526855468755 18.992565917968747 -31.72864746093751 19.172631835937494 -32.842529296875 19.358154296875 C-69.13002162545163 25.6316215106109 -103.56585386551552 40.11609442561971 -132.44140625 63.125 C-133.31539062500002 63.8069140625 -134.18937499999998 64.488828125 -135.08984375 65.19140625 C-145.94311058138453 73.8326436245481 -156.73139107896168 83.28502478713574 -165.44140625 94.125 C-166.34987852022326 95.2216706384645 -167.2587753735591 96.31798961954419 -168.16796875 97.4140625 C-198.36306876197625 134.13021565263801 -219.1740831048717 181.48767380902703 -219.6796875 229.5859375 C-219.68948135375976 230.36579513549805 -219.69927520751952 231.1456527709961 -219.70936584472656 231.9491424560547 C-220.25232848646635 286.4917163785263 -205.5909559254755 338.4990711000528 -170.44140625 381.125 C-169.9829833984375 381.6849365234375 -169.524560546875 382.244873046875 -169.05224609375 382.82177734375 C-158.6449887666226 395.46192845950645 -147.45974933598637 407.14310690994074 -134.44140625 417.125 C-133.90354492187498 417.54458984375 -133.36568359375002 417.9641796875 -132.8115234375 418.396484375 C-86.46000727174939 454.4155298356229 -27.057538820568425 470.7517767456254 31.24609375 464 C72.92581285808552 458.653137566193 113.2624340551377 442.166883642177 145.55859375 415.125 C145.85241943359375 414.8819311523438 145.85241943359375 414.8819311523438 147.33935546875 413.65185546875 C159.24684217531927 403.78197917296745 169.99129728422656 393.3303991561612 179.55859375 381.125 C180.34878906249997 380.1517578125 181.138984375 379.178515625 181.953125 378.17578125 C192.7097788658832 364.6749101773876 201.342557510441 349.7843145974904 208.55859375 334.125 C208.88956054687497 333.4132763671875 209.22052734375 332.701552734375 209.5615234375 331.96826171875 C218.90421039967623 311.62444910398233 224.5479435332602 290.2793656929268 227.55859375 268.125 C227.66171874999998 267.36695068359376 227.76484374999995 266.6089013671875 227.87109375 265.827880859375 C234.47612453094087 209.6910165702891 218.3308286330696 150.83865953815248 183.9140625 106.06640625 C179.57805264026695 100.65178697242294 175.0878943820535 95.37816146366023 170.55859375 90.125 C169.90761718750002 89.34898437499999 169.256640625 88.57296875 168.5859375 87.7734375 C165.2359044849099 83.82055116328777 161.71285044514968 80.35739538525942 157.75390625 77.015625 C156.21443476320803 75.68981681564537 154.71162250080965 74.32080507652631 153.23828125 72.921875 C121.02891534056386 42.38700211949481 78.03044106589704 24.659197190765013 34.55859375 18.125 C33.34042968749998 17.926484375 32.12226562500001 17.727968750000002 30.8671875 17.5234375 C24.45697000197788 16.930652200998864 17.996161829846642 17.125 11.55859375 17.125 C11.55859375 29.004999999999995 11.55859375 40.885000000000005 11.55859375 53.125 C15.931093750000002 53.620000000000005 20.303593750000005 54.11500000000001 24.80859375 54.625 C72.64281651994571 60.725193806415504 119.03549133907063 82.95775810612338 149.55859375 121.125 C181.6909609915902 163.02274759811223 196.23759307245888 213.27386339039703 190.03125 265.90234375 C183.44897333615995 315.19467870403474 157.29283059797592 360.02985543100544 117.9931640625 390.33203125 C77.58192857774566 421.1355138336603 26.57996140873979 433.260482508405 -23.55224609375 426.603515625 C-70.42984066904094 419.61765383698685 -115.80194392930957 394.4023732218534 -144.4453125 356.18359375 C-147.56427669703368 351.90984526972454 -150.5346031344604 347.5452461852555 -153.44140625 343.125 C-153.66256103515624 342.7893603515625 -153.66256103515624 342.7893603515625 -154.78173828125 341.0908203125 C-164.78806608017834 325.6433858855072 -171.95421870603803 308.52072324275616 -176.87890625 290.8125 C-176.9902490234375 290.4140588378906 -176.9902490234375 290.4140588378906 -177.5537109375 288.397705078125 C-181.5670018976824 272.8933541383449 -182.99872176942424 257.4064816081502 -182.87890625 241.4375 C-182.87586486816406 240.56992065429688 -182.87282348632812 239.70234130859376 -182.86968994140625 238.8084716796875 C-182.7964443612919 224.6157570049054 -181.87468382753264 210.9501905516736 -178.44140625 197.125 C-178.2324169921875 196.2718017578125 -178.023427734375 195.418603515625 -177.80810546875 194.53955078125 C-165.78850761468033 147.20844522406333 -134.78123159486105 105.8983666228159 -93.19140625 80.5 C-65.37003428735832 64.04795628777629 -36.3338729173787 57.11155833342234 -4.44140625 53.125 C-4.44140625 41.245000000000005 -4.44140625 29.364999999999995 -4.44140625 17.125 C-13.251110541132903 17.125 -21.02084817225989 17.359257300800877 -29.56640625 18.8125 Z M-23.87890625 71.25 C-24.257205810546907 71.31525878906251 -24.257205810546907 71.31525878906251 -26.171630859375 71.6455078125 C-59.55085517819572 77.80446461634091 -90.01644799850345 93.64552400340006 -114.44140625 117.125 C-114.675693359375 117.34639648437499 -114.675693359375 117.34639648437499 -115.861328125 118.466796875 C-145.5030542181584 146.5666906616222 -165.86344439047184 187.9780045550221 -167.565673828125 229.129150390625 C-168.55379503952418 271.51434972169466 -158.71171381433055 311.16063795485417 -132.44140625 345.125 C-131.747890625 346.0415234375 -131.054375 346.958046875 -130.33984375 347.90234375 C-102.71905978235014 383.1266019559355 -61.13954168514664 406.1663743215361 -16.8115234375 411.85498046875 C28.602194198409904 417.02881356571294 73.37315256191027 404.3069687371123 109.5859375 376.5390625 C114.80397055289819 372.30155339790923 119.69953124440127 367.7661969312988 124.55859375 363.125 C124.99171875000002 362.71830078125004 124.99171875000002 362.71830078125004 127.18359375 360.66015625 C156.586352503871 332.31405913884623 174.7798154527061 289.6129217601308 175.76171875 248.859375 C175.91948736800646 234.32390311472057 175.15972463971906 220.43121989345468 172.55859375 206.125 C166.50770851124298 206.75099204618868 160.8229423407874 207.9460808933328 154.94677734375 209.498291015625 C154.01844085693358 209.73917953491207 153.09010437011716 209.98006805419925 152.13363647460938 210.22825622558594 C149.07348342328225 211.0236296002588 146.0152677066887 211.82619794266793 142.95703125 212.62890625 C140.79841825561124 213.19165640373615 138.6396942254293 213.7539807967264 136.48086547851563 214.31590270996094 C130.78663011893502 215.7993900211094 125.09403706558413 217.28908875590503 119.4017333984375 218.77996826171875 C114.84202689091472 219.9731377393921 110.28120205036714 221.161995640613 105.72030258178711 222.35059547424316 C81.98069511197667 228.53732382454905 58.25012851336271 234.75634996636654 34.55859375 241.125 C34.495832519531234 241.46164672851563 34.495832519531234 241.46164672851563 34.17822265625 243.165283203125 C34.0072607421875 244.05562255859377 33.836298828124995 244.94596191406254 33.66015625 245.86328125 C33.49338378906248 246.74282470703122 33.32661132812501 247.6223681640625 33.15478515625 248.528564453125 C31.343577676037967 256.41643978156685 27.19914024567686 261.5869102667952 20.55859375 266.125 C12.622247017932068 270.6543291955742 4.427794631297388 271.5559524964832 -4.4375 269.39453125 C-13.110736773649478 266.5112978584883 -17.56011810038018 263.1960639860608 -21.75390625 255.125 C-26.029264302681497 246.32741282597829 -26.383653903317736 238.77118379093997 -23.34765625 229.48046875 C-20.487600955492667 222.04679054919 -15.060937240487988 217.224327974483 -8.31640625 213.3125 C0.42819483626874444 209.70059955132376 9.245077535054861 210.3238696084992 17.94140625 213.78515625 C23.702020041946184 216.73424659423512 27.755836942605868 220.9819708632865 31.55859375 226.125 C42.8286012791649 223.18602520721424 54.09854414058816 220.24680256410483 65.3684139251709 217.30729961395264 C70.60674543043262 215.94100109113168 75.84509570465065 214.574774634336 81.08349609375 213.208740234375 C92.21975981862028 210.30464640753598 103.35566655527049 207.39919289910267 114.49096298217773 204.49139213562012 C120.60949343224786 202.8939235561628 126.72876917542999 201.29934555082627 132.84858512878418 199.70680904388428 C136.78879245537274 198.68106895933448 140.72853252267748 197.65354265039616 144.66817092895508 196.62561988830566 C146.52579043372083 196.14136543204654 148.38361431579517 195.65789424438714 150.24164962768555 195.17523765563965 C152.79005298082416 194.5131457698327 155.33773253921026 193.84833737404153 157.88525390625 193.182861328125 C158.63912509918214 192.98772508621215 159.39299629211428 192.7925888442993 160.1697120666504 192.59153938293457 C165.33055138186387 191.23902118406806 165.33055138186387 191.23902118406806 167.55859375 190.125 C164.42284901975034 170.61369945622454 152.4010542959262 151.58481109898287 140.55859375 136.125 C139.8276953125 135.168515625 139.096796875 134.21203125 138.34375 133.2265625 C128.7958879120875 121.1751922696873 117.85054904314518 111.28490716823342 105.55859375 102.125 C105.1499609375 101.813046875 105.1499609375 101.813046875 103.08203125 100.234375 C76.91343130845019 80.99011250002863 43.92538856173269 70.125 11.55859375 70.125 C11.55859375 86.625 11.55859375 103.125 11.55859375 120.125 C6.278593750000027 120.125 0.9985937499999977 120.125 -4.44140625 120.125 C-4.44140625 103.625 -4.44140625 87.125 -4.44140625 70.125 C-17.431268850536185 70.125 -17.431268850536185 70.125 -23.87890625 71.25 Z M-7.25390625 231.875 C-9.75335273750943 235.58846335287126 -10.44140625 237.66187762912102 -10.44140625 242.125 C-8.717306878614238 248.00722138472793 -6.246185458760976 250.6492022745133 -1.44140625 254.125 C1.6305428314028632 255.66097454070143 4.161036680382438 255.3515038046412 7.55859375 255.125 C12.895988482882217 253.13655882500467 16.01193198917673 250.21832352164654 18.55859375 245.125 C19.118327886197676 240.5370152770684 18.98323417932727 237.02523771017383 16.99609375 232.8125 C13.375766809047832 228.82085747536047 9.981672450196811 226.47115410002812 4.49609375 225.6875 C-0.6038021835797736 226.44705896883102 -3.5818267736423763 228.2845222897837 -7.25390625 231.875 Z " fill="#000000" transform="translate(295.44140625,59.875)"/>
<path d="M0 0 C11.253665684302973 0.46890273684596195 22.02101037974944 1.3994154349560972 33 4 C33.45109130859373 4.106831054687504 33.45109130859373 4.106831054687504 35.73388671875 4.6474609375 C85.78325261251115 16.859473075789026 126.7019478729103 45.86672229443468 153.92578125 89.6484375 C162.14528434356816 103.22658941745237 168.96180570282326 117.60438424201368 173 133 C170.7305089771068 133.67155348629865 168.4596039041782 134.33739629986528 166.1875 135 C164.92292968749996 135.37125 163.65835937500003 135.7425 162.35546875 136.125 C159 137 159 137 156 137 C155.6223046875 135.8720703125 155.24460937499998 134.744140625 154.85546875 133.58203125 C148.51933595538185 115.24017904871036 139.95935459675638 98.31499732211057 128 83 C127.26136718750001 82.0396484375 126.52273437500003 81.07929687500001 125.76171875 80.08984375 C116.4854713607873 68.37508017321449 105.90160122485713 58.89972451211321 94 50 C93.18144531249999 49.37480468749999 92.36289062499998 48.749609375000006 91.51953125 48.10546875 C64.83641443380873 28.494985306775106 32.67703851852002 19.362195555555672 0 17 C0 11.39 0 5.780000000000001 0 0 Z " fill="#BC02F6" transform="translate(307,113)"/>
</svg>
