<?xml version="1.0" encoding="UTF-8"?>
<!-- Generator: visioncortex VTracer 0.6.12 -->
<svg version="1.1" xmlns="http://www.w3.org/2000/svg" width="600" height="600">
<path d="M0 0 C0.42619628906248863 0.021269531249998863 0.42619628906248863 0.021269531249998863 2.5830078125 0.12890625 C20.890010210229207 1.1250319472604673 38.31809895772045 4.127164048924186 55 12 C56.39523108671801 12.628941888505935 57.79111465156416 13.256437497995918 59.1875 13.8828125 C66.87726946676611 17.370306682123783 74.21504786993341 20.914768937424427 81 26 C81.65871093750002 26.4808203125 82.31742187500004 26.961640625 82.99609375 27.45703125 C88.07130274247652 31.206552123584004 93.03064111673137 35.11193679966483 98 39 C102.33620800324479 36.88796765359197 106.4555405741254 34.60386171148514 109.828125 31.1015625 C117.72676959304061 23.4586294225614 129.10932365466022 18.73443191989324 138.930419921875 14.021240234375 C140.4003377504131 13.295905059575546 141.85504065142823 12.539369898715336 143.298095703125 11.761962890625 C149.63287407899287 8.400613297375969 155.8459880200196 6.447726284689921 162.8125 4.8125 C163.80314453124998 4.565644531250001 164.79378906250003 4.318789062500002 165.814453125 4.064453125 C178.99619970149365 0.865000072452986 191.7335285034635 -0.4398204855784229 205.25 -0.4375 C206.03458587646486 -0.43889984130859716 206.81917175292966 -0.4402996826171943 207.62753295898438 -0.441741943359375 C227.21182158199662 -0.41318002191508185 245.68103788813198 3.000071388147987 264 10 C264 10.659999999999997 264 11.319999999999993 264 12 C264.33193359375 12.04576171875 264.33193359375 12.04576171875 266.01171875 12.27734375 C269.88340044760577 13.213632787983087 273.2373944918737 14.83481743387199 276.8125 16.5625 C277.50537109375 16.891855468749995 278.1982421875 17.221210937500004 278.912109375 17.560546875 C280.61044947521634 18.368722508896056 282.30555768566853 19.18368376554848 284 20 C284 20.659999999999997 284 21.319999999999993 284 22 C284.7051171875 22.2578125 285.410234375 22.515625 286.13671875 22.78125 C289.24269315452347 24.103301861134142 291.9597806500044 25.697478536548957 294.8125 27.5 C295.30041015625 27.804218750000004 295.30041015625 27.804218750000004 297.76953125 29.34375 C298.5055859375 29.890312499999993 299.241640625 30.436875 300 31 C300 31.659999999999997 300 32.31999999999999 300 33 C300.28875 33.135351562500006 300.28875 33.135351562500006 301.75 33.8203125 C310.84084253478164 38.58669174566677 317.97766295632755 46.672231415172575 325 54 C325.6612890624999 54.6793359375 326.32257812500006 55.358671875 327.00390625 56.05859375 C331.24020324322885 60.629076584922046 334.5306548831916 65.71035856032336 337.805419921875 70.98974609375 C339.4181082847583 73.58592311505447 341.02111351845474 76.02481764449936 343.00390625 78.35546875 C345.7587818776492 82.00527462068197 347.4383234588124 85.94472412903752 349.25 90.125 C349.4317578125 90.53041015625001 349.4317578125 90.53041015625001 350.3515625 92.58203125 C353 98.60573308270693 353 98.60573308270693 353 102 C353.65999999999997 102 354.32000000000005 102 355 102 C355.955929330647 105.11964127992789 356.8857993424692 108.24656373769767 357.8125 111.375 C358.07353515625005 112.22578125000001 358.3345703125 113.0765625 358.603515625 113.953125 C363.0902260065885 129.2411751891163 364.5572231068934 144.3766300331899 364.4375 160.25 C364.43479095458986 161.09862609863282 364.4320819091797 161.9472521972656 364.4292907714844 162.82159423828125 C364.3646692058452 176.21099396260823 363.4987213851307 189.01483079405344 360 202 C359.7755419921875 202.837890625 359.55108398437505 203.67578125 359.31982421875 204.5390625 C357.99100965037917 209.39745371014408 356.55070825210134 214.20805728653932 355 219 C354.34000000000003 219 353.67999999999995 219 353 219 C352.9084765625 219.827578125 352.81695312500005 220.65515625 352.72265625 221.5078125 C351.8617579254353 225.6680454846529 350.29488923050144 229.07930557251984 348.4375 232.875 C348.272822265625 233.2191796875 348.272822265625 233.2191796875 347.439453125 234.9609375 C346.6330463896983 236.64387329541228 345.81745506182165 238.3224029279586 345 240 C344.3399999999999 240 343.68000000000006 240 343 240 C342.87044921874997 240.44279296874998 342.87044921874997 240.44279296874998 342.21484375 242.68359375 C338.43343743212904 253.00646823190488 329.1321268322338 261.7434387572789 322 270 C321.3477343750001 270.7773046875 320.6954687499999 271.554609375 320.0234375 272.35546875 C316.57005705803044 276.43171918036137 312.8961828125814 279.96389094758825 308.83203125 283.4296875 C304.7540874903611 286.9250678654048 301.2371976797808 290.85887446809784 297.6875 294.875 C294.25399490308166 298.7198401501265 290.69229576233107 302.1646073355026 286.765625 305.49609375 C282.8771668337575 308.8081654181491 279.53196999367077 312.53048303640173 276.1875 316.375 C272.9474240170119 320.05523724860154 269.53173208185206 323.2878181517452 265.80078125 326.4609375 C261.9048000774914 329.79069147390106 258.543551390451 333.51717005214175 255.1875 337.375 C251.94742401701183 341.05523724860166 248.53173208185206 344.2878181517452 244.80078125 347.4609375 C240.90480007749153 350.79069147390095 237.54355139045094 354.51717005214186 234.1875 358.375 C230.94742401701188 362.0552372486016 227.53173208185206 365.2878181517452 223.80078125 368.4609375 C219.90480007749142 371.790691473901 216.54355139045094 375.5171700521418 213.1875 379.375 C209.94618951865772 383.0566394523925 206.52868487143968 386.2899124834069 202.796875 389.46484375 C198.72644093175768 392.9424102474331 195.22546304306292 396.87215102807045 191.6875 400.875 C188.25399490308166 404.7198401501265 184.692295762331 408.16460733550264 180.765625 411.49609375 C176.87716683375731 414.8081654181492 173.53196999367083 418.5304830364017 170.1875 422.375 C166.94742401701188 426.0552372486016 163.53173208185206 429.2878181517452 159.80078125 432.4609375 C155.90480007749147 435.79069147390095 152.54355139045094 439.51717005214186 149.1875 443.375 C145.94742401701183 447.05523724860166 142.5317320818521 450.2878181517451 138.80078125 453.4609375 C134.90480007749142 456.790691473901 131.543551390451 460.51717005214186 128.1875 464.375 C124.94742401701183 468.05523724860166 121.53173208185211 471.2878181517452 117.80078125 474.4609375 C114.63901424067132 477.16318522597726 111.77785262392251 480.0367867508023 109.1640625 483.2734375 C106.16209354778357 486.9195070703165 103.8388214278263 489.58821493543064 99.5625 491.6875 C93.54670627944404 490.5265573521734 90.69875038596581 485.6128902151969 87 481 C84.01853649627401 477.86946332108766 80.88255801653463 475.02278197735427 77.625 472.1875 C73.9433605476072 468.94618951865755 70.71008751659315 465.52868487143974 67.53515625 461.796875 C64.03893146255774 457.7046017118996 60.08452036197832 454.1847881711242 56.0625 450.625 C52.504997427395836 447.4475273758046 49.30728799733373 444.21528294413343 46.27734375 440.5390625 C42.941227937251966 436.5194000222547 39.028151870512374 433.13665988557364 35.125 429.6875 C31.280159849873456 426.25399490308166 27.835392664497448 422.69229576233107 24.50390625 418.765625 C21.19183458185097 414.8771668337575 17.469516963598238 411.53196999367077 13.625 408.1875 C9.944762751398315 404.9474240170118 6.712181848254829 401.53173208185217 3.5390625 397.80078125 C0.20930852609910744 393.9048000774916 -3.5171700521418643 390.54355139045094 -7.375 387.1875 C-11.055237248601571 383.9474240170119 -14.287818151745256 380.53173208185206 -17.4609375 376.80078125 C-20.790691473900864 372.90480007749164 -24.517170052141864 369.5435513904509 -28.375 366.1875 C-32.05663945239277 362.94618951865755 -35.289912483406795 359.52868487143985 -38.46484375 355.796875 C-41.961068537442316 351.70460171189956 -45.91547963802168 348.1847881711241 -49.9375 344.625 C-53.49500257260422 341.4475273758045 -56.69271200266621 338.2152829441335 -59.72265625 334.5390625 C-63.058772062748005 330.5194000222547 -66.97184812948763 327.13665988557364 -70.875 323.6875 C-74.71984015012654 320.25399490308166 -78.16460733550255 316.6922957623311 -81.49609375 312.765625 C-84.80816541814912 308.8771668337574 -88.53048303640166 305.5319699936708 -92.375 302.1875 C-96.05523724860159 298.9474240170119 -99.28781815174524 295.53173208185206 -102.4609375 291.80078125 C-105.79069147390092 287.9048000774916 -109.51717005214184 284.54355139045094 -113.375 281.1875 C-117.65530232834429 277.3991864450286 -121.32518875674371 273.36561878317076 -125 269 C-125.96184521720274 267.8982562430263 -126.9255452698923 266.79813032170244 -127.890625 265.69921875 C-141.69459876704593 249.9162036988622 -141.69459876704593 249.9162036988622 -144 243 C-144.47348876953126 242.528203125 -144.94697753906252 242.05640625 -145.434814453125 241.5703125 C-147.21777455264154 239.78151210067222 -148.02047260407642 238.17735702164077 -149.04296875 235.875 C-149.39423828125 235.08609375000003 -149.7455078125 234.2971875 -150.107421875 233.484375 C-150.46384765624998 232.66453124999998 -150.8202734375 231.84468749999996 -151.1875 231 C-151.55552734375 230.18015624999998 -151.9235546875 229.36031249999996 -152.302734375 228.515625 C-155 222.39048005565866 -155 222.39048005565866 -155 219 C-155.66 219 -156.32 219 -157 219 C-157.955929330647 215.88035872007197 -158.88579934246926 212.7534362623024 -159.8125 209.625 C-160.07353515625 208.77421875 -160.3345703125 207.92343749999998 -160.603515625 207.046875 C-165.09022600658852 191.7588248108836 -166.5572231068934 176.62336996681017 -166.4375 160.75 C-166.43479095458986 159.90137390136718 -166.4320819091797 159.0527478027344 -166.42929077148438 158.17840576171875 C-166.36466920584525 144.78900603739177 -165.49872138513066 131.9851692059466 -162 119 C-161.88777099609376 118.5810546875 -161.88777099609376 118.5810546875 -161.31982421875 116.4609375 C-159.99100965037917 111.60254628985587 -158.55070825210134 106.79194271346068 -157 102 C-156.34 102 -155.68 102 -155 102 C-154.9084765625 101.34644531250001 -154.816953125 100.69289062500002 -154.72265625 100.01953125 C-153.76308938507984 96.01009780900927 -152.1292438943773 92.43613647090734 -150.4375 88.6875 C-150.272822265625 88.31721679687502 -150.272822265625 88.31721679687502 -149.439453125 86.443359375 C-148.6308287715396 84.62688437809621 -147.81602884180117 82.81316069026838 -147 81 C-146.34 81 -145.68 81 -145 81 C-144.7421875 80.29488281250002 -144.484375 79.58976562499998 -144.21875 78.86328125 C-142.89669813886587 75.75730684547653 -141.30252146345106 73.04021934999565 -139.5 70.1875 C-138.8915625 69.21167968750001 -138.28312499999998 68.23585937500002 -137.65625 67.23046875 C-137.1096875 66.4944140625 -136.563125 65.758359375 -136 65 C-135.34 65 -134.68 65 -134 65 C-133.8040625 64.32453125 -133.608125 63.649062500000014 -133.40625 62.953125 C-131.45685147370102 58.859388094772115 -128.61856158875582 56.00250771233087 -125.5 52.75 C-124.8743212890625 52.089033203125 -124.248642578125 51.42806640625 -123.60400390625 50.7470703125 C-117.54431790121068 44.40680022792317 -111.26552988079969 37.966311564090915 -104 33 C-103.34 33 -102.68 33 -102 33 C-101.67 32.00999999999999 -101.34 31.019999999999996 -101 30 C-98.87497639603556 28.487908374321904 -96.79900338421373 27.135266172695395 -94.5625 25.8125 C-93.96373046875 25.44447265625 -93.3649609375 25.0764453125 -92.748046875 24.697265625 C-88.27929325139148 22 -88.27929325139148 22 -86 22 C-86 21.340000000000003 -86 20.680000000000007 -86 20 C-82.70923305894937 18.58123710683934 -79.41721965867806 17.165388236008496 -76.125 15.75 C-75.2071875 15.354257812499995 -74.289375 14.958515625000004 -73.34375 14.55078125 C-49.6135415669938 4.356818472440992 -26.06471444271199 -1.4552114321910352 0 0 Z M193.125 17.9375 C192.03574218749998 18.024511718750006 190.946484375 18.111523437499997 189.82421875 18.201171875 C189.29763671875003 18.244677734375003 189.29763671875003 18.244677734375003 186.6328125 18.46484375 C185.6726220703125 18.54339599609375 184.71243164062503 18.6219482421875 183.72314453125 18.702880859375 C181.10189401765518 18.988882461943135 178.5753997781104 19.440601389410205 176 20 C176 20.659999999999997 176 21.319999999999993 176 22 C175.7226501464844 22.02267944335938 175.7226501464844 22.02267944335938 174.319091796875 22.137451171875 C160.95413427543212 23.40027066892806 149.15037895096026 28.578457491830918 137.4375 34.9375 C136.53427001953128 35.42710205078126 135.6310400390625 35.9167041015625 134.700439453125 36.421142578125 C128.6907111672242 39.790611343540405 123.34163326500709 43.66138084152263 118 48 C117.4946875 48.3815625 117.4946875 48.3815625 114.9375 50.3125 C114.29812500000003 50.86937499999999 113.65875 51.42625000000001 113 52 C113 52.66 113 53.31999999999999 113 54 C112.43796874999998 54.23460937499999 111.87593750000002 54.46921875000001 111.296875 54.7109375 C108.45364109307815 56.306629998782654 106.51901872512877 58.28924543001449 104.25 60.625 C103.85039062499999 61.0336328125 103.85039062499999 61.0336328125 101.828125 63.1015625 C101.22484374999999 63.72804687499999 100.62156249999998 64.35453125000001 100 65 C96.54992089463605 63.530235358701475 94.43506916139825 61.59081481380274 91.875 58.875 C90.62172236683944 57.546052773893905 89.33714432503615 56.24452826789077 88 55 C87.34000000000003 55 86.68 55 86 55 C85.78343749999999 54.430234375 85.56687499999998 53.860468749999995 85.34375 53.2734375 C80.82293867351598 45.624855546471736 69.5726767874541 40.248086978327905 62 36 C60.9262109375 35.361914062500006 59.852421875000005 34.723828125 58.74609375 34.06640625 C49.32683727968009 28.614312872439086 39.68751410445566 25.42518554999046 29.20703125 22.59765625 C27.319584372156186 22.086542316707778 25.44009141963147 21.546208412983702 23.5625 21 C13.604766150836468 18.123321332463874 4.139051767273173 17.81779295323797 -6.1875 17.8125 C-7.425644531249986 17.800253906249992 -8.663789062500001 17.7880078125 -9.939453125 17.775390625 C-20.331545927995563 17.75905941577581 -30.141229152696525 18.5917725740088 -40 22 C-41.38017784459157 22.376711048676952 -42.7641460989563 22.7399470687256 -44.15234375 23.0859375 C-54.14815437001363 25.729535909607904 -63.205706277504476 29.25866244633893 -72.375 34.0625 C-72.85900268554687 34.31572021484375 -72.85900268554687 34.31572021484375 -75.308349609375 35.59716796875 C-80.3687298561673 38.33084969475733 -84.71682385510086 41.16802867036503 -89 45 C-90.17928995511005 45.865466432752285 -91.36583323451639 46.72122382844191 -92.5625 47.5625 C-103.68742747989805 55.84201333600106 -113.37851207543001 65.8668392963379 -121.54296875 77.04296875 C-122.63979222732752 78.5161820533273 -123.79340304425389 79.94737036769325 -124.97265625 81.35546875 C-127.12540542263413 84.16358279599865 -128.6783878985935 86.95796349262028 -130.25 90.125 C-130.77078125 91.15882812500001 -131.2915625 92.19265625 -131.828125 93.2578125 C-133 96 -133 96 -133 99 C-133.66 99 -134.32 99 -135 99 C-145.29179031590763 120.62698794494875 -151.54589660129074 146.14923706876482 -148.489501953125 170.1552734375 C-148.32796630859374 171.424033203125 -148.1664306640625 172.69279296875 -148 174 C-138.81152585541065 173.98513106869171 -129.62367346942318 173.9435653583167 -120.43549728393555 173.86790943145752 C-116.16900350061516 173.83361792108443 -111.9028685922293 173.80852616899531 -107.63623046875 173.804443359375 C-103.51860996632458 173.80016491391962 -99.40179931054814 173.7717412240096 -95.28443145751953 173.7265682220459 C-93.71361253883703 173.71357846038083 -92.1426967710297 173.70929080994816 -90.57183074951172 173.71384620666504 C-88.37089096771095 173.71874230070668 -86.17232730976855 173.69271101562865 -83.9716796875 173.659423828125 C-82.71925476074219 173.6527619934082 -81.46682983398438 173.6461001586914 -80.17645263671875 173.6392364501953 C-77.00000000000003 173 -77.00000000000003 173 -74.66510009765625 170.5542449951172 C-74.39035858154297 170.13279457092284 -74.39035858154297 170.13279457092284 -73 168 C-71.92830657802784 166.98539436321767 -70.82315562228783 166.0049636313699 -69.6875 165.0625 C-65.55432544978856 161.53191912252967 -61.58755031827366 157.8441104653664 -57.625 154.125 C-51.330542211517184 148.22544607080198 -44.9784306355258 142.39821301385422 -38.5126953125 136.68603515625 C-36.962656850487036 135.31611019776687 -35.41866228356193 133.9396014205957 -33.875 132.5625 C-33.40964843750001 132.15064453125 -33.40964843750001 132.15064453125 -31.0546875 130.06640625 C-29 128 -29 128 -29 126 C-28.412187500000016 125.7357421875 -27.824375000000003 125.47148437499999 -27.21875 125.19921875 C-24.281024893949905 123.6113990183849 -22.16460050499836 121.45746458098705 -19.78125 119.14453125 C-18 118 -18 118 -16.0078125 118.1015625 C-13.543817091099385 119.20412853900223 -12.19532922758981 120.57777980692299 -10.375 122.5625 C-9.286812320594834 123.74334994904882 -8.168067983152639 124.89810335579443 -7 126 C-6.340000000000003 126 -5.680000000000007 126 -5 126 C-4.7499218750000125 126.58910156249999 -4.499843749999997 127.17820312499998 -4.2421875 127.78515625 C-2.835617526376808 130.29309705202627 -1.3444566635248236 131.62424578244105 0.875 133.4375 C4.01130000676261 136.08480699495553 6.43470777885409 138.7933847235676 9 142 C10.913690665756945 143.7455962153864 12.878726139158772 145.42252848766086 14.84765625 147.10546875 C18.401656380915256 150.23376287612322 21.68367024512395 153.6240954591082 25 157 C29.058696266536543 161.12156763727464 33.25838206382116 165.06915407102633 37.5 169 C40.930083750744956 172.1787706838587 44.35148463588828 175.35053093682342 47.65625 178.66015625 C50.024659459123285 181.02461836002476 52.48376327136293 183.23186124255406 55 185.4375 C57.80528298714148 187.93939682705064 60.46404676803826 190.37506960827642 62.8125 193.3125 C65.0021740539056 196.00267098051256 67.16623520389516 198.00870581895333 70 200 C70.65999999999997 200 71.32 200 72 200 C72.12632812499999 200.29583984375 72.12632812499999 200.29583984375 72.765625 201.79296875 C74.1454889761149 204.26013060602827 75.56361106656016 205.53711828854398 77.75 207.3125 C81.14023847198519 210.1612847777298 83.95005359508525 213.13387937939262 86.67578125 216.6171875 C88 218 88 218 91 219 C91.67055419921871 218.3294458007813 92.34110839843754 217.65889160156246 93.031982421875 216.968017578125 C100.02132161458337 209.97867838541663 107.01066080729169 202.98933919270831 114 196 C114.89775146484374 195.09701171874997 115.79550292968747 194.1940234375 116.720458984375 193.263671875 C118.70550756640768 191.29244230954998 120.73072005064364 189.48033157591414 122.875 187.6875 C126.43094492420471 184.62226203130933 129.46768357579538 181.31341819458467 132.45703125 177.69921875 C134.72136884834873 175.2055811416919 136.33809863483015 174.05023651381742 139.72557067871094 173.7931365966797 C140.8260322570801 173.81265884399414 141.9264938354492 173.8321810913086 143.060302734375 173.852294921875 C144.30847274780274 173.86858444213868 145.55664276123048 173.88487396240234 146.84263610839844 173.9016571044922 C147.50911603927614 173.91476110458373 148.17559597015384 173.9278651046753 148.86227226257324 173.9413661956787 C150.95133856549705 173.9808037378887 153.04007059056931 174.00516315013707 155.12940979003906 174.0249786376953 C161.06884309602214 174.08300933240938 167.0077748552414 174.1602379245707 172.946533203125 174.267333984375 C176.58094493710246 174.3318074064475 180.21495035111258 174.37184165868584 183.84984016418457 174.39650917053223 C185.23383327590324 174.4107622522622 186.61776311847058 174.4343632994492 188.00143241882324 174.46751976013184 C189.93731620117586 174.51326601924873 191.87390738997567 174.5253146855071 193.810302734375 174.535888671875 C194.91155990600583 174.5530241394043 196.01281707763673 174.5701596069336 197.14744567871094 174.5878143310547 C200.95391250818318 173.8034311077978 201.81213471331967 172.10759546801887 204 169 C208.89025852041055 166.27274044054028 213.44409535082804 165.06872455404357 219 166 C223.65696105162488 167.42508097754643 226.40848940915788 169.27539952621837 229.5 173.0625 C232.31200157351242 178.86147213382114 231.8314542282962 185.45944541353944 229.875 191.4375 C227.05152259109968 195.2962524588304 224.34734619929355 197.43446774736492 219.6328125 198.5703125 C213.93126148465996 199.3848197879057 210.11885764367787 198.91072297385608 205 196 C204.36473388671874 195.31719970703125 203.72946777343748 194.6343994140625 203.074951171875 193.930908203125 C198.20224120527945 190.87110168261654 193.25800633807643 191.32964952007677 187.61328125 191.29296875 C186.40109420776366 191.27728347778321 185.18890716552733 191.26159820556643 183.9399871826172 191.2454376220703 C181.37551812146796 191.2208199886071 178.81092288728672 191.20723208726315 176.246337890625 191.203857421875 C172.34239846538327 191.18762432180108 168.44389673915958 191.10218879457693 164.541015625 191.013671875 C162.04429342220288 190.99833267873166 159.54754168085577 190.98713206714643 157.05078125 190.98046875 C155.89314773559568 190.9465653991699 154.7355142211914 190.91266204833985 153.5428009033203 190.8777313232422 C145.4882999744703 190.9669437881018 141.6095152368256 193.0744197533349 135.9850311279297 198.8229522705078 C135.32997085571287 199.54137802124023 134.67491058349611 200.25980377197266 134 201 C133.13375000000002 201.825 132.26749999999998 202.64999999999998 131.375 203.5 C129.24406902797205 205.7430852337136 127.21824860131761 208.04179947933721 125.1875 210.375 C121.94742401701194 214.05523724860154 118.531732081852 217.28781815174534 114.80078125 220.4609375 C110.8829292082047 223.80938371359514 107.50334940184695 227.56081170171205 104.125 231.4375 C100.675380347834 235.36496070455337 97.00309252310467 238.6504736031165 93 242 C92.66999999999996 242.65999999999997 92.34000000000003 243.32 92 244 C84.99313352315937 240.89468417503656 79.64961026385174 234.93226137112123 75 229 C73.01739574281271 227.3126772279257 71.0167657957835 225.64633942512944 69 224 C66.76590688229817 221.82175921024066 64.58062677603073 219.6080012394168 62.42578125 217.3515625 C60.98567895915903 215.8661301128372 59.495805361077714 214.42932512280754 58 213 C57.34000000000003 213 56.68000000000001 213 56 213 C55.78859375000002 212.450859375 55.577187500000036 211.90171875 55.359375 211.3359375 C53.51972958095686 208.17470772819604 50.961514307193056 206.0182857626209 48.25 203.625 C39.988344739931904 196.17617747007733 32.20483562067005 188.2750657864662 24.39453125 180.359375 C22.054521455536616 178.0537209773966 19.648848075234895 175.86255233788933 17.1875 173.6875 C12.626730498736578 169.60859751449505 8.284988058053756 165.3648325560299 4 161 C0.22550787561982588 157.1810273286995 -3.6331642360042053 153.4705352509466 -7.5625 149.8125 C-7.844482421875 149.545986328125 -7.844482421875 149.545986328125 -9.271484375 148.197265625 C-12.021790919575324 145.63996304846506 -14.457551455656613 143.41178267170653 -18 142 C-21.316375851183693 144.78116822102146 -24.562549547902677 147.56254954790268 -27.625 150.625 C-29.960690556759346 152.96069055675935 -32.42318467811475 154.93854774249178 -35 157 C-37.48975994693416 159.45259935071124 -39.94138807639649 161.94052754244476 -42.39453125 164.4296875 C-46.72700516745408 168.81115546821687 -51.102421141539594 173.05285398593324 -55.7734375 177.0703125 C-58.7128704946839 179.61782109539269 -61.61304281846748 182.2057847820628 -64.5 184.8125 C-64.77062255859374 185.05286987304686 -64.77062255859374 185.05286987304686 -66.14013671875 186.269287109375 C-67.46548914865105 187.47149487710973 -68.73788009877634 188.73156949927022 -70 190 C-70 190.66 -70 191.32 -70 192 C-94.75 192 -119.5 192 -145 192 C-139 213 -139 213 -135 223 C-134.34 223 -133.68 223 -133 223 C-132.79375 223.763125 -132.5875 224.52625 -132.375 225.3125 C-123.83114945430387 248.22555373618502 -102.45286667198434 265.70088001554086 -85.52952861785889 282.58653700351715 C-83.05753018809664 285.0541589087237 -80.588482279402 287.52473029814274 -78.11904907226563 289.9949188232422 C-73.85488540832178 294.2596032191821 -69.58891559134833 298.52247372753203 -65.32166290283203 302.78406715393066 C-59.15216818351513 308.94538522973124 -52.98548370399129 315.10950985999455 -46.819450348615646 321.274291716516 C-36.81193103622397 331.2796301278998 -26.802187305339316 341.28274001166943 -16.791015625 351.284423828125 C-7.07433935077745 360.9919009927655 2.6412710926558987 370.70044286637454 12.35546875 380.410400390625 C12.955689174830923 381.0103580919653 13.555909599661817 381.61031579330563 14.17431852221489 382.2284540310502 C17.18587056802957 385.23870090434025 20.197401869353968 388.24896852997847 23.208922863006592 391.259246468544 C48.13606741946248 416.17604839533635 73.06683425031059 441.0892232758754 98 466 C101.15114665430394 464.6033548064312 103.28328765162894 462.9671319706641 105.71546459197998 460.53621768951416 C106.4424247759581 459.81447300016885 107.16938495993617 459.0927283108234 107.9183742403984 458.3491125702858 C108.70990104258061 457.5531243246794 109.50142784476282 456.757136079073 110.31694030761719 455.93702697753906 C111.16338680565354 455.0937004607915 112.00983330368996 454.2503739440441 112.88192969560623 453.3814920783043 C115.23070291972539 451.0393225077605 117.57490143724749 448.69273805590524 119.91727292537689 446.3441764116287 C122.44483048544453 443.81209929643273 124.97812911505184 441.2857773582946 127.51069641113281 438.7587127685547 C132.47316668708345 433.8051461291231 137.43020164677142 428.8461744161924 142.38532461971045 423.8852592781186 C146.41609152114523 419.84997614953676 150.4488056383343 415.8166487144367 154.48291969299316 411.78471183776855 C154.76998702900482 411.49779773479327 154.76998702900482 411.49779773479327 156.22272172942758 410.0458384864032 C157.38915554861728 408.88004413179874 158.5555938476934 407.71425425952117 159.72203657776117 406.5484688207507 C170.66799648670872 395.6082159675013 181.60781166094836 384.6618351131981 192.54554561525583 373.7133590504527 C201.91679677969682 364.33318872631077 211.29325585279287 354.95825110215634 220.673583984375 345.587158203125 C231.57196797200032 334.69949904573616 242.46707143758874 323.8085740893246 253.35703021287918 312.9124874472618 C254.52068312226697 311.7481974709796 255.6843401951947 310.58391165594395 256.84800148010254 309.4196300506592 C257.42049005564303 308.84683292407544 257.9929786311835 308.27403579749165 258.58281534537673 307.68388118222356 C262.6033484327309 303.661626535508 266.62618681915535 299.6416865703665 270.649938583374 295.622652053833 C275.5638279725671 290.71439684365794 280.4740872549196 285.80254345546496 285.3798569664359 280.886172182858 C287.879717199773 278.38108661877226 290.38109233840964 275.8775690124125 292.8868980407715 273.3784294128418 C295.6127912841644 270.65967754529896 298.3307827919272 267.93310915636107 301.0481414794922 265.20582580566406 C301.82851467311383 264.4299140554666 302.6088878667355 263.6540023052693 303.4129087328911 262.8545780777931 C314.31287412099505 251.8777899952243 323.91157996190987 239.91084458900048 330.59765625 225.91796875 C331.4578094606295 224.12817920030568 332.35392088254923 222.35449056944003 333.30859375 220.61328125 C337.1844142539395 213.50157322252227 339.25025370729304 205.98842461139475 341.368896484375 198.216796875 C341.80835983295754 196.67314998713562 342.27912810502494 195.13821729896983 342.773681640625 193.611328125 C344.71868021919 187.57050301853266 345.67895700751865 181.81713038366783 346.1875 175.5 C346.22842773437503 175.06365234375 346.22842773437503 175.06365234375 346.435546875 172.85546875 C349.12156726378646 142.38380887721274 341.799121935892 113.11768721938128 326 87 C325.26625190623986 85.6691823789644 324.5362115920816 84.33630211293791 323.8125 83 C322.10084398088725 80.16691417526172 320.35898614740427 78.28288982006859 318 76 C316.98133770757966 74.34467377481695 315.98189187420826 72.67739861843916 315 71 C304.3782036650732 56.83760488676427 289.7198221874102 45.417874001029276 274.5625 36.5625 C273.95857421875 36.207604980468744 273.3546484375 35.8527099609375 272.732421875 35.487060546875 C269.92983022451097 33.89298758408978 268.28026032598564 33 265 33 C265 32.34 265 31.680000000000007 265 31 C255.87627316140737 26.795929790060256 246.63770772827144 24.08807075104994 236.947509765625 21.548828125 C235 21 235 21 232.12890625 19.92578125 C227.58206562256805 18.580461363980817 223.02484190944 18.27012420134136 218.3125 17.875 C217.36310546875 17.788632812499998 216.4137109375 17.702265624999995 215.435546875 17.61328125 C207.85261300938987 16.937096064531573 200.70725179496418 17.30935810629262 193.125 17.9375 Z " fill="#000000" transform="translate(201,65)"/>
<path d="M0 0 C0.42619628906248863 0.021269531249998863 0.42619628906248863 0.021269531249998863 2.5830078125 0.12890625 C20.890010210229207 1.1250319472604673 38.31809895772045 4.127164048924186 55 12 C56.39523108671801 12.628941888505935 57.79111465156416 13.256437497995918 59.1875 13.8828125 C66.87800079265486 17.37063835588765 74.21292362366017 20.916675306609676 81 26 C81.64710937500001 26.469218749999996 82.29421875000003 26.938437499999992 82.9609375 27.421875 C88.43670837345519 31.447540543330717 93.71302042749477 35.73141403367407 99 40 C97.57621053101252 43.36397926351452 95.87389573642554 45.196435523226754 93.0625 47.5 C90.26759113372049 49.798616637687815 88.07773527665455 52.02994581142798 86 55 C85.28843749999999 54.270390625000005 84.57687499999997 53.54078125000001 83.84375 52.7890625 C68.63038580471505 37.86826300077824 49.557831574149986 28.83237662969242 29.1103515625 23.54931640625 C26.30671338517709 22.81954015694683 23.531794446327382 21.99598295891883 20.75 21.1875 C11.900444598743064 18.669954066883804 2.9392506182869056 18.817177985965287 -6.1875 18.8125 C-7.425644531249986 18.800253906249992 -8.663789062500001 18.7880078125 -9.939453125 18.775390625 C-20.33154592799562 18.75905941577581 -30.141229152696496 19.591772574008786 -40 23 C-41.38017784459157 23.376711048676952 -42.7641460989563 23.7399470687256 -44.15234375 24.0859375 C-54.14815437001363 26.729535909607904 -63.205706277504476 30.25866244633893 -72.375 35.0625 C-72.85900268554687 35.31572021484375 -72.85900268554687 35.31572021484375 -75.308349609375 36.59716796875 C-80.368882339018 39.330932067931315 -84.71703663779061 42.16753125973031 -89 46 C-90.19993474515137 46.88648240356082 -91.40726478682824 47.76313261168208 -92.625 48.625 C-103.3873580009452 56.639961428726934 -112.64161530907415 66.22699501962603 -120.54296875 77.04296875 C-121.61951978679531 78.48895285036048 -122.7637237524809 79.88512048577263 -123.94140625 81.25 C-126.4375054817336 84.58444755055115 -128.0603032614265 88.02337319354226 -129.75 91.8125 C-129.90791015625 92.158935546875 -129.90791015625 92.158935546875 -130.70703125 93.912109375 C-131.47768245037886 95.60520670916571 -132.23973361956348 97.30221412233982 -133 99 C-133.66 99 -134.32 99 -135 99 C-135.1585546875 99.53625 -135.317109375 100.07249999999999 -135.48046875 100.625 C-136.90195923419253 105.39995146071305 -138.35634626511313 110.16344161067309 -139.84765625 114.9169921875 C-140.28638266349458 116.31789554076937 -140.722538184671 117.7196063620388 -141.15625 119.1220703125 C-142.031644784721 121.94853438256132 -142.9145456611941 124.76290966424921 -143.91796875 127.546875 C-148.78855805568622 141.49110022034026 -149.1129441183121 158.53608078611805 -147 173 C-137.94190527488308 172.9851305087867 -128.88444121294447 172.94356235017267 -119.8266487121582 172.86790943145752 C-115.62068807140307 172.8336191249601 -111.41509142234229 172.80852636383779 -107.208984375 172.804443359375 C-103.14971352353125 172.80016464286322 -99.09126404716831 172.7717388193169 -95.0322494506836 172.7265682220459 C-93.48375991146344 172.71357930819363 -91.93517213994386 172.70929051512545 -90.38663482666016 172.71384620666504 C-88.21681561313078 172.71874294985275 -86.04940575777985 172.69270862593845 -83.8798828125 172.659423828125 C-82.64522277832032 172.6527619934082 -81.41056274414062 172.6461001586914 -80.13848876953125 172.6392364501953 C-77 172 -77 172 -74.67083740234375 169.5542449951172 C-74.39514923095703 169.13279457092284 -74.39514923095703 169.13279457092284 -73 167 C-71.92830657802784 165.98539436321767 -70.82315562228783 165.0049636313699 -69.6875 164.0625 C-65.55432431548286 160.53191815359938 -61.58756614983261 156.8440950456016 -57.625 153.125 C-51.81270489034364 147.67776283442302 -45.94578253255173 142.30165609152527 -40 137 C-30.68493150684904 128.68493150684904 -30.68493150684904 128.68493150684904 -27.3125 125.3125 C-25.380522181014243 123.38052218101424 -23.44597414186825 121.47669451476037 -21.4375 119.625 C-20.879335937500002 119.10164062500002 -20.321171875000005 118.57828125 -19.74609375 118.0390625 C-17.99999999999997 117 -17.99999999999997 117 -16 117.1328125 C-13.625309866171449 118.16246330021471 -12.3338771994853 119.36816740932278 -10.5625 121.25 C-9.954062499999992 121.88421875 -9.345625000000013 122.5184375 -8.71875 123.171875 C-8.151562500000011 123.77515625000001 -7.584374999999994 124.37843750000002 -7 125 C-3.503658238350539 128.5859915504097 0.1333632985490283 131.90432669069514 3.9375 135.15625 C6.390010722680302 137.3486459490627 8.687216308862617 139.66032347524472 11 142 C12.124325741865704 143.125673854266 13.249370629518438 144.250629722774 14.375 145.375 C16.791666666666572 147.79166666666657 19.2083333333334 150.2083333333334 21.625 152.625 C22.205722656250003 153.20515869140624 22.786445312500007 153.7853173828125 23.384765625 154.383056640625 C24.75022190793385 155.74995763244345 26.11011597169204 157.1224115599861 27.46875 158.49609375 C30.755389353651196 161.74722928347285 34.1210898136481 164.90773534086156 37.5 168.0625 C38.150976562500006 168.67416015625 38.80195312500001 169.2858203125 39.47265625 169.916015625 C42.182984387809284 172.44839292547837 44.877917376056985 174.90277970818022 47.78125 177.21484375 C49.823500422305955 178.85799241724263 51.36925279124989 180.46156598906236 53 182.5 C55.42398103738418 185.4212079168476 58.01626877800231 187.64442271947553 61 190 C61.61874999999998 190.804375 62.23750000000001 191.60875 62.875 192.4375 C64.71483582434928 194.65612555289175 65.98072605866633 195.7649083863754 68.3125 197.3125 C71.94505329745317 199.7782802897059 74.5621067510192 202.73825812537473 77.37890625 206.08203125 C81.1704280713958 210.567904055555 85.46231948202342 214.30653911327488 90 218 C96.46241927024488 212.6417556779162 102.27350552432034 206.76271536976031 108.123046875 200.75 C108.85201171875002 200.010078125 109.58097656249998 199.27015625 110.33203125 198.5078125 C110.66062133789063 198.17080322265622 110.66062133789063 198.17080322265622 112.323486328125 196.46533203125 C114 195 114 195 116 195 C116.2578125 194.41734375 116.515625 193.83468749999997 116.78125 193.234375 C118.09834016593061 190.81970969579388 119.55088384133387 189.1825982251181 121.5 187.25 C122.10843749999998 186.63640625 122.71687500000002 186.0228125 123.34375 185.390625 C125 184 125 184 127 184 C127.26351257324217 183.41668914794923 127.52702514648439 182.83337829589843 127.79852294921875 182.23239135742188 C130.0359711956459 178.07512499535952 132.87540746515424 175.30446387717987 137 173 C141.81651832263015 172.1127169211153 146.55110059212547 172.30159309344396 151.421875 172.4921875 C152.81326857297626 172.51798920514221 154.20473906704802 172.53990601402992 155.59625244140625 172.55813598632813 C159.23878653887022 172.61288653896875 162.87917982213816 172.70548433132325 166.52056884765625 172.810791015625 C172.3613857469266 172.97901012417572 178.20194501546405 173.1144372774886 184.0445327758789 173.2018165588379 C186.07983591518894 173.2416099640309 188.1123515639125 173.31317401955553 190.14666748046875 173.38693237304688 C191.38185119628906 173.40990386962892 192.61703491210938 173.43287536621094 193.8896484375 173.45654296875 C194.97582458496095 173.48875946044922 196.0620007324219 173.52097595214843 197.18109130859375 173.55416870117188 C200.97577190334442 172.80817319483782 201.82323364189347 171.08933912384043 204 168 C208.87964515310057 165.27865943384776 213.45323786576859 164.04912649127462 219 165 C224.29253339691223 166.79309874649485 227.937591107591 169.22264212784194 231 174 C232.87781006040478 179.6334301812144 232.71300253370305 185.73516842235506 230.9375 191.375 C227.83006519836977 195.58507295704737 224.70344284440023 198.29267867794988 219.56640625 199.63671875 C213.91020724285295 200.43736792452768 210.06638266034162 199.88088425784133 205 197 C204.36545898437498 196.316474609375 203.73091796875002 195.63294921875 203.0771484375 194.9287109375 C198.19262549745372 191.86716450570327 193.23249750766092 192.34962081690594 187.578125 192.328125 C186.36356628417968 192.3148114013672 185.14900756835937 192.3014978027344 183.89764404296875 192.28778076171875 C181.32895964877105 192.26754386622991 178.76017027880812 192.25814622865892 176.19140625 192.2587890625 C172.27686379842612 192.25005990440684 168.36686663494288 192.17747134279364 164.453125 192.1015625 C161.95314036219708 192.0898217203934 159.45313437813365 192.08188590415784 156.953125 192.078125 C155.79033020019529 192.0493829345703 154.62753540039063 192.0206408691406 153.42950439453125 191.99102783203125 C147.18968469603425 192.06056274668924 143.60594196934932 192.7111208025085 138.8466796875 196.9091796875 C137.5395441075466 198.24892778272647 136.2533053184722 199.60976470993853 135 201 C134.175 201.78375 133.35000000000002 202.5675 132.5 203.375 C130.14542387438615 205.84730493189454 127.88780430169402 208.38136921475308 125.625 210.9375 C122.44752737580444 214.49500257260434 119.21528294413349 217.6927120026662 115.5390625 220.72265625 C111.47546196709226 224.09523841817474 108.05489159693298 228.05866991731773 104.5625 232 C101.24348873028424 235.7228243075312 97.87433805124488 238.88163034899804 94 242 C93.33999999999997 242.99 92.68 243.98000000000002 92 245 C88.43082938721608 243.45857989701938 85.91782230830017 241.30524541361876 83.0625 238.6875 C82.18335937500001 237.8818359375 81.30421875000002 237.076171875 80.3984375 236.24609375 C77.87488221109311 233.8828294322126 75.41008722951358 231.47894686464258 73 229 C72.53593749999999 228.55656249999998 72.53593749999999 228.55656249999998 70.1875 226.3125 C68 224 68 224 68 222 C67.71060546875003 221.868515625 67.71060546875003 221.868515625 66.24609375 221.203125 C60.00104145967396 217.85794916448617 55.46665406644399 212.3599848797328 51 207 C49.802536096087096 205.9217856134892 48.58575515702833 204.864825025752 47.35546875 203.82421875 C42.95833652434453 200.02256273577166 38.881672895545194 195.95955180263695 34.8125 191.8125 C30.692794990180687 187.61528407748418 26.632392562196685 183.63584424629556 22 180 C20.31154966331337 178.35540551621432 18.646708712416938 176.68638844042698 17 175 C15.949257752775765 173.94657728785938 14.897098615583388 172.89456652756516 13.84375 171.84375 C11.614583333333314 169.61458333333331 9.385416666666657 167.38541666666666 7.15625 165.15625 C6.887117919921877 164.88735961914063 6.887117919921877 164.88735961914063 5.525146484375 163.526611328125 C4.181221825127636 162.18139588162688 2.8421788082544026 160.8313072477685 1.50390625 159.48046875 C-1.4686991557872773 156.53568804379887 -4.500132356503002 153.66342683957316 -7.5625 150.8125 C-7.844482421875 150.545986328125 -7.844482421875 150.545986328125 -9.271484375 149.197265625 C-12.021790919575295 146.63996304846506 -14.457551455656585 144.41178267170653 -18 143 C-22.715311753802894 146.83804445076981 -27.004993426807403 150.8909930511964 -31.1875 155.3125 C-33 157 -33 157 -35 157 C-35.2410546875 157.5775 -35.48210937499999 158.155 -35.73046875 158.75 C-37.24817821084858 161.4398481521501 -38.97567408403225 162.98061524773982 -41.3125 165 C-45.45242477690212 168.6314080051728 -49.52903783842979 172.31414865710948 -53.5625 176.0625 C-58.106173727518694 180.27852740644195 -62.70204355172103 184.42111066334996 -67.390625 188.4765625 C-69 190 -69 190 -70 192 C-79.45063776234899 192.02338518610713 -88.90126524744494 192.04104631126762 -98.35192584991455 192.05181217193604 C-102.74235890394701 192.05698464086117 -107.13277186414751 192.06397702048855 -111.523193359375 192.075439453125 C-115.77669147601654 192.08647225911284 -120.03017052515098 192.09231899968552 -124.28368186950684 192.094877243042 C-125.8896025276214 192.09669540722734 -127.49552239297009 192.10024339415747 -129.1014347076416 192.1057300567627 C-140.76631801073975 192.14392216709314 -152.35704303916626 191.71336233353588 -164 191 C-166.28813775482584 181.06129593500697 -166.39776070058315 171.33251025674454 -166.375 161.1875 C-166.3747885131836 160.32139099121093 -166.37457702636718 159.45528198242187 -166.37435913085938 158.56292724609375 C-166.34136480399536 145.02774741341506 -165.5376026373395 132.12947324827942 -162 119 C-161.88777099609376 118.5810546875 -161.88777099609376 118.5810546875 -161.31982421875 116.4609375 C-159.99100965037917 111.60254628985587 -158.55070825210134 106.79194271346068 -157 102 C-156.34 102 -155.68 102 -155 102 C-154.9084765625 101.34644531250001 -154.816953125 100.69289062500002 -154.72265625 100.01953125 C-153.76308938507984 96.01009780900927 -152.1292438943773 92.43613647090734 -150.4375 88.6875 C-150.272822265625 88.31721679687502 -150.272822265625 88.31721679687502 -149.439453125 86.443359375 C-148.6308287715396 84.62688437809621 -147.81602884180117 82.81316069026838 -147 81 C-146.34 81 -145.68 81 -145 81 C-144.7421875 80.29488281250002 -144.484375 79.58976562499998 -144.21875 78.86328125 C-142.89669813886587 75.75730684547653 -141.30252146345106 73.04021934999565 -139.5 70.1875 C-138.8915625 69.21167968750001 -138.28312499999998 68.23585937500002 -137.65625 67.23046875 C-137.1096875 66.4944140625 -136.563125 65.758359375 -136 65 C-135.34 65 -134.68 65 -134 65 C-133.8040625 64.32453125 -133.608125 63.649062500000014 -133.40625 62.953125 C-131.45685147370102 58.859388094772115 -128.61856158875582 56.00250771233087 -125.5 52.75 C-124.8743212890625 52.089033203125 -124.248642578125 51.42806640625 -123.60400390625 50.7470703125 C-117.54431790121068 44.40680022792317 -111.26552988079969 37.966311564090915 -104 33 C-103.34 33 -102.68 33 -102 33 C-101.67 32.00999999999999 -101.34 31.019999999999996 -101 30 C-98.87497639603556 28.487908374321904 -96.79900338421373 27.135266172695395 -94.5625 25.8125 C-93.96373046875 25.44447265625 -93.3649609375 25.0764453125 -92.748046875 24.697265625 C-88.27929325139148 22 -88.27929325139148 22 -86 22 C-86 21.340000000000003 -86 20.680000000000007 -86 20 C-82.70923305894937 18.58123710683934 -79.41721965867806 17.165388236008496 -76.125 15.75 C-75.2071875 15.354257812499995 -74.289375 14.958515625000004 -73.34375 14.55078125 C-49.6135415669938 4.356818472440992 -26.06471444271199 -1.4552114321910352 0 0 Z " fill="#BC02F6" transform="translate(201,65)"/>
</svg>
