<?xml version="1.0" encoding="UTF-8"?>
<!-- Generator: visioncortex VTracer 0.6.12 -->
<svg version="1.1" xmlns="http://www.w3.org/2000/svg" width="2500" height="2500">
<path d="M0 0 C0.8556920242308479 -0.0011505889892475807 1.7113840484619232 -0.002301177978523583 2.593006134033203 -0.00348663330078125 C33.89633263938504 -0.03261479811894219 64.90628994527628 1.0427884284030426 96.0625 4.3125 C96.57078338623046 4.365774536132818 96.57078338623046 4.365774536132818 99.14300537109375 4.6353759765625 C193.24443120612068 14.646365024214958 285.0753016057972 38.78642041854687 382.9375 80.6875 C383.7684216308594 81.04832672119142 384.5993432617188 81.40915344238283 385.4554443359375 81.78091430664063 C396.11502467583455 86.42669212833226 406.44976008914387 91.50449053132928 416.70068359375 96.99169921875 C422.3789691461461 100.02980887459114 428.15513087705676 102.85318814354275 433.9375 105.6875 C444.68767975834703 111.01681084642871 455.1504302343203 116.7116861410355 465.48828125 122.798828125 C468.110698312983 124.34084119314258 470.7420884670364 125.86661124405833 473.375 127.390625 C494.53633170204876 139.69944719878504 515.3053059699873 152.8583268073329 535.25 167.0625 C536.7094800457614 168.09917710611734 538.1691201714073 169.13562887524455 539.62890625 170.171875 C540.3612548828125 170.69201171875 541.0936035156251 171.2121484375 541.84814453125 171.748046875 C544.0251716213804 173.28612731530382 546.2118112797889 174.80935582065365 548.40234375 176.328125 C555.9394175432567 181.56732089016305 563.2782831553654 186.94998786147187 570.39892578125 192.744384765625 C574.3412784161033 195.95099103034931 578.3407893927645 199.061206046984 582.399169921875 202.11962890625 C590.6519602528624 208.33925804859678 598.5117489804584 214.88508740558234 606.25390625 221.72607421875 C608.6408407102456 223.8197972374698 611.05865316624 225.87587220528383 613.478271484375 227.931640625 C619.9846082706122 233.4616234412478 626.326755783241 239.14190309300693 632.5859375 244.94921875 C634.0914331946033 246.33921345216015 635.6065650141702 247.71790916258567 637.125 249.09375 C642.7440571065392 254.19199465930348 648.2239566036494 259.3863383512707 653.515625 264.828125 C655.5928739685864 266.85439853377443 657.7012825178085 268.7390598938381 659.90234375 270.625 C664.0152980173812 274.19321120043287 667.7020141555527 278.0492055629361 671.375 282.0625 C675.8544937419281 286.9044702585077 680.3689766003788 291.6772410287879 685.0625 296.3125 C688.6442198751183 299.85724046637824 692.0570443808529 303.4650377032849 695.328125 307.296875 C697.3216258082498 309.6136462095876 699.3780438817637 311.8666998427616 701.4375 314.125 C704.5667282666298 317.5878008229711 707.5675034891094 321.1192900341355 710.5 324.75 C713.5478165857071 328.5227312944605 716.6993551570506 332.1341495362624 720 335.6875 C724.897365779754 341.0211902271053 729.2858724546365 346.6699740602477 733.640625 352.44482421875 C735.7459526796731 355.2102357485403 737.8952038513935 357.9406729445418 740.040283203125 360.67529296875 C752.1857595040492 376.1788035630967 763.6966205887725 392.05434633828736 774.7333984375 408.36376953125 C776.3300232678218 410.70474296909515 777.9731332685637 413.01026061826406 779.625 415.3125 C784.5110828796685 422.26346311382804 788.9454585641699 429.5190496316617 793.443359375 436.72412109375 C795.0327640114301 439.26496366845333 796.6328045618116 441.79884446875917 798.234375 444.33203125 C806.0003857640654 456.675925997655 813.2110814756179 469.2852566856468 820.251708984375 482.054931640625 C821.5467294259179 484.38464146285855 822.851940492842 486.70591240319106 824.172119140625 489.021240234375 C829.7360684239811 498.7915909655851 834.9748830267536 508.69215323427056 840 518.75 C840.4036880493163 519.5576379394531 840.8073760986326 520.3652758789062 841.2232971191406 521.1973876953125 C883.0509962293054 605.1687127904839 911.8863772363216 695.706733105549 936.0625 879.3125 C926.2381410650733 880.7437715280021 916.5195142880925 881.6046220327603 906.598876953125 881.970458984375 C901.7007534599743 882.1563199994189 896.8685081073713 882.5153601120367 891.99560546875 883.038818359375 C885.697647139782 883.6264670431417 879.3764679056212 883.9443157672899 873.0625 884.3125 C872.9476928710938 883.0084521484375 872.8328857421875 881.704404296875 872.714599609375 880.36083984375 C866.231086650565 807.5028192443033 853.8357448820616 735.8947613399342 830.7402954101563 666.3569946289063 C830.067782413269 664.3284338133518 829.4011392992797 662.2980266183279 828.73583984375 660.26708984375 C812.0658996473476 609.5013696967707 790.4677103520503 559.7853405665454 764.0625 513.3125 C763.4920898437499 512.3020361328124 762.9216796875 511.29157226562506 762.333984375 510.25048828125 C737.5871839143983 466.4917124936395 709.4192066923356 424.9200509562962 677.50244140625 386.068359375 C676.2188429887547 384.50314407852215 674.9428692847446 382.9316830004353 673.66796875 381.359375 C664.8358637368847 370.4744023351875 655.7150864203829 359.8820774570048 646.14453125 349.640625 C643.7016076067209 347.0241187266089 641.3200599839922 344.35748480122686 638.9404296875 341.683349609375 C634.4162332081532 336.65362105207146 629.7226114772293 331.8273949933475 624.93359375 327.05078125 C624.0996559143066 326.21588668823244 623.2657180786132 325.3809921264649 622.4065093994141 324.5207977294922 C620.6590337338362 322.7726471931212 618.9103172736307 321.02573614573987 617.160400390625 319.280029296875 C614.4996597237059 316.62466041069115 611.8443206987581 313.96397382699297 609.189453125 311.302734375 C607.4794872964212 309.5934291861453 605.7692113790986 307.8844341376778 604.05859375 306.17578125 C603.6668169403076 305.78299232482914 603.6668169403076 305.78299232482914 601.6841888427734 303.7952423095703 C597.5111685290665 299.6397337150951 593.2604724640869 295.6389552280748 588.7911071777344 291.80299377441406 C586.2138898461685 289.5807847974471 583.7400762221268 287.2569276418692 581.25 284.9375 C576.6055840257468 280.6469512970307 571.8249120073394 276.5837758569123 566.8984375 272.6171875 C564.3603318707037 270.5545396745388 561.8643184906562 268.4542116241744 559.378662109375 266.329345703125 C552.1005846007615 260.1095405949544 544.6406932650302 254.16139315174667 537.0625 248.3125 C536.2887402343749 247.712763671875 535.5149804687501 247.11302734375 534.7177734375 246.4951171875 C474.2661986583814 199.70225427900425 407.5353698977942 160.90825779919544 337.0625 131.3125 C336.4064880371093 131.03682189941406 335.7504760742188 130.76114379882813 335.0745849609375 130.47711181640625 C298.09780025318764 114.99332860029801 259.89074381822957 102.25016144417123 221.0625 92.3125 C220.37319396972657 92.13479064941407 219.68388793945314 91.95708129882814 218.97369384765625 91.77398681640625 C164.02936576171987 77.61520042913935 107.73856149430208 68.47539474190899 51.0625 65.3125 C50.2984484863282 65.26979980468752 49.534396972656396 65.22709960937499 48.7471923828125 65.18310546875 C34.34631468307748 64.39940307193734 19.983024748543357 64.14647350307956 5.5625 64.1875 C4.513364257812555 64.18971557617186 3.464228515625109 64.19193115234373 2.38330078125 64.1942138671875 C-4.723839773567306 64.21170985779736 -11.830600685204445 64.2517489407631 -18.9375 64.3125 C-19.69240722656241 64.31874389648436 -20.447314453125045 64.32498779296873 -21.22509765625 64.3314208984375 C-88.40063713688824 64.95636518016659 -156.03515136543274 75.29173992702937 -220.9375 92.3125 C-221.68197387695318 92.50672546386716 -222.42644775390636 92.70095092773437 -223.1934814453125 92.90106201171875 C-280.15217809457477 107.78278638870756 -334.89384910902027 128.67453664084582 -387.666015625 154.7001953125 C-390.7154316059764 156.20305674073643 -393.7709383704023 157.69271687586956 -396.828125 159.1796875 C-437.9978920332036 179.3285962448731 -476.91146512402736 204.36669801473977 -513.9375 231.3125 C-514.6547021484375 231.83134765625 -515.3719042968751 232.35019531249998 -516.11083984375 232.884765625 C-526.0255153050479 240.06457236957738 -535.7156292783577 247.4346674389593 -545.16015625 255.22265625 C-548.2046920239857 257.7296912252938 -551.2985216989858 260.1625444355449 -554.420166015625 262.572509765625 C-560.6479689093806 267.3825174985974 -566.5203557053413 272.44489370594124 -572.265625 277.8203125 C-574.4986525811075 279.9031657116178 -576.7568144732096 281.9361649627459 -579.0625 283.9375 C-583.7423872777448 288.00237129052584 -588.3458986346952 292.14833327506653 -592.9375 296.3125 C-593.8629663085937 297.1511157226562 -594.7884326171875 297.9897314453125 -595.741943359375 298.853759765625 C-603.9736566067112 306.36002085881535 -611.9140178867249 314.13394018796396 -619.7783203125 322.02294921875 C-621.8276351142708 324.0776750773666 -623.8823126272453 326.12693102996013 -625.9375 328.17578125 C-627.2685502496593 329.50749165353216 -628.5992906136235 330.8395118773067 -629.9296875 332.171875 C-630.2302757263184 332.4714511108398 -630.2302757263184 332.4714511108398 -631.7514343261719 333.98748779296875 C-635.4356407853727 337.6917809393045 -638.9304092753297 341.5164091296292 -642.3390502929688 345.47593688964844 C-644.9149926526048 348.43560505517746 -647.6204431474503 351.2713867656071 -650.3125 354.125 C-655.0426970829362 359.1750614128998 -659.5193272132308 364.3522840165384 -663.84375 369.7578125 C-665.8779770318197 372.23987309479503 -668.003352186209 374.58716702646416 -670.1875 376.9375 C-675.3312472780111 382.58938175781464 -679.8767410588301 388.6563159709325 -684.4765625 394.75 C-687.3503113002209 398.55555491318296 -690.2806470960536 402.3127410684981 -693.229736328125 406.06005859375 C-699.9000507789998 414.5472081074406 -706.235238037849 423.21270110535465 -712.3837890625 432.08349609375 C-714.0098483413993 434.4162932679095 -715.6551379009259 436.7345426087444 -717.3046875 439.05078125 C-751.8505520588814 487.6861294621882 -780.5412004918489 540.4912865938544 -803.9375 595.3125 C-804.4500634765625 596.510361328125 -804.962626953125 597.70822265625 -805.49072265625 598.9423828125 C-838.6795456038388 677.0642872532688 -859.7347930948729 760.4324456319368 -873.6474609375 924.406982421875 C-873.6611672973632 925.1954606628419 -873.6748736572265 925.9839389038086 -873.6889953613281 926.7963104248047 C-873.7133934416133 928.2680934019477 -873.7334014789408 929.7399580960462 -873.7482604980469 931.2118682861328 C-873.826735771326 936.0909715426519 -873.826735771326 936.0909715426519 -874.9375 938.3125 C-895.7275 938.3125 -916.5174999999999 938.3125 -937.9375 938.3125 C-937.9375 842.0269064459958 -923.6879273159755 746.8062131501383 -842.9375 525.3125 C-842.5970062255859 524.6119549560547 -842.2565124511718 523.9114099121093 -841.9057006835938 523.1896362304688 C-833.918979328137 506.77387083133885 -825.7361679820967 490.52866919552275 -816.42041015625 474.81640625 C-814.844582134659 472.1556074041922 -813.2866737342883 469.484818375902 -811.73046875 466.8125 C-801.0757688592083 448.57309849203466 -789.7629523862544 430.8123681298332 -777.9375 413.3125 C-777.6791235351562 412.9284399414063 -777.6791235351562 412.9284399414063 -776.37158203125 410.98486328125 C-765.5662448500956 394.9381560177627 -754.1896673654967 379.3366288573318 -742.3037109375 364.0732421875 C-740.7393167553558 362.0570858541148 -739.186122073643 360.03252007317406 -737.6328125 358.0078125 C-730.7914055961292 349.11511840031835 -723.7783032737365 340.44233625689003 -716.396484375 331.99365234375 C-714.9222482984153 330.2949258338166 -713.4665146511289 328.58197529935137 -712.015625 326.86328125 C-706.218789147342 320.00662276424373 -700.2641811978581 313.33857567833616 -694.09619140625 306.812744140625 C-690.9027562712947 303.43333445431915 -687.7722813661836 300.0108708652865 -684.68359375 296.53515625 C-679.711343775886 290.9921994926517 -674.4760682594426 285.73953018000407 -669.1875 280.5 C-668.2683984375001 279.58541015624996 -667.3492968749999 278.6708203124999 -666.40234375 277.728515625 C-664.6994191831782 276.03421658058596 -662.9954581347622 274.34095806468474 -661.2900390625 272.649169921875 C-657.5877130213256 268.97181806009826 -653.9005808872255 265.27980245317553 -650.23046875 261.5703125 C-648.8620317992263 260.19265605100173 -647.4935410295577 258.8150530589151 -646.125 257.4375 C-645.45146484375 256.7555859375 -644.7779296875 256.073671875 -644.083984375 255.37109375 C-639.5381174225524 250.80347623797127 -634.8377794262799 246.49604838854304 -629.9375 242.3125 C-629.3715209960938 241.82491210937496 -628.8055419921875 241.33732421875004 -628.222412109375 240.8349609375 C-626.5887137498617 239.42817189809801 -624.9511565436367 238.02600908027068 -623.3125 236.625 C-622.7162280273437 236.11445068359376 -622.1199560546875 235.60390136718752 -621.505615234375 235.077880859375 C-619.0633998250325 232.98679598770002 -616.620361759052 230.89667355476183 -614.17724609375 228.806640625 C-613.0267371186351 227.82225487290964 -611.8764273016141 226.8376363047193 -610.726318359375 225.852783203125 C-609.5676601904081 224.86093510571914 -608.4083080736691 223.86989713605908 -607.248291015625 222.879638671875 C-604.2709217359841 220.33331828725204 -601.314853391189 217.7674059873691 -598.390625 215.16015625 C-590.2239758555332 207.90901111375 -581.729990154038 201.3332350999832 -572.8828125 194.93359375 C-569.6806037580213 192.61045950635668 -566.5343197083362 190.23707166508035 -563.4296875 187.78515625 C-547.9493026542635 175.59611988757365 -531.5346887042988 164.8492335182599 -515.0844879150391 154.02813720703125 C-511.1014631850087 151.4075023778695 -507.1281450473707 148.7742629963244 -503.174560546875 146.109375 C-494.6441256288796 140.36294209925268 -486.08903949104035 134.86623517981127 -477.125 129.8125 C-476.0202734375 129.1835986328125 -474.915546875 128.554697265625 -473.77734375 127.90673828125 C-471.5459935121289 126.63650102746192 -469.3134392630525 125.36837607287697 -467.07958984375 124.1025390625 C-464.2144975274989 122.47030465202965 -461.3640988720949 120.81610696018964 -458.51953125 119.1484375 C-448.02204821789405 113.0161553286298 -437.3478683372241 107.38111874930905 -426.431640625 102.02685546875 C-421.46190278265806 99.58846951091107 -416.53410833076964 97.111098097732 -411.6744384765625 94.45855712890625 C-402.3611972051564 89.38691998960468 -392.78079291201936 85.0462986467295 -383.0625 80.8125 C-382.1816674804687 80.42743286132816 -381.30083496093755 80.04236572265626 -380.393310546875 79.6456298828125 C-315.1173599240989 51.167997182851934 -247.89211485212263 30.145725035301325 -178 16.5 C-177.30665557861312 16.364517517089837 -176.6133111572267 16.229035034179674 -175.89895629882813 16.089447021484375 C-170.91898396760007 15.123081305706307 -165.93138386666283 14.204055673730977 -160.9375 13.3125 C-160.05856079101568 13.155274658203098 -159.17962158203136 12.998049316406252 -158.2740478515625 12.8360595703125 C-143.67888125685454 10.251479143614915 -129.06656672551162 8.215065659424681 -114.33837890625 6.55712890625 C-111.06962757791302 6.188304229613976 -107.80239868420631 5.8077175381477275 -104.53515625 5.42578125 C-89.36175432568098 3.6759753583591817 -74.17935975358319 2.3046029679337323 -58.9375 1.3125 C-58.49519546508782 1.283591766357432 -58.49519546508782 1.283591766357432 -56.256866455078125 1.137298583984375 C-37.53296363996924 -0.026079970830068078 -18.753144564276226 0.021984830776915487 0 0 Z " fill="#BC02F7" transform="translate(1249.9375,249.6875)"/>
<path d="M0 0 C1.008691406249909 0.4685742187500068 2.0173828125000455 0.9371484375000136 3.056640625 1.419921875 C26.706133273504292 12.425131325294046 49.62979237266768 24.58674768910987 72 38 C72.40242919921866 38.24089355468749 72.40242919921866 38.24089355468749 74.43896484375 39.4599609375 C79.65583001873392 42.592525621732875 84.83566087153895 45.78170612878313 90 49 C90.86334960937506 49.53592773437498 91.7266992187499 50.071855468750016 92.6162109375 50.6240234375 C104.73954850142309 58.16829420411591 116.50108790182435 66.04160616234469 127.986328125 74.5244140625 C130.4741793581934 76.34747090699818 132.99177971135646 78.12562514736146 135.513671875 79.901123046875 C142.6155010475129 84.90695398638672 149.4560106744418 90.19932100619576 156.25 95.61328125 C157.99140382304972 96.99318829728259 159.74344164198965 98.35820145038042 161.5 99.71875 C169.2761722526402 105.75049075400102 176.8015206546038 112.01951849008606 184.232421875 118.470703125 C186.6291481374676 120.54433479738896 189.04181504755252 122.59901186562638 191.453857421875 124.65478515625 C200.775166108514 132.60900235547797 209.80260837074343 140.7375537156679 218.421875 149.453125 C220.51726995769354 151.5231212309336 222.6316046523732 153.4709417637789 224.875 155.375 C232.9050040247937 162.24603437173073 240.3767309594432 169.92840511795634 247.203125 177.98828125 C249.48667121276503 180.54486016211752 251.92598189768842 182.91422122301265 254.375 185.3125 C258.84726335613664 189.70643600948097 262.84790432947557 194.3483505311067 266.75390625 199.25 C269.07804430987176 202.09555338112978 271.50992644205235 204.7989032591754 274 207.5 C282.334875776603 216.57974911257054 289.87357355482186 226.30991418069004 297.45068359375 236.02099609375 C299.10201001895007 238.1303014833925 300.7635219906799 240.23133311367565 302.42578125 242.33203125 C309.53856184817846 251.35295202788222 316.28316936309466 260.5222884963333 322.6865234375 270.05859375 C323.9853053502054 271.97828032431835 325.3045968819649 273.8818328467479 326.6328125 275.78125 C337.267873446222 291.0106261270905 347.31153307488717 306.69778754808385 356.6767578125 322.74072265625 C357.64409974733303 324.3923430003357 358.61838244144633 326.0399036836434 359.5966796875 327.68505859375 C392.2310428587873 382.6666704562414 417.49926888183654 441.84512941147716 436 503 C436.10990264892575 503.36258911132813 436.10990264892575 503.36258911132813 436.66607666015625 505.197509765625 C450.3790359043935 550.6278210679387 459.49214443932715 597.3114857963565 464.8125 644.4375 C464.9180923461913 645.3645071411133 465.02368469238263 646.2915142822267 465.1324768066406 647.2466125488281 C466.62169600888683 660.4861974221069 467.507673017014 673.6868343723027 468 687 C460.0497999003792 688.1746785999983 452.4241868438619 689.261302643939 444.3671875 688.97265625 C442.0000000000002 689 442.0000000000002 689 439.578125 689.49609375 C436.61311250281483 690.0756189199044 433.8929825017858 690.0605109273542 430.875 690 C427.49363980083194 689.9325414424106 425.2240097037402 689.9253300987532 422 691 C418.9978426716641 691.0684252382525 416.0099242762424 690.9976927173182 413.0078125 690.9375 C410.19137166475934 690.9960234459272 407.7437930673573 691.4112579183875 405 692 C404.9577429199219 691.4665295410157 404.9577429199219 691.4665295410157 404.743896484375 688.766845703125 C397.8690396285515 603.4158213325604 378.8743252171532 520.0063807471199 306 364 C305.725107421875 363.5251416015625 305.725107421875 363.5251416015625 304.333984375 361.1220703125 C283.6934948969681 325.553001194364 260.3350984867659 291.1648288343936 233.51171875 259.9453125 C231.12468504484673 257.14620921277515 228.80639848714827 254.30314909376648 226.5 251.4375 C222.37595882445112 246.36744221070512 218.006011336553 241.5688558434315 213.5625 236.78125 C211.45342110020033 234.49212777948583 209.4002128792108 232.1752483590792 207.375 229.8125 C204.1585025211764 226.09582946824935 200.68912248215088 222.67302606953285 197.19140625 219.22265625 C195.18529810168934 217.1879404988615 193.2988648404505 215.10414563432835 191.4375 212.9375 C186.09458481746515 206.73282430415293 180.27108338559333 201.17809316296575 174.06640625 195.84765625 C171.78850521894537 193.8108940804559 169.64581411756149 191.67525925125028 167.5 189.5 C163.49263725954643 185.45181522823452 159.3347316491654 181.69174645453927 155 178 C153.94753540413808 177.09549552427063 152.8954863991869 176.19050735249152 151.84375 175.28515625 C148.83579102821955 172.69776940705356 145.82103027325388 170.1184538542925 142.8037109375 167.5419921875 C141.08795683529274 166.07519428420528 139.3758290666276 164.60425966762455 137.6640625 163.1328125 C130.91188050405572 157.34813772821076 124.01375795224726 151.79724602492865 116.91259765625 146.4443359375 C114.78409980351262 144.8369586976744 112.6638115541923 143.2190250832523 110.54296875 141.6015625 C91.96916573265548 127.49276047094713 72.89774414450608 114.17616929638666 53 102 C52.22156738281251 101.52143554687495 51.44313476562502 101.04287109375002 50.64111328125 100.5498046875 C44.79900442011308 96.96734562313338 38.915398493749535 93.46001120808614 33 90 C32.10732421874991 89.47744628906253 31.214648437500045 88.95489257812505 30.294921875 88.41650390625 C-9.565902368535262 65.24372326291575 -51.472940322488284 46.14491983954173 -95 31 C-95.59917236328124 30.78956054687501 -95.59917236328124 30.78956054687501 -98.63134765625 29.724609375 C-162.60576153402098 7.3666206838557855 -229.42368944987425 -5.513656662102733 -297 -10 C-297.40154296874994 -10.028923339843743 -297.40154296874994 -10.028923339843743 -299.43359375 -10.17529296875 C-344.87097155560696 -13.403032496677838 -393.1906808308431 -12.168811423595912 -438.10546875 -4.640625 C-441.8982286872788 -4.016740717438552 -445.69515817567435 -3.4394107003124645 -449.4969177246094 -2.873809814453125 C-510.9228887608783 6.267529516231093 -570.661224933836 20.824083813694187 -628 45 C-630.3501930049367 45.97542285497792 -632.7004534102915 46.95068333063068 -635.05078125 47.92578125 C-668.2510073646365 61.81727266321934 -700.4266975134868 77.98431420795839 -731 97 C-731.88107421875 97.54624023437498 -732.7621484375 98.09248046874995 -733.669921875 98.6552734375 C-758.7933048952416 114.28383640218544 -782.9310091310344 131.47074135019716 -806 150 C-806.3175122070313 150.25442871093753 -806.3175122070313 150.25442871093753 -807.92431640625 151.5419921875 C-820.4105653620504 161.56388998320222 -832.6973078075079 171.78210574517402 -844.387451171875 182.728759765625 C-847.0775066773998 185.24572145046773 -849.8042600693286 187.69741985916767 -852.601806640625 190.0947265625 C-857.4382236384711 194.32055419401354 -861.9695193696189 198.82569569109774 -866.50390625 203.37109375 C-867.3860227966309 204.2522535705566 -868.2681393432617 205.1334133911132 -869.1769866943359 206.04127502441406 C-871.502328094896 208.3657675020413 -873.8252361833413 210.6926590746766 -876.1473388671875 213.0203857421875 C-877.5614482350376 214.4364467834514 -878.9774912064853 215.85054321095606 -880.394287109375 217.263916015625 C-883.1418671955084 220.0052825606399 -885.8859210582054 222.7501303408685 -888.62890625 225.49609375 C-889.0467060089111 225.9128813934326 -889.0467060089111 225.9128813934326 -891.1610260009766 228.02207946777344 C-895.4487538605308 232.3268187774844 -899.5923483609869 236.69845437528352 -903.5487213134766 241.31060791015625 C-905.5996978858113 243.69809118951002 -907.7394130680891 246.00074512252752 -909.875 248.3125 C-914.7918144919834 253.71656637857632 -919.4628512702217 259.2751858674268 -924 265 C-924.255234375 265.32162109374997 -924.255234375 265.32162109374997 -925.546875 266.94921875 C-982.656219823297 339.1364980710366 -1027.1957883341229 421.3851440845243 -1091.709716796875 726.0947265625 C-1091.723458404541 726.8237619018555 -1091.737200012207 727.552797241211 -1091.7513580322266 728.3039245605469 C-1091.7867400961131 730.2694261313522 -1091.8147709155517 732.2350561412959 -1091.84228515625 734.20068359375 C-1092 737 -1092 737 -1093 738 C-1094.963691531128 738.0940066998137 -1096.930791992421 738.1174338131364 -1098.896728515625 738.113525390625 C-1100.157960357666 738.1134498596191 -1101.4191921997071 738.1133743286132 -1102.7186431884766 738.1132965087891 C-1104.105397936808 738.1081891002937 -1105.4921522888292 738.1029730928954 -1106.87890625 738.09765625 C-1108.289952088372 738.095792012843 -1109.7009985722916 738.0943681370647 -1111.112045288086 738.0933685302734 C-1114.8324053525953 738.0895437926781 -1118.5527265997912 738.0797138968642 -1122.2730712890625 738.0686645507813 C-1126.0668078083959 738.0584494777754 -1129.860550577769 738.053870705204 -1133.654296875 738.048828125 C-1141.1028823121057 738.038091579846 -1148.551435724774 738.0210156992853 -1156 738 C-1156.220750217332 658.8782165478624 -1144.501202866512 580.8274662736997 -1122 505 C-1121.65001953125 503.80326660156254 -1121.3000390625 502.60653320312497 -1120.939453125 501.37353515625 C-1098.1591607281018 423.7741871729612 -1061.4627962218929 351.3437138684999 -1017.2412109375 283.89990234375 C-1016.0393797376057 282.0602779539827 -1014.8508808632596 280.21261467426893 -1013.6640625 278.36328125 C-1007.6064721766423 269.00776803263784 -1000.906238205309 260.1990930456275 -994.109375 251.37109375 C-990.1642972138736 246.2389602775204 -986.3217372572219 241.03680496070137 -982.5 235.8125 C-975.00520745509 225.61632398175618 -967.2688210978964 216.05461556870455 -958.541259765625 206.882080078125 C-954.8096300644316 202.96016619713623 -951.1883889362856 198.9685850696951 -947.640869140625 194.87939453125 C-945.3080222224784 192.20743268392175 -942.9071074667709 189.60533984638732 -940.5 187 C-937.373399864556 183.61449244151527 -934.2944981836066 180.20175415230528 -931.3125 176.6875 C-929.2258188336262 174.28314498441716 -927.1024105664904 172.17031080047923 -924.65625 170.13671875 C-920.7519753282826 166.7605931224906 -917.1091845060342 163.173487603794 -913.48046875 159.5078125 C-912.8920771789551 158.91388198852542 -912.3036856079102 158.31995147705084 -911.6974639892578 157.70802307128906 C-909.2453253538724 155.2284491872133 -906.7967868483706 152.74539723013913 -904.353271484375 150.25732421875 C-897.5977475098376 143.38696266627574 -890.8542423632357 136.80992023499425 -883.294189453125 130.81982421875 C-880.5696445313632 128.6586283214624 -878.0394129823634 126.37451603545662 -875.5 124 C-871.0067326118049 119.86516989633333 -866.3659447176904 115.9801463777701 -861.61328125 112.1484375 C-859.1961745331906 110.16127951159172 -856.8743513943905 108.10774199200284 -854.5625 106 C-850.453802144696 102.3158436043509 -846.1342112416485 99.0213425657688 -841.6953125 95.74609375 C-838.79212107228 93.60107625526734 -835.920272135638 91.41765288066551 -833.0546875 89.22265625 C-832.1616894531251 88.53880859374999 -831.26869140625 87.85496093749998 -830.3486328125 87.150390625 C-828.5942478508841 85.80550892979227 -826.840909364937 84.45926045866156 -825.0888671875 83.111328125 C-812.5592047683083 73.52332907729988 -799.6178710748592 64.60057073900873 -786.4375 55.9375 C-785.6852011108399 55.44231872558595 -784.9329022216797 54.9471374511719 -784.1578063964844 54.43695068359375 C-769.4061782889517 44.74721093924461 -754.3544737453592 35.70127154682598 -739 27 C-737.73372534584 26.27593740310317 -736.4675336785112 25.551729659683247 -735.201416015625 24.827392578125 C-725.7089874363444 19.417326505859023 -716.0855726606603 14.321340682099333 -706.3125 9.4375 C-705.5484283447265 9.055262756347645 -704.7843566894531 8.67302551269529 -703.9971313476563 8.279205322265625 C-629.1479393597408 -29.0338505484861 -550.2244136843681 -51.51181270541883 -467.9921875 -65.48968505859375 C-465.1994754626753 -65.96597963561874 -462.40824499089035 -66.45015700720108 -459.6171875 -66.93603515625 C-363.14092257912216 -83.57126599691736 -260.99406229686474 -77.3176767694739 0 0 Z " fill="#BC02F7" transform="translate(1593,450)"/>
<path d="M0 0 C185.78999999999996 0 371.5799999999999 0 563 0 C563 21.11999999999989 563 42.24000000000001 563 64 C398 64 233 64 63 64 C63 166.6300000000001 63 269.26 63 375 C207.53999999999996 375 352.0799999999999 375 501 375 C501 396.1199999999999 501 417.24 501 439 C356.46000000000004 439 211.92000000000007 439 63 439 C63 582.8800000000001 63 726.76 63 875 C228 875 393 875 563 875 C563 896.1199999999999 563 917.2399999999998 563 939 C377.21000000000004 939 191.42000000000007 939 0 939 C0 629.1300000000001 0 319.26 0 0 Z " fill="#000000" transform="translate(1625,1312)"/>
<path d="M0 0 C0.61430374145516 -0.00033737182616278005 0.61430374145516 -0.00033737182616278005 3.723052978515625 -0.002044677734375 C24.648184063580857 0.016096686448634046 45.28011954601652 0.819508414482641 66.0625 3.25 C66.8171252441407 3.3372131347656477 67.5717504882814 3.4244262695312386 68.3492431640625 3.5142822265625 C134.14831495684325 11.173815595572137 199.04765796630386 27.25551108623597 260.0625 53.25 C260.577158203125 53.46785156249996 260.577158203125 53.46785156249996 263.181640625 54.5703125 C291.41092414339687 66.59739616578076 318.84755354431445 80.29543187336242 345.0625 96.25 C346.72112303078825 97.24908173677647 348.3799696630201 98.24779237601342 350.0390625 99.24609375 C354.4007911826652 101.88133298818911 358.73854240749915 104.55329213903565 363.0625 107.25 C363.67206542968756 107.62930664062503 364.2816308593749 108.00861328125006 364.90966796875 108.3994140625 C374.2386074481765 114.22839634113961 383.237063878139 120.49411033289698 392.177734375 126.89990234375 C393.7664072678515 128.03790248590906 395.3592911019109 129.17002071419358 396.953125 130.30078125 C418.7193649723547 145.89101754921728 439.3512974811465 163.14553305764707 459.0625 181.25 C459.6089013671874 181.75128417968745 460.155302734375 182.252568359375 460.71826171875 182.76904296875 C469.194116860484 190.5677447712253 477.4682957832081 198.55561334167692 485.625 206.6875 C486.45757324218744 207.5154809570313 487.2901464843751 208.34346191406246 488.14794921875 209.196533203125 C492.42689478370403 213.48627764140065 496.55028650442136 217.8490541246881 500.500732421875 222.443115234375 C502.7492390986504 225.04452181790066 505.0938581065052 227.5464279972241 507.4375 230.0625 C511.74717797086305 234.72817232153898 515.8357413749088 239.52775352257356 519.8203125 244.4765625 C522.1769156578964 247.39152459426214 524.5848491030399 250.25841902884167 527 253.125 C532.2041301927916 259.3651375922825 537.1834320342005 265.75519765597573 542.0625 272.25 C542.4754833984375 272.7993017578125 542.888466796875 273.348603515625 543.31396484375 273.91455078125 C555.8844969518802 290.70285925731537 567.9634778358572 307.8604752395621 578.656982421875 325.909912109375 C580.3839656447503 328.78521768367773 582.1566226360667 331.6309274567783 583.92578125 334.48046875 C630.1225979839742 409.4515501116708 659.8720436771109 495.4014893044957 677.4375 615.3125 C677.5231723022462 616.1313870239258 677.6088446044921 616.9502740478515 677.6971130371094 617.7939758300781 C678.6428949687029 626.970391106785 679.3271401818843 636.0113433939605 679.0625 645.25 C677.6953124999998 645.3639322916667 677.6953124999998 645.3639322916667 670.859375 645.93359375 C668.0625 646.25 668.0625 646.25 666.11328125 646.78515625 C663.2196602071206 647.4410436863859 660.4612691637676 647.3039025103758 657.5 647.25 C651.3951157158235 647.1391280947255 651.3951157158235 647.1391280947255 648.0625 648.25 C646.2089106841665 648.2962674400208 644.3537796771204 648.2878805553435 642.5 648.25 C635.9344208799187 648.1832313987788 629.4381309949933 648.5228360060007 622.892333984375 648.982421875 C620.951113582842 649.1087074914935 619.0067107370273 649.184202475057 617.0625 649.25 C615.2708224579428 647.4583224579428 615.6966359006203 644.7355832627741 615.51953125 642.3046875 C615.4691369628906 641.6625732421876 615.4691369628906 641.6625732421876 615.214111328125 638.4130859375 C615.1597793579101 637.7172741699219 615.1054473876952 637.0214624023438 615.0494689941406 636.3045654296875 C612.4235927824611 603.5006334656932 606.6435682620647 571.2495432539044 599.0625 539.25 C598.7668212890626 537.9905859374999 598.471142578125 536.731171875 598.16650390625 535.43359375 C590.061448899846 501.53224692118295 578.2732864302939 468.05936691012084 564.0625 436.25 C563.7889971923828 435.6367889404297 563.5154943847656 435.0235778808594 563.2337036132813 434.39178466796875 C555.9878009229451 418.1766378529801 548.2904667178154 402.2806716411161 539.521484375 386.82373046875 C538.047949859179 384.2243327335116 536.5933294848267 381.6149922482616 535.140625 379.00390625 C524.5250325192208 360.04195822172915 512.8311055186703 341.82990596395166 500.0625 324.25 C499.5162597656249 323.4912255859375 498.97001953125005 322.732451171875 498.4072265625 321.95068359375 C490.04842912002346 310.3470706010139 481.2969643488291 299.1681258323879 472.0625 288.25 C471.5338232421875 287.6222265624999 471.005146484375 286.99445312500006 470.46044921875 286.34765625 C464.3835444417839 279.1414488930461 458.1709178007104 272.0802320566128 451.76171875 265.16796875 C449.9818094071404 263.243812050845 448.2132540271739 261.30908129847296 446.45703125 259.36328125 C437.2116987018271 249.13469324618677 427.68546882986175 238.94419170242122 417.13671875 230.04296875 C414.8516882589613 228.0677729018139 412.64901628843745 226.01819906105482 410.442626953125 223.9560546875 C404.1854238818023 218.11130535966424 397.74374317138245 212.60900500771425 391.0625 207.25 C389.86976658416074 206.26723350082307 388.67844599453156 205.28275068893754 387.48828125 204.296875 C362.11026836538736 183.33145002468405 334.63549528802514 164.59708025451914 306.0625 148.25 C305.33272949218735 147.83137695312496 304.60295898437516 147.41275390625003 303.85107421875 146.9814453125 C298.6263006449583 143.99950703032266 293.3554465121879 141.1088379124892 288.0625 138.25 C287.2300878906249 137.79689453125002 286.39767578125 137.34378906250004 285.5400390625 136.876953125 C213.2265645944501 97.66793647404552 132.91344264978534 74.80090623936348 37.43115234375 65.4130859375 C35.23000570767613 65.26153306665924 33.03137507534598 65.08951168880503 30.83203125 64.9140625 C-55.43066637502557 58.53029550308156 -147.4132635256035 72.86077552446409 -290.9375 132.25 C-291.912353515625 132.73952148437502 -292.88720703125 133.22904296875004 -293.8916015625 133.7333984375 C-336.29957469567967 155.13679553606403 -375.25419462779064 183.04005536132252 -411.29150390625 213.8466796875 C-413.0474921653059 215.34377558086294 -414.8105282274 216.83230065998578 -416.57421875 218.3203125 C-422.2687507069119 223.14061774039283 -427.8405893691033 227.9618900870912 -433.02490234375 233.33837890625 C-434.79892237977367 235.11149313679186 -436.62348354941037 236.73747216693732 -438.53515625 238.359375 C-443.58229926647675 242.74422586258652 -448.2848954876546 247.4510762509749 -453 252.1875 C-453.85916015625 253.04279296875006 -454.71832031250005 253.8980859375 -455.603515625 254.779296875 C-460.00963593941196 259.19214922961737 -464.26775529004806 263.667759159296 -468.330810546875 268.398193359375 C-470.906057260479 271.366320744679 -473.6169626285172 274.2040840509226 -476.3125 277.0625 C-481.7888597394624 282.92785668038664 -486.9686327783397 288.9448995641412 -491.9375 295.25 C-492.4436181640625 295.88357421875 -492.949736328125 296.51714843750005 -493.47119140625 297.169921875 C-501.8973120545122 307.7228573352688 -509.7779319556312 318.53932807422734 -517.27685546875 329.7685546875 C-518.9874303144647 332.3246091908586 -520.7132972553716 334.869835788063 -522.44140625 337.4140625 C-530.3621329332587 349.1199826078546 -537.8619617316491 361.0147069367722 -544.9375 373.25 C-545.4890576171875 374.203583984375 -546.040615234375 375.15716796874995 -546.60888671875 376.1396484375 C-594.2058139845741 458.8737149571075 -622.6253723090263 551.280292501413 -630.48974609375 673.8994140625 C-630.5411509319545 676.0867135083031 -630.5983562529815 678.273801681973 -630.65625 680.4609375 C-630.68654296875 681.7427490234375 -630.7168359375 683.0245605468749 -630.748046875 684.34521484375 C-630.9375 687.25 -630.9375 687.25 -631.9375 688.25 C-633.901191531128 688.3440066998137 -635.8682919924211 688.3674338131364 -637.834228515625 688.363525390625 C-639.0954603576661 688.3634498596191 -640.356692199707 688.3633743286132 -641.6561431884766 688.3632965087891 C-643.042897936808 688.3581891002937 -644.4296522888292 688.3529730928954 -645.81640625 688.34765625 C-647.2274520883722 688.345792012843 -648.6384985722917 688.3443681370647 -650.0495452880859 688.3433685302734 C-653.7699053525954 688.3395437926781 -657.4902265997912 688.3297138968642 -661.2105712890625 688.3186645507813 C-665.0043078083959 688.3084494777754 -668.7980505777688 688.303870705204 -672.591796875 688.298828125 C-680.0403823121057 688.288091579846 -687.4889357247739 688.2710156992853 -694.9375 688.25 C-695.0324915040821 675.7395377230594 -694.8618883380531 663.3018747253675 -694.125 650.8125 C-694.0811517333984 650.0475219726563 -694.0373034667969 649.2825439453125 -693.9921264648438 648.494384765625 C-692.8388915089923 628.5870961730279 -690.7962884964007 608.8166839476498 -688.0625 589.0625 C-687.9253759765625 588.05638671875 -687.788251953125 587.0502734375 -687.64697265625 586.013671875 C-678.5240818586881 523.0114811562698 -659.5874517645827 461.2166405532855 -632.890869140625 403.51953125 C-631.257585135091 399.9767999582609 -629.6945234547284 396.4078993413161 -628.1529846191406 392.82444763183594 C-625.2095374589261 385.9822008825274 -622.037441339846 379.3649718363174 -618.375 372.875 C-617.3269061396718 370.9915631710363 -616.2800856756648 369.10741729892766 -615.234375 367.22265625 C-614.69490234375 366.2521533203126 -614.1554296875 365.2816503906249 -613.599609375 364.28173828125 C-611.8896888594488 361.1627910188947 -610.2282428597955 358.02205580192754 -608.578125 354.87109375 C-601.3334769956216 341.07500626451565 -593.4594341419931 327.99078323292383 -584.78564453125 315.05126953125 C-582.3253653571825 311.322175311534 -579.9741229829241 307.52953460985975 -577.6171875 303.734619140625 C-571.7260223222163 294.27622796323317 -565.4154677499894 285.40507687498666 -558.45703125 276.70703125 C-554.695721026832 271.9956722864732 -551.1632036567017 267.1297864831723 -547.625 262.25 C-542.7384146398535 255.54981581677566 -537.6537283586711 249.26878864986736 -531.9375 243.25 C-530.4749646425763 241.62878087866056 -529.0167489472839 240.00365622843958 -527.5625 238.375 C-523.3144164882389 233.65160644496484 -519.0181635010279 228.97408265426748 -514.7109375 224.3046875 C-512.6975850213029 222.1105797419823 -510.7529270911467 219.86749916174847 -508.81640625 217.60546875 C-504.4396621144883 212.58816739334975 -499.73738345619324 207.89975501624792 -495.022216796875 203.204345703125 C-493.5025833175746 201.6900742024203 -491.98837482609326 200.17052569928933 -490.474609375 198.650390625 C-485.66032497757715 193.83320655956527 -480.80806806189435 189.11052922968145 -475.6044921875 184.708740234375 C-473.8518305083944 183.17503292144943 -472.2378006580685 181.5542685203385 -470.625 179.875 C-466.946875735445 176.1301523927774 -462.9030712956376 172.9149185520024 -458.81640625 169.62890625 C-455.993444033375 167.2962278376193 -453.3071338821552 164.86752795234156 -450.625 162.375 C-444.9596541483297 157.17376440171518 -438.99532394883545 152.46349706652074 -432.90771484375 147.7744140625 C-430.8214706024967 146.16022459008536 -428.74778074935216 144.53086545202052 -426.67578125 142.8984375 C-394.9529918705957 117.94796820258239 -361.2779553548073 96.02011523638078 -325.37109375 77.55078125 C-322.5012334532728 76.07444391792353 -319.66452310267914 74.55545474990288 -316.84765625 72.98046875 C-291.3016178625237 58.83599943969682 -263.4138287981865 47.9990203576923 -235.9375 38.25 C-234.89690429687494 37.878911132812505 -233.85630859375 37.50782226562501 -232.7841796875 37.12548828125 C-192.81062678762373 23.086333889079015 -151.30385086977958 14.272025341108701 -109.53521728515625 7.6634521484375 C-107.19182506619359 7.290478325189611 -104.85024068896655 6.908387649179701 -102.50927734375 6.5205078125 C-84.72809461874067 3.5924754535462853 -67.003316965458 2.231171374159487 -49.021759033203125 1.35687255859375 C-46.835922278195994 1.2447914962332334 -44.651387180631446 1.1169235065730732 -42.466552734375 0.98681640625 C-28.31360000243012 0.16957140435312112 -14.174537630721261 0.0070668468258077155 0 0 Z " fill="#BC02F7" transform="translate(1256.9375,499.75)"/>
<path d="M0 0 C247.83000000000004 0 495.6600000000001 0 751 0 C751 21.11999999999989 751 42.24000000000001 751 64 C637.48 64 523.96 64 407 64 C407 352.75 407 641.5 407 939 C385.8800000000001 939 364.76 939 343 939 C343 650.25 343 361.5 343 64 C229.80999999999995 64 116.62 64 0 64 C0 42.88000000000011 0 21.75999999999999 0 0 Z " fill="#000000" transform="translate(750,1312)"/>
<path d="M0 0 C37.635020285519204 -0.7075166692160337 74.26502439673823 1.1820194783501847 111.3680419921875 7.65826416015625 C113.49660619045221 8.026103328267368 115.6267045396844 8.382128241898613 117.7581787109375 8.732666015625 C169.10265805956487 17.228652264277798 217.68081692367787 33.67265546304429 264.6097412109375 56.045654296875 C265.07549560546886 56.2672119140625 265.07549560546886 56.2672119140625 267.4324951171875 57.388427734375 C300.5351737742062 73.24759381712522 331.9954173260239 93.48108545464277 360.6085205078125 116.45166015625 C362.78623038888463 118.18622985412969 364.98750800219 119.88795198293121 367.1917724609375 121.588623046875 C370.98799517516227 124.53518786082873 374.6694913956562 127.58262370211798 378.2972412109375 130.733154296875 C379.36353347109934 131.65385924465056 380.42994725037624 132.57442347022766 381.4964599609375 133.494873046875 C382.1111010742188 134.02935058593744 382.72574218750015 134.563828125 383.3590087890625 135.114501953125 C385.07141741837313 136.58376676035437 386.80100928561615 138.03303130383267 388.5382080078125 139.472900390625 C398.09494108558056 147.43853283966405 406.9035633104154 156.06410242024754 415.6622314453125 164.892333984375 C418.06275191517875 167.31128408217046 420.47135237747125 169.7219625767866 422.8812255859375 172.131591796875 C424.4357368860333 173.69101442802867 425.9897898970462 175.2508940690742 427.5433349609375 176.811279296875 C427.89703910827643 177.16553985595704 427.89703910827643 177.16553985595704 429.68699645996094 178.95831298828125 C433.64623926724266 182.95497540540669 437.43889815844295 187.04657587256327 441.10496520996094 191.31430053710938 C443.2324496948336 193.76212550197897 445.4915577874899 196.07902395202223 447.7347412109375 198.420654296875 C454.1745387918245 205.3234071392044 459.48649831945454 212.9820199425917 464.9183349609375 220.682373046875 C466.57458291778994 222.99653012284682 468.2690828600623 225.27527962008173 469.9847412109375 227.545654296875 C479.58431673211817 240.2624553689484 488.17923002752104 253.53125984293445 496.6097412109375 267.045654296875 C497.24871337890636 268.0541845703125 497.887685546875 269.06271484375 498.5460205078125 270.101806640625 C503.5785448672482 278.1252128240668 508.11382437585166 286.34841539080185 512.5191650390625 294.728759765625 C513.6689822873348 296.9144593749809 514.8273240524575 299.09547853902404 515.9866943359375 301.276123046875 C520.8212078320937 310.4083534870372 525.3180049543373 319.64773813527586 529.6097412109375 329.045654296875 C530.1422045898437 330.1827685546875 530.6746679687501 331.31988281250005 531.2232666015625 332.491455078125 C564.7848555485632 404.35153860601486 580.6097412109375 483.9250318552761 580.6097412109375 563.045654296875 C559.4897412109376 563.045654296875 538.3697412109375 563.045654296875 516.6097412109375 563.045654296875 C516.2797412109376 553.1456542968749 515.9497412109374 543.245654296875 515.6097412109375 533.045654296875 C515.2815195277121 527.8082752077105 514.9356754428031 522.6341572247666 514.4222412109375 517.420654296875 C514.2962353515625 516.1240185546876 514.1702294921874 514.8273828125 514.0404052734375 513.491455078125 C508.46278582641844 458.73049059101913 493.73623671190717 404.96687668523055 470.6097412109375 355.045654296875 C470.1381054687499 354.0187548828126 469.66646972656235 352.9918554687499 469.1805419921875 351.933837890625 C457.88122389063255 327.4334878045237 444.6680147730724 304.4177142626372 429.6097412109375 282.045654296875 C428.4715469665921 280.3348321529494 427.33352114397485 278.623897945453 426.1956787109375 276.912841796875 C419.8643178037494 267.4593326381014 413.18562254128346 258.42452367910846 405.9339599609375 249.657958984375 C404.7453043149153 248.21070937406307 403.58204830833756 246.74268650965018 402.4222412109375 245.272216796875 C391.5519450507877 231.5608205039589 378.9481903428291 219.29395013442797 366.6097412109375 206.920654296875 C366.34161621093745 206.65118988037102 366.34161621093745 206.65118988037102 364.9847412109375 205.28753662109375 C359.0403143165022 199.3205722625596 353.03851235585716 193.49555170258475 346.6097412109375 188.045654296875 C345.5263091285135 187.09673048362572 344.4442285971909 186.14626084097938 343.3636474609375 185.194091796875 C335.1269632907697 178.00958091186476 326.6049394650631 171.27811045939836 317.8558349609375 164.729736328125 C315.58955922810355 163.0305221971371 313.3340368622678 161.31766962549068 311.0784912109375 159.604248046875 C292.88000887286375 145.8789745818019 273.55927277990963 134.04026500573468 253.6097412109375 123.045654296875 C252.79279785156245 122.59125976562495 251.9758544921874 122.13686523437502 251.1341552734375 121.668701171875 C207.91424332892143 97.76274112297824 160.15165116877438 81.71107990397354 111.6097412109375 73.045654296875 C110.80709838867188 72.90107788085936 110.00445556640625 72.75650146484372 109.177490234375 72.6075439453125 C82.43163938039129 67.81169244461478 56.03264318812535 64.66400523362063 28.85797119140625 64.0938720703125 C26.689214656770673 64.04735876333916 24.520889125668646 63.991488296369994 22.3524169921875 63.933349609375 C-60.32565818900389 61.84045105992561 -142.24496428350517 83.74460767184439 -267.3902587890625 153.045654296875 C-268.130341796875 153.56192382812503 -268.87042480468745 154.07819335937506 -269.6329345703125 154.610107421875 C-280.60129063985914 162.30080564997888 -291.1278266991603 170.43828179589582 -301.3902587890625 179.045654296875 C-301.69439697265625 179.30024414062495 -301.69439697265625 179.30024414062495 -303.2335205078125 180.588623046875 C-315.78182452574663 191.12852105060267 -327.65640167675326 202.22897104484753 -339.2652587890625 213.795654296875 C-339.7113146972656 214.2393737792969 -339.7113146972656 214.2393737792969 -341.9686279296875 216.48486328125 C-346.9834438523561 221.51191620194663 -351.7832779233104 226.64401636016532 -356.3902587890625 232.045654296875 C-357.33949618492056 233.1288116478088 -358.2899636527186 234.21089258904954 -359.2418212890625 235.291748046875 C-366.4753245285947 243.58532254026625 -373.250106448991 252.17116223780715 -379.8438720703125 260.980224609375 C-381.2891437424528 262.910600098214 -382.74356114136515 264.8337680190157 -384.1988525390625 266.756591796875 C-434.1683050023307 333.2863176757678 -465.06500410844205 413.2163826761946 -481.3902587890625 532.045654296875 C-487.2080035063399 532.143431519014 -491.791958058589 531.6451687912959 -497.3902587890625 530.045654296875 C-497.72025878906254 530.7056542968749 -498.05025878906247 531.3656542968752 -498.3902587890625 532.045654296875 C-499.07426757812505 531.9903051757813 -499.7582763671875 531.9349560546875 -500.4630126953125 531.8779296875 C-502.49887330939725 531.7134381749613 -504.53476465956646 531.5493268389382 -506.5706787109375 531.385498046875 C-508.8729913751065 531.2001250802227 -511.17523742035337 531.0139229039373 -513.4774169921875 530.826904296875 C-523.2568944768982 530.0384942179146 -523.2568944768982 530.0384942179146 -527.9566650390625 529.760498046875 C-529.1516259765625 529.6895996093749 -530.3465869140625 529.618701171875 -531.5777587890625 529.545654296875 C-532.5819384765625 529.494091796875 -533.5861181640626 529.4425292968749 -534.6207275390625 529.389404296875 C-537.7343945265419 529.0029406933513 -540.4317793646128 528.0697138471983 -543.3902587890625 527.045654296875 C-543.6079158138567 517.3366627378919 -543.0403652522523 508.0514009585354 -541.7652587890625 498.420654296875 C-541.6759005737305 497.73936462402344 -541.5865423583984 497.0580749511719 -541.4944763183594 496.35614013671875 C-540.9176955056473 491.9776809780385 -540.3145834478211 487.60334077053085 -539.6969604492188 483.23046875 C-539.3991634404651 481.10908731212044 -539.1095715731282 478.98672273557395 -538.8214111328125 476.864013671875 C-530.5805342383334 416.92329588278653 -511.57481983876596 356.39235828612607 -482.5679931640625 303.224853515625 C-481.4168240627149 301.09480886416804 -480.29672717343726 298.95151432330385 -479.1871337890625 296.799560546875 C-463.02533479302383 265.51360903235354 -443.0229855187032 235.94521215127088 -420.7408447265625 208.700439453125 C-419.48304868411014 207.15934372359823 -418.2369534727536 205.6087185200406 -416.9918212890625 204.057373046875 C-412.4919966868172 198.47601165426545 -407.8098635181883 193.11266749692197 -402.9449462890625 187.846435546875 C-400.98436228324795 185.69698794417013 -399.07284933659207 183.52547347070436 -397.1729736328125 181.323486328125 C-393.6889248642749 177.33789029799323 -390.05102595157405 173.54530220015147 -386.3121337890625 169.799560546875 C-385.66004943847656 169.14414779663082 -385.0079650878906 168.48873504638675 -384.33612060546875 167.81346130371094 C-382.96598640150455 166.43830383360955 -381.59453081044796 165.0644617436293 -380.2218017578125 163.69189453125 C-378.15395218048207 161.62186214296526 -376.0942435397393 159.54395756937106 -374.0347900390625 157.465576171875 C-367.4791654983014 150.88268296284969 -360.9163459523968 144.57514551511872 -353.6207275390625 138.810546875 C-350.9483260791983 136.69596826802126 -348.4910066016349 134.44818835892443 -346.0152587890625 132.108154296875 C-340.60531131621406 127.13622813929987 -334.9015931096262 122.69904303109729 -329.0343017578125 118.291259765625 C-327.42258155792774 117.07014357022672 -325.827972798259 115.82996467929456 -324.2379150390625 114.580810546875 C-310.5621478192717 103.85617460271692 -296.0429681965463 94.37112387646596 -281.3902587890625 85.045654296875 C-280.3731884765625 84.39338867187496 -279.35611816406254 83.74112304687503 -278.3082275390625 83.069091796875 C-195.61118206083256 31.037483530786517 -97.61224204351856 1.8644082796729435 0 0 Z " fill="#BC02F6" transform="translate(1232.3902587890625,624.954345703125)"/>
<path d="M0 0 C21.120000000000005 0 42.24000000000001 0 64 0 C64 288.75 64 577.5 64 875 C229 875 394 875 564 875 C564 896.1199999999999 564 917.2399999999998 564 939 C377.88 939 191.76 939 0 939 C0 629.1300000000001 0 319.26 0 0 Z " fill="#000000" transform="translate(312,1312)"/>
<path d="M0 0 C5.348760639704324 -0.04483198411026024 10.697469529430464 -0.07078346902233079 16.04638671875 -0.087890625 C16.908124999999927 -0.09093200683594205 17.769863281250082 -0.0939733886718841 18.65771484375 -0.09710693359375 C37.12945887340834 -0.13981667736936743 55.32999425753883 0.5213286208711452 73.60888671875 3.287109375 C74.35568695068355 3.3975961303710847 75.1024871826171 3.5080828857421693 75.87191772460938 3.621917724609375 C140.10011077982335 13.1310091794644 201.14148742460793 33.92957631148238 255.48388671875 70.037109375 C255.82476318359386 70.26164794921874 255.82476318359386 70.26164794921874 257.5498046875 71.39794921875 C268.62727865484544 78.72324623792827 279.0998635724777 86.76630802979662 289.48388671875 95.037109375 C290.03447753906266 95.47297363281245 290.5850683593749 95.90883789062502 291.15234375 96.35791015625 C297.5097129708229 101.4001051225523 303.53065871363606 106.73662007233452 309.46435546875 112.263671875 C311.6928995215958 114.33429649099833 313.975405536931 116.3298322258106 316.28076171875 118.314453125 C320.89977998748236 122.3404190185056 325.2262053084346 126.63244230865246 329.54638671875 130.974609375 C330.3101562500001 131.73451171875 331.07392578124995 132.49441406250003 331.86083984375 133.27734375 C336.0584238545066 137.4821092560701 340.08282877944544 141.77544929514784 343.957763671875 146.279052734375 C345.91766793442866 148.53681478759017 347.98480039543256 150.68475933602429 350.04638671875 152.849609375 C356.59265874125686 160.02360611199367 362.1860455507317 167.89379297134315 367.85009765625 175.77001953125 C369.28197380569713 177.75692956169928 370.726640534205 179.73327651417526 372.17919921875 181.705078125 C382.62657797275006 195.96897360341427 391.8293825979349 211.05087354389048 400.1845703125 226.62353515625 C401.07327968918617 228.27437711376933 401.96982350412486 229.92101899338832 402.873046875 231.56396484375 C437.588978241886 294.7340369113458 454.48388671875 366.1582639476999 454.48388671875 438.037109375 C433.3638867187501 438.037109375 412.24388671875 438.037109375 390.48388671875 438.037109375 C390.1538867187501 429.1271093749999 389.82388671875015 420.21710937500006 389.48388671875 411.037109375 C383.53625312601275 344.67403981393204 362.23569792610624 281.1510465222368 324.48388671875 226.037109375 C324.2590258789062 225.70872070312498 324.2590258789062 225.70872070312498 323.12109375 224.046875 C313.93924621059864 210.73823721854285 303.977740980567 198.2853149095979 292.8798828125 186.5302734375 C290.7716800723274 184.27532975808492 288.7232430590948 181.9682704909735 286.67138671875 179.662109375 C281.3225062051797 173.70715067374078 275.76260367796726 168.18992338781334 269.69482421875 162.970703125 C267.20264782243044 160.79114956284775 264.78550003645023 158.5393765745663 262.35888671875 156.287109375 C256.00923266505697 150.50595051895175 249.3210535774963 145.2273807260707 242.48388671875 140.037109375 C241.88560058593748 139.5819091796875 241.28731445312496 139.126708984375 240.6708984375 138.65771484375 C162.61976188470794 79.57894383108271 62.37795732495533 54.2171245587665 -34.51611328125 67.037109375 C-102.93376406346533 76.77448717575635 -168.36394731844484 104.94736201897558 -221.4375 149.3232421875 C-222.92429403235326 150.54914001544455 -224.42799357421984 151.75464850671915 -225.9423828125 152.9462890625 C-233.3906197080255 158.8607045215499 -240.1184946471301 165.33198655487763 -246.814453125 172.07470703125 C-248.63860074857087 173.90958206666755 -250.47321200721558 175.73350269502396 -252.30908203125 177.556640625 C-259.17065028901993 184.41010430363178 -265.5223271704549 191.40311596257993 -271.51611328125 199.037109375 C-272.52820800113705 200.26918449975756 -273.5434196968595 201.49871185204245 -274.56298828125 202.724609375 C-292.52254382220633 224.62103981478776 -306.8308670322483 248.78720788338558 -319.51611328125 274.037109375 C-319.70488037109374 274.40997070312505 -319.70488037109374 274.40997070312505 -320.66015625 276.296875 C-342.33050283719047 319.41363786676334 -353.13849118247833 367.22886803315123 -357.51611328125 415.037109375 C-378.30618091572046 414.12011731226835 -378.30618091572046 414.12011731226835 -388.20751953125 413.283203125 C-390.78003383844043 413.0918590856222 -393.34229405931353 412.94148664545423 -395.91845703125 412.822265625 C-396.69938720703124 412.7848828125 -397.4803173828125 412.74749999999995 -398.284912109375 412.708984375 C-399.7935875932736 412.63895156837 -401.30254482781936 412.57461319913136 -402.811767578125 412.517578125 C-408.82368439761524 412.23353980621437 -414.6188832143978 411.21339296609176 -420.51611328125 410.037109375 C-417.6322089246395 351.31539939550794 -402.05543362832225 293.45130282795435 -375.132080078125 241.19580078125 C-374.0167566010076 239.0157048231075 -372.9231292797382 236.82442022018915 -371.847412109375 234.62451171875 C-367.7025225897063 226.14860434514878 -363.1342339942055 218.06896709574903 -358.20361328125 210.037109375 C-357.83072174072265 209.4263757324219 -357.4578302001953 208.81564208984378 -357.0736389160156 208.1864013671875 C-351.5744784410947 199.18828268578932 -345.8952862800494 190.4422412252095 -339.51611328125 182.037109375 C-338.50714190338897 180.68250303881223 -337.49940226972694 179.32697866661442 -336.49267578125 177.970703125 C-333.9469732899722 174.54768815876992 -331.38006005755597 171.14143341206227 -328.802734375 167.7421875 C-327.75504209634266 166.35374672691796 -326.7213578707582 164.9547444048228 -325.69189453125 163.552734375 C-320.889225636887 157.11691610849846 -315.3244395857538 151.3884036615516 -309.82080078125 145.556640625 C-305.61007953995534 141.09054584838918 -301.5978220428881 136.4678981334772 -297.60595703125 131.806640625 C-293.9101816944009 127.55543084446253 -290.14698168849145 123.68630571958886 -285.84814453125 120.048828125 C-282.29114141435514 116.98039160037547 -278.8708491055836 113.7663819883594 -275.435302734375 110.563232421875 C-268.29331480923577 103.92814523588243 -260.97420392447543 97.721542305512 -253.14111328125 91.912109375 C-252.2631811523438 91.26032714843745 -251.3852490234375 90.60854492187502 -250.480712890625 89.93701171875 C-248.68003393558752 88.60227445855378 -246.87820170586826 87.269091603437 -245.0751953125 85.9375 C-242.77979618174072 84.23292197731064 -240.50301403471155 82.50695716031419 -238.23095703125 80.771484375 C-224.76344788401923 70.61086449448158 -210.18206318126602 62.3165599820054 -195.51611328125 54.037109375 C-194.68724609375 53.56789062500002 -193.85837890624998 53.098671875000036 -193.00439453125 52.615234375 C-188.24348056714666 49.94426624941923 -183.41018491132127 47.454222886805155 -178.51611328125 45.037109375 C-177.59298339843758 44.57449707031253 -176.66985351562494 44.11188476562495 -175.71875 43.63525390625 C-121.67870909400335 16.77364586915428 -60.477035134249036 0.5281701457872714 0 0 Z " fill="#BC02F7" transform="translate(1233.51611328125,749.962890625)"/>
<path d="M0 0 C2.6258185498511466 -0.0021768945235862702 5.251208844208804 -0.020382800338552443 7.876953125 -0.039306640625 C25.550057882457395 -0.10017746439530129 42.83294103764615 1.7455553943245832 60.212890625 4.872802734375 C60.935631713867224 5.001578063964871 61.65837280273445 5.130353393554742 62.40301513671875 5.263031005859375 C100.75172627310576 12.157917343576287 138.01459557741669 25.97431121375689 170.4423828125 47.787353515625 C172.47007185950952 49.14817717750691 174.51359429387185 50.480816902140646 176.564453125 51.806396484375 C184.86928028500893 57.20307275602488 192.83731950138917 62.94074347948731 200.525390625 69.185302734375 C201.07034179687503 69.62583984374999 201.61529296875005 70.06637695312497 202.1767578125 70.520263671875 C211.12396502012962 77.82844625480243 219.36135821027256 85.83814686086987 227.525390625 93.997802734375 C228.0202093505859 94.49162445068362 228.5150280761718 94.98544616699223 229.02484130859375 95.49423217773438 C287.31157257157383 153.79428473811504 313.90909717520367 232.08020579068966 316.525390625 313.185302734375 C295.4053906250001 313.185302734375 274.285390625 313.185302734375 252.525390625 313.185302734375 C252.19539062500007 305.925302734375 251.86539062500015 298.665302734375 251.525390625 291.185302734375 C251.0489220947038 286.67473398090283 250.54311681749732 282.2763791120142 249.837890625 277.810302734375 C249.6641894531249 276.6872875976562 249.49048828125 275.56427246093745 249.3115234375 274.4072265625 C239.5616610435327 214.26476949884727 207.90428872370353 156.84735631754302 159.525390625 119.185302734375 C158.24664812548122 118.16589273013142 156.96800922339662 117.14635276534955 155.689453125 116.126708984375 C141.04463252528512 104.56573309848966 125.45559406360758 95.01595050982814 108.525390625 87.185302734375 C107.74889160156249 86.82194824218755 106.97239257812498 86.45859374999998 106.17236328125 86.084228515625 C45.95296616149608 58.18174160674869 -22.981606931222586 57.70510116173432 -84.89552307128906 80.05381774902344 C-95.45518065593524 83.96519823792664 -105.51797964322486 88.9518599014607 -115.474609375 94.185302734375 C-116.19020019531263 94.55896972656251 -116.90579101562503 94.93263671875002 -117.64306640625 95.317626953125 C-134.67635777016676 104.32358637079699 -149.8740299545043 116.04426272454066 -164.064453125 128.997802734375 C-166.4004219179874 131.11796889980917 -168.77787812732663 133.18227583283738 -171.162109375 135.247802734375 C-175.32124151851963 138.94964809771704 -178.9022587793902 142.9245681497532 -182.474609375 147.185302734375 C-182.8800195312499 147.64678710937505 -182.8800195312499 147.64678710937505 -184.931640625 149.982177734375 C-220.95850087784652 191.18104853180967 -241.17384815700223 243.88242946884452 -245.474609375 298.185302734375 C-251.99319182281272 298.3106600891406 -251.99319182281272 298.3106600891406 -254.34228515625 297.698974609375 C-257.0329662545298 297.05079587903606 -259.5755298839855 296.9854008016846 -262.341796875 296.904052734375 C-263.4748828125 296.866669921875 -264.60796875000005 296.82928710937495 -265.775390625 296.790771484375 C-266.36513671875 296.77336914062494 -266.36513671875 296.77336914062494 -269.349609375 296.685302734375 C-271.68045087368625 296.61606981857244 -274.0111897003468 296.5432696561286 -276.341796875 296.466552734375 C-277.3741748046875 296.436259765625 -278.40655273437505 296.40596679687496 -279.47021484375 296.374755859375 C-282.530155184866 296.1818000894493 -285.45634608813396 295.7123664461333 -288.474609375 295.185302734375 C-291.8925777048714 294.9416455861069 -295.3065189731932 294.7493640937305 -298.728515625 294.579833984375 C-302.10394441533276 294.394791574319 -305.2166031018793 294.07327796136633 -308.474609375 293.185302734375 C-308.7783392779105 284.6998485718116 -307.66867392023585 276.4410365170588 -306.474609375 268.060302734375 C-306.36579437255864 267.29508300781254 -306.25697937011716 266.5298632812501 -306.1448669433594 265.741455078125 C-298.1562398978815 210.590150530315 -275.12258935416025 159.62441574903528 -240.474609375 116.185302734375 C-239.56421969401822 115.02793423048126 -238.65403237238456 113.87040649106234 -237.744140625 112.712646484375 C-233.86967528738887 107.86456335108187 -229.81414683454614 103.38502137166097 -225.357421875 99.068115234375 C-223.53276646577626 97.24345982515126 -221.88138734082827 95.34973103176424 -220.224609375 93.372802734375 C-215.87694698601854 88.3219876583372 -210.9091026617598 83.9521998952689 -205.95166015625 79.518310546875 C-204.60934219856017 78.30689632390215 -203.28871222275802 77.07155845099021 -201.970703125 75.833740234375 C-195.85850544814775 70.13439281246667 -189.34129286813982 65.358853352403 -182.485107421875 60.60791015625 C-180.98386767881107 59.54564859185007 -179.49812828537006 58.46141848416778 -178.020751953125 57.3662109375 C-127.06034896452024 19.59005057417869 -63.13497092516582 -0.005824259310429625 0 0 Z " fill="#BC02F7" transform="translate(1246.474609375,874.814697265625)"/>
</svg>
