<?xml version="1.0" encoding="UTF-8"?>
<!-- Generator: visioncortex VTracer 0.6.12 -->
<svg version="1.1" xmlns="http://www.w3.org/2000/svg" width="2500" height="2500">
<path d="M0 0 C659.34 0 1318.68 0 1998 0 C1998 659.34 1998 1318.68 1998 1998 C1338.6599999999999 1998 679.3199999999999 1998 0 1998 C0 1338.6599999999999 0 679.3199999999999 0 0 Z M60 60 C60 679.74 60 1299.48 60 1938 C679.74 1938 1299.48 1938 1938 1938 C1938 1318.26 1938 698.52 1938 60 C1318.26 60 698.52 60 60 60 Z " fill="#000000" transform="translate(251,251)"/>
<path d="M0 0 C21.11999999999989 0 42.24000000000001 0 64 0 C64 20.789999999999964 64 41.57999999999993 64 63 C42.88000000000011 63 21.75999999999999 63 0 63 C0 42.210000000000036 0 21.420000000000073 0 0 Z " fill="#000000" transform="translate(1982,1927)"/>
<path d="M0 0 C21.11999999999989 0 42.24000000000001 0 64 0 C64 20.789999999999964 64 41.57999999999993 64 63 C42.88000000000011 63 21.75999999999999 63 0 63 C0 42.210000000000036 0 21.420000000000073 0 0 Z " fill="#000000" transform="translate(1747,1927)"/>
<path d="M0 0 C21.11999999999989 0 42.24000000000001 0 64 0 C64 20.789999999999964 64 41.57999999999993 64 63 C42.88000000000011 63 21.75999999999999 63 0 63 C0 42.210000000000036 0 21.420000000000073 0 0 Z " fill="#000000" transform="translate(1512,1927)"/>
<path d="M0 0 C21.11999999999989 0 42.24000000000001 0 64 0 C64 20.789999999999964 64 41.57999999999993 64 63 C42.88000000000011 63 21.75999999999999 63 0 63 C0 42.210000000000036 0 21.420000000000073 0 0 Z " fill="#000000" transform="translate(1277,1927)"/>
<path d="M0 0 C21.11999999999989 0 42.24000000000001 0 64 0 C64 20.789999999999964 64 41.57999999999993 64 63 C42.88000000000011 63 21.75999999999999 63 0 63 C0 42.210000000000036 0 21.420000000000073 0 0 Z " fill="#000000" transform="translate(1159,1927)"/>
<path d="M0 0 C21.120000000000005 0 42.24000000000001 0 64 0 C64 20.789999999999964 64 41.57999999999993 64 63 C42.879999999999995 63 21.75999999999999 63 0 63 C0 42.210000000000036 0 21.420000000000073 0 0 Z " fill="#BD03F7" transform="translate(924,1927)"/>
<path d="M0 0 C21.120000000000005 0 42.24000000000001 0 64 0 C64 20.789999999999964 64 41.57999999999993 64 63 C42.879999999999995 63 21.75999999999999 63 0 63 C0 42.210000000000036 0 21.420000000000073 0 0 Z " fill="#000000" transform="translate(689,1927)"/>
<path d="M0 0 C21.120000000000005 0 42.24000000000001 0 64 0 C64 20.789999999999964 64 41.57999999999993 64 63 C42.879999999999995 63 21.75999999999999 63 0 63 C0 42.210000000000036 0 21.420000000000073 0 0 Z " fill="#000000" transform="translate(454,1927)"/>
<path d="M0 0 C21.11999999999989 0 42.24000000000001 0 64 0 C64 20.789999999999964 64 41.57999999999993 64 63 C42.88000000000011 63 21.75999999999999 63 0 63 C0 42.210000000000036 0 21.420000000000073 0 0 Z " fill="#000000" transform="translate(1982,1818)"/>
<path d="M0 0 C21.11999999999989 0 42.24000000000001 0 64 0 C64 20.789999999999964 64 41.57999999999993 64 63 C42.88000000000011 63 21.75999999999999 63 0 63 C0 42.210000000000036 0 21.420000000000073 0 0 Z " fill="#000000" transform="translate(1747,1818)"/>
<path d="M0 0 C21.11999999999989 0 42.24000000000001 0 64 0 C64 20.789999999999964 64 41.57999999999993 64 63 C42.88000000000011 63 21.75999999999999 63 0 63 C0 42.210000000000036 0 21.420000000000073 0 0 Z " fill="#000000" transform="translate(1512,1818)"/>
<path d="M0 0 C21.11999999999989 0 42.24000000000001 0 64 0 C64 20.789999999999964 64 41.57999999999993 64 63 C42.88000000000011 63 21.75999999999999 63 0 63 C0 42.210000000000036 0 21.420000000000073 0 0 Z " fill="#000000" transform="translate(1277,1818)"/>
<path d="M0 0 C21.11999999999989 0 42.24000000000001 0 64 0 C64 20.789999999999964 64 41.57999999999993 64 63 C42.88000000000011 63 21.75999999999999 63 0 63 C0 42.210000000000036 0 21.420000000000073 0 0 Z " fill="#000000" transform="translate(1159,1818)"/>
<path d="M0 0 C21.120000000000005 0 42.24000000000001 0 64 0 C64 20.789999999999964 64 41.57999999999993 64 63 C42.879999999999995 63 21.75999999999999 63 0 63 C0 42.210000000000036 0 21.420000000000073 0 0 Z " fill="#000000" transform="translate(924,1818)"/>
<path d="M0 0 C21.120000000000005 0 42.24000000000001 0 64 0 C64 20.789999999999964 64 41.57999999999993 64 63 C42.879999999999995 63 21.75999999999999 63 0 63 C0 42.210000000000036 0 21.420000000000073 0 0 Z " fill="#000000" transform="translate(689,1818)"/>
<path d="M0 0 C21.120000000000005 0 42.24000000000001 0 64 0 C64 20.789999999999964 64 41.57999999999993 64 63 C42.879999999999995 63 21.75999999999999 63 0 63 C0 42.210000000000036 0 21.420000000000073 0 0 Z " fill="#000000" transform="translate(454,1818)"/>
<path d="M0 0 C21.11999999999989 0 42.24000000000001 0 64 0 C64 20.789999999999964 64 41.57999999999993 64 63 C42.88000000000011 63 21.75999999999999 63 0 63 C0 42.210000000000036 0 21.420000000000073 0 0 Z " fill="#000000" transform="translate(1982,1709)"/>
<path d="M0 0 C21.11999999999989 0 42.24000000000001 0 64 0 C64 20.789999999999964 64 41.57999999999993 64 63 C42.88000000000011 63 21.75999999999999 63 0 63 C0 42.210000000000036 0 21.420000000000073 0 0 Z " fill="#000000" transform="translate(1747,1709)"/>
<path d="M0 0 C21.11999999999989 0 42.24000000000001 0 64 0 C64 20.789999999999964 64 41.57999999999993 64 63 C42.88000000000011 63 21.75999999999999 63 0 63 C0 42.210000000000036 0 21.420000000000073 0 0 Z " fill="#000000" transform="translate(1512,1709)"/>
<path d="M0 0 C21.11999999999989 0 42.24000000000001 0 64 0 C64 20.789999999999964 64 41.57999999999993 64 63 C42.88000000000011 63 21.75999999999999 63 0 63 C0 42.210000000000036 0 21.420000000000073 0 0 Z " fill="#000000" transform="translate(1277,1709)"/>
<path d="M0 0 C21.11999999999989 0 42.24000000000001 0 64 0 C64 20.789999999999964 64 41.57999999999993 64 63 C42.88000000000011 63 21.75999999999999 63 0 63 C0 42.210000000000036 0 21.420000000000073 0 0 Z " fill="#000000" transform="translate(1159,1709)"/>
<path d="M0 0 C21.120000000000005 0 42.24000000000001 0 64 0 C64 20.789999999999964 64 41.57999999999993 64 63 C42.879999999999995 63 21.75999999999999 63 0 63 C0 42.210000000000036 0 21.420000000000073 0 0 Z " fill="#000000" transform="translate(924,1709)"/>
<path d="M0 0 C21.120000000000005 0 42.24000000000001 0 64 0 C64 20.789999999999964 64 41.57999999999993 64 63 C42.879999999999995 63 21.75999999999999 63 0 63 C0 42.210000000000036 0 21.420000000000073 0 0 Z " fill="#000000" transform="translate(689,1709)"/>
<path d="M0 0 C21.120000000000005 0 42.24000000000001 0 64 0 C64 20.789999999999964 64 41.57999999999993 64 63 C42.879999999999995 63 21.75999999999999 63 0 63 C0 42.210000000000036 0 21.420000000000073 0 0 Z " fill="#BD03F7" transform="translate(454,1709)"/>
<path d="M0 0 C21.11999999999989 0 42.24000000000001 0 64 0 C64 20.789999999999964 64 41.57999999999993 64 63 C42.88000000000011 63 21.75999999999999 63 0 63 C0 42.210000000000036 0 21.420000000000073 0 0 Z " fill="#000000" transform="translate(1982,1600)"/>
<path d="M0 0 C21.11999999999989 0 42.24000000000001 0 64 0 C64 20.789999999999964 64 41.57999999999993 64 63 C42.88000000000011 63 21.75999999999999 63 0 63 C0 42.210000000000036 0 21.420000000000073 0 0 Z " fill="#BD03F7" transform="translate(1747,1600)"/>
<path d="M0 0 C21.120000000000005 0 42.24000000000001 0 64 0 C64 20.789999999999964 64 41.57999999999993 64 63 C42.879999999999995 63 21.75999999999999 63 0 63 C0 42.210000000000036 0 21.420000000000073 0 0 Z " fill="#000000" transform="translate(689,1600)"/>
<path d="M0 0 C21.120000000000005 0 42.24000000000001 0 64 0 C64 20.789999999999964 64 41.57999999999993 64 63 C42.879999999999995 63 21.75999999999999 63 0 63 C0 42.210000000000036 0 21.420000000000073 0 0 Z " fill="#000000" transform="translate(454,1600)"/>
<path d="M0 0 C21.11999999999989 0 42.24000000000001 0 64 0 C64 20.789999999999964 64 41.57999999999993 64 63 C42.88000000000011 63 21.75999999999999 63 0 63 C0 42.210000000000036 0 21.420000000000073 0 0 Z " fill="#000000" transform="translate(1982,1491)"/>
<path d="M0 0 C21.11999999999989 0 42.24000000000001 0 64 0 C64 20.789999999999964 64 41.57999999999993 64 63 C42.88000000000011 63 21.75999999999999 63 0 63 C0 42.210000000000036 0 21.420000000000073 0 0 Z " fill="#000000" transform="translate(1747,1491)"/>
<path d="M0 0 C21.11999999999989 0 42.24000000000001 0 64 0 C64 20.789999999999964 64 41.57999999999993 64 63 C42.88000000000011 63 21.75999999999999 63 0 63 C0 42.210000000000036 0 21.420000000000073 0 0 Z " fill="#000000" transform="translate(1512,1491)"/>
<path d="M0 0 C21.11999999999989 0 42.24000000000001 0 64 0 C64 20.789999999999964 64 41.57999999999993 64 63 C42.88000000000011 63 21.75999999999999 63 0 63 C0 42.210000000000036 0 21.420000000000073 0 0 Z " fill="#000000" transform="translate(1277,1491)"/>
<path d="M0 0 C21.11999999999989 0 42.24000000000001 0 64 0 C64 20.789999999999964 64 41.57999999999993 64 63 C42.88000000000011 63 21.75999999999999 63 0 63 C0 42.210000000000036 0 21.420000000000073 0 0 Z " fill="#000000" transform="translate(1159,1491)"/>
<path d="M0 0 C21.120000000000005 0 42.24000000000001 0 64 0 C64 20.789999999999964 64 41.57999999999993 64 63 C42.879999999999995 63 21.75999999999999 63 0 63 C0 42.210000000000036 0 21.420000000000073 0 0 Z " fill="#000000" transform="translate(924,1491)"/>
<path d="M0 0 C21.120000000000005 0 42.24000000000001 0 64 0 C64 20.789999999999964 64 41.57999999999993 64 63 C42.879999999999995 63 21.75999999999999 63 0 63 C0 42.210000000000036 0 21.420000000000073 0 0 Z " fill="#000000" transform="translate(689,1491)"/>
<path d="M0 0 C21.120000000000005 0 42.24000000000001 0 64 0 C64 20.789999999999964 64 41.57999999999993 64 63 C42.879999999999995 63 21.75999999999999 63 0 63 C0 42.210000000000036 0 21.420000000000073 0 0 Z " fill="#000000" transform="translate(454,1491)"/>
<path d="M0 0 C21.11999999999989 0 42.24000000000001 0 64 0 C64 20.789999999999964 64 41.57999999999993 64 63 C42.88000000000011 63 21.75999999999999 63 0 63 C0 42.210000000000036 0 21.420000000000073 0 0 Z " fill="#000000" transform="translate(1982,1382)"/>
<path d="M0 0 C21.11999999999989 0 42.24000000000001 0 64 0 C64 20.789999999999964 64 41.57999999999993 64 63 C42.88000000000011 63 21.75999999999999 63 0 63 C0 42.210000000000036 0 21.420000000000073 0 0 Z " fill="#000000" transform="translate(1747,1382)"/>
<path d="M0 0 C21.11999999999989 0 42.24000000000001 0 64 0 C64 20.789999999999964 64 41.57999999999993 64 63 C42.88000000000011 63 21.75999999999999 63 0 63 C0 42.210000000000036 0 21.420000000000073 0 0 Z " fill="#000000" transform="translate(1512,1382)"/>
<path d="M0 0 C21.120000000000005 0 42.24000000000001 0 64 0 C64 20.789999999999964 64 41.57999999999993 64 63 C42.879999999999995 63 21.75999999999999 63 0 63 C0 42.210000000000036 0 21.420000000000073 0 0 Z " fill="#000000" transform="translate(924,1382)"/>
<path d="M0 0 C21.120000000000005 0 42.24000000000001 0 64 0 C64 20.789999999999964 64 41.57999999999993 64 63 C42.879999999999995 63 21.75999999999999 63 0 63 C0 42.210000000000036 0 21.420000000000073 0 0 Z " fill="#000000" transform="translate(689,1382)"/>
<path d="M0 0 C21.120000000000005 0 42.24000000000001 0 64 0 C64 20.789999999999964 64 41.57999999999993 64 63 C42.879999999999995 63 21.75999999999999 63 0 63 C0 42.210000000000036 0 21.420000000000073 0 0 Z " fill="#000000" transform="translate(454,1382)"/>
<path d="M0 0 C21.11999999999989 0 42.24000000000001 0 64 0 C64 20.789999999999964 64 41.57999999999993 64 63 C42.88000000000011 63 21.75999999999999 63 0 63 C0 42.210000000000036 0 21.420000000000073 0 0 Z " fill="#000000" transform="translate(1982,1273)"/>
<path d="M0 0 C21.11999999999989 0 42.24000000000001 0 64 0 C64 20.789999999999964 64 41.57999999999993 64 63 C42.88000000000011 63 21.75999999999999 63 0 63 C0 42.210000000000036 0 21.420000000000073 0 0 Z " fill="#000000" transform="translate(1747,1273)"/>
<path d="M0 0 C21.11999999999989 0 42.24000000000001 0 64 0 C64 20.789999999999964 64 41.57999999999993 64 63 C42.88000000000011 63 21.75999999999999 63 0 63 C0 42.210000000000036 0 21.420000000000073 0 0 Z " fill="#000000" transform="translate(1512,1273)"/>
<path d="M0 0 C21.120000000000005 0 42.24000000000001 0 64 0 C64 20.789999999999964 64 41.57999999999993 64 63 C42.879999999999995 63 21.75999999999999 63 0 63 C0 42.210000000000036 0 21.420000000000073 0 0 Z " fill="#000000" transform="translate(924,1273)"/>
<path d="M0 0 C21.120000000000005 0 42.24000000000001 0 64 0 C64 20.789999999999964 64 41.57999999999993 64 63 C42.879999999999995 63 21.75999999999999 63 0 63 C0 42.210000000000036 0 21.420000000000073 0 0 Z " fill="#000000" transform="translate(689,1273)"/>
<path d="M0 0 C21.120000000000005 0 42.24000000000001 0 64 0 C64 20.789999999999964 64 41.57999999999993 64 63 C42.879999999999995 63 21.75999999999999 63 0 63 C0 42.210000000000036 0 21.420000000000073 0 0 Z " fill="#000000" transform="translate(454,1273)"/>
<path d="M0 0 C21.11999999999989 0 42.24000000000001 0 64 0 C64 20.789999999999964 64 41.57999999999993 64 63 C42.88000000000011 63 21.75999999999999 63 0 63 C0 42.210000000000036 0 21.420000000000073 0 0 Z " fill="#BD03F7" transform="translate(1982,1164)"/>
<path d="M0 0 C21.11999999999989 0 42.24000000000001 0 64 0 C64 20.789999999999964 64 41.57999999999993 64 63 C42.88000000000011 63 21.75999999999999 63 0 63 C0 42.210000000000036 0 21.420000000000073 0 0 Z " fill="#000000" transform="translate(1747,1164)"/>
<path d="M0 0 C21.11999999999989 0 42.24000000000001 0 64 0 C64 20.789999999999964 64 41.57999999999993 64 63 C42.88000000000011 63 21.75999999999999 63 0 63 C0 42.210000000000036 0 21.420000000000073 0 0 Z " fill="#000000" transform="translate(1512,1164)"/>
<path d="M0 0 C21.120000000000005 0 42.24000000000001 0 64 0 C64 20.789999999999964 64 41.57999999999993 64 63 C42.879999999999995 63 21.75999999999999 63 0 63 C0 42.210000000000036 0 21.420000000000073 0 0 Z " fill="#000000" transform="translate(924,1164)"/>
<path d="M0 0 C21.120000000000005 0 42.24000000000001 0 64 0 C64 20.789999999999964 64 41.57999999999993 64 63 C42.879999999999995 63 21.75999999999999 63 0 63 C0 42.210000000000036 0 21.420000000000073 0 0 Z " fill="#BD03F7" transform="translate(689,1164)"/>
<path d="M0 0 C21.120000000000005 0 42.24000000000001 0 64 0 C64 20.789999999999964 64 41.57999999999993 64 63 C42.879999999999995 63 21.75999999999999 63 0 63 C0 42.210000000000036 0 21.420000000000073 0 0 Z " fill="#000000" transform="translate(454,1164)"/>
<path d="M0 0 C21.11999999999989 0 42.24000000000001 0 64 0 C64 20.789999999999964 64 41.57999999999993 64 63 C42.88000000000011 63 21.75999999999999 63 0 63 C0 42.210000000000036 0 21.420000000000073 0 0 Z " fill="#000000" transform="translate(1982,1055)"/>
<path d="M0 0 C21.11999999999989 0 42.24000000000001 0 64 0 C64 20.789999999999964 64 41.57999999999993 64 63 C42.88000000000011 63 21.75999999999999 63 0 63 C0 42.210000000000036 0 21.420000000000073 0 0 Z " fill="#BD03F7" transform="translate(1747,1055)"/>
<path d="M0 0 C21.11999999999989 0 42.24000000000001 0 64 0 C64 20.789999999999964 64 41.57999999999993 64 63 C42.88000000000011 63 21.75999999999999 63 0 63 C0 42.210000000000036 0 21.420000000000073 0 0 Z " fill="#000000" transform="translate(1512,1055)"/>
<path d="M0 0 C21.120000000000005 0 42.24000000000001 0 64 0 C64 20.789999999999964 64 41.57999999999993 64 63 C42.879999999999995 63 21.75999999999999 63 0 63 C0 42.210000000000036 0 21.420000000000073 0 0 Z " fill="#000000" transform="translate(924,1055)"/>
<path d="M0 0 C21.120000000000005 0 42.24000000000001 0 64 0 C64 20.789999999999964 64 41.57999999999993 64 63 C42.879999999999995 63 21.75999999999999 63 0 63 C0 42.210000000000036 0 21.420000000000073 0 0 Z " fill="#000000" transform="translate(689,1055)"/>
<path d="M0 0 C21.120000000000005 0 42.24000000000001 0 64 0 C64 20.789999999999964 64 41.57999999999993 64 63 C42.879999999999995 63 21.75999999999999 63 0 63 C0 42.210000000000036 0 21.420000000000073 0 0 Z " fill="#000000" transform="translate(454,1055)"/>
<path d="M0 0 C21.11999999999989 0 42.24000000000001 0 64 0 C64 20.789999999999964 64 41.58000000000004 64 63 C42.88000000000011 63 21.75999999999999 63 0 63 C0 42.210000000000036 0 21.41999999999996 0 0 Z " fill="#000000" transform="translate(1982,946)"/>
<path d="M0 0 C21.11999999999989 0 42.24000000000001 0 64 0 C64 20.789999999999964 64 41.58000000000004 64 63 C42.88000000000011 63 21.75999999999999 63 0 63 C0 42.210000000000036 0 21.41999999999996 0 0 Z " fill="#000000" transform="translate(1747,946)"/>
<path d="M0 0 C21.11999999999989 0 42.24000000000001 0 64 0 C64 20.789999999999964 64 41.58000000000004 64 63 C42.88000000000011 63 21.75999999999999 63 0 63 C0 42.210000000000036 0 21.41999999999996 0 0 Z " fill="#000000" transform="translate(1512,946)"/>
<path d="M0 0 C21.11999999999989 0 42.24000000000001 0 64 0 C64 20.789999999999964 64 41.58000000000004 64 63 C42.88000000000011 63 21.75999999999999 63 0 63 C0 42.210000000000036 0 21.41999999999996 0 0 Z " fill="#000000" transform="translate(1277,946)"/>
<path d="M0 0 C21.11999999999989 0 42.24000000000001 0 64 0 C64 20.789999999999964 64 41.58000000000004 64 63 C42.88000000000011 63 21.75999999999999 63 0 63 C0 42.210000000000036 0 21.41999999999996 0 0 Z " fill="#000000" transform="translate(1159,946)"/>
<path d="M0 0 C21.120000000000005 0 42.24000000000001 0 64 0 C64 20.789999999999964 64 41.58000000000004 64 63 C42.879999999999995 63 21.75999999999999 63 0 63 C0 42.210000000000036 0 21.41999999999996 0 0 Z " fill="#000000" transform="translate(924,946)"/>
<path d="M0 0 C21.120000000000005 0 42.24000000000001 0 64 0 C64 20.789999999999964 64 41.58000000000004 64 63 C42.879999999999995 63 21.75999999999999 63 0 63 C0 42.210000000000036 0 21.41999999999996 0 0 Z " fill="#000000" transform="translate(689,946)"/>
<path d="M0 0 C21.120000000000005 0 42.24000000000001 0 64 0 C64 20.789999999999964 64 41.58000000000004 64 63 C42.879999999999995 63 21.75999999999999 63 0 63 C0 42.210000000000036 0 21.41999999999996 0 0 Z " fill="#000000" transform="translate(454,946)"/>
<path d="M0 0 C21.11999999999989 0 42.24000000000001 0 64 0 C64 20.789999999999964 64 41.58000000000004 64 63 C42.88000000000011 63 21.75999999999999 63 0 63 C0 42.210000000000036 0 21.41999999999996 0 0 Z " fill="#000000" transform="translate(1982,837)"/>
<path d="M0 0 C21.11999999999989 0 42.24000000000001 0 64 0 C64 20.789999999999964 64 41.58000000000004 64 63 C42.88000000000011 63 21.75999999999999 63 0 63 C0 42.210000000000036 0 21.41999999999996 0 0 Z " fill="#000000" transform="translate(1747,837)"/>
<path d="M0 0 C21.120000000000005 0 42.24000000000001 0 64 0 C64 20.789999999999964 64 41.58000000000004 64 63 C42.879999999999995 63 21.75999999999999 63 0 63 C0 42.210000000000036 0 21.41999999999996 0 0 Z " fill="#000000" transform="translate(689,837)"/>
<path d="M0 0 C21.120000000000005 0 42.24000000000001 0 64 0 C64 20.789999999999964 64 41.58000000000004 64 63 C42.879999999999995 63 21.75999999999999 63 0 63 C0 42.210000000000036 0 21.41999999999996 0 0 Z " fill="#000000" transform="translate(454,837)"/>
<path d="M0 0 C21.11999999999989 0 42.24000000000001 0 64 0 C64 20.789999999999964 64 41.58000000000004 64 63 C42.88000000000011 63 21.75999999999999 63 0 63 C0 42.210000000000036 0 21.41999999999996 0 0 Z " fill="#000000" transform="translate(1982,728)"/>
<path d="M0 0 C21.11999999999989 0 42.24000000000001 0 64 0 C64 20.789999999999964 64 41.58000000000004 64 63 C42.88000000000011 63 21.75999999999999 63 0 63 C0 42.210000000000036 0 21.41999999999996 0 0 Z " fill="#000000" transform="translate(1747,728)"/>
<path d="M0 0 C21.11999999999989 0 42.24000000000001 0 64 0 C64 20.789999999999964 64 41.58000000000004 64 63 C42.88000000000011 63 21.75999999999999 63 0 63 C0 42.210000000000036 0 21.41999999999996 0 0 Z " fill="#BD03F7" transform="translate(1512,728)"/>
<path d="M0 0 C21.11999999999989 0 42.24000000000001 0 64 0 C64 20.789999999999964 64 41.58000000000004 64 63 C42.88000000000011 63 21.75999999999999 63 0 63 C0 42.210000000000036 0 21.41999999999996 0 0 Z " fill="#000000" transform="translate(1277,728)"/>
<path d="M0 0 C21.11999999999989 0 42.24000000000001 0 64 0 C64 20.789999999999964 64 41.58000000000004 64 63 C42.88000000000011 63 21.75999999999999 63 0 63 C0 42.210000000000036 0 21.41999999999996 0 0 Z " fill="#000000" transform="translate(1159,728)"/>
<path d="M0 0 C21.120000000000005 0 42.24000000000001 0 64 0 C64 20.789999999999964 64 41.58000000000004 64 63 C42.879999999999995 63 21.75999999999999 63 0 63 C0 42.210000000000036 0 21.41999999999996 0 0 Z " fill="#000000" transform="translate(924,728)"/>
<path d="M0 0 C21.120000000000005 0 42.24000000000001 0 64 0 C64 20.789999999999964 64 41.58000000000004 64 63 C42.879999999999995 63 21.75999999999999 63 0 63 C0 42.210000000000036 0 21.41999999999996 0 0 Z " fill="#000000" transform="translate(689,728)"/>
<path d="M0 0 C21.120000000000005 0 42.24000000000001 0 64 0 C64 20.789999999999964 64 41.58000000000004 64 63 C42.879999999999995 63 21.75999999999999 63 0 63 C0 42.210000000000036 0 21.41999999999996 0 0 Z " fill="#000000" transform="translate(454,728)"/>
<path d="M0 0 C21.11999999999989 0 42.24000000000001 0 64 0 C64 20.789999999999964 64 41.58000000000004 64 63 C42.88000000000011 63 21.75999999999999 63 0 63 C0 42.210000000000036 0 21.41999999999996 0 0 Z " fill="#000000" transform="translate(1982,619)"/>
<path d="M0 0 C21.11999999999989 0 42.24000000000001 0 64 0 C64 20.789999999999964 64 41.58000000000004 64 63 C42.88000000000011 63 21.75999999999999 63 0 63 C0 42.210000000000036 0 21.41999999999996 0 0 Z " fill="#000000" transform="translate(1747,619)"/>
<path d="M0 0 C21.11999999999989 0 42.24000000000001 0 64 0 C64 20.789999999999964 64 41.58000000000004 64 63 C42.88000000000011 63 21.75999999999999 63 0 63 C0 42.210000000000036 0 21.41999999999996 0 0 Z " fill="#000000" transform="translate(1512,619)"/>
<path d="M0 0 C21.11999999999989 0 42.24000000000001 0 64 0 C64 20.789999999999964 64 41.58000000000004 64 63 C42.88000000000011 63 21.75999999999999 63 0 63 C0 42.210000000000036 0 21.41999999999996 0 0 Z " fill="#000000" transform="translate(1277,619)"/>
<path d="M0 0 C21.11999999999989 0 42.24000000000001 0 64 0 C64 20.789999999999964 64 41.58000000000004 64 63 C42.88000000000011 63 21.75999999999999 63 0 63 C0 42.210000000000036 0 21.41999999999996 0 0 Z " fill="#000000" transform="translate(1159,619)"/>
<path d="M0 0 C21.120000000000005 0 42.24000000000001 0 64 0 C64 20.789999999999964 64 41.58000000000004 64 63 C42.879999999999995 63 21.75999999999999 63 0 63 C0 42.210000000000036 0 21.41999999999996 0 0 Z " fill="#000000" transform="translate(924,619)"/>
<path d="M0 0 C21.120000000000005 0 42.24000000000001 0 64 0 C64 20.789999999999964 64 41.58000000000004 64 63 C42.879999999999995 63 21.75999999999999 63 0 63 C0 42.210000000000036 0 21.41999999999996 0 0 Z " fill="#000000" transform="translate(689,619)"/>
<path d="M0 0 C21.120000000000005 0 42.24000000000001 0 64 0 C64 20.789999999999964 64 41.58000000000004 64 63 C42.879999999999995 63 21.75999999999999 63 0 63 C0 42.210000000000036 0 21.41999999999996 0 0 Z " fill="#000000" transform="translate(454,619)"/>
<path d="M0 0 C21.11999999999989 0 42.24000000000001 0 64 0 C64 20.789999999999964 64 41.58000000000004 64 63 C42.88000000000011 63 21.75999999999999 63 0 63 C0 42.210000000000036 0 21.41999999999996 0 0 Z " fill="#000000" transform="translate(1982,510)"/>
<path d="M0 0 C21.11999999999989 0 42.24000000000001 0 64 0 C64 20.789999999999964 64 41.58000000000004 64 63 C42.88000000000011 63 21.75999999999999 63 0 63 C0 42.210000000000036 0 21.41999999999996 0 0 Z " fill="#BD03F7" transform="translate(1747,510)"/>
<path d="M0 0 C21.11999999999989 0 42.24000000000001 0 64 0 C64 20.789999999999964 64 41.58000000000004 64 63 C42.88000000000011 63 21.75999999999999 63 0 63 C0 42.210000000000036 0 21.41999999999996 0 0 Z " fill="#000000" transform="translate(1512,510)"/>
<path d="M0 0 C21.11999999999989 0 42.24000000000001 0 64 0 C64 20.789999999999964 64 41.58000000000004 64 63 C42.88000000000011 63 21.75999999999999 63 0 63 C0 42.210000000000036 0 21.41999999999996 0 0 Z " fill="#000000" transform="translate(1277,510)"/>
<path d="M0 0 C21.11999999999989 0 42.24000000000001 0 64 0 C64 20.789999999999964 64 41.58000000000004 64 63 C42.88000000000011 63 21.75999999999999 63 0 63 C0 42.210000000000036 0 21.41999999999996 0 0 Z " fill="#000000" transform="translate(1159,510)"/>
<path d="M0 0 C21.120000000000005 0 42.24000000000001 0 64 0 C64 20.789999999999964 64 41.58000000000004 64 63 C42.879999999999995 63 21.75999999999999 63 0 63 C0 42.210000000000036 0 21.41999999999996 0 0 Z " fill="#000000" transform="translate(924,510)"/>
<path d="M0 0 C21.120000000000005 0 42.24000000000001 0 64 0 C64 20.789999999999964 64 41.58000000000004 64 63 C42.879999999999995 63 21.75999999999999 63 0 63 C0 42.210000000000036 0 21.41999999999996 0 0 Z " fill="#000000" transform="translate(689,510)"/>
<path d="M0 0 C21.120000000000005 0 42.24000000000001 0 64 0 C64 20.789999999999964 64 41.58000000000004 64 63 C42.879999999999995 63 21.75999999999999 63 0 63 C0 42.210000000000036 0 21.41999999999996 0 0 Z " fill="#BD03F7" transform="translate(454,510)"/>
<path d="M0 0 C20.789999999999964 0 41.57999999999993 0 63 0 C63 20.789999999999964 63 41.57999999999993 63 63 C42.210000000000036 63 21.420000000000073 63 0 63 C0 42.210000000000036 0 21.420000000000073 0 0 Z " fill="#BD03F7" transform="translate(1865,1927)"/>
<path d="M0 0 C20.789999999999964 0 41.57999999999993 0 63 0 C63 20.789999999999964 63 41.57999999999993 63 63 C42.210000000000036 63 21.420000000000073 63 0 63 C0 42.210000000000036 0 21.420000000000073 0 0 Z " fill="#000000" transform="translate(1630,1927)"/>
<path d="M0 0 C20.789999999999964 0 41.57999999999993 0 63 0 C63 20.789999999999964 63 41.57999999999993 63 63 C42.210000000000036 63 21.420000000000073 63 0 63 C0 42.210000000000036 0 21.420000000000073 0 0 Z " fill="#000000" transform="translate(1395,1927)"/>
<path d="M0 0 C20.789999999999964 0 41.57999999999993 0 63 0 C63 20.789999999999964 63 41.57999999999993 63 63 C42.210000000000036 63 21.420000000000073 63 0 63 C0 42.210000000000036 0 21.420000000000073 0 0 Z " fill="#000000" transform="translate(1042,1927)"/>
<path d="M0 0 C20.789999999999964 0 41.58000000000004 0 63 0 C63 20.789999999999964 63 41.57999999999993 63 63 C42.210000000000036 63 21.41999999999996 63 0 63 C0 42.210000000000036 0 21.420000000000073 0 0 Z " fill="#000000" transform="translate(807,1927)"/>
<path d="M0 0 C20.789999999999964 0 41.58000000000004 0 63 0 C63 20.789999999999964 63 41.57999999999993 63 63 C42.210000000000036 63 21.41999999999996 63 0 63 C0 42.210000000000036 0 21.420000000000073 0 0 Z " fill="#000000" transform="translate(572,1927)"/>
<path d="M0 0 C20.789999999999964 0 41.57999999999993 0 63 0 C63 20.789999999999964 63 41.57999999999993 63 63 C42.210000000000036 63 21.420000000000073 63 0 63 C0 42.210000000000036 0 21.420000000000073 0 0 Z " fill="#000000" transform="translate(1865,1818)"/>
<path d="M0 0 C20.789999999999964 0 41.57999999999993 0 63 0 C63 20.789999999999964 63 41.57999999999993 63 63 C42.210000000000036 63 21.420000000000073 63 0 63 C0 42.210000000000036 0 21.420000000000073 0 0 Z " fill="#000000" transform="translate(1630,1818)"/>
<path d="M0 0 C20.789999999999964 0 41.57999999999993 0 63 0 C63 20.789999999999964 63 41.57999999999993 63 63 C42.210000000000036 63 21.420000000000073 63 0 63 C0 42.210000000000036 0 21.420000000000073 0 0 Z " fill="#BD03F7" transform="translate(1395,1818)"/>
<path d="M0 0 C20.789999999999964 0 41.57999999999993 0 63 0 C63 20.789999999999964 63 41.57999999999993 63 63 C42.210000000000036 63 21.420000000000073 63 0 63 C0 42.210000000000036 0 21.420000000000073 0 0 Z " fill="#000000" transform="translate(1042,1818)"/>
<path d="M0 0 C20.789999999999964 0 41.58000000000004 0 63 0 C63 20.789999999999964 63 41.57999999999993 63 63 C42.210000000000036 63 21.41999999999996 63 0 63 C0 42.210000000000036 0 21.420000000000073 0 0 Z " fill="#000000" transform="translate(807,1818)"/>
<path d="M0 0 C20.789999999999964 0 41.58000000000004 0 63 0 C63 20.789999999999964 63 41.57999999999993 63 63 C42.210000000000036 63 21.41999999999996 63 0 63 C0 42.210000000000036 0 21.420000000000073 0 0 Z " fill="#000000" transform="translate(572,1818)"/>
<path d="M0 0 C20.789999999999964 0 41.57999999999993 0 63 0 C63 20.789999999999964 63 41.57999999999993 63 63 C42.210000000000036 63 21.420000000000073 63 0 63 C0 42.210000000000036 0 21.420000000000073 0 0 Z " fill="#000000" transform="translate(1865,1709)"/>
<path d="M0 0 C20.789999999999964 0 41.57999999999993 0 63 0 C63 20.789999999999964 63 41.57999999999993 63 63 C42.210000000000036 63 21.420000000000073 63 0 63 C0 42.210000000000036 0 21.420000000000073 0 0 Z " fill="#000000" transform="translate(1630,1709)"/>
<path d="M0 0 C20.789999999999964 0 41.57999999999993 0 63 0 C63 20.789999999999964 63 41.57999999999993 63 63 C42.210000000000036 63 21.420000000000073 63 0 63 C0 42.210000000000036 0 21.420000000000073 0 0 Z " fill="#000000" transform="translate(1395,1709)"/>
<path d="M0 0 C20.789999999999964 0 41.57999999999993 0 63 0 C63 20.789999999999964 63 41.57999999999993 63 63 C42.210000000000036 63 21.420000000000073 63 0 63 C0 42.210000000000036 0 21.420000000000073 0 0 Z " fill="#000000" transform="translate(1042,1709)"/>
<path d="M0 0 C20.789999999999964 0 41.58000000000004 0 63 0 C63 20.789999999999964 63 41.57999999999993 63 63 C42.210000000000036 63 21.41999999999996 63 0 63 C0 42.210000000000036 0 21.420000000000073 0 0 Z " fill="#000000" transform="translate(807,1709)"/>
<path d="M0 0 C20.789999999999964 0 41.58000000000004 0 63 0 C63 20.789999999999964 63 41.57999999999993 63 63 C42.210000000000036 63 21.41999999999996 63 0 63 C0 42.210000000000036 0 21.420000000000073 0 0 Z " fill="#000000" transform="translate(572,1709)"/>
<path d="M0 0 C20.789999999999964 0 41.57999999999993 0 63 0 C63 20.789999999999964 63 41.57999999999993 63 63 C42.210000000000036 63 21.420000000000073 63 0 63 C0 42.210000000000036 0 21.420000000000073 0 0 Z " fill="#000000" transform="translate(1865,1600)"/>
<path d="M0 0 C20.789999999999964 0 41.57999999999993 0 63 0 C63 20.789999999999964 63 41.57999999999993 63 63 C42.210000000000036 63 21.420000000000073 63 0 63 C0 42.210000000000036 0 21.420000000000073 0 0 Z " fill="#000000" transform="translate(1630,1600)"/>
<path d="M0 0 C20.789999999999964 0 41.58000000000004 0 63 0 C63 20.789999999999964 63 41.57999999999993 63 63 C42.210000000000036 63 21.41999999999996 63 0 63 C0 42.210000000000036 0 21.420000000000073 0 0 Z " fill="#000000" transform="translate(572,1600)"/>
<path d="M0 0 C20.789999999999964 0 41.57999999999993 0 63 0 C63 20.789999999999964 63 41.57999999999993 63 63 C42.210000000000036 63 21.420000000000073 63 0 63 C0 42.210000000000036 0 21.420000000000073 0 0 Z " fill="#000000" transform="translate(1865,1491)"/>
<path d="M0 0 C20.789999999999964 0 41.57999999999993 0 63 0 C63 20.789999999999964 63 41.57999999999993 63 63 C42.210000000000036 63 21.420000000000073 63 0 63 C0 42.210000000000036 0 21.420000000000073 0 0 Z " fill="#000000" transform="translate(1395,1491)"/>
<path d="M0 0 C20.789999999999964 0 41.57999999999993 0 63 0 C63 20.789999999999964 63 41.57999999999993 63 63 C42.210000000000036 63 21.420000000000073 63 0 63 C0 42.210000000000036 0 21.420000000000073 0 0 Z " fill="#000000" transform="translate(1042,1491)"/>
<path d="M0 0 C20.789999999999964 0 41.58000000000004 0 63 0 C63 20.789999999999964 63 41.57999999999993 63 63 C42.210000000000036 63 21.41999999999996 63 0 63 C0 42.210000000000036 0 21.420000000000073 0 0 Z " fill="#000000" transform="translate(572,1491)"/>
<path d="M0 0 C20.789999999999964 0 41.57999999999993 0 63 0 C63 20.789999999999964 63 41.57999999999993 63 63 C42.210000000000036 63 21.420000000000073 63 0 63 C0 42.210000000000036 0 21.420000000000073 0 0 Z " fill="#000000" transform="translate(1865,1382)"/>
<path d="M0 0 C20.789999999999964 0 41.58000000000004 0 63 0 C63 20.789999999999964 63 41.57999999999993 63 63 C42.210000000000036 63 21.41999999999996 63 0 63 C0 42.210000000000036 0 21.420000000000073 0 0 Z " fill="#000000" transform="translate(572,1382)"/>
<path d="M0 0 C20.789999999999964 0 41.57999999999993 0 63 0 C63 20.789999999999964 63 41.57999999999993 63 63 C42.210000000000036 63 21.420000000000073 63 0 63 C0 42.210000000000036 0 21.420000000000073 0 0 Z " fill="#000000" transform="translate(1865,1273)"/>
<path d="M0 0 C20.789999999999964 0 41.58000000000004 0 63 0 C63 20.789999999999964 63 41.57999999999993 63 63 C42.210000000000036 63 21.41999999999996 63 0 63 C0 42.210000000000036 0 21.420000000000073 0 0 Z " fill="#000000" transform="translate(572,1273)"/>
<path d="M0 0 C20.789999999999964 0 41.57999999999993 0 63 0 C63 20.789999999999964 63 41.57999999999993 63 63 C42.210000000000036 63 21.420000000000073 63 0 63 C0 42.210000000000036 0 21.420000000000073 0 0 Z " fill="#000000" transform="translate(1865,1164)"/>
<path d="M0 0 C20.789999999999964 0 41.58000000000004 0 63 0 C63 20.789999999999964 63 41.57999999999993 63 63 C42.210000000000036 63 21.41999999999996 63 0 63 C0 42.210000000000036 0 21.420000000000073 0 0 Z " fill="#000000" transform="translate(572,1164)"/>
<path d="M0 0 C20.789999999999964 0 41.57999999999993 0 63 0 C63 20.789999999999964 63 41.57999999999993 63 63 C42.210000000000036 63 21.420000000000073 63 0 63 C0 42.210000000000036 0 21.420000000000073 0 0 Z " fill="#000000" transform="translate(1865,1055)"/>
<path d="M0 0 C20.789999999999964 0 41.58000000000004 0 63 0 C63 20.789999999999964 63 41.57999999999993 63 63 C42.210000000000036 63 21.41999999999996 63 0 63 C0 42.210000000000036 0 21.420000000000073 0 0 Z " fill="#000000" transform="translate(572,1055)"/>
<path d="M0 0 C20.789999999999964 0 41.57999999999993 0 63 0 C63 20.789999999999964 63 41.58000000000004 63 63 C42.210000000000036 63 21.420000000000073 63 0 63 C0 42.210000000000036 0 21.41999999999996 0 0 Z " fill="#000000" transform="translate(1865,946)"/>
<path d="M0 0 C20.789999999999964 0 41.57999999999993 0 63 0 C63 20.789999999999964 63 41.58000000000004 63 63 C42.210000000000036 63 21.420000000000073 63 0 63 C0 42.210000000000036 0 21.41999999999996 0 0 Z " fill="#000000" transform="translate(1395,946)"/>
<path d="M0 0 C20.789999999999964 0 41.57999999999993 0 63 0 C63 20.789999999999964 63 41.58000000000004 63 63 C42.210000000000036 63 21.420000000000073 63 0 63 C0 42.210000000000036 0 21.41999999999996 0 0 Z " fill="#000000" transform="translate(1042,946)"/>
<path d="M0 0 C20.789999999999964 0 41.58000000000004 0 63 0 C63 20.789999999999964 63 41.58000000000004 63 63 C42.210000000000036 63 21.41999999999996 63 0 63 C0 42.210000000000036 0 21.41999999999996 0 0 Z " fill="#000000" transform="translate(572,946)"/>
<path d="M0 0 C20.789999999999964 0 41.57999999999993 0 63 0 C63 20.789999999999964 63 41.58000000000004 63 63 C42.210000000000036 63 21.420000000000073 63 0 63 C0 42.210000000000036 0 21.41999999999996 0 0 Z " fill="#000000" transform="translate(1865,837)"/>
<path d="M0 0 C20.789999999999964 0 41.58000000000004 0 63 0 C63 20.789999999999964 63 41.58000000000004 63 63 C42.210000000000036 63 21.41999999999996 63 0 63 C0 42.210000000000036 0 21.41999999999996 0 0 Z " fill="#000000" transform="translate(572,837)"/>
<path d="M0 0 C20.789999999999964 0 41.57999999999993 0 63 0 C63 20.789999999999964 63 41.58000000000004 63 63 C42.210000000000036 63 21.420000000000073 63 0 63 C0 42.210000000000036 0 21.41999999999996 0 0 Z " fill="#000000" transform="translate(1865,728)"/>
<path d="M0 0 C20.789999999999964 0 41.57999999999993 0 63 0 C63 20.789999999999964 63 41.58000000000004 63 63 C42.210000000000036 63 21.420000000000073 63 0 63 C0 42.210000000000036 0 21.41999999999996 0 0 Z " fill="#000000" transform="translate(1630,728)"/>
<path d="M0 0 C20.789999999999964 0 41.57999999999993 0 63 0 C63 20.789999999999964 63 41.58000000000004 63 63 C42.210000000000036 63 21.420000000000073 63 0 63 C0 42.210000000000036 0 21.41999999999996 0 0 Z " fill="#000000" transform="translate(1395,728)"/>
<path d="M0 0 C20.789999999999964 0 41.57999999999993 0 63 0 C63 20.789999999999964 63 41.58000000000004 63 63 C42.210000000000036 63 21.420000000000073 63 0 63 C0 42.210000000000036 0 21.41999999999996 0 0 Z " fill="#000000" transform="translate(1042,728)"/>
<path d="M0 0 C20.789999999999964 0 41.58000000000004 0 63 0 C63 20.789999999999964 63 41.58000000000004 63 63 C42.210000000000036 63 21.41999999999996 63 0 63 C0 42.210000000000036 0 21.41999999999996 0 0 Z " fill="#000000" transform="translate(807,728)"/>
<path d="M0 0 C20.789999999999964 0 41.58000000000004 0 63 0 C63 20.789999999999964 63 41.58000000000004 63 63 C42.210000000000036 63 21.41999999999996 63 0 63 C0 42.210000000000036 0 21.41999999999996 0 0 Z " fill="#000000" transform="translate(572,728)"/>
<path d="M0 0 C20.789999999999964 0 41.57999999999993 0 63 0 C63 20.789999999999964 63 41.58000000000004 63 63 C42.210000000000036 63 21.420000000000073 63 0 63 C0 42.210000000000036 0 21.41999999999996 0 0 Z " fill="#000000" transform="translate(1865,619)"/>
<path d="M0 0 C20.789999999999964 0 41.57999999999993 0 63 0 C63 20.789999999999964 63 41.58000000000004 63 63 C42.210000000000036 63 21.420000000000073 63 0 63 C0 42.210000000000036 0 21.41999999999996 0 0 Z " fill="#000000" transform="translate(1630,619)"/>
<path d="M0 0 C20.789999999999964 0 41.57999999999993 0 63 0 C63 20.789999999999964 63 41.58000000000004 63 63 C42.210000000000036 63 21.420000000000073 63 0 63 C0 42.210000000000036 0 21.41999999999996 0 0 Z " fill="#000000" transform="translate(1395,619)"/>
<path d="M0 0 C20.789999999999964 0 41.57999999999993 0 63 0 C63 20.789999999999964 63 41.58000000000004 63 63 C42.210000000000036 63 21.420000000000073 63 0 63 C0 42.210000000000036 0 21.41999999999996 0 0 Z " fill="#BD03F7" transform="translate(1042,619)"/>
<path d="M0 0 C20.789999999999964 0 41.58000000000004 0 63 0 C63 20.789999999999964 63 41.58000000000004 63 63 C42.210000000000036 63 21.41999999999996 63 0 63 C0 42.210000000000036 0 21.41999999999996 0 0 Z " fill="#000000" transform="translate(807,619)"/>
<path d="M0 0 C20.789999999999964 0 41.58000000000004 0 63 0 C63 20.789999999999964 63 41.58000000000004 63 63 C42.210000000000036 63 21.41999999999996 63 0 63 C0 42.210000000000036 0 21.41999999999996 0 0 Z " fill="#000000" transform="translate(572,619)"/>
<path d="M0 0 C20.789999999999964 0 41.57999999999993 0 63 0 C63 20.789999999999964 63 41.58000000000004 63 63 C42.210000000000036 63 21.420000000000073 63 0 63 C0 42.210000000000036 0 21.41999999999996 0 0 Z " fill="#000000" transform="translate(1865,510)"/>
<path d="M0 0 C20.789999999999964 0 41.57999999999993 0 63 0 C63 20.789999999999964 63 41.58000000000004 63 63 C42.210000000000036 63 21.420000000000073 63 0 63 C0 42.210000000000036 0 21.41999999999996 0 0 Z " fill="#000000" transform="translate(1630,510)"/>
<path d="M0 0 C20.789999999999964 0 41.57999999999993 0 63 0 C63 20.789999999999964 63 41.58000000000004 63 63 C42.210000000000036 63 21.420000000000073 63 0 63 C0 42.210000000000036 0 21.41999999999996 0 0 Z " fill="#000000" transform="translate(1395,510)"/>
<path d="M0 0 C20.789999999999964 0 41.57999999999993 0 63 0 C63 20.789999999999964 63 41.58000000000004 63 63 C42.210000000000036 63 21.420000000000073 63 0 63 C0 42.210000000000036 0 21.41999999999996 0 0 Z " fill="#000000" transform="translate(1042,510)"/>
<path d="M0 0 C20.789999999999964 0 41.58000000000004 0 63 0 C63 20.789999999999964 63 41.58000000000004 63 63 C42.210000000000036 63 21.41999999999996 63 0 63 C0 42.210000000000036 0 21.41999999999996 0 0 Z " fill="#000000" transform="translate(807,510)"/>
<path d="M0 0 C20.789999999999964 0 41.58000000000004 0 63 0 C63 20.789999999999964 63 41.58000000000004 63 63 C42.210000000000036 63 21.41999999999996 63 0 63 C0 42.210000000000036 0 21.41999999999996 0 0 Z " fill="#000000" transform="translate(572,510)"/>
</svg>
