<?xml version="1.0" encoding="UTF-8"?>
<!-- Generator: visioncortex VTracer 0.6.12 -->
<svg version="1.1" xmlns="http://www.w3.org/2000/svg" width="600" height="600">
<path d="M0 0 C0 0.6599999999999966 0 1.3200000000000003 0 2 C0.2887499999999932 2.1366406249999983 0.2887499999999932 2.1366406249999983 1.75 2.828125 C7.953116322141398 6.058914751115296 12.406680308184377 9.968356231595166 16 16 C16.639374999999973 16.721874999999997 17.278750000000002 17.44375 17.9375 18.1875 C21.05368126525275 22.436838088981062 22.92745204903889 27.175607445254343 25 32 C25.31324218750001 32.69093749999999 25.626484375000018 33.38187500000001 25.94921875 34.09375 C28.283239112557794 39.28552212354322 29.12597102616661 43.822560398929 29.1328125 49.4921875 C29.134101562500007 50.52730468749999 29.135390625000014 51.562421875 29.13671875 52.62890625 C29.13285156249998 53.7001171875 29.128984375000016 54.771328125 29.125 55.875 C29.12886718750002 56.9384765625 29.132734374999984 58.001953125 29.13671875 59.09765625 C29.12589252411823 67.8127680848185 29.12589252411823 67.8127680848185 28.265625 72 C28 75.00000000000003 28 75.00000000000003 29.4765625 77.2578125 C30.185546875 77.873984375 30.89453125 78.49015625 31.625 79.125 C32.37007812500002 79.7966015625 33.115156249999984 80.468203125 33.8828125 81.16015625 C34.581484375 81.7673046875 35.280156250000005 82.374453125 36 83 C36.41250000000002 83.42281249999999 36.41250000000002 83.42281249999999 38.5 85.5625 C40.56978361169104 87.58053902139875 42.67563696172016 89.44177741571602 44.875 91.3125 C48.39453333420448 94.35480847532926 51.414827954349846 97.63260654736541 54.4296875 101.16796875 C57.92506786540474 105.24591250963888 61.858874468097724 108.76280232021912 65.875 112.3125 C69.71984015012652 115.74600509691834 73.16460733550264 119.30770423766904 76.49609375 123.234375 C79.82680671289552 127.14471853046436 83.57413095693869 130.50825769536223 87.4375 133.875 C90.84527098981528 136.8702215996718 93.79435688781643 139.97266780225104 96.6640625 143.4765625 C98.53996772015472 145.61575266333435 100.77164144168194 147.24076955922257 103 149 C103.57363281250002 149.85078125 104.14726562499999 150.7015625 104.73828125 151.578125 C107 154 107 154 110.06640625 154.6015625 C110.64326171875001 154.60542968750002 110.64326171875001 154.60542968750002 113.5625 154.625 C125.22985540147715 155.10862094928402 132.8073465582654 157.79007573197288 142 165 C142.7541015625 165.4640625 143.50820312500002 165.928125 144.28515625 166.40625 C146 167.99999999999997 146 167.99999999999997 146.4921875 170.4609375 C145.85621255333768 173.74176063754382 144.73219832730348 174.59305539615852 142.125 176.625 C139.47608555661856 178.72324405730217 137.90527545022235 180.1420868246665 136 183 C134.35000000000002 182.34 132.7 181.68 131 181 C131 180.34 131 179.68 131 179 C120.68967228630083 174.71494546926115 110.23161379299933 172.09829543285127 99.3515625 175.93359375 C97.19114279386201 176.8879539114493 95.10342467623178 177.92819124777998 93 179 C92.00999999999999 179.33 91.01999999999998 179.66 90 180 C89.29605388078971 181.31403275585922 88.63654341714198 182.65202570487585 88 184 C87.38125000000002 184.721875 86.76249999999999 185.44375 86.125 186.1875 C79.82305719023458 194.52830665998363 79.2682219221083 202.82097805599113 79 213 C79.66000000000003 213 80.32 213 81 213 C81.19593750000001 213.71285156249996 81.39187500000003 214.42570312500004 81.59375 215.16015625 C84.12093280858795 223.25367705508984 87.67415644862979 228.19838438183126 95.25 232.18359375 C95.53875 232.31830078125 95.53875 232.31830078125 97 233 C97 233.65999999999997 97 234.32 97 235 C106.98151774651478 237.37748749474076 117.02201321398178 238.3870091895041 126.2421875 233.12109375 C126.5322265625 232.93611328125002 126.5322265625 232.93611328125002 128 232 C128.3003515625 231.80986328125 128.3003515625 231.80986328125 129.8203125 230.84765625 C131.2315523035768 229.92542744812772 132.61889458090297 228.9667737933679 134 228 C137.18419421424215 229.37154685851556 138.9711259582869 230.86169982727597 141.125 233.5625 C143.8055555555556 236.90277777777783 143.8055555555556 236.90277777777783 146 238 C145.9229117205034 240.62100150288484 145.45700390516487 242.43319645528254 143.796875 244.4921875 C138.65536890543893 249.30922961771984 132.50922004741795 251.5523913718156 126 254 C125.25363281249997 254.36867187500002 124.507265625 254.73734374999998 123.73828125 255.1171875 C114.73563634912864 258.0196093938615 101.54015970610197 257.4542567786768 93.13671875 253.171875 C92.43160156250002 252.78515625 91.72648437499998 252.3984375 91 252 C90.22269531249998 251.69578124999998 89.44539062500002 251.39156250000002 88.64453125 251.078125 C78.63460637402915 246.9404771975319 69.42606551762015 237.97426472228886 64.8125 228.1875 C64.16585432928792 226.47376603617374 63.55594146557809 224.74526897900387 63 223 C62.58749999999998 221.7625 62.17500000000001 220.52499999999998 61.75 219.25 C61.11102738163373 216.56075871922383 60.99582773657255 214.242316961573 60.98046875 211.453125 C60.8688439398785 201.18364246882 60.8688439398785 201.18364246882 58.11328125 197.4296875 C55.830205156200236 195.44473208621704 53.496939236652224 193.70480678916255 51 192 C47.6792610274037 188.8452979760335 44.658706132401505 185.48946433474987 41.625 182.0625 C38.437810063372865 178.4881805036827 35.187865918949626 175.32082630079375 31.484375 172.296875 C29.35803012627065 170.4391210576891 27.753583927263833 168.20612171494483 26 166 C25.00999999999999 165.175 24.019999999999982 164.35 23 163.5 C19.999999999999943 160.99999999999997 19.999999999999943 160.99999999999997 18.0625 158.5625 C16.288586409695995 156.35854675144049 14.656334890372648 154.79007843340912 12.5 153 C9.57684403920689 150.57334611322696 7.3671245928249505 147.9779954554895 5 145 C4.009999999999991 144.175 3.019999999999982 143.35 2 142.5 C-1 139.99999999999997 -1 139.99999999999997 -2.9375 137.5625 C-5.165384022158378 134.79452288156082 -7.600091183756263 132.74574884772233 -10.32421875 130.48828125 C-12.51106361743399 128.54611832577538 -14.217686070476134 126.31040694567912 -16 124 C-16.659999999999968 123.66999999999999 -17.319999999999993 123.34 -18 123 C-18 122.34 -18 121.68 -18 121 C-19.259414062500014 121.32613281249999 -20.518828125000027 121.65226562500001 -21.81640625 121.98828125 C-27.224618372357327 123.18669790062211 -32.418329855988475 123.26027184783916 -37.9375 123.1875 C-38.86240234374998 123.18685546875 -39.78730468750001 123.1862109375 -40.740234375 123.185546875 C-45.39188995702028 123.15620917336147 -49.8558186465138 122.91004770430112 -54.46484375 122.26953125 C-58.6985733409179 121.80962526794815 -58.6985733409179 121.80962526794815 -61.2265625 123.40625 C-61.688046875 124.09718749999999 -62.149531249999995 124.78812500000001 -62.625 125.5 C-64.9333923072893 128.61959620772822 -67.15514270519998 131.17752732361117 -70.125 133.6875 C-74.73592216168879 137.61826697691862 -78.83673131757257 141.80479600000572 -82.8125 146.375 C-86.05086180652063 150.0532902028782 -89.46202281771423 153.28636565860586 -93.1953125 156.453125 C-95.59692919634722 158.51165359686908 -97.79245641049783 160.73585272871568 -100 163 C-101.1653140110243 164.16801775582942 -102.3320781793226 165.334589839152 -103.5 166.5 C-104.0465625 167.0465625 -104.59312499999999 167.593125 -105.15625 168.15625 C-113.10416666666669 176.10416666666669 -121.05208333333331 184.05208333333331 -129 192 C-127.42204369587844 195.31831097305914 -125.63482421042002 197.67575509445393 -123.125 200.375 C-108.14262786588378 216.4967160226422 -103.2645205826152 236.6179195719402 -103 258 C-103.16076877185105 259.68807210443606 -103.32610612702109 261.3757294321046 -103.5 263.0625 C-102.8251475657056 268.3769629200681 -100.53386667169576 269.8044527956181 -96.44921875 273.0234375 C-94.0886698142765 274.9284419042681 -92.20827849171417 276.8790657514893 -90.25 279.1875 C-86.34365706071856 283.7805744605707 -82.17289223761793 287.8561410432884 -77.625 291.8125 C-73.94476275139834 295.0525759829882 -70.71218184825477 298.4682679181479 -67.5390625 302.19921875 C-64.20930852609888 306.09519992250864 -60.48282994785825 309.456448609549 -56.625 312.8125 C-52.9433605476076 316.05381048134217 -49.710087516593035 319.4713151285603 -46.53515625 323.203125 C-43.03893146255763 327.2953982881005 -39.08452036197832 330.8152118288759 -35.0625 334.375 C-31.51569708185673 337.54291595952856 -28.318635199710798 340.75844399128795 -25.30859375 344.43359375 C-23.3541956582485 346.7730374359473 -21.183865159400966 348.87679776169347 -19 351 C-18.340000000000032 351.66 -17.680000000000007 352.32 -17 353 C-14.760253906249659 353.54663085937506 -14.760253906249659 353.54663085937506 -11.9765625 353.96484375 C-11.468349609374968 354.0442822265625 -11.468349609374968 354.0442822265625 -8.896484375 354.4462890625 C-7.81689453125 354.608388671875 -6.7373046875 354.77048828125 -5.625 354.9375 C2.7135462332724387 356.2498201096229 10.881970872095849 357.6500441998172 19 360 C19 360.66 19 361.32 19 362 C19.58781250000004 362.103125 19.58781250000004 362.103125 22.5625 362.625 C31.776200718397945 364.6805882931869 41.30214999443234 368.41088498541296 49.12109375 373.73046875 C51.31105011931527 375.21016899953736 53.58237685236128 376.4978737437806 55.875 377.8125 C63.62651866810637 382.44914460208815 70.39434153431841 388.35473154875643 77.12109375 394.34765625 C78.36428380807513 395.4409398145858 79.62744285435241 396.51196257441023 80.91015625 397.55859375 C84.7654144972563 400.709919493511 87.29639448989082 403.76435136749564 90 408 C90.78375 408.78375 91.5675 409.5675 92.375 410.375 C95.62751729667758 413.6275172966776 98.51080759574 417.12507161811067 101 421 C101 421.66 101 422.32 101 423 C101.66000000000003 423 102.32 423 103 423 C104.33838732746813 425.4557017481669 105.67086232169731 427.9142991631423 107 430.375 C107.38156249999997 431.073671875 107.763125 431.77234375 108.15625 432.4921875 C111 437.77343749999994 111 437.77343749999994 111 440 C111.66000000000003 440 112.32 440 113 440 C119.30789613927055 455.49415265277145 119.30789613927055 455.49415265277145 121.35546875 461.99609375 C121.77914821445427 463.3133517213034 122.23943404439262 464.61948808311115 122.73828125 465.91015625 C129.09792547004997 482.8365939433638 129 502.33982748409585 129 520 C24.389999999999986 520 -80.22000000000003 520 -188 520 C-188 490.9821428571429 -188 490.9821428571429 -186 480 C-185.34 480 -184.68 480 -184 480 C-183.8878515625 478.713515625 -183.775703125 477.42703125 -183.66015625 476.1015625 C-183.0890086062068 471.0178518201154 -181.90971994590336 466.26636780458574 -180.4375 461.375 C-180.17864013671874 460.5105224609375 -179.91978027343748 459.646044921875 -179.653076171875 458.75537109375 C-177.06780478649964 450.54101422635097 -173.30446012294482 443.43414221659975 -169 436 C-168.4933984375 434.9726171875 -167.98679687499998 433.945234375 -167.46484375 432.88671875 C-163.85452056359452 425.7719751906569 -158.68479888210408 419.4592838889822 -153.74609375 413.22265625 C-152.57070298430978 411.7264653200722 -151.4172426074024 410.2128129070378 -150.28515625 408.68359375 C-146.3311958309146 403.38474883462703 -142.06968480822388 399.2154522031752 -137 395 C-135.32846282354265 393.5263394986373 -133.6617760925139 392.0471588914309 -132 390.5625 C-131.236875 389.8831640625 -130.47375 389.203828125 -129.6875 388.50390625 C-129.130625 388.0076171875 -128.57375 387.511328125 -128 387 C-135.27112708170085 378.42372474738096 -142.83998825102387 370.14904934676343 -150.596435546875 362.009765625 C-152.3966565060341 360.09772869435517 -154.17389196105768 358.163767988165 -155.926513671875 356.2080078125 C-172.09044084721575 338.2207154397528 -172.09044084721575 338.2207154397528 -184.9877166748047 337.3616638183594 C-189.1081181751599 337.35395002335343 -193.17670693654838 337.58974387839754 -197.2828369140625 337.91477966308594 C-203.7502421232022 338.1176215365587 -209.9199109569546 336.0147464871412 -216 334 C-216.474375 333.84466796875 -216.474375 333.84466796875 -218.875 333.05859375 C-224.85428796413754 330.8801641411145 -229.86741713250137 327.72345557114903 -235 324 C-235.3338671875 323.76861328125 -235.3338671875 323.76861328125 -237.0234375 322.59765625 C-254.12710479590112 310.3952374875093 -265.49810011307864 292.51607761380984 -269.5517578125 271.978515625 C-273.24034280777096 247.46831031873347 -269.18757354554833 225.0179279946887 -254.75 204.9375 C-246.74908299157013 194.6296519208062 -238.42176898572671 187.3454272142926 -227 181 C-226.291015625 180.590078125 -225.58203125 180.18015625 -224.8515625 179.7578125 C-217.54197142469374 175.77917431977002 -209.11137513726374 173.07556714661666 -200.8125 172.5 C-199.554375 172.335 -198.29625 172.17 -197 172 C-195.953125 170.1328125 -195.953125 170.1328125 -195 168 C-193.52734375 166.58593749999997 -193.52734375 166.58593749999997 -191.9375 165.375 C-189 163 -189 163 -188 161 C-187.34 161 -186.68 161 -186 161 C-185.7357421875 160.39671875 -185.471484375 159.7934375 -185.19921875 159.171875 C-183.94244926013565 156.89577129848672 -182.8455983755096 155.8318156697329 -180.8125 154.25 C-177.35314866484802 151.40916054597707 -174.51548084549938 148.2726970874139 -171.61328125 144.875 C-168.3981960076003 141.13833918558873 -164.8686201089606 137.87784036157103 -161.125 134.6875 C-157.59039738714029 131.63882204013228 -154.60087878171004 128.33459828859623 -151.58984375 124.77734375 C-149.60472735496108 122.55811043367885 -147.33327607002423 120.84206005528227 -145 119 C-144.195625 118.03062499999999 -143.39125 117.06125 -142.5625 116.0625 C-139.94572291046205 112.9351322588449 -137.1256303315648 110.60469194297067 -134 108 C-132.32932867204613 106.00334402268928 -130.66247014123846 104.00348965738993 -129 102 C-127.33333333333334 100.66666666666669 -125.66666666666666 99.33333333333331 -124 98 C-123.195625 97.03062499999999 -122.39125000000001 96.06125 -121.5625 95.0625 C-118.94572291046205 91.93513225884487 -116.12563033156479 89.60469194297067 -113 87 C-112.10233350036066 85.9778017316246 -111.22674695628922 84.93576461427432 -110.375 83.875 C-108.00000000000003 81.00000000000001 -108.00000000000003 81.00000000000001 -105.8369140625 79.600341796875 C-104 77.99999999999999 -104 77.99999999999999 -103.8193359375 75.917236328125 C-103.956298828125 75.12599365234375 -104.09326171875 74.3347509765625 -104.234375 73.51953125 C-107.22969442258719 52.55609645866956 -105.1140567434444 33.644386995886435 -93 16 C-92.00999999999999 15.670000000000002 -91.01999999999998 15.340000000000003 -90 15 C-89.72414062500002 14.265234374999999 -89.44828125000004 13.530468749999997 -89.1640625 12.7734375 C-87.65280963880844 9.172801488436178 -85.300118550594 7.084887484021458 -82.375 4.625 C-81.80885986328121 4.147482910156249 -81.24271972656254 3.6699658203124983 -80.659423828125 3.177978515625 C-57.73406801940757 -15.217533000126188 -24.50659157463042 -14.621312742321642 0 0 Z M-49.4375 8.5 C-50.673710937500005 8.778437499999995 -51.90992187500001 9.056874999999998 -53.18359375 9.34375 C-54.11300781249997 9.560312500000002 -55.042421875 9.776875000000004 -56 10 C-56 10.659999999999997 -56 11.32 -56 12 C-56.71542968749998 12.104414062499998 -57.43085937500001 12.208828124999997 -58.16796875 12.31640625 C-67.72135281779879 14.622395507744528 -74.84524906367278 21.99842070565566 -80 30 C-85.60917066899617 39.887594214990756 -87.36918757586852 49.73977893600912 -87 61 C-81.29366729145329 56.21457401098817 -76.08080370467144 51.251347255760365 -71.1875 45.625 C-67.94983772485836 41.94750435917874 -64.5476841732874 38.70890242142417 -60.80078125 35.55859375 C-59 34 -59 34 -56.5 31.3125 C-49.13936097090448 24.50390889808662 -40.663814593543975 23.557687604251072 -31.03515625 23.7109375 C-26.06593676011829 23.93874612676467 -22.214475182170986 25.401797774290458 -18 28 C-17.163398437500007 28.436992187499996 -16.326796875000014 28.873984374999992 -15.46484375 29.32421875 C-12.617663751035934 31.259940175603134 -11.435728799494314 33.01892170194684 -9.75 36 C-9.249843749999968 36.86625000000001 -8.749687499999993 37.7325 -8.234375 38.625 C-7 41 -7 41 -6 44 C-5.340000000000032 44 -4.680000000000007 44 -4 44 C-4 50.27000000000001 -4 56.53999999999999 -4 63 C-4.659999999999968 63 -5.319999999999993 63 -6 63 C-6.302929687500011 63.6638671875 -6.605859375000023 64.327734375 -6.91796875 65.01171875 C-9.38922697146927 70.22037069371216 -11.62031258802989 74.14170394659776 -16 78 C-17.17340633925039 79.15988783303783 -18.339629292847974 80.32707116831169 -19.5 81.5 C-21.50896709829567 83.51330612010622 -23.526579585184606 85.5137361806679 -25.5625 87.5 C-27.428639187408635 89.41398891016274 -29.114607567888754 91.32109786438156 -30.8125 93.375 C-33.72416961015608 96.8416353583059 -36.991395727723045 99.71940542053272 -40.4609375 102.6171875 C-40.714882812500036 102.84535156250001 -40.714882812500036 102.84535156250001 -42 104 C-42 104.32999999999998 -42 104.66 -42 105 C-28.54928927351864 104.63249424244586 -15.8198364789057 103.12670636887151 -6 93 C-5.195625000000007 92.42250000000001 -4.391250000000014 91.845 -3.5625 91.25 C-0.22499352235359993 88.31950650743244 1.990277091256246 84.95102971846643 4 81 C4 80.34 4 79.68 4 79 C4.659999999999968 79 5.319999999999993 79 6 79 C11.001988935112877 64.83157552798255 12.836561335495219 52.540007275046804 8 38 C2.681411214360537 27.18416182351868 -4.757939869259474 19.280182140977715 -15 13 C-15.639374999999973 12.604257812500002 -16.278750000000002 12.208515625000004 -16.9375 11.80078125 C-26.811927469455668 6.266987522325891 -38.6434004587104 6.032777247705241 -49.4375 8.5 Z M-42 42 C-42 42.66 -42 43.31999999999999 -42 44 C-42.587812499999984 44.27199218749999 -43.17562499999997 44.54398437500001 -43.78125 44.82421875 C-48.20995006599213 47.171117904689496 -51.88265601569549 50.60332001961939 -55 54.5 C-57.203120790976186 57.25390098872026 -59.637307261713204 59.2838368138638 -62.33984375 61.52734375 C-64.52144510238111 63.46255247905333 -66.18811175276471 65.7205276889621 -68 68 C-68.96937500000001 68.804375 -69.93875000000003 69.60875 -70.9375 70.4375 C-74.12376620713803 73.103559479442 -76.41435563745836 75.76794454682295 -79 79 C-79.65999999999997 79.66 -80.32 80.32 -81 81 C-79.67909474865371 82.67653358824727 -78.34192867790102 84.34024610891186 -77 86 C-76.52949218750001 86.600703125 -76.05898437500002 87.20140624999999 -75.57421875 87.8203125 C-72.69316696776536 91.37882090286345 -70.59549274102017 93.78354603914173 -66 95 C-66 95.66 -66 96.32 -66 97 C-64.68 97.66 -63.360000000000014 98.32 -62 99 C-56.61781647436635 93.66849963156574 -51.243468235632236 88.3291948664737 -45.87451171875 82.984375 C-44.046883932525134 81.16680874127877 -42.21746566138705 79.35104104379863 -40.38623046875 77.537109375 C-37.75536609383437 74.9304860268451 -35.130994670112784 72.31747638828672 -32.5078125 69.703125 C-31.686931457519563 68.89256652832032 -30.86605041503907 68.08200805664063 -30.020294189453125 67.24688720703125 C-29.259656677246085 66.48640075683593 -28.499019165039044 65.72591430664062 -27.71533203125 64.9423828125 C-27.380019683837872 64.60929107666016 -27.380019683837872 64.60929107666016 -25.683135986328125 62.92364501953125 C-23.003379252118748 59.86096871934532 -22.075538795374086 57.67984915836654 -21.625 53.625 C-22.066025420975052 49.36175426390753 -23.285648642591696 47.273188401580626 -26 44 C-26.659999999999968 44 -27.319999999999993 44 -28 44 C-28 43.34 -28 42.68000000000001 -28 42 C-30.48754786340146 40.75622606829927 -32.22655301141526 40.86693765410294 -35 40.875 C-35.443437500000016 40.87371093749999 -35.443437500000016 40.87371093749999 -37.6875 40.8671875 C-40 41 -40 41 -42 42 Z M19 92 C18.238164062500005 92.941015625 17.47632812500001 93.88203125000001 16.69140625 94.8515625 C11.080611366995356 101.65998319136531 5.92769240104235 107.79592069641694 -2 112 C1.2728100983269428 116.02807396717162 4.574592305997555 119.59930839368994 8.5 123 C11.889496319024488 125.94021744452292 14.83219583508344 128.9730357244895 17.6875 132.42578125 C21.080732206981054 136.4956401173017 25.044740063698725 139.9327652339579 29 143.4375 C31.805282987141425 145.9393968270506 34.464046768038315 148.37506960827648 36.8125 151.3125 C39 154 39 154 41.4375 155.9375 C43.641453248559856 157.71141359030426 45.209921566590765 159.3436651096272 47 161.5 C48.770944488589976 163.63236173115934 50.31676318949104 165.25341055159282 52.5 167 C54.688710348737345 168.7509682789899 56.18337402760284 170.34948711955465 57.9375 172.5 C60.64539390237559 175.77057315481727 63.36115866497664 177.83402301486706 67 180 C67 179.34 67 178.68 67 178 C67.99000000000001 177.67000000000002 68.98000000000002 177.34 70 177 C71.26365823399385 175.48189474603902 72.46408658600797 173.9105474772853 73.625 172.3125 C77.47747116544008 167.32147322990383 81.5499091077387 164.10352398031546 87 161 C84.81824567174453 156.5001316979731 81.7124694592847 153.84545959616327 77.97265625 150.67578125 C73.01913659124153 146.46774177751013 68.82953912734553 141.5877510854139 64.57421875 136.6953125 C62.55132593104196 134.57726083826853 60.552803333492534 132.7161965958075 58.334716796875 130.821044921875 C54.06525186064209 127.1072717850416 50.05497619587243 123.18313354581022 46.0703125 119.16796875 C45.35390594482419 118.45014724731445 44.63749938964844 117.7323257446289 43.899383544921875 116.99275207519531 C41.63886957441446 114.7266984613209 39.38187827325163 112.45717401014531 37.125 110.1875 C35.5887751437495 108.64625162364993 34.052318833605796 107.1052339102909 32.515625 105.564453125 C29.154775783976675 102.19382717748951 25.79613507506025 98.82101891171905 22.439483642578125 95.44621276855469 C21.294546254423324 94.29592316402707 20.14761661653165 93.14761661653165 19 92 Z M-95 94 C-96.20497162550328 95.43927166379564 -97.4053992706697 96.88278049942568 -98.57421875 98.3515625 C-100.76719594977067 100.88700463233761 -103.42477913212213 102.86311459899497 -106 105 C-106.31968749999999 105.4021875 -106.31968749999999 105.4021875 -107.9375 107.4375 C-110.16072837628334 110.19969283113991 -112.57712682659604 112.27968757575485 -115.28515625 114.546875 C-119.3380578240546 117.98122439760434 -122.80287310042831 121.90342220937359 -126.3125 125.875 C-129.7460050969184 129.71984015012657 -133.30770423766893 133.16460733550258 -137.234375 136.49609375 C-141.12283316624274 139.80816541814923 -144.46803000632914 143.53048303640165 -147.8125 147.375 C-151.05010604330565 151.05243176994338 -154.46216863718507 154.28363650255886 -158.19140625 157.453125 C-162.44048519883648 161.0873264335621 -166.0807855953471 165.18056544459506 -169.66796875 169.44921875 C-170.72555356586292 170.68048318371726 -171.85228536898737 171.85228536898737 -173 173 C-172.5166015625 173.12117187500002 -172.5166015625 173.12117187500002 -170.0703125 173.734375 C-151.95476639109114 178.3634890726059 -151.95476639109114 178.3634890726059 -145 183 C-144.82998222351074 182.79404708862305 -144.82998222351074 182.79404708862305 -143.96958923339844 181.75180053710938 C-138.27598683674 175.04688848435381 -132.01960224127282 168.9200570451164 -125.77774238586426 162.7331428527832 C-123.72029288238585 160.6932357291957 -121.6665381201687 158.64967359035907 -119.61375427246094 156.60507202148438 C-113.78266489623687 150.79832124485338 -107.9457876133275 144.99741297219998 -102.104736328125 139.20068359375 C-98.51986030374997 135.6425050089102 -94.93980164809795 132.07953892394343 -91.36271476745605 128.51353073120117 C-89.99977022059699 127.15680728546567 -88.63492959013053 125.80198592973554 -87.26819038391113 124.4490852355957 C-85.36771257263922 122.56770703725704 -83.47336708363855 120.68035662766249 -81.580322265625 118.79150390625 C-81.0115737915039 118.23151702880858 -80.44282531738281 117.6715301513672 -79.85684204101563 117.09457397460938 C-76 113.2278993458306 -76 113.2278993458306 -76 111 C-77.46875 109.7734375 -77.46875 109.7734375 -79.5 108.375 C-90.98599137931035 100.04202586206895 -90.98599137931035 100.04202586206895 -93 94 C-93.65999999999997 94 -94.32 94 -95 94 Z M-192.35546875 188.9609375 C-203.37133671858425 189.51492699165027 -215.86355951724727 195.1172776378857 -225 201 C-225 201.66 -225 202.32 -225 203 C-225.714140625 203.22171875 -226.42828125 203.4434375 -227.1640625 203.671875 C-237.70516635903206 208.60848011304532 -243.61645811040597 220.8630593803138 -248 231 C-248.53109375 232.1588671875 -249.0621875 233.317734375 -249.609375 234.51171875 C-254.73897152901236 247.37893700957312 -254.33738100177237 263.2788903396493 -249 276 C-248.81115234375 276.52787109375004 -248.81115234375 276.52787109375004 -247.85546875 279.19921875 C-243.6017196085972 290.3423252904471 -236.81691104059723 299.9855233932143 -227 307 C-226.34 307 -225.68 307 -225 307 C-225 307.65999999999997 -225 308.32 -225 309 C-203.3128999663186 320.42101717750086 -203.3128999663186 320.42101717750086 -194 320 C-199.2060456508328 313.6310919185688 -199.2060456508328 313.6310919185688 -202.4375 311.0625 C-205.4797250023929 308.6138798761228 -207.78921355341407 305.8215168976687 -210.25390625 302.8046875 C-212 301 -212 301 -214.08984375 300.0078125 C-216.52884481773924 298.7209775808247 -216.8690161205104 297.46591567167405 -218 295 C-219.51562500000006 293.35937499999994 -219.51562500000006 293.35937499999994 -221.25 291.75 C-230.9925259972928 282.21002132073824 -235.9972412316209 271.80156053495097 -236.291748046875 258.107666015625 C-236.37441201367875 247.72020919879094 -235.86856156438748 238.43529214887366 -230.36328125 229.27734375 C-229 227 -229 227 -229 225 C-228.505 224.83500000000004 -228.505 224.83500000000004 -226 224 C-224.67578125 222.58203125 -224.67578125 222.58203125 -223.3125 220.8125 C-216.17409713451792 212.2744102981489 -206.1431428109025 206.859379276694 -194.947998046875 205.80712890625 C-178.83821251257137 205.21346846779994 -165.98040673417947 206.55939092676957 -153.3671875 217.71875 C-151.71702091820976 219.3090095441675 -150.08549313808038 220.91874068998408 -148.46875 222.54296875 C-146.25857845081177 224.74264897854334 -143.99087637063192 226.7839958916062 -141.625 228.8125 C-137.95458835431037 232.04392553524167 -134.72677592752973 235.4468917141877 -131.56640625 239.171875 C-126.25233644859813 245.37383177570092 -126.25233644859813 245.37383177570092 -123 247 C-123.25947613024621 236.55018857281118 -126.57256431112964 226.31785795030282 -133 218 C-133.502734375 217.29359375 -134.00546875 216.58718750000003 -134.5234375 215.859375 C-137.93244148821404 211.20091706135457 -141.32202894959363 207.63088464314728 -146.10546875 204.38671875 C-148 203.00000000000003 -148 203.00000000000003 -149.92578125 200.98828125 C-153.62041081292597 197.4467248516397 -158.3094755181072 195.90026376445914 -163 194 C-163.94359375 193.61328125 -164.88718749999998 193.2265625 -165.859375 192.828125 C-174.62088436547097 189.56031880422975 -183.0802184237348 189.11475591337089 -192.35546875 188.9609375 Z M-209.015625 230.8984375 C-212.06973562081967 234.2380950487825 -213.94517930529202 236.59065943833775 -215 241 C-215.66 241.32999999999998 -216.32 241.65999999999997 -217 242 C-219.25479396710503 246.199950734502 -219.3018862007199 250.28071348538788 -219.25 254.9375 C-219.25773437499998 255.62779296875 -219.26546875 256.3180859375 -219.2734375 257.029296875 C-219.25688810357414 261.39420018232244 -218.59909380991516 264.9451549820008 -217 269 C-216.34 269 -215.68 269 -215 269 C-214.74404052734374 269.7375854492187 -214.48808105468748 270.4751708984375 -214.224365234375 271.235107421875 C-211.96964108385532 276.3267825972759 -207.79736257476844 280.0030805585764 -204 284 C-203.41321472167968 284.62163024902344 -202.82642944335936 285.2432604980469 -202.22186279296875 285.88372802734375 C-198.07664608933302 290.26673215170706 -193.88628554572423 294.60224550758153 -189.661376953125 298.908447265625 C-188.1680496153112 300.4388249907861 -186.68375336410736 301.9780630853076 -185.208251953125 303.525634765625 C-183.0545793758951 305.7823720576545 -180.87309499896048 308.0085449162207 -178.68359375 310.23046875 C-178.0312828063965 310.92609420776364 -177.37897186279298 311.62171966552734 -176.70689392089844 312.3384246826172 C-172.15995267803015 316.86700675992483 -172.15995267803015 316.86700675992483 -168.87289428710938 317.24388122558594 C-164.07696736228615 316.7290242630927 -159.9976851089397 314.8721574293776 -155.75 312.6875 C-155.151875 312.39166015625 -154.55374999999998 312.0958203125 -153.9375 311.791015625 C-150.34432578930694 309.9507062670897 -147.72571286421896 307.9528556029039 -145 305 C-143.67435422949762 303.86595146976555 -142.34104736938224 302.7407933190563 -141 301.625 C-137.63966769006106 298.69946114975744 -135.28452359763736 295.86005711324935 -133 292 C-132.6016796875 291.41734375 -132.203359375 290.8346875 -131.79296875 290.234375 C-128.158459880838 284.83202344825463 -126.02863092505294 279.1652247107754 -124 273 C-128.56701254699266 267.537874617056 -133.38968439212806 262.4211529108169 -138.3984375 257.36328125 C-139.1922280883789 256.5614189147949 -139.9860186767578 255.75955657958986 -140.80386352539063 254.9333953857422 C-142.4748583415201 253.24864233268488 -144.14735972178985 251.56538233602276 -145.8212890625 249.883544921875 C-147.52467608583987 248.168595711283 -149.2235760853695 246.44917811283983 -150.91796875 244.725341796875 C-153.38084275024428 242.21974934255672 -155.8567462378051 239.72771736350808 -158.3359375 237.23828125 C-159.08515472412108 236.4715559387207 -159.8343719482422 235.70483062744142 -160.60629272460938 234.9148712158203 C-166.56310887012089 228.98223255469918 -172.3050619014792 225.0644539551363 -180.8125 223.75 C-181.26947265625 223.675234375 -181.26947265625 223.675234375 -183.58203125 223.296875 C-192.47009883466473 222.20560983613166 -202.43526255964755 224.70065427129595 -209.015625 230.8984375 Z M-110 288 C-110.3287109375 288.65484375 -110.65742187500001 289.3096875 -110.99609375 289.984375 C-116.2990659505219 300.1591834497819 -122.45890056693545 309.55843670157515 -131.56640625 316.6953125 C-132.0394921875 317.125859375 -132.512578125 317.55640625 -133 318 C-133 318.66 -133 319.32 -133 320 C-133.56203125 320.270703125 -134.1240625 320.54140625 -134.703125 320.8203125 C-137.1293262873023 322.066422684975 -139.42653361221994 323.44688212470845 -141.75 324.875 C-146.07264037049345 327.49167250914144 -150.44856155738012 329.80856667577564 -155 332 C-150.3750862132506 337.5543992418054 -145.4463903560238 342.6852566934588 -140.3203125 347.77734375 C-139.5075485229492 348.588692779541 -138.69478454589844 349.40004180908204 -137.85739135742188 350.23597717285156 C-135.2822826172081 352.8055258959983 -132.70370380026318 355.37155967577473 -130.125 357.9375 C-128.36956054453438 359.68791928728115 -126.61434982903967 361.4385680024038 -124.859375 363.189453125 C-120.57555917572299 367.46229301739305 -116.288895275568 371.73225898924045 -112 376 C-106.24999999999997 374.125 -106.24999999999997 374.125 -104 373 C-104 372.34000000000003 -104 371.68 -104 371 C-102.86562500000002 370.62874999999997 -101.73124999999999 370.2575 -100.5625 369.875 C-93.00407903619111 367.3595769461279 -85.50724361927308 364.6633045675722 -78 362 C-78 361.34000000000003 -78 360.68 -78 360 C-76.989375 359.896875 -75.97874999999999 359.79375 -74.9375 359.6875 C-70.84920008532328 359.1818798692096 -66.84734218488393 358.38951734224327 -62.8125 357.5625 C-55.902848126335414 356.1472700981651 -48.980746985970484 355.00061297438026 -42 354 C-44.44019299962241 350.8261186820056 -46.87249651362572 348.0733890657875 -49.9375 345.5 C-53.10546774380316 342.7879390532755 -56.086549193967585 339.98815467285374 -59 337 C-60.165314011024236 335.8319822441706 -61.33207817932259 334.665410160848 -62.5 333.5 C-63.09812499999998 332.9005859375 -63.69625000000002 332.301171875 -64.3125 331.68359375 C-65.69891356914428 330.300389471525 -67.09777324325887 328.9296710878226 -68.5 327.5625 C-71.09791559507943 324.8996365150436 -73.48730918954527 322.11855467858277 -75.86328125 319.2578125 C-77.68200563928485 317.3360159789641 -79.51197314879693 315.67122052519477 -81.51953125 313.95703125 C-85.0049044197358 310.9492221980613 -88.28973678332642 307.7778605025658 -91.5234375 304.50390625 C-92.00022445678712 304.0215753173828 -92.47701141357425 303.53924438476565 -92.96824645996094 303.04229736328125 C-94.94590320488521 301.0370837342425 -96.91955002018904 299.02801070977455 -98.88916015625 297.014892578125 C-100.34628442849942 295.5277561776603 -101.80941757473357 294.04674995160644 -103.2734375 292.56640625 C-104.1337255859375 291.68927978515626 -104.994013671875 290.8121533203125 -105.88037109375 289.908447265625 C-108 288 -108 288 -110 288 Z M-102 391 C-102.16499999999996 391.495 -102.16499999999996 391.495 -103 394 C-103.82499999999999 394.2475 -104.64999999999998 394.495 -105.5 394.75 C-114.44401194688413 397.94428998103007 -122.42150810585935 406.27395314748605 -129 413 C-129 413.65999999999997 -129 414.32 -129 415 C-129.60328125 415.2694140625 -130.2065625 415.538828125 -130.828125 415.81640625 C-146.5226876521271 424.36937834279587 -156.88869098042258 451.3917185340272 -162.265625 467.3984375 C-163 470 -163 470 -163 473 C-163.66 473 -164.32 473 -165 473 C-165.68087117257573 476.3097401214768 -166.34201839835453 479.6231399727926 -167 482.9375 C-167.095390625 483.40059570312496 -167.095390625 483.40059570312496 -167.578125 485.744140625 C-167.75859375 486.66259765625 -167.9390625 487.5810546875 -168.125 488.52734375 C-168.2087890625 488.94367065429685 -168.2087890625 488.94367065429685 -168.6328125 491.050537109375 C-169.12512104958427 495.00504481384814 -169 499.0149656346863 -169 503 C-76.60000000000002 503 15.800000000000011 503 111 503 C109.76322198411646 495.5793319046986 108.51905658437602 488.18887691926966 107.0625 480.8125 C106.90587890625 479.98814453125 106.74925781249999 479.1637890625 106.587890625 478.314453125 C105.4801339937818 472.7050560003853 103.93399965572127 467.37977068599 102 462 C101.33999999999997 462 100.68 462 100 462 C99.91105468749998 461.1711328125 99.82210937500003 460.342265625 99.73046875 459.48828125 C98.85467041186615 455.30599292939286 97.2628773185719 451.9626264684757 95.3125 448.1875 C94.94874267578126 447.4760986328125 94.58498535156252 446.764697265625 94.210205078125 446.03173828125 C91.47230485630348 440.7536985230854 88.56855161504564 435.7660521570072 85 431 C84.61473144531249 430.4822802734375 84.22946289062497 429.964560546875 83.83251953125 429.43115234375 C75.82853766680415 418.7461227339685 67.1832114494041 409.3781225932296 56.75 401 C56.46072631835938 400.7652697753906 56.46072631835938 400.7652697753906 54.996826171875 399.577392578125 C51.48042616828286 396.83164120378484 48.309961579239996 395.1493230877973 44 394 C44 393.34 44 392.68 44 392 C39.34330455088423 389.6453597666328 34.67655758097305 387.3129528656467 29.9990234375 385 C28.397205913038533 384.19869997799293 26.80937249812854 383.3694705060512 25.2265625 382.53125 C-11.898229054841408 363.78863678784705 -67.43502566035932 369.2625409234031 -102 391 Z " fill="#000000" transform="translate(362,45)"/>
<path d="M0 0 C0 0.6599999999999966 0 1.3200000000000003 0 2 C0.5774999999999864 2.2732812499999966 1.1549999999999727 2.5465625000000003 1.75 2.828125 C7.9531163221414545 6.058914751115324 12.406680308184377 9.968356231595152 16 16 C16.639374999999973 16.721874999999997 17.278750000000002 17.44375 17.9375 18.1875 C21.053681265252806 22.43683808898112 22.927452049038834 27.175607445254286 25 32 C25.31324218750001 32.69093749999999 25.626484375000018 33.38187500000001 25.94921875 34.09375 C28.283239112557794 39.28552212354323 29.12597102616661 43.822560398929 29.1328125 49.4921875 C29.134101562500007 50.52730468749999 29.135390625000014 51.562421875 29.13671875 52.62890625 C29.132851562500036 53.7001171875 29.12898437499996 54.771328125 29.125 55.875 C29.128867187499964 56.9384765625 29.13273437500004 58.001953125 29.13671875 59.09765625 C29.12589252411823 67.81276808481849 29.12589252411823 67.81276808481849 28.265625 72 C28 75.00000000000003 28 75.00000000000003 29.4765625 77.2578125 C30.185546875 77.873984375 30.89453125 78.49015625 31.625 79.125 C32.370078124999964 79.7966015625 33.11515625000004 80.468203125 33.8828125 81.16015625 C34.581484375 81.7673046875 35.280156250000005 82.374453125 36 83 C36.82499999999999 83.84562499999998 37.64999999999998 84.69125 38.5 85.5625 C40.56978361169092 87.58053902139864 42.675636961720215 89.44177741571607 44.875 91.3125 C48.39453333420454 94.35480847532935 51.41482795434979 97.63260654736538 54.4296875 101.16796875 C57.9250678654048 105.24591250963891 61.858874468097724 108.76280232021912 65.875 112.3125 C69.71984015012657 115.7460050969184 73.16460733550264 119.30770423766896 76.49609375 123.234375 C79.82680671289563 127.14471853046444 83.57413095693863 130.5082576953622 87.4375 133.875 C90.84527098981528 136.87022159967182 93.79435688781643 139.97266780225098 96.6640625 143.4765625 C98.53996772015466 145.61575266333426 100.77164144168194 147.24076955922257 103 149 C103.57363281250002 149.85078125 104.14726562499999 150.7015625 104.73828125 151.578125 C107 154 107 154 110.06640625 154.6015625 C110.64326171875001 154.60542968750002 110.64326171875001 154.60542968750002 113.5625 154.625 C125.22985540147715 155.10862094928402 132.8073465582654 157.79007573197288 142 165 C142.7541015625 165.4640625 143.50820312500002 165.928125 144.28515625 166.40625 C146 168 146 168 146.4921875 170.4609375 C145.85621255333768 173.74176063754376 144.7321983273033 174.5930553961586 142.125 176.625 C139.47608555661856 178.72324405730217 137.90527545022235 180.14208682466645 136 183 C134.35000000000002 182.34 132.7 181.68 131 181 C131 180.34 131 179.68 131 179 C120.68967228630095 174.71494546926118 110.23161379299933 172.09829543285127 99.3515625 175.93359375 C97.1911427938619 176.88795391144936 95.10342467623195 177.9281912477799 93 179 C92.00999999999999 179.33 91.01999999999998 179.66 90 180 C89.29605388078971 181.31403275585922 88.63654341714198 182.65202570487585 88 184 C87.38125000000002 184.721875 86.76249999999999 185.44375 86.125 186.1875 C79.82305719023464 194.52830665998357 79.2682219221083 202.82097805599116 79 213 C79.65999999999997 213 80.32 213 81 213 C81.19593750000001 213.71285156249996 81.39187500000003 214.42570312500004 81.59375 215.16015625 C84.12093280858795 223.25367705508984 87.67415644862979 228.19838438183132 95.25 232.18359375 C95.82749999999999 232.4530078125 96.40499999999997 232.722421875 97 233 C97 233.65999999999997 97 234.32 97 235 C106.98151774651478 237.37748749474076 117.02201321398184 238.3870091895041 126.2421875 233.12109375 C126.5322265625 232.93611328125002 126.5322265625 232.93611328125002 128 232 C128.3003515625 231.80986328125 128.3003515625 231.80986328125 129.8203125 230.84765625 C131.2315523035768 229.92542744812772 132.61889458090297 228.9667737933679 134 228 C137.1841942142421 229.37154685851556 138.9711259582869 230.86169982727597 141.125 233.5625 C143.80555555555554 236.90277777777783 143.80555555555554 236.90277777777783 146 238 C145.9229117205034 240.62100150288495 145.45700390516492 242.43319645528243 143.796875 244.4921875 C138.65536890543888 249.3092296177199 132.509220047418 251.5523913718156 126 254 C125.25363281249997 254.36867187500002 124.507265625 254.73734374999998 123.73828125 255.1171875 C114.73563634912864 258.0196093938615 101.54015970610197 257.4542567786768 93.13671875 253.171875 C92.43160156249996 252.78515625 91.72648437500004 252.3984375 91 252 C90.22269531250004 251.69578124999998 89.44539062499996 251.39156250000002 88.64453125 251.078125 C78.63460637402915 246.9404771975319 69.42606551762015 237.97426472228886 64.8125 228.1875 C64.16585432928798 226.47376603617374 63.55594146557809 224.74526897900387 63 223 C62.58749999999998 221.7625 62.17500000000001 220.52499999999998 61.75 219.25 C61.11102738163373 216.5607587192237 60.99582773657255 214.24231696157312 60.98046875 211.453125 C60.8688439398785 201.18364246881993 60.8688439398785 201.18364246881993 58.11328125 197.4296875 C55.83020515620012 195.44473208621696 53.496939236652224 193.70480678916255 51 192 C47.6792610274037 188.84529797603352 44.658706132401505 185.48946433474984 41.625 182.0625 C38.437810063372865 178.4881805036827 35.18786591894957 175.32082630079373 31.484375 172.296875 C29.35803012627059 170.43912105768905 27.75358392726389 168.20612171494486 26 166 C25.00999999999999 165.175 24.019999999999982 164.35 23 163.5 C19.999999999999943 160.99999999999997 19.999999999999943 160.99999999999997 18.0625 158.5625 C16.288586409695938 156.3585467514404 14.656334890372705 154.79007843340918 12.5 153 C9.57684403920689 150.57334611322696 7.3671245928249505 147.97799545548946 5 145 C4.009999999999991 144.175 3.019999999999982 143.35 2 142.5 C-1 140.00000000000003 -1 140.00000000000003 -2.9375 137.5625 C-5.165384022158321 134.79452288156085 -7.600091183756263 132.7457488477223 -10.32421875 130.48828125 C-12.51106361743399 128.5461183257754 -14.217686070476134 126.31040694567909 -16 124 C-16.659999999999968 123.66999999999999 -17.319999999999993 123.34 -18 123 C-18 122.34 -18 121.68 -18 121 C-19.258125000000007 121.32484375000001 -20.516250000000014 121.6496875 -21.8125 121.984375 C-27.23721871411999 123.1856233537527 -32.46253076173707 123.29589062904637 -38 123.25 C-38.93328124999999 123.25773437500001 -39.866562499999986 123.26546875 -40.828125 123.2734375 C-46.8459190840648 123.25662801931824 -52.17234964316742 122.50468021508382 -58 121 C-58 120.34 -58 119.68 -58 119 C-58.82499999999999 118.91749999999999 -59.64999999999998 118.83500000000001 -60.5 118.75 C-64.82466740762709 117.8232855555085 -68.15161289988441 116.12655971664142 -72 114 C-72.7747265625 113.60039062499999 -73.54945312500001 113.20078125 -74.34765625 112.7890625 C-83.34799548068997 107.85385271581816 -92.43251148244286 100.48758040642551 -96.03515625 90.59375 C-97.60618359527302 86.37042142809202 -99.6590707528166 82.36559536725893 -101.6279296875 78.3154296875 C-107.41577991825037 66.11937400789675 -106.81005980627023 47.977607126975144 -103.25390625 35.14453125 C-100.56768608689043 28.4080601244449 -97.10366338779579 21.97707493439823 -93 16 C-92.00999999999999 15.670000000000002 -91.01999999999998 15.340000000000003 -90 15 C-89.72414062500002 14.265234374999999 -89.44828124999998 13.530468749999997 -89.1640625 12.7734375 C-87.65280963880844 9.17280148843615 -85.300118550594 7.084887484021479 -82.375 4.625 C-81.80885986328127 4.147482910156249 -81.24271972656248 3.6699658203124983 -80.659423828125 3.177978515625 C-57.73406801940757 -15.217533000126203 -24.50659157463042 -14.621312742321642 0 0 Z M-49.4375 8.5 C-50.673710937500005 8.778437499999995 -51.90992187500001 9.056874999999998 -53.18359375 9.34375 C-54.11300781249997 9.560312500000002 -55.042421875 9.776875000000004 -56 10 C-56 10.659999999999997 -56 11.32 -56 12 C-56.71542968749998 12.104414062499998 -57.43085937500001 12.208828124999997 -58.16796875 12.31640625 C-67.72135281779879 14.622395507744528 -74.84524906367272 21.99842070565566 -80 30 C-85.60917066899623 39.887594214990756 -87.36918757586858 49.73977893600912 -87 61 C-81.29366729145323 56.21457401098817 -76.08080370467144 51.251347255760365 -71.1875 45.625 C-67.94983772485836 41.94750435917874 -64.5476841732874 38.70890242142417 -60.80078125 35.55859375 C-59 34 -59 34 -56.5 31.3125 C-49.13936097090448 24.50390889808662 -40.663814593543975 23.557687604251072 -31.03515625 23.7109375 C-26.06593676011829 23.93874612676467 -22.214475182170986 25.401797774290458 -18 28 C-17.163398437500007 28.436992187499996 -16.326796875000014 28.873984374999992 -15.46484375 29.32421875 C-12.617663751035934 31.259940175603134 -11.435728799494314 33.01892170194684 -9.75 36 C-9.249843749999968 36.86625000000001 -8.749687499999993 37.7325 -8.234375 38.625 C-7 41 -7 41 -6 44 C-5.340000000000032 44 -4.680000000000007 44 -4 44 C-4 50.27000000000001 -4 56.53999999999999 -4 63 C-4.659999999999968 63 -5.319999999999993 63 -6 63 C-6.302929687500011 63.6638671875 -6.605859375000023 64.327734375 -6.91796875 65.01171875 C-9.38922697146927 70.22037069371216 -11.62031258802989 74.14170394659776 -16 78 C-17.17340633925039 79.15988783303783 -18.339629292847974 80.32707116831169 -19.5 81.5 C-21.50896709829567 83.51330612010622 -23.526579585184606 85.5137361806679 -25.5625 87.5 C-27.428639187408635 89.41398891016274 -29.114607567888754 91.32109786438156 -30.8125 93.375 C-33.72416961015608 96.8416353583059 -36.991395727723045 99.71940542053272 -40.4609375 102.6171875 C-40.714882812500036 102.84535156250001 -40.714882812500036 102.84535156250001 -42 104 C-42 104.32999999999998 -42 104.66 -42 105 C-28.54928927351864 104.63249424244586 -15.8198364789057 103.12670636887151 -6 93 C-5.195625000000007 92.42250000000001 -4.391250000000014 91.845 -3.5625 91.25 C-0.22499352235359993 88.31950650743244 1.990277091256246 84.95102971846643 4 81 C4 80.34 4 79.68 4 79 C4.659999999999968 79 5.319999999999993 79 6 79 C11.001988935112877 64.83157552798255 12.836561335495219 52.540007275046804 8 38 C2.681411214360537 27.18416182351868 -4.757939869259474 19.280182140977715 -15 13 C-15.639374999999973 12.604257812500002 -16.278750000000002 12.208515625000004 -16.9375 11.80078125 C-26.811927469455668 6.266987522325891 -38.6434004587104 6.032777247705241 -49.4375 8.5 Z M-42 42 C-42 42.66 -42 43.31999999999999 -42 44 C-42.587812499999984 44.27199218749999 -43.17562499999997 44.54398437500001 -43.78125 44.82421875 C-48.20995006599213 47.171117904689496 -51.88265601569549 50.60332001961939 -55 54.5 C-57.203120790976186 57.25390098872026 -59.637307261713204 59.2838368138638 -62.33984375 61.52734375 C-64.52144510238105 63.46255247905333 -66.18811175276471 65.7205276889621 -68 68 C-68.96937500000001 68.804375 -69.93875000000003 69.60875 -70.9375 70.4375 C-74.12376620713798 73.103559479442 -76.41435563745836 75.76794454682295 -79 79 C-79.66000000000003 79.66 -80.32 80.32 -81 81 C-79.67909474865365 82.67653358824727 -78.34192867790108 84.34024610891186 -77 86 C-76.52949218750001 86.600703125 -76.05898437500002 87.20140624999999 -75.57421875 87.8203125 C-72.69316696776536 91.37882090286345 -70.59549274102017 93.78354603914173 -66 95 C-66 95.66 -66 96.32 -66 97 C-64.68 97.66 -63.360000000000014 98.32 -62 99 C-56.61781647436635 93.66849963156574 -51.243468235632236 88.3291948664737 -45.87451171875 82.984375 C-44.046883932525134 81.16680874127877 -42.21746566138705 79.35104104379863 -40.38623046875 77.537109375 C-37.75536609383437 74.9304860268451 -35.130994670112784 72.31747638828672 -32.5078125 69.703125 C-31.686931457519563 68.89256652832032 -30.86605041503907 68.08200805664063 -30.020294189453125 67.24688720703125 C-29.259656677246085 66.48640075683593 -28.499019165039044 65.72591430664062 -27.71533203125 64.9423828125 C-27.380019683837872 64.60929107666016 -27.380019683837872 64.60929107666016 -25.683135986328125 62.92364501953125 C-23.003379252118748 59.86096871934532 -22.075538795374086 57.67984915836654 -21.625 53.625 C-22.066025420975052 49.36175426390753 -23.285648642591696 47.273188401580626 -26 44 C-26.659999999999968 44 -27.319999999999993 44 -28 44 C-28 43.34 -28 42.68000000000001 -28 42 C-30.48754786340146 40.75622606829927 -32.22655301141526 40.86693765410294 -35 40.875 C-35.443437500000016 40.87371093749999 -35.443437500000016 40.87371093749999 -37.6875 40.8671875 C-40 41 -40 41 -42 42 Z M19 92 C18.238164062500005 92.941015625 17.47632812500001 93.88203125000001 16.69140625 94.8515625 C11.0806113669953 101.65998319136531 5.92769240104235 107.79592069641694 -2 112 C1.2728100983269428 116.02807396717162 4.574592305997555 119.59930839368994 8.5 123 C11.889496319024488 125.94021744452292 14.83219583508344 128.9730357244895 17.6875 132.42578125 C21.080732206981054 136.4956401173017 25.044740063698725 139.9327652339579 29 143.4375 C31.805282987141425 145.9393968270506 34.464046768038315 148.37506960827648 36.8125 151.3125 C39 154 39 154 41.4375 155.9375 C43.641453248559856 157.71141359030426 45.209921566590765 159.3436651096272 47 161.5 C48.770944488589976 163.63236173115934 50.31676318949104 165.25341055159282 52.5 167 C54.688710348737345 168.7509682789899 56.18337402760284 170.34948711955465 57.9375 172.5 C60.64539390237559 175.77057315481727 63.36115866497664 177.83402301486706 67 180 C67 179.34 67 178.68 67 178 C67.99000000000001 177.67000000000002 68.98000000000002 177.34 70 177 C71.26365823399385 175.48189474603902 72.46408658600797 173.9105474772853 73.625 172.3125 C77.47747116544008 167.32147322990383 81.5499091077387 164.10352398031546 87 161 C84.81824567174453 156.5001316979731 81.7124694592847 153.84545959616327 77.97265625 150.67578125 C73.01913659124153 146.46774177751013 68.82953912734553 141.5877510854139 64.57421875 136.6953125 C62.55132593104196 134.57726083826853 60.552803333492534 132.7161965958075 58.334716796875 130.821044921875 C54.06525186064209 127.1072717850416 50.05497619587243 123.18313354581022 46.0703125 119.16796875 C45.35390594482419 118.45014724731445 44.63749938964844 117.7323257446289 43.899383544921875 116.99275207519531 C41.63886957441446 114.7266984613209 39.38187827325163 112.45717401014531 37.125 110.1875 C35.5887751437495 108.64625162364993 34.052318833605796 107.1052339102909 32.515625 105.564453125 C29.154775783976675 102.19382717748951 25.79613507506025 98.82101891171905 22.439483642578125 95.44621276855469 C21.294546254423267 94.29592316402707 20.14761661653165 93.14761661653165 19 92 Z " fill="#000000" transform="translate(362,45)"/>
<path d="M0 0 C0.7820681762694903 -0.00133941650392444 1.5641363525390943 -0.0026788330077920364 2.369903564453125 -0.004058837890625 C18.56652478332296 0.0019630600227742434 33.53460919784743 1.8446954029869858 49.1875 6.25 C49.1875 6.910000000000025 49.1875 7.569999999999993 49.1875 8.25 C50.36312499999997 8.456250000000011 51.53874999999999 8.662500000000023 52.75 8.875 C61.96370071839789 10.930588293186872 71.4896499944324 14.660884985412963 79.30859375 19.98046875 C81.4985501193155 21.460168999537473 83.76987685236111 22.747873743780474 86.0625 24.0625 C93.81401866810643 28.699144602088154 100.58184153431841 34.60473154875643 107.30859375 40.59765625 C108.55178380807513 41.69093981458582 109.81494285435241 42.761962574410234 111.09765625 43.80859375 C114.9529144972563 46.959919493510995 117.48389448989082 50.01435136749558 120.1875 54.25 C120.97125 55.03375 121.755 55.817499999999995 122.5625 56.625 C125.81501729667752 59.877517296677524 128.69830759573995 63.37507161811067 131.1875 67.25 C131.1875 67.90999999999997 131.1875 68.57 131.1875 69.25 C131.84750000000003 69.25 132.5075 69.25 133.1875 69.25 C134.52588732746807 71.70570174816692 135.8583623216973 74.16429916314235 137.1875 76.625 C137.56906249999997 77.323671875 137.950625 78.02234375 138.34375 78.7421875 C141.1875 84.02343750000011 141.1875 84.02343750000011 141.1875 86.25 C141.84750000000003 86.25 142.5075 86.25 143.1875 86.25 C149.4953961392705 101.74415265277116 149.4953961392705 101.74415265277116 151.54296875 108.24609375 C151.96664821445427 109.56335172130332 152.42693404439262 110.86948808311115 152.92578125 112.16015625 C159.28542547005003 129.08659394336382 159.1875 148.58982748409574 159.1875 166.25 C54.577499999999986 166.25 -50.03250000000003 166.25 -157.8125 166.25 C-157.8125 137.2321428571429 -157.8125 137.2321428571429 -155.8125 126.25 C-155.1525 126.25 -154.4925 126.25 -153.8125 126.25 C-153.75642578125 125.60675781250006 -153.75642578125 125.60675781250006 -153.47265625 122.3515625 C-152.9015086062068 117.26785182011554 -151.7222199459033 112.51636780458568 -150.25 107.625 C-149.99114013671874 106.76052246093752 -149.7322802734375 105.89604492187499 -149.465576171875 105.00537109375 C-146.88030478649964 96.79101422635097 -143.1169601229448 89.68414221659975 -138.8125 82.25 C-138.3058984375 81.22261718750002 -137.799296875 80.19523437499998 -137.27734375 79.13671875 C-133.66702056359452 72.02197519065697 -128.49729888210408 65.70928388898221 -123.55859375 59.47265625 C-122.38320298430978 57.97646532007218 -121.22974260740239 56.4628129070378 -120.09765625 54.93359375 C-116.74113533482767 50.43539905415679 -113.29536339970377 46.6554174939626 -108.9765625 43.0703125 C-106.52350039452182 41.0069064690382 -104.21268978023986 38.817941187036126 -101.875 36.625 C-98.09292927873065 33.198408961315295 -94.38290230390044 30.593189339581386 -89.8203125 28.3203125 C-87.8125 27.25 -87.8125 27.25 -85.6796875 25.6171875 C-83.8125 24.25 -83.8125 24.25 -81.8125 24.25 C-81.8125 23.589999999999975 -81.8125 22.930000000000007 -81.8125 22.25 C-76.0625 19.25 -76.0625 19.25 -73.8125 19.25 C-73.8125 18.589999999999975 -73.8125 17.930000000000007 -73.8125 17.25 C-70.60823932757319 15.927399837454118 -67.39845147106348 14.618763289688559 -64.1875 13.3125 C-63.28386718749999 12.939316406249986 -62.380234374999986 12.566132812499973 -61.44921875 12.181640625 C-56.9090898237946 10.342391315478835 -52.72902574415673 8.764520136016415 -47.8125 8.25 C-47.8125 7.589999999999975 -47.8125 6.930000000000007 -47.8125 6.25 C-44.14714273248609 5.431517785366907 -40.4800023686044 4.621311275700748 -36.8125 3.8125 C-35.78253906250001 3.5824023437500045 -34.752578125000014 3.352304687500009 -33.69140625 3.115234375 C-33.18544921875002 3.0040527343750227 -33.18544921875002 3.0040527343750227 -30.625 2.44140625 C-29.70332031250001 2.2371704101562386 -28.781640625000023 2.0329345703124773 -27.83203125 1.822509765625 C-18.573547778507475 0.06708093795276682 -9.389478496049605 0.009451218272545248 0 0 Z M-71.8125 37.25 C-71.97749999999996 37.745000000000005 -71.97749999999996 37.745000000000005 -72.8125 40.25 C-73.63749999999999 40.4975 -74.46249999999998 40.745000000000005 -75.3125 41 C-84.25651194688413 44.19428998103001 -92.23400810585935 52.523953147486054 -98.8125 59.25 C-98.8125 59.90999999999997 -98.8125 60.56999999999999 -98.8125 61.25 C-99.41578125000001 61.519414062500005 -100.01906249999999 61.78882812500001 -100.640625 62.06640625 C-116.3351876521271 70.61937834279587 -126.70119098042258 97.64171853402718 -132.078125 113.6484375 C-132.8125 116.25 -132.8125 116.25 -132.8125 119.25 C-133.4725 119.25 -134.1325 119.25 -134.8125 119.25 C-135.49337117257573 122.5597401214768 -136.15451839835453 125.8731399727925 -136.8125 129.1875 C-136.907890625 129.65059570312496 -136.907890625 129.65059570312496 -137.390625 131.994140625 C-137.57109375 132.91259765625 -137.7515625 133.8310546875 -137.9375 134.77734375 C-138.0212890625 135.19367065429685 -138.0212890625 135.19367065429685 -138.4453125 137.300537109375 C-138.93762104958427 141.25504481384814 -138.8125 145.2649656346863 -138.8125 149.25 C-46.41250000000002 149.25 45.98750000000001 149.25 141.1875 149.25 C139.95072198411646 141.82933190469862 138.70655658437602 134.43887691926966 137.25 127.0625 C137.09337890625 126.23814453124999 136.9367578125 125.41378906249997 136.775390625 124.564453125 C135.6676339937818 118.9550560003853 134.12149965572127 113.62977068599002 132.1875 108.25 C131.52749999999997 108.25 130.8675 108.25 130.1875 108.25 C130.09855468749998 107.42113281249999 130.00960937500003 106.59226562499998 129.91796875 105.73828125 C129.04217041186615 101.55599292939286 127.4503773185719 98.21262646847572 125.5 94.4375 C125.13624267578126 93.72609863281252 124.77248535156252 93.01469726562499 124.397705078125 92.28173828125 C121.65980485630348 87.0036985230854 118.75605161504564 82.01605215700721 115.1875 77.25 C114.80223144531249 76.73228027343748 114.41696289062497 76.21456054687496 114.02001953125 75.68115234375 C106.01603766680415 64.99612273396849 97.3707114494041 55.62812259322959 86.9375 47.25 C86.64822631835938 47.01526977539061 86.64822631835938 47.01526977539061 85.184326171875 45.827392578125 C81.66792616828286 43.08164120378484 78.49746157924 41.39932308779731 74.1875 40.25 C74.1875 39.59000000000003 74.1875 38.93000000000001 74.1875 38.25 C69.53080455088423 35.895359766632794 64.86405758097305 33.56295286564671 60.1865234375 31.25 C58.58470591303853 30.44869997799293 56.99687249812854 29.619470506051186 55.4140625 28.78125 C18.28927094515859 10.038636787847054 -37.247525660359315 15.512540923403094 -71.8125 37.25 Z " fill="#000000" transform="translate(331.8125,398.75)"/>
<path d="M0 0 C4.990969268400846 3.3782203248784413 9.257765387952873 7.249598663208872 13.5 11.51171875 C15.882969346997186 13.883517928183153 18.343906833210042 16.10082593892315 20.875 18.3125 C24.71306400008237 21.73995388417461 28.158432946802975 25.288471071032234 31.47265625 29.21875 C32.82467880440487 30.795533337106463 34.28129126784853 32.28129126784853 35.75 33.75 C40.889285714285705 38.889285714285734 40.889285714285705 38.889285714285734 41.36328125 43.64453125 C41.361959246763945 45.03395665110395 41.34456500426194 46.42344401537338 41.3125 47.8125 C41.31572265624999 48.49892578125002 41.318945312500006 49.18535156249999 41.322265625 49.892578125 C41.2733407801573 54.593810943066956 40.46510919602639 58.53462735075624 39 63 C33.50890145942918 58.4386088761741 28.489948666813063 53.56501201758732 23.50390625 48.4609375 C21.87740278701156 46.81205631955061 20.25043553368542 45.163632529089455 18.623046875 43.515625 C16.08629790566738 40.94176246663585 13.552754328108733 38.36502628783239 11.027099609375 35.7802734375 C8.570228957620088 33.26875262748848 6.100703164418064 30.77025815960849 3.62890625 28.2734375 C2.8828260803222747 27.503575134277355 2.1367459106445494 26.73371276855471 1.3680572509765625 25.940521240234375 C-5.930493191800679 18.606068310804858 -13.539690597180083 14.653769337676238 -24 14 C-32.429949250454825 14.477166938705011 -40.858830792297 15.679891382087646 -46.8984375 21.98046875 C-48.74590146527623 24.24497626861921 -50.387905465472215 26.56349256427069 -52 29 C-52.43699218750001 29.594257812500018 -52.87398437499999 30.18851562499998 -53.32421875 30.80078125 C-57.48741210049016 37.38885213095108 -56.82128061462387 45.54874496913982 -56 53 C-51.87388350883421 68.76610827677035 -32.28361180957344 82.78755239030818 -21.067626953125 93.83642578125 C-18.911889350122635 95.96218652280692 -16.76223445839213 98.09394687147369 -14.61328125 100.2265625 C-13.947827911376947 100.87855621337889 -13.282374572753895 101.53054992675783 -12.596755981445313 102.20230102539063 C-11.991596527099603 102.80408172607423 -11.386437072753893 103.40586242675784 -10.762939453125 104.02587890625 C-10.227641143798849 104.55371978759763 -9.69234283447264 105.08156066894531 -9.140823364257813 105.62539672851563 C-8 107 -8 107 -8 109 C-27.302824624322 112.7146329173953 -27.302824624322 112.7146329173953 -32.1875 109.609375 C-34.233911227443514 107.82651673366661 -36.11253418589513 105.9488801030671 -38 104 C-39.010625000000005 103.195625 -40.02125000000001 102.39125000000001 -41.0625 101.5625 C-44.141202942572704 98.87682296498974 -46.703313218860416 96.0055111674472 -49.3515625 92.90625 C-52.01654996308815 89.82446354979379 -54.93842823024477 87.01955122053573 -57.875 84.19921875 C-68.58697758522561 73.75098303713787 -74.96232295925175 63.364347082308655 -75.2919921875 48.108154296875 C-75.39434523477513 35.09103996306271 -73.93341083366244 22.749106225858043 -64.875 12.625 C-63.92625000000001 11.75875000000002 -62.97749999999999 10.892499999999984 -62 10 C-61.311640624999995 9.296171875000027 -60.62328124999999 8.592343749999998 -59.9140625 7.8671875 C-44.49683644543231 -7.250674941857653 -19.0870434715045 -9.643745417924663 0 0 Z " fill="#BC02F6" transform="translate(200,255)"/>
<path d="M0 0 C0.7541015625000114 0.46406250000001137 1.5082031250000227 0.9281249999999943 2.28515625 1.40625 C4 3 4 3 4.4921875 5.4609375 C3.8562125533376843 8.741760637543791 2.7321983273033084 9.593055396158604 0.125 11.625 C-2.5239144433813863 13.72324405730211 -4.094724549777652 15.142086824666478 -6 18 C-7.649999999999977 17.340000000000003 -9.300000000000011 16.680000000000007 -11 16 C-11 15.340000000000003 -11 14.680000000000007 -11 14 C-21.31032771369911 9.714945469261181 -31.768386207000674 7.098295432851273 -42.6484375 10.93359375 C-44.8088572061381 11.887953911449358 -46.896575323768104 12.928191247779921 -49 14 C-49.99000000000001 14.329999999999984 -50.98000000000002 14.659999999999997 -52 15 C-52.703946119210286 16.314032755859216 -53.36345658285802 17.652025704875854 -54 19 C-54.61874999999998 19.72187500000001 -55.23750000000001 20.443749999999994 -55.875 21.1875 C-62.176942809765364 29.52830665998357 -62.731778077891704 37.82097805599119 -63 48 C-62.339999999999975 48 -61.68000000000001 48 -61 48 C-60.90203124999999 48.35642578124998 -60.90203124999999 48.35642578124998 -60.40625 50.16015625 C-57.87906719141205 58.253677055089895 -54.32584355137021 63.19838438183132 -46.75 67.18359375 C-46.172500000000014 67.4530078125 -45.59500000000003 67.72242187500001 -45 68 C-45 68.65999999999997 -45 69.32 -45 70 C-35.01848225348522 72.3774874947407 -24.977986786018164 73.38700918950411 -15.7578125 68.12109375 C-15.4677734375 67.93611328125002 -15.4677734375 67.93611328125002 -14 67 C-13.399296875000005 66.61972656249998 -12.798593750000009 66.23945312500001 -12.1796875 65.84765625 C-10.768447696423209 64.92542744812772 -9.381105419097025 63.966773793367906 -8 63 C-4.815805785757789 64.37154685851556 -3.028874041713152 65.86169982727591 -0.875 68.5625 C1.805555555555543 71.90277777777777 1.805555555555543 71.90277777777777 4 73 C3.922911720503407 75.62100150288495 3.4570039051649246 77.43319645528243 1.796875 79.4921875 C-3.344631094561123 84.3092296177199 -9.490779952581988 86.55239137181559 -16 89 C-16.746367187500027 89.36867187500002 -17.492734374999998 89.73734374999998 -18.26171875 90.1171875 C-27.26436365087136 93.01960939386151 -40.459840293898026 92.45425677867672 -48.86328125 88.171875 C-49.56839843749998 87.78515625 -50.273515625000016 87.3984375 -51 87 C-51.77730468750002 86.69578124999998 -52.554609374999984 86.39156250000002 -53.35546875 86.078125 C-63.36539362597085 81.94047719753195 -72.57393448237985 72.97426472228886 -77.1875 63.1875 C-77.83118261150742 61.472650905220746 -78.44074532745367 59.74421011734751 -79 58 C-79.43312500000002 56.783124999999984 -79.86624999999998 55.56624999999997 -80.3125 54.3125 C-82.885911702224 42.425788804012996 -81.72148782816839 28.696694635271342 -76 18 C-75.93812500000001 17.577187500000008 -75.93812500000001 17.577187500000008 -75.625 15.4375 C-74.72307513381753 11.919993021888331 -72.6358444628599 10.460121498669253 -70 8 C-69.09796951901592 6.859038826136242 -68.20247288488878 5.712891087001111 -67.3125 4.5625 C-51.14344522462994 -14.467233697166279 -18.38671605044715 -14.420953765056595 0 0 Z " fill="#000000" transform="translate(504,210)"/>
<path d="M0 0 C0.7056005859375318 0.0016113281249943157 1.4112011718750068 0.003222656250002842 2.13818359375 0.0048828125 C8.008057607480282 0.14255288594227977 12.235387516368007 1.329184579959687 17.1875 4.375 C18.239374999999995 4.9112499999999955 19.29124999999999 5.447500000000005 20.375 6 C24.412926331043536 9.409804457325677 26.943747979050727 13.609016097345346 29.1875 18.375 C29.1875 19.364999999999995 29.1875 20.355000000000004 29.1875 21.375 C29.847499999999968 21.375 30.507499999999993 21.375 31.1875 21.375 C31.1875 27.644999999999996 31.1875 33.91499999999999 31.1875 40.375 C30.527500000000032 40.375 29.867500000000007 40.375 29.1875 40.375 C29.075351562500032 41.109765624999994 28.963203125000007 41.84453125 28.84765625 42.6015625 C26.899547864529893 50.78592317268499 20.423647343400717 56.245475880376006 14.1875 61.375 C11.054798204853682 64.351066705389 8.208008243238567 67.49341576699567 5.375 70.75 C-4.467435543443173 81.75362175924266 -4.467435543443173 81.75362175924266 -8.96484375 82.9453125 C-15.081041429799143 83.26778337942702 -20.36133273261305 80.9241888682561 -25.8125 78.375 C-25.8125 74.375 -25.8125 74.375 -24.459259033203125 72.55419921875 C-24.142507171630882 72.24490478515625 -24.142507171630882 72.24490478515625 -22.53955078125 70.6796875 C-21.825259094238277 69.97215332031249 -21.110967407226553 69.264619140625 -20.375030517578125 68.53564453125 C-19.593848571777357 67.78138183593751 -18.81266662597659 67.02711914062502 -18.0078125 66.25 C-17.213498229980473 65.4660888671875 -16.419183959960947 64.68217773437499 -15.600799560546875 63.87451171875 C-13.055634125239521 61.365036240535005 -10.497548816980725 58.86928345265923 -7.9375 56.375 C-5.386322424281104 53.879063512815776 -2.8381022479598528 51.38028631953904 -0.295623779296875 48.87548828125 C1.2881608302889163 47.31620272403414 2.8772615207147965 45.76229471334308 4.472137451171875 44.21435546875 C5.192733459472663 43.5068212890625 5.913329467773451 42.799287109375 6.65576171875 42.0703125 C7.2908566284179415 41.4517236328125 7.92595153808594 40.833134765625005 8.580291748046875 40.19580078125 C11.266750089971424 37.15232123102521 12.131244635658845 34.99380900775252 12.5 30.9375 C12.169120372972884 27.165472251890776 11.465233154511338 25.353574125130194 9.1875 22.375 C8.527500000000032 22.045 7.867500000000007 21.715000000000003 7.1875 21.375 C7.1875 20.715000000000003 7.1875 20.055000000000007 7.1875 19.375 C2.5674999999999955 19.375 -2.052500000000009 19.375 -6.8125 19.375 C-6.8125 20.034999999999997 -6.8125 20.694999999999993 -6.8125 21.375 C-8.328009216667283 22.681574936311193 -9.901742347269078 23.921057009037753 -11.5 25.125 C-14.475532453924757 27.43930301971926 -17.227081460882516 29.59505400145136 -19.5625 32.5625 C-22.027358640349917 35.64357330043737 -24.787013657283183 37.85376138106932 -27.8125 40.375 C-29.48317132795387 42.37165597731072 -31.15002985876157 44.37151034261008 -32.8125 46.375 C-33.61687499999999 47.014375 -34.421249999999986 47.65375 -35.25 48.3125 C-38.090875659249264 50.59905845744453 -40.153239752276534 53.11605978941523 -42.3828125 55.984375 C-43.8125 57.375 -43.8125 57.375 -46.8125 57.375 C-47.4634258966077 56.12764432836104 -48.108016693075854 54.8769816804072 -48.75 53.625 C-49.10964843750003 52.92890625 -49.469296875 52.232812499999994 -49.83984375 51.515625 C-51.82341091818063 47.150184003361545 -52.579438268813476 43.13001726664339 -51.8125 38.375 C-47.76647825893383 32.71415805185643 -42.66015436873295 28.0526032257155 -37.29296875 23.66796875 C-35.8125 22.375 -35.8125 22.375 -33.8125 19.875 C-31.622111686649305 17.13701460831166 -29.227509083167604 15.082401154117804 -26.5390625 12.8515625 C-24.8125 11.375 -24.8125 11.375 -22.25 8.75 C-15.680021090589605 2.348482088266806 -9.076321531797191 -0.021594864458236884 0 0 Z " fill="#BC02F6" transform="translate(326.8125,67.625)"/>
<path d="M0 0 C2.945287686029701 2.5638197025981384 4.488665593531266 5.478957439725207 6.25 8.9375 C6.791406250000023 9.977773437499991 7.332812499999989 11.01804687500001 7.890625 12.08984375 C9 15 9 15 8.8125 17.19140625 C6.504409601573002 22.329126704190912 2.279055143328719 25.576755885337036 -2 29 C-2.804374999999993 29.969375000000014 -3.6087499999999864 30.93875 -4.4375 31.9375 C-7.051994651528503 35.06213994938773 -9.872254637669698 37.40463682700252 -13 40 C-13.319687499999986 40.4021875 -13.319687499999986 40.4021875 -14.9375 42.4375 C-16.711413590304232 44.6414532485598 -18.34366510962721 46.20992156659074 -20.5 48 C-22.632361731159335 49.770944488589976 -24.253410551592793 51.316763189490985 -26 53.5 C-28.203120790976214 56.25390098872026 -30.637307261713175 58.283836813863786 -33.33984375 60.52734375 C-35.52144510238105 62.46255247905333 -37.18811175276474 64.72052768896208 -39 67 C-41 68.66666666666669 -43 70.33333333333331 -45 72 C-45.639375 72.804375 -46.27875 73.60874999999999 -46.9375 74.4375 C-49.16976594302213 77.21092132314871 -51.61225214148635 79.26303734038464 -54.33984375 81.52734375 C-56.52144510238105 83.46255247905333 -58.18811175276474 85.72052768896211 -60 88 C-61.97956942455926 89.69088221681105 -63.979451960708445 91.3583047180756 -66 93 C-66.605537109375 93.706728515625 -67.21107421875001 94.41345703125 -67.8349609375 95.1416015625 C-70.64006041203157 97.54940683991703 -71.9998542611009 97.40426462163185 -75.640625 97.171875 C-76.710546875 97.1138671875 -77.78046875000001 97.05585937500001 -78.8828125 96.99609375 C-79.43839843750001 96.95548828124998 -79.43839843750001 96.95548828124998 -82.25 96.75 C-83.376640625 96.6842578125 -84.50328124999999 96.61851562499999 -85.6640625 96.55078125 C-88.4444153912523 96.38584506153586 -91.22210369664518 96.20159083169028 -94 96 C-92.61981295115075 93.09414772990331 -91.50814898820161 91.33298817283168 -88.9375 89.375 C-86 87 -86 87 -85 85 C-84.34 85 -83.68 85 -83 85 C-82.7357421875 84.39671874999999 -82.47148437499999 83.79343749999998 -82.19921875 83.171875 C-80.94244926013567 80.89577129848678 -79.84559837550958 79.83181566973286 -77.8125 78.25 C-74.35314866484802 75.40916054597707 -71.51548084549938 72.27269708741392 -68.61328125 68.875 C-65.39819600760029 65.13833918558873 -61.86862010896061 61.87784036157106 -58.125 58.6875 C-54.59039738714026 55.63882204013228 -51.600878781710065 52.334598288596254 -48.58984375 48.77734375 C-46.604727354961085 46.55811043367885 -44.333276070024226 44.842060055282275 -42 43 C-41.5978125 42.51531249999999 -41.5978125 42.51531249999999 -39.5625 40.0625 C-36.94572291046205 36.9351322588449 -34.125630331564764 34.604691942970646 -31 32 C-29.32932867204613 30.003344022689276 -27.66247014123843 28.003489657389935 -26 26 C-24.333333333333314 24.666666666666657 -22.666666666666686 23.333333333333343 -21 22 C-20.195625000000007 21.030624999999986 -19.391250000000014 20.06125 -18.5625 19.0625 C-15.945722910462052 15.935132258844874 -13.125630331564821 13.604691942970675 -10 11 C-8.309117783188952 9.020430575440713 -6.641695281924399 7.020548039291555 -5 5 C-3.3705532820364397 3.2899762465327598 -1.6947338139975159 1.6463128478833227 0 0 Z " fill="#BC02F6" transform="translate(259,121)"/>
<path d="M0 0 C4.18798558149706 3.512114709555192 8.133533605297032 7.133533605297032 12 11 C13.642163032893848 12.462465057913903 15.288407715994765 13.920352925601321 16.9375 15.375 C20.495002572604335 18.552472624195616 23.692712002666212 21.78471705586645 26.72265625 25.4609375 C30.058772062748005 29.48059997774527 33.97184812948768 32.86334011442648 37.875 36.3125 C41.71984015012657 39.74600509691834 45.16460733550258 43.30770423766893 48.49609375 47.234375 C51.80816541814926 51.1228331662428 55.53048303640162 54.468030006329116 59.375 57.8125 C63.0552372486016 61.05257598298812 66.28781815174523 64.46826791814794 69.4609375 68.19921875 C73.50968761945103 72.93646191006832 78.17038958877185 76.92237753588881 82.9140625 80.9375 C85.12119354850694 83.11983182324286 86.45425677739183 85.32401815009439 88 88 C84.00076687920648 88.20491566103163 80.00289668685576 88.3281678162453 76 88.4375 C74.87464843750001 88.49615234375 73.74929687500003 88.5548046875 72.58984375 88.615234375 C66.7709040637792 88.73433547968875 62.92620667846012 88.62294144834863 58.40625 84.72265625 C57.23183119409373 83.51861800618292 56.09484319309388 82.27682653746564 55 81 C54.38753417968752 80.304873046875 53.775068359374984 79.60974609375 53.14404296875 78.8935546875 C52.017620126433144 77.59617785871922 50.89967904835606 76.29140198173536 49.7890625 74.98046875 C47.33827521645145 72.26747933349537 44.62154810476329 69.94728082612312 41.83984375 67.58203125 C39.42889240317152 65.50892021928763 37.219188785698805 63.276091062255205 35 61 C33.834685988975764 59.831982244170604 32.66792182067741 58.66541016084801 31.5 57.5 C30.333333333333314 56.333333333333314 29.166666666666686 55.166666666666686 28 54 C27.262897949218768 53.26362304687501 26.52579589843748 52.52724609375002 25.766357421875 51.7685546875 C23.347425448143895 49.347701401637266 20.93300409684764 46.92251088603473 18.520706176757813 44.49505615234375 C16.223729737374867 42.184652143860376 13.924047002184523 39.87694946506156 11.624267578125 37.5693359375 C10.410167156986802 36.350163812675646 9.196959448939992 35.13010207626655 7.984619140625 33.9091796875 C6.227756805816966 32.140236999574086 4.467727344600121 30.374500776513457 2.70703125 28.609375 C2.1643208312988236 28.061503295898433 1.6216104125976472 27.513631591796866 1.0624542236328125 26.94915771484375 C-2.772258188497659 23.113870905751185 -2.772258188497659 23.113870905751185 -5 22 C-4.50697854696628 17.266994050876292 -3.463659839403988 13.40679920865773 -1.69921875 9 C-0.657624545621843 6.020691437756284 -0.3263184393049414 3.132657017327233 0 0 Z " fill="#BC02F6" transform="translate(257,311)"/>
<path d="M0 0 C0.435703124999975 0.37511718749999545 0.8714062500000068 0.7502343750000051 1.3203125 1.13671875 C1.915859375000025 1.6484765624999937 2.511406249999993 2.1602343750000017 3.125 2.6875 C3.7669531249999864 3.240507812499999 4.408906249999973 3.7935156249999977 5.0703125 4.36328125 C6.685999048700069 5.733671257905513 8.338930538497436 7.059986676310444 10 8.375 C13.098795278852833 11.086445868996236 15.68342636831403 13.973456499817644 18.35546875 17.09375 C21.736728737667875 21.013120246987967 25.477535684117527 24.421969387365777 29.375 27.8125 C33.0552372486016 31.052575982988117 36.28781815174523 34.468267918147944 39.4609375 38.19921875 C42.790691473901006 42.095199922508556 46.51717005214181 45.45644860954906 50.375 48.8125 C54.05663945239252 52.05381048134228 57.28991248340691 55.47131512856026 60.46484375 59.203125 C63.20523178900345 62.410703875169446 66.18045599577329 65.28374844075043 69.35546875 68.05859375 C74.30988406196059 72.39828101734511 78.45099943410548 76.43989911343192 82 82 C81.05898437500002 82.193359375 80.11796874999999 82.38671875 79.1484375 82.5859375 C77.903203125 82.84632812500001 76.65796875000001 83.10671875 75.375 83.375 C74.14523437499997 83.63023437499999 72.91546875 83.88546875 71.6484375 84.1484375 C68 85 68 85 64.78515625 86.28125 C62 87 62 87 59.91015625 85.9453125 C59.300429687500014 85.344609375 58.69070312500003 84.74390625000001 58.0625 84.125 C57.383164062499986 83.46757812499999 56.70382812499997 82.81015625 56.00390625 82.1328125 C53.51448804233587 79.48325627897736 51.13879753903393 76.75401444675924 48.7890625 73.98046875 C46.386142584743084 71.32046788311078 43.73900911697331 69.03489766419136 40.9921875 66.73828125 C39.11530059768654 65.10060542347159 37.36704284082293 63.37631897658383 35.611236572265625 61.61125183105469 C33.6767222963465 59.67671923483067 31.726944811453507 57.758179872092114 29.7763671875 55.83984375 C25.370600703713762 51.50542706324029 20.977201314136607 47.15869346296816 16.587890625 42.8076171875 C14.692233448629509 40.93218209387811 12.794130757179857 39.05979236415379 10.890625 37.1923828125 C8.141608251560228 34.491777615914685 5.405619408655639 31.778552918850437 2.671875 29.0625 C1.8177703857421648 28.229040527343756 0.9636657714843864 27.39558105468751 0.08367919921875 26.536865234375 C-0.7009368896484602 25.75255126953124 -1.4855529785156136 24.968237304687506 -2.2939453125 24.16015625 C-2.9872393798827943 23.475744628906256 -3.6805334472656455 22.79133300781251 -4.39483642578125 22.086181640625 C-6.262465420573676 19.658881779717547 -6.756513856558172 18.037277762971314 -7 15 C-5.8203125 11.9921875 -5.8203125 11.9921875 -4.125 8.875 C-1.040983606557404 3.122950819672127 -1.040983606557404 3.122950819672127 0 0 Z " fill="#BB01F4" transform="translate(388,119)"/>
<path d="M0 0 C2.278229718245939 1.198256262644037 3.4985539321340298 2.6533987779232575 5.10546875 4.66015625 C7.224913638928342 7.205301608072062 9.253976944023066 9.483464258688286 11.85546875 11.53515625 C14.920052722015953 14.066769096447928 17.197347746666765 16.857420681880427 19.73046875 19.91015625 C20.55546874999999 20.570156249999997 21.380468749999977 21.230156249999993 22.23046875 21.91015625 C24.73046875 23.91015625 24.73046875 23.91015625 27.16796875 26.84765625 C29.782463401528503 29.9722961993877 32.6027233876697 32.31479307700249 35.73046875 34.91015625 C37.063802083333314 36.57682291666666 38.397135416666686 38.24348958333334 39.73046875 39.91015625 C40.21515625000001 40.31234375 40.21515625000001 40.31234375 42.66796875 42.34765625 C45.795336491155126 44.96443333953795 48.125776807029354 47.78452591843521 50.73046875 50.91015625 C51.72046875000001 51.73515624999999 52.71046875000002 52.560156250000006 53.73046875 53.41015625 C56.83752591302044 55.999370552517036 59.1466061294401 58.809521105328145 61.73046875 61.91015625 C62.84361730809405 62.75925561524386 63.968704679227244 63.59294336962881 65.10546875 64.41015625 C65.97171874999998 65.23515624999999 66.83796875000002 66.06015625 67.73046875 66.91015625 C67.80760949938059 70.53577147088754 66.87156621272374 72.63384038549935 65.23046875 75.84765625 C63.56605102029346 79.24584244815094 63.104907121849976 82.16577253150024 62.73046875 85.91015625 C59.05227706618831 85.91015625 58.50664219505643 85.14172307048923 55.85546875 82.72265625 C55.14519531249999 82.07554687499999 54.434921874999986 81.4284375 53.703125 80.76171875 C49.69831841224885 77.00275177456624 45.99463658972286 73.0843635899904 42.35546875 68.97265625 C39.168278813372865 65.39833675368271 35.91833466894957 62.2309825507937 32.21484375 59.20703125 C30.08849887627065 57.34927730768911 28.48405267726389 55.11627796494486 26.73046875 52.91015625 C25.74046874999999 52.08515625000001 24.750468749999982 51.260156249999994 23.73046875 50.41015625 C20.73046875 47.91015625 20.73046875 47.91015625 18.79296875 45.47265625 C17.019055159695824 43.26870300144026 15.386803640372761 41.700234683409235 13.23046875 39.91015625 C10.30731278920689 37.48350236322696 8.09759334282495 34.888151705489435 5.73046875 31.91015625 C4.740468749999991 31.08515625000001 3.750468749999982 30.260156249999994 2.73046875 29.41015625 C-0.26953125 26.91015625 -0.26953125 26.91015625 -2.20703125 24.47265625 C-3.9809448403041756 22.26870300144023 -5.6131963596272385 20.700234683409235 -7.76953125 18.91015625 C-10.684395072256905 16.487331406286444 -12.975126986633313 13.942047598020281 -15.26953125 10.91015625 C-16.251836231623884 9.892768947603855 -17.244227218297965 8.884195080116939 -18.26953125 7.91015625 C-16.63976560779804 4.650624965596137 -13.192898838466135 4.009133074226497 -9.95703125 2.72265625 C-9.279628906250025 2.4371289062499955 -8.602226562499993 2.151601562499991 -7.904296875 1.857421875 C-5.222956676844262 0.7801678950957864 -2.9158256109263334 -0.11542855258400664 0 0 Z " fill="#BB01F5" transform="translate(361.26953125,158.08984375)"/>
<path d="M0 0 C2.9429377391509206 0.41428773570854105 5.266644703217821 1.5495197717926317 7.875 2.9375 C11.173368015716846 4.636097760902885 14.437381953240333 5.9312145859721 18 7 C14.820648314020616 13.81926366291836 9.516231656001253 18.567180135136937 3.87109375 23.390625 C-0.04034901281136172 26.75495572709454 -3.433422377693887 30.4907010632908 -6.8125 34.375 C-10.05086180652063 38.0532902028782 -13.462022817714228 41.28636565860586 -17.1953125 44.453125 C-19.59692919634722 46.51165359686905 -21.792456410497834 48.73585272871574 -24 51 C-25.165314011024236 52.168017755829425 -26.332078179322593 53.33458983915199 -27.5 54.5 C-28.046562499999993 55.04656249999999 -28.593124999999986 55.593124999999986 -29.15625 56.15625 C-30.4960943826934 57.4960943826934 -31.837439814804867 58.83443823840773 -33.1796875 60.171875 C-35.49710583785992 62.49571277923906 -37.801358710810774 64.83106100357745 -40.1015625 67.171875 C-41.609263470173374 68.69802685617202 -43.117078626562545 70.22406591391058 -44.625 71.75 C-45.388125 72.5298828125 -46.151250000000005 73.30976562500001 -46.9375 74.11328125 C-47.672265624999994 74.8544921875 -48.40703124999999 75.595703125 -49.1640625 76.359375 C-49.8287353515625 77.034521484375 -50.493408203125 77.70966796875001 -51.17822265625 78.4052734375 C-53 80 -53 80 -56 81 C-58.352558569984154 79.59666805103063 -60.490938387624965 78.17838877010038 -62.6875 76.5625 C-63.29400390625 76.12873046875 -63.900507812499995 75.69496093750001 -64.525390625 75.248046875 C-66.02355704483492 74.17455755055136 -67.51266609589544 73.08844834922343 -69 72 C-68.41964765797823 68.84701785014823 -67.57592662339573 67.1984606470358 -65.32511901855469 64.93070983886719 C-64.75736251831054 64.3516035461426 -64.1896060180664 63.77249725341795 -63.604644775390625 63.17584228515625 C-62.97867401123048 62.55280212402343 -62.35270324707031 61.92976196289061 -61.707763671875 61.287841796875 C-61.050800018310554 60.622408599853514 -60.39383636474611 59.95697540283203 -59.71696472167969 59.27137756347656 C-57.54176283020416 57.07276358056788 -55.355519886125194 54.88554141851969 -53.16796875 52.69921875 C-51.654106479128814 51.17825901953657 -50.140545343707686 49.656999504146086 -48.62727355957031 48.13545227050781 C-45.45388180624428 44.9486070807244 -42.27460314802386 41.76777295875121 -39.091552734375 38.590576171875 C-35.00544839458081 34.510377637152175 -30.9379109106776 30.412204756786224 -26.87501049041748 26.30891704559326 C-23.755017917856435 23.163131573520445 -20.623685749054573 20.02883011783794 -17.48894691467285 16.89774513244629 C-15.98384130498846 15.390941327523393 -14.482738038680395 13.880128996761016 -12.985677719116211 12.365331649780273 C-10.895586660070762 10.25321194986384 -8.790362469864306 8.1574480427943 -6.680419921875 6.065185546875 C-6.060521850585928 5.43202423095704 -5.440623779296857 4.798862915039052 -4.80194091796875 4.146514892578125 C-3.0558319091796875 2.4343719482421875 -3.0558319091796875 2.4343719482421875 0 0 Z " fill="#BC02F6" transform="translate(286,157)"/>
<path d="M0 0 C2.07550048828125 1.694549560546875 2.07550048828125 1.694549560546875 4.3095703125 3.92138671875 C5.1501397705078205 4.752499694824223 5.990709228515641 5.583612670898447 6.85675048828125 6.439910888671875 C7.754804077148435 7.344037170410161 8.65285766601562 8.248163452148447 9.578125 9.1796875 C10.04141204833985 9.641539459228511 10.04141204833985 9.641539459228511 12.38592529296875 11.978790283203125 C14.344232743320333 13.9326789517703 16.297021113846256 15.891880932183938 18.24609375 17.85498046875 C20.74676450985197 20.372766550351116 23.260693807801204 22.87681359434282 25.778888702392578 25.377058029174805 C28.177602007958882 27.762338776569095 30.564835495065722 30.15896929023404 32.953125 32.5546875 C33.40620025634766 33.00472640991211 33.40620025634766 33.00472640991211 35.69903564453125 35.282196044921875 C36.52699645996094 36.11961334228516 37.35495727539063 36.95703063964845 38.2080078125 37.81982421875 C38.94206848144532 38.55627166748047 39.676129150390636 39.29271911621095 40.43243408203125 40.051483154296875 C42 42 42 42 42 45 C39.55078125000003 47.078125 39.55078125000003 47.078125 36.3125 49.25 C35.256757812499984 49.97703124999998 34.201015625 50.70406250000002 33.11328125 51.453125 C29.53007971593871 53.23348611353612 28.701008850028813 53.23002733954502 25 52 C22.652389526367188 50.14686584472656 22.652389526367188 50.14686584472656 20.209716796875 47.695556640625 C19.28913986206055 46.78113296508786 18.368562927246103 45.86670928955078 17.420089721679688 44.92457580566406 C16.42943511409439 43.920128438304005 15.439153494203481 42.915313087287245 14.44921875 41.91015625 C13.425763840667713 40.8843162769806 12.40156756843436 39.859215454158345 11.376663208007813 38.83482360839844 C9.234671625806982 36.68970830064518 7.099554654128383 34.5380538278805 4.969482421875 32.381103515625 C2.234591833768377 29.61214790956467 -0.5133673700397878 26.856627789277184 -3.2660951614379883 24.105416297912598 C-5.379583876683284 21.991384801698473 -7.487828156666467 19.87218956926705 -9.594320297241211 17.751188278198242 C-10.606258136908536 16.732874149933195 -11.619422428946223 15.71577731608238 -12.633813858032227 14.699907302856445 C-14.046495122002653 13.282906897483315 -15.451787602010086 11.858551648239029 -16.856689453125 10.433837890625 C-17.65879348754882 9.624110260009786 -18.46089752197267 8.814382629394515 -19.287307739257813 7.9801177978515625 C-21 6 -21 6 -21 4 C-18.25336295717065 3.1334300159631994 -15.503575696876311 2.2814821444897575 -12.75 1.4375 C-11.972695312500008 1.1906445312499727 -11.195390624999987 0.9437890625000023 -10.39453125 0.689453125 C-10.017480468749994 0.5750488281249773 -10.017480468749994 0.5750488281249773 -8.109375 -0.00390625 C-7.763745117187511 -0.11126098632814774 -7.763745117187511 -0.11126098632814774 -6.0146484375 -0.654541015625 C-3.5692187969125655 -1.0738675960214437 -2.3416617700577262 -0.8375818357861249 0 0 Z " fill="#BB02F5" transform="translate(208,378)"/>
<path d="M0 0 C1.0492968749999818 -0.014179687499989768 2.0985937500000205 -0.028359375000007958 3.1796875 -0.04296875 C6.060470713949655 0.18245062615787333 7.687402083477082 0.6978568287915436 10.125 2.1875 C10.125 2.8474999999999966 10.125 3.507499999999993 10.125 4.1875 C10.723124999999982 4.414375000000007 11.32125000000002 4.641250000000014 11.9375 4.875 C14.844895340092194 6.619437204055316 15.715781882627084 8.100641266706958 17.125 11.1875 C18.57139868900282 17.386351524297766 18.431534446509716 22.59420341291343 15.125 28.1875 C10.84719328033134 32.74612554152873 6.324681724491711 34.581196452615416 0.125 34.9375 C-5.952892908809588 34.61883809557389 -10.621916756517862 32.583624159742726 -14.875 28.1875 C-17.689110895720603 22.793787449868887 -17.527356867906008 17.123142119095434 -16.875 11.1875 C-13.303203201384008 3.7793288621297734 -8.064055926289825 0.04929129539297605 0 0 Z " fill="#BD03F7" transform="translate(472.875,232.8125)"/>
</svg>
