<?xml version="1.0" encoding="UTF-8"?>
<!-- Generator: visioncortex VTracer 0.6.12 -->
<svg version="1.1" xmlns="http://www.w3.org/2000/svg" width="2500" height="2500">
<path d="M0 0 C0.6778567886353812 -0.00044185638427052254 1.355713577270535 -0.0008837127685410451 2.0541114807128906 -0.001338958740234375 C24.10231883614847 -0.008865318800019395 45.91549871612415 0.5278281759513277 67.8125 3.25 C68.15462524414056 3.291249999999991 68.15462524414056 3.291249999999991 69.885986328125 3.5 C124.60098467880152 10.102111414862918 178.54247639181608 24.612806291794755 228.8125 47.25 C229.37992919921862 47.503220214843736 229.37992919921862 47.503220214843736 232.25146484375 48.78466796875 C262.60292561711526 62.38068286640117 291.4035929891022 78.41832350702327 318.8125 97.25 C319.1661059570313 97.4921826171875 319.1661059570313 97.4921826171875 320.95556640625 98.7177734375 C335.8499150187615 108.95742435503377 350.1505046666564 119.94620993280108 363.85546875 131.73046875 C366.7164336704084 134.16814691864374 369.62886053581224 136.52565387307777 372.5625 138.875 C376.80036524793627 142.31941877916438 380.6767153926214 145.96767622234154 384.44921875 149.9140625 C386.42819365051787 151.87014017026388 388.4412158266323 153.6813701526453 390.546875 155.49609375 C395.0160494855031 159.37356885865927 399.2039204956743 163.4937721001757 403.375 167.6875 C404.09107421875 168.39970703125 404.8071484375 169.11191406249998 405.544921875 169.845703125 C409.59737303476663 173.90552908214562 413.47094627142474 178.06299189834408 417.215576171875 182.407958984375 C419.4787153784405 185.01847500845952 421.8326279003393 187.53437154465848 424.1875 190.0625 C429.3017417064243 195.60643622565408 434.11642314801725 201.34590337859754 438.8125 207.25 C439.2190380859374 207.75692382812497 439.6255761718751 208.26384765625 440.04443359375 208.7861328125 C466.55882397305345 241.86589494158136 488.80429053796047 277.3813721781976 507.8125 315.25 C508.304921875 316.2254980468749 508.79734375 317.20099609375006 509.3046875 318.2060546875 C536.5777746857204 372.54504400435303 553.3064992878487 432.24838599316263 561.0625 492.4375 C561.2138037109376 493.59765625 561.3651074218751 494.7578125 561.52099609375 495.953125 C562.0137734299547 500.0467961590699 562.4221102610397 504.1456076283556 562.8125 508.25 C562.8961814308166 509.11684921264646 562.9798628616334 509.9836984252929 563.0660800933838 510.87681579589844 C565.2870819020234 534.9577235930973 565.0762240968747 559.0409838512467 565.0152878761292 583.2013208866119 C565.0026106525286 589.0935342224078 565.0015968563712 594.9857505930122 564.9992370605469 600.8779754638672 C564.9930714106083 611.9870179256081 564.9767286396027 623.0960200588365 564.9565380811691 634.2050449252129 C564.9340241408686 646.8729435400785 564.9231470703203 659.5408442899126 564.9131472110748 672.2087579965591 C564.8923568403259 698.2225275114969 564.8572786946247 724.2362614755716 564.8125 750.25 C565.6575811767577 750.241117553711 566.5026623535157 750.2322351074218 567.3733520507813 750.2230834960938 C575.4315121271206 750.1421329554707 583.4895310086345 750.0816339677777 591.5480079650879 750.0427513122559 C595.6885979441365 750.0220877501044 599.8288453725613 749.9941718427519 603.96923828125 749.9482421875 C641.9092825632501 749.5386818436033 675.7117084624076 754.8896219154442 704.1597349643707 782.2417280673981 C707.5149469677829 785.5273251666285 710.8361647959921 788.8459744368342 714.15283203125 792.17041015625 C715.655000208626 793.6652239255677 717.1577848596914 795.1594184013152 718.6611328125 796.6530456542969 C722.7135959804059 800.6834297800683 726.7565057091747 804.7232649924099 730.7969918251038 808.765652179718 C734.1837872227754 812.152567899227 737.5749267349531 815.5351183014131 740.9659336805344 818.9178165197372 C748.972447402135 826.9051454677137 756.9708181208978 834.900565235954 764.96435546875 842.90087890625 C773.1819704261404 851.1251323568681 781.4142255369422 859.3345211932565 789.6536799669266 867.5368896722794 C796.7543560043341 874.606774956414 803.8452288095223 881.6863916062798 810.9285839796066 888.7736304998398 C815.147349704338 892.9944538408452 819.3697150930802 897.2115026904839 823.6018104553223 901.4189643859863 C827.5841721131692 905.3789060495783 831.5540637807749 909.3509549443411 835.5151214599609 913.332202911377 C836.9611039369734 914.7815684120474 838.4112621524428 916.2267833465053 839.8661308288574 917.6672286987305 C866.6275223832736 944.1817723494419 878.0091703595308 975.0364700582873 878.2017490537837 1012.5923437378369 C878.218234371689 1017.5337693726483 878.2098533374856 1022.4750311955306 878.1979026626796 1027.4164572367445 C878.1902382745207 1031.9696610297804 878.2000936554032 1036.5228343856588 878.2076326608658 1041.076033771038 C878.2184324716723 1049.04310592444 878.218160795589 1057.010117013666 878.2104911804199 1064.9771919250488 C878.1991169657958 1076.8249137796772 878.2049588782938 1088.672584374956 878.2141161020845 1100.520305913873 C878.229895723639 1121.684420954957 878.2285510555666 1142.8485087911642 878.2198793645948 1164.0126264067367 C878.2123272305057 1182.535776346817 878.2103651356401 1201.0589163255743 878.2139472961426 1219.582067489624 C878.2141764514245 1220.811631190735 878.2144056067054 1222.0411948918459 878.2146417060867 1223.308018099051 C878.2155757528867 1228.2994814991575 878.2165309564598 1233.2909448944645 878.2175209973939 1238.2824082837906 C878.2265638939057 1284.4239370629084 878.2188521460162 1330.5654493885502 878.2029215248767 1376.7069755614502 C878.1883559572261 1418.9398324530557 878.1890271142256 1461.172660810208 878.20361328125 1503.405517578125 C878.2196973909286 1550.125975132213 878.2260415075953 1596.846417590642 878.2167764902115 1643.5668775439262 C878.2158143719244 1648.5500800972372 878.2148758486055 1653.533282654565 878.2139472961426 1658.5164852142334 C878.213828680101 1659.1299607332076 878.213828680101 1659.1299607332076 878.2132284110412 1662.2345186625607 C878.2098197483147 1680.741507370893 878.213799877306 1699.2484850089793 878.2213859558105 1717.7554721832275 C878.2299719716548 1738.8066008306264 878.2278017851218 1759.8576980671787 878.2115437239408 1780.90882281214 C878.2027502700539 1792.6822047233145 878.2021375183754 1804.455518571799 878.2134822471999 1816.2288986828644 C878.2202310147895 1824.102875499415 878.2159837918916 1831.976797982234 878.202967940364 1839.850766776828 C878.1958629894152 1844.3305166045684 878.1933255072618 1848.810131662029 878.2041858881712 1853.2898770347238 C878.3025385995188 1897.1307343313647 871.7380405207796 1934.24120638993 839.875 1966.6875 C814.6385161331646 1991.5261849210465 781.7317839025604 2002.4586552226197 746.7720403075218 2002.3764998316765 C746.2411418551219 2002.377263105629 746.2411418551219 2002.377263105629 743.55447392934 2002.3811257344205 C740.0015648250853 2002.38501813324 736.4486984373402 2002.381812654667 732.8957891464233 2002.3786344528198 C730.3098085252464 2002.3799813322757 727.7238281013301 2002.3817653530796 725.1378480494022 2002.383946686983 C719.5003318511285 2002.3879914408703 713.8628248777393 2002.3883303444986 708.2253077551723 2002.3862407431006 C699.7856225469889 2002.3831296764079 691.3459457833276 2002.3857816210889 682.9062611873087 2002.3895394507854 C668.5214619670148 2002.3957727823963 654.1366657561125 2002.397245622068 639.7518653869629 2002.3961219787598 C625.1741138817852 2002.3949976045196 610.5963649301741 2002.396031338867 596.0186138153076 2002.399694442749 C595.0978762993304 2002.3999240958196 594.1771387833533 2002.4001537488903 593.2285001305281 2002.4003903611447 C589.4784675013991 2002.4013319992223 585.7284348762073 2002.4022876869203 581.9784022553067 2002.4032615517208 C542.8547766081356 2002.4134068817339 503.7311523921928 2002.4164675723732 464.60752557963133 2002.4170536622405 C460.3960661043179 2002.4171184095476 456.18460662907137 2002.4171863487409 451.97314715385437 2002.4172570705414 C450.92806924897536 2002.4172740750255 449.88299134409635 2002.4172910795096 448.8062444117968 2002.4173085992807 C425.64938473557936 2002.4177170227822 402.492525333058 2002.419906835923 379.33566580194747 2002.42241291533 C369.80103199581526 2002.4234412695223 360.2663981855262 2002.4244312993505 350.7317643761635 2002.4254291653633 C350.20501916230614 2002.425484460036 350.20501916230614 2002.425484460036 347.53936914066435 2002.4257642845914 C287.1664842761468 2002.4320886567166 226.79359959059752 2002.436213368871 166.42071437835693 2002.4357557296753 C164.16121477773436 2002.4357399513074 161.90171517711156 2002.4357242152419 159.64221557648852 2002.4357085213996 C149.4407142297755 2002.4356351374581 139.23921288320003 2002.4355469677857 129.03771153664275 2002.4354546370014 C124.4885838850314 2002.435413513197 119.93945623341483 2002.4353733663784 115.39032858179417 2002.4353333235485 C113.11340782274692 2002.4353129284113 110.83648706370536 2002.435291908394 108.55956630466972 2002.4352702639299 C36.56046072398726 2002.4345900149 -35.438639938436154 2002.4419072802275 -107.437744140625 2002.455810546875 C-125.57786590396972 2002.4593115561383 -143.71798767186806 2002.4627810110096 -161.85810947418213 2002.4660749435425 C-162.41658619970462 2002.4661763805425 -162.41658619970462 2002.4661763805425 -165.24281690159114 2002.466689713241 C-199.66770897250535 2002.472904579044 -234.0926006394668 2002.4766702498464 -268.51749324798584 2002.4779329299927 C-269.0578881164172 2002.477952905373 -269.0578881164172 2002.477952905373 -271.7926136627211 2002.4780539929052 C-295.51847268084657 2002.4789072648964 -319.24433167369307 2002.4791684648935 -342.97019070442184 2002.4788836166554 C-351.4597356784617 2002.4787871319504 -359.94928065274974 2002.4787350884799 -368.43882562726503 2002.4787048872677 C-370.5508156572373 2002.478696973105 -372.6628056872023 2002.4786867682442 -374.7747957171523 2002.478674263868 C-408.42779022757657 2002.4784979386409 -442.0807805285684 2002.484196034592 -475.73377383255865 2002.4928280796157 C-509.6289519069635 2002.5014780516153 -543.524124152697 2002.503669238432 -577.4193028665904 2002.497066757729 C-582.1041373614155 2002.4961544737362 -586.788971866371 2002.4953111923087 -591.4738063812256 2002.4945087432861 C-592.3921514259691 2002.4943486559746 -593.3104964707129 2002.494188568663 -594.256670153176 2002.494023630221 C-608.7915330838478 2002.4916716015314 -623.3263859258197 2002.4960259460677 -637.8612469600339 2002.5031799302378 C-652.1572541781522 2002.5100757709383 -666.4532465131086 2002.5098208403078 -680.7492534068879 2002.5019877937157 C-689.1275603111164 2002.4976100481904 -697.5058233484401 2002.4986693017 -705.8841266071831 2002.5078545788128 C-712.1100557633492 2002.5140659685649 -718.3359370274095 2002.5098029852634 -724.5618628524244 2002.5015212781727 C-727.0606062715593 2002.49980304454 -729.5593548418559 2002.501418248134 -732.058093007654 2002.5068224854767 C-765.7336030870117 2002.5747646185382 -765.7336030870117 2002.5747646185382 -781.6875 1998.125 C-782.463193359375 1997.9125463867185 -783.23888671875 1997.7000927734375 -784.0380859375 1997.481201171875 C-815.0229447631743 1988.5509714395662 -842.0911883884348 1967.1647136610995 -858.1875 1939.25 C-869.4880162216886 1918.5633160263296 -874.6880232652811 1896.6876683036307 -874.5650234222412 1873.1784811019897 C-874.5681626041777 1871.632032179591 -874.5726135441197 1870.0855854779297 -874.5782365202904 1868.5391435921192 C-874.5898174934466 1864.3244543845713 -874.582982814146 1860.1099739402698 -874.5729026626796 1855.895288492553 C-874.5652455202962 1851.296770009586 -874.575090812926 1846.698281849911 -874.5826326608658 1842.0997677445412 C-874.5934375558638 1834.051732260802 -874.5931576418359 1826.0037572157344 -874.5854911804199 1817.9557189941406 C-874.5741218381246 1805.987857390562 -874.5799563002357 1794.0200465667983 -874.5891161020845 1782.0521852811798 C-874.604898810446 1760.6752018130949 -874.6035499638065 1739.298245272052 -874.5948793645948 1717.9212592532858 C-874.5873291294697 1699.2143903139738 -874.5853642626703 1680.5075312375714 -874.5889472961426 1661.8006610870361 C-874.5891764514241 1660.5592122483858 -874.5894056067057 1659.3177634097356 -874.5896417060867 1658.038694909308 C-874.5905757386247 1652.9991084224457 -874.5915309410573 1647.9595219403402 -874.5925209973939 1642.9199354641605 C-874.5993467819302 1607.756215175516 -874.6005575311677 1572.59249804265 -874.5893306732178 1537.4287786483765 C-874.5891199261987 1536.7664396235468 -874.5889091791794 1536.1041005987174 -874.588692045887 1535.4216906943475 C-874.5852574337885 1524.6665607302991 -874.5815989376167 1513.9114308412222 -874.5779215248767 1503.1563009578967 C-874.5633522857584 1460.5009196977137 -874.5640301411429 1417.8455666863279 -874.57861328125 1375.190185546875 C-874.5822770102358 1364.4392163249888 -874.5859102278481 1353.6882470963708 -874.5893306732178 1342.9372777938843 C-874.5894363454584 1342.6062658145079 -874.5894363454584 1342.6062658145079 -874.5899711110396 1340.931144585542 C-874.6013083348112 1305.1726340300675 -874.5988019196496 1269.4141252211132 -874.5917764902115 1233.6556139588356 C-874.5908143528809 1228.6255836918479 -874.5898758313298 1223.5955534208751 -874.5889472961426 1218.565523147583 C-874.5888286801008 1217.9462732189777 -874.5888286801008 1217.9462732189777 -874.5882284110412 1214.812493277248 C-874.5848173515797 1196.1176614220512 -874.5888042757513 1177.422840516074 -874.5963859558105 1158.7280101776123 C-874.604964232429 1137.469936846643 -874.6028180932087 1116.2118946248208 -874.5865437239408 1094.9538251683116 C-874.5777379716734 1083.0594208810685 -874.5771553834461 1071.1650839744304 -874.5884822471999 1059.27068144246 C-874.5952159935239 1051.3223809567203 -874.5910107626858 1043.3741344197858 -874.577967940364 1035.425841918448 C-874.5708423728979 1030.8995234204483 -874.568369045885 1026.373338652089 -874.5791858881712 1021.8470244333148 C-874.5889444751241 1017.7213658675885 -874.5846632429889 1013.5959584854968 -874.569643907249 1009.470317889005 C-874.5666468005412 1007.9948582380875 -874.5685556594503 1006.519377322445 -874.5762617215514 1005.043934751302 C-874.7198481510279 975.427259016358 -864.0390616898804 946.9488300450037 -843.7603607177734 925.2352752685547 C-843.2415498632192 924.6769287317991 -842.722739008665 924.1185821950435 -842.1882066130638 923.5433160662651 C-836.0230405505795 916.9480065430598 -829.6523135575569 910.558880724056 -823.271728515625 904.173095703125 C-821.9214242790972 902.8181482179968 -820.5713120374783 901.4630093735416 -819.2213745117188 900.1076965332031 C-815.5936466115902 896.4669975698648 -811.9627208422369 892.8295056354355 -808.3307392597198 889.1930506229401 C-806.0540094020967 886.9133683259947 -803.7778587071073 884.6331092590499 -801.501874923706 882.3526821136475 C-794.3574362257768 875.1946160572529 -787.2110330797414 868.0385200539422 -780.0617185235023 860.8853238224983 C-771.8500299350137 852.6691497732754 -763.6449354976764 844.4464645732278 -755.4454789757729 836.218083679676 C-749.0750480558522 829.8259715369338 -742.6988010097318 823.4396987904261 -736.3181871771812 817.0577513575554 C-732.5209732777024 813.2594951315359 -728.726170755454 809.4589060613553 -724.9374408721924 805.6521854400635 C-721.3743207046801 802.0724699254502 -717.8039640539873 798.500127593562 -714.2281799316406 794.9330635070801 C-712.9264445310829 793.6320920591138 -711.6272123374762 792.3286096749775 -710.3308544158936 791.0222797393799 C-699.6545002311003 780.2687066998974 -688.6797850961211 770.4359695248452 -675.0625 763.5 C-674.1743359375 763.0424633789063 -673.286171875 762.5849267578125 -672.37109375 762.113525390625 C-654.0516830514258 752.9651884699629 -635.7287980651304 749.9104533201178 -615.38671875 750.0546875 C-613.8134631541133 750.0584282515227 -612.2402051921806 750.0612701858935 -610.6669464111328 750.0632629394531 C-606.5718821916639 750.070815930888 -602.4769650331102 750.090390334749 -598.3819580078125 750.1126708984375 C-594.1849974357599 750.1333113531182 -589.9880125705088 750.1423031450266 -585.791015625 750.15234375 C-577.5897770602761 750.1736461254236 -569.3886569402364 750.207678258659 -561.1875 750.25 C-561.1902653789521 749.1475198554992 -561.1930307579041 748.0450397109985 -561.1958799362183 746.9091510772705 C-561.2628555904734 719.9255522603265 -561.3119544729086 692.9419643810871 -561.3429365158081 665.9582996368408 C-561.3583222758529 652.9085301473505 -561.3792505902086 639.8588159784912 -561.413818359375 626.80908203125 C-561.4439773989309 615.4181405780068 -561.4631349996014 604.0272392386221 -561.469765484333 592.6362589597702 C-561.4736334731265 586.6200970096147 -561.4825445030547 580.6040496893213 -561.5046901702881 574.5879249572754 C-561.8155902587714 486.5978684333046 -545.9789587228463 402.1515368726075 -430.1875 201.25 C-429.674775390625 200.6381787109375 -429.16205078124995 200.026357421875 -428.6337890625 199.39599609375 C-417.01708131233363 185.5383294314663 -404.5743340044819 172.54920039045595 -391.8125 159.75 C-391.29635131835937 159.23117248535152 -390.78020263671874 158.71234497070316 -390.2484130859375 158.17779541015625 C-384.4091926806186 152.315582290649 -378.50605008380353 146.60034309709692 -372.1875 141.25 C-371.09291447130363 140.3004414512684 -369.99913505850486 139.34995269483272 -368.90625 138.3984375 C-311.49476853259216 88.81338257274251 -245.310572816486 50.95153475059044 -173.1875 27.25 C-172.18025878906246 26.914038085937477 -171.17301757812493 26.57807617187501 -170.13525390625 26.23193359375 C-129.40932312231803 12.735587812873518 -86.89932680456104 4.855350516299211 -44.1875 1.25 C-43.167126464843705 1.1557373046875057 -42.14675292968741 1.0614746093750114 -41.095458984375 0.96435546875 C-27.42825284709943 -0.14168408691224954 -13.702464134810725 0.004091278648985508 0 0 Z M-319.1875 180.25 C-319.7509814453125 180.72324707031248 -320.314462890625 181.19649414062502 -320.89501953125 181.68408203125 C-333.12981247862444 191.9837968528309 -333.12981247862444 191.9837968528309 -338.640625 197.69921875 C-340.2938522248726 199.35662079109693 -342.0282457785779 200.8598585020569 -343.8125 202.375 C-351.88455866479285 209.34560816472367 -359.50339993415764 217.04880805039784 -366.3984375 225.18359375 C-368.2243600651386 227.2925741800401 -370.11876320308124 229.32830166771686 -372.026123046875 231.363525390625 C-377.97857593870947 237.73813806202213 -383.39378126710074 244.4195943143751 -388.701171875 251.33544921875 C-390.2313467229245 253.30647930374084 -391.79137338764576 255.2503643507887 -393.359375 257.19140625 C-407.40356091402873 274.6994692097055 -420.1940336685375 293.67391521678155 -431.1875 313.25 C-431.6322265625 314.04083984375006 -432.07695312500005 314.8316796875 -432.53515625 315.646484375 C-436.16615064674716 322.138702356384 -439.69938647888716 328.6800556745891 -443.1875 335.25 C-443.6491455078125 336.1144775390625 -444.11079101562495 336.97895507812495 -444.58642578125 337.86962890625 C-470.87934628737685 387.4708681313216 -486.93819648919634 443.082969118512 -494.375 498.5625 C-494.530009765625 499.6976000976563 -494.68501953124996 500.83270019531255 -494.8447265625 502.002197265625 C-498.4591329422933 530.6162477723215 -498.4650788377196 559.20206286989 -498.39028787612915 587.9897463321686 C-498.37760402170375 593.7137962070775 -498.3765963530757 599.437849249443 -498.3742370605469 605.1619110107422 C-498.36807329223734 615.9522103529889 -498.3517331941018 626.7424681379293 -498.3315380811691 637.5327493548393 C-498.3047897990425 652.1483001067735 -498.29416510303554 666.7638625919631 -498.2825336456299 681.3794317245483 C-498.26384760970154 704.3363188149258 -498.22396843796514 727.2931183009844 -498.1875 750.25 C-436.47749999999996 750.25 -374.7674999999999 750.25 -311.1875 750.25 C-311.1501171875 735.392265625 -311.11273437499995 720.53453125 -311.07421875 705.2265625 C-311.0439180563375 695.7747305055985 -311.0128757335167 686.322910420108 -310.978515625 676.87109375 C-310.9241978080512 661.891775721351 -310.8727781700709 646.9124906991375 -310.841064453125 631.93310546875 C-310.81794518884476 621.0197581624984 -310.7843945154892 610.1064988020602 -310.7387984395027 599.193221449852 C-310.71505226556746 593.425509898354 -310.696202587151 587.6578844313369 -310.68988609313965 581.8901252746582 C-310.5920910262412 503.12104414902274 -292.83457433506555 428.02784660848215 -241.1875 366.25 C-240.3934375 365.283203125 -239.599375 364.31640625 -238.78125 363.3203125 C-233.54556197281158 356.9939378699203 -228.09589173548773 350.8848076390856 -222.5 344.875 C-221.89470458984374 344.2212841796875 -221.28940917968748 343.56756835937495 -220.665771484375 342.89404296875 C-216.41424249461147 338.37128681466584 -211.90411650874103 334.27991758868563 -207.1875 330.25 C-206.12719754490513 329.31312819290474 -205.06849478349704 328.374441502953 -204.01171875 327.43359375 C-157.88302602098315 286.8283303234572 -100.78408576511356 262.08010357232985 -40.1875 253.25 C-39.406005859375 253.13140625 -38.62451171875 253.0128125 -37.8193359375 252.890625 C-9.424411409089544 248.77648328307635 21.55390810321387 249.6864177258223 49.8125 254.25 C50.35028076171875 254.33580322265624 50.35028076171875 254.33580322265624 53.07177734375 254.77001953125 C69.01198496156417 257.3973714717912 84.4497740872032 261.2720453113527 99.8125 266.25 C100.70823730468737 266.53681640624995 101.60397460937497 266.8236328125 102.52685546875 267.119140625 C156.65922157407658 284.74872208771626 208.8578024800015 320.07876405044317 243.8125 365.25 C244.66446592082252 366.3025663872427 245.51875585228186 367.3532546740421 246.375 368.40234375 C279.12882687838623 408.80657076640784 300.58802962606524 457.920294094725 309.625 509 C309.8200512695312 510.0981201171875 310.01510253906235 511.19624023437495 310.216064453125 512.32763671875 C313.19227660269917 530.3109424200595 314.1116688604261 548.3646993184627 314.13134765625 566.56591796875 C314.14067976891374 568.5888456800078 314.15085310334007 570.6117696537643 314.1617889404297 572.6346893310547 C314.18873370096117 578.0484952854638 314.20413092431454 583.4622757842358 314.2172169685364 588.8761305809021 C314.2330056954986 594.5628862075802 314.259744353963 600.2495909543651 314.2852478027344 605.9363098144531 C314.3317601588278 616.6701374506918 314.3686362263304 627.4039749596491 314.4019206762314 638.1378508806229 C314.44754288071135 652.6671207391003 314.5083137100653 667.1963270864251 314.5681686401367 681.7255439758301 C314.66187318292714 704.5669972416855 314.7355652236629 727.4084698254056 314.8125 750.25 C376.52250000000004 750.25 438.2325000000001 750.25 501.8125 750.25 C501.89310606843696 703.1312748837289 501.89310606843696 703.1312748837289 501.91015625 683.14453125 C501.9219504586199 669.4304858073166 501.93569258971 655.7164652151084 501.96337890625 642.00244140625 C501.9835470073026 632.0075460789941 501.996270833635 622.0126712206052 502.00067698955536 612.0177561044693 C502.0032455210626 606.7437286174472 502.0091173384885 601.4697595977273 502.0239601135254 596.1957511901855 C502.07869960545077 575.9103131535362 501.98783964179347 555.6701553230209 500.91357421875 535.40869140625 C500.87382988214495 534.6480295825004 500.8340855455399 533.887367758751 500.79313683509827 533.1036555767059 C497.46709383246207 471.2978684153295 481.6241300177851 410.405222378473 455.8125 354.25 C455.0660024437698 352.59262973621037 454.31988554924646 350.93508794536115 453.57421875 349.27734375 C447.75410993211926 336.5044066679145 440.8845013022685 324.36506404695047 433.8125 312.25 C433.29220214843735 311.35539062500004 432.77190429687516 310.46078124999997 432.23583984375 309.5390625 C425.5602325266825 298.10122498693113 418.5339985038895 287.00992210289314 410.8125 276.25 C410.27898925781255 275.50395507812505 409.7454785156251 274.75791015625 409.19580078125 273.9892578125 C398.8641398614527 259.59947553286304 387.97814521892224 245.6619636977615 375.97265625 232.62109375 C374.80535396038385 231.33980534168717 373.64504511116957 230.05114930961287 372.528564453125 228.725341796875 C366.7022650691001 221.8565486727561 360.28056686762466 215.5676393910959 353.906494140625 209.213623046875 C351.87987019961156 207.1923573232276 349.8586445255323 205.16580426301732 347.837890625 203.138671875 C341.6678792501616 196.96523899937608 335.51389956095795 190.85267580024117 328.8125 185.25 C328.33039062500006 184.82718750000004 328.33039062500006 184.82718750000004 325.890625 182.6875 C242.50415067440827 110.81849450390996 135.3985295178611 69.63600593563876 -319.1875 180.25 Z M-171.1875 383.25 C-171.7820800781251 383.81734863281247 -172.37666015624995 384.38469726562494 -172.9892578125 384.96923828125 C-181.88585714021042 393.50107244828325 -189.91163785487993 402.30110606321387 -197.1875 412.25 C-197.67315429687505 412.90726074218753 -198.1588085937501 413.56452148437506 -198.6591796875 414.24169921875 C-271.1069535420629 512.7232106915711 -248.1875 632.2514310410079 -248.1875 750.25 C-83.51749999999993 750.25 81.15250000000015 750.25 250.8125 750.25 C250.8125 529.1732716480446 250.8125 529.1732716480446 245.125 506.8125 C244.99609375 506.29768066406245 244.99609375 506.29768066406245 244.34375 503.6923828125 C234.0220997628287 463.56757898766693 215.14940453823647 426.68185078814497 186.8125 396.25 C185.66207817492545 394.9206236688027 184.516056120322 393.58742391777287 183.375 392.25 C176.38258370870972 384.2609634556983 168.80801444278018 377.07617882805016 160.4482421875 370.53515625 C159.28998575501873 369.62514701707755 158.13754055953677 368.7077187141431 156.9892578125 367.78515625 C141.22619953578192 355.1241920657958 124.18028750157919 344.69962325402787 105.8125 336.25 C105.11431152343744 335.92580078125 104.41612304687487 335.60160156250004 103.69677734375 335.267578125 C13.774521266273723 294.03395366221093 -96.166971006116 312.3283668905335 -171.1875 383.25 Z M-654.1875 826.25 C-654.6543562817574 826.6896961975099 -655.1212125635147 827.1293923950195 -655.6022160053253 827.5824127197266 C-659.9657601469601 831.7177733062574 -664.222330111378 835.9581058496578 -668.478759765625 840.203125 C-669.9164687173375 841.6299260202527 -671.3545588227798 843.0563430594239 -672.7929992675781 844.4824066162109 C-676.6843898023623 848.343410003707 -680.5691255678038 852.2110386001627 -684.4517071247101 856.0808982849121 C-686.881925946222 858.5030096221747 -689.3131774869813 860.9240799320355 -691.7447032928467 863.3448791503906 C-699.3650905019118 870.9325824708567 -706.9810822374076 878.5246608204525 -714.5912509560585 886.122612953186 C-723.3521139695019 894.8692254991672 -732.1275878588087 903.600823780642 -740.9159465432167 912.3198070526123 C-747.7251591369437 919.0771279834166 -754.5207629857272 925.8479432982197 -761.3063988089561 932.6289386749268 C-765.3518687432186 936.6710217186119 -769.4027833177054 940.7072512397826 -773.468111038208 944.7293701171875 C-777.2946705283828 948.5159629986961 -781.1039487414512 952.3191464546112 -784.9010810852051 956.1352405548096 C-786.2901140109805 957.5255317280969 -787.6850508917387 958.9099557146276 -789.0865421295166 960.2876873016357 C-802.9309428108604 973.9108421011592 -811.0297724073922 987.4304323446379 -811.5623968243599 1007.4793834686279 C-811.5775510115744 1010.162526367483 -811.5770350693139 1012.8425216893224 -811.5622301101685 1015.5253601074219 C-811.5650620208094 1017.0339461739018 -811.5692080581955 1018.5425302340304 -811.5745353400707 1020.0511095523834 C-811.5853361964812 1024.179303249469 -811.5775933055528 1028.3072810093643 -811.5667013013735 1032.4354666769505 C-811.5581615985976 1036.933218961099 -811.5670937859071 1041.4309430023538 -811.5737654566765 1045.9286937713623 C-811.583049160944 1053.8059259268339 -811.5812124759974 1061.6830942345632 -811.5720329284668 1069.5603256225586 C-811.5584201126446 1081.2741038849636 -811.5620028293508 1092.987833207025 -811.5689915316179 1104.701615035534 C-811.5809151104016 1125.6232386154477 -811.5758351882691 1146.5448320548767 -811.563713257201 1167.4664539694786 C-811.5531773740892 1185.7753068568468 -811.5486377277323 1204.0841494758981 -811.5500087738037 1222.3930053710938 C-811.5500928043527 1223.607437606901 -811.5501768349018 1224.821869842708 -811.5502634118311 1226.073103055358 C-811.5506156591836 1231.0028695770925 -811.5509996709136 1235.932636094839 -811.5514289883431 1240.8624026104808 C-811.5553941204703 1287.1081309521487 -811.5426757902562 1333.353841137428 -811.521902426146 1379.5995642840862 C-811.5035329664165 1420.6868234782614 -811.4977201658211 1461.7740652662849 -811.503173828125 1502.861328125 C-811.5035202618368 1505.4995265801306 -811.5038663589396 1508.1377250353053 -811.5042121186852 1510.7759234905243 C-811.5043831138476 1512.0801982129365 -811.5045541090099 1513.3844729353486 -811.5047302858438 1514.7282711341977 C-811.5055838287562 1521.2938128326111 -811.5064076143985 1527.8593545340686 -811.5071992874146 1534.4248962402344 C-811.5073563678422 1535.720175782889 -811.5075134482701 1537.0154553255438 -811.5076752887107 1538.3499857634306 C-811.5116652485538 1572.681534501767 -811.5061898830676 1607.0130815644866 -811.4976879954338 1641.3446292877197 C-811.4967809568268 1645.038718506218 -811.4958753066021 1648.7328077250418 -811.49497276498 1652.426896944642 C-811.4943716525889 1654.8774599302506 -811.493763033644 1657.3280229140291 -811.4931468558498 1659.778585895896 C-811.488925274592 1676.8635735869068 -811.4883473171304 1693.94855798583 -811.490252350457 1711.0335460305214 C-811.4926951089525 1733.0507816265376 -811.4886252235749 1755.067999579398 -811.4730423465371 1777.0852303504944 C-811.4649912269808 1788.7291694243465 -811.4623912276727 1800.373079121397 -811.4676847041119 1812.0170199498534 C-811.4706614192739 1819.7946793074943 -811.4663607006814 1827.5723126980834 -811.4561361267697 1835.3499658480287 C-811.4505096376149 1839.7813325408097 -811.4480043506768 1844.2126393299395 -811.4543027058244 1848.6440064907074 C-811.4599699579484 1852.6800217749033 -811.4563486895345 1856.715921002491 -811.4455039314926 1860.7519247233868 C-811.4432079165477 1862.198324516739 -811.444207951369 1863.6447345512015 -811.4490264765918 1865.091128140688 C-811.5176851340088 1887.3938009939684 -807.0268800775514 1905.1153094464262 -791.1875 1921.25 C-790.8794140625 1921.57033203125 -790.8794140625 1921.57033203125 -789.3203125 1923.19140625 C-777.6924203977944 1934.3451997471802 -761.7390972088243 1938.7427208754434 -745.9850283265114 1938.6260474920273 C-745.4514441855799 1938.6281509676132 -745.4514441855799 1938.6281509676132 -742.7511850481387 1938.6387958289124 C-739.1858864584749 1938.6492102666366 -735.6209805456472 1938.6383384484707 -732.0556879043579 1938.6275234222412 C-729.4584999382837 1938.6306540362175 -726.8613132829698 1938.6350986799944 -724.2641295492649 1938.6407365202904 C-718.605143580626 1938.6508921415543 -712.9462443599077 1938.6499389402834 -707.2872565463185 1938.6416858881712 C-698.8155383138649 1938.6293866355409 -690.3438901948896 1938.6344434729062 -681.8721703367482 1938.6428338133846 C-667.4326011359751 1938.6566264455687 -652.9930636445163 1938.6561873824812 -638.5534915924072 1938.64799118042 C-623.9213318612364 1938.6397362594244 -609.2891929988191 1938.637997325708 -594.6570320129395 1938.6442031860352 C-594.1948728556491 1938.6443969449747 -594.1948728556491 1938.6443969449747 -591.8560674233013 1938.6453774826368 C-588.0914368764052 1938.6469773019935 -584.3268063535529 1938.6486234265521 -580.5621758527413 1938.6503283094498 C-545.4994041692474 1938.6661959589528 -510.4366464745784 1938.6672725627586 -475.373872756958 1938.6588859558105 C-474.8543977270724 1938.6587617626496 -474.8543977270724 1938.6587617626496 -472.2255392424995 1938.6581332699861 C-471.18492789575714 1938.657884481207 -470.1443165490148 1938.657635692428 -469.0721715250984 1938.6573793645948 C-437.37980249538646 1938.649812307478 -405.687439247405 1938.6478544798192 -373.9950695037842 1938.6514472961426 C-371.8734770112487 1938.6516797342892 -369.75188451860697 1938.6519112032406 -367.6302920258604 1938.6521417060867 C-359.10465485700786 1938.6530730934037 -350.57901769119394 1938.65402909246 -342.0533805291634 1938.6550209973939 C-318.2200375406369 1938.6577721405115 -294.38669453200885 1938.6594838560422 -270.5533514022827 1938.66037940979 C-270.01067553097414 1938.6603998784553 -270.01067553097414 1938.6603998784553 -267.2644067276851 1938.6605034623062 C-232.6758586006854 1938.661731453376 -198.08731248736785 1938.6583498182144 -163.49876499176025 1938.6518306732178 C-162.37677500133577 1938.6516199261987 -161.2547850109113 1938.6514091791796 -160.09879532380728 1938.651192045887 C-141.8779813067581 1938.647757131112 -123.65716733386967 1938.644098774971 -105.43635336437728 1938.6404215248767 C-33.17134913549262 1938.62585283629 39.09363842092216 1938.626528072728 111.358642578125 1938.64111328125 C129.56903551294045 1938.644776807786 147.77942845171629 1938.6484099418612 165.989821434021 1938.6518306732178 C167.11107880269356 1938.652042017699 168.23233617136611 1938.65225336218 169.38757103605894 1938.6524711110396 C203.93890037876145 1938.6589390541758 238.49022833506228 1938.6616826015284 273.04155826568604 1938.66037940979 C274.1261282267799 1938.6603386568613 275.21069818787396 1938.660297903933 276.32813390536467 1938.6602559160674 C300.13553599079546 1938.6593185045335 323.9429379294661 1938.6574176371887 347.75033986978815 1938.6546479012468 C356.26870734248973 1938.653660461885 364.78707482058144 1938.6527212221044 373.3054423002177 1938.6517957678298 C375.42462122502343 1938.6515636025883 377.5438001493919 1938.6513274115623 379.66297907329863 1938.651087179198 C411.3468200973259 1938.6475053852419 443.0306546073082 1938.6505577114576 474.7144948191708 1938.6581332699861 C475.7533620835013 1938.658381656308 476.79222934783206 1938.6586300426302 477.8625774383545 1938.6588859558105 C478.89953114973036 1938.659134002833 479.93648486110624 1938.6593820498556 481.00486141222063 1938.6596376134548 C515.9668185855878 1938.6679093114863 550.9287589720989 1938.6648745052653 585.8907137438655 1938.6490437239408 C589.644019461846 1938.6473866390975 593.3973251969344 1938.6457765291439 597.1506309509277 1938.6442031860352 C598.071764993007 1938.643812565595 598.9928990350861 1938.6434219451548 599.9419462299556 1938.643019487732 C614.535119879989 1938.6370992966013 629.1282726776544 1938.6412252475357 643.7214444477286 1938.6495102035697 C658.0662543302255 1938.6574406305244 672.4110289845262 1938.6546702608757 686.7558343934361 1938.640467940364 C695.1683281548171 1938.6324569441667 703.5807253834266 1938.632638013445 711.9932145531347 1938.6449127314263 C718.2355527142172 1938.653104460047 724.477780254675 1938.6456846492065 730.7201070599258 1938.632143907249 C733.2320471662124 1938.6291172659385 735.743999593793 1938.6311342720337 738.2559299431741 1938.6387617215514 C759.6881322628124 1938.6992328853257 776.9893437123619 1936.9539602436525 793.8125 1922.25 C794.41578125 1921.7408203125 795.0190625 1921.2316406250002 795.640625 1920.70703125 C805.6879382210982 1911.5422522983226 811.5548036003047 1898.4999694967782 813.8125 1885.25 C813.9027872464976 1883.147628867935 813.9406212478439 1881.0427189739507 813.9424518346786 1878.9384108185768 C813.9459802538158 1877.6550201955438 813.9495086729526 1876.3716295725108 813.9531440138817 1875.0493483245373 C813.9520228818792 1873.6243679393679 813.9508096005993 1872.1993876243555 813.9495143890381 1870.7744073867798 C813.9517708568083 1869.2549850343557 813.954462361195 1867.735563276463 813.9575502276421 1866.216142386198 C813.9647917653274 1862.0206220123182 813.9657795016356 1857.825119518578 813.9657729994506 1853.62959374208 C813.9668415561168 1849.0726796007543 813.9736311367628 1844.5157734311847 813.9796797037125 1839.9588636755943 C813.990760108406 1830.911607342548 813.9964051323345 1821.8643548919054 814.0003885799088 1812.8170929679181 C814.0053955425392 1801.983904356714 814.0161227124854 1791.1507232823942 814.0268703158945 1780.3175391191617 C814.0525073694271 1754.1310551481624 814.067537092873 1727.9445682460037 814.0803807834163 1701.7580753280781 C814.0846347725601 1693.0857014459834 814.0892004789748 1684.4133277771966 814.093964099884 1675.7409541606903 C814.1192230496877 1629.6406188110848 814.1412736701809 1583.5402831089941 814.1536922454834 1537.4399423599243 C814.1564303904061 1527.4276019208194 814.1592002997477 1517.4152614909053 814.1620306482073 1507.402921077446 C814.162408697528 1506.0626993633236 814.162784991332 1504.7224776487046 814.1631595308427 1503.3822559335968 C814.175187768039 1460.3456464088586 814.2048731359528 1417.3090773308495 814.2465746437665 1374.2724868605146 C814.2900714209159 1329.3697320063252 814.3178526819552 1284.4669974384774 814.3231669594534 1239.5642204682808 C814.3239074197163 1233.3180052463426 814.3248181053696 1227.0717900592554 814.3258247375488 1220.825574874878 C814.3260153522251 1219.5962473710488 814.326205966901 1218.3669198672194 814.3264023577794 1217.1003400147893 C814.3299173310279 1197.3081388739156 814.3502216626248 1177.515988901886 814.3766213748604 1157.7238065591082 C814.4027532402906 1137.8326359188982 814.4104988057229 1117.9415244623945 814.3995200842619 1098.0503391101956 C814.3935392956082 1086.231062491049 814.4014760251584 1074.4119864874965 814.4293509214185 1062.5927401932422 C814.4465961676997 1054.696657035763 814.4456594638982 1046.8007107595477 814.4299832344986 1038.9046246928629 C814.4215684382984 1034.4061986052961 814.4209998572951 1029.908155493917 814.442594692111 1025.4097648337483 C814.4621101560192 1021.3115477002009 814.4582987622143 1017.2140179325668 814.436441205442 1013.1158186607063 C814.432599805351 1011.6480701308351 814.437008072332 1010.1802687465192 814.4510282203555 1008.7125821523368 C814.6180120273839 990.0095963474992 807.7046273255273 975.8359385924082 794.8080470561981 962.6733667850494 C792.8416838846676 960.6920803634919 790.8666063734363 958.7197388758132 788.89111328125 956.74755859375 C787.4671354564189 955.3115948513932 786.0439751911833 953.8748199853023 784.6215667724609 952.4373016357422 C780.7732285344348 948.5537825342469 776.9121505644434 944.6831805036982 773.0474648475647 940.8159365653992 C770.6278947284218 938.3935139306893 768.2111991373956 935.9682611764033 765.7954978942871 933.5419807434082 C757.3516279590758 925.0611544533135 748.8975379793878 916.5906738206875 740.43359375 908.1298828125 C732.5707150866965 900.2694049129204 724.7303994325976 892.3869139644671 716.9003907442093 884.4937051534653 C710.1551981322395 877.6960355728909 703.3944947299456 870.9140555611011 696.6217383146286 864.1438490152359 C692.5866308270085 860.109756463934 688.5578382999868 856.0698380489034 684.5445899963379 852.013988494873 C680.7652541449268 848.1956318236605 676.9667927460798 844.3973499147633 673.1534748077393 840.6129398345947 C671.7664034295296 839.2300155477569 670.3859732953026 837.840388565595 669.0132236480713 836.4432468414307 C658.1802855793171 825.4305711206543 644.9091192887049 814.5156362361959 628.6248146928847 813.9978216588497 C627.0376248947898 813.9866438855602 625.4503351196831 813.9862886291376 623.8631282448769 813.9946990013123 C623.4211179357103 813.9930482225586 623.4211179357103 813.9930482225586 621.184277886292 813.984694281593 C618.2131605285786 813.9760459502877 615.2422415342553 813.9816463091597 612.2711191177368 813.9871444702148 C610.1138456045301 813.9838451225046 607.9565732805711 813.9796725420827 605.7993029654026 813.9747042655945 C599.8420651521101 813.9635523324364 593.8848847395532 813.9649191864091 587.9276398168877 813.9682594463229 C581.457497669631 813.9697191472192 574.9873718672022 813.9596816260268 568.5172366499901 813.9511094093323 C557.1675722026514 813.9373437692666 545.8179206557629 813.9317535781759 534.4682483673096 813.9308395385742 C522.2882987535568 813.929834999934 510.10836244386724 813.9245435977873 497.92841720581055 813.9140243530273 C497.1594687668146 813.9133640859975 496.3905203278189 813.9127038189677 495.5982704209746 813.9120235438459 C492.4665083219536 813.9093235679838 489.3347462464001 813.9065982363747 486.20298419872415 813.9038393327501 C449.1176473900639 813.8712273338549 412.0323131230075 813.8584612070781 374.94696441170527 813.8489435934462 C356.48152938674343 813.8441778242557 338.0160958146091 813.8367710051875 319.5506619014777 813.8288693986833 C260.32430028626914 813.8035397722972 201.09793873790068 813.7819720934308 141.87157179537462 813.7751884828322 C139.04062270873783 813.7748640020973 136.20967362295096 813.7745328822425 133.37872453732416 813.7741997130215 C127.70117854597106 813.7735321151001 122.02363255385626 813.7728711535365 116.34608656167984 813.772210597992 C109.6990105438224 813.7714367971334 103.05193452665026 813.7706575849099 96.40485851059202 813.7698684697971 C94.50240887216728 813.7696436306287 92.5999592335047 813.7694207947807 90.69750959461089 813.7691999608651 C29.59683454254855 813.7621010238158 -31.503793472984853 813.7319443100218 -92.60445057263132 813.6853244742379 C-136.50665457724358 813.6518406360415 -180.4088497037801 813.6208908712858 -224.31106662750244 813.6118545532227 C-225.21396443276262 813.6116675815592 -226.1168622380227 813.6114806098958 -227.04712058283621 813.6112879724242 C-246.86820983592008 813.6072498348622 -266.6892989463486 813.6049377811146 -286.51038858728134 813.6042308008764 C-293.6028623045429 813.6039584553776 -300.6953360126254 813.6035404671145 -307.7878097175271 813.6030442961492 C-309.552248057488 813.6029211754694 -311.3166863979129 813.6028045342287 -313.0811247387319 813.6026943973266 C-341.1946123935156 813.6008548995596 -369.30805094195784 813.5809200762301 -397.4215224409709 813.5517794238403 C-425.740030657053 813.5225437128279 -454.0584786355073 813.5124660683666 -482.37699927037465 813.528618508717 C-486.2916019767963 813.530849215244 -490.2062047659317 813.5328705501634 -494.1208076477051 813.5347671508789 C-494.50448666128125 813.5349571186885 -494.50448666128125 813.5349571186885 -496.44613500271225 813.5359184709378 C-508.5886769021806 813.5413823586491 -520.7311072892135 813.5267128537353 -532.873624941305 813.5036204147618 C-544.8183190300763 813.4813241107317 -556.7628557424975 813.4804909111288 -568.7075523159001 813.50236078538 C-575.0952333850339 813.5131698249447 -581.4825272985512 813.5144853303814 -587.8701766654849 813.4893433451653 C-593.6849890830417 813.4666468530918 -599.4990997500822 813.4717335969563 -605.3138879947364 813.4986774921417 C-607.400787681891 813.5035358606142 -609.4877415985554 813.4984112790562 -611.5745815001428 813.4818845391273 C-627.162147103479 813.3665858586137 -642.3148704498606 815.0333456658145 -654.1875 826.25 Z " fill="#000000" transform="translate(1248.1875,248.75)"/>
<path d="M0 0 C2.497625433655685 0.13337800795238763 4.995425851935124 0.2625616026498392 7.49334716796875 0.3902587890625 C11.661131900510327 0.6052022536764525 15.827508009544772 0.8390676062365401 19.99383544921875 1.0806884765625 C21.10871337890626 1.1429663085937136 22.223591308593768 1.2052441406249272 23.37225341796875 1.2694091796875 C68.4891156827257 4.137978753998141 113.60269023910769 11.356850831780548 157.49383544921875 22.0806884765625 C158.16753803253187 22.244166526794515 158.84124061584475 22.407644577026304 159.53535842895508 22.57607650756836 C188.52073969907906 29.611848693274396 216.84254641312646 38.50441694811116 244.93133544921875 48.5181884765625 C245.4413711547852 48.69927658081065 245.4413711547852 48.69927658081065 248.0224609375 49.615692138671875 C264.5532991915179 55.498551013003635 280.71933461595086 61.84235150434847 296.68133544921875 69.1431884765625 C298.94543888291196 70.16060412677507 301.20976641944253 71.17752119971738 303.47430419921875 72.1939697265625 C314.7237347708144 77.28021280679991 325.79150331488154 82.60759759194798 336.66180419921875 88.4595947265625 C341.557985656146 91.09477207071268 346.5032128174232 93.62999787244826 351.45062255859375 96.1673583984375 C389.67078377862117 115.80421614808347 426.1961124880272 138.4930226376598 460.68133544921875 164.1431884765625 C461.71000732421885 164.90115722656242 462.7386791992187 165.65912597656256 463.79852294921875 166.4400634765625 C479.36858013824235 178.00156935675886 494.83598574008533 189.83918819240785 509.16961669921875 202.9127197265625 C511.67592288965966 205.13838198899134 514.2505793790676 207.23840408372394 516.8688354492188 209.3306884765625 C526.4182567111593 217.06246421421315 535.314471149898 225.6274321794449 543.9039916992188 234.4049072265625 C546.4795821690375 236.9238913124293 549.2334728680926 239.2178510593833 552.0172729492188 241.5025634765625 C553.6813354492185 243.14318847656227 553.6813354492185 243.14318847656227 555.6813354492188 247.1431884765625 C541.8213354492189 261.0031884765626 527.9613354492187 274.8631884765625 513.6813354492188 289.1431884765625 C510.45463254332935 287.5298370236178 508.8044534729281 286.53273708858114 506.31805419921875 284.1588134765625 C505.6860107421876 283.5602050781249 505.0539672851562 282.96159667968755 504.40277099609375 282.3448486328125 C503.7315722656249 281.7008007812501 503.06037353515626 281.0567529296875 502.36883544921875 280.3931884765625 C500.93144023011155 279.03109872749224 499.49393768185973 277.66912223374493 498.05633544921875 276.3072509765625 C496.5979906070377 274.9192422351771 495.1396570664215 273.53122161942247 493.68133544921875 272.1431884765625 C486.13438029753434 264.9837209454299 478.61190381878714 257.9061424995905 470.47821044921875 251.4088134765625 C467.2130187074406 248.7638257527758 464.04381497297027 246.02007002833443 460.86883544921875 243.2681884765625 C453.9778621503651 237.329436002771 446.9049845193522 231.67100414198148 439.68133544921875 226.1431884765625 C439.3193505859376 225.86555664062507 439.3193505859376 225.86555664062507 437.48748779296875 224.4605712890625 C387.4310578710267 186.1852158879051 333.03033973031825 154.89568220907358 276.05633544921875 128.2056884765625 C275.0043798828124 127.7104467773438 273.9524243164062 127.21520507812511 272.86859130859375 126.7049560546875 C254.98305065339514 118.42811468504283 236.4940313821512 111.84639384867137 217.86883544921875 105.4556884765625 C215.72610961011287 104.71588179229389 213.58353090271953 103.97564882548977 211.44110107421875 103.2349853515625 C205.52495103510068 101.19312825841553 199.6067374988702 99.15804578150482 193.68133544921875 97.1431884765625 C192.51129974365222 96.74016006469719 191.3412640380859 96.33713165283211 190.13577270507813 95.92189025878906 C181.59008447771703 93.01388015255884 173.01484430290293 90.50533918523433 164.25946044921875 88.2877197265625 C163.92712150573743 88.20315143585208 163.92712150573743 88.20315143585208 162.2452850341797 87.77518463134766 C157.14612352441827 86.47957451945217 152.0402552655214 85.21220895462807 146.93133544921875 83.9556884765625 C146.17429824829105 83.76898967742909 145.41726104736335 83.58229087829591 144.6372833251953 83.38993453979492 C120.72480068276491 77.50635486527972 96.79983469114313 72.75291259217533 72.43133544921875 69.2056884765625 C71.74197402954087 69.1043976211547 71.05261260986344 69.00310676574713 70.34236145019531 68.89874649047852 C52.16533163558938 66.23215389431493 34.01646897189357 64.28915857198558 15.68133544921875 63.1431884765625 C15.243305969238236 63.1146125793457 15.243305969238236 63.1146125793457 13.026611328125 62.970001220703125 C-75.42902929228671 57.22836948916847 -163.0464235418449 65.00266267324605 -360.87005615234375 129.5468292236328 C-366.06858485564135 132.03618582332206 -371.3022502907918 134.44323220880074 -376.54595947265625 136.8355712890625 C-381.81663340517844 139.24344948098837 -387.070617131521 141.68643662812156 -392.31866455078125 144.1431884765625 C-393.24517822265625 144.57631347656252 -394.17169189453125 145.00943847656254 -395.12628173828125 145.4556884765625 C-409.80247326329334 152.37951561817204 -423.586944994443 160.54888776922166 -437.3597869873047 169.086181640625 C-441.6509402720411 171.74305285868127 -445.97915890708157 174.33052903946714 -450.32598876953125 176.8948974609375 C-472.85159580087384 190.20342618821542 -494.56391667394394 205.21853002099192 -515.3186645507813 221.1431884765625 C-516.3254223632813 221.90631347656245 -517.3321801757812 222.6694384765624 -518.3694458007813 223.4556884765625 C-534.6453420795542 235.82857622796473 -550.5552069732828 248.79691598856698 -565.5881958007813 262.6588134765625 C-567.7434129209566 264.6197835601556 -569.9196399904386 266.5417792650087 -572.1194458007813 268.4517822265625 C-576.4040991034697 272.1891902280836 -580.5570804260248 276.0558131994703 -584.6936645507813 279.9556884765625 C-585.4039379882812 280.6227783203126 -586.1142114257813 281.28986816406245 -586.8460083007813 281.9771728515625 C-591.9761546301462 286.80067855592733 -591.9761546301462 286.80067855592733 -594.3186645507813 289.1431884765625 C-598.0376548228135 288.8594420990098 -599.8836351630955 286.96735459293814 -602.4605102539063 284.4212646484375 C-603.2642658996582 283.63342086792 -604.0680215454101 282.84557708740226 -604.8961334228516 282.0338592529297 C-605.7535765075684 281.17661758422855 -606.6110195922852 280.3193759155274 -607.4944458007813 279.4361572265625 C-608.3789994812012 278.5592170715331 -609.2635531616211 277.68227691650395 -610.1749114990234 276.7787628173828 C-612.0423332662085 274.92214940509007 -613.9061382905403 273.06255390651586 -615.7651977539063 271.1976318359375 C-618.1505213524063 268.80639867489367 -620.5536247103196 266.43395698868744 -622.9619874954224 264.0659589767456 C-625.2550313156427 261.80493424155907 -627.5299159930153 259.5257912957252 -629.8069458007813 257.2486572265625 C-630.2407279205322 256.8230727386474 -630.2407279205322 256.8230727386474 -632.4359283447266 254.6693572998047 C-633.2239231872559 253.87205703735344 -634.0119180297852 253.07475677490243 -634.8237915039063 252.2532958984375 C-635.5245429992676 251.5545988464355 -636.2252944946289 250.85590179443352 -636.9472808837891 250.1360321044922 C-638.3186645507813 248.1431884765625 -638.3186645507813 248.1431884765625 -638.1623382568359 246.0320587158203 C-636.9019311607814 243.21017931386518 -634.9668353447913 241.47385787228222 -632.7561645507813 239.3306884765625 C-631.8486645507812 238.4489697265626 -630.9411645507812 237.5672509765625 -630.0061645507813 236.6588134765625 C-627.1652719873355 233.99960590263936 -624.2615323779905 231.43927260099917 -621.3030395507813 228.9127197265625 C-619.1037864192192 226.95157470963795 -617.0621132422987 224.87881665455643 -615.0061645507813 222.7681884765625 C-610.9563836079858 218.66283592563263 -606.6366168457562 215.06146503590867 -602.1389770507813 211.4595947265625 C-599.274814217911 209.10717289845707 -596.5438067429408 206.6548223773134 -593.8186645507813 204.1431884765625 C-584.126241919356 195.24590094078462 -573.7045816053904 187.208230211706 -563.3186645507813 179.1431884765625 C-562.6609204101562 178.63239746093745 -562.0031762695312 178.1216064453124 -561.3255004882813 177.5953369140625 C-545.8812130963047 165.63062166958616 -530.1928873971184 154.17947380017472 -513.7405395507813 143.6353759765625 C-509.93547947876334 141.19605568792508 -506.15918781402945 138.7181136715467 -502.39678955078125 136.2135009765625 C-490.3395543255044 128.20552025287634 -478.14648259918226 120.5207168599386 -465.69366455078125 113.1431884765625 C-465.0408752441406 112.75612731933597 -464.3880859375 112.36906616210945 -463.71551513671875 111.97027587890625 C-459.2643981921382 109.33600733162893 -454.79726028103687 106.73043495558363 -450.31866455078125 104.1431884765625 C-449.6739923095703 103.76973297119139 -449.0293200683593 103.39627746582028 -448.3651123046875 103.01150512695313 C-438.25923221607695 97.17587163018834 -427.9632993714067 91.87750694830629 -417.44366455078125 86.8306884765625 C-415.9039085490483 86.08842628928642 -414.36419570804355 85.34607456295703 -412.82452392578125 84.6036376953125 C-408.32778713723906 82.43917023491508 -403.8244353684212 80.28877484297323 -399.31866455078125 78.1431884765625 C-398.6890783691406 77.84289733886726 -398.05949218750004 77.5426062011718 -397.41082763671875 77.23321533203125 C-316.21398447002457 38.532973432635345 -228.5376271214111 14.566057711082067 -83.31866455078125 -0.8568115234375 C-82.53227600097671 -0.8991290283202034 -81.74588745117171 -0.9414465332031341 -80.9356689453125 -0.98504638671875 C-53.89462107363806 -2.3983071535019462 -27.023117699656268 -1.4475937608308413 0 0 Z " fill="#BC02F7" transform="translate(1303.3186645507813,1160.8568115234375)"/>
<path d="M0 0 C0.769711303710892 0.044674072265706855 1.539422607421784 0.08934814453118634 2.33245849609375 0.1353759765625 C80.22048359922519 4.708168460904062 156.30572831466952 21.58726675314233 266.171875 65.66015625 C272.7052497070813 68.88044717446132 279.30515224932196 71.93806775141002 285.92529296875 74.97406005859375 C306.19677644452713 84.28866296556293 325.0338420193284 95.3220587578553 344 107 C344.8543261718751 107.52480957031253 345.70865234375015 108.04961914062505 346.5888671875 108.59033203125 C355.6262048983285 114.14980683771569 364.49817541411494 119.92800641553436 373.29638671875 125.85791015625 C374.84844931710745 126.89840153416867 376.41006711223645 127.92460379632848 377.97265625 128.94921875 C391.55633353362555 137.8617552896003 404.608320333095 147.50945222878136 417.296875 157.6484375 C419.0628307711445 159.04986111655035 420.8417568285274 160.43315378616853 422.625 161.8125 C428.830165962338 166.6201510527785 434.82206214593316 171.52640106963736 440.6015625 176.84765625 C443.02093865168945 179.01879022325875 445.5173456409716 181.04089841452537 448.0625 183.0625 C458.1264252243411 191.20265064508044 467.4498159223897 200.3331424822884 476.520751953125 209.556396484375 C478.2274402474825 211.2219597595913 480.0282503998169 212.6592102718755 482 214 C480.5287738433899 217.40353022398085 478.6305748706129 219.61255749055636 476.00927734375 222.2177734375 C475.18857757568367 223.03832214355475 474.3678778076171 223.8588708496095 473.5223083496094 224.70428466796875 C472.6358059692384 225.58046447753895 471.7493035888672 226.45664428710938 470.8359375 227.359375 C470.3823335266113 227.81156402587885 470.3823335266113 227.81156402587885 468.0868225097656 230.09991455078125 C465.6811558061745 232.49796457925686 463.26954264088454 234.88994618257811 460.85662841796875 237.28070068359375 C458.3929765616913 239.72385170877055 455.9350142280971 242.17271206448345 453.4765625 244.62109375 C448.6562642747649 249.419337882312 443.8303015656993 254.21182732282546 439 259 C435.1205028418947 257.2046789118624 432.7303870586504 254.89932945360215 429.75 251.8125 C425.99211243674404 247.97050852078928 422.17063265297884 244.28983214174787 418.08203125 240.80078125 C415.56846421581645 238.62675798028408 413.1322377114966 236.37609512048698 410.6875 234.125 C406.276468265542 230.10619406956357 401.7626464241903 226.27134676397213 397.1171875 222.52734375 C394.7876205785035 220.64952083911407 392.48742603456344 218.7397588316801 390.1953125 216.81640625 C359.35470889377257 191.00129948378162 325.54747494028766 169.45069183116652 291 149 C290.2834423828126 148.57122558593755 289.566884765625 148.1424511718751 288.82861328125 147.70068359375 C275.0813080001103 139.49498287354595 260.49890868766215 132.7802937082788 246.03167724609375 125.95819091796875 C244.701482231299 125.3308369498352 243.37175153970406 124.70249729143097 242.04254150390625 124.07305908203125 C173.01822754595992 91.39512538831832 98.51870938712227 72.50592198173604 -116.2783203125 67.44580078125 C-120.07860482193928 68.01170512633189 -123.88314976361517 68.53151547689663 -127.69071960449219 69.04550170898438 C-153.8709320656592 72.59314346300471 -179.4800252852035 77.14339483689787 -205 84 C-205.8537622070312 84.22921142578116 -206.7075244140624 84.45842285156255 -207.587158203125 84.694580078125 C-298.5801561067167 109.23154868429583 -384.40810426331154 150.66218122934515 -458 210 C-458.941015625 210.75796874999992 -459.88203124999995 211.51593750000006 -460.8515625 212.296875 C-463.58134720007286 214.5153167447279 -466.2946198628928 216.75186721000955 -469 219 C-469.50885742187506 219.4224902343749 -470.01771484375 219.84498046875 -470.5419921875 220.2802734375 C-477.63221818729653 226.18089312973188 -484.5315779653736 232.2456242540984 -491.296875 238.515625 C-493.51844088856456 240.55741099006786 -495.7681901763805 242.54144283349547 -498.0625 244.5 C-503.3166384454728 249.04321907864346 -508.1320374776735 254.05150133300276 -513 259 C-516.4035302239807 257.5287738433899 -518.6125574905564 255.63057487061315 -521.2177734375 253.00927734375 C-522.0383221435546 252.18857757568367 -522.8588708496094 251.3678778076171 -523.7042846679688 250.52230834960938 C-524.5804644775391 249.6358059692384 -525.4566442871094 248.74930358886718 -526.359375 247.8359375 C-527.2637530517578 246.92872955322264 -528.1681311035156 246.02152160644528 -529.0999145507813 245.08682250976563 C-531.497964579257 242.6811558061745 -533.8899461825779 240.26954264088454 -536.2807006835938 237.85662841796875 C-538.7238517087706 235.39297656169128 -541.1727120644836 232.9350142280971 -543.62109375 230.4765625 C-548.4193378823121 225.65626427476468 -553.2118273228253 220.8303015656993 -558 216 C-556.5229338761452 212.8973481218843 -555.095836372626 210.90265925566814 -552.55078125 208.57421875 C-551.86693359375 207.94193359375004 -551.1830859375 207.30964843750007 -550.478515625 206.658203125 C-549.76373046875 206.00787109375005 -549.0489453125 205.3575390625001 -548.3125 204.6875 C-546.9116741541739 203.40092130378707 -545.5119271541573 202.11316693618414 -544.11328125 200.82421875 C-543.4241162109375 200.19008056640632 -542.734951171875 199.55594238281242 -542.02490234375 198.902587890625 C-540.0752770004904 197.07072988483492 -538.1861399418148 195.19443742922408 -536.30859375 193.2890625 C-533.5960819358405 190.55030928544738 -530.7783216669595 188.07950254368734 -527.75 185.6875 C-523.933587734326 182.61879299453972 -520.2746199926496 179.45853860878037 -516.6875 176.125 C-510.96777284328437 170.86837575227992 -504.9270308435632 166.1218359298407 -498.78076171875 161.38232421875 C-497.05223588721105 160.04054834019598 -495.3383092706358 158.68243137919126 -493.62890625 157.31640625 C-479.26602678207337 145.85570826260096 -464.2536800752357 135.23857803614465 -449 125 C-448.2718408203125 124.51096191406259 -447.543681640625 124.02192382812495 -446.79345703125 123.51806640625 C-424.1053186644426 108.3587707135207 -400.626720793795 95.01375429655536 -376.3115234375 82.69921875 C-373.37442671695726 81.19212695001647 -370.4673303815217 79.64485918706396 -367.5703125 78.0625 C-320.8341413516299 52.62097658932885 -270.25426079630324 35.34936988666868 -218.828125 22.2431640625 C-214.5468367661856 21.149455045682544 -210.28932074872864 19.985433138741882 -206.03125 18.8046875 C-187.68987997474164 13.865668546408415 -169.07546581337874 10.939194470190387 -150.3125 8.125 C-149.0258544921876 7.931368713379015 -147.73920898437495 7.737737426757803 -146.41357421875 7.538238525390625 C-98.24499740272881 0.3550095491475531 -48.663167985569316 -2.9122010250653148 0 0 Z " fill="#BC02F7" transform="translate(1300,1285)"/>
<path d="M0 0 C31.69411014252887 -0.5665416798938168 63.4470418437063 0.11860578653795528 94.87774658203125 4.547607421875 C97.48931705087216 4.909832316927805 100.10034271560403 5.257739072469576 102.71563720703125 5.590576171875 C129.86287446769393 9.05876066036899 156.08936536833926 14.786001161649665 182.46856689453125 22.045654296875 C183.20653503417952 22.248661499023456 183.94450317382825 22.45166870117191 184.704833984375 22.66082763671875 C194.02907647186248 25.23997639778304 203.27006532411133 28.048747812388 212.46856689453125 31.045654296875 C213.6596606445314 31.4309228515624 214.85075439453112 31.816191406250027 216.07794189453125 32.213134765625 C232.66872896689074 37.651471219530094 248.7260408835309 44.11100251459334 264.71856689453125 51.108154296875 C265.5658535766602 51.47729949951167 266.4131402587891 51.84644470214835 267.2861022949219 52.226776123046875 C278.9180501590813 57.315143379942356 290.1974605136263 62.898603063352084 301.3731689453125 68.92037963867188 C304.31625429373344 70.50088102302311 307.2772332940899 72.04559616378333 310.23809814453125 73.592529296875 C323.5399671316409 80.61519518844852 336.3242797454759 88.14988955225522 348.90753173828125 96.385986328125 C352.19048003330636 98.51348704400493 355.5142554629256 100.57118433786059 358.84014892578125 102.630615234375 C379.7092414518215 115.59507304258659 399.30952032816504 130.64253843366896 417.89434814453125 146.693603515625 C419.5136739729228 148.08439545694523 421.14568906161185 149.45894202094996 422.78106689453125 150.830810546875 C433.7650729056286 160.0819868014346 444.39038925976 169.81082105120072 454.46856689453125 180.045654296875 C452.99734073792115 183.44918452085585 451.0991417651444 185.65821178743136 448.47784423828125 188.263427734375 C447.6571444702149 189.08397644042975 446.8364447021486 189.9045251464845 445.9908752441406 190.74993896484375 C445.54762405395513 191.18802886962885 445.54762405395513 191.18802886962885 443.30450439453125 193.405029296875 C442.85090042114257 193.85721832275385 442.85090042114257 193.85721832275385 440.5553894042969 196.14556884765625 C438.14972270070575 198.54361887613186 435.7381095354158 200.9356004794529 433.3251953125 203.32635498046875 C430.86154345622253 205.76950600564555 428.4035811226281 208.21836636135845 425.94512939453125 210.666748046875 C421.12483116929616 215.464992179187 416.29886846023055 220.25748161970046 411.46856689453125 225.045654296875 C408.4903997183469 223.6213301339983 406.4892500717699 222.26662164748973 404.21856689453125 219.858154296875 C401.1947843509265 216.7448729041996 398.04501504773725 213.88391853689404 394.75762939453125 211.053466796875 C392.53339549363955 209.10251760735582 390.3578423068607 207.10499676547192 388.18951416015625 205.09228515625 C382.1448145052709 199.4883548759767 375.93694575157406 194.1590800070469 369.46856689453125 189.045654296875 C368.8267749023439 188.53663574218763 368.1849829101561 188.02761718750003 367.52374267578125 187.503173828125 C339.46962631404085 165.30743611988737 309.9193459888911 146.08482744914159 278.46856689453125 129.045654296875 C277.7009301757812 128.62493652343755 276.93329345703114 128.2042187500001 276.14239501953125 127.770751953125 C242.59378524235171 109.4320398296502 207.20274776561905 95.5682492602316 170.46856689453125 85.045654296875 C170.09449707031263 84.93759460449223 170.09449707031263 84.93759460449223 168.20147705078125 84.3907470703125 C127.7053399759784 72.72532280923951 86.04639422058676 65.50418056452895 43.88458251953125 64.160400390625 C40.66452199868809 64.05223655094551 37.451105320541046 63.89870889501162 34.23419189453125 63.721435546875 C-45.65608140365134 59.360939533239616 -129.37695903921394 75.87487650481853 -228.53143310546875 121.045654296875 C-229.3971997070313 121.46121582031242 -230.26296630859372 121.87677734375006 -231.15496826171875 122.304931640625 C-270.25632092363367 141.17883762342422 -307.6312639192058 166.16039995391816 -340.53143310546875 194.483154296875 C-343.44908756814925 196.97531748374786 -346.4166436299322 199.39082363176954 -349.40643310546875 201.795654296875 C-353.1100504986232 204.80785831272556 -356.534691925698 207.92582890200447 -359.84783935546875 211.358154296875 C-362.3340015776248 213.85008487685514 -365.003352164587 216.11339218129638 -367.67987060546875 218.397216796875 C-369.33586792975166 219.87154352862058 -370.799942374309 221.4005633622744 -372.28143310546875 223.045654296875 C-372.6526831054688 223.37565429687493 -372.6526831054688 223.37565429687493 -374.53143310546875 225.045654296875 C-378.359784777861 224.78595846887492 -380.22703131112087 222.71425249297909 -382.84100341796875 220.07666015625 C-383.2612881469727 219.65626213073733 -383.2612881469727 219.65626213073733 -385.38818359375 217.52879333496094 C-385.8372103881836 217.07202461242673 -385.8372103881836 217.07202461242673 -388.10955810546875 214.760498046875 C-388.57284515380854 214.29508857727046 -388.57284515380854 214.29508857727046 -390.9173583984375 211.93983459472656 C-393.3768329720132 209.4689230855995 -395.8271641195248 206.98913461013444 -398.27569580078125 204.50738525390625 C-400.7773536141585 201.9750017689662 -403.2875593228381 199.45112299327184 -405.79705810546875 196.926513671875 C-410.7169132305953 191.97451476887318 -415.62716064009805 187.0130848091219 -420.53143310546875 182.045654296875 C-419.5889210635205 180.9373726178635 -418.6451518030385 179.8301600448126 -417.70086669921875 178.723388671875 C-417.4381547546386 178.41504089355476 -417.4381547546386 178.41504089355476 -416.1086730957031 176.8546142578125 C-409.85144678050654 169.67810850041474 -402.7827197313504 163.19674571055384 -395.53143310546875 157.045654296875 C-394.5046132766406 156.15592656802392 -393.4786453461471 155.26521518085042 -392.45330810546875 154.373779296875 C-378.7197974359194 142.46366656354348 -364.4732560109203 131.39629236307883 -349.78143310546875 120.694580078125 C-347.7280474634588 119.18974428969887 -345.6891995143277 117.66801334730371 -343.65643310546875 116.135498046875 C-334.65484163028975 109.3743881459693 -325.28475859230025 103.34813277306807 -315.72088623046875 97.415283203125 C-312.6924378404925 95.52081448459626 -309.70812370146757 93.56400029688871 -306.71893310546875 91.608154296875 C-292.95820484740784 82.75622383847326 -278.9027436940165 74.35338605221273 -264.13201904296875 67.296630859375 C-261.50270631613216 66.03183566482835 -258.88278367995963 64.74862582778587 -256.2642364501953 63.46171569824219 C-226.63333612326846 48.901553936936125 -226.63333612326846 48.901553936936125 -211.53143310546875 43.045654296875 C-210.5538403320313 42.66634765625008 -209.57624755859388 42.287041015624936 -208.56903076171875 41.896240234375 C-181.73399770631931 31.570986083889238 -154.45966749161016 22.896046917721378 -126.53143310546875 16.045654296875 C-125.9938940429688 15.913767089843759 -125.9938940429688 15.913767089843759 -123.27362060546875 15.246337890625 C-82.99477821211576 5.632637759829322 -41.35509154586043 0.7458374557277239 0 0 Z " fill="#BC02F7" transform="translate(1244.5314331054688,1409.954345703125)"/>
<path d="M0 0 C0.7088031005860103 0.01484436035161707 1.4176062011717931 0.02968872070323414 2.14788818359375 0.04498291015625 C68.67330658184619 1.5721058999565685 135.47981474854123 19.11620436936869 195.01513671875 48.54150390625 C198.34027832160427 50.16627046403278 201.70193954493834 51.68985771924099 205.07958984375 53.201171875 C230.91710793308766 64.87092222711908 255.2917298378568 82.16470615607955 277.767578125 99.29833984375 C280.0508618873673 101.03876939577322 282.34570106594697 102.76324098356076 284.640625 104.48828125 C294.1131088631803 111.67099925626394 302.9001389481373 119.32294592931908 311.47412109375 127.55078125 C314.55438516594336 130.47629285520634 317.776519485069 133.2350013963828 321 136 C322.501127576631 137.31121022291518 324.00113090772606 138.62370865651133 325.5 139.9375 C326.1703124999999 140.5240234375001 326.84062500000005 141.11054687499995 327.53125 141.71484375 C328.01593749999984 142.13894531250003 328.5006250000001 142.56304687500005 329 143 C327.5287738433899 146.40353022398085 325.63057487061315 148.61255749055636 323.00927734375 151.2177734375 C322.18857757568367 152.03832214355475 321.36787780761733 152.8588708496095 320.5223083496094 153.70428466796875 C320.0790571594239 154.14237457275385 320.0790571594239 154.14237457275385 317.8359375 156.359375 C317.3823335266113 156.81156402587885 317.3823335266113 156.81156402587885 315.0868225097656 159.09991455078125 C312.6811558061745 161.49796457925686 310.26954264088454 163.8899461825779 307.85662841796875 166.28070068359375 C305.3929765616913 168.72385170877033 302.93501422809686 171.17271206448368 300.4765625 173.62109375 C295.6562642747649 178.419337882312 290.8303015656993 183.21182732282546 286 188 C283.02183282381566 186.57567583712353 281.0206831772384 185.22096735061473 278.75 182.8125 C275.74812445708153 179.72846786327545 272.65062848595335 176.85463513745708 269.38671875 174.05078125 C267.60611139115554 172.5207994768523 265.8401798219211 170.9737066429584 264.08203125 169.41796875 C195.41862870963314 108.99293098771841 106.18238678683679 70.98611321650401 15 64 C13.756054687499955 63.890429687500045 12.512109374999909 63.78085937500009 11.23046875 63.66796875 C-61.381650021345195 58.0594116873317 -136.41307482648904 72.6445164755969 -202 104 C-202.91023925781246 104.43167480468742 -203.82047851562493 104.86334960937506 -204.75830078125 105.30810546875 C-222.9648838268347 113.99583775489555 -240.2789197624636 124.00948050510897 -257.0625 135.1875 C-257.6216409301758 135.55923339843753 -258.18078186035154 135.93096679687505 -258.7568664550781 136.31396484375 C-280.160586825231 150.58758344220973 -303.00439871006165 166.96079927091728 -320.12109375 186.41015625 C-320.74113281250004 186.9348046875 -321.36117187499997 187.45945312499998 -322 188 C-325.7680164112503 187.66998398598616 -327.6153299841594 185.77408082920192 -330.233642578125 183.186279296875 C-331.05741897583005 182.37841476440417 -331.8811953735352 181.57055023193357 -332.7299346923828 180.7382049560547 C-333.60925155639643 179.8590895080565 -334.48856842041016 178.97997406005857 -335.39453125 178.07421875 C-336.3012809753418 177.17508255004896 -337.2080307006836 176.27594635009768 -338.1422576904297 175.3495635986328 C-340.0567554311857 173.44587494538473 -341.96764328503843 171.5391953499643 -343.873779296875 169.627197265625 C-346.3196322083845 167.17543502024614 -348.7832764549929 164.742450893159 -351.25217151641846 162.31392192840576 C-353.60268197028654 159.99542907986233 -355.9350352456679 157.6588190165403 -358.26953125 155.32421875 C-358.71425025939936 154.8876973724366 -358.71425025939936 154.8876973724366 -360.9647979736328 152.6786346435547 C-361.7728135681152 151.86131362915035 -362.58082916259764 151.043992614746 -363.413330078125 150.201904296875 C-364.1318464660644 149.48544235229497 -364.85036285400395 148.76898040771493 -365.5906524658203 148.0308074951172 C-367 146 -367 146 -366.8494110107422 143.8831329345703 C-365.5802230860039 141.0693601543644 -363.64567702840145 139.32825177562586 -361.4375 137.1875 C-360.98310546874995 136.74664062500005 -360.98310546874995 136.74664062500005 -358.68359375 134.515625 C-355.8511252452362 131.86044346132758 -352.9801643041666 129.2740362675163 -350.02734375 126.75390625 C-348.6215842338805 125.53774821004299 -347.24005266858444 124.2932349864368 -345.87890625 123.02734375 C-339.48711312559146 117.08825772715159 -332.6906748901988 111.81695502479761 -325.7265625 106.578125 C-322.4998054750339 104.15031031983767 -319.3136763685882 101.67931991145451 -316.1484375 99.171875 C-303.68747865110026 89.36789892925185 -290.716638849129 80.96104923886764 -277.103271484375 72.8662109375 C-273.98041372082275 70.98822142097151 -270.900262467374 69.05058994591354 -267.81640625 67.109375 C-259.90884596516855 62.236646405316606 -251.70522692722147 57.974696567041065 -243.4375 53.75 C-242.62808959960944 53.335808105468686 -241.81867919921865 52.9216162109376 -240.9847412109375 52.494873046875 C-165.79465547005202 14.131154869887723 -84.07557653613048 -1.7869434236060897 0 0 Z " fill="#BC02F7" transform="translate(1281,1535)"/>
<path d="M0 0 C0.4862988281249727 0.031018066406204525 0.4862988281249727 0.031018066406204525 2.947265625 0.18798828125 C9.651096402018538 0.6322591005405229 16.322190891904484 1.2654633244521847 23 2 C23.976787109374982 2.1008691406250364 24.953574218749964 2.2017382812500728 25.9599609375 2.3056640625 C92.73522333420124 9.510080456346941 156.76565888016194 39.67563132545979 209 81 C209.83676269531247 81.65347412109372 210.67352539062495 82.30694824218745 211.53564453125 82.980224609375 C217.0773046345862 87.34363207155593 222.28835433977224 91.92912185640898 227.375 96.8125 C228.73521913511786 98.11252111313047 230.09714147716932 99.4107629914065 231.4609375 100.70703125 C231.7537963867187 100.9879260253906 231.7537963867187 100.9879260253906 233.23583984375 102.409423828125 C235.07626698882223 104.06876272241584 236.99711058056164 105.54277836776805 239 107 C237.5287738433899 110.40353022398085 235.63057487061315 112.61255749055636 233.00927734375 115.2177734375 C232.18857757568367 116.03832214355475 231.36787780761733 116.85887084960927 230.52230834960938 117.70428466796875 C230.07905715942388 118.14237457275385 230.07905715942388 118.14237457275385 227.8359375 120.359375 C226.92872955322264 121.2637530517577 226.02152160644528 122.16813110351563 225.08682250976563 123.09991455078125 C222.6811558061745 125.49796457925686 220.26954264088454 127.88994618257789 217.85662841796875 130.28070068359375 C215.39297656169128 132.72385170877055 212.9350142280971 135.17271206448345 210.4765625 137.62109375 C205.6562642747649 142.419337882312 200.8303015656993 147.21182732282523 196 152 C193.06198672735673 150.58113788811443 190.80529563130517 149.12476606817472 188.375 146.9375 C187.6750390625 146.3135937500001 186.97507812499998 145.6896875 186.25390625 145.046875 C184.7352121787933 143.66767969096645 183.2222856976814 142.2821098747827 181.71484375 140.890625 C129.41067003226658 92.92387056617622 56.73204390030287 64.40994107442475 -14 63 C-14.444726562499909 62.987109375000045 -14.444726562499909 62.987109375000045 -16.6953125 62.921875 C-94.45310221028603 60.82597770322673 -173.81472524396008 89.94065170748354 -230.5947265625 143.50439453125 C-230.85366699218753 143.75181396484368 -230.85366699218753 143.75181396484368 -232.1640625 145.00390625 C-232.66486328125006 145.47731445312502 -233.1656640624999 145.95072265625004 -233.681640625 146.4384765625 C-235.03169161402798 147.72367395191964 -236.3642057206066 149.0272229328134 -237.6953125 150.33203125 C-240 152 -240 152 -241.8794403076172 151.8426055908203 C-244.6154313687332 150.75545799822407 -246.1393175351925 149.25619927808043 -248.233642578125 147.186279296875 C-249.05741897583016 146.37841476440417 -249.8811953735351 145.57055023193357 -250.7299346923828 144.7382049560547 C-251.60925155639643 143.8590895080565 -252.48856842041005 142.97997406005857 -253.39453125 142.07421875 C-254.3012809753418 141.17508255004896 -255.2080307006836 140.27594635009768 -256.1422576904297 139.3495635986328 C-258.0567554311856 137.44587494538473 -259.96764328503855 135.5391953499643 -261.873779296875 133.627197265625 C-264.3196322083845 131.17543502024614 -266.7832764549929 128.742450893159 -269.25217151641846 126.31392192840576 C-271.60268197028665 123.9954290798621 -273.9350352456678 121.65881901654029 -276.26953125 119.32421875 C-277.15896926879884 118.45117599487298 -278.0484072875977 117.5781332397462 -278.9647979736328 116.67863464355469 C-279.368805770874 116.26997413635263 -279.368805770874 116.26997413635263 -281.413330078125 114.201904296875 C-282.1318464660644 113.48544235229497 -282.85036285400395 112.76898040771493 -283.5906524658203 112.03080749511719 C-285 110 -285 110 -284.8860321044922 107.90608215332031 C-283.393290189951 104.6948116943895 -280.67726974623747 102.61139645198773 -278.0625 100.3125 C-277.4676782226562 99.77923095703136 -276.87285644531255 99.24596191406249 -276.260009765625 98.696533203125 C-275.0578551041285 97.61923571890225 -273.8530477745095 96.54489045649643 -272.6455078125 95.4736328125 C-271.28201891585263 94.2525617471938 -269.9458077099904 93.00110960061374 -268.6171875 91.7421875 C-207.70711464610918 34.32516541909217 -122.25333518976731 3.510361497604663 0 0 Z " fill="#BC02F7" transform="translate(1285,1661)"/>
<path d="M0 0 C16.853392655083553 16.048376981266074 28.541574066540306 39.21673736764092 29.47265625 62.7265625 C29.524218750000045 63.79648437500009 29.57578125000009 64.86640624999995 29.62890625 65.96875 C30.354248451357762 94.5593217701828 19.791981155800613 119.76210019130622 0.16015625 140.4765625 C-20.39992664128181 160.17095769059597 -46.016851340360745 167.32530984487812 -73.81640625 167 C-100.97915947668457 166.2287213730965 -123.09270347924326 152.83972842104913 -141.58984375 133.6015625 C-159.27976203234675 113.63444908554584 -165.93267593624682 88.36105316489784 -164.69140625 62.10302734375 C-162.86546054343694 35.65398640969488 -149.49926767716397 12.824644591782544 -130.18212890625 -4.85693359375 C-91.86281360655039 -37.658448401784426 -36.118646572995885 -32.49003447524524 0 0 Z M-99.52734375 34.7265625 C-100.1396484375 35.22542968750008 -100.751953125 35.724296874999936 -101.3828125 36.23828125 C-109.52221874613656 43.37149158049942 -114.54416026478634 55.07540807685132 -115.52734375 65.7265625 C-115.59695312500003 66.44972656250002 -115.66656250000005 67.17289062500004 -115.73828125 67.91796875 C-116.32322358224587 80.49422889328503 -111.34806210203055 92.5560375943196 -103.27734375 101.9765625 C-94.73065141396046 110.98943805436897 -83.95515893995798 117.00043026946037 -71.43359375 117.96484375 C-56.914593511378825 118.28119811299757 -44.92992302751236 114.26631768108518 -34.0546875 104.5078125 C-24.021167707565837 94.18953505068544 -19.721113126173805 81.88556763041174 -19.52734375 67.7265625 C-20.936375229211535 53.823160046965086 -26.42388013515665 43.268722580685335 -36.52734375 33.7265625 C-55.38441073874287 18.57588454007896 -81.42923185106065 18.079201053881434 -99.52734375 34.7265625 Z " fill="#000000" transform="translate(1329.52734375,1929.2734375)"/>
<path d="M0 0 C0.6967382812499636 0.09120117187489996 1.3934765624999272 0.18240234375002728 2.111328125 0.2763671875 C38.34096292992945 5.025882329820661 72.73927478468545 18.79587817262677 103 39 C103.61601074218743 39.40750488281242 104.23202148437508 39.815009765625064 104.86669921875 40.23486328125 C115.63840022357476 47.38649134991101 126.60981008798467 55.07110988934778 135.53515625 64.49609375 C137.8549015496585 66.87769892431606 140.41205675330548 68.9170212892459 143 71 C135.98429170489544 79.39706117263972 128.23757555133125 87.05955610473416 120.53173828125 94.818359375 C118.75163671576274 96.61514632549734 116.97693526096441 98.41729841548931 115.20751953125 100.224609375 C112.64764934002233 102.83890461189071 110.07202719231782 105.43667774062396 107.4921875 108.03125 C106.70045135498049 108.84565551757805 105.90871520996097 109.66006103515633 105.09298706054688 110.4991455078125 C104.35186676025387 111.2374157714844 103.61074645996086 111.97568603515629 102.84716796875 112.736328125 C102.52312484741196 113.06441467285163 102.52312484741196 113.06441467285163 100.88327026367188 114.7247314453125 C99 116 99 116 96.85110473632813 115.7838134765625 C94.66248553107334 114.85708621230992 93.637265327455 113.83776595270137 92.0625 112.0625 C78.29661006413244 97.77274955917323 59.86755802897369 87.26485269641807 42 79 C40.87464843750013 78.46761718750008 39.74929687500003 77.93523437499994 38.58984375 77.38671875 C-5.217144752747117 57.55829237507237 -56.18136750375811 57.517540998724826 -101 74 C-126.05371802160198 83.83627041651994 -146.76632844709775 98.46415132081802 -167 116 C-170.44677000423326 114.51656999659099 -172.6734330099032 112.56949811654317 -175.3095703125 109.91748046875 C-176.15013977050785 109.07675994873057 -176.9907092285157 108.23603942871091 -177.85675048828125 107.36984252929688 C-178.30577728271487 106.91565444946286 -178.30577728271487 106.91565444946286 -180.578125 104.6171875 C-181.5046990966796 103.68778350830075 -182.4312731933594 102.75837951660151 -183.38592529296875 101.80081176757813 C-185.8431578871605 99.33596150005178 -188.29432360839223 96.8651633387376 -190.7442626953125 94.39306640625 C-193.24773808890586 91.86909234911786 -195.756920631065 89.35080612249044 -198.265625 86.83203125 C-203.18267524941143 81.89356403240572 -208.09333788433605 76.94878799646085 -213 72 C-212.04177227295577 70.87189474656543 -211.0821043633266 69.74501269227358 -210.121826171875 68.61865234375 C-209.58756515502932 67.9909896850586 -209.05330413818365 67.36332702636719 -208.5028533935547 66.71664428710938 C-205.643578466108 63.45061847878583 -202.3255606942637 60.774202463975826 -199 58 C-198.20980468750008 57.321953124999936 -197.41960937499994 56.6439062500001 -196.60546875 55.9453125 C-184.35498362445742 45.623314538148634 -170.89946098716928 36.92464628014159 -157 29 C-156.40396972656254 28.658720703125027 -155.80793945312507 28.317441406250055 -155.19384765625 27.9658203125 C-137.73701043975984 18.06492756284888 -119.33116725171726 11.278901513627943 -100 6 C-98.77788818359386 5.665810546875036 -97.55577636718749 5.331621093750073 -96.296630859375 4.9873046875 C-86.91383914459607 2.4926580063915935 -77.5851817828468 0.8437064160575574 -67.9375 -0.25 C-67.2160983276367 -0.3340509033203034 -66.4946966552734 -0.4181018066406068 -65.75143432617188 -0.50469970703125 C-43.88491497831728 -3.005966430417402 -21.810136534043522 -3.1895046463434937 0 0 Z " fill="#BC02F7" transform="translate(1297,1787)"/>
</svg>
