<?xml version="1.0" encoding="UTF-8"?>
<!-- Generator: visioncortex VTracer 0.6.12 -->
<svg version="1.1" xmlns="http://www.w3.org/2000/svg" width="600" height="600">
<path d="M0 0 C0.990205900669082 -0.006448892354967484 1.9804118013381924 -0.012897784709927862 3.000623941421509 -0.01954209804534912 C3.540841482877738 -0.017993496060370262 3.540841482877738 -0.017993496060370262 6.274669647216797 -0.010156631469726563 C6.851453322172176 -0.012422187924386208 6.851453322172176 -0.012422187924386208 9.770328283309937 -0.023887276649475098 C12.968344621801037 -0.0343566594175897 16.166219529856903 -0.03585724969608606 19.3642475605011 -0.033498525619506836 C22.81495984957877 -0.03309026156054529 26.26563863373434 -0.04413049147693471 29.71633529663086 -0.05361366271972656 C36.47583097244464 -0.07022319945804156 43.23529176562835 -0.07572320706734814 49.99480614066124 -0.076838418841362 C55.49041988429798 -0.07778901597135501 60.98602212718296 -0.08189989918945884 66.48163223266602 -0.08823966979980469 C82.067026900153 -0.10585277944071692 97.65239402939733 -0.1150785560463703 113.23779872059822 -0.11357872188091278 C113.65786283120514 -0.11353876568377075 113.65786283120514 -0.11353876568377075 115.78364181518555 -0.11333656311035156 C116.62479749411341 -0.1132548017799877 117.46595317304138 -0.11317304044961674 118.33259841799736 -0.11308880150318146 C131.96091900786 -0.11227611764677903 145.58912901710698 -0.13140913137476673 159.217417627573 -0.15961329638957977 C173.21509086845953 -0.18835298247017107 187.21271020322695 -0.20215296090788826 201.2104136943817 -0.20042574405670166 C209.06732143026125 -0.1997621650683854 216.9241132759563 -0.20524020084179284 224.7809944152832 -0.22678184509277344 C231.47147747671806 -0.2450080503806049 238.16179212921998 -0.2493293192840227 244.85228928923607 -0.23576299846172333 C248.26410585869007 -0.2292402078916851 251.67559948091667 -0.22909060878036058 255.0873851776123 -0.24646949768066406 C258.7911335123691 -0.2618984511850826 262.494035321838 -0.25262780714814426 266.1977653503418 -0.23720741271972656 C267.2692775464058 -0.24749453902244767 268.3407897424698 -0.25778166532516167 269.4447720050812 -0.2683805227279663 C279.5905135670309 -0.17512353037805894 287.5188155548773 3.409919228444018 294.99018478393555 10.257268905639648 C298.99018478393555 15.012198483104413 298.99018478393555 15.012198483104413 298.99018478393555 18.25726890563965 C299.6501847839356 18.25726890563965 300.31018478393554 18.25726890563965 300.99018478393555 18.25726890563965 C302.2249964748916 21.961703978507835 302.1276907101862 25.381972265844944 302.1160259246826 29.239309310913086 C302.117479365468 30.06579841256142 302.11893280625344 30.892287514209755 302.120430290699 31.74382174015045 C302.1241048436684 34.53730337862467 302.1205971341247 37.33073094731253 302.1171684265137 40.12421226501465 C302.11831966927184 42.13756621817046 302.11990721404777 44.150919961659724 302.1218956708908 46.164273262023926 C302.12608854993726 51.71567704907086 302.12399847668775 57.26706375054873 302.12090945243835 62.81846761703491 C302.1186554131862 68.79807942558797 302.12213498759735 74.77768820776957 302.1248893737793 80.75729942321777 C302.12908815244623 91.80060500337459 302.12871144861305 102.8439058571567 302.12597790546715 113.88721147179604 C302.12346519139305 124.08810970339147 302.1228043199376 134.28900592628142 302.1240005493164 144.48990440368652 C302.12403874186333 144.8278522213921 302.12403874186333 144.8278522213921 302.1242320192978 146.5380729958415 C302.1245433431324 149.28155561766047 302.12486174165014 152.02503823850537 302.12519178306684 154.7685208581388 C302.1282527586856 180.51957556061717 302.12547419016704 206.27062677229912 302.1200948860496 232.0216809362173 C302.1153490640682 254.91433973368953 302.1157736822584 277.80699296925053 302.12055587768555 300.69965171813965 C302.12590717843443 326.402746115585 302.1280357006064 352.10583742725066 302.12494361400604 377.8089323043823 C302.1246228826805 380.54749933808387 302.1243100433996 383.28606637260026 302.1240005493164 386.0246334075928 C302.12392147195527 386.698969072029 302.1238423945941 387.37330473646523 302.1237609209493 388.06807481497526 C302.1226220710917 398.26410544452153 302.1239562849637 408.4601338478696 302.12648010253906 418.6561641693115 C302.12933461466366 430.24616556750544 302.1285380565231 441.8361616707378 302.1231993585825 453.426162481308 C302.1205634861459 459.34438751263 302.11955537249287 465.2626012286318 302.1228485107422 471.1808261871338 C302.125813792567 476.5915079635946 302.12421473179245 482.00216786491774 302.1188709586859 487.4128476381302 C302.11774777413785 489.37713191601154 302.1183357935453 491.34141801718374 302.1207467466593 493.30570113658905 C302.12375890927774 495.96223706014314 302.1206976278152 498.6186966595237 302.1160259246826 501.2752285003662 C302.11836709082127 502.0494104921818 302.1207082569599 502.82359248399734 302.123120367527 503.62123453617096 C302.1119388293729 506.7721441797004 301.9944146808432 509.2445792149167 300.99018478393555 512.2572689056396 C300.3301847839355 512.2572689056396 299.67018478393555 512.2572689056396 298.99018478393555 512.2572689056396 C298.76330978393554 512.9585189056396 298.53643478393553 513.6597689056397 298.30268478393555 514.3822689056396 C294.58986608085405 522.5151098742944 288.50949109486885 525.7677548454524 280.66019636392593 529.3082232475281 C277.90535450639754 530.28742151141 275.89794832276203 530.5116048058137 272.98874950408936 530.5201244354248 C272.0003937000036 530.527806725502 271.0120378959179 530.5354890155792 269.9937319159508 530.5434041023254 C268.9153431922197 530.5416711378098 267.83695446848867 530.5399381732941 266.725887298584 530.5381526947021 C266.1501619723439 530.541123816967 266.1501619723439 530.541123816967 263.23664289712906 530.5561594963074 C260.0444269916956 530.5705015725665 256.8523423634455 530.5758766718741 253.6600991487503 530.5773544311523 C250.21545645596882 530.5810617587213 246.7708601447137 530.5961597587119 243.32624435424805 530.6096248626709 C235.79498963224756 530.6367696724599 228.2637562354671 530.6488380633832 220.7324607372284 530.6576461791992 C216.02682021683586 530.6631758201794 211.32118788506557 530.6716515081904 206.61555290222168 530.6806545257568 C193.57884709842352 530.70503908294 180.54214784610338 530.7256365195127 167.50541973114014 530.7324047088623 C166.6712800971046 530.7328438410163 165.8371404630691 530.7332829731703 164.97772387042642 530.7337354123592 C164.55967173604296 530.7339536900818 164.55967173604296 530.7339536900818 162.44407457113266 530.7350583076477 C160.74989060235498 530.7359452301704 159.0557066368139 530.7368383567784 157.36152267456055 530.7377376556396 C156.9413383007422 530.7379590854049 156.9413383007422 530.7379590854049 154.81495071202517 530.7390796542168 C141.20800477957096 530.7469701135667 127.60127342667863 530.7818614961092 113.99441032856703 530.8284566998482 C100.01367214358743 530.8759443244943 86.03304146959675 530.9008112248882 72.05222135782242 530.9031405448914 C64.20688379361314 530.9049709059647 56.36182568252411 530.9163951788883 48.51656532287598 530.9527797698975 C41.833802375026806 530.9836642450144 35.151405204992585 530.9937748874506 28.468584410846233 530.9773035645485 C25.062314104764084 530.9695184489099 21.656779400165988 530.9712084679544 18.250600814819336 530.999418258667 C14.54756295076362 531.0249032819104 10.84639441236834 531.0130816988334 7.143367767333984 530.9922542572021 C6.080594095587742 531.0083670663834 5.017820423841471 531.0244798755646 3.922841489315033 531.0410809516907 C-5.293600863428509 530.9204087602753 -12.853975944956233 527.705731279538 -19.947315216064453 521.8197689056396 C-26.197529656229534 514.0543509648285 -29.323264910688437 508.3347148045947 -29.2670841217041 498.0165491104126 C-29.268837158977988 497.60753770366307 -29.268837158977988 497.60753770366307 -29.27770859003067 495.53769209980965 C-29.28702769567704 492.79096707433905 -29.282097940773042 490.0444538309755 -29.277240753173828 487.29771995544434 C-29.280976749095032 485.31080032317027 -29.28557806652509 483.32388216055153 -29.290971398353577 481.33696633577347 C-29.3032229846512 475.8723225693827 -29.302938387003394 470.40773992433856 -29.30058264732361 464.9430855512619 C-29.300175028644787 459.05133865425114 -29.311208350690663 453.15961149737785 -29.320697784423828 447.2678737640381 C-29.33732041464114 435.7232294222616 -29.342807895156824 424.1786055022814 -29.343922540545464 412.63395019620657 C-29.344841587529203 403.2515388235455 -29.348958064414575 393.8691340733277 -29.355323791503906 384.4867248535156 C-29.357118875481063 381.78611209772265 -29.358898503348343 379.085499331859 -29.360673546791077 376.38488656282425 C-29.36111564305145 375.7135084505961 -29.36155773931182 375.042130338368 -29.36201323242858 374.35040743486024 C-29.37432177756017 355.4655394977451 -29.38221434369504 336.58067385913296 -29.38132667541504 317.6958017349243 C-29.381311096684072 317.3397939433088 -29.381311096684072 317.3397939433088 -29.381232258863747 315.5381787554361 C-29.381066043550703 311.9293786239507 -29.380867961430198 308.32057849453315 -29.380662843585014 304.7117783650756 C-29.380622953157882 303.9950562611129 -29.38058306273072 303.27833415715025 -29.380541963502765 302.53989320155233 C-29.380461089220574 301.09050647122876 -29.380377493480495 299.64111974105447 -29.380291180685163 298.19173301104456 C-29.37906563024376 275.6408800003268 -29.39407952634025 253.09008712986304 -29.421436309814453 230.53925132751465 C-29.4521580736145 205.20413689518682 -29.46936875894866 179.8690619768542 -29.467509865760803 154.53392773866653 C-29.467360603618488 151.8323719105826 -29.46726319092022 149.1308160853469 -29.467201232910156 146.42926025390625 C-29.46717792420648 145.76406753152142 -29.467154615502807 145.09887480913662 -29.467130600474775 144.413524731528 C-29.467072869025372 134.3722896603616 -29.47777023410822 124.33110389909109 -29.493865966796875 114.28988265991211 C-29.512055420855006 102.86917923067466 -29.51644343389856 91.44857437427508 -29.502847120165825 80.0278627499938 C-29.496306326545323 74.19994521333165 -29.496240537647964 68.37221691143453 -29.513553619384766 62.5443172454834 C-29.52923991477357 57.20920029809807 -29.526466014482224 51.874423334574246 -29.508985355496407 46.53931490331888 C-29.505905684338842 44.60933193132263 -29.509584097956065 42.679323863760885 -29.52070550620556 40.749370478093624 C-29.61947619584808 22.393405236227174 -29.61947619584808 22.393405236227174 -25.009815216064453 15.257268905639648 C-24.6417807519436 14.610840155482293 -24.273746287822718 13.964411405324938 -23.894559264183044 13.298393905162811 C-19.350146146887255 5.518614328986594 -8.89717000477276 0.014696490656234573 0 0 Z M-8.384815216064453 23.69476890563965 C-8.866924591064446 24.27097984313965 -9.34903396606444 24.84719078063965 -9.845752716064453 25.44086265563965 C-12.524681901154224 29.621070947809898 -12.152774060587376 34.22740986592363 -12.141242980957031 39.03883647918701 C-12.143295614719392 39.831513565480705 -12.145348248481753 40.6241906517744 -12.147463083267212 41.44088825583458 C-12.153145155286666 44.11336526291055 -12.151674346742311 46.78579093094157 -12.150257110595703 49.45827293395996 C-12.152840047389077 51.38714348212292 -12.155853006816386 53.316013494688576 -12.159260511398315 55.2448827624321 C-12.167342036013878 60.55827028724093 -12.169120722798311 65.87164431203024 -12.1698579788208 71.18503725528717 C-12.171706508748883 76.91044772095205 -12.179252783321175 82.63585114668604 -12.185993194580078 88.36125755310059 C-12.199584763694759 100.88588369873094 -12.205602389060687 113.4105066470297 -12.210003852844238 125.93513894081116 C-12.212764625701595 133.75188912680437 -12.217001650200416 141.5686380724639 -12.221508026123047 149.3853874206543 C-12.233701280261556 171.01758357290146 -12.244036192617244 192.64977822279454 -12.247383117675781 214.28197765350342 C-12.24760475062854 215.68090760089365 -12.247826534733093 217.07983754825997 -12.248048469424248 218.47876749560237 C-12.248269110159328 219.88108572113012 -12.248489592524322 221.28340394668282 -12.248709917068481 222.68572217226028 C-12.24915247152967 225.49904048508006 -12.249599586240322 228.31235879712733 -12.250049591064453 231.12567710876465 C-12.250158981941638 231.8232166305836 -12.250268372818823 232.5207561524026 -12.250381078571081 233.23943323548883 C-12.254012578823222 255.86263416163456 -12.26993638641514 278.4858030614901 -12.293239954859018 301.1089917207137 C-12.317829158353163 325.02396609324074 -12.33154878619493 348.9389201083459 -12.332751035690308 372.853907763958 C-12.33366874826035 385.89186555330406 -12.3394453265947 398.9297814029876 -12.35757064819336 411.9677276611328 C-12.372947512655571 423.06792531529146 -12.378106350374964 434.1680680687629 -12.369832545518875 445.2682743445039 C-12.365917613447948 450.93388120832924 -12.366896755513238 456.5993774290199 -12.380889892578125 462.26497077941895 C-12.393578078373793 467.44951057438516 -12.392476131881779 472.63385600796875 -12.380299180746078 477.81839533895254 C-12.37833335694009 479.6959132931174 -12.381461217588452 481.5734447779747 -12.390143543481827 483.45094368606806 C-12.401188050873913 486.0002588497555 -12.393781852042906 488.548882247386 -12.381752014160156 491.0981779098511 C-12.389347207546223 491.8294790908694 -12.396942400932318 492.5607802718878 -12.404767751693726 493.3142420947552 C-12.346060893869605 499.065258433042 -11.129618349512697 503.7882638638971 -7.326221466064453 508.21820640563965 C-6.74743240356446 508.68484703063973 -6.168643341064467 509.1514876556396 -5.572315216064453 509.63226890563965 C-4.996104278564445 510.1143782806396 -4.419893341064437 510.59648765563963 -3.826221466064453 511.09320640563965 C-0.5071471161004126 513.2202691073371 2.7904394339840337 513.3827497259979 6.661102294921875 513.3886966705322 C7.601166307926178 513.3925378155709 8.541230320930481 513.3963789606094 9.509781122207642 513.4003365039825 C10.539337890148147 513.3994700217247 11.56889465808868 513.3986035394669 12.629650115966797 513.3977108001709 C13.725898873805988 513.4006819224358 14.822147631645208 513.4036530447006 15.951616048812866 513.4067142009735 C19.63798256005552 513.4154103274197 23.32431663093911 513.4169102263119 27.010692596435547 513.4184017181396 C29.648516630264083 513.4230292333837 32.286337700960445 513.4280331670063 34.92416000366211 513.4334468841553 C42.09984958484628 513.4470246708097 49.275533574615395 513.4530540727178 56.451233863830566 513.4574575424194 C60.93253891829045 513.4602209266452 65.41384181823537 513.4644584603707 69.89514541625977 513.4689617156982 C82.30474461378782 513.4811537057884 94.71434208624527 513.4914531276954 107.12394714355469 513.494836807251 C107.91808158978819 513.495056373328 108.71221603602169 513.495275939405 109.53041516244411 513.4955021589994 C109.92842762954535 513.4956112978607 109.92842762954535 513.4956112978607 111.94261193275452 513.4961636066437 C113.55563751941827 513.4966070713506 115.16866310523301 513.4970536346966 116.78168869018555 513.4975032806396 C117.58180357426409 513.4977247104049 118.38191845834251 513.4979461401701 119.20627924799919 513.4981742799282 C132.16926521618342 513.5021217926947 145.13219495340684 513.5195746921115 158.0951592028141 513.5428628027439 C171.40687278695304 513.5665842342232 184.7185581646237 513.5790390199228 198.03029322624207 513.5802047252655 C205.50319401567373 513.581121046069 212.9760215378331 513.5868625136957 220.44890213012695 513.6050243377686 C226.81259514866298 513.6204360243972 233.1761922561194 513.6255395145703 239.53990039229393 513.6172862350941 C242.78547928935586 513.6133834531748 246.0308250119292 513.6159280662632 249.27638816833496 513.6283435821533 C252.79868671873368 513.641027500149 256.32048988074 513.6352050623198 259.8427848815918 513.6247615814209 C260.86341876268386 513.6328179860116 261.88405264377593 513.6408743906021 262.93561482429504 513.6491749286652 C269.41814885673625 513.6042310948028 275.80731976106443 513.1698269201991 280.83002853393555 508.57367515563965 C281.19225509643553 507.9948860931397 281.5544816589356 507.41609703063966 281.92768478393555 506.81976890563965 C282.30795822143557 506.2435579681396 282.68823165893554 505.6673470306396 283.08002853393555 505.07367515563965 C285.27450072353747 500.6941491120135 285.1331312426984 496.2819598971414 285.1216125488281 491.4757013320923 C285.12366518259046 490.6830242457986 285.12571781635285 489.8903471595049 285.1278326511383 489.0736495554447 C285.13351472315776 486.4011725483689 285.1320439146134 483.7287468803378 285.1306266784668 481.05626487731934 C285.13320961526017 479.12739432915646 285.13622257468745 477.19852431659075 285.1396300792694 475.2696550488472 C285.147711603885 469.9562675240382 285.1494902906694 464.64289349924917 285.1502275466919 459.3295005559921 C285.15207607662 453.60409009032713 285.1596223511923 447.8786866645933 285.1663627624512 442.1532802581787 C285.17995433156585 429.62865411254836 285.1859719569318 417.1040311642496 285.19037342071533 404.57939887046814 C285.1931341935727 396.762648684475 285.1973712180715 388.94589973881546 285.20187759399414 381.129150390625 C285.2140708481326 359.49695423837784 285.2244057604883 337.86475958848473 285.2277526855469 316.2325601577759 C285.22797431849966 314.83363021038565 285.22819610260416 313.43470026301935 285.22841803729534 312.0357703156769 C285.22863867803045 310.63345209014915 285.2288591603954 309.2311338645965 285.2290794849396 307.828815639019 C285.22952203940076 305.01549732619907 285.2299691541114 302.20217901415214 285.23041915893555 299.38886070251465 C285.23052854981273 298.6913211806957 285.2306379406899 297.9937816588767 285.2307506464422 297.27510457579046 C285.2343821466943 274.65190364964474 285.2503059542862 252.02873474978924 285.2736095227301 229.40554609056562 C285.29819872622426 205.49057171803847 285.311918354066 181.57561770293353 285.3131206035614 157.66063004732132 C285.3140383161315 144.62267225797532 285.31981489446576 131.58475640829164 285.33794021606445 118.54681015014648 C285.35331708052666 107.44661249598806 285.35847591824603 96.34646974251626 285.35020211338997 85.24626346677542 C285.34628718131904 79.58065660295028 285.3472663233843 73.91516038225936 285.3612594604492 68.24956703186035 C285.3739476462449 63.06502723689434 285.3728456997529 57.880681803310566 285.3606687486172 52.696142472326756 C285.3587029248112 50.8186245181619 285.3618307854595 48.94109303330458 285.3705131113529 47.06359412521124 C285.381557618745 44.514278961523615 285.374151419914 41.96565556389335 285.36212158203125 39.41635990142822 C285.3697167754173 38.68505872040987 285.3773119688034 37.95375753939152 285.3851373195648 37.200295716524124 C285.32014599063456 30.83364268180034 283.73506430488953 26.37941967436749 279.67768478393555 21.44476890563965 C273.74151134938825 16.61299983100814 267.4020625107941 16.96964615187123 260.1034812927246 16.996572494506836 C259.0048181194067 16.992746947407724 257.9061549460888 16.988921400308612 256.774198949337 16.984979927539825 C253.0916696891931 16.974658686457076 249.40929659938917 16.978640473649847 245.72675704956055 16.98261070251465 C243.08701179642537 16.978263766873397 240.4472780094061 16.973145176343593 237.80753707885742 16.96712303161621 C231.3810541286657 16.954380082474728 224.95461296906132 16.952581813458423 218.52811951190233 16.954923294484615 C213.3042519910578 16.956706976770008 208.0803971482154 16.95495573898453 202.85653114318848 16.950698852539063 C202.11279296945781 16.950103663541377 201.36905479572715 16.94950847454369 200.60277910158038 16.948895249515772 C199.0918354224059 16.947683488440198 197.5808917451327 16.94646935436026 196.06994806975126 16.945252873003483 C181.90359528152555 16.93437900350029 167.73726630350353 16.936539169779664 153.5709121748805 16.942637719213963 C140.61384028778548 16.94780739447159 127.65684356928341 16.93654984080441 114.69978655129671 16.91753949970007 C101.39139963698335 16.898163547480472 88.08304828904971 16.88990462998155 74.77464717626572 16.893662750720978 C67.30460857089162 16.89557508276765 59.834633953546216 16.89308408123881 52.364606857299805 16.878948211669922 C46.00568438390437 16.867036571117097 39.646865293342245 16.865627088828198 33.287941403687 16.877738378942013 C30.04450282803907 16.883628506167774 26.80129247725523 16.88309631111791 23.557859420776367 16.87273597717285 C20.039687614936156 16.862307725744174 16.52202522165385 16.870338254903416 13.00387191772461 16.883047103881836 C12.4927806761861 16.8793599614501 12.4927806761861 16.8793599614501 9.906349241733551 16.86070078611374 C2.6924012928890875 16.915582283689368 -3.571757102747256 17.724981356248968 -8.384815216064453 23.69476890563965 Z " fill="#000000" transform="translate(164.00981521606445,34.74273109436035)"/>
<path d="M0 0 C76.88999999999999 0 153.77999999999997 0 233 0 C233 44.55000000000001 233 89.10000000000002 233 135 C227.06 135 221.12 135 215 135 C215 96.38999999999999 215 57.78 215 18 C149.99 18 84.98000000000002 18 18 18 C18 66.84 18 115.68 18 166 C83.34000000000003 166 148.68 166 216 166 C216 156.10000000000002 216 146.2 216 136 C229 136 229 136 233 137 C233 152.18 233 167.36 233 183 C156.11 183 79.22000000000003 183 0 183 C0 122.61000000000001 0 62.22 0 0 Z " fill="#BC02F6" transform="translate(184,167)"/>
<path d="M0 0 C5.939999999999998 0 11.879999999999995 0 18 0 C18 37.94999999999999 18 75.89999999999998 18 115 C12.060000000000002 115 6.1200000000000045 115 0 115 C0 77.05000000000001 0 39.10000000000002 0 0 Z " fill="#BC02F6" transform="translate(217,432)"/>
<path d="M0 0 C5.939999999999998 0 11.879999999999995 0 18 0 C18 37.94999999999999 18 75.89999999999998 18 115 C12.389999999999986 115 6.779999999999973 115 1 115 C0 114 0 114 -0.1230478286743164 112.09657192230225 C-0.12212603569031444 111.25681851387026 -0.12120424270631247 110.41706510543827 -0.1202545166015625 109.55186462402344 C-0.12162918090820085 108.59127639770509 -0.1230038452148392 107.63068817138674 -0.124420166015625 106.6409912109375 C-0.12262252807619234 106.1097967529297 -0.12262252807619234 106.1097967529297 -0.113525390625 103.421630859375 C-0.11367141723633267 102.30957778930667 -0.11381744384766534 101.19752471923834 -0.1139678955078125 100.05177307128906 C-0.11326820637594892 96.35611048885482 -0.10547319620934559 92.6604975856178 -0.09765625 88.96484375 C-0.09579226933101381 86.41036506701664 -0.09436827300004325 83.85588602776613 -0.0933685302734375 81.30140686035156 C-0.08993344139054216 75.2523829028467 -0.08204264387256899 69.20338044847068 -0.07201904058456421 63.15436512231827 C-0.060856830328816613 56.26934846314771 -0.05534718177500508 49.3843309624865 -0.05032360553741455 42.499307513237 C-0.039859999114923994 28.332861402580022 -0.022060717585816292 14.166432367008667 0 0 Z " fill="#BC02F6" transform="translate(366,432)"/>
<path d="M0 0 C5.939999999999998 0 11.879999999999995 0 18 0 C18.023129007967896 14.698825467341294 18.040984386297964 29.397647077680233 18.051812171936035 44.096487045288086 C18.05697287553187 50.921101823569984 18.06401129411256 57.745705101961676 18.075439453125 64.5703125 C18.086454648566132 71.15143432607653 18.09227776668365 77.73254730970967 18.094877243041992 84.31367874145508 C18.096730702636364 86.82958794719707 18.10034980981976 89.34549646859568 18.105730056762695 91.86140060424805 C18.11294622276631 95.37424913290613 18.113990692769676 98.88704764536647 18.113525390625 102.39990234375 C18.117120666503922 103.44934524536131 18.120715942382787 104.49878814697263 18.124420166015625 105.58003234863281 C18.123045501708987 106.53358108520501 18.12167083740235 107.48712982177733 18.120254516601563 108.46957397460938 C18.121176309585564 109.30103124618529 18.122098102569566 110.1324885177612 18.123047828674316 110.9891414642334 C18 113 18 113 17 115 C11.389999999999986 115 5.779999999999973 115 0 115 C0 77.05000000000001 0 39.10000000000002 0 0 Z " fill="#BC02F6" transform="translate(267,432)"/>
<path d="M0 0 C5.610000000000014 0 11.220000000000027 0 17 0 C17 37.94999999999999 17 75.89999999999998 17 115 C11.389999999999986 115 5.779999999999973 115 0 115 C0 77.05000000000001 0 39.10000000000002 0 0 Z " fill="#BC02F6" transform="translate(317,432)"/>
<path d="M0 0 C11.550000000000011 0 23.100000000000023 0 35 0 C35.020624999999995 5.589375000000018 35.04124999999999 11.17874999999998 35.0625 16.9375 C35.07160400390626 18.703435058593755 35.08070800781252 20.46937011718751 35.090087890625 22.288818359375 C35.09300713817231 23.680826047937444 35.09555567481334 25.072834585300654 35.09765625 26.46484375 C35.10277221679689 27.193848876953098 35.10788818359373 27.922854003906252 35.1131591796875 28.6739501953125 C35.113470114824224 30.449700761249574 35.062285148488456 32.22534208102394 35 34 C34 35 34 35 30.765380859375 35.113525390625 C29.331858751973527 35.11327437992503 27.89833058117148 35.10771608464438 26.46484375 35.09765625 C26.131157836914042 35.09715270996094 26.131157836914042 35.09715270996094 24.4425048828125 35.0946044921875 C21.940819200754675 35.08935808453367 19.43915793951652 35.07539690894498 16.9375 35.0625 C14.142812499999991 35.0521875 14.142812499999991 35.0521875 0 35 C0 23.44999999999999 0 11.899999999999977 0 0 Z " fill="#000000" transform="translate(333,266)"/>
<path d="M0 0 C11.220000000000027 0 22.439999999999998 0 34 0 C34 11.550000000000011 34 23.100000000000023 34 35 C22.779999999999973 35 11.560000000000002 35 0 35 C0 23.44999999999999 0 11.899999999999977 0 0 Z " fill="#000000" transform="translate(284,266)"/>
<path d="M0 0 C11.219999999999999 0 22.439999999999998 0 34 0 C34 11.550000000000011 34 23.100000000000023 34 35 C22.779999999999973 35 11.560000000000002 35 0 35 C0 23.44999999999999 0 11.899999999999977 0 0 Z " fill="#000000" transform="translate(234,266)"/>
<path d="M0 0 C11.550000000000011 0 23.100000000000023 0 35 0 C35 11.219999999999999 35 22.439999999999998 35 34 C23.44999999999999 34 11.899999999999977 34 0 34 C0 22.78 0 11.560000000000002 0 0 Z " fill="#000000" transform="translate(333,217)"/>
<path d="M0 0 C11.220000000000027 0 22.439999999999998 0 34 0 C34 11.219999999999999 34 22.439999999999998 34 34 C22.779999999999973 34 11.560000000000002 34 0 34 C0 22.78 0 11.560000000000002 0 0 Z " fill="#000000" transform="translate(284,217)"/>
<path d="M0 0 C11.219999999999999 0 22.439999999999998 0 34 0 C34 11.219999999999999 34 22.439999999999998 34 34 C22.779999999999973 34 11.560000000000002 34 0 34 C0 22.78 0 11.560000000000002 0 0 Z " fill="#000000" transform="translate(234,217)"/>
<path d="M0 0 C5.939999999999998 0 11.879999999999995 0 18 0 C18 5.940000000000055 18 11.879999999999995 18 18 C12.060000000000002 18 6.1200000000000045 18 0 18 C0 12.059999999999945 0 6.1200000000000045 0 0 Z " fill="#000000" transform="translate(416,515)"/>
<path d="M0 0 C5.939999999999998 0 11.879999999999995 0 18 0 C18 5.940000000000055 18 11.879999999999995 18 18 C15.215624999999989 18.020624999999995 12.431250000000006 18.04124999999999 9.5625 18.0625 C8.684084472656252 18.07160400390626 7.8056689453125045 18.080708007812518 6.900634765625 18.090087890625 C4.933540256761489 18.097230906880668 2.966463789331783 18.050318930126195 1 18 C0 17 0 17 -0.09765625 13.18359375 C-0.09191137582033093 11.601529528326637 -0.07889593093125313 10.019489689766374 -0.0625 8.4375 C-0.04187500000000455 5.6531250000000455 -0.021250000000009095 2.8687499999999773 0 0 Z " fill="#000000" transform="translate(167,515)"/>
<path d="M0 0 C5.939999999999998 0 11.879999999999995 0 18 0 C18 5.609999999999999 18 11.219999999999999 18 17 C12.060000000000002 17 6.1200000000000045 17 0 17 C0 11.39 0 5.780000000000001 0 0 Z " fill="#000000" transform="translate(416,68)"/>
<path d="M0 0 C5.939999999999998 0 11.879999999999995 0 18 0 C18 5.609999999999999 18 11.219999999999999 18 17 C12.060000000000002 17 6.1200000000000045 17 0 17 C0 11.39 0 5.780000000000001 0 0 Z " fill="#000000" transform="translate(167,68)"/>
</svg>
