<?xml version="1.0" encoding="UTF-8"?>
<!-- Generator: visioncortex VTracer 0.6.12 -->
<svg version="1.1" xmlns="http://www.w3.org/2000/svg" width="601" height="601">
<path d="M0 0 C0.5463257476687318 -0.0023399859666852763 0.5463257476687318 -0.0023399859666852763 3.311065137386322 -0.014181733131408691 C6.943500662354808 -0.026072279001766674 10.575554755893108 -0.016697599263139296 14.207992553710938 -0.007232666015625 C16.82390054135749 -0.011300968193225458 19.43980680941314 -0.016644298343678088 22.055709838867188 -0.023162841796875 C28.40566854246731 -0.03645631544253547 34.7555204679517 -0.03364224220779022 41.10548324137926 -0.02492491900920868 C46.26866413057593 -0.018132022660608982 51.43181523118065 -0.01723857089871217 56.59499931335449 -0.020496368408203125 C57.33164314638822 -0.0209560675174032 58.06828697942197 -0.021415766626603272 58.827253352850676 -0.021889396011829376 C60.32401817408814 -0.022848631529527097 61.820782986793006 -0.02382127265659051 63.31754779070616 -0.024807170033454895 C77.33046943357459 -0.03334805577055988 91.34333205849123 -0.023547097800630468 105.35624402016401 -0.007406070828437805 C117.36528737779986 0.005998730586966872 129.37424372970776 0.0036651700716703317 141.38328552246094 -0.010162353515625 C155.34981448480045 -0.026236388758988483 169.31629182702676 -0.0325271391144355 183.28282874822617 -0.023325562477111816 C184.77358400024173 -0.02236997419070974 186.26433926030722 -0.02142686075757183 187.75509452819824 -0.020496368408203125 C188.1217772559263 -0.02026495512575366 188.1217772559263 -0.02026495512575366 189.97741409018636 -0.019093863666057587 C195.13153704253375 -0.016509649220424194 200.28562709372648 -0.02086261491152186 205.43974494934082 -0.027935028076171875 C212.38292555317645 -0.03725353757305072 219.32593949992844 -0.030568245941694272 226.26910400390625 -0.01325225830078125 C228.81436325464233 -0.009291777040445481 231.35963635390533 -0.010413917472178014 233.9048900604248 -0.017040252685546875 C237.38453250960993 -0.025262755639872125 240.86365237367164 -0.014924938929496534 244.34326171875 0 C245.34551318228245 -0.006692165136342965 246.3477646458149 -0.013384330272671718 247.38038736581802 -0.020279288291931152 C257.58287908204943 0.06434445889040319 266.8478239257272 2.509221515264045 274.60813903808594 9.380950927734375 C279.4152737480592 15.197987887702013 281.74558167164787 19.95780427795013 281.7125244140625 27.515655517578125 C281.7116381835938 28.0343017578125 281.7116381835938 28.0343017578125 281.7071533203125 30.658966064453125 C281.700340423584 31.79150817871094 281.69352752685546 32.92405029296876 281.68650817871094 34.090911865234375 C281.68039248085296 36.57217363506987 281.6744656893041 39.05343587577153 281.668701171875 41.534698486328125 C281.66636506080624 42.19287441253664 281.66636506080624 42.19287441253664 281.65454292297363 45.523643493652344 C281.6413419589524 49.642793244607276 281.6431033594097 53.761849684714036 281.6487731933594 57.881011962890625 C281.6492332342267 58.22902229189873 281.6492332342267 58.22902229189873 281.65156131982803 59.99016547203064 C281.654532333639 62.133448336184784 281.6576971201549 64.27673085899048 281.66087341308594 66.42001342773438 C281.6736582943966 75.28639766522141 281.6756854998732 84.15233976852176 281.63230895996094 93.01864624023438 C281.60075725101757 99.4895946583714 281.597554284101 105.95987042583303 281.62706845998764 112.43083786964417 C281.6415839106606 115.85207006530763 281.6419035460424 119.27195682551138 281.60766792297363 122.69307708740234 C281.5762435281736 126.51426737343323 281.59444814388957 130.33227404506195 281.62400817871094 134.15341186523438 C281.6030256652832 135.27785705566407 281.5820431518555 136.40230224609374 281.5604248046875 137.56082153320313 C281.6621827879789 143.49974598404597 282.26704162811023 146.70453054660092 286.5475769042969 150.98818969726563 C287.8926916540059 152.12909530249388 289.245081753471 153.26154299101773 290.60813903808594 154.38095092773438 C299.89061992822565 166.3182213524541 302.1511696021218 180.69008444169503 300.60813903808594 195.38095092773438 C298.1294243982262 209.09454967488728 290.8310483355225 220.1985745037877 279.60813903808594 228.38095092773438 C265.0548751832161 236.9330580606087 251.48186094959772 239.21694440395646 235.10032653808594 235.41220092773438 C222.9414835660561 231.82167011720207 212.43613077262523 223.49752208451935 205.85032653808594 212.67001342773438 C198.2363579177852 198.63924106453874 197.24128146045553 184.11309050291163 201.28782653808594 168.81063842773438 C205.16137655484772 157.33755218761135 214.0157289051794 147.09055638965455 224.60813903808594 141.38095092773438 C233.02067844042648 137.35893584426242 240.0821046899796 135.2022360023798 249.42063903808594 135.19345092773438 C250.09417419433595 135.18120483398437 250.76770935058596 135.1689587402344 251.46165466308594 135.15634155273438 C256.4838265090875 135.14192383451618 260.758138475829 136.1040023677767 265.60813903808594 137.38095092773438 C265.54756133035096 123.14222817510216 265.4698351217458 108.90368721459043 265.3724241256714 94.6651668548584 C265.32769231691384 88.05367627931315 265.28844213841074 81.44224773070366 265.26170349121094 74.83065795898438 C265.23569893934183 68.45038844282607 265.19531610308496 62.070357253320196 265.14495277404785 55.69023513793945 C265.1282648992086 53.25581450115192 265.1167626154987 50.821352624838084 265.1105251312256 48.38688278198242 C265.10090526659917 44.977587392948095 265.07286989680256 41.568904397154085 265.04051208496094 38.159759521484375 C265.0412296295166 37.65625473022462 265.0412296295166 37.65625473022462 265.04486083984375 35.10821533203125 C264.9744558732951 29.864657004114804 264.82515252762636 25.757092290868613 261.60813903808594 21.380950927734375 C256.16958207002887 17.739562164056224 251.09706698494062 17.958514565168542 244.79063415527344 18 C243.69943252086637 17.99532002806663 242.60823088645935 17.990640056133273 241.48396253585815 17.98581826686859 C237.82666345257115 17.973850034144817 234.16973779825162 17.983332970822374 230.51243591308594 17.992767333984375 C227.89077536152564 17.988702462423078 225.26911652309707 17.98336106008722 222.6474609375 17.976837158203125 C216.26540642692396 17.963502553865084 209.8834578066498 17.96637631845161 203.50139915943146 17.97507508099079 C198.3142275683433 17.981852300753786 193.12708563744434 17.982768183788608 187.93991088867188 17.979503631591797 C187.20143471449614 17.979043932482597 186.46295854032041 17.978584233373397 185.70210430026054 17.97811060398817 C184.2018688830836 17.97715142068455 182.7016334744511 17.976178780814536 181.20139807462692 17.975192829966545 C167.13616162880328 17.966639737278683 153.0709838566546 17.976471793189205 139.00575703382492 17.992593929171562 C126.93910628876984 18.005997047073407 114.87254212715982 18.003668931356444 102.80589294433594 17.989837646484375 C88.79072980415617 17.97378040070579 74.77561807919056 17.96746370313616 60.76044702529907 17.976674437522888 C59.26575375401984 17.977630077426753 57.77106047467731 17.97857318969446 56.2763671875 17.979503631591797 C55.540963945090766 17.97996645815671 54.80556070268153 17.98042928472161 54.04787251353264 17.980906136333942 C48.86738218302122 17.98349559279893 43.68692448552753 17.97912598683287 38.506439208984375 17.972064971923828 C31.532968734801102 17.96276898020122 24.559664586000167 17.969394534769336 17.586210250854492 17.98674774169922 C15.02476206029121 17.99071925429621 12.463300123251997 17.98956723607367 9.901857376098633 17.982959747314453 C6.409599304467179 17.974780761649527 2.9178682767417854 17.9850224638096 -0.5743560791015625 18 C-1.5916695070266655 17.993307834863657 -2.6089829349517686 17.98661566972733 -3.6571240425109863 17.97972071170807 C-8.96119409340767 18.02394373308897 -12.875900457108116 18.27694918700378 -17.391860961914063 21.380950927734375 C-20.169909169228674 24.22147965455406 -20.768570845134377 26.18599409423973 -20.79058837890625 30.113922119140625 C-20.803126525878895 31.06180603027343 -20.815664672851568 32.00968994140625 -20.828582763671875 32.986297607421875 C-20.827147674560536 34.01919921875 -20.825712585449224 35.05210083007813 -20.824234008789063 36.116302490234375 C-20.834425659179686 37.20928649902345 -20.84461730957031 38.302270507812494 -20.855117797851563 39.428375244140625 C-20.885323763418057 43.04282710284593 -20.894525599227762 46.65701426694099 -20.903579711914063 50.271575927734375 C-20.920420709041366 52.77693569099725 -20.938570156377438 55.28228697440352 -20.957977294921875 57.787628173828125 C-21.000683409001198 63.70902036822315 -21.030187492349853 69.63038522165954 -21.05330067873001 75.55187773704529 C-21.08300928539714 82.95593112196224 -21.13320657547078 90.35982169842327 -21.182876586914063 97.76376342773438 C-21.268987991520873 110.96942822698077 -21.33686795407789 124.17512176597421 -21.391860961914063 137.38095092773438 C-20.31372131347655 137.05787963867186 -19.235581665039064 136.73480834960938 -18.124771118164063 136.40194702148438 C-5.128960012110383 132.8474354423139 8.383532004183508 135.64346474258124 19.920639038085938 142.19345092773438 C32.16826350734269 150.16035228152273 39.56866427706643 160.24278926416605 43.60813903808594 174.38095092773438 C46.290506002910575 187.1221940106514 44.394091191755905 200.49867442771324 38.18235778808594 211.97079467773438 C33.34118262638282 219.382717940193 27.064517145364107 225.62507193375615 19.608139038085938 230.38095092773438 C19.019037475585947 230.75864624023438 18.429935913085956 231.1363415527344 17.822982788085938 231.52548217773438 C5.748529189704669 238.37023612840915 -7.704770134042093 238.41819657780354 -20.790298461914063 235.42001342773438 C-34.439347550568385 231.48221835443496 -44.28766659527355 223.5842629054672 -51.39186096191406 211.38095092773438 C-57.732562892097945 198.2407882713843 -59.94013863773671 184.023164131077 -55.35670471191406 169.89266967773438 C-51.692840236493666 160.3547552741096 -46.61958659439156 153.60867656021188 -39.39186096191406 146.38095092773438 C-39.29036563531125 144.83473150599934 -39.258339106182774 143.28390014695646 -39.25382995605469 141.73435974121094 C-39.24837661743163 140.72932403564454 -39.242923278808604 139.72428833007814 -39.2373046875 138.6887969970703 C-39.23678352355958 138.13273017883301 -39.23678352355958 138.13273017883301 -39.23414611816406 135.31869506835938 C-39.22906539916991 134.15442993164064 -39.22398468017579 132.99016479492187 -39.21875 131.79061889648438 C-39.205203343587385 128.58556424445848 -39.19583705474702 125.38052333173093 -39.18733263015747 122.17545247077942 C-39.17662400087116 118.8181784791721 -39.15803633844587 115.4609525034399 -39.13951110839844 112.10371398925781 C-39.0775812587824 100.66157941173071 -39.02370180067979 89.21944770654648 -38.99049377441406 77.77719116210938 C-38.972087191483155 71.4627645136917 -38.94306828724132 65.14847720752203 -38.90248906612396 58.83415311574936 C-38.88150388874689 55.49481808452393 -38.867665587191595 52.15581701491709 -38.86368179321289 48.81639289855957 C-38.858755286208805 45.079975321537574 -38.83554843026229 41.34407041914693 -38.80836486816406 37.607757568359375 C-38.81137100219726 36.51384201049805 -38.81437713623046 35.41992645263673 -38.817474365234375 34.29286193847656 C-38.7111812293995 24.41942137631858 -37.199200631402846 16.29609711429555 -30.200454711914063 9.064544677734375 C-21.666147294011694 1.120081401026141 -11.249917570911435 -0.07528474461207679 0 0 Z M-34.17311096191406 164.44735717773438 C-39.72117529974662 172.0487492484412 -42.28325332765081 181.02133108749837 -41.39186096191406 190.38095092773438 C-39.262483937115746 201.27626337128584 -33.53072555680083 210.04773417077513 -24.391860961914063 216.38095092773438 C-15.959200297615212 221.42562226319103 -5.953146501631409 221.95283360077565 3.5104827880859375 219.68563842773438 C14.176070961337416 215.77437496820608 21.191394882395343 208.7588733516901 26.483139038085938 198.88095092773438 C29.299424256709358 190.34777535513888 28.947378720482362 178.75293131569072 25.049545288085938 170.68563842773438 C19.082783400471158 161.14528744211725 11.102422167109268 154.44403018845668 0.0026702880859375 151.74813842773438 C-13.240369848344898 149.71739491578577 -25.408958252100803 154.28017124902556 -34.17311096191406 164.44735717773438 Z M223.29563903808594 163.75595092773438 C216.07079055733732 172.80708055222777 214.56063294573107 181.9655152167308 215.60813903808594 193.38095092773438 C218.6552605008555 204.61064424957914 224.1664783925873 211.34055647964624 234.04563903808594 217.11923217773438 C242.4063623179236 221.23586879265446 251.35036092948053 221.6599755342943 260.45579528808594 219.79891967773438 C269.8005541258555 216.55565155495856 277.40636168968535 209.31789743682384 281.71360778808594 200.49032592773438 C285.3382486397912 191.9431378931456 285.938314454914 183.62020091749923 283.04563903808594 174.75595092773438 C278.8721243497416 164.5830088748952 272.3609638032632 158.34910478785363 262.60813903808594 153.38095092773438 C248.59490753385018 147.72516019449327 233.1701217834846 152.91629317714637 223.29563903808594 163.75595092773438 Z " fill="#FFFFFF" transform="translate(178.39186096191406,95.61904907226563)"/>
<path d="M0 0 C3.656202424008711 2.998427688848267 6.956579688874115 6.280116103324815 10.234375 9.68359375 C10.909843749999993 10.339726562500005 11.585312499999986 10.995859375000009 12.28125 11.671875 C23.79390577377268 23.566587934406698 28.45890147578484 41.55374444632497 29.234375 57.68359375 C29.938203125 57.115117187500005 30.642031250000002 56.54664062500001 31.3671875 55.9609375 C52.3033887550331 39.5891561008292 75.23830787643999 34.52065628229832 101.47705078125 36.8857421875 C117.87063939438974 39.098271335695586 132.78631395847128 47.114485318513346 145.234375 57.68359375 C145.3929296875 56.46285156250002 145.55148437499997 55.242109374999984 145.71484375 53.984375 C148.54647146023558 33.486397416170576 155.60578079132262 16.05738393879369 171.90234375 2.45703125 C188.75582524261569 -10.236564119614627 207.55189725568738 -14.851528564234911 228.42578125 -12.01904296875 C246.05122864009616 -8.864970856312254 261.2744583721917 1.7105374975216705 272.1640625 15.6640625 C281.628670592513 29.46810411417465 285.4134233991752 44.07513168600235 285.347900390625 60.657958984375 C285.34804641723633 61.63433822631839 285.34819244384767 62.610717468261726 285.3483428955078 63.61668395996094 C285.34764947402516 66.82520819851294 285.3398838652292 70.03367347464109 285.33203125 73.2421875 C285.3301650438187 75.47420723764384 285.3287420965309 77.70622738621717 285.32774353027344 79.93824768066406 C285.3239343178939 85.79899231467812 285.31411768989045 91.65971197634144 285.30303955078125 97.52044677734375 C285.2927910811178 103.50646629078324 285.28823855520443 109.49248985796049 285.283203125 115.478515625 C285.27249395801425 127.21355260899128 285.2554367467906 138.94857109882128 285.234375 150.68359375 C279.624375 150.68359375 274.014375 150.68359375 268.234375 150.68359375 C268.2388162231445 149.50754577636718 268.2432574462891 148.33149780273436 268.2478332519531 147.11981201171875 C268.2885018445981 135.99815639382803 268.31841800332984 124.87651600638924 268.33799934387207 113.75480270385742 C268.3484049350233 108.03800082829923 268.36250488665786 102.32125932717332 268.38525390625 96.6044921875 C268.4070977069458 91.08018658647313 268.41896783927893 85.55593880381628 268.424129486084 80.0315933227539 C268.4278046183257 77.93144064277573 268.4349808451537 75.8312908711714 268.4458351135254 73.73116302490234 C268.5505267651802 52.62187415614926 267.15153012298526 35.352540970090274 252.01953125 19.33984375 C241.9737108519859 9.570812568786948 229.787926434665 4.782305239758728 215.921875 4.37109375 C201.14574673553403 4.663520036956811 189.1897469019152 10.145002643102657 178.5234375 20.26953125 C171.91694217217434 27.236790827809273 167.96178803020427 34.50423591716191 165.234375 43.68359375 C165.06147949218752 44.24868652343753 164.88858398437497 44.813779296875 164.71044921875 45.39599609375 C161.6164716621346 60.2629549170764 162.05139233757183 80.18893494249608 169.48046875 93.45703125 C176.31228205687665 106.02513323547907 175.38145466432115 121.91199531776135 175.296875 135.80859375 C175.29184751697778 137.25650886040285 175.28728682897065 138.7044256701763 175.283203125 140.15234375 C175.27316166585695 143.66283786640514 175.2535697311742 147.17309069303286 175.234375 150.68359375 C169.624375 150.68359375 164.01437499999997 150.68359375 158.234375 150.68359375 C158.20859374999998 148.102890625 158.1828125 145.52218749999997 158.15625 142.86328125 C158.11764293838695 140.31451323696285 158.07254370235665 137.76593497115277 158.02685546875 135.21728515625 C157.99893716222857 133.4699842481001 157.9775805784633 131.72256388137902 157.96337890625 129.97509765625 C157.77812353097966 108.44842304983354 152.60172970505647 89.64294927836522 137.234375 73.68359375 C123.20789551778859 60.177416443326536 105.08983485413233 52.92809130799071 85.665283203125 53.215087890625 C66.873488926341 54.03697406260267 49.650694032613615 61.39324954398364 36.234375 74.68359375 C20.92085026180601 92.181297927873 16.68047691617258 111.15467593854487 16.484375 133.68359375 C16.456120610702612 135.3450817459244 16.426180582087767 137.00654195627908 16.39453125 138.66796875 C16.318730607055272 142.67343430350002 16.277179331495205 146.6771083220491 16.234375 150.68359375 C10.954374999999999 150.68359375 5.674374999999998 150.68359375 0.234375 150.68359375 C0.13402255210669978 145.28000040189943 0.06222164358626969 139.87697246140232 0.0146484375 134.47265625 C-0.005223968251044653 132.6418307395163 -0.03233162592766803 130.81106656947537 -0.0673828125 128.98046875 C-0.3880139441233723 111.77955157114712 1.3933022710379532 94.4452028434431 11.234375 79.68359375 C11.685574810541993 75.24057908228087 11.558366604821288 70.77193306258908 11.546875 66.30859375 C11.56298828125 65.0955859375 11.5791015625 63.88257812500001 11.595703125 62.6328125 C11.603820921961471 47.42006099418791 8.091941504057075 34.66963245985812 -1.015625 22.37109375 C-12.148370645094502 11.491365051384946 -25.381322671901472 4.892300971488567 -40.953125 4.30859375 C-55.64418439398963 4.583192991009128 -68.03529865228944 10.548166790820233 -78.6640625 20.42578125 C-88.96385235541342 31.491354737786196 -92.87933756620987 44.77642881715337 -92.970947265625 59.522705078125 C-92.975897064209 60.01562545776369 -92.975897064209 60.01562545776369 -93.00094604492188 62.510101318359375 C-93.03248117223134 65.7619182882728 -93.05728692785593 69.01374985568941 -93.08203125 72.265625 C-93.10260766824962 74.52292760469493 -93.1236043231012 76.78022641473632 -93.14500427246094 79.03752136230469 C-93.20015385575174 84.97387618319289 -93.24959451630653 90.91026536857527 -93.2978515625 96.8466796875 C-93.34811852589957 102.90628104956937 -93.40377746991385 108.96583261172998 -93.458984375 115.025390625 C-93.56647895003636 126.91141577285066 -93.66794323823771 138.79748419209182 -93.765625 150.68359375 C-99.045625 150.68359375 -104.325625 150.68359375 -109.765625 150.68359375 C-109.83531897111173 137.20057597365275 -109.8885346217742 123.71760148146558 -109.9210615158081 110.23443984985352 C-109.93667747757186 103.97279723735073 -109.95784128274124 97.71127841748921 -109.991943359375 91.44970703125 C-110.02468204350238 85.40020286939051 -110.04250858552851 79.35081734283716 -110.05025672912598 73.30123138427734 C-110.05577425034737 71.0001107218049 -110.06654826383667 68.6989961109191 -110.08281517028809 66.3979263305664 C-110.22858440354177 44.91168098171545 -107.64922541734073 27.318205981145525 -92.765625 10.68359375 C-92.11078125 9.935937500000023 -91.4559375 9.188281249999989 -90.78125 8.41796875 C-67.89187424808651 -16.14216435606778 -27.068313220374762 -20.181463617845793 0 0 Z " fill="#FFFFFF" transform="translate(212.765625,353.31640625)"/>
<path d="M0 0 C0.7257421875000318 0.5710546875000091 1.4514843750000068 1.1421093750000182 2.19921875 1.73046875 C2.8115234375 2.167460937499982 3.423828125 2.6044531250000205 4.0546875 3.0546875 C15.811862200796554 12.013816047746559 22.803442709830392 27.51113499232042 25.19921875 41.73046875 C26.872276309721144 58.80414104633826 23.988029781782416 75.6200849928411 13.12890625 89.34765625 C10.89994985904309 91.90280138109694 8.590507357903448 94.32716361642866 6.19921875 96.73046875 C5.86083984375 97.08625 5.86083984375 97.08625 4.1484375 98.88671875 C-7.252894452667533 110.05186491833734 -23.171413487869984 114.55890598642009 -38.80078125 114.73046875 C-57.081963419632984 113.69242055109339 -72.78886048829361 106.82377896222249 -85.4453125 93.5234375 C-92.74928964657414 84.8628344157537 -97.16089515490677 75.70762223016169 -99.80078125 64.73046875 C-99.9928515625 63.94671875 -100.18492187499999 63.162968750000005 -100.3828125 62.35546875 C-103.01673248771445 45.8134665841672 -99.51096815527518 29.96048340338558 -90.80078125 15.73046875 C-88.05113473228167 12.102741683740248 -85.05777930095553 8.904380115982178 -81.80078125 5.73046875 C-81.1253125 5.022773437500007 -80.44984375000001 4.315078125000014 -79.75390625 3.5859375 C-58.83364725546198 -16.98040733861538 -22.837098160757478 -17.247341445080934 0 0 Z M-57.80078125 8.73046875 C-58.648984375 9.142968750000023 -59.497187499999995 9.555468749999989 -60.37109375 9.98046875 C-72.00373244492113 16.24146083044684 -79.80083106548778 26.83208239240662 -83.609375 39.3984375 C-86.62099432800306 52.79495106249635 -84.13476347299937 66.08801133072166 -76.80078125 77.73046875 C-69.28781282649192 88.13567330920938 -58.424868332371375 95.22651759316602 -45.80078125 97.73046875 C-30.236258125114546 99.07990523767478 -17.7647812019938 95.76648381563831 -5.67578125 85.66796875 C4.161503802407196 76.44264544268816 9.123217776685465 64.72254096159395 9.63671875 51.35546875 C9.283773385783604 38.41925387893804 4.207509432180473 26.754133074801416 -4.67578125 17.41796875 C-14.866385200260822 7.861874102302579 -26.361246357999846 4.095725857319508 -40.21826171875 4.258056640625 C-46.65584607465877 4.508278358335076 -52.03270113796822 5.781929395606767 -57.80078125 8.73046875 Z " fill="#FFFFFF" transform="translate(337.80078125,267.26953125)"/>
<path d="M0 0 C10.935771519148489 9.347520284899986 18.413014292677076 21.432557818519484 20.20703125 35.89453125 C21.16461299011064 53.16783263891938 18.112959637331983 68.23657159995713 6.51953125 81.70703125 C-4.68226722458229 93.37977620699718 -18.849041233628782 99.67438578643069 -34.91796875 100.26953125 C-50.59203953543101 99.95568059823046 -64.37977394248935 94.61673137996871 -75.66796875 83.58203125 C-87.53493279455802 71.04915123747398 -91.92983873635288 56.934844550932695 -91.79296875 39.89453125 C-90.75476459637241 24.395626385131095 -83.5468700060101 10.829354025915563 -72.12109375 0.47265625 C-50.394758818516834 -16.230248639521733 -21.937581733313323 -16.537561614343886 0 0 Z M-61.79296875 13.89453125 C-62.481328125000005 14.542929687499992 -63.16968750000001 15.191328124999984 -63.87890625 15.859375 C-71.49188285952152 23.6846093216829 -75.45146999586655 32.96762077526529 -75.921875 43.88671875 C-75.4236834550793 55.51118813148281 -70.53821528707687 66.22912567481129 -62.046875 74.2265625 C-52.82214316569787 81.0531838054541 -42.32495814962425 85.08392925982673 -30.79296875 83.89453125 C-19.03815201153367 81.55548660115437 -8.85252568316281 76.02785472412342 -2.00390625 65.97265625 C3.676156039108605 56.2249364506265 5.699611610971317 46.483192818640134 3.74609375 35.2421875 C0.7659672199833949 24.145598714703 -5.368429541221133 15.339796763536413 -15.24609375 9.42578125 C-30.563918319723143 1.343984237753432 -48.62459175916899 1.3705641970181546 -61.79296875 13.89453125 Z " fill="#FFFFFF" transform="translate(335.79296875,141.10546875)"/>
<path d="M0 0 C6.753196355813259 0.7693594726856361 11.664551286599078 3.882788341057278 17.451171875 7.264404296875 C19.250919894381127 8.31303598080595 21.061975539611183 9.339766941438654 22.875 10.365234375 C24.014531250000005 11.024589843749993 25.15406250000001 11.683945312499986 26.328125 12.36328125 C27.368720703125007 12.964387207031251 28.409316406250014 13.565493164062502 29.4814453125 14.184814453125 C32.00630662886164 16.00454534563653 32.95069018385391 17.118366650893734 34 20 C28.685909899621663 24.415033185473874 22.898072471302953 27.72732216015271 16.9375 31.1875 C15.848886718750009 31.82880859375001 14.760273437500018 32.470117187499994 13.638671875 33.130859375 C12.59130859375 33.74123046874999 11.5439453125 34.35160156250001 10.46484375 34.98046875 C9.51214599609375 35.53629638671876 8.5594482421875 36.09212402343749 7.577880859375 36.664794921875 C5.309116334993178 37.83989419110924 3.5371934763476247 38.73499265948621 1 39 C-1.5210865108859366 36.47891348911406 -1.2370003205080025 34.927320949044116 -1.2522430419921875 31.4884033203125 C-1.2450575256347634 30.739417724609382 -1.2378720092773392 29.990432128906264 -1.23046875 29.21875 C-1.230010528564435 28.449461669921874 -1.2295523071289267 27.680173339843748 -1.2290802001953125 26.8875732421875 C-1.2260575253426964 25.26015684850279 -1.2181707425948503 23.632743356189906 -1.205810546875 22.00537109375 C-1.187572991849379 19.509987231445763 -1.1853007274859806 17.014974746865846 -1.185546875 14.51953125 C-1.180630929224094 12.940100948492727 -1.1748022756500518 11.360673168998545 -1.16796875 9.78125 C-1.1668559265136764 9.032264404296882 -1.1657431030273528 8.283278808593764 -1.1645965576171875 7.5115966796875 C-1.1160716059036986 2.2321432118073403 -1.1160716059036986 2.2321432118073403 0 0 Z " fill="#FFFFFF" transform="translate(288,165)"/>
</svg>
