<?xml version="1.0" encoding="UTF-8"?>
<!-- Generator: visioncortex VTracer 0.6.12 -->
<svg version="1.1" xmlns="http://www.w3.org/2000/svg" width="601" height="601">
<path d="M0 0 C0.7779341125488486 -0.009607543945321595 1.5558682250976403 -0.019215087890614768 2.3573760986328125 -0.02911376953125 C3.1897227478027332 -0.03336364746093068 4.022069396972654 -0.03761352539061136 4.879638671875 -0.0419921875 C5.312428817749037 -0.04484222412108352 5.312428817749037 -0.04484222412108352 7.5026092529296875 -0.05926513671875 C9.332456295754497 -0.06869919607197517 11.162320206614908 -0.07524277899756271 12.9921875 -0.0791015625 C15.777241885686948 -0.08879629537159417 18.56155454712504 -0.11983000551575174 21.346435546875 -0.1513671875 C23.128332228574834 -0.15789901541899098 24.910234163419148 -0.16314878099132102 26.692138671875 -0.1669921875 C27.51841262817385 -0.17933898925781477 28.34468658447264 -0.19168579101562955 29.195999145507813 -0.20440673828125 C34.546084044164104 -0.18401516567763565 38.24138012157158 0.6376888590397414 42.985107421875 3.1611328125 C57.96615229960568 18.536415713328836 47.985107421875 60.95965989303909 47.985107421875 69.1611328125 C121.24510742187499 69.1611328125 194.50510742187498 69.1611328125 269.985107421875 69.1611328125 C269.985107421875 49.36113281249999 269.985107421875 29.561132812500006 269.985107421875 9.1611328125 C273.58314693912246 3.764073536628814 275.0361176619819 1.6083121396250704 280.985107421875 0.1611328125 C284.11720435650795 -0.23599515417743078 287.2015741548065 -0.28354381165078735 290.356201171875 -0.2724609375 C290.7967810821533 -0.2750818634033294 290.7967810821533 -0.2750818634033294 293.02638244628906 -0.2883453369140625 C294.88118440005826 -0.29473947154960456 296.7360270455338 -0.2934625175814176 298.5908203125 -0.284912109375 C301.41114285126093 -0.27640178185913555 304.22943757057885 -0.3051996641090966 307.049560546875 -0.3369140625 C308.8601068209564 -0.33852646369550143 310.67065664353953 -0.3379477990601458 312.481201171875 -0.3349609375 C313.31477645874025 -0.3461949157714912 314.14835174560545 -0.3574288940429824 315.00718688964844 -0.3690032958984375 C320.7374219486718 -0.30161174671272306 325.22402192642585 0.8695264989573275 329.985107421875 4.1611328125 C332.8362913666407 7.903311740004938 333.1070799257597 10.814989702335282 333.047607421875 15.3720703125 C333.038583984375 16.269741210937497 333.029560546875 17.167412109374993 333.020263671875 18.09228515625 C333.014462890625 18.43364501953124 333.014462890625 18.43364501953124 332.985107421875 20.1611328125 C334.0087036132812 20.145422363281256 335.0322998046875 20.12971191406251 336.0869140625 20.113525390625 C339.90926140732347 20.05894597274542 343.7315747580684 20.02468162117873 347.55419921875 19.996337890625 C349.20399786362043 19.981314755995328 350.8537569981855 19.960890215558607 352.50341796875 19.934814453125 C354.884132786282 19.89814382319625 357.2643164979132 19.881341785134623 359.645263671875 19.8681640625 C360.3747169494629 19.852680206298828 361.10417022705076 19.837196350097656 361.85572814941406 19.821243286132813 C366.95379220536626 19.81959348653899 370.45248041090076 20.787068122311382 374.985107421875 23.1611328125 C379.28328015984744 27.68552516826054 380.1126075628687 31.023603908796474 380.082763671875 37.1416015625 C380.07954101562495 38.30498046874999 380.076318359375 39.468359375000006 380.072998046875 40.6669921875 C380.0646191406249 41.881933593750006 380.0562402343751 43.09687500000001 380.047607421875 44.3486328125 C380.043095703125 45.57517578125001 380.038583984375 46.80171874999999 380.033935546875 48.0654296875 C380.02213807680334 51.09737949590988 380.0056766277114 54.12923187220139 379.985107421875 57.1611328125 C380.6671020507813 57.141555175781264 381.3490966796875 57.12197753906253 382.0517578125 57.101806640625 C382.50031127929685 57.09419311523436 382.50031127929685 57.09419311523436 384.770263671875 57.0556640625 C385.65850830078125 57.036086425781264 386.5467529296875 57.01650878906253 387.4619140625 56.996337890625 C391.23212043768353 57.24257778450493 393.221226921881 58.66689919055426 395.985107421875 61.1611328125 C398.55859597682536 64.78068579925025 399.3639516175508 67.2599307977992 399.38916015625 71.682373046875 C399.39550224304196 72.22307182312011 399.39550224304196 72.22307182312011 399.42759704589844 74.95933532714844 C399.42612922668457 75.53854988098146 399.42612922668457 75.53854988098146 399.418701171875 78.4697265625 C399.42394302368166 79.66920425415037 399.4291848754883 80.8686819458008 399.43458557128906 82.10450744628906 C399.441003214827 84.63875556023038 399.43967215483053 87.1730334720263 399.43115234375 89.707275390625 C399.422645906217 93.58110704315078 399.45140479045267 97.45346253377943 399.483154296875 101.3271484375 C399.48476650974385 103.79134070443615 399.48418839579074 106.25553557879931 399.481201171875 108.7197265625 C399.49243515014655 109.87613143920896 399.503669128418 111.03253631591798 399.51524353027344 112.22398376464844 C399.4610768800278 118.48629399714537 399.287212142666 122.45108259664937 394.985107421875 127.1611328125 C391.33254959565124 129.70942897033046 388.62607788764467 130.30265917135705 384.278076171875 130.2314453125 C383.4726538085938 130.22129394531248 382.6672314453125 130.21114257812496 381.83740234375 130.20068359375 C381.22614501953126 130.1876318359375 380.6148876953125 130.17458007812502 379.985107421875 130.1611328125 C380.0008178710938 130.91732910156247 380.01652832031255 131.673525390625 380.03271484375 132.45263671875 C380.09528789143906 135.89705857592958 380.13416947423366 139.34136055245858 380.172607421875 142.7861328125 C380.18517578125 143.38103515625 380.18517578125 143.38103515625 380.248779296875 146.3916015625 C380.3444539091013 157.80877195483572 380.3444539091013 157.80877195483572 376.985107421875 162.1611328125 C371.95465926656505 166.3391821528976 368.3319469581671 166.7128785877784 362.086669921875 166.5517578125 C361.2517098999023 166.5460980224609 360.4167498779297 166.54043823242188 359.5564880371094 166.53460693359375 C356.90709476509863 166.51233504391553 354.2590872668077 166.46215804665644 351.610107421875 166.4111328125 C349.80674163019546 166.39105583654668 348.00335449708075 166.3728071644797 346.199951171875 166.3564453125 C341.79447473252003 166.31250066821508 337.39002548607385 166.24353882032068 332.985107421875 166.1611328125 C332.99888427734373 166.92111572265628 333.0126611328125 167.6810986328125 333.02685546875 168.464111328125 C333.0375708007812 169.45854248046874 333.0482861328125 170.45297363281247 333.059326171875 171.4775390625 C333.07310302734373 172.46439697265623 333.0868798828125 173.45125488281246 333.10107421875 174.468017578125 C332.9049228979996 179.02327067117324 331.02537428504905 181.04865766269359 328.029541015625 184.25244140625 C323.5817110735129 187.04098466907533 319.61603658786845 186.7722795613422 314.461669921875 186.7626953125 C313.9519010925293 186.7669804382324 313.9519010925293 186.7669804382324 311.3721618652344 186.78866577148438 C309.2187598179812 186.8001341656473 307.0652803033884 186.80116618832926 304.911865234375 186.79248046875 C301.6276331276623 186.78616650581193 298.34701822109815 186.83306471677116 295.063232421875 186.8837890625 C292.9668827823633 186.88833619796833 290.8705234943013 186.88974150339266 288.774169921875 186.8876953125 C287.79791656494143 186.90611480712892 286.8216632080078 186.92453430175783 285.8158264160156 186.94351196289063 C279.8578208053915 186.86321154188477 276.58268497231336 185.88626266610083 272.2347106933594 181.74105834960938 C259.0793104086495 165.10813705770238 269.985107421875 139.36770319419338 269.985107421875 118.1611328125 C196.725107421875 118.1611328125 123.46510742187502 118.1611328125 47.985107421875 118.1611328125 C47.985107421875 136.9711328125 47.985107421875 155.7811328125 47.985107421875 175.1611328125 C44.32472817034494 183.7020177327368 44.32472817034494 183.7020177327368 38.985107421875 186.1611328125 C35.4969702912727 186.7109629067901 32.07346079773208 186.72223272103963 28.547607421875 186.6923828125 C27.549309082031243 186.6962097167969 26.551010742187486 186.70003662109377 25.5224609375 186.7039794921875 C23.417877073850008 186.70669391677518 21.313259203999905 186.69936573148846 19.208740234375 186.6826171875 C15.995406814122134 186.66120145431444 12.784309162284757 186.68243546164274 9.571044921875 186.7080078125 C7.5215608419193245 186.7053644538414 5.472078147888226 186.70023930991636 3.422607421875 186.6923828125 C2.466203613281266 186.70047973632813 1.5097998046875034 186.70857666015627 0.5244140625 186.7169189453125 C-5.134270356796492 186.63774289599468 -8.590173750758055 186.04941583908476 -13.014892578125 182.1611328125 C-15.37789686116885 178.1440255313255 -16.160770969605608 175.0029842072414 -16.085205078125 170.4228515625 C-16.075053710937496 169.62194091796874 -16.064902343750006 168.8210302734375 -16.054443359375 167.995849609375 C-16.041391601562495 167.39039306640626 -16.028339843750004 166.78493652343752 -16.014892578125 166.1611328125 C-16.57736694335938 166.1689880371094 -16.57736694335938 166.1689880371094 -19.423828125 166.208740234375 C-23.60767422451663 166.26314497359027 -27.791489194720384 166.29752117551664 -31.9755859375 166.325927734375 C-33.78455874438802 166.34099036048661 -35.59349517816352 166.36144457788623 -37.40234375 166.387451171875 C-40.00635772406399 166.42394600910427 -42.60988778023781 166.44088438207825 -45.214111328125 166.4541015625 C-46.01950851440429 166.46958541870117 -46.82490570068359 166.48506927490234 -47.65470886230469 166.5010223388672 C-52.2545863770369 166.5023930452843 -55.34720764675683 166.2398097468946 -59.014892578125 163.1611328125 C-62.056160997490736 159.3062661195633 -62.374174261628994 156.3886957082915 -62.307861328125 151.5478515625 C-62.298193359375006 150.30068359375002 -62.288525390625 149.053515625 -62.278564453125 147.7685546875 C-62.253427734374995 146.47498046875 -62.228291015625004 145.18140625 -62.202392578125 143.8486328125 C-62.188857421875 142.53572265624996 -62.175322265625 141.22281250000003 -62.161376953125 139.8701171875 C-62.12606700609216 136.63337204282277 -62.07674538073836 133.39746176154688 -62.014892578125 130.1611328125 C-62.7034130859375 130.1749096679688 -63.39193359375 130.18868652343747 -64.101318359375 130.202880859375 C-65.00350097656249 130.21359619140628 -65.90568359375 130.2243115234375 -66.835205078125 130.2353515625 C-67.7299755859375 130.2491284179688 -68.62474609375 130.26290527343747 -69.546630859375 130.277099609375 C-72.82961983034957 130.1228543313124 -74.52302298980915 129.2865509907694 -77.014892578125 127.1611328125 C-80.67341610488111 122.99448101813886 -82.13278849239666 120.67963518117307 -82.19189453125 115.179931640625 C-82.2047297668457 114.14157669067384 -82.2175650024414 113.10322174072269 -82.23078918457031 112.03340148925781 C-82.23817611694335 110.90637313842774 -82.24556304931642 109.77934478759767 -82.253173828125 108.6181640625 C-82.26124557495118 107.46120529174806 -82.26931732177735 106.30424652099612 -82.27763366699219 105.11222839355469 C-82.2914850167175 102.65841169348363 -82.30220244754413 100.20457563985036 -82.31005859375 97.750732421875 C-82.32724266790105 94.00629846144142 -82.37111769164882 90.26275377493619 -82.415283203125 86.5185546875 C-82.42541244220439 84.13509764267889 -82.43392781997136 81.75163308419206 -82.440673828125 79.3681640625 C-82.4581819152832 78.2512568664551 -82.47569000244141 77.13434967041019 -82.49372863769531 75.98359680175781 C-82.47563797736268 69.4653232652779 -81.91022679796838 65.45699597725513 -78.014892578125 60.1611328125 C-74.6225084188618 56.97434769319216 -71.79442821375912 57.0389784364487 -67.331298828125 57.0947265625 C-66.33686767578125 57.104313964843755 -65.3424365234375 57.11390136718751 -64.31787109375 57.123779296875 C-63.55788818359375 57.13610595703125 -62.79790527343749 57.148432617187495 -62.014892578125 57.1611328125 C-62.03583984375 56.34435058593749 -62.056787109374994 55.52756835937498 -62.078369140625 54.68603515625 C-62.16174387390839 50.969527266915236 -62.213622458480174 47.25321648674981 -62.264892578125 43.5361328125 C-62.281650390625 42.89353515624998 -62.281650390625 42.89353515624998 -62.366455078125 39.6416015625 C-62.477068254314034 28.967430060258692 -62.477068254314034 28.967430060258692 -60.436767578125 25.4501953125 C-55.11962827208275 20.42464106517619 -49.66646732626677 19.719759603991832 -42.675048828125 19.8681640625 C-41.908091888427734 19.87240890502929 -41.14113494873047 19.876653747558578 -40.35093688964844 19.881027221679688 C-37.9260492619034 19.89768211575381 -35.50202459668469 19.93530728402291 -33.077392578125 19.9736328125 C-31.423107793954316 19.98869679809951 -29.768809847676792 20.002382190135563 -28.114501953125 20.0146484375 C-24.080971547497214 20.047542046295774 -20.048077845746036 20.099230323150437 -16.014892578125 20.1611328125 C-16.039384765625 18.91847656249999 -16.063876953125003 17.675820312500008 -16.089111328125 16.3955078125 C-16.17494907097489 12.040371806852761 -15.159071472432203 9.00586738160257 -13.014892578125 5.1611328125 C-8.933898079167193 1.1847791981308546 -5.577380106230407 0.05595412519733145 0 0 Z M0.985107421875 17.1611328125 C0.985107421875 67.65113281250001 0.985107421875 118.14113281250002 0.985107421875 170.1611328125 C10.885107421875006 170.1611328125 20.78510742187501 170.1611328125 30.985107421875 170.1611328125 C30.985107421875 119.67113281249999 30.985107421875 69.18113281249998 30.985107421875 17.1611328125 C21.085107421874994 17.1611328125 11.185107421874989 17.1611328125 0.985107421875 17.1611328125 Z M285.985107421875 17.1611328125 C285.985107421875 67.65113281250001 285.985107421875 118.14113281250002 285.985107421875 170.1611328125 C296.215107421875 170.1611328125 306.445107421875 170.1611328125 316.985107421875 170.1611328125 C316.985107421875 119.67113281249999 316.985107421875 69.18113281249998 316.985107421875 17.1611328125 C306.755107421875 17.1611328125 296.525107421875 17.1611328125 285.985107421875 17.1611328125 Z M-46.014892578125 37.1611328125 C-46.014892578125 74.45113281249996 -46.014892578125 111.74113281249998 -46.014892578125 150.1611328125 C-36.114892578124994 150.1611328125 -26.214892578125003 150.1611328125 -16.014892578125 150.1611328125 C-16.014892578125 112.87113281250004 -16.014892578125 75.58113281250002 -16.014892578125 37.1611328125 C-25.914892578125006 37.1611328125 -35.814892578125 37.1611328125 -46.014892578125 37.1611328125 Z M332.985107421875 37.1611328125 C332.985107421875 74.45113281249996 332.985107421875 111.74113281249998 332.985107421875 150.1611328125 C342.885107421875 150.1611328125 352.785107421875 150.1611328125 362.985107421875 150.1611328125 C362.985107421875 112.87113281250004 362.985107421875 75.58113281250002 362.985107421875 37.1611328125 C353.085107421875 37.1611328125 343.185107421875 37.1611328125 332.985107421875 37.1611328125 Z M-65.014892578125 73.1611328125 C-65.014892578125 86.36113281249999 -65.014892578125 99.56113281249998 -65.014892578125 113.1611328125 C-64.354892578125 113.1611328125 -63.69489257812501 113.1611328125 -63.014892578125 113.1611328125 C-63.014892578125 99.96113281250001 -63.014892578125 86.76113281250002 -63.014892578125 73.1611328125 C-63.674892578125 73.1611328125 -64.334892578125 73.1611328125 -65.014892578125 73.1611328125 Z M379.985107421875 73.1611328125 C379.985107421875 86.36113281249999 379.985107421875 99.56113281249998 379.985107421875 113.1611328125 C380.975107421875 113.1611328125 381.965107421875 113.1611328125 382.985107421875 113.1611328125 C382.985107421875 99.96113281250001 382.985107421875 86.76113281250002 382.985107421875 73.1611328125 C381.995107421875 73.1611328125 381.005107421875 73.1611328125 379.985107421875 73.1611328125 Z M49.985107421875 87.1611328125 C49.985107421875 91.45113281250002 49.985107421875 95.74113281249998 49.985107421875 100.1611328125 C120.93510742187499 100.1611328125 191.88510742187498 100.1611328125 264.985107421875 100.1611328125 C264.985107421875 95.87113281250004 264.985107421875 91.58113281250002 264.985107421875 87.1611328125 C194.035107421875 87.1611328125 123.08510742187502 87.1611328125 49.985107421875 87.1611328125 Z " fill="#000000" transform="translate(142.014892578125,206.8388671875)"/>
</svg>
