<?xml version="1.0" encoding="UTF-8"?>
<!-- Generator: visioncortex VTracer 0.6.12 -->
<svg version="1.1" xmlns="http://www.w3.org/2000/svg" width="600" height="601">
<path d="M0 0 C0.5364891815185615 -0.002555465698236503 0.5364891815185615 -0.002555465698236503 3.2514495849609375 -0.0154876708984375 C6.770799778135483 -0.029298173484477275 10.289952229781534 -0.028433195992107585 13.809326171875 -0.026123046875 C16.27495902037674 -0.030014895371579087 18.74059120441609 -0.034350568534023296 21.206222534179688 -0.0391082763671875 C26.36471737343436 -0.04655232877283311 31.523143750110194 -0.04629253288754853 36.681640625 -0.041015625 C43.264952756494665 -0.03522608875846345 49.847983080179176 -0.052148741450054104 56.43124866485596 -0.07536029815673828 C61.52131261935699 -0.09015228560929245 66.6113095762679 -0.09096185640558474 71.70139122009277 -0.08785057067871094 C74.12727096635979 -0.08836111898801846 76.55315472733122 -0.093548359392571 78.97901344299316 -0.10366249084472656 C97.8758291303339 -0.17278222789175857 115.03295392819666 -0.16471316133092273 129.664794921875 13.524658203125 C135.8649483884211 20.06709143517446 140.89803887838667 27.48809836682804 146.069091796875 34.848388671875 C148.9185343661689 38.866232067681324 151.85621221736636 42.81806378177785 154.789794921875 46.774658203125 C159.8730436404129 53.65079765549288 164.8998343496674 60.56500495073925 169.895263671875 67.505126953125 C173.82371702514502 72.9554992810275 177.79704836883695 78.37124777748934 181.789794921875 83.774658203125 C188.02489817956143 92.21797309629085 194.20883269590934 100.69530911526789 200.313232421875 109.233642578125 C201.71954432714807 111.17755255300642 203.15522299496882 113.09536279978738 204.602294921875 115.009033203125 C211.31957615195097 124.02079361469782 211.31957615195097 124.02079361469782 211.602294921875 128.712158203125 C210.02611586498733 135.6230971448632 205.616168851208 139.64319398217822 200.352294921875 143.962158203125 C199.10069699354443 145.00477191060713 197.84940209512405 146.04774948051045 196.598388671875 147.091064453125 C195.96529785156253 147.61587402343753 195.33220703125 148.14068359375 194.679931640625 148.681396484375 C192.8420390280893 150.2306198361456 191.04821813693354 151.818153077484 189.262451171875 153.427001953125 C188.69905029296876 153.92691650390623 188.13564941406253 154.4268310546875 187.55517578125 154.94189453125 C186.49593104774806 155.8832176900147 185.44523169865926 156.83428707688591 184.4052734375 157.796875 C180.57786064829946 161.14783067267894 176.8680130958095 163.03160451501395 171.789794921875 163.274658203125 C166.21958365930465 161.70692283711372 163.1829964681839 159.07470801572975 159.414794921875 154.774658203125 C158.94565673828123 154.24493408203125 158.47651855468752 153.7152099609375 157.9931640625 153.16943359375 C154.22053154068027 148.87546861844936 150.6193962544013 144.44173864656676 147.035888671875 139.989501953125 C144.70148902664113 137.16792325149447 142.26988893827019 134.4687510868825 139.789794921875 131.774658203125 C135.69628400718227 127.32738708592797 131.86536993614777 122.72748357292784 128.071044921875 118.024658203125 C125.0228970186983 114.35017853902161 121.79993241297666 110.85494413110871 118.539794921875 107.368408203125 C115.95248014600145 104.53201533879201 113.54402834121652 101.55590919606311 111.117919921875 98.581298828125 C110.30742187499999 97.58827758789062 109.49692382812498 96.59525634765623 108.661865234375 95.5721435546875 C108.04408203125001 94.81397338867185 107.42629882812503 94.05580322265627 106.789794921875 93.274658203125 C109.5589396636883 110.16070816296838 112.32987789144289 127.04646304737099 115.10266494750977 143.93191528320313 C115.37101559740677 145.56610096181942 115.63936555796323 147.2002867536329 115.90771484375 148.83447265625 C116.04181188344955 149.6510887145996 116.17590892314911 150.46770477294922 116.31406950950623 151.30906677246094 C117.26449843982164 157.09724982994283 118.21437409523412 162.88552352654574 119.1640625 168.673828125 C124.76432584328069 202.80501583987694 130.37615418195338 236.93395774830088 136.11426544189453 271.0422821044922 C136.82756140976608 275.2822390252652 137.53968154587426 279.5223928950682 138.25164794921875 283.7625732421875 C138.71123760903282 286.49903454357127 139.17090563466786 289.2354826735495 139.630615234375 291.971923828125 C139.68645050764087 292.3043088769913 139.68645050764087 292.3043088769913 139.96901082992554 293.98637866973877 C141.39123381306956 302.45110598938265 142.82163964568798 310.91441201171955 144.25897598266602 319.3765869140625 C145.0747112244356 324.18858384603897 145.88393806981622 329.0016592313925 146.6915054321289 333.8150329589844 C147.0635292358118 336.0233195663387 147.43842741938073 338.23112426286775 147.81649017333984 340.4383850097656 C148.3300394645974 343.43794308434997 148.8335344151496 346.43902843901463 149.334716796875 349.440673828125 C149.40939870834347 349.8692203903198 149.40939870834347 349.8692203903198 149.78733444213867 352.03792572021484 C152.19513390862426 366.6803697020581 152.19513390862426 366.6803697020581 149.75139617919922 371.19156646728516 C147.99255217073915 373.3570134538812 146.29652452695257 375.0212934005863 143.789794921875 376.274658203125 C142.1881659761686 376.39004083180987 140.58192795190467 376.444156939197 138.976318359375 376.467529296875 C138.47554779052734 376.47556076049807 138.47554779052734 376.47556076049807 135.94134521484375 376.5162048339844 C131.35388836583917 376.5606429252282 126.76657687259603 376.60172750414563 122.178955078125 376.624755859375 C119.75991185895941 376.641309086824 117.34091742017205 376.66859040284146 114.922119140625 376.706787109375 C111.43504447027999 376.76157787137663 107.94911721164812 376.783435176666 104.461669921875 376.798095703125 C103.38334899902344 376.82076507568354 102.30502807617188 376.8434344482422 101.19403076171875 376.8667907714844 C92.79905917646556 376.8431986188099 92.79905917646556 376.8431986188099 89.252197265625 374.279052734375 C86.18084574421073 370.53167500063273 85.00642593651281 367.3002969424491 83.719482421875 362.680908203125 C83.4414376831055 361.7500036621093 83.1633929443359 360.8190991210938 82.87692260742188 359.8599853515625 C82.03124948110815 357.015205270259 81.20554285688979 354.1651926361617 80.38279724121094 351.313720703125 C79.25640163659182 347.4405637817225 78.09709548278045 343.5771665981688 76.943115234375 339.712158203125 C73.86556813496748 329.3880964879461 70.82120448760861 319.05438515388954 67.7811279296875 308.71923828125 C65.50475040614356 300.98205656743755 63.22439141786981 293.24604658014783 60.94402313232422 285.5100402832031 C60.390318875792445 283.63155010080084 59.83671393494467 281.75303064108664 59.28321075439453 279.8744812011719 C54.50478180484316 263.65858066057535 49.67338045872043 247.4592084832815 44.789794921875 231.274658203125 C42.40820802709845 239.18103532833732 40.029162762274495 247.0881725311985 37.652645111083984 254.99607467651367 C36.477967518895525 258.90465519198057 35.30261314141444 262.8130294978287 34.125732421875 266.720947265625 C28.939883547435727 283.94334511607855 23.791674180770315 301.1745574307487 18.80908966064453 318.4570083618164 C18.124120113866752 320.8312917182524 17.437258613645042 323.20501895910957 16.74969482421875 325.57855224609375 C16.301147449891346 327.12731933273835 15.852600086510051 328.67608642255317 15.404052734375 330.224853515625 C15.185248222351106 330.9801522445679 14.966443710327155 331.73545097351075 14.741008758544922 332.5136375427246 C13.44610476594795 336.9888905544174 12.165059322564844 341.4678401373355 10.893505096435547 345.94977951049805 C10.098502566732293 348.7404481279027 9.291251610989207 351.52746679902896 8.480796813964844 354.31368255615234 C7.9331131852644035 356.2111925700531 7.400883428808243 358.11314199581636 6.86920166015625 360.01519775390625 C5.058534764594924 366.2002466214333 3.5073866270788017 370.7906106417431 -1.210205078125 375.274658203125 C-3.654218148540366 376.4966647383327 -5.2909503453816455 376.42774978038017 -8.023681640625 376.467529296875 C-8.524452209472656 376.47556076049807 -8.524452209472656 376.47556076049807 -11.05865478515625 376.5162048339844 C-15.646111634160889 376.5606429252282 -20.23342312740391 376.60172750414563 -24.821044921875 376.624755859375 C-27.24008814104053 376.641309086824 -29.659082579827952 376.66859040284146 -32.077880859375 376.706787109375 C-35.56495552972004 376.76157787137663 -39.05088278835183 376.783435176666 -42.538330078125 376.798095703125 C-43.61665100097656 376.82076507568354 -44.69497192382812 376.8434344482422 -45.80596923828125 376.8667907714844 C-54.19186176789211 376.84322413342466 -54.19186176789211 376.84322413342466 -57.877197265625 373.866943359375 C-62.070102489503824 369.2080622723987 -61.5004201262696 365.31678972642123 -61.210205078125 359.274658203125 C-60.79518226034813 355.4943261533913 -60.180203200813935 351.7597330031417 -59.539794921875 348.0116882324219 C-59.360118618011484 346.92100260853766 -59.18044231414794 345.83031698465345 -58.99532127380371 344.70658028125763 C-58.39492198884466 341.0741467329757 -57.783039216034524 337.44374544660735 -57.171142578125 333.813232421875 C-56.736955716713084 331.2010657110853 -56.30341167430413 328.58879981831313 -55.87066650390625 325.9763946533203 C-54.93958539434209 320.36351944781603 -54.00262188781838 314.7516522814559 -53.06158447265625 309.140438079834 C-51.70103423661158 301.0277016426921 -50.34947635632972 292.9134871925334 -49.00006461143494 284.7988915592432 C-46.81016100621724 271.6315517823398 -44.61305266093427 258.4654249430844 -42.411376953125 245.300048828125 C-40.27346231186604 232.51584989703724 -38.13896369929745 219.7310883166631 -36.009033203125 206.945556640625 C-35.877605397701245 206.15663004741072 -35.74617759227755 205.36770345419643 -35.610767126083374 204.55486999452114 C-34.9514123104276 200.59680672986974 -34.29212438943881 196.6387323261738 -33.632869720458984 192.68065237998962 C-28.169017208335276 159.87692053082333 -22.693456842952287 127.07515307268466 -17.210205078125 94.274658203125 C-24.93304080069757 101.96703857519344 -32.086059471650344 110.04332280355078 -38.928955078125 118.524658203125 C-42.07096920078982 122.3122916660634 -45.409356892423204 125.90460091495515 -48.741455078125 129.524658203125 C-51.15398611325088 132.21203454605006 -53.442767181153386 134.96431264068133 -55.710205078125 137.774658203125 C-59.609850865886415 142.6060777631834 -63.708800682359424 147.20563790629893 -67.932861328125 151.755126953125 C-69.85818434999626 153.8852013083685 -71.59457632257352 156.05877422228116 -73.335205078125 158.337158203125 C-75.87493303336487 161.30613595361672 -78.24067311394202 162.4056923865001 -81.987548828125 163.376220703125 C-88.48375755538248 163.07938164001655 -93.17769739882337 158.98576315849215 -97.772705078125 154.837158203125 C-98.9871071035927 153.76504306347505 -100.2019651812823 152.69344432003118 -101.417236328125 151.622314453125 C-101.72701416015624 151.34718017578126 -101.72701416015624 151.34718017578126 -103.294677734375 149.954833984375 C-105.22669166323581 148.26019724483638 -107.18619521692816 146.604641709068 -109.159423828125 144.958251953125 C-109.79614013671875 144.42449951171875 -110.4328564453125 143.8907470703125 -111.0888671875 143.3408203125 C-112.31130216893186 142.31773872008182 -113.53724028635614 141.29882441365942 -114.76708984375 140.28466796875 C-119.01321400602154 136.6997798497954 -120.96113890469806 134.47474273506282 -121.585205078125 128.962158203125 C-120.84690122040985 121.7021702689259 -115.55203043872046 115.77812331376794 -111.335205078125 110.024658203125 C-110.76930664062499 109.246708984375 -110.20340820312501 108.46875976562501 -109.620361328125 107.667236328125 C-104.9222366568097 101.21893114738566 -100.18425309988123 94.79977210491057 -95.443115234375 88.383056640625 C-91.49733370616292 83.03828642222757 -87.59125596828869 77.66658048605314 -83.710205078125 72.274658203125 C-78.67535347266059 65.27976704322191 -73.57975924312066 58.332115040345286 -68.4560546875 51.402099609375 C-64.35404452038193 45.84690068624849 -60.30403988949155 40.25628947545556 -56.272705078125 34.649658203125 C-46.9223650739882 21.68514532692285 -46.9223650739882 21.68514532692285 -43.210205078125 17.274658203125 C-42.64817382812498 16.594033203125008 -42.08614257812502 15.913408203124987 -41.507080078125 15.212158203125 C-30.562703292857748 3.0721772312319047 -15.67138270186382 -0.03918084583062864 0 0 Z M-32.210205078125 29.274658203125 C-36.175236563115675 34.31220899122468 -39.82472358662841 39.574938342476344 -43.489501953125 44.832275390625 C-46.32907689801539 48.86279578629518 -49.272137197320376 52.81568098936191 -52.210205078125 56.774658203125 C-56.74908069682442 62.913794496887704 -61.25001026617474 69.0781345106102 -65.710205078125 75.274658203125 C-70.170418081256 81.47120716854545 -74.67315300895854 87.63415501584194 -79.210205078125 93.774658203125 C-83.93595631749014 100.17865191950415 -88.65336761258948 106.58846478524185 -93.335205078125 113.024658203125 C-93.867587890625 113.751044921875 -94.399970703125 114.47743164062501 -94.948486328125 115.225830078125 C-98.00612591459992 119.44285742553836 -100.70956774164364 123.70411532017823 -103.210205078125 128.274658203125 C-101.33680387720563 130.00558390818156 -99.46154226018677 131.73441982862607 -97.585205078125 133.462158203125 C-97.063134765625 133.94491210937497 -96.54106445312499 134.427666015625 -96.003173828125 134.925048828125 C-92.49159214782497 138.154836916796 -88.8972085656448 141.2464436270389 -85.210205078125 144.274658203125 C-81.61299152044595 142.7791873982472 -79.57923287011545 140.74759512478988 -77.022705078125 137.837158203125 C-76.232509765625 136.93868164062502 -75.442314453125 136.04020507812498 -74.628173828125 135.114501953125 C-72.32281966723517 132.4069212181219 -70.07075939410561 129.66500276993048 -67.835205078125 126.899658203125 C-64.15448661174901 122.34685313147526 -60.28371859571877 118.04048409567127 -56.298828125 113.7578125 C-52.49955891239597 109.65051237447472 -48.973984587331614 105.35873777269455 -45.464111328125 101.001220703125 C-42.292928977516425 97.16502437604566 -38.939245321394935 93.51126676356728 -35.561767578125 89.856689453125 C-33.45707966244703 87.54572813707327 -31.45592254284759 85.17919003837449 -29.460205078125 82.774658203125 C-26.224829359304863 79.09432405211282 -23.27962153868532 76.70697038066871 -18.268798828125 76.001220703125 C-13.542142055689396 75.76802701036726 -10.230186796974209 76.62512479751985 -6.210205078125 79.274658203125 C-1.0205617740146238 85.02534402659865 -0.8699357676823638 88.77231646464577 -1.210205078125 96.274658203125 C-1.5733773348088675 99.7106060849257 -2.1251330296846334 103.1006030376916 -2.7085723876953125 106.50537109375 C-2.869797784686085 107.4853512763977 -3.031023181676858 108.46533145904539 -3.1971341967582703 109.47500801086426 C-3.7352605162240593 112.73376474473304 -4.284851463223561 115.99047835496975 -4.83447265625 119.247314453125 C-5.2243828238325705 121.59382296755905 -5.613580333954843 123.94044999573197 -6.0021209716796875 126.28718566894531 C-6.947601226184105 131.98655905157835 -7.900478450656266 137.68465944073148 -8.856662072241306 143.3822460770607 C-9.972699131481022 150.0348324700591 -11.07951006998087 156.68894392158097 -12.18580087274313 163.3431568145752 C-14.162624943679702 175.23202805257506 -16.14665534070076 187.11968479590712 -18.13525390625 199.006591796875 C-20.058623426906706 210.50368600247668 -21.978633959411184 222.00133263278133 -23.89404296875 233.499755859375 C-23.95293477553875 233.8532865804434 -23.95293477553875 233.8532865804434 -24.250963009893894 235.64236629009247 C-24.842307961909626 239.19237158563072 -25.43358606895123 242.74238801081117 -26.024831414222717 246.2924098968506 C-30.283054021465034 271.85963227248135 -34.548235570405694 297.4256870844591 -38.82326352596283 322.9901056289673 C-39.156021579178486 324.9815609738982 -39.48827018808987 326.97310152525773 -39.81995451450348 328.96473598480225 C-40.5767465628096 333.50632904927363 -41.34093319390536 338.0463384812093 -42.12497520446777 342.58331298828125 C-42.19580970615149 342.9969789981842 -42.19580970615149 342.9969789981842 -42.55427521467209 345.0903797149658 C-42.81545460832672 346.6137997176059 -43.079777736155336 348.13668595941294 -43.348051846027374 349.6588726043701 C-43.97062932265504 353.30862722329357 -44.210205078125 356.5370118481626 -44.210205078125 360.274658203125 C-33.320205078125014 360.274658203125 -22.430205078125 360.274658203125 -11.210205078125 360.274658203125 C-9.226905340321593 354.98585890231595 -7.386091948847309 349.8007328348649 -5.796875 344.4013671875 C-5.5748280048370304 343.65555357933044 -5.352781009674061 342.9097399711609 -5.124005317687988 342.14132595062256 C-4.393506858193632 339.68526698222877 -3.6670614976240756 337.228029532268 -2.940673828125 334.770751953125 C-2.422406157502394 333.02500212977617 -1.9038867486495974 331.2793270236924 -1.3851318359375 329.5337219238281 C-0.2874360722163658 325.8382236554599 0.8085349162790862 322.142219891362 1.903228759765625 318.4458312988281 C3.60423072247994 312.7031755716166 5.311264890177881 306.96232327724033 7.01904296875 301.2216796875 C11.851734405923082 284.97056606186726 16.672435562146234 268.7164470684405 21.414794921875 252.438720703125 C22.358211621904957 249.21537910428015 23.30247656350963 245.9922876284926 24.247161865234375 242.76931762695313 C25.082905755405932 239.9036415728661 25.905933036224496 237.03451540763234 26.728515625 234.1650390625 C27.223565294381615 232.47352758093945 27.719206694038974 230.78218911112003 28.215576171875 229.091064453125 C28.31868103027341 228.72328384399412 28.31868103027341 228.72328384399412 28.8404541015625 226.86209106445313 C30.32778164507681 221.8659600740109 32.30003299717532 217.9792669897451 36.672607421875 214.985595703125 C42.36840064559567 213.07298617043648 48.803752963639795 213.45896239884985 54.289794921875 215.712158203125 C60.63549167183044 222.2164973718293 62.440871130071855 232.28411870708214 64.887451171875 240.778564453125 C65.27795231312734 242.1167571827349 65.66905171329705 243.45477545467452 66.06069946289063 244.79263305664063 C66.89606278438566 247.65024513724825 67.72765884932107 250.5089149872581 68.55624389648438 253.36849975585938 C69.86348606427208 257.8793019566954 71.17981423186029 262.38741863454015 72.498046875 266.89501953125 C72.94891304426483 268.43705318871594 73.39976438603037 269.97909118158157 73.85060119628906 271.52113342285156 C74.07582521438599 272.29147478103636 74.30104923248291 273.0618161392212 74.5330982208252 273.85550117492676 C75.22373820035898 276.21890921141954 75.91356387770941 278.5825534554961 76.60313415527344 280.94627380371094 C81.10477509846157 296.37506871885415 85.64820935308057 311.7913580265965 90.21530151367188 327.2008972167969 C91.26399794323152 330.73997488973663 92.30899732834968 334.2801328303706 93.35309982299805 337.8205680847168 C94.3123832244118 341.070385199098 95.27597961532194 344.318919346573 96.239013671875 347.567626953125 C96.58598297119141 348.74660552978514 96.93295227050783 349.9255841064453 97.29043579101563 351.1402893066406 C97.60693084716797 352.2045211791992 97.92342590332032 353.2687530517578 98.24951171875 354.365234375 C98.52449996948246 355.29486495971673 98.79948822021481 356.2244955444336 99.08280944824219 357.1822967529297 C99.789794921875 359.274658203125 99.789794921875 359.274658203125 100.789794921875 360.274658203125 C103.23809918654604 360.363096133916 105.65800091018434 360.3899457196326 108.106201171875 360.372314453125 C108.83725570678712 360.37089950561517 109.56831024169924 360.36948455810546 110.32151794433594 360.36802673339844 C112.66515124407488 360.36241228526046 115.00869031477902 360.3498574204009 117.352294921875 360.337158203125 C118.93758000421286 360.3321450604592 120.52286657827983 360.32758183220324 122.108154296875 360.323486328125 C126.00207102147829 360.3124381703053 129.89591697625906 360.29516392024925 133.789794921875 360.274658203125 C133.22153389376138 353.0926618116307 132.36829152810685 346.0298328199554 131.16444396972656 338.9280090332031 C131.0016585820913 337.9477301490307 130.83887319445614 336.96745126485825 130.67115491628647 335.9574669599533 C130.12999066141737 332.70463327559736 129.58306988401512 329.45279533089956 129.0361328125 326.200927734375 C128.64479552489274 323.8559545723617 128.253818938824 321.51092119111337 127.86317443847656 319.16583251953125 C126.80474763691348 312.81810080685955 125.74135337045516 306.4712101952535 124.67710041999817 300.12445306777954 C123.67473128420988 294.1442565167026 122.67703571784995 288.16327957734967 121.67894642800093 282.1823675483465 C119.70053335427849 270.3276817408155 117.71862426294871 258.4735832856202 115.734375 246.619873046875 C113.81330944989924 235.14355583896884 111.8934689472984 223.66703506922903 109.9755859375 212.190185546875 C109.85749964423474 211.483546807915 109.73941335096958 210.77690806895498 109.61774868518114 210.04885603487492 C108.32648711752557 202.3216390202598 107.0355297644308 194.5943711971134 105.74471950531006 186.86707878112793 C105.40149065015476 184.81240654457895 105.05826073081244 182.75773448580958 104.71502936631441 180.70306266844273 C104.48864642186084 179.34786073207033 104.26226864577063 177.99265793232598 104.03589611500502 176.63745425641537 C102.60153871941475 168.05065113964588 101.16586495713057 159.4640698983253 99.72875034809113 150.8777277469635 C98.90329687360986 145.94528808912412 98.07848185886974 141.01274178830982 97.25377464294434 136.0801773071289 C96.87274047505446 133.80219671583603 96.49141371170788 131.52426504306516 96.1097640991211 129.24638748168945 C89.37573345787996 89.05227893597248 89.37573345787996 89.05227893597248 92.539794921875 82.837158203125 C96.538687619602 78.28286374182477 99.4465120742413 76.4283160947731 105.602294921875 76.024658203125 C110.22463706794684 75.84013356655527 113.897823905049 77.59065821016463 117.34228515625 80.656494140625 C118.98011341319727 82.32173482108135 120.54804451728262 84.03119063310984 122.102294921875 85.774658203125 C122.66988525390627 86.39832275390626 123.23747558593749 87.02198730468751 123.822265625 87.66455078125 C127.91176228004224 92.19384048253988 131.79939061550374 96.86707842021542 135.614013671875 101.630126953125 C137.92011192342613 104.4330506807733 140.33131022764263 107.10469095455005 142.789794921875 109.774658203125 C146.0831119110435 113.35258283333275 149.23630813454588 116.99005486108325 152.289794921875 120.774658203125 C156.1834801324282 125.59869297726175 160.28553895839082 130.1851045267623 164.481201171875 134.747314453125 C167.3268065555468 137.86255418787232 170.06783670299222 141.05128662813223 172.789794921875 144.274658203125 C176.35494368324044 142.73852267691456 178.8284984828545 140.59081300252876 181.664794921875 137.962158203125 C185.30019511344182 134.6279154238773 188.96808882628733 131.39236580742022 192.789794921875 128.274658203125 C189.73679953202839 122.63893321697788 186.1966645662572 117.58374116203152 182.352294921875 112.462158203125 C181.0924229273184 110.76871101378902 179.83332601874844 109.07468694630734 178.574951171875 107.380126953125 C177.94089355468748 106.52725097656253 177.3068359375 105.674375 176.653564453125 104.795654296875 C173.83215761313187 100.97932641768074 171.05960611309376 97.12851251183076 168.289794921875 93.274658203125 C163.83007279396696 87.0777700628538 159.32729883045914 80.91481249884703 154.789794921875 74.774658203125 C150.2522717759873 68.63447787546679 145.75143960240132 62.47018001604087 141.289794921875 56.274658203125 C140.22221514579354 54.798002751376856 139.1545060536173 53.321440783154145 138.086669921875 51.844970703125 C135.7706074718816 48.64122366790548 133.47296957132954 45.42494887377583 131.180419921875 42.204345703125 C115.1158900836499 19.781073825361517 115.1158900836499 19.781073825361517 101.03236770629883 16.6431884765625 C92.20553481922207 15.19264240730871 83.01156232759632 15.707903574082707 74.098388671875 15.743408203125 C71.70190778596873 15.740708687496351 69.30542797318617 15.736822455853229 66.90895080566406 15.7318115234375 C61.9053394773008 15.725939309985648 56.902015254770674 15.734406774676529 51.8984375 15.753173828125 C45.51116579252766 15.775973880114947 39.1245661630478 15.762818348822861 32.737318992614746 15.738883972167969 C27.794815150119746 15.724375054777795 22.852468577191303 15.729055159625204 17.90995979309082 15.739395141601563 C15.555826631636933 15.742047701634704 13.201678806169355 15.73884495709359 10.847562789916992 15.729476928710938 C-20.26465294198792 15.63280195199087 -20.26465294198792 15.63280195199087 -32.210205078125 29.274658203125 Z " fill="#000000" transform="translate(255.210205078125,164.725341796875)"/>
<path d="M0 0 C7.277367754019167 6.656431938829812 13.62097835110751 17.138166821775712 14.54443359375 27.114990234375 C15.071261775484174 41.663430295415566 13.988145460885619 53.54437176429154 4.16015625 65.10546875 C-3.799643912035549 73.58102270223225 -13.963097929373589 79.72930809047807 -25.84765625 80.3671875 C-40.87697046683428 80.6714313608054 -52.29720907020078 77.63884197414922 -63.61328125 67.22265625 C-72.8892232408162 57.459575073670464 -76.21306865745584 46.145087257239794 -76.6484375 33.03125 C-76.32699700147836 21.599148791708956 -71.2577827922592 10.509878790761974 -63.5859375 2.09375 C-45.08192064384059 -14.831425827476892 -19.656278556374843 -14.611746891464477 0 0 Z M-52.44140625 14.69921875 C-58.97712375945912 21.751338630576882 -60.349418303312234 28.91469960513527 -60.125 38.421875 C-59.14912376000149 45.81293767015271 -55.801757927628614 52.42300660969292 -50.3359375 57.53125 C-48.5390625 58.8515625 -48.5390625 58.8515625 -46.6484375 60.03125 C-46.00390625 60.44117187500001 -45.359375 60.85109374999999 -44.6953125 61.2734375 C-38.034421379639184 64.85058273130488 -31.034655852340506 65.08873044170122 -23.6484375 64.03125 C-16.111351047576704 61.54813537132037 -9.89009007791509 57.829130290433454 -5.6484375 51.03125 C-5.238515624999991 50.38671875 -4.828593749999982 49.7421875 -4.40625 49.078125 C-0.5134199260344872 41.82940693123662 -0.31618944369296287 33.31294347766695 -2.30859375 25.4140625 C-5.722837361206132 16.871063334298057 -11.67826553828229 10.687190758588542 -20.0390625 6.9375 C-32.34251281749397 2.664445398714662 -43.10935819609358 6.017770996148059 -52.44140625 14.69921875 Z " fill="#000000" transform="translate(330.6484375,70.96875)"/>
</svg>
