<?xml version="1.0" encoding="UTF-8"?>
<!-- Generator: visioncortex VTracer 0.6.12 -->
<svg version="1.1" xmlns="http://www.w3.org/2000/svg" width="600" height="600">
<path d="M0 0 C0.4592939758300645 0.0002719116210982975 0.4592939758300645 0.0002719116210982975 2.783599853515625 0.00164794921875 C18.389138376596975 0.043938923091886295 33.38790457493661 1.07010629812045 48.6875 4.375 C49.681850585937525 4.589306640624997 50.67620117187499 4.803613281249994 51.70068359375 5.0244140625 C93.16121039176721 14.300877801382214 131.70553370404156 34.90846229760588 162.00146484375 64.7197265625 C163.61747250699523 66.30625015890934 165.25289760998322 67.86975494685888 166.89453125 69.4296875 C174.269493304947 76.51582513326127 180.57693532925595 84.18725421219312 186.6875 92.375 C187.10209472656248 92.9181787109375 187.51668945312503 93.461357421875 187.94384765625 94.02099609375 C218.04602410450673 133.50102061506647 233.17304973646264 182.3192260213891 233.0625 231.6875 C233.0622280883789 232.14679397583006 233.0622280883789 232.14679397583006 233.06085205078125 234.47109985351563 C233.0185610769081 250.07663837659697 231.99239370187956 265.07540457493656 228.6875 280.375 C228.58034667968752 280.8721752929688 228.58034667968752 280.8721752929688 228.0380859375 283.38818359375 C218.76162219861772 324.8487103917672 198.15403770239413 363.39303370404156 168.3427734375 393.68896484375 C166.75624984109083 395.3049725069951 165.19274505314098 396.94039760998334 163.6328125 398.58203125 C156.54667486673873 405.956993304947 148.87524578780688 412.26443532925595 140.6875 418.375 C140.14432128906247 418.7895947265625 139.601142578125 419.204189453125 139.04150390625 419.63134765625 C99.56147938493353 449.7335241045067 50.74327397861089 464.86054973646264 1.375 464.75 C0.9157060241699355 464.7497280883789 0.9157060241699355 464.7497280883789 -1.408599853515625 464.74835205078125 C-17.01413837659703 464.7060610769081 -32.0129045749365 463.67989370187956 -47.3125 460.375 C-47.809675292968734 460.2678466796875 -47.809675292968734 460.2678466796875 -50.32568359375 459.7255859375 C-91.78621039176718 450.4491221986177 -130.33053370404158 429.84153770239413 -160.62646484375 400.0302734375 C-162.24247250699491 398.443749841091 -163.87789760998348 396.88024505314087 -165.51953125 395.3203125 C-172.894493304947 388.2341748667387 -179.20193532925595 380.5627457878069 -185.3125 372.375 C-185.72709472656248 371.8318212890625 -186.141689453125 371.288642578125 -186.56884765625 370.72900390625 C-216.67102410450667 331.24897938493353 -231.79804973646264 282.43077397861083 -231.6875 233.0625 C-231.6869561767578 232.14391204833987 -231.6864123535156 231.22532409667969 -231.68585205078125 230.27890014648438 C-231.6435610769081 214.67336162340303 -230.61739370187956 199.67459542506344 -227.3125 184.375 C-227.098193359375 183.3806494140625 -226.88388671875 182.386298828125 -226.6630859375 181.36181640625 C-217.3866221986178 139.90128960823282 -196.7790377023941 101.35696629595842 -166.9677734375 71.06103515625 C-165.3812498410909 69.44502749300494 -163.81774505314098 67.80960239001664 -162.2578125 66.16796875 C-155.17167486673873 58.79300669505301 -147.50024578780688 52.48556467074407 -139.3125 46.375 C-138.7693212890625 45.9604052734375 -138.226142578125 45.545810546875 -137.66650390625 45.11865234375 C-98.18647938493353 15.0164758954933 -49.36827397861089 -0.11054973646265864 0 0 Z M-134.3125 65.375 C-134.88838867187502 65.84937500000001 -135.46427734374998 66.32374999999999 -136.0576171875 66.8125 C-147.62519676644462 76.40116823165621 -158.0073255793864 86.53639624226724 -167.3125 98.375 C-168.1271875 99.3843359375 -168.941875 100.393671875 -169.78125 101.43359375 C-176.08142830688743 109.32070031294614 -181.36068434234443 117.587699056634 -186.3125 126.375 C-186.6876171875 127.02952148437498 -187.062734375 127.68404296875002 -187.44921875 128.3583984375 C-215.02617397435992 176.7592490317904 -221.02041154433437 234.9199731920678 -206.96875 288.4765625 C-198.97532949435697 317.5186952569412 -185.52163010036583 344.12109027284583 -166.3125 367.375 C-165.838125 367.950888671875 -165.36375 368.52677734375 -164.875 369.1201171875 C-155.28633176834376 380.6876967664447 -145.1511037577327 391.0698255793864 -133.3125 400.375 C-132.3031640625 401.1896875 -131.293828125 402.004375 -130.25390625 402.84375 C-122.36679968705386 409.1439283068874 -114.099800943366 414.4231843423444 -105.3125 419.375 C-104.98523925781251 419.56255859375 -104.98523925781251 419.56255859375 -103.3291015625 420.51171875 C-54.92825096820957 448.08867397435995 3.2324731920678005 454.08291154433437 56.7890625 440.03125 C85.83119525694116 432.03782949435697 112.43359027284583 418.5841301003658 135.6875 399.375 C136.26338867187502 398.900625 136.83927734374998 398.42625 137.4326171875 397.9375 C149.00019676644473 388.34883176834376 159.38232557938636 378.2136037577328 168.6875 366.375 C169.5021875 365.3656640625 170.31687499999998 364.356328125 171.15625 363.31640625 C177.4564283068874 355.4292996870539 182.73568434234448 347.16230094336595 187.6875 338.375 C188.0626171875 337.720478515625 188.437734375 337.06595703125 188.82421875 336.3916015625 C216.40117397435984 287.9907509682096 222.39541154433437 229.8300268079322 208.34375 176.2734375 C200.35032949435697 147.23130474305879 186.89663010036583 120.62890972715417 167.6875 97.375 C167.4503125 97.08705566406249 167.4503125 97.08705566406249 166.25 95.6298828125 C156.66133176834376 84.06230323355533 146.5261037577328 73.6801744206137 134.6875 64.375 C133.6781640625 63.56031250000001 132.668828125 62.74562499999999 131.62890625 61.90625 C123.74179968705391 55.6060716931126 115.47480094336595 50.326815657655544 106.6875 45.375 C106.03297851562502 44.999882812500005 105.37845703124998 44.624765624999995 104.7041015625 44.23828125 C29.745724266046636 1.5298621000518438 -67.99423240204288 10.592116378823391 -134.3125 65.375 Z " fill="#FFFFFF" transform="translate(299.3125,67.625)"/>
<path d="M0 0 C1.6605771798506908 1.4929959965629962 3.3085610895518585 3.0001613274051806 4.94140625 4.5234375 C7.034231161556079 6.473818831188396 9.182672911552686 8.325688674773005 11.3671875 10.171875 C39.701324898244366 35.06301960682424 57.52969597491074 76.45428549197729 60.1796875 113.609375 C62.30226324771104 158.5940830340782 51.17290417339484 202.85990441428532 20.4921875 236.984375 C19.753554687500014 237.77457031249997 19.014921875000027 238.564765625 18.25390625 239.37890625 C16.354886630948783 241.42097819440352 14.581310953277182 243.52389082489765 12.8046875 245.671875 C8.471168944514886 250.63300658765883 3.36447176236868 254.57753211155352 -1.8203125 258.609375 C-2.736835937500018 259.3415625 -3.6533593749999795 260.07375 -4.59765625 260.828125 C-39.90089301470738 288.33462497579393 -84.73896384105996 299.1803955699203 -128.972900390625 293.835693359375 C-161.3882383467081 289.11016693664135 -192.6027090581424 275.10549942444436 -216.58984375 252.68359375 C-218.63191569440363 250.7845741309486 -220.73482832489753 249.0109984532773 -222.8828125 247.234375 C-227.84394408765888 242.90085644451483 -231.78846961155344 237.7941592623688 -235.8203125 232.609375 C-236.5525 231.69285156249998 -237.2846875 230.77632812500002 -238.0390625 229.83203125 C-265.545562475794 194.52879448529262 -276.3913330699203 149.69072365894004 -271.046630859375 105.456787109375 C-266.3192670907366 73.0288456498688 -252.30832750047892 41.86111125489933 -229.90625 17.84765625 C-227.9558686688118 15.75483133844412 -226.10399882522682 13.606389588447144 -224.2578125 11.421875 C-168.80809402714573 -51.69775917998376 -62.060254275934994 -52.60509088209447 0 0 Z M-209.8203125 22.609375 C-210.18253906249998 22.939374999999984 -210.18253906249998 22.939374999999984 -212.015625 24.609375 C-239.0491405451133 50.1894757308599 -253.4362910297235 87.86360496415841 -254.8203125 124.609375 C-255.24206890819622 165.56493478162577 -240.0854411138306 203.31223701594007 -211.875 232.95751953125 C-184.3823483565341 260.9972502853342 -146.47278608797131 277.2319313587851 -107.1650390625 277.63671875 C-76.3165641054415 277.3220530673779 -45.97669743853214 268.8340094519254 -20.8203125 250.609375 C-20.535913085937523 250.40465576171874 -20.535913085937523 250.40465576171874 -19.0966796875 249.36865234375 C12.773794119600154 226.11829833238642 34.9541472125087 191.7892220852076 41.1796875 152.609375 C47.37968126416706 112.28877640586956 37.46256462944268 72.93061231898264 13.58984375 39.9921875 C-9.39761642555061 9.203129132228412 -43.6289184269591 -12.541995071017737 -81.8203125 -18.390625 C-129.9455325835139 -24.89427793054074 -174.52881708566312 -10.662068488263714 -209.8203125 22.609375 Z " fill="#FFFFFF" transform="translate(405.8203125,171.390625)"/>
<path d="M0 0 C1.5939184210380972 1.3372510141232965 3.1691601474676077 2.6925237163541738 4.73583984375 4.0615234375 C5.114824218750016 4.389589843750002 5.114824218750016 4.389589843750002 7.03271484375 6.0498046875 C25.26297352668462 23.076866297360965 35.98466122692679 48.44033800360353 36.93896484375 73.1826171875 C37.43441981513428 100.7438879674537 28.885566464392696 125.29102381618691 10.73583984375 146.0615234375 C10.407773437499998 146.44050781250002 10.407773437499998 146.44050781250002 8.74755859375 148.3583984375 C-8.279503016110993 166.58865712043468 -33.64297472235353 177.3103448206768 -58.38525390625 178.2646484375 C-85.9465246862037 178.76010340888428 -110.49366053493688 170.2112500581427 -131.26416015625 152.0615234375 C-131.64314453125002 151.73345703125 -131.64314453125002 151.73345703125 -133.56103515625 150.0732421875 C-151.79129383918468 133.046180577639 -162.5129815394268 107.68270887139647 -163.46728515625 82.9404296875 C-163.96274012763428 55.3791589075463 -155.41388677689272 30.83202305881312 -137.26416015625 10.0615234375 C-136.93609375 9.682539062499984 -136.93609375 9.682539062499984 -135.27587890625 7.7646484375 C-100.52022448495234 -29.446972998578843 -38.84927569862663 -31.6772671486726 0 0 Z M-90.26416015625 0.0615234375 C-90.79074218749997 0.23683593749998977 -90.79074218749997 0.23683593749998977 -93.45556640625 1.1240234375 C-101.5835621821883 4.17599577579233 -108.39399068377605 8.865901201399822 -115.26416015625 14.0615234375 C-116.00537109375 14.615820312500006 -116.74658203125 15.170117187500011 -117.51025390625 15.7412109375 C-132.6696716336235 28.002953244148188 -142.82054253657685 47.92365834136814 -145.26416015625 67.0615234375 C-146.0805133269393 80.27624038803293 -145.48848707094518 92.48581337895018 -141.26416015625 105.0615234375 C-141.08884765625 105.58810546874997 -141.08884765625 105.58810546874997 -140.20166015625 108.2529296875 C-137.14968781795767 116.38092546343825 -132.45978239235018 123.19135396502605 -127.26416015625 130.0615234375 C-126.70986328125 130.802734375 -126.15556640624999 131.5439453125 -125.58447265625 132.3076171875 C-113.32273034960181 147.46703491487352 -93.40202525238186 157.61790581782685 -74.26416015625 160.0615234375 C-61.04944320571707 160.8778766081893 -48.83987021479982 160.2858503521952 -36.26416015625 156.0615234375 C-35.21099609375 155.71089843749996 -34.157832031249995 155.36027343750004 -33.07275390625 154.9990234375 C-24.944758130311754 151.94705109920767 -18.13432962872389 147.25714567360018 -11.26416015625 142.0615234375 C-10.52294921875 141.50722656250002 -9.78173828125 140.9529296875 -9.01806640625 140.3818359375 C6.141351321123523 128.12009363085178 16.292222224076852 108.1993885336318 18.73583984375 89.0615234375 C19.552193014439297 75.84680648696707 18.96016675844521 63.63723349604982 14.73583984375 51.0615234375 C14.385214843749964 50.008359375 14.034589843750041 48.955195312499995 13.67333984375 47.8701171875 C10.62136750545767 39.7421214115617 5.931462079850178 32.93169290997395 0.73583984375 26.0615234375 C0.18154296875002274 25.3203125 -0.37275390625001137 24.5791015625 -0.94384765625 23.8154296875 C-13.205589962898216 8.656011960126506 -33.126295060118196 -1.494858942826852 -52.26416015625 -3.9384765625 C-65.47887710678293 -4.754829733189297 -77.68845009770018 -4.162803477195183 -90.26416015625 0.0615234375 Z " fill="#FFFFFF" transform="translate(363.26416015625,221.9384765625)"/>
<path d="M0 0 C5.939999999999998 0 11.879999999999995 0 18 0 C18 8.25 18 16.5 18 25 C26.25 25 34.5 25 43 25 C43 30.939999999999998 43 36.879999999999995 43 43 C34.75 43 26.5 43 18 43 C18 51.25 18 59.5 18 68 C12.060000000000002 68 6.1200000000000045 68 0 68 C0 59.75 0 51.5 0 43 C-8.25 43 -16.5 43 -25 43 C-25 37.06 -25 31.120000000000005 -25 25 C-16.75 25 -8.5 25 0 25 C0 16.75 0 8.5 0 0 Z " fill="#FFFFFF" transform="translate(291,266)"/>
</svg>
