<?xml version="1.0" encoding="UTF-8"?>
<!-- Generator: visioncortex VTracer 0.6.12 -->
<svg version="1.1" xmlns="http://www.w3.org/2000/svg" width="600" height="600">
<path d="M0 0 C0.5209423828125068 0.0015206909179710237 0.5209423828125068 0.0015206909179710237 3.1572265625 0.00921630859375 C19.829143262411606 0.0808912791203511 35.95854108545524 0.938181280293918 52.3125 4.4375 C53.34616699218748 4.657124023437504 54.37983398437501 4.876748046875001 55.44482421875 5.10302734375 C62.471024148427944 6.644406089384987 69.40286223903752 8.439852585801091 76.3125 10.4375 C77.19953613281251 10.693701171874999 78.08657226562502 10.949902343749997 79.00048828125 11.2138671875 C128.3190883923658 25.817963152039965 175.8819100439287 57.5004934220546 207.3125 98.4375 C208.1078515625 99.43910156250001 208.903203125 100.440703125 209.72265625 101.47265625 C253.0123763942304 156.2412213158342 272.5745751764523 226.96891965121472 264.5625 296.2578125 C262.61901987830254 311.62126659180467 259.6129711285005 326.56265397451574 255.3125 341.4375 C255.05629882812502 342.3245361328125 254.80009765625005 343.211572265625 254.5361328125 344.12548828125 C239.93203684796003 393.44408839236587 208.24950657794545 441.00691004392866 167.3125 472.4375 C166.81169921875 472.83517578125 166.81169921875 472.83517578125 164.27734375 474.84765625 C133.6509898787753 499.055087767145 98.18737157054187 515.7383746946952 60.25 524.75 C59.295932617187475 524.9803393554688 58.34186523437501 525.2106787109375 57.35888671875 525.447998046875 C38.61332217705558 529.6661370539863 19.78867562193261 530.9947537196275 0.625 530.875 C0.10405761718749318 530.8734793090821 0.10405761718749318 530.8734793090821 -2.5322265625 530.8657836914063 C-19.20414326241155 530.7941087208796 -35.333541085455295 529.936818719706 -51.6875 526.4375 C-52.20433349609374 526.3276879882812 -52.20433349609374 526.3276879882812 -54.81982421875 525.77197265625 C-61.84602414842806 524.230593910615 -68.77786223903746 522.4351474141989 -75.6875 520.4375 C-76.57453613281251 520.181298828125 -77.461572265625 519.92509765625 -78.37548828125 519.6611328125 C-127.69408839236579 505.05703684796003 -175.2569100439287 473.3745065779454 -206.6875 432.4375 C-207.08517578125 431.93669921875 -207.08517578125 431.93669921875 -209.09765625 429.40234375 C-252.3873763942304 374.63377868416575 -271.9495751764523 303.9060803487853 -263.9375 234.6171875 C-261.99401987830254 219.25373340819542 -258.9879711285004 204.3123460254842 -254.6875 189.4375 C-254.431298828125 188.5504638671875 -254.17509765625 187.663427734375 -253.9111328125 186.74951171875 C-239.30703684796003 137.4309116076342 -207.6245065779454 89.86808995607129 -166.6875 58.4375 C-165.6858984375 57.6421484375 -164.684296875 56.846796874999995 -163.65234375 56.02734375 C-133.02598987877528 31.81991223285496 -97.56237157054193 15.136625305304904 -59.625 6.125 C-58.6709326171875 5.89466064453125 -57.71686523437501 5.664321289062499 -56.73388671875 5.427001953125 C-37.98832217705558 1.2088629460137525 -19.163675621932555 -0.11975371962748937 0 0 Z M-165.33203125 81.3046875 C-167.35061203502582 83.13245716604328 -169.40978352560685 84.88096193541202 -171.5 86.625 C-216.86897083414942 126.43672741872149 -242.74395492649353 188.8322974648846 -247.46044921875 247.95068359375 C-251.70509713412318 313.1356959887604 -230.44688792911145 375.5133712375288 -188.875 425.5625 C-188.41891357421875 426.1192944335937 -187.9628271484375 426.6760888671875 -187.492919921875 427.249755859375 C-185.08323480978854 430.10612297307546 -183.071669027148 431.9032717233017 -179.6875 433.4375 C-179.319237408638 432.9844324541092 -179.319237408638 432.9844324541092 -177.45560550689697 430.69163608551025 C-154.10076851861362 402.02741349538724 -129.83829974971235 374.21853783033987 -104.72280359268188 347.09116220474243 C-103.25438161691741 345.50473373589614 -101.7876361415507 343.9167666599149 -100.32091903686523 342.32876205444336 C-54.98997499045339 293.3109107411718 -11.663849966311432 248.42385021639632 58.900642454624176 244.94401496648788 C72.57896391961918 244.4235719836189 86.16573521105329 244.99813976899054 99.8125 245.9375 C100.84297250270845 246.00619120121002 101.8734450054169 246.07488240242003 102.93514394760132 246.14565515518188 C129.3321415225484 247.9380339074106 155.36309166689767 251.28563533092154 181.3125 256.4375 C181.3306280905776 254.7174878085175 181.34339870189933 252.9974187763163 181.35400390625 251.27734375 C181.36170806884763 250.31948974609372 181.36941223144532 249.3616357421875 181.37734985351563 248.374755859375 C181.27300006955193 243.64842267964036 180.5248642454065 239.0821982676074 179.6875 234.4375 C179.51001220703125 233.4434716796875 179.3325244140625 232.44944335937498 179.149658203125 231.42529296875 C177.3396442502788 221.80618614933917 174.67174323966583 212.6223941736383 171.3125 203.4375 C171.05098144531252 202.7190087890625 170.78946289062497 202.000517578125 170.52001953125 201.26025390625 C153.866071915992 156.41799569174327 118.63428259177846 119.47121825231855 75.3125 99.4375 C30.852396941990776 79.93637893455595 -18.985361644447437 78.11260632172507 -64.538330078125 95.256103515625 C-109.7152372873854 113.04459265856912 -147.2086454781772 148.3080360744606 -166.7744140625 192.91552734375 C-176.55946553970318 216.21601483683625 -182.19235400835976 241.06194326402363 -181.6875 266.4375 C-187.2975 266.4375 -192.9075 266.4375 -198.6875 266.4375 C-196.09056253420673 214.3824699020841 -180.6477630048726 167.129353339222 -144.14697265625 128.96435546875 C-143.16241572678246 127.93434224745693 -142.1830186039171 126.89937540747977 -141.20849609375 125.85986328125 C-128.984607022075 112.85294928683425 -115.07768145753087 102.16779525278002 -99.50390625 93.455078125 C-97.7110088399896 92.45067000605869 -95.9340602936714 91.42143961595359 -94.15625 90.390625 C-73.49716187642531 78.65732601097099 -50.126549789138465 71.78015254826599 -26.6875 68.4375 C-25.394570312500036 68.251875 -24.10164062499996 68.06625 -22.76953125 67.875 C-15.360626018678659 67.09286533085313 -7.879882779053048 67.19311739566017 -0.4375 67.1875 C-0.03615844726562045 67.18716262817382 -0.03615844726562045 67.18716262817382 1.994873046875 67.18545532226563 C14.653818659757462 67.20233770311839 26.894539263734316 67.78685240427482 39.3125 70.4375 C39.723872070312495 70.52330322265625 39.723872070312495 70.52330322265625 41.8056640625 70.95751953125 C78.00163064394513 78.72569878031734 110.51213994857164 95.95322905824003 137.3125 121.4375 C137.580625 121.69200927734374 137.580625 121.69200927734374 138.9375 122.97998046875 C147.2343789118408 130.90877797797287 154.68722901616763 139.0644333486556 161.3125 148.4375 C161.71919921875002 149.0051708984375 162.12589843749998 149.572841796875 162.544921875 150.15771484375 C182.8935357778101 178.76799297153093 193.91841324836577 211.14589067248772 198.0029296875 245.8271484375 C198.42261040582986 249.36597039363778 198.87048724796364 252.90139798370888 199.3125 256.4375 C215.48250000000007 256.4375 231.65250000000003 256.4375 248.3125 256.4375 C244.93768081389942 203.05399651077252 228.197078498466 154.8637178555338 195.3125 112.4375 C194.97541015625 112.00244140625 194.97541015625 112.00244140625 193.26953125 109.80078125 C188.6727946300361 104.03114372888206 183.77430668859114 98.58567969557899 178.75 93.1875 C178.44344482421877 92.8566943359375 178.44344482421877 92.8566943359375 176.89208984375 91.1826171875 C172.60581297666812 86.62809130210542 168.08691880589214 82.47389855058866 163.3125 78.4375 C162.70494873046874 77.9184912109375 162.0973974609375 77.399482421875 161.471435546875 76.86474609375 C81.98461241160078 9.457171374953319 -29.533892526372426 -0.49560810137993627 -165.33203125 81.3046875 Z M22.3125 274.4375 C29.060783569463126 282.310497497707 29.060783569463126 282.310497497707 31.820068359375 285.042724609375 C32.43768539428709 285.6570384216309 33.05530242919923 286.2713522338867 33.69163513183594 286.90428161621094 C34.3386689758301 287.54301712036136 34.98570281982421 288.1817526245117 35.65234375 288.83984375 C36.33752578735351 289.52123916625976 37.02270782470703 290.2026345825195 37.72865295410156 290.90467834472656 C40.629336445401066 293.78917984679083 43.53597382762746 296.66765365817423 46.442138671875 299.546630859375 C48.57681997247954 301.6630854687262 50.70838328394319 303.78264625900226 52.83984375 305.90234375 C53.48485336303713 306.5390550231933 54.12986297607421 307.1757662963867 54.79441833496094 307.83177185058594 C57.853626395540005 310.8747013241342 60.80211947974561 313.95937853269334 63.611480712890625 317.23548889160156 C66.98754685619667 321.1125658876752 70.52061228607312 324.78127577737166 74.165771484375 328.404296875 C74.8105293273926 329.04920074462893 75.45528717041014 329.6941046142578 76.11958312988281 330.3585510253906 C78.22188817661868 332.460167130607 80.32769777301064 334.55823269955727 82.43359375 336.65625 C83.90354455896409 338.12433300257464 85.3732727164662 339.5926389705412 86.84278869628906 341.0611572265625 C90.68905945235525 344.90363136038457 94.53832506111905 348.7430913985115 98.38824462890625 352.5819091796875 C102.32511340473758 356.50850211248076 106.25911131258488 360.4379690578576 110.193359375 364.3671875 C117.89694921537125 372.0600904344519 125.60370934580106 379.74980887148985 133.3125 387.4375 C137.3802186802256 385.59619221661205 139.6303901004452 382.98586763413863 142.3125 379.5 C142.785263671875 378.88954833984377 143.25802734374997 378.2790966796875 143.7451171875 377.650146484375 C153.22647339900965 365.1549624541576 161.18456723937413 351.87266555231946 167.3125 337.4375 C170.9742247450979 338.06428171312484 174.19439949980347 339.08201845991874 177.625 340.5 C178.5080078125 340.8622265625 179.39101562500002 341.22445312499997 180.30078125 341.59765625 C180.9646484375 341.8748046875 181.62851562499998 342.151953125 182.3125 342.4375 C181.8135744506983 348.4148237377122 179.26359357851982 353.04420502927877 176.5 358.25 C176.01225097656254 359.1734521484375 175.52450195312497 360.096904296875 175.02197265625 361.04833984375 C168.3621290845498 373.37360908357596 160.1697014495429 384.5417135505422 151.15234375 395.23828125 C149.470184414237 397.24901523308824 147.88545137413416 399.34023150115445 146.3125 401.4375 C157.2025 412.3275 168.09249999999997 423.2175 179.3125 434.4375 C207.79620021759786 420.19564989120107 226.5166801957855 371.22771211023155 236.125 343.0625 C240.19905519942768 330.70834557236174 243.08660370975485 318.24450463525136 245.3125 305.4375 C245.43705566406254 304.738505859375 245.56161132812497 304.03951171875 245.68994140625 303.3193359375 C247.36794877942316 293.69876033130754 247.73585211816032 284.24051399127416 248.3125 274.4375 C173.73250000000002 274.4375 99.15250000000003 274.4375 22.3125 274.4375 Z M-2.8232975006103516 280.3272018432617 C-3.268523511886599 280.77334964752197 -3.268523511886599 280.77334964752197 -5.521636962890625 283.0311279296875 C-6.017455648183841 283.52523776531217 -6.513274333477057 284.0193476009369 -7.024117827415466 284.52843046188354 C-8.694867084260181 286.19586879279564 -10.358338750615985 287.8703865159546 -12.02197265625 289.544921875 C-13.213941317797321 290.7374543043782 -14.406349806429375 291.92954725450517 -15.599166870117188 293.12123107910156 C-18.845174915677887 296.3666632664089 -22.084962411760444 299.61824269237 -25.323708057403564 302.8709201812744 C-28.70608994197198 306.26577070080424 -32.09410382265776 309.6549907433483 -35.481536865234375 313.0447998046875 C-41.89931348864309 319.4688026001875 -48.31197317284659 325.8978884450255 -54.72283208370209 332.32879400253296 C-62.01989544405285 339.6481810471261 -69.3226115149597 346.961916965693 -76.62581944465637 354.27517223358154 C-91.65269976218804 369.3229803012753 -106.67242967864601 384.37790822180904 -121.6875 399.4375 C-92.00903748642006 429.32255544744066 -49.411674114068006 445.609257583714 -7.6875 447.4375 C-5.047500000000014 447.4375 -2.4075000000000273 447.4375 0.3125 447.4375 C0.3125 453.0475 0.3125 458.6575 0.3125 464.4375 C-47.92432763138672 461.9263364791741 -90.08395428621614 448.2706353596132 -127.8671875 417.71484375 C-130.1036464378114 415.9089496215457 -132.3878649425247 414.16222629310647 -134.6875 412.4375 C-145.5775 423.3275 -156.4675 434.2175 -167.6875 445.4375 C-159.7994619973879 461.2135760052242 -136.73918253094894 473.0737917149101 -121.6875 481.4375 C-120.98753906249999 481.83388671875 -120.28757812500001 482.23027343750005 -119.56640625 482.638671875 C-93.01303710093487 497.5953587155543 -63.82143566698821 507.0913682481046 -33.6875 511.4375 C-32.879580078125 511.55464355468746 -32.071660156250005 511.67178710937503 -31.2392578125 511.79248046875 C31.49922155010256 520.4270401029078 97.60285464831139 502.8213887369009 148.0390625 464.64453125 C154.7032056655794 459.5117456578522 161.13010307523933 454.14558604958063 167.3125 448.4375 C166.00771829325708 445.559157022196 164.62345141350744 443.50114901465304 162.3856964111328 441.27691650390625 C161.7872441101074 440.6771600341797 161.18879180908203 440.0774035644531 160.57220458984375 439.45947265625 C160.24467193603516 439.1363208007813 160.24467193603516 439.1363208007813 158.587158203125 437.5009765625 C157.89585311889647 436.8109857177734 157.204548034668 436.12099487304687 156.49229431152344 435.41009521484375 C154.2038483553062 433.12814395524754 151.90851147966714 430.8532506156772 149.61328125 428.578125 C148.01814275468223 426.9892596025593 146.42352011419916 425.39987615975684 144.8293914794922 423.80999755859375 C140.62605404370163 419.6199729493818 136.41719693532355 415.4355405524042 132.20672607421875 411.252685546875 C125.48425650959064 404.57328530426435 118.76837111095318 397.8872830754335 112.05586814880371 391.19786834716797 C109.71691972441454 388.8690846918943 107.37455298252343 386.54378113189216 105.03181457519531 384.21881103515625 C103.58269551954498 382.7765274467496 102.13368964505167 381.33413012896085 100.684814453125 379.8916015625 C100.03987030029299 379.25339477539063 99.39492614746092 378.61518798828126 98.73043823242188 377.9576416015625 C94.9984283612352 374.2348659614113 91.49055790653802 370.3839915440021 88.04466533660889 366.39606857299805 C85.25578536137004 363.242667129196 82.28331929304557 360.2853131430785 79.294921875 357.322265625 C78.63214736938477 356.66095138549804 77.96937286376954 355.9996371459961 77.28651428222656 355.3182830810547 C75.86140652402901 353.8969514266406 74.435145819637 352.47677499168304 73.00782775878906 351.0576629638672 C70.74299182618131 348.80570943902853 68.48139850150568 346.55054304156045 66.2205810546875 344.2945556640625 C61.420699336708424 339.5060450670294 56.61689696137353 334.7214798055744 51.8125 329.9375 C46.24069459895088 324.38937299602554 40.67055100491518 318.8395985458783 35.10462951660156 313.2855682373047 C32.887199223605194 311.0745731299814 30.666755864881054 308.8666355902975 28.4461669921875 306.6588134765625 C27.073987925005497 305.29027026816897 25.701950933113153 303.9215845874091 24.330078125 302.552734375 C23.721041412353543 301.9488639831543 23.11200469970703 301.3449935913086 22.484512329101563 300.7228240966797 C18.77644473358157 297.0152071304627 15.270207915678952 293.1801755886101 11.849189758300781 289.2059097290039 C9.815193618297258 286.86520397281015 7.682808614513078 284.6394225253232 5.5 282.4375 C4.751054687499959 281.674375 4.002109375000032 280.91125 3.23046875 280.125 C0.4711232173310691 277.6972255191182 -0.0793775301470987 277.89944798342003 -2.8232975006103516 280.3272018432617 Z " fill="#000000" transform="translate(299.6875,34.5625)"/>
</svg>
