<?xml version="1.0" encoding="UTF-8"?>
<!-- Generator: visioncortex VTracer 0.6.12 -->
<svg version="1.1" xmlns="http://www.w3.org/2000/svg" width="600" height="600">
<path d="M0 0 C1.0666992187499886 -0.005110931396473006 2.1333984375000057 -0.010221862792974434 3.232421875 -0.0154876708984375 C6.727109346084887 -0.029283523601151273 10.221597273728776 -0.028433894949557725 13.71630859375 -0.026123046875 C16.170929683490584 -0.030016525914561498 18.625550107164088 -0.03435252705003222 21.080169677734375 -0.0391082763671875 C26.21590358872848 -0.04654983554476644 31.3515687386311 -0.04629496757181073 36.4873046875 -0.041015625 C43.026475792106254 -0.03523538877144006 49.565362325683 -0.052127442475182306 56.1044864654541 -0.07536029815673828 C61.17326467123269 -0.09018957962942409 66.24197588026703 -0.09095669548278806 71.31077194213867 -0.08785057067871094 C73.71939022425883 -0.08835955211324631 76.12801268285324 -0.09351657918051615 78.5366096496582 -0.10366249084472656 C112.96833338306362 -0.2308770545236598 138.14891428445566 9.62652840723564 167.0791015625 27.867919921875 C175.31293808781828 33.055433372309494 183.6738239933452 38.013390399212824 192.05224609375 42.962158203125 C211.62857953769833 54.539295589048436 211.62857953769833 54.539295589048436 220.38427734375 60.149658203125 C222.80080154585892 61.68002975836043 225.2190809067797 63.14934793852706 227.68896484375 64.587158203125 C238.22177349526658 70.81573185014412 238.22177349526658 70.81573185014412 240.23974609375 75.274658203125 C241.679214444776 82.90036251986743 238.1691453736005 90.18559696525438 234.81787109375 96.852783203125 C234.6266366577148 97.24001556396485 234.6266366577148 97.24001556396485 233.65887451171875 99.19964599609375 C232.85363055026664 100.82221237370013 232.0432783514816 102.442252929848 231.22802734375 104.059814453125 C229.99006757323542 106.52401828654683 228.7783280460514 108.99997585992139 227.56787109375 111.477783203125 C226.77775836686823 113.06189255363552 225.98614217769 114.64525309505746 225.19287109375 116.227783203125 C224.83638488769532 116.96119934082031 224.47989868164063 117.69461547851563 224.11260986328125 118.45025634765625 C221.41893005215718 123.7186575190741 218.3909887810741 128.06303327900207 212.5068359375 130.015625 C203.8628050056559 130.0978661718387 196.83843741840622 125.94274656502455 189.36474609375 122.087158203125 C187.1515892852911 120.97415464443952 184.9349168934619 119.86836045757241 182.71817016601563 118.76252746582031 C181.22006918616785 118.01437339577751 179.72314087295894 117.26386664020407 178.22738647460938 116.51103210449219 C171.4248381079184 113.09068194733601 164.53855769097464 109.88044476986545 157.61474609375 106.712158203125 C142.55217537571565 99.780962150937 127.64475559785058 92.53686071929656 112.73974609375 85.274658203125 C112.98478346824646 86.53421703338623 113.22982084274292 87.79377586364745 113.48228359222412 89.09150314331055 C116.00740639049889 102.15689662217565 118.31325721715342 115.24874234748836 120.507568359375 128.373291015625 C120.86449232103791 130.49753080727936 121.22162047156888 132.6217362984995 121.57893371582031 134.74591064453125 C122.54011283016263 140.46338567675377 123.49850052527887 146.18132537437634 124.45638012886047 151.89935398101807 C125.47448685893335 157.97369817981968 126.49531861841609 164.04758442655032 127.51585388183594 170.12152099609375 C129.45583976928555 181.6701462785191 131.39356653382595 193.21914934882398 133.3304004073143 204.7683036327362 C136.1290113319277 221.45558817329515 138.9307076103533 238.14235478106798 141.73302268981934 254.82901763916016 C142.15432610332806 257.3377931348319 142.57562446761256 259.8465694784347 142.99691772460938 262.3553466796875 C143.10051532447335 262.9722578930855 143.10051532447335 262.9722578930855 143.6247819662094 266.09420251846313 C144.86576207341835 273.48512498559654 146.1054185027328 280.87626806363755 147.3439940214157 288.2675938606262 C154.47897832833502 330.8449204019734 154.47897832833502 330.8449204019734 157.98520147800446 351.2003445625305 C158.39824823137786 353.59946209458707 158.8103123874895 355.998746093638 159.22199535369873 358.39809799194336 C159.48131854536445 359.90909689760724 159.74064818374563 361.42009469687844 159.99998474121094 362.93109130859375 C160.12369011104107 363.65200069189063 160.2473954808712 364.37291007518775 160.37484949827194 365.11566519737244 C160.962491316576 368.5361094970207 161.55348781053476 371.95590446157166 162.1525592803955 375.3743667602539 C162.78093435524943 378.96464438811154 163.39982891294318 382.55643780561786 164.016845703125 386.148681640625 C164.19565969467163 387.1508597564698 164.37447368621827 388.15303787231437 164.55870628356934 389.18558502197266 C167.11700397148735 404.24469087210275 167.11700397148735 404.24469087210275 164.17724609375 410.712158203125 C159.88658236175485 415.2228559726584 155.53664848084748 416.4184643851286 149.482177734375 416.6787109375 C147.4549003471414 416.7050930777327 145.42734319133325 416.71401664415816 143.39990234375 416.708251953125 C142.3189781188965 416.71349380493166 141.238053894043 416.7187356567383 140.12437438964844 416.72413635253906 C137.84586442286798 416.7305395773981 135.56732132475327 416.7292416710768 133.288818359375 416.720703125 C129.8167798249387 416.7121938225208 126.34638799253781 416.7409793545776 122.87451171875 416.772705078125 C120.65380908360999 416.7743173815629 118.43310355525318 416.77373900322914 116.21240234375 416.770751953125 C115.69718269348147 416.7763689422608 115.69718269348147 416.7763689422608 113.08985900878906 416.80479431152344 C107.007573093134 416.7464436054688 101.49716306787036 416.41750540223666 96.73974609375 412.274658203125 C94.79701564342804 409.4576086008542 93.77975842559988 406.520249198835 92.73974609375 403.274658203125 C92.4129083251953 402.27250274658195 92.0860705566406 401.2703472900391 91.74932861328125 400.2378234863281 C90.62893003780289 396.6602833022811 89.57290462582864 393.06634343193707 88.52880859375 389.466064453125 C88.12407340373477 388.08823055411176 87.71874732256254 386.7105701132848 87.31288146972656 385.33306884765625 C86.21787556166373 381.6113616872642 85.13023854015842 377.88753869395237 84.04397201538086 374.163272857666 C82.90096997904459 370.24888487243095 81.75160533112677 366.3363677024547 80.602294921875 362.423828125 C80.4855952692032 362.0265433740616 80.4855952692032 362.0265433740616 79.89502429962158 360.01604175567627 C79.41720439854754 358.38943718394614 78.93935771605788 356.7628404791082 78.46148490905762 355.13625144958496 C77.72966571348707 352.64425904054383 76.99870148146641 350.15201697797477 76.26783752441406 347.6597442626953 C72.95961933716549 336.3851464947842 69.61379556359242 325.122191708427 66.24304962158203 313.8661365509033 C65.46897956914279 311.2809989574773 64.69564403370299 308.69564278075757 63.92254638671875 306.11021423339844 C59.77268523397245 292.2337136722851 59.77268523397245 292.2337136722851 57.94439697265625 286.1543273925781 C56.778529503304014 282.2773646602687 55.6177118612643 278.3989250181215 54.46059989929199 274.5193405151367 C54.03397050737016 273.0924916308741 53.60539853947921 271.6662219485496 53.174760818481445 270.2405776977539 C52.58683972155188 268.2935638894171 52.00623957142798 266.34434389893846 51.426025390625 264.39501953125 C51.09853805541991 263.3034504699707 50.771050720214845 262.2118814086914 50.43363952636719 261.0872344970703 C49.73974609375 258.274658203125 49.73974609375 258.274658203125 49.73974609375 254.274658203125 C49.07974609375 254.274658203125 48.41974609375001 254.274658203125 47.73974609375 254.274658203125 C47.642366485595716 254.83397537231446 47.5449868774414 255.3932925415039 47.44465637207031 255.9695587158203 C46.03245625503959 263.56414722561857 43.90446261477652 270.8937212525208 41.68896484375 278.286376953125 C41.277815591325094 279.6706414758373 40.86708107436934 281.05502923820825 40.45672607421875 282.4395294189453 C39.349217775058975 286.17215808700854 38.236346662189106 289.9031666265928 37.1222038269043 293.6338195800781 C35.228817737465334 299.9772901971633 33.34371443236017 306.3232331307867 31.456483840942383 312.6685371398926 C30.718680017306724 315.14841529233547 29.98020452484289 317.6280927824455 29.241683959960938 320.1077575683594 C25.979055627225364 331.06854447123624 22.75202732657874 342.039343966943 19.546987533569336 353.01709938049316 C18.11759823391168 357.9100450043235 16.683493711421647 362.80161127237216 15.249592781066895 367.6932363510132 C14.101576226521246 371.6113523857564 12.956834574778895 375.53036829417886 11.819183349609375 379.4515075683594 C10.74973298854465 383.13731221850367 9.671951668272442 386.82057992034674 8.587989807128906 390.50214195251465 C8.192949010432443 391.84951636953986 7.801000820510296 393.1978021885943 7.412467956542969 394.5470676422119 C2.519720849829554 411.52511432144706 2.519720849829554 411.52511432144706 -3.29931640625 415.187255859375 C-8.264336849722497 416.9106908402342 -13.439832787156774 416.7035613065832 -18.63525390625 416.673095703125 C-19.718549804687484 416.6759658813477 -20.801845703124997 416.67883605957036 -21.91796875 416.6817932128906 C-24.200688934069774 416.6838281258915 -26.483426782927154 416.678338504905 -28.76611328125 416.665771484375 C-32.24893391848076 416.6497104054163 -35.73059412183301 416.66564045445307 -39.21337890625 416.684814453125 C-41.43733978647177 416.6828319206446 -43.66129994819249 416.6789880398612 -45.88525390625 416.673095703125 C-46.920854492187516 416.67916839599616 -47.956455078125 416.6852410888672 -49.0234375 416.6914978027344 C-55.64231427368168 416.62749296986976 -60.803617693213795 416.03996717355403 -66.13525390625 411.774658203125 C-69.84984979136213 406.8218636896422 -68.53786029473619 399.52100355002926 -67.82846450805664 393.78068923950195 C-67.19143940356362 389.59189576303015 -66.50102943006928 385.41509617180304 -65.7919921875 381.238037109375 C-65.52461629301638 379.62671181350083 -65.25795346078199 378.0152680607705 -64.99194145202637 376.4037170410156 C-64.26643628076216 372.02107144957563 -63.53095764888563 367.64015173078815 -62.79370880126953 363.25946855545044 C-62.0092255844676 358.58747313633523 -61.23403494587515 353.9139356130392 -60.457763671875 349.2405700683594 C-59.13136165832525 341.26293975956054 -57.79918076410247 333.2862926793606 -56.46295166015625 325.310302734375 C-54.55877448311604 313.9439651160742 -52.66417155373253 302.5760480704629 -50.77203154563904 291.2077012062073 C-46.614074076456916 266.227906257582 -42.43961761389966 241.2508793842835 -38.26025390625 216.274658203125 C-38.11854263305662 215.42774602890017 -37.9768313598633 214.5808338546753 -37.83082580566406 213.7082576751709 C-36.66714273324257 206.75373766633703 -35.50337736455492 199.79923143820696 -34.339250564575195 192.84478569030762 C-33.21099608602077 186.10460022084038 -32.083076381615456 179.3643593624342 -30.956268310546875 172.62393188476563 C-30.74860902786253 171.3817735099792 -30.54094974517824 170.1396151351929 -30.326997756958008 168.85981559753418 C-29.92309612281369 166.44371059286834 -29.51922931894319 164.02759976530274 -29.115400314331055 161.61148262023926 C-27.975899232055497 154.79667509195747 -26.831786595859853 147.9826626440663 -25.683734893798828 141.16929054260254 C-24.992621011165397 137.0638694043406 -24.304617513027694 132.95793138458293 -23.617401123046875 128.85185623168945 C-23.30661003794401 126.99943448817515 -22.99440608576242 125.14724910821411 -22.680633544921875 123.29533004760742 C-22.262258028069596 120.82549724281273 -21.848776516371174 118.35489409775585 -21.4365234375 115.884033203125 C-21.31527162551879 115.17606409072874 -21.19401981353758 114.46809497833249 -21.069093704223633 113.73867225646973 C-20.486296345252896 110.21263499136984 -20.130438218455566 106.84935868694873 -20.26025390625 103.274658203125 C-20.975683593750006 104.111259765625 -21.69111328125001 104.94786132812499 -22.42822265625 105.809814453125 C-28.392527042522033 112.77897446969286 -34.3781910906342 119.72876562345675 -40.392822265625 126.654541015625 C-44.118926326471836 130.94827851016942 -47.819181859175785 135.2632972172272 -51.51025390625 139.587158203125 C-54.93466339525234 143.59813321043822 -58.397521188326465 147.5612092548347 -61.94775390625 151.462158203125 C-64.97738258986257 154.79692934407984 -67.86633482892222 158.20753458992908 -70.69775390625 161.712158203125 C-84.55963442707136 178.8198663811105 -84.55963442707136 178.8198663811105 -89.51025390625 179.653564453125 C-95.29704879547394 180.03989877101355 -98.7304005305397 179.5052185856258 -103.32275390625 175.837158203125 C-104.9918122907772 174.34185037597763 -106.63752213613493 172.82011703180603 -108.26025390625 171.274658203125 C-109.90375394056645 169.79289944202696 -111.54959949562478 168.31373817983655 -113.19775390625 166.837158203125 C-114.01373046875 166.09079101562497 -114.82970703125 165.344423828125 -115.67041015625 164.575439453125 C-119.27074657314216 161.37695053977734 -123.03152030062256 158.3934864058055 -126.81494140625 155.415283203125 C-131.26919579516073 151.51603175724148 -134.0109129182963 148.23821848326043 -134.76025390625 142.337158203125 C-134.61257005692352 133.0773808503543 -126.79121675971976 125.52874481972378 -121.369384765625 118.5927734375 C-117.78438309661291 114.00229550739607 -114.34850817838702 109.31541992736504 -110.94775390625 104.587158203125 C-110.67370727539063 104.20615966796873 -110.67370727539063 104.20615966796873 -109.286865234375 102.278076171875 C-108.1670704908039 100.71940545315994 -107.04785149362954 99.16032094536854 -105.92919921875 97.600830078125 C-103.23257758455354 93.84228547153873 -100.52902326569385 90.0887605988409 -97.82275390625 86.337158203125 C-97.28932373046875 85.59763916015623 -96.7558935546875 84.8581201171875 -96.206298828125 84.09619140625 C-91.67586972310134 77.82689198406223 -87.08781521644255 71.60105447317582 -82.490966796875 65.38037109375 C-78.54617886992958 60.036295776894605 -74.64109817080464 54.66531037334198 -70.76025390625 49.274658203125 C-66.15406879090764 42.88588933569369 -61.53579838520855 36.50623129842876 -56.88525390625 30.149658203125 C-56.605849609375 29.76487304687501 -56.605849609375 29.76487304687501 -55.19189453125 27.817626953125 C-44.373452260611174 13.075730589091592 -32.5936593669841 3.8672553189174153 -14.227863311767578 0.6787815093994141 C-9.479571280124901 0.03216828886704093 -4.785834841677627 -0.012085813711223636 0 0 Z M-38.7265625 35.13134765625 C-40.12435914431961 37.07537188617084 -41.48024163689627 39.04206997011795 -42.82275390625 41.024658203125 C-43.86521123314631 42.53242407701791 -44.90955665420847 44.03888589320431 -45.95556640625 45.544189453125 C-46.494716796875 46.3210107421875 -47.03386718749999 47.09783203124999 -47.58935546875 47.898193359375 C-50.392544339299405 51.88507829010672 -53.29482220582244 55.79760488338536 -56.19775390625 59.712158203125 C-60.75851150947305 65.87158992848208 -65.28404281761199 72.05349502267745 -69.76025390625 78.274658203125 C-74.79864635271582 85.27476694813873 -79.89866631044312 92.22698347634946 -85.025390625 99.16259765625 C-89.01675822029615 104.56884465598813 -92.96248590098719 110.0059820107922 -96.88525390625 115.462158203125 C-102.89596127486797 123.81983348035402 -109.0514702357674 132.06340196144168 -115.26025390625 140.274658203125 C-112.46369286304568 144.0034062607308 -109.52892105828445 146.8760546424029 -105.88525390625 149.774658203125 C-104.92232421874999 150.546806640625 -103.95939453125 151.318955078125 -102.96728515625 152.114501953125 C-102.07396484374999 152.82735351562496 -101.18064453125 153.54020507812504 -100.26025390625 154.274658203125 C-98.25159504078843 155.93132351501998 -96.2560488951092 157.6025056448916 -94.26025390625 159.274658203125 C-89.88109679949115 157.69358485341638 -87.43564471912089 154.25288969287078 -84.57275390625 150.774658203125 C-83.50089452874201 149.49642711911736 -82.42797057029378 148.21908801159793 -81.35400390625 146.942626953125 C-80.82806640625 146.31533691406253 -80.30212890625 145.688046875 -79.76025390625 145.041748046875 C-77.75069706474756 142.67436972350345 -75.66843013593996 140.37838168664166 -73.57275390625 138.087158203125 C-70.54312522263737 134.7523870621701 -67.65417298357781 131.34178181632097 -64.82275390625 127.837158203125 C-60.95850626979593 123.05893199526611 -56.878766810954545 118.53239802436326 -52.71728515625 114.012939453125 C-50.366492580372565 111.39305774296588 -48.14774931360685 108.70913601523603 -45.94775390625 105.962158203125 C-42.26593482018484 101.42059170124071 -38.44591173124809 97.03356702744694 -34.51025390625 92.712158203125 C-33.96715576171874 92.10396240234377 -33.424057617187486 91.49576660156248 -32.864501953125 90.869140625 C-29.280701878092884 86.98132062659033 -26.450800802753008 84.76727406147197 -21.08447265625 83.938720703125 C-15.345125294239722 83.83379661972447 -10.905810783413585 84.77213902259984 -6.26025390625 88.274658203125 C-1.091535712163136 94.34790208117704 -1.903530121112567 100.60062244413268 -2.26025390625 108.274658203125 C-2.696281550032836 112.46914179162991 -3.3649530328938795 116.60343242337967 -4.08251953125 120.75810241699219 C-4.18052478790284 121.35098215252162 -4.18052478790284 121.35098215252162 -4.676490783691406 124.35131293535233 C-5.2161642027098765 127.60307168289916 -5.765154818786044 130.85308841340782 -6.318317413330078 134.10257422924042 C-6.914997988443815 137.62191936442287 -7.499324032905463 141.14331848676187 -8.085205078125 144.6644744873047 C-9.099842398997737 150.75229389140384 -10.122108936881148 156.8387914108074 -11.149658203125 162.9244441986084 C-12.635604607034452 171.72519395488757 -14.109466715400742 180.5279344806367 -15.58040714263916 189.33120319992304 C-17.968166715902015 203.6196315288321 -20.36508762418805 217.90650668786748 -22.76806640625 232.1923828125 C-25.1003139412434 246.05790443796764 -27.429024225090558 259.9240114115913 -29.75244140625 273.791015625 C-29.895817193984982 274.6467241396755 -30.039192981719964 275.50243265435097 -30.18691349029541 276.38407173007727 C-31.611991670083967 284.88978073434527 -33.036508764724346 293.3955836880604 -34.46087121963501 301.9014125727117 C-35.014260881539656 305.2060584674451 -35.56767753333742 308.5106998416295 -36.12110996246338 311.8153385743499 C-36.39411693282682 313.44552166290725 -36.66711389041939 315.07570642833724 -36.94010066986084 316.70589289814234 C-38.6781941439867 327.084792139311 -40.41929127485491 337.4631815919368 -42.1636962890625 347.84102189540863 C-43.04204887037744 353.06662540419194 -43.91937222957819 358.2924015321175 -44.796403884887695 363.5182268843055 C-45.491017465658615 367.6565518163137 -46.18701056050696 371.7946415296112 -46.88406801223755 375.9325554780662 C-47.403323871667624 379.01749979366605 -47.920497392316065 382.10279326036255 -48.43798828125 385.1880340576172 C-48.531371040344254 385.74098399251693 -48.531371040344254 385.74098399251693 -49.003944396972656 388.5392457842827 C-49.171147384643575 389.53842872202404 -49.33835037231445 390.53761165976516 -49.5106201171875 391.56707286834717 C-49.65643272399902 392.43414212405673 -49.80224533081055 393.3012113797665 -49.952476501464844 394.1945554614067 C-50.26025390625 396.274658203125 -50.26025390625 396.274658203125 -50.26025390625 398.274658203125 C-38.05025390624999 398.274658203125 -25.840253906249984 398.274658203125 -13.26025390625 398.274658203125 C-11.36094638153918 393.84294064546634 -9.756194049694159 389.956065544528 -8.432861328125 385.412109375 C-8.267868881225581 384.84975334167484 -8.267868881225581 384.84975334167484 -7.4329071044921875 382.00389099121094 C-7.08073623657225 380.78742385864257 -6.72856536865234 379.5709567260742 -6.36572265625 378.317626953125 C-5.982049600884835 377.00456279459627 -5.597948317606978 375.69162369955995 -5.2134552001953125 374.37879943847656 C-4.387133868433182 371.55484020749077 -3.563342763584842 368.7301599641586 -2.741455078125 365.9049072265625 C-1.4348850644682045 361.41488129478216 -0.12086046198220401 356.92705968919756 1.19482421875 352.439697265625 C1.649078692258115 350.890167331052 2.1033328393780835 349.34063730079623 2.557586669921875 347.7911071777344 C2.7857192611694472 347.01296031951904 3.013851852416991 346.2348134613037 3.2488975524902344 345.4330863952637 C4.1927805733324135 342.2126676293482 5.135739431609295 338.99197853530785 6.078733444213867 335.7712993621826 C10.55420203766431 320.48703992410225 15.036176434247324 305.2047210247587 19.551888465881348 289.93229579925537 C20.764068213969807 285.83208155120116 21.973458152010977 281.7310929727083 23.175933837890625 277.6280212402344 C24.310754963982305 273.755843035378 25.452647962441972 269.88582072020495 26.599878311157227 266.01730155944824 C27.019677117431712 264.5972234638427 27.43693879623828 263.17639236569505 27.85140037536621 261.75474739074707 C33.67209410865317 241.80520434741783 33.67209410865317 241.80520434741783 40.73974609375 237.274658203125 C46.175916626620904 235.46260135883472 51.72189795659372 235.56467459931076 57.11474609375 237.462158203125 C62.314017041367464 241.05213100028948 64.35156224748556 245.24573219945046 66.216064453125 251.17431640625 C66.42533789634706 251.8314050006867 66.63461133956909 252.48849359512326 66.85022640228271 253.16549396514893 C67.49299191044969 255.19812449733513 68.1187257002677 257.2352894489195 68.73974609375 259.274658203125 C69.10576934814452 260.4661044311523 69.47179260253907 261.6575506591797 69.84890747070313 262.8851013183594 C70.95677380610306 266.54501745552943 72.04091088755126 270.2112310995414 73.11865234375 273.880126953125 C73.52783533470256 275.2660359841954 73.93724589157958 276.6518778441639 74.34686279296875 278.03765869140625 C75.44163169039476 281.7438290766131 76.53315368866453 285.4509481159814 77.62399673461914 289.15827560424805 C78.76967310225086 293.0499178325778 79.91837774309329 296.94066618845085 81.066650390625 300.83154296875 C83.71682677233275 309.8140777936223 86.36202859976606 318.79807366028257 89.00619506835938 327.7823791503906 C89.98507122120196 331.1081635150866 90.96424848341172 334.4338591964328 91.94341945648193 337.7595567703247 C97.88184897511024 357.92940158112475 103.81315504467807 378.1013316354463 109.73974609375 398.274658203125 C122.27974609374996 398.274658203125 134.81974609375004 398.274658203125 147.73974609375 398.274658203125 C144.72371544103441 380.12404841442003 141.70494176224696 361.97389733283427 138.68383955955505 343.8241311311722 C137.88971754396192 339.05318568723277 137.0958674048536 334.28219510115304 136.3022174835205 329.5111711025238 C129.88632661494364 290.94311526147993 123.43344297929184 252.38163308827387 116.8954849243164 213.83406448364258 C115.91812702560367 208.07149174137658 114.94175243909888 202.30875266126907 113.96551513671875 196.54598999023438 C113.32291999220718 192.7532274045526 112.68027024191957 188.96047407358486 112.03759765625 185.167724609375 C111.87974902629855 184.2361282515526 111.72190039634705 183.3045318937302 111.55926847457886 182.34470534324646 C109.66781153507259 171.18281204959044 107.7717109520836 160.0217259541941 105.86894536018372 148.8617547750473 C104.66846631574128 141.81901391682993 103.47257292691495 134.7755039875766 102.28012919425964 127.73139822483063 C101.45536331065705 122.86075489380335 100.62514395412825 117.99108635117142 99.79057431221008 113.12211382389069 C99.28303874650851 110.15271217987447 98.78101191706497 107.1823993078304 98.2805905342102 104.21179127693176 C97.94146639627712 102.20845330923217 97.59580744537135 100.20622492219849 97.24990463256836 98.20404624938965 C94.36823096021476 80.99766827237056 94.36823096021476 80.99766827237056 98.73974609375 73.274658203125 C102.1011097891809 69.50337210581228 104.49668526277276 68.00383660803661 109.48974609375 67.212158203125 C119.35130489572452 66.83709500660876 128.79902618471317 73.12805764222685 137.42724609375 77.337158203125 C139.23440249426596 78.21270849070277 141.04156120605262 79.08825411794817 142.8489532470703 79.96331787109375 C144.66717148101753 80.84399717425401 146.48476039345155 81.72596439469706 148.30224609375 82.608154296875 C153.17095326171955 84.9685090645284 158.04690107316497 87.3134728203928 162.92724609375 89.649658203125 C163.81959960937502 90.07682128906248 164.71195312499998 90.50398437500002 165.63134765625 90.944091796875 C179.296054232607 97.46793312692108 193.0221342836739 103.86303837161464 206.73974609375 110.274658203125 C210.40294259157946 105.64813440328064 212.80529633755503 100.47297352039362 215.42724609375 95.212158203125 C215.938359375 94.20604492187499 216.44947265625 93.19993164062498 216.97607421875 92.163330078125 C217.45882812500003 91.19846679687498 217.94158203125 90.23360351562502 218.43896484375 89.239501953125 C218.88071044921872 88.35899169921873 219.3224560546875 87.4784814453125 219.777587890625 86.5712890625 C220.73974609375 84.27465820312494 220.73974609375 84.27465820312494 220.73974609375 81.274658203125 C218.67382812499994 79.71923828124997 218.67382812499994 79.71923828124997 215.74755859375 78.044189453125 C214.66385986328123 77.41472412109374 213.58016113281252 76.78525878906251 212.463623046875 76.13671875 C211.87860015869143 75.80360687255859 211.2935772705078 75.47049499511718 210.69082641601563 75.12728881835938 C207.56536862587353 73.34703616763471 204.46110026283407 71.53034320144883 201.35302734375 69.719970703125 C200.71280136108396 69.34851425170899 200.07257537841798 68.97705780029298 199.41294860839844 68.59434509277344 C193.22273146716054 64.99582040139222 187.13349690375463 61.24153130400023 181.05224609375 57.462158203125 C171.78327207446438 51.7333924579853 162.48494055144357 46.055785795669124 153.13485717773438 40.460357666015625 C151.77477232687193 39.64519962071978 150.41616063486492 38.82757715753911 149.05923461914063 38.007171630859375 C116.29913594128413 18.216250249202034 116.29913594128413 18.216250249202034 98.77072143554688 18.127487182617188 C97.79528884887696 18.120331878662114 96.81985626220705 18.11317657470704 95.81486511230469 18.105804443359375 C94.75608657836915 18.10311553955077 93.69730804443361 18.100426635742195 92.6064453125 18.09765625 C91.48221664428712 18.09108505249023 90.35798797607424 18.084513854980457 89.19969177246094 18.077743530273438 C85.48127166300054 18.058042955675518 81.76289190271825 18.046354503642647 78.04443359375 18.036376953125 C76.77193881988526 18.032301425933838 75.4994440460205 18.028225898742676 74.18838882446289 18.02402687072754 C68.14582876124109 18.005326503955274 62.103293002147495 17.990758524947978 56.06071174144745 17.98241490125656 C49.11098553614869 17.97265749916528 42.16157909584257 17.94637076076077 35.211965441703796 17.9059140086174 C29.172625835959764 17.87197643787684 23.133440017571672 17.860258556624842 17.093997955322266 17.856210708618164 C14.535267722402807 17.851351881797996 11.976540730040028 17.83975813961044 9.41787338256836 17.8211727142334 C5.828131012896449 17.79672042090627 2.239214917133012 17.797758089822338 -1.3505859375 17.8046875 C-2.397219085693365 17.791877441406257 -3.44385223388673 17.779067382812514 -4.5222015380859375 17.765869140625 C-18.758006684548803 17.86548185302877 -29.967700444626132 24.04058076795195 -38.7265625 35.13134765625 Z " fill="#000000" transform="translate(177.26025390625,149.725341796875)"/>
<path d="M0 0 C5.939999999999998 0 11.879999999999995 0 18 0 C18.153479003906227 2.024875488281225 18.30695800781251 4.049750976562507 18.465087890625 6.135986328125 C20.50344423173476 32.5767389519508 23.073918794326346 58.96057716913327 25.706298828125 85.347900390625 C26.316824669785035 91.46823855097807 26.921492867403913 97.58913941822868 27.524694442749023 103.71020317077637 C31.75543839355339 146.60998403395513 31.75543839355339 146.60998403395513 33.917558670043945 165.7921848297119 C34.076041157935606 167.20642089361957 34.23128781576838 168.6210243471695 34.38287162780762 170.0360164642334 C36.15890697845157 186.5125919782888 36.15890697845157 186.5125919782888 40.6484375 192.0234375 C41.218203125 192.46945312499997 41.787968750000005 192.91546874999995 42.375 193.375 C42.93960937500003 193.83648437500005 43.50421875000001 194.29796875 44.0859375 194.7734375 C48.88977591412015 197.85181558578313 53.27553016404124 198.29751118381364 58.876220703125 198.29052734375 C59.654139709472645 198.29724456787108 60.43205871582029 198.30396179199215 61.233551025390625 198.31088256835938 C63.79769329403945 198.32983375010872 66.36157335991498 198.3337854285994 68.92578125 198.3359375 C70.71551112945826 198.34236793273442 72.5052399604213 198.34909647774475 74.29496765136719 198.35610961914063 C78.04489578911318 198.368075538492 81.79473185593531 198.37179119870734 85.544677734375 198.37060546875 C90.33627811433422 198.37040243483557 95.12728436162229 198.39769142609725 99.91874408721924 198.43214988708496 C103.61550069484957 198.4544520005379 107.31211513397722 198.4584419805184 111.00893211364746 198.4573860168457 C112.77468091521496 198.45973749111477 114.54043390380605 198.4685353666946 116.30611610412598 198.48405075073242 C118.78302513179267 198.50377633909523 121.25866364741819 198.49784755119663 123.735595703125 198.48583984375 C124.09599189758302 198.49145935058596 124.09599189758302 198.49145935058596 125.91981506347656 198.5198974609375 C131.86661872922167 198.4471026416345 137.09828339360996 196.67142633479943 141.53363513946533 192.58807945251465 C146.7154489202578 186.6946280409552 147.4735172372781 180.69890250037292 148.3056640625 173.19775390625 C148.42032264709474 172.2110357284546 148.53498123168947 171.22431755065918 148.65311431884766 170.20769882202148 C149.0318478044088 166.92316887966297 149.39926507302926 163.63749416483597 149.765625 160.3515625 C150.03003081652196 158.02006825888623 150.29445583937797 155.68857619581843 150.55889892578125 153.35708618164063 C153.45217042563263 127.63168831614615 155.93619600885802 101.86603815694662 158.39459228515625 76.09613037109375 C159.34709745276905 66.12337018667847 160.3089849682483 56.15150907193731 161.2698745727539 46.1795539855957 C161.59820893414349 42.76457484788148 161.9244259532079 39.349399401938626 162.25018310546875 35.934173583984375 C163.39787975856677 23.94285734450159 164.63524011533684 11.968677817450782 166 0 C171.61 0 177.22000000000003 0 183 0 C183.41147561355115 14.050416192150067 181.94338935911753 27.85740537308203 180.53957962989807 41.825355052948 C180.186133706894 45.35572488441426 179.84043655973778 48.88685542253148 179.4935760498047 52.417877197265625 C178.90760776396053 58.37105548530508 178.3158718578161 64.32363823481336 177.720458984375 70.27587890625 C177.11841790983692 76.29485883368716 176.52185253211098 82.31434512063186 175.931396484375 88.33447265625 C170.41798029909103 144.53500856888508 170.41798029909103 144.53500856888508 167.62564659118652 168.50099563598633 C167.42876671557872 170.1995755637106 167.23618403169348 171.8986606053861 167.04847145080566 173.5982780456543 C165.5319437743549 187.22514278518713 162.938306834924 199.63715012518844 151.828125 208.7890625 C144.18167057254868 214.141580599216 137.13779288496391 216.45563584626325 127.89697265625 216.404052734375 C127.4606325531006 216.40748435974115 127.4606325531006 216.40748435974115 125.25248718261719 216.4248504638672 C122.38950983167501 216.44303738758663 119.52708480043839 216.4392921912106 116.6640625 216.43359375 C114.65920841287937 216.43815978921316 112.65435588915602 216.44346661759948 110.64950561523438 216.44947814941406 C106.45507433471863 216.45839362842264 102.26083360773282 216.45600432450738 98.06640625 216.446044921875 C92.71122067049401 216.4345637908965 87.35669534285466 216.45476185164057 82.00159645080566 216.483962059021 C77.86296460915742 216.50237587706022 73.72448943230808 216.50202116527987 69.5858268737793 216.49632453918457 C67.61241098683092 216.49617192434005 65.63898407487778 216.50216643505428 63.66560745239258 216.51461601257324 C43.92150484786754 216.6216302970363 43.92150484786754 216.6216302970363 36 212 C35.109257812500005 211.4933984375 34.21851562500001 210.98679687499998 33.30078125 210.46484375 C24.541189421861986 203.7359627975403 18.841481495053472 194.6628894464386 17.323333740234375 183.65878295898438 C17.114149330886733 181.94700966314917 16.91230087733709 180.2343299661237 16.71630859375 178.52099609375 C16.60337589263918 177.5738939285278 16.4904431915283 176.62679176330562 16.374088287353516 175.6509895324707 C15.999602093387296 172.48431110391243 15.635857730866348 169.31651826938787 15.2734375 166.1484375 C15.20910711288451 165.5941374778747 15.20910711288451 165.5941374778747 14.883556365966797 162.78904342651367 C11.644452344726972 134.84013317410188 8.911617758227123 106.84035325522552 6.223253011703491 78.83429789543152 C5.685197926625847 73.23556378877777 5.138415858965402 67.63770540275806 4.589818596839905 62.03999578952789 C4.0500980229908805 56.53011947925722 3.515272052064688 51.01978310835926 2.984373450279236 45.50904977321625 C2.6718925125471173 42.265750804137554 2.357244496701867 39.02269214678404 2.038959503173828 35.77995681762695 C1.6887302338445238 32.20362716688561 1.3465397913969923 28.62661294375232 1.00634765625 25.04931640625 C0.9035650634765489 24.01668670654294 0.8007824707030977 22.98405700683594 0.69488525390625 21.920135498046875 C0.00965632586189713 14.588746711775855 -0.08058980174456565 7.363546101663474 0 0 Z " fill="#000000" transform="translate(374,349)"/>
<path d="M0 0 C10.510974136106313 9.854038252599665 15.025928199506268 21.623577881464996 15.80859375 35.828125 C15.825406837028197 50.00155736477626 10.82259193506286 63.02602650139673 0.8125 73.12109375 C-10.786339762253988 83.02379593993027 -22.847030582448724 87.69948745051008 -38.11328125 87.3671875 C-52.474499932105516 86.21756008326219 -64.4921358708151 79.66842309264578 -74.1875 69.12109375 C-83.46397742570153 56.61281128566695 -86.99832432978059 42.39786886715649 -84.7265625 26.99609375 C-81.73479786542299 13.480357047910871 -74.43164475923251 2.0981508458252023 -62.9375 -5.69140625 C-41.989734320964885 -18.230971538422395 -18.28530173323668 -15.705768095869345 0 0 Z M-61.1875 17.12109375 C-67.00219514511761 25.488907912858906 -68.01497282210812 33.016601682848915 -67.1875 43.12109375 C-64.96940618323725 52.18359134420203 -60.11272983877345 59.56959952589759 -52.1875 64.49609375 C-43.68743561156333 69.37273325490436 -35.092937135914894 70.60153998489398 -25.47265625 68.5390625 C-16.602999869634942 65.47041361011067 -9.403313007022064 59.131633709063024 -5.125 50.80859375 C-1.4081473135454985 42.594481585273144 -0.9192189712990171 34.217093041843086 -3.625 25.55859375 C-7.382541259512834 16.342729397721143 -13.93996184000602 10.026984608225945 -22.92578125 5.9609375 C-37.57317389629941 0.5219229594915831 -51.15189140751528 5.801650544782994 -61.1875 17.12109375 Z " fill="#000000" transform="translate(260.1875,47.87890625)"/>
<path d="M0 0 C5.751834762207693 5.001093277180587 8.913459617180251 10.439023109244147 10 18 C10.481180229290544 26.203536104246325 8.305041758364155 32.704390278455776 3 39 C-3.9513006812330786 44.91702410928491 -9.815855693885794 46.43875890092079 -18.828125 46.33984375 C-25.52599181138413 45.62221516306596 -30.90650406013208 42.556771993517145 -35.4375 37.625 C-40.82312027214965 30.500114257524388 -42.027107422510426 23.77606231011663 -41 15 C-38.65113435903288 6.602173918047697 -33.53128337012555 1.2824944653655166 -26 -3 C-17.081785532178912 -6.121375063737389 -7.8427086413180405 -5.613557015051299 0 0 Z " fill="#000000" transform="translate(473,304)"/>
</svg>
