<?xml version="1.0" encoding="UTF-8"?>
<!-- Generator: visioncortex VTracer 0.6.12 -->
<svg version="1.1" xmlns="http://www.w3.org/2000/svg" width="2500" height="2500">
<path d="M0 0 C1.304873392533068 -0.0029288649628824714 2.609746785066079 -0.005857729925764943 3.9541617955546826 -0.008875348372384906 C7.559413320875706 -0.016683594991718564 11.164557206830239 -0.012163371702399672 14.769807143136859 -0.005539530888199806 C18.71296673258655 -0.0005291581100834719 22.656110225236944 -0.007203761051670199 26.59926727414131 -0.01234319806098938 C33.53117629598489 -0.019776869292343235 40.463054582996165 -0.019791950442225925 47.39496544748545 -0.01495371013879776 C57.77234424001608 -0.007746425241379029 68.14969655632711 -0.012078698179976755 78.52707464256673 -0.01863505956134759 C96.2140973383344 -0.02946840705240561 113.90110938722376 -0.03079145314373477 131.58813446760178 -0.026936709880828857 C149.512714964211 -0.02306138894098808 167.43728752055142 -0.023514007455560204 185.36186760663986 -0.029246509075164795 C186.49390299848574 -0.02960533477190097 187.6259383903316 -0.029964160468665568 188.79227788496064 -0.03033385967137292 C193.4028691652045 -0.03180876363634866 198.01346043456215 -0.0333131587075286 202.62405169280828 -0.03485532585182227 C249.43550698164108 -0.05049446151113557 296.24695682053095 -0.05316883808276884 343.0584142548323 -0.05069926360738464 C349.5275260627956 -0.050360821448208526 355.9966378713764 -0.05003872400712339 362.46574968099594 -0.04973357915878296 C363.75065016854023 -0.04967253566661611 365.03555065608475 -0.04961149217444927 366.35938752203947 -0.0495485988794826 C394.82759890443435 -0.04827700356634068 423.29580953675804 -0.050877531241525276 451.7640206970391 -0.05425964604364708 C458.2632221255907 -0.05503038557651507 464.76242355714487 -0.05577511178418604 471.2616249881685 -0.05652466043829918 C473.86999001488107 -0.056826352116047474 476.4783550415717 -0.05712823312620685 479.08672006824054 -0.057430302957072854 C480.37963381497684 -0.057579982809556896 481.67254756171315 -0.057729662662012515 483.004640512896 -0.057883878267602995 C485.61982836231675 -0.05818740761998242 488.2350162116039 -0.05849208995527988 490.85020406075637 -0.0587979226547759 C521.351669836443 -0.062362972061862365 551.8531356558345 -0.0652303801826406 582.3546015620232 -0.06739062070846558 C582.6868870767785 -0.06741424012568586 582.6868870767785 -0.06741424012568586 584.3684531666004 -0.0675337686916464 C626.7145678723771 -0.07052840028569562 669.0606819399912 -0.07040357105665862 711.4067966690127 -0.06796984555694507 C713.4889474450745 -0.0678502572283719 715.5710982212015 -0.06773187523688762 717.653248997347 -0.06761375576024875 C732.9797159994641 -0.06674233403020935 748.3061829978765 -0.06581173515857586 763.6326499953866 -0.06486312299966812 C765.0304008956145 -0.06477673751675184 766.4281517958434 -0.06469036447623466 767.8259026960732 -0.06460400387004483 C769.224224850429 -0.06451756691694754 770.6225470047846 -0.06443112405250417 772.0208691591397 -0.06434467528015375 C772.7132410860909 -0.06430188511771462 773.4056130130418 -0.06425909495524706 774.1189659074762 -0.0642150081212094 C777.6173741047974 -0.06399861773138582 781.115782302048 -0.06378117591739851 784.6141904991819 -0.06356177653651685 C850.6931885624131 -0.05942300601392958 916.7721834355843 -0.058346370945514536 982.8511807322502 -0.07072180509567261 C983.1990459248555 -0.07078694636115301 983.1990459248555 -0.07078694636115301 984.9594546268272 -0.07111660064401804 C1005.9980259358392 -0.07506852760104721 1027.0365971583735 -0.07942808583345595 1048.075168365016 -0.08388775795174297 C1071.0802396461206 -0.08876384356210565 1094.0853109340535 -0.09359777573672545 1117.0903822779655 -0.09816950559616089 C1117.777188072363 -0.09830627640775447 1118.4639938667603 -0.09844304721934805 1119.1716119579578 -0.09858396260096924 C1162.1862675716045 -0.10713887366503627 1205.2009222718825 -0.11204235526804496 1248.2155787348747 -0.11287707090377808 C1248.879949340005 -0.11289034242881257 1249.5443199451354 -0.11290361395381865 1250.2288229928454 -0.11291728764626896 C1280.0611179335647 -0.11350552551405713 1309.8934128222381 -0.11315315151188088 1339.7257077446848 -0.11191725471871905 C1350.1598376387924 -0.11149162149934 1360.5939675350191 -0.11112649919164141 1371.0280974322814 -0.11078781419200823 C1373.6238822317932 -0.11070251161052624 1376.2196670311885 -0.11061357641685277 1378.815451830451 -0.1105209945817478 C1420.193976266025 -0.10907163775434014 1461.5724936188687 -0.1162022349410563 1502.9510163542582 -0.12752495508175343 C1545.7778155916649 -0.13916810697082838 1588.604602175692 -0.1397462208846889 1631.4314014688134 -0.12768153101205826 C1636.029097272968 -0.12642967748379874 1640.626793087149 -0.1252261965025525 1645.224488914013 -0.12406080961227417 C1646.352853394134 -0.12377051548742202 1647.4812178742548 -0.12348022136254144 1648.6437752174097 -0.12318113044602796 C1666.5198352363436 -0.11885353850840374 1684.395877295772 -0.12459038874740713 1702.2719344947545 -0.13450100240879692 C1719.8439360082252 -0.14403163311141043 1737.415909767994 -0.1428719851932101 1754.9879096623044 -0.13029477815143764 C1765.292928600249 -0.12323848794676451 1775.597867798674 -0.12438593271528475 1785.9028810739692 -0.13764316026936285 C1792.7471524883795 -0.14562831358094286 1799.591363546264 -0.1427300954910038 1806.435629413958 -0.13099352343124337 C1810.3152118543003 -0.12464459746382772 1814.1946367723003 -0.1228910761654447 1818.0742104314268 -0.1345607303082943 C1845.929517360913 -0.2125965379985928 1871.8181470358213 1.5784052383997107 1893.123092353344 21.896380245685577 C1893.904264228344 22.673684933185598 1894.6854361033438 23.45098962068556 1895.490279853344 24.251848995685577 C1896.2508267283438 24.977591183185552 1897.011373603344 25.703333370685584 1897.794967353344 26.451067745685577 C1913.6769364738016 42.63528887362605 1918.6573711364317 63.98295573088387 1918.6179303526878 85.97790598869324 C1918.6187557420644 86.62442514436435 1918.6187557420644 86.62442514436435 1918.6229327125475 89.89620390185155 C1918.6273842324126 93.49618994427362 1918.6256038039082 97.09615027104991 1918.6228309292346 100.69613700732589 C1918.6209094194273 104.62314964208952 1918.6247900563003 108.55015727087789 1918.6279277205467 112.47716853022575 C1918.632644656178 119.38994980638267 1918.6336250963736 126.30272392333802 1918.6321993768215 133.21550654619932 C1918.6300806812806 143.56434888902868 1918.6336881370562 153.91318380530078 1918.6384141504532 164.26202500311774 C1918.646293588054 181.89808956455067 1918.6493765001624 199.534152104104 1918.6498600840569 217.17021828889847 C1918.650362135293 235.0489405305367 1918.653005608764 252.92766050469288 1918.6582676768303 270.8063820004463 C1918.6585978103453 271.9345855941617 1918.6589279438604 273.06278918787723 1918.659268081421 274.225180769281 C1918.6606180488243 278.8200094176152 1918.6619807127972 283.41483806194424 1918.663360186969 288.00966670151684 C1918.679671515849 342.4369623408204 1918.686049854729 396.8642575486823 1918.6908080566209 451.29155521682696 C1918.6931903085933 478.38776198393725 1918.6968935840791 505.48396850328675 1918.7008451540023 532.5801750808023 C1918.7073587516552 577.2689790325339 1918.713398066665 621.9577830425329 1918.718379676342 666.6465871930122 C1918.7184166125217 666.9778781412315 1918.7184166125217 666.9778781412315 1918.7186035319755 668.6544111216135 C1918.7232985709993 710.8810070361071 1918.7261215511276 753.1076028712041 1918.7277664561116 795.334199008088 C1918.7279020350848 798.796298195248 1918.7280410638814 802.258397382268 1918.7281799968332 805.7204965692945 C1918.728402470946 811.2710857439788 1918.7286238396728 816.8216749187052 1918.7288438761607 822.3722640934866 C1918.728871146901 823.0600769132218 1918.7288984176403 823.747889732957 1918.7289265147665 824.4565453654113 C1918.7289816275934 825.8466704453767 1918.7290367379233 827.2367955253421 1918.7290918457584 828.6269206053075 C1918.729478461505 838.3782591937729 1918.7298664056061 848.1295977821796 1918.7302609767175 857.8809363703267 C1918.7304020853303 861.3701679249127 1918.7305421581686 864.8593994795342 1918.7306798729114 868.348631034256 C1918.7332840302015 934.2472188802619 1918.738613767321 1000.1458043724299 1918.7545620799065 1066.0443904995918 C1918.7547298731515 1066.7380941310691 1918.7548976663957 1067.4317977625465 1918.7550705442845 1068.1465227161898 C1918.7603212423182 1089.8208730728088 1918.7658955947923 1111.4952233452932 1918.771529853344 1133.1695736050606 C1918.777310848921 1155.4090446909186 1918.7830414091109 1177.6485157869026 1918.7884861826897 1199.8879869580269 C1918.7886539901679 1200.5727563574412 1918.788821797646 1201.2575257568556 1918.7889946901996 1201.9630457441308 C1918.7994881851432 1244.850687843503 1918.806349564542 1287.7383292892387 1918.8093525767326 1330.6259725689888 C1918.8093993880984 1331.2883961833572 1918.8094461994633 1331.9508197977257 1918.8094944293553 1332.6333168549536 C1918.811591116706 1362.3785018386768 1918.8128028087235 1392.1236868072401 1918.8131644529058 1421.8688718619815 C1918.8133006285957 1432.2727150281628 1918.8135096244923 1442.6765581927805 1918.8137577052694 1453.0804013568559 C1918.813819265471 1455.6686774589496 1918.8138775861062 1458.2569535611224 1918.8139326546807 1460.8452296633623 C1918.814852880274 1502.106726167716 1918.8248260234714 1543.368214316313 1918.8393901414238 1584.62970807089 C1918.853998986262 1626.184156882496 1918.8590523952575 1667.738595436818 1918.8509705989854 1709.2930463615048 C1918.8498551993125 1715.0335997039367 1918.8488445446465 1720.7741530604785 1918.8478962779045 1726.5147064328194 C1918.8477063100945 1727.6400263994612 1918.8475163422854 1728.7653463661031 1918.847320617875 1729.9247669377946 C1918.8445855698137 1747.752571262731 1918.8519334277985 1765.5803566371796 1918.863469645963 1783.4081568398688 C1918.874600510409 1800.9329855319402 1918.8750516404334 1818.45778740078 1918.864099460654 1835.9826165030245 C1918.8579977415257 1846.2600498103006 1918.8601118481556 1856.5374022238502 1918.8743514338275 1866.8148279289308 C1918.8829896410198 1873.6408867768969 1918.880740951577 1880.4668861065502 1918.8696527216816 1887.2929412718804 C1918.8636718801317 1891.1621829334222 1918.8622887778693 1895.0312660299473 1918.8743375837803 1898.9004971422255 C1918.9817464196694 1935.8552914171105 1918.9817464196694 1935.8552914171105 1910.490279853344 1953.2518489956856 C1910.280807197094 1953.7075325894357 1910.280807197094 1953.7075325894357 1909.220748603344 1956.0135677456856 C1905.2640331158564 1964.0068171887087 1899.7312118792806 1970.001937211438 1893.490279853344 1976.2518489956856 C1892.831568915844 1976.9221614956855 1892.172857978344 1977.5924739956854 1891.494186103344 1978.2830989956856 C1874.6898073880648 1994.184016489713 1852.2258389223803 1998.5915392331644 1829.8627732396126 1998.5036979913712 C1828.557316188193 1998.5066268563342 1827.2518591367734 1998.5095557212971 1825.9068427807651 1998.5125733397435 C1822.304620076245 1998.520371846851 1818.70250529257 1998.5158664783871 1815.1002842085436 1998.5092375222594 C1811.1586772116934 1998.5042224765452 1807.2170862225435 1998.5109036420936 1803.2754817605019 1998.5160411894321 C1796.3478668344524 1998.5234713140312 1789.4202826675937 1998.5234919507484 1782.4926659017801 1998.51865170151 C1772.121731101125 1998.5114414488353 1761.7508227746794 1998.5157783966279 1751.3798886781442 1998.5223330509325 C1733.7034547541753 1998.5331639226047 1716.0270314851496 1998.5344901672734 1698.35059517622 1998.530634701252 C1680.4377226196398 1998.5267588693064 1662.5248580083394 1998.5272128068045 1644.611985862255 1998.5329445004463 C1643.4805317190674 1998.5333033261431 1642.3490775758796 1998.53366215184 1641.1833369435044 1998.5340318510425 C1636.575086527036 1998.535506760882 1631.9668361214574 1998.5370111566904 1627.3585857269936 1998.538553317223 C1580.5755629615599 1998.5541908241375 1533.7925456500348 1998.5568670138887 1487.009520738211 1998.5543972549785 C1480.5447955529103 1998.554058811817 1474.0800703669927 1998.5537367144707 1467.6153451800346 1998.55343157053 C1466.3313113729225 1998.5533705270377 1465.0472775658104 1998.5533094835455 1463.7243336433312 1998.5532465902506 C1435.2734373634096 1998.5519749136079 1406.8225418338934 1998.5545756675538 1378.3716457762057 1998.5579576374148 C1371.8761172670654 1998.5587283767823 1365.380588754922 1998.5594731036222 1358.8850602433085 1998.5602226518095 C1356.27816512449 1998.5605243435748 1353.6712700056935 1998.560826224585 1351.0643748869188 1998.5611282943282 C1349.772188768937 1998.5612779741805 1348.480002650955 1998.5614276540332 1347.1486593778827 1998.5615818696388 C1344.5349402994634 1998.5618853991427 1341.9212212211776 1998.5621900814785 1339.3075021430268 1998.562495914026 C1308.8234267568896 1998.566060929801 1278.3393513268657 1998.5689283518923 1247.8552758097649 1998.5710886120796 C1247.1910895694823 1998.5711358509143 1246.5269033291997 1998.5711830897485 1245.842590233151 1998.5712317600628 C1203.5222131818662 1998.5742263055736 1161.201836769141 1998.5741016301417 1118.881459694603 1998.571667836928 C1116.8006327601056 1998.571548248604 1114.71980582554 1998.571429866618 1112.6389788909582 1998.5713117471314 C1097.3223030936033 1998.5704403277837 1082.0056272999554 1998.5695097286816 1066.6889515072107 1998.5685611143708 C1065.2920969233098 1998.5684747288915 1063.8952423394082 1998.5683883558513 1062.498387755506 1998.5683019952412 C1061.1009624964593 1998.5682155582908 1059.703537237413 1998.5681291154265 1058.306111978367 1998.5680426666513 C1057.6141842055317 1998.567999876489 1056.9222564326967 1998.5679570863267 1056.2093611515938 1998.5679129994924 C1052.7131971465571 1998.5676966090946 1049.2170331415907 1998.5674791672718 1045.7208691367414 1998.5672597679077 C979.6830875675757 1998.5631209243506 913.6453091906699 1998.5620447372821 847.6075283885002 1998.5744197964668 C846.9122108170063 1998.574550078998 846.2168932455124 1998.5746803615284 845.5005054445792 1998.5748145920152 C824.4743309870228 1998.5787665343878 803.4481566159898 1998.583126089101 782.4219822608575 1998.587585749323 C759.4303928066524 1998.592461837918 736.4388033456148 1998.597295773071 713.4472138285637 1998.6018674969673 C712.7608095066635 1998.6020042677792 712.0744051847632 1998.6021410385902 711.3672007318964 1998.6022819539721 C668.3777571899521 1998.6108368504447 625.3883145619014 1998.615740343972 582.3988701701164 1998.616575062275 C581.7348911431274 1998.6165883337999 581.0709121161382 1998.6166016053248 580.3868125125737 1998.6166152790174 C550.5721492612479 1998.6172035159734 520.7574860634409 1998.6168511444912 490.942822831159 1998.6156152460899 C480.51488918746384 1998.6151896133897 470.0869555416482 1998.6148244909787 459.65902189479675 1998.6144858055632 C457.0647830575026 1998.6144005029946 454.47054422032545 1998.614311567802 451.87630538328085 1998.614218985953 C410.52292141428325 1998.6127696457543 369.1695445324242 1998.6199001041814 327.81616226467304 1998.631222946453 C285.0160422518843 1998.6428660489446 242.21593490038128 1998.643444254517 199.4158148318529 1998.6313795223832 C194.82100188830486 1998.6301276692693 190.22618893472736 1998.6289241882505 185.63137596845627 1998.6277588009834 C184.50371955987885 1998.6274685068583 183.37606315130142 1998.6271782127337 182.21423533640336 1998.6268791218172 C164.34943749357103 1998.6225515397255 146.48465762161447 1998.6282883614217 128.61986260052072 1998.63819899378 C111.05894707930975 1998.6477296349558 93.49805932930582 1998.6465699629152 75.93714542826638 1998.6339927695226 C65.63865997657217 1998.626936507249 55.34025431503551 1998.6280838654002 45.04177452967269 1998.6413411516405 C38.20183899552484 1998.6493263421762 31.361963855908016 1998.646428036166 24.522033871908206 1998.6346915148024 C20.644920119167523 1998.6283426318287 16.767963988295094 1998.6265889580645 12.89085902273655 1998.6382587216794 C-14.958914099513777 1998.716329391375 -40.842295452688575 1996.9208027373766 -62.142532646656036 1976.6073177456856 C-62.53311858415606 1976.2186654019356 -62.53311858415606 1976.2186654019356 -64.50972014665604 1974.2518489956856 C-65.27026702165603 1973.5261068081854 -66.03081389665601 1972.8003646206853 -66.81440764665604 1972.0526302456856 C-82.6963767671136 1955.8684091177452 -87.67681142974354 1934.5207422604872 -87.63737064599991 1912.525792002678 C-87.6390214247536 1911.2327536913353 -87.64067220350728 1909.9397153799937 -87.64237300585955 1908.6074940895196 C-87.64682452572478 1905.0075080470979 -87.64504409722056 1901.4075477203205 -87.6422712225467 1897.8075609840453 C-87.64034971273972 1893.8805483492815 -87.64423034961209 1889.953540720493 -87.6473680138588 1886.0265294611454 C-87.65208494948976 1879.1137481849892 -87.65306538968576 1872.2009740680328 -87.65163967013359 1865.2881914451718 C-87.64952097459258 1854.9393491023434 -87.65312843036796 1844.5905141860699 -87.65785444376525 1834.2416729882534 C-87.66573388136615 1816.6056084268203 -87.66881679347446 1798.9695458872675 -87.66930037736893 1781.3334797024727 C-87.66980242860498 1763.4547574608343 -87.67244590207585 1745.5760374866784 -87.67770797014236 1727.6973159909248 C-87.67803810365731 1726.5691123972094 -87.67836823717226 1725.440908803494 -87.6787083747331 1724.2785172220902 C-87.68005834213642 1719.6836885737566 -87.6814210061093 1715.0888599294267 -87.682800480281 1710.4940312898543 C-87.69911180916114 1656.0667356505505 -87.70549014804104 1601.6394404426892 -87.71024834993295 1547.2121427745442 C-87.71263060190535 1520.1159360074341 -87.71633387739112 1493.0197294880843 -87.72028544731438 1465.9235229105689 C-87.72679904496732 1421.2347189588374 -87.73283835997731 1376.5459149488381 -87.73781996965408 1331.857110798359 C-87.73789384201314 1331.1945289019204 -87.73796771437222 1330.5319470054822 -87.7380438252876 1329.8492868697576 C-87.74273886431146 1287.622690955264 -87.74556184443966 1245.396095120167 -87.74720674942364 1203.1694989832831 C-87.74734232839688 1199.7073997961238 -87.74748135719355 1196.2453006091027 -87.74762029014528 1192.7832014220767 C-87.74784276425822 1187.2326122473924 -87.74806413298504 1181.6820230726662 -87.74828416947275 1176.1314338978846 C-87.74831144021266 1175.4436210781494 -87.7483387109526 1174.7558082584142 -87.74836680807857 1174.0471526259598 C-87.74842192090543 1172.6570275459944 -87.74847703123535 1171.266902466029 -87.74853213907045 1169.8767773860636 C-87.74891875481711 1160.1254387975985 -87.7493066989181 1150.3741002091915 -87.74970127002962 1140.6227616210444 C-87.74984237864246 1137.1335300664587 -87.74998245148043 1133.6442985118372 -87.7501201662235 1130.1550669571152 C-87.75272432351358 1064.2564791111092 -87.75805406063296 998.357893618941 -87.77400237321854 932.4593074917793 C-87.7741701664633 931.765603860302 -87.77433795970808 931.0719002288247 -87.77451083759661 930.3571752751814 C-87.77976153563017 908.6828249185623 -87.78533588810421 887.0084746460775 -87.79097014665604 865.3341243863106 C-87.79675114223281 843.0946533004521 -87.80248170242285 820.8551822044687 -87.80792647600174 798.6157110333443 C-87.80809428348002 797.9309416339299 -87.8082620909583 797.2461722345156 -87.80843498351169 796.5406522472404 C-87.8189284784552 753.6530101478683 -87.82578985785392 710.7653687021325 -87.82879287004471 667.8777254223824 C-87.82883968141016 667.2153018080139 -87.82888649277564 666.5528781936456 -87.82893472266733 665.8703811364176 C-87.83103141001794 636.1251961526947 -87.83224310203565 606.380011184131 -87.83260474621784 576.6348261293897 C-87.83274092190769 566.2309829632078 -87.83294991780417 555.8271397985907 -87.83319799858145 545.4232966345153 C-87.83325955878314 542.8350205324216 -87.83331787941799 540.2467444302488 -87.83337294799276 537.6584683280089 C-87.83429317358608 496.39697182365455 -87.84426631678315 455.1354836750585 -87.85883043473586 413.8739899204811 C-87.8734392795742 372.3195411088752 -87.87849268856954 330.7651025545531 -87.87041089229751 289.21065162986633 C-87.8692954926243 283.47009828743353 -87.86828483795841 277.7295449308931 -87.86733657121658 271.9889915585518 C-87.86714660340687 270.8636715919099 -87.86695663559715 269.73835162526814 -87.86676091118716 268.5789310535765 C-87.86402586312607 250.75112672863946 -87.87137372111053 232.92334135419196 -87.88290993927512 215.0955411515024 C-87.89404080372103 197.57071245943013 -87.89449193374551 180.04591059059123 -87.88353975396603 162.52108148834668 C-87.87743803483752 152.2436481810712 -87.87955214146785 141.9662957675206 -87.89379172713961 131.6888700624404 C-87.90242993433199 124.86281121447507 -87.90018124488921 118.03681188482034 -87.8890930149937 111.21075671949075 C-87.8831121734435 107.34151505794932 -87.88172907118098 103.47243196142392 -87.89377787709236 99.60320084914565 C-88.00118671298111 62.648406574259866 -88.00118671298111 62.648406574259866 -79.50972014665604 45.25184899568558 C-79.09077483415604 44.34048180818559 -78.67182952165604 43.429114620685596 -78.24018889665604 42.49013024568558 C-74.28347340916815 34.496880802662474 -68.75065217259288 28.501760779933136 -62.509720146656036 22.251848995685577 C-61.85100920915602 21.581536495685555 -61.19229827165606 20.91122399568559 -60.513626396656036 20.220598995685577 C-44.10644771156103 4.695526691509656 -21.894097746081798 -0.08577027355488553 0 0 Z M-21.839989439817145 69.91518124379218 C-95.14151619702642 187.36965946042181 -25.509720146656036 346.80088916485374 -25.509720146656036 485.2518489956856 C595.550279853344 485.2518489956856 1216.610279853344 485.2518489956856 1856.490279853344 485.2518489956856 C1856.490279853344 74.88342794305396 1856.490279853344 74.88342794305396 1851.115279853344 68.37684899568558 C1846.7435725094792 64.83784781255707 1843.7012723244252 62.877084121745156 1837.9881618134677 62.87547215819359 C1836.8848159466752 62.867885445449474 1835.781470079883 62.86029873270542 1834.6446894898545 62.85248211957514 C1834.03964717914 62.85595009761863 1834.03964717914 62.85595009761863 1830.9777663946152 62.87350016832352 C1830.3306395471154 62.871272461889305 1830.3306395471154 62.871272461889305 1827.0557855006773 62.85999891720712 C1823.4429841348824 62.84799623117874 1819.830420069216 62.85477943134214 1816.2176206931472 62.864480601623654 C1812.2802336457653 62.87175129972286 1808.3428853881537 62.86162947810942 1804.405504912138 62.8537101149559 C1797.4713618474316 62.84218707321679 1790.5372872822036 62.84190084639283 1783.6031391248107 62.84880554676056 C1773.2224153690977 62.85908957607745 1762.841752258218 62.852161641414 1752.4610311029537 62.841825489653274 C1734.7717330563491 62.82472723477599 1717.0824582923015 62.82197038045069 1699.3931538462639 62.826941311359406 C1681.4587657904458 62.83193567687391 1663.5243958726942 62.83046551798952 1645.5900093913078 62.82105904817581 C1644.4586195750412 62.820470569408485 1643.3272297587746 62.81988209064116 1642.1615554026212 62.819275779183954 C1637.5538212632844 62.81685932292089 1632.9460871500078 62.8143992499331 1628.3383530639985 62.81188312242739 C1581.5208834812781 62.78635063683191 1534.7034254030377 62.780397327942126 1487.8859498039528 62.782294269418344 C1481.4127555983453 62.782553882529044 1474.9395613922993 62.782792555881656 1468.4663671851158 62.783009350299835 C1467.1807086343929 62.783053389308066 1465.89505008367 62.78309742831624 1464.5704321829253 62.78314280183986 C1436.1025540882351 62.784005510869406 1407.6346777981216 62.77921812885717 1379.1668004060048 62.77332743862644 C1372.6703152498594 62.77198647688772 1366.173830085466 62.77068660063503 1359.6773449219763 62.769381791353226 C1357.0701277627627 62.768857270101876 1354.462910603563 62.76833268024865 1351.8556934443768 62.767808021977544 C1350.5633613676762 62.76754824161765 1349.2710292909753 62.76728846125769 1347.9395356361929 62.767020808765665 C1345.3255588446432 62.76649462960768 1342.7115820533936 62.76596695648868 1340.0976052624465 62.7654377927538 C1309.6086585579446 62.759273059325665 1279.1197117242236 62.75417295953099 1248.6307646632195 62.75016289949417 C1247.966428861229 62.75007529026186 1247.3020930592384 62.74998768102961 1246.6176258693085 62.74989741697209 C1204.277994792927 62.744338711589705 1161.938365088542 62.74356565239111 1119.598733764833 62.746261673106346 C1117.5164654822534 62.74639401698681 1115.434197199557 62.74652436138905 1113.351928916818 62.74665417475626 C1098.7228186425843 62.747568238349345 1084.0937083734414 62.74855488789342 1069.4645981057638 62.749567962178844 C1067.3679654489604 62.74971309589529 1065.271332792131 62.749857843340294 1063.1747001352924 62.750002466724254 C1062.4825178847282 62.75005022931765 1061.7903356341642 62.75009799191105 1061.077178163886 62.750147201855725 C1059.6784172183045 62.750243710681104 1058.2796562727203 62.7503401821059 1056.8808953271337 62.750436616152 C1053.3820764003992 62.750678100096366 1049.8832574737983 62.75092133136394 1046.3844385474222 62.75116795953363 C980.296037702645 62.75581830226423 914.2076452125289 62.75547626082749 848.1192471385002 62.73366051912308 C847.7713334674311 62.73354569856167 847.7713334674311 62.73354569856167 846.0106794350504 62.73296463693259 C824.9694795294395 62.72600155128356 803.9282798614279 62.718394887331215 782.8870802380989 62.71063132805284 C759.8798271813898 62.702142554081775 736.8725741053113 62.693723338055975 713.8653208613396 62.68575555086136 C713.1784773942163 62.68551725395315 712.4916339270931 62.68527895704494 711.7839770215724 62.6850334390183 C668.7760428838659 62.67013221609602 625.7681111364873 62.66130439734536 582.7601744532585 62.659189999103546 C582.0960373361238 62.65915669994837 581.4319002189891 62.65912340079319 580.7476377346684 62.659089092572685 C550.9276258996499 62.65760597674421 521.1076141825373 62.657671720175074 491.28760234548827 62.659199128625914 C480.85806402634546 62.65972126283026 470.4285257030467 62.660138422175976 459.9989873774466 62.660507298540324 C457.40427374470494 62.66060051510789 454.80956011216927 62.660699655131964 452.2148464798811 62.66080474155024 C410.8282758338221 62.662431473417655 369.44172551242787 62.64958894510039 328.0551601360785 62.62964696530253 C286.3842755093906 62.60968588821481 244.71342123174156 62.60591646960427 203.04253495213925 62.62427271041088 C197.28994119264712 62.62680668708674 191.5373473741787 62.62916909954231 185.78475350141525 62.63143044710159 C185.2208972233152 62.63165563781979 185.2208972233152 62.63165563781979 182.36744272505166 62.63279523933306 C164.47914992972107 62.63948519831382 146.59090741281767 62.62936286787095 128.7026231448108 62.61231906735338 C111.13179809088172 62.595928299586944 93.5610496128358 62.59726260091014 75.99022796866484 62.61771742813289 C65.67685259152427 62.6291881246849 55.36369893175777 62.62686236834787 45.050340167974355 62.6045022609178 C38.210641121463084 62.59102951675652 31.371109851391623 62.595517677544876 24.531425378721906 62.61493468075059 C20.647797997942916 62.62544831690775 16.76460961694829 62.628052880186715 12.881006766110659 62.60861678421497 C8.713263561388658 62.587930221988586 4.546578283125427 62.60569655721707 0.3788408041000366 62.627404510974884 C-0.8240715909679466 62.615214530099195 -2.0269839860359298 62.603024549223505 -3.266348271863535 62.59046517498791 C-10.834417822005264 62.67278293479927 -16.902340510205136 63.741280412828644 -21.839989439817145 69.91518124379218 Z M-25.509720146656036 545.2518489956856 C-25.509720146656036 684.5118489956856 -25.509720146656036 823.7718489956856 -25.509720146656036 967.2518489956856 C595.550279853344 967.2518489956856 1216.610279853344 967.2518489956856 1856.490279853344 967.2518489956856 C1856.490279853344 827.9918489956856 1856.490279853344 688.7318489956856 1856.490279853344 545.2518489956856 C1235.430279853344 545.2518489956856 614.3702798533438 545.2518489956856 -25.509720146656036 545.2518489956856 Z M-25.509720146656036 1027.2518489956856 C-25.509720146656036 1167.5018489956856 -25.509720146656036 1307.7518489956856 -25.509720146656036 1452.2518489956856 C595.550279853344 1452.2518489956856 1216.610279853344 1452.2518489956856 1856.490279853344 1452.2518489956856 C1856.490279853344 1312.0018489956856 1856.490279853344 1171.7518489956856 1856.490279853344 1027.2518489956856 C1235.430279853344 1027.2518489956856 614.3702798533438 1027.2518489956856 -25.509720146656036 1027.2518489956856 Z M-25.509720146656036 1511.2518489956856 C-25.509720146656036 1923.6202700483173 -25.509720146656036 1923.6202700483173 -20.134720146656036 1930.1268489956856 C-15.763012802791536 1933.6658501788143 -12.720712617737036 1935.626613869626 -7.007602106779814 1935.6282258331776 C-5.904256239987433 1935.635812545922 -4.800910373195052 1935.6433992586658 -3.6641297831665725 1935.651215871796 C-2.4540451617376107 1935.644279915709 -1.2439605403086489 1935.6373439596218 0.0027933120727539063 1935.6301978230476 C0.6499201595725026 1935.6324255294821 0.6499201595725026 1935.6324255294821 3.9247742060106248 1935.643699074164 C7.537575571806144 1935.6557017601926 11.150139637471682 1935.648918560029 14.762939013540745 1935.6392173897475 C18.700326060922066 1935.6319466916484 22.637674318534266 1935.6420685132616 26.575054794549942 1935.6499878764153 C33.50919785925669 1935.6615109181544 40.44327242448401 1935.6617971449782 47.37742058187723 1935.6548924446106 C57.75814433759001 1935.644608415294 68.13880744846989 1935.651536349957 78.51952860373422 1935.6618725017179 C96.20882665033889 1935.678970756595 113.89810141438653 1935.6817276109205 131.58740586042404 1935.6767566800117 C149.52179391624253 1935.6717623144973 167.45616383399351 1935.6732324733816 185.3905503153801 1935.6826389431953 C186.52194013164672 1935.6832274219628 187.65332994791333 1935.6838159007302 188.81900430406677 1935.6844222121872 C193.426738443403 1935.68683866845 198.0344725566797 1935.689298741438 202.64220664268942 1935.6918148689438 C249.45967622541002 1935.717347354539 296.27713430365 1935.7233006634287 343.0946099027351 1935.7214037219528 C349.56780410834267 1935.721144108842 356.04099831438907 1935.7209054354894 362.5141925215721 1935.7206886410713 C363.1570217969336 1935.720666621567 363.1570217969336 1935.720666621567 366.41012752376264 1935.7205551895313 C394.8780056184528 1935.719692480502 423.3458819085664 1935.7244798625143 451.81375930068316 1935.7303705527447 C458.31024445682874 1935.7317115144833 464.8067296212216 1935.733011390736 471.3032147847116 1935.734316200018 C473.91043194392523 1935.7348407212694 476.517649103125 1935.7353653111222 479.1248662623111 1935.7358899693936 C480.41719833901175 1935.7361497497536 481.7095304157125 1935.7364095301136 483.04102407049504 1935.7366771826055 C485.65500086204474 1935.7372033617635 488.2689776532942 1935.7377310348825 490.8829544442415 1935.7382601986174 C521.371901148743 1935.7444249320456 551.8608479824645 1935.7495250318402 582.3497950434685 1935.753535091877 C583.014130845459 1935.7536227011092 583.6784666474497 1935.7537103103414 584.3629338373794 1935.753800574399 C626.7025649137612 1935.7593592797812 669.0421946181458 1935.76013233898 711.3818259418549 1935.7574363182648 C713.4640942244346 1935.7573039743843 715.5463625071313 1935.7571736299824 717.6286307898699 1935.757043816615 C732.2577410641031 1935.756129753022 746.8868513332466 1935.7551431034776 761.5159616009241 1935.7541300291923 C763.6125942577276 1935.7539848954757 765.7092269145569 1935.7538401480306 767.8058595713956 1935.753695524647 C768.4980418219598 1935.7536477620533 769.190224072524 1935.7535999994602 769.903381542802 1935.7535507895154 C771.3021424883837 1935.7534542806898 772.7009034339676 1935.7533578092653 774.0996643795543 1935.7532613752192 C777.5984833062903 1935.7530198912746 781.0973022328885 1935.752776660007 784.5961211592657 1935.7525300318375 C850.6845220040427 1935.7478796891069 916.7729144941591 1935.7482217305437 982.8613125681877 1935.770037472248 C983.2092262392569 1935.7701522928096 983.2092262392569 1935.7701522928096 984.9698802716375 1935.7707333544386 C1006.0110801772485 1935.7776964400873 1027.0522798452603 1935.78530310404 1048.093479468589 1935.7930666633183 C1071.1007325252983 1935.8015554372896 1094.1079856013764 1935.8099746533153 1117.1152388453484 1935.8179424405098 C1117.8020823124716 1935.818180737418 1118.4889257795946 1935.8184190343263 1119.1965826851156 1935.8186645523529 C1162.204516822822 1935.833565775275 1205.2124485702006 1935.842393594026 1248.2203852534294 1935.8445079922676 C1248.8845223705641 1935.8445412914225 1249.5486594876988 1935.8445745905778 1250.2329219720195 1935.8446088987985 C1280.052933807038 1935.8460920146272 1309.8729455241505 1935.846026271196 1339.6929573611997 1935.8444988627452 C1350.1224956803426 1935.8439767285408 1360.5520340036412 1935.8435595691953 1370.9815723292413 1935.8431906928308 C1373.576285961983 1935.8430974762632 1376.1709995945187 1935.8429983362394 1378.7657132268068 1935.842893249821 C1420.1522838728656 1935.8412665179535 1461.5388341942603 1935.8541090462709 1502.9253995706094 1935.8740510260686 C1544.596284197297 1935.8940121031565 1586.2671384749463 1935.8977815217668 1627.9380247545487 1935.8794252809603 C1633.6906185140397 1935.8768913042845 1639.44321233251 1935.874528891829 1645.1958062052727 1935.8722675442696 C1646.3235187614728 1935.8718171628334 1647.4512313176726 1935.8713667813968 1648.6131169816363 1935.870902752038 C1666.5014097769667 1935.864212793057 1684.3896522938703 1935.8743351235003 1702.2779365618771 1935.8913789240178 C1719.8487616158063 1935.9077696917843 1737.4195100938523 1935.906435390461 1754.990331738023 1935.8859805632383 C1765.303707115164 1935.8745098666864 1775.6168607749305 1935.876835623023 1785.9302195387136 1935.8991957304534 C1792.7699185852252 1935.9126684746147 1799.6094498552966 1935.908180313826 1806.449134327966 1935.8887633106206 C1810.3327617087439 1935.8782496744634 1814.2159500897396 1935.8756451111844 1818.0995529405773 1935.8950812071562 C1822.267296145299 1935.9157677693825 1826.4339814235627 1935.8980014341541 1830.601718902588 1935.8762934803963 C1831.2031751001218 1935.882388470834 1831.2031751001218 1935.882388470834 1834.2469079785515 1935.9132328163832 C1841.1712222763726 1935.837917171165 1846.2582796572055 1935.0494747475068 1851.490279853344 1930.2518489956856 C1938.7297104028694 1821.1700571468618 1856.490279853344 1650.928459620212 1856.490279853344 1511.2518489956856 C1235.430279853344 1511.2518489956856 614.3702798533438 1511.2518489956856 -25.509720146656036 1511.2518489956856 Z " fill="#FFFFFF" transform="translate(334.50972014665604,250.74815100431442)"/>
<path d="M0 0 C19.799999999999955 0 39.59999999999991 0 60 0 C60 82.82999999999993 60 165.66000000000008 60 251 C40.200000000000045 251 20.40000000000009 251 0 251 C0 168.17000000000007 0 85.33999999999992 0 0 Z " fill="#FFFFFF" transform="translate(1593,1848)"/>
<path d="M0 0 C19.799999999999955 0 39.60000000000002 0 60 0 C60 82.82999999999993 60 165.66000000000008 60 251 C40.200000000000045 251 20.399999999999977 251 0 251 C0 168.17000000000007 0 85.33999999999992 0 0 Z " fill="#FFFFFF" transform="translate(856,1848)"/>
<path d="M0 0 C19.799999999999955 0 39.59999999999991 0 60 0 C60 82.82999999999993 60 165.66000000000008 60 251 C40.200000000000045 251 20.40000000000009 251 0 251 C0 168.17000000000007 0 85.33999999999992 0 0 Z " fill="#FFFFFF" transform="translate(1593,1367)"/>
<path d="M0 0 C19.799999999999955 0 39.60000000000002 0 60 0 C60 82.82999999999993 60 165.66000000000008 60 251 C40.200000000000045 251 20.399999999999977 251 0 251 C0 168.17000000000007 0 85.33999999999992 0 0 Z " fill="#FFFFFF" transform="translate(856,1367)"/>
<path d="M0 0 C19.799999999999955 0 39.59999999999991 0 60 0 C60 82.82999999999998 60 165.65999999999997 60 251 C40.200000000000045 251 20.40000000000009 251 0 251 C0 168.17000000000007 0 85.34000000000003 0 0 Z " fill="#FFFFFF" transform="translate(1593,399)"/>
<path d="M0 0 C19.470000000000027 0 38.940000000000055 0 59 0 C59 82.82999999999993 59 165.66000000000008 59 251 C39.52999999999997 251 20.059999999999945 251 0 251 C0 168.17000000000007 0 85.33999999999992 0 0 Z " fill="#FFFFFF" transform="translate(1962,1848)"/>
<path d="M0 0 C19.470000000000027 0 38.940000000000055 0 59 0 C59 82.82999999999993 59 165.66000000000008 59 251 C39.52999999999997 251 20.059999999999945 251 0 251 C0 168.17000000000007 0 85.33999999999992 0 0 Z " fill="#FFFFFF" transform="translate(1409,1848)"/>
<path d="M0 0 C19.470000000000027 0 38.940000000000055 0 59 0 C59 82.82999999999993 59 165.66000000000008 59 251 C39.52999999999997 251 20.059999999999945 251 0 251 C0 168.17000000000007 0 85.33999999999992 0 0 Z " fill="#FFFFFF" transform="translate(1225,1848)"/>
<path d="M0 0 C19.470000000000027 0 38.940000000000055 0 59 0 C59 82.82999999999993 59 165.66000000000008 59 251 C39.52999999999997 251 20.060000000000002 251 0 251 C0 168.17000000000007 0 85.33999999999992 0 0 Z " fill="#FFFFFF" transform="translate(488,1848)"/>
<path d="M0 0 C19.470000000000027 0 38.940000000000055 0 59 0 C59 82.82999999999993 59 165.66000000000008 59 251 C39.52999999999997 251 20.059999999999945 251 0 251 C0 168.17000000000007 0 85.33999999999992 0 0 Z " fill="#FFFFFF" transform="translate(1778,1367)"/>
<path d="M0 0 C19.470000000000027 0 38.940000000000055 0 59 0 C59 82.82999999999993 59 165.66000000000008 59 251 C39.52999999999997 251 20.059999999999945 251 0 251 C0 168.17000000000007 0 85.33999999999992 0 0 Z " fill="#FFFFFF" transform="translate(1041,1367)"/>
<path d="M0 0 C19.470000000000027 0 38.940000000000055 0 59 0 C59 82.82999999999993 59 165.66000000000008 59 251 C39.52999999999997 251 20.059999999999945 251 0 251 C0 168.17000000000007 0 85.33999999999992 0 0 Z " fill="#FFFFFF" transform="translate(672,1367)"/>
<path d="M0 0 C19.470000000000027 0 38.940000000000055 0 59 0 C59 82.83000000000004 59 165.66000000000008 59 251 C39.52999999999997 251 20.059999999999945 251 0 251 C0 168.17000000000007 0 85.34000000000003 0 0 Z " fill="#FFFFFF" transform="translate(1962,882)"/>
<path d="M0 0 C19.470000000000027 0 38.940000000000055 0 59 0 C59 82.83000000000004 59 165.66000000000008 59 251 C39.52999999999997 251 20.059999999999945 251 0 251 C0 168.17000000000007 0 85.34000000000003 0 0 Z " fill="#FFFFFF" transform="translate(1778,882)"/>
<path d="M0 0 C19.470000000000027 0 38.940000000000055 0 59 0 C59 82.83000000000004 59 165.66000000000008 59 251 C39.52999999999997 251 20.059999999999945 251 0 251 C0 168.17000000000007 0 85.34000000000003 0 0 Z " fill="#FFFFFF" transform="translate(1409,882)"/>
<path d="M0 0 C19.470000000000027 0 38.940000000000055 0 59 0 C59 82.83000000000004 59 165.66000000000008 59 251 C39.52999999999997 251 20.059999999999945 251 0 251 C0 168.17000000000007 0 85.34000000000003 0 0 Z " fill="#FFFFFF" transform="translate(1225,882)"/>
<path d="M0 0 C19.470000000000027 0 38.940000000000055 0 59 0 C59 82.83000000000004 59 165.66000000000008 59 251 C39.52999999999997 251 20.059999999999945 251 0 251 C0 168.17000000000007 0 85.34000000000003 0 0 Z " fill="#FFFFFF" transform="translate(672,882)"/>
<path d="M0 0 C19.470000000000027 0 38.940000000000055 0 59 0 C59 82.83000000000004 59 165.66000000000008 59 251 C39.52999999999997 251 20.060000000000002 251 0 251 C0 168.17000000000007 0 85.34000000000003 0 0 Z " fill="#FFFFFF" transform="translate(488,882)"/>
<path d="M0 0 C19.470000000000027 0 38.940000000000055 0 59 0 C59 82.82999999999998 59 165.65999999999997 59 251 C39.52999999999997 251 20.059999999999945 251 0 251 C0 168.17000000000007 0 85.34000000000003 0 0 Z " fill="#FFFFFF" transform="translate(1778,399)"/>
<path d="M0 0 C19.470000000000027 0 38.940000000000055 0 59 0 C59 82.82999999999998 59 165.65999999999997 59 251 C39.52999999999997 251 20.059999999999945 251 0 251 C0 168.17000000000007 0 85.34000000000003 0 0 Z " fill="#FFFFFF" transform="translate(1225,399)"/>
<path d="M0 0 C19.470000000000027 0 38.940000000000055 0 59 0 C59 82.82999999999998 59 165.65999999999997 59 251 C39.52999999999997 251 20.059999999999945 251 0 251 C0 168.17000000000007 0 85.34000000000003 0 0 Z " fill="#FFFFFF" transform="translate(1041,399)"/>
<path d="M0 0 C19.470000000000027 0 38.940000000000055 0 59 0 C59 82.82999999999998 59 165.65999999999997 59 251 C39.52999999999997 251 20.059999999999945 251 0 251 C0 168.17000000000007 0 85.34000000000003 0 0 Z " fill="#FFFFFF" transform="translate(672,399)"/>
<path d="M0 0 C19.470000000000027 0 38.940000000000055 0 59 0 C59 19.470000000000027 59 38.940000000000055 59 59 C39.52999999999997 59 20.059999999999945 59 0 59 C0 39.52999999999997 0 20.059999999999945 0 0 Z " fill="#BD03F7" transform="translate(1794,1944)"/>
<path d="M0 0 C19.470000000000027 0 38.940000000000055 0 59 0 C59 19.470000000000027 59 38.940000000000055 59 59 C39.52999999999997 59 20.059999999999945 59 0 59 C0 39.52999999999997 0 20.059999999999945 0 0 Z " fill="#FFFFFF" transform="translate(1041,1944)"/>
<path d="M0 0 C19.470000000000027 0 38.940000000000055 0 59 0 C59 19.470000000000027 59 38.940000000000055 59 59 C39.52999999999997 59 20.059999999999945 59 0 59 C0 39.52999999999997 0 20.059999999999945 0 0 Z " fill="#FFFFFF" transform="translate(672,1944)"/>
<path d="M0 0 C19.470000000000027 0 38.940000000000055 0 59 0 C59 19.470000000000027 59 38.940000000000055 59 59 C39.52999999999997 59 20.059999999999945 59 0 59 C0 39.52999999999997 0 20.059999999999945 0 0 Z " fill="#FFFFFF" transform="translate(1794,1848)"/>
<path d="M0 0 C19.470000000000027 0 38.940000000000055 0 59 0 C59 19.470000000000027 59 38.940000000000055 59 59 C39.52999999999997 59 20.059999999999945 59 0 59 C0 39.52999999999997 0 20.059999999999945 0 0 Z " fill="#BD03F7" transform="translate(1041,1848)"/>
<path d="M0 0 C19.470000000000027 0 38.940000000000055 0 59 0 C59 19.470000000000027 59 38.940000000000055 59 59 C39.52999999999997 59 20.059999999999945 59 0 59 C0 39.52999999999997 0 20.059999999999945 0 0 Z " fill="#FFFFFF" transform="translate(672,1848)"/>
<path d="M0 0 C19.470000000000027 0 38.940000000000055 0 59 0 C59 19.470000000000027 59 38.940000000000055 59 59 C39.52999999999997 59 20.059999999999945 59 0 59 C0 39.52999999999997 0 20.059999999999945 0 0 Z " fill="#BD03F7" transform="translate(1962,1559)"/>
<path d="M0 0 C19.470000000000027 0 38.940000000000055 0 59 0 C59 19.470000000000027 59 38.940000000000055 59 59 C39.52999999999997 59 20.059999999999945 59 0 59 C0 39.52999999999997 0 20.059999999999945 0 0 Z " fill="#FFFFFF" transform="translate(1409,1559)"/>
<path d="M0 0 C19.470000000000027 0 38.940000000000055 0 59 0 C59 19.470000000000027 59 38.940000000000055 59 59 C39.52999999999997 59 20.059999999999945 59 0 59 C0 39.52999999999997 0 20.059999999999945 0 0 Z " fill="#FFFFFF" transform="translate(1225,1559)"/>
<path d="M0 0 C19.470000000000027 0 38.940000000000055 0 59 0 C59 19.470000000000027 59 38.940000000000055 59 59 C39.52999999999997 59 20.060000000000002 59 0 59 C0 39.52999999999997 0 20.059999999999945 0 0 Z " fill="#FFFFFF" transform="translate(488,1559)"/>
<path d="M0 0 C19.470000000000027 0 38.940000000000055 0 59 0 C59 19.470000000000027 59 38.940000000000055 59 59 C39.52999999999997 59 20.059999999999945 59 0 59 C0 39.52999999999997 0 20.059999999999945 0 0 Z " fill="#FFFFFF" transform="translate(1962,1463)"/>
<path d="M0 0 C19.470000000000027 0 38.940000000000055 0 59 0 C59 19.470000000000027 59 38.940000000000055 59 59 C39.52999999999997 59 20.059999999999945 59 0 59 C0 39.52999999999997 0 20.059999999999945 0 0 Z " fill="#BD03F7" transform="translate(1409,1463)"/>
<path d="M0 0 C19.470000000000027 0 38.940000000000055 0 59 0 C59 19.470000000000027 59 38.940000000000055 59 59 C39.52999999999997 59 20.059999999999945 59 0 59 C0 39.52999999999997 0 20.059999999999945 0 0 Z " fill="#FFFFFF" transform="translate(1225,1463)"/>
<path d="M0 0 C19.470000000000027 0 38.940000000000055 0 59 0 C59 19.470000000000027 59 38.940000000000055 59 59 C39.52999999999997 59 20.060000000000002 59 0 59 C0 39.52999999999997 0 20.059999999999945 0 0 Z " fill="#BD03F7" transform="translate(488,1463)"/>
<path d="M0 0 C19.470000000000027 0 38.940000000000055 0 59 0 C59 19.470000000000027 59 38.940000000000055 59 59 C39.52999999999997 59 20.059999999999945 59 0 59 C0 39.52999999999997 0 20.059999999999945 0 0 Z " fill="#FFFFFF" transform="translate(1962,1367)"/>
<path d="M0 0 C19.470000000000027 0 38.940000000000055 0 59 0 C59 19.470000000000027 59 38.940000000000055 59 59 C39.52999999999997 59 20.059999999999945 59 0 59 C0 39.52999999999997 0 20.059999999999945 0 0 Z " fill="#FFFFFF" transform="translate(1409,1367)"/>
<path d="M0 0 C19.470000000000027 0 38.940000000000055 0 59 0 C59 19.470000000000027 59 38.940000000000055 59 59 C39.52999999999997 59 20.059999999999945 59 0 59 C0 39.52999999999997 0 20.059999999999945 0 0 Z " fill="#BD03F7" transform="translate(1225,1367)"/>
<path d="M0 0 C19.470000000000027 0 38.940000000000055 0 59 0 C59 19.470000000000027 59 38.940000000000055 59 59 C39.52999999999997 59 20.060000000000002 59 0 59 C0 39.52999999999997 0 20.059999999999945 0 0 Z " fill="#FFFFFF" transform="translate(488,1367)"/>
<path d="M0 0 C19.470000000000027 0 38.940000000000055 0 59 0 C59 19.470000000000027 59 38.940000000000055 59 59 C39.52999999999997 59 20.059999999999945 59 0 59 C0 39.52999999999997 0 20.059999999999945 0 0 Z " fill="#FFFFFF" transform="translate(1041,1074)"/>
<path d="M0 0 C19.470000000000027 0 38.940000000000055 0 59 0 C59 19.470000000000027 59 38.94 59 59 C39.52999999999997 59 20.059999999999945 59 0 59 C0 39.52999999999997 0 20.060000000000002 0 0 Z " fill="#BD03F7" transform="translate(1962,399)"/>
<path d="M0 0 C19.470000000000027 0 38.940000000000055 0 59 0 C59 19.470000000000027 59 38.94 59 59 C39.52999999999997 59 20.059999999999945 59 0 59 C0 39.52999999999997 0 20.060000000000002 0 0 Z " fill="#FFFFFF" transform="translate(1409,399)"/>
<path d="M0 0 C19.470000000000027 0 38.940000000000055 0 59 0 C59 19.470000000000027 59 38.94 59 59 C39.52999999999997 59 20.060000000000002 59 0 59 C0 39.52999999999997 0 20.060000000000002 0 0 Z " fill="#BD03F7" transform="translate(488,399)"/>
<path d="M0 0 C19.470000000000027 0 38.940000000000055 0 59 0 C59 19.139999999999873 59 38.2800000000002 59 58 C39.52999999999997 58 20.059999999999945 58 0 58 C0 38.86000000000013 0 19.7199999999998 0 0 Z " fill="#FFFFFF" transform="translate(1794,2041)"/>
<path d="M0 0 C19.470000000000027 0 38.940000000000055 0 59 0 C59 19.139999999999873 59 38.2800000000002 59 58 C39.52999999999997 58 20.059999999999945 58 0 58 C0 38.86000000000013 0 19.7199999999998 0 0 Z " fill="#FFFFFF" transform="translate(1041,2041)"/>
<path d="M0 0 C19.470000000000027 0 38.940000000000055 0 59 0 C59 19.139999999999873 59 38.2800000000002 59 58 C39.52999999999997 58 20.059999999999945 58 0 58 C0 38.86000000000013 0 19.7199999999998 0 0 Z " fill="#BD03F7" transform="translate(672,2041)"/>
<path d="M0 0 C19.1400000000001 0 38.27999999999997 0 58 0 C58 19.470000000000027 58 38.940000000000055 58 59 C38.8599999999999 59 19.720000000000027 59 0 59 C0 39.52999999999997 0 20.059999999999945 0 0 Z " fill="#FFFFFF" transform="translate(1594,1074)"/>
<path d="M0 0 C19.139999999999986 0 38.27999999999997 0 58 0 C58 19.470000000000027 58 38.940000000000055 58 59 C38.860000000000014 59 19.720000000000027 59 0 59 C0 39.52999999999997 0 20.059999999999945 0 0 Z " fill="#BD03F7" transform="translate(857,1074)"/>
<path d="M0 0 C19.470000000000027 0 38.940000000000055 0 59 0 C59 19.139999999999986 59 38.27999999999997 59 58 C39.52999999999997 58 20.059999999999945 58 0 58 C0 38.860000000000014 0 19.720000000000027 0 0 Z " fill="#BD03F7" transform="translate(1041,978)"/>
<path d="M0 0 C19.470000000000027 0 38.940000000000055 0 59 0 C59 19.139999999999986 59 38.27999999999997 59 58 C39.52999999999997 58 20.059999999999945 58 0 58 C0 38.860000000000014 0 19.720000000000027 0 0 Z " fill="#FFFFFF" transform="translate(1041,882)"/>
<path d="M0 0 C19.470000000000027 0 38.940000000000055 0 59 0 C59 19.139999999999986 59 38.27999999999997 59 58 C39.52999999999997 58 20.059999999999945 58 0 58 C0 38.860000000000014 0 19.720000000000027 0 0 Z " fill="#FFFFFF" transform="translate(1962,592)"/>
<path d="M0 0 C19.470000000000027 0 38.940000000000055 0 59 0 C59 19.139999999999986 59 38.27999999999997 59 58 C39.52999999999997 58 20.059999999999945 58 0 58 C0 38.860000000000014 0 19.720000000000027 0 0 Z " fill="#BD03F7" transform="translate(1409,592)"/>
<path d="M0 0 C19.470000000000027 0 38.940000000000055 0 59 0 C59 19.139999999999986 59 38.27999999999997 59 58 C39.52999999999997 58 20.060000000000002 58 0 58 C0 38.860000000000014 0 19.720000000000027 0 0 Z " fill="#FFFFFF" transform="translate(488,592)"/>
<path d="M0 0 C19.470000000000027 0 38.940000000000055 0 59 0 C59 19.139999999999986 59 38.27999999999997 59 58 C39.52999999999997 58 20.059999999999945 58 0 58 C0 38.860000000000014 0 19.720000000000027 0 0 Z " fill="#FFFFFF" transform="translate(1962,496)"/>
<path d="M0 0 C19.470000000000027 0 38.940000000000055 0 59 0 C59 19.139999999999986 59 38.27999999999997 59 58 C39.52999999999997 58 20.059999999999945 58 0 58 C0 38.860000000000014 0 19.720000000000027 0 0 Z " fill="#FFFFFF" transform="translate(1409,496)"/>
<path d="M0 0 C19.470000000000027 0 38.940000000000055 0 59 0 C59 19.139999999999986 59 38.27999999999997 59 58 C39.52999999999997 58 20.060000000000002 58 0 58 C0 38.860000000000014 0 19.720000000000027 0 0 Z " fill="#FFFFFF" transform="translate(488,496)"/>
<path d="M0 0 C19.139999999999986 0 38.27999999999997 0 58 0 C58 19.470000000000027 58 38.94 58 59 C38.860000000000014 59 19.720000000000027 59 0 59 C0 39.52999999999997 0 20.060000000000002 0 0 Z " fill="#FFFFFF" transform="translate(857,399)"/>
<path d="M0 0 C19.1400000000001 0 38.27999999999997 0 58 0 C58 19.139999999999986 58 38.27999999999997 58 58 C38.8599999999999 58 19.720000000000027 58 0 58 C0 38.860000000000014 0 19.720000000000027 0 0 Z " fill="#BD03F7" transform="translate(1594,978)"/>
<path d="M0 0 C19.139999999999986 0 38.27999999999997 0 58 0 C58 19.139999999999986 58 38.27999999999997 58 58 C38.860000000000014 58 19.720000000000027 58 0 58 C0 38.860000000000014 0 19.720000000000027 0 0 Z " fill="#FFFFFF" transform="translate(857,978)"/>
<path d="M0 0 C19.1400000000001 0 38.27999999999997 0 58 0 C58 19.139999999999986 58 38.27999999999997 58 58 C38.8599999999999 58 19.720000000000027 58 0 58 C0 38.860000000000014 0 19.720000000000027 0 0 Z " fill="#FFFFFF" transform="translate(1594,882)"/>
<path d="M0 0 C19.139999999999986 0 38.27999999999997 0 58 0 C58 19.139999999999986 58 38.27999999999997 58 58 C38.860000000000014 58 19.720000000000027 58 0 58 C0 38.860000000000014 0 19.720000000000027 0 0 Z " fill="#FFFFFF" transform="translate(857,882)"/>
<path d="M0 0 C19.139999999999986 0 38.27999999999997 0 58 0 C58 19.139999999999986 58 38.27999999999997 58 58 C38.860000000000014 58 19.720000000000027 58 0 58 C0 38.860000000000014 0 19.720000000000027 0 0 Z " fill="#FFFFFF" transform="translate(857,592)"/>
<path d="M0 0 C19.139999999999986 0 38.27999999999997 0 58 0 C58 19.139999999999986 58 38.27999999999997 58 58 C38.860000000000014 58 19.720000000000027 58 0 58 C0 38.860000000000014 0 19.720000000000027 0 0 Z " fill="#BD03F7" transform="translate(857,496)"/>
</svg>
