<?xml version="1.0" encoding="UTF-8"?>
<!-- Generator: visioncortex VTracer 0.6.12 -->
<svg version="1.1" xmlns="http://www.w3.org/2000/svg" width="600" height="600">
<path d="M0 0 C0.7034252929687455 0.2613372802734375 1.406850585937491 0.522674560546875 2.131591796875 0.79193115234375 C4.677634204606591 1.745731333392314 7.213362722938143 2.7245929470724946 9.75 3.703125 C11.9387248448472 4.533406763714254 14.127532499212123 5.3634702518518225 16.31640625 6.193359375 C21.883830785743072 8.31603531186397 27.434475230237666 10.478919010697439 32.973785400390625 12.673713684082031 C36.193860803334644 13.949081779136833 39.41737233351171 15.213229650918919 42.65185546875 16.45166015625 C46.44735243903858 17.905211482607257 50.22346587073551 19.40410813472576 54 20.90625 C55.14702392578124 21.33891174316406 56.29404785156251 21.771573486328123 57.475830078125 22.21734619140625 C65.62734191203799 25.523774822664876 70.35623080804291 29.829514922562538 75.75 36.703125 C76.84612656522904 37.96018131567439 77.94873377518559 39.21167068177459 79.0625 40.453125 C81.203570255133 42.904995776039385 83.32293415983361 45.37413261344358 85.4296875 47.85546875 C91.0244173937192 54.43630678966906 96.70735112142359 60.90078398499833 102.59375 67.22265625 C105.80719311735129 70.67413219085876 108.95091951553252 74.1714255644178 112.03515625 77.73828125 C114.82559336787705 80.93552469030107 117.68606156826564 84.06954658238635 120.5390625 87.2109375 C122.75 89.703125 122.75 89.703125 124.920166015625 92.80859375 C127.1269964571062 95.44895029081505 127.65836992351774 95.68291877153007 131.255126953125 96.47607421875 C132.56956787109374 96.48654785156248 133.88400878906248 96.49702148437501 135.23828125 96.5078125 C135.8817248535156 96.52062255859374 135.8817248535156 96.52062255859374 139.137939453125 96.58544921875 C140.7630444335938 96.58303222656252 142.38814941406247 96.58061523437499 144.0625 96.578125 C149.239375 96.61937499999999 154.41625 96.66062499999998 159.75 96.703125 C159.75 80.53312499999998 159.75 64.363125 159.75 47.703125 C214.86 47.703125 269.97 47.703125 326.75 47.703125 C326.75 102.48312499999997 326.75 157.263125 326.75 213.703125 C271.64 213.703125 216.52999999999997 213.703125 159.75 213.703125 C159.75 197.203125 159.75 180.703125 159.75 163.703125 C155.5721484375 163.74953125000002 151.394296875 163.79593750000004 147.08984375 163.84375 C143.74505845929264 163.86949907241285 140.40030141811695 163.891181240651 137.05547332763672 163.91012573242188 C133.53197631686822 163.93119222397854 130.00886824397486 163.95931263631326 126.485595703125 164.0048828125 C122.43697481774359 164.0569163371921 118.38876170982905 164.0761177038924 114.33984375 164.09375 C113.08541976928711 164.11439514160156 111.83099578857423 164.13504028320313 110.53855895996094 164.15631103515625 C101.84426146742084 164.15853578811732 97.64701226713123 163.12925271045964 91.062744140625 157.340576171875 C90.22864013671875 156.4843969726562 89.3945361328125 155.62821777343754 88.53515625 154.74609375 C88.07572128295897 154.28004226684573 87.61628631591793 153.8139907836914 87.14292907714844 153.3338165283203 C85.69204206787504 151.85980302895416 84.25178009808894 150.37596594003548 82.8125 148.890625 C77.23951173738817 143.18007861628234 71.68965539007957 137.5210356266988 65.614990234375 132.336669921875 C62.34055531525209 129.46859241907998 59.30522397342676 126.3634647584638 56.25 123.265625 C55.61835937500001 122.62947265625002 54.986718749999994 121.99332031250003 54.3359375 121.337890625 C52.80494226485695 119.79529694110585 51.27712332999789 118.24955185523663 49.75 116.703125 C47.05649801077331 124.29777776076259 45.01311311487743 132.0263711989432 43.05078125 139.834228515625 C42.49621247212315 142.03062569218957 41.92791041065587 144.22319799085955 41.359375 146.416015625 C41.00436158614306 147.8200986769931 40.65016512146528 149.22438859934994 40.296875 150.62890625 C39.97557617187499 151.89130126953125 39.65427734375001 153.1536962890625 39.3232421875 154.454345703125 C38.79693874829957 157.43710544138753 38.58554742613114 158.95930910580523 39.75 161.703125 C41.64843749999994 163.74609374999994 41.64843749999994 163.74609374999994 44.125 165.890625 C45.029921875000014 166.67824218750002 45.93484375 167.46585937500004 46.8671875 168.27734375 C50.553852200357994 171.37953721737438 54.285419961758265 174.42279058704037 58.03125 177.453125 C61.527657824579705 180.34670388930738 64.86508131810749 183.39661683422457 68.21875 186.453125 C70.83844809821957 188.78174553175074 73.52515309730677 190.9987544719785 76.25 193.203125 C80.70919799559493 196.810566075088 84.971284644729 200.57994119407704 89.20703125 204.4453125 C91.88777223994657 206.82544812548252 94.64504134393519 209.08044340780594 97.4375 211.328125 C110.48387825904126 221.93523706896553 110.48387825904126 221.93523706896553 111.75 227.703125 C112.10156620334823 233.6119043475016 111.57242893212452 237.05599100544566 108.75 242.390625 C108.40461181640626 243.05086669921877 108.05922363281252 243.7111083984375 107.703369140625 244.391357421875 C106.40833874360249 246.84149539141413 105.08146764867718 249.2725913285966 103.75 251.703125 C103.46825927734375 252.2202001953125 103.46825927734375 252.2202001953125 102.04248046875 254.8369140625 C97.66136185088993 262.86263542865606 93.22867345402 270.8591759143154 88.78173828125 278.84857177734375 C87.1542188991649 281.7740436434497 85.53037070664232 284.7015461230225 83.90625 287.62890625 C81.4306381135367 292.08979769085806 78.95268145608685 296.54937317892467 76.47265625 301.0078125 C73.31778172394641 306.67977696774045 70.16981989314934 312.3555478991953 67.0234375 318.0322265625 C65.15374220360158 321.4013328501974 63.27854550790423 324.7673261188648 61.40234375 328.1328125 C58.95603183485997 332.5222248198915 56.53475660608618 336.92423146805714 54.12890625 341.3359375 C52.9820351076217 343.41681234293696 51.83491129461123 345.49754795259537 50.6875 347.578125 C50.17558105468751 348.5291308593751 49.663662109375 349.4801367187499 49.13623046875 350.4599609375 C48.6465478515625 351.34200195312496 48.156865234375005 352.2240429687499 47.65234375 353.1328125 C47.23460693359374 353.89835449218754 46.816870117187506 354.6638964843751 46.386474609375 355.45263671875 C42.28253152059895 361.09640031599565 42.28253152059895 361.09640031599565 38.75 362.703125 C33.59698572001156 363.44708100898106 28.47321433188739 363.3830527869035 23.28125 363.33203125 C21.75720042682434 363.33286071392126 20.23315094981399 363.33532302112906 18.7091064453125 363.33934020996094 C15.521453229572728 363.34219263860246 12.33450481410975 363.3275526853165 9.14697265625 363.300048828125 C5.071369968430957 363.26596592789235 0.9970268315093733 363.27198893827244 -3.0786361694335938 363.29071140289307 C-6.223799682643062 363.3013056677595 -9.368672669005946 363.2923217934235 -12.513809204101563 363.2773265838623 C-14.016028197896247 363.2721620394949 -15.51827775051052 363.2726055262351 -17.020492553710938 363.2788715362549 C-19.12434585648319 363.28435365188466 -21.226427099434176 363.26385802900495 -23.330078125 363.236572265625 C-24.524434814453116 363.2303736877441 -25.71879150390626 363.22417510986327 -26.9493408203125 363.21778869628906 C-30.948433528857038 362.59421997163895 -33.10941711914984 361.21577284537807 -36.25 358.703125 C-38.69243422070994 355.0394736689351 -39.109948259666226 353.11475482051435 -39.25 348.703125 C-36.71750940752651 340.1645522528087 -32.128956545988444 332.19031583473446 -28.125 324.265625 C-27.444271458188524 322.91104334217584 -26.76369043403278 321.5563875417598 -26.083251953125 320.20166015625 C-22.251391256494685 312.58764753516664 -18.34320251189709 305.01880687005456 -14.32763671875 297.5 C-7.272985707386994 284.1947951405208 -0.6791171594276761 270.64235269970413 6.029296875 257.160400390625 C7.267088972368185 254.67340068988284 8.506209710801812 252.18712689789675 9.75 249.703125 C9.098540039062499 249.30222656249998 8.447080078124998 248.90132812499996 7.77587890625 248.48828125 C-2.433268229166657 242.20572916666669 -12.642415364583343 235.92317708333331 -22.8515625 229.640625 C-23.910769042968752 228.98892333984372 -24.969975585937505 228.3372216796875 -26.061279296875 227.665771484375 C-28.19337704147381 226.3534727500645 -30.32504794425367 225.04048027992587 -32.456298828125 223.726806640625 C-37.48323861613062 220.62941466140524 -42.51379273865416 217.53853617613868 -47.560211181640625 214.47299194335938 C-49.913830647172716 213.04264100389082 -52.264980588685006 211.60825785308475 -54.615966796875 210.173583984375 C-56.25397072976894 209.17626139981974 -57.89547896369973 208.1847013011456 -59.537109375 207.193359375 C-73.44879664619165 198.69719809961362 -83.2723612664293 190.73112172209767 -88.25 174.703125 C-90.88354937565585 161.34726745203102 -86.8151300059371 149.69901800459945 -82.10546875 137.28515625 C-81.58168379017604 135.88390478639906 -81.0587203973621 134.48234599031423 -80.53651428222656 133.08050537109375 C-79.13727450284459 129.33123411467858 -77.72681217737946 125.58628040227393 -76.31404113769531 121.84209060668945 C-74.84117688122429 117.93289811287048 -73.37864043773126 114.01984544706556 -71.9150390625 110.107177734375 C-69.5281848477517 103.73016128816442 -67.13526017901246 97.35545546688712 -64.73779296875 90.982421875 C-61.74771222877604 83.0334489923741 -58.771061943954464 75.07952618759211 -55.800790786743164 67.12313270568848 C-53.702464106621605 61.5032397864845 -51.6011554249211 55.88446076018715 -49.5 50.265625 C-49.0692416381836 49.11333404541017 -48.6384832763672 47.96104309082031 -48.194671630859375 46.773834228515625 C-45.56450221484724 39.74336068207407 -42.92081833620182 32.71826321448097 -40.25 25.703125 C-39.94641571044923 24.90391632080079 -39.64283142089843 24.10470764160158 -39.330047607421875 23.281280517578125 C-38.5242936247343 21.170999588542486 -37.70821637332753 19.065131045218067 -36.88671875 16.9609375 C-36.453190917968755 15.844770507812484 -36.01966308593751 14.728603515624997 -35.572998046875 13.57861328125 C-32.28249324779165 6.426820418433323 -27.267072379248958 2.013064801532522 -20.25 -1.296875 C-13.262142832420352 -3.4048932469326303 -6.756827500925027 -2.5392013986189 0 0 Z M-19.25 20.703125 C-20.985671724973827 24.25925893406128 -22.325172084442187 27.927561322872663 -23.6640625 31.6484375 C-24.07160766601561 32.74611953735351 -24.479152832031247 33.843801574707015 -24.8990478515625 34.97474670410156 C-26.237213013330944 38.5879411012734 -27.55599430856347 42.207897404081194 -28.875 45.828125 C-29.80416442183497 48.35176579878794 -30.73768384388117 50.87378733851716 -31.67138671875 53.395751953125 C-33.59420133553394 58.594345724036856 -35.50882537222077 63.79588289186191 -37.41796875 68.99951171875 C-41.29764289744102 79.57029991802577 -45.236316467047175 90.11907415241711 -49.17333984375 100.66860961914063 C-50.36602260522318 103.86655388147244 -51.556431055389766 107.06533543799895 -52.74609375 110.264404296875 C-57.51261605264145 123.0782749231264 -62.315960058419606 135.87716669945723 -67.21923828125 148.639404296875 C-67.41638427734375 149.15458618164064 -67.41638427734375 149.15458618164064 -68.4140625 151.76171875 C-68.7487353515625 152.63111083984376 -69.083408203125 153.5005029296875 -69.42822265625 154.396240234375 C-71.95428200365146 161.48736761809346 -72.41989043343318 167.85011115995917 -69.25 174.828125 C-64.79613639294581 184.01421868954924 -54.769316557980574 189.11109759116187 -46.375 194.140625 C-45.226062080002635 194.83706573631935 -44.07763509459667 195.5343499852404 -42.9296875 196.232421875 C-40.55175575181735 197.67756763021362 -38.17169921919776 199.1191132819751 -35.7900390625 200.55810546875 C-30.255954601381802 203.90597132297 -24.754764530766153 207.30735320209646 -19.25 210.703125 C-13.117882289125845 214.48159508892093 -6.984318256229017 218.25751465864437 -0.836639404296875 222.0106201171875 C1.5551912337216436 223.47118112285455 3.9454983695644046 224.93422515353382 6.335693359375 226.3974609375 C8.018540733249552 227.4262509904667 9.703578327564912 228.45145567959912 11.388671875 229.4765625 C12.411542968749984 230.10304687500002 13.434414062499997 230.72953125000004 14.48828125 231.375 C15.385871582031257 231.92252929687504 16.283461914062514 232.47005859374997 17.208251953125 233.0341796875 C22.733331370240876 236.66201975045306 25.67732755447446 239.266931616526 27.75 245.703125 C28.669368178465902 254.13066663593725 24.66815066676537 261.1593110032266 20.75 268.328125 C15.372016691417201 278.34806901816825 10.314925091217248 288.5228378681678 5.25 298.703125 C-5.793495986345675 320.89360712807104 -5.793495986345675 320.89360712807104 -11.30859375 331.087890625 C-13.896454537276895 335.8960183377247 -16.01136348180725 340.66619283406635 -18.25 345.703125 C-2.079999999999984 345.703125 14.090000000000003 345.703125 30.75 345.703125 C44.501724137932 321.63760775861897 44.501724137932 321.63760775861897 50.5 310.703125 C51.173561617946234 309.4785765383573 51.84731423191346 308.25413311793744 52.521240234375 307.02978515625 C53.90862739255522 304.5088749922303 55.29523036862474 301.98753627571625 56.68115234375 299.4658203125 C59.72038170903605 293.93685911651437 62.76696303103037 288.4119539064682 65.814453125 282.8875427246094 C66.80757670092643 281.0870507376887 67.80027461225762 279.2863244857649 68.79296875 277.485595703125 C72.16568009039702 271.36999914530463 75.54924765658302 265.26064361995304 78.94921875 259.16015625 C79.29151016235352 258.54563598632814 79.63380157470704 257.9311157226563 79.98646545410156 257.2979736328125 C81.61510950281075 254.37429922974246 83.24551446762803 251.45165265967296 84.879150390625 248.53076171875 C87.97313268114516 242.98089078265684 90.96626969424506 237.41528446403674 93.75 231.703125 C84.11298350111173 223.33484736791218 74.44867077492708 214.9998422354684 64.75 206.703125 C57.56534558156022 200.55702028857354 50.39088485184868 194.40007327045043 43.25 188.203125 C38.173139876767806 183.79977331031648 33.093479309859504 179.39975064681101 28 175.015625 C27.415410156250005 174.5103125 26.83082031250001 174.005 26.228515625 173.484375 C23.801682171406185 171.39930862448625 21.416275367005312 169.48064191133687 18.75 167.703125 C20.122860347447784 159.56421601975137 21.896860194260285 151.5682762225694 23.8671875 143.5546875 C24.1656155395508 142.33913177490234 24.464043579101542 141.12357604980468 24.771514892578125 139.87118530273438 C25.399840227687946 137.32101045787937 26.03023143666877 134.77134380230973 26.66259765625 132.22216796875 C27.46945077175144 128.9669329855201 28.260831540706675 125.70813433591223 29.048978805541992 122.44832801818848 C29.810469332338926 119.31433173530593 30.590112264756783 116.18484962604379 31.3671875 113.0546875 C31.646501159667963 111.89006988525392 31.925814819335926 110.72545227050784 32.213592529296875 109.52554321289063 C32.4871255493164 108.44026336669924 32.76065856933593 107.3549835205078 33.04248046875 106.23681640625 C33.276274108886724 105.28626373291013 33.51006774902345 104.33571105957031 33.750946044921875 103.35635375976563 C35.18243104678194 99.55470004846904 37.1538496483941 96.482022768621 40.86328125 94.671875 C41.5890234375 94.51718749999998 42.31476562500001 94.36250000000001 43.0625 94.203125 C43.78050781249999 94.02781249999998 44.49851562499998 93.85250000000002 45.23828125 93.671875 C50.33176464225653 93.73524648855062 53.847296283540345 95.9146716843718 57.55859375 99.15625 C58.426132812499986 100.07921875 59.293671875 101.00218749999999 60.1875 101.953125 C65.29564972357909 107.34294616884347 65.29564972357909 107.34294616884347 67.32582092285156 108.95233154296875 C71.54038940213215 112.29480497497855 74.80826965035192 115.96682675139073 78.03879451751709 120.22977066040039 C87.70453260812837 132.88262233538728 98.4101884581932 146.17754421747725 114.87408447265625 148.9461212158203 C128.58951101410037 150.5158773606749 142.4163481701001 149.7371985804383 156.15771484375 148.900390625 C162.21602294259378 148.56770658640642 168.27886464034816 148.42580517852468 174.34375 148.265625 C186.15931179299787 147.9264948951684 197.94818118993317 147.36614852865546 209.75 146.703125 C209.75 136.143125 209.75 125.583125 209.75 114.703125 C207.24204833984373 114.68330566406252 204.73409667968753 114.66348632812503 202.150146484375 114.64306640625 C193.85199676562428 114.57607695708629 185.5539710876031 114.49843863014894 177.25596523284912 114.41559791564941 C172.22625408020133 114.36571089879448 167.19656315775012 114.31938021637615 162.166748046875 114.28125 C157.3102016573706 114.24430123945376 152.45382769753917 114.19791532786519 147.5974292755127 114.14506149291992 C145.74717301062287 114.12656845897948 143.89687985386297 114.11144182065937 142.04656791687012 114.09978103637695 C139.449405135083 114.0828312483253 136.8526328795682 114.0537756051126 134.255615234375 114.02197265625 C133.87546768188474 114.02089256286621 133.87546768188474 114.02089256286621 131.95169067382813 114.01542663574219 C126.15168020168176 113.92504798020366 120.77245223943396 113.47277070950469 116.25 109.515625 C115.42500000000001 108.58749999999998 114.60000000000002 107.65937500000001 113.75 106.703125 C112.66971171263913 105.65830072207268 111.58610584916846 104.61690054840193 110.5 103.578125 C107.6823299758305 100.76648853048607 105.1730964359079 97.8112734189275 102.6875 94.703125 C98.2963366697303 89.242415884313 93.57881585757161 84.14986522987451 88.7744140625 79.052001953125 C85.23327080359627 75.29447691370305 81.75647526712055 71.50283557466645 78.38671875 67.58984375 C76.37126227984606 65.26653712688699 74.31151537524502 62.98564034847061 72.25 60.703125 C61.36864406779654 48.63740379626418 61.36864406779654 48.63740379626418 58.8359375 44.8125 C54.84022993657652 40.04678629154179 48.76402027308524 38.39006119958529 43.125 36.203125 C41.858063779341705 35.69904344863096 40.59171826310285 35.19347504764576 39.325927734375 34.6865234375 C36.60281727780958 33.59846714443884 33.876016969950314 32.52034456097567 31.14697265625 31.447265625 C26.50018657560048 29.613314506444908 21.88133936976044 27.71359968274919 17.26171875 25.8125 C14.888955528547143 24.841893002968135 12.515520255606475 23.872956328854684 10.14166259765625 22.905029296875 C8.595858197477355 22.27327526985289 7.051205259611095 21.63869601848188 5.50775146484375 21.001220703125 C3.3333708371981743 20.105212224642088 1.1538815251589654 19.222940461485337 -1.02734375 18.34375 C-1.6699665832519486 18.075604858398435 -2.312589416503897 17.80745971679687 -2.9746856689453125 17.53118896484375 C-10.141922376138467 14.676956006202488 -14.374157394407945 14.236708560897739 -19.25 20.703125 Z M176.75 64.703125 C176.75 75.263125 176.75 85.823125 176.75 96.703125 C178.1589453125 96.72181640625001 178.1589453125 96.72181640625001 185.2890625 96.81640625 C188.02953690038703 96.86266734094966 190.7698771962527 96.9138843114539 193.51025390625 96.965576171875 C195.40925898796667 96.99875292675415 197.30836095764147 97.02680731107671 199.20751953125 97.049560546875 C201.94345234948548 97.08324018083442 204.6785031083656 97.13556220341582 207.4140625 97.19140625 C207.8360542297363 97.19460121154782 207.8360542297363 97.19460121154782 209.97158813476563 97.21076965332031 C214.9185670989396 97.33311362506095 218.54295436392493 97.82650922802407 222.75 100.703125 C226.9604650898882 105.22955576184705 226.19988709145855 111.09548868232508 226.18359375 116.91796875 C226.18883560180666 118.00646621704101 226.19407745361326 119.09496368408202 226.19947814941406 120.21644592285156 C226.20589317574843 122.51530098589728 226.2045681086757 124.81418889586882 226.196044921875 127.113037109375 C226.187538375126 130.6247826515537 226.216300120555 134.1348995751867 226.248046875 137.646484375 C226.2496591226158 139.8828120136028 226.24908090689638 142.11914252527004 226.24609375 144.35546875 C226.2573277282715 145.40250473022462 226.26856170654298 146.44954071044924 226.28013610839844 147.52830505371094 C226.22482144335743 153.33307885341168 225.99550754128558 157.32761233246316 221.75 161.703125 C216.92558001304866 164.13159510820668 211.92775611848623 164.04278988714242 206.6328125 164.1171875 C206.20423446655275 164.12687057495117 206.20423446655275 164.12687057495117 204.03536987304688 164.17587280273438 C201.3153457180336 164.2353375615374 198.59527847680926 164.28192069466138 195.875 164.328125 C194.02341971721967 164.36633529614693 192.17185663051112 164.40538878421307 190.3203125 164.4453125 C185.79696782656583 164.5425887295362 181.27379169561664 164.6224188570735 176.75 164.703125 C176.75 175.263125 176.75 185.823125 176.75 196.703125 C220.31 196.703125 263.87 196.703125 308.75 196.703125 C308.75 153.143125 308.75 109.583125 308.75 64.703125 C265.19 64.703125 221.63 64.703125 176.75 64.703125 Z " fill="#000000" transform="translate(181.25,169.296875)"/>
<path d="M0 0 C11.19742843099209 7.6768395793264546 18.767773973674934 18.496028728619606 21.868408203125 31.759765625 C24.21021136092537 44.74081652658833 22.522245603078204 58.55891806886444 15.375 69.75 C14.354665719248658 71.14090344739242 13.31386475306897 72.51710227497728 12.25 73.875 C11.798828125 74.48859375 11.34765625 75.10218750000001 10.8828125 75.734375 C3.4298785979112836 85.25055049080254 -7.156346259804025 90.26957798966964 -18.75 92.875 C-35.893202626840434 93.93023245230802 -49.36719463671764 91.16618810120644 -62.75 79.875 C-73.66809955649282 68.78051757506626 -78.17557230405075 56.11138538517619 -78.11572265625 40.816650390625 C-77.86885328174128 29.744898672405697 -74.57139444985441 20.581704473683516 -67.75 11.875 C-67.298828125 11.261406249999993 -66.84765625 10.6478125 -66.3828125 10.015625 C-50.69421353878823 -10.016145425050055 -20.994701515112297 -12.283207110501394 0 0 Z M-51.65625 20.44921875 C-57.98144049500843 27.77747117052283 -61.15345903404062 35.973447872714516 -60.75 45.6875 C-59.608477996088254 54.209094494317895 -55.184712080404296 62.64843669408512 -48.7890625 68.41015625 C-40.92010911290794 74.06314000509485 -32.357536807533506 76.77485909830222 -22.73828125 75.46484375 C-15.825818340328624 74.01643558699482 -10.872490064189208 71.72089772810989 -5.75 66.875 C-5.122226562500032 66.310390625 -4.494453125000007 65.74578125 -3.84765625 65.1640625 C2.211697400824562 59.09189837634071 4.957004605308384 51.434587614273 5.40625 42.91015625 C4.776864569597933 31.69136095308278 -0.2997370949499327 23.85897883962474 -8.37109375 16.37109375 C-21.698008329951563 5.664819447161207 -40.12975015207286 9.016278154085256 -51.65625 20.44921875 Z " fill="#000000" transform="translate(269.75,75.125)"/>
</svg>
