<?xml version="1.0" encoding="UTF-8"?>
<!-- Generator: visioncortex VTracer 0.6.12 -->
<svg version="1.1" xmlns="http://www.w3.org/2000/svg" width="600" height="600">
<path d="M0 0 C0.8017968750000364 0.35062500000000085 1.603593749999959 0.7012500000000017 2.4296875 1.0625 C8.848419972157387 4.260761162597454 13.915340707230826 9.01111339938911 19 14 C19.56718749999999 14.542695312500001 20.134374999999977 15.085390625000002 20.71875 15.64453125 C32.204905455965275 27.711104135920976 34.31077582511716 42.80299634897054 34.1953125 58.65625 C34.19157659631719 60.169390991707076 34.188732354668616 61.68253442285325 34.186737060546875 63.1956787109375 C34.17914601273105 67.15436629614256 34.159537118103344 71.11290423667164 34.1373291015625 75.071533203125 C34.11677244026225 79.12058488538163 34.10771445715693 83.16966103718357 34.09765625 87.21875 C34.07628637509583 95.14590156507322 34.0422059803841 103.0729321014627 34 111 C35.24942382812503 110.9908154296875 36.49884765625001 110.981630859375 37.7861328125 110.97216796875 C51.094885639837344 110.87433473285134 64.37468764718648 115.84088426906217 74.0859375 124.97265625 C77.09963305144174 128.16471337489443 79.84919885235394 131.54288323961856 82.58203125 134.9765625 C85.16307075563998 138.20390430511367 87.81926003153364 141.35565244288475 90.5 144.5 C94.62187766734911 149.34884900926716 98.66993137789717 154.2516299785594 102.6875 159.1875 C105.26146392202486 162.31799666192214 107.87569086343359 165.41172460724505 110.5 168.5 C114.62101633700416 173.34959381094964 118.66991353907866 178.25160806229667 122.6875 183.1875 C125.26146392202486 186.31799666192214 127.87569086343353 189.41172460724502 130.5 192.5 C134.61324735675083 197.3404513093256 138.65535713243145 202.23248773860254 142.6640625 207.16015625 C145.82719112229654 211.00563201657124 149.04907138766873 214.800074550891 152.283203125 218.5859375 C154.61748657322516 221.32692626350888 156.88125958665745 224.08848585583723 159 227 C157.4604386635911 230.65881176680114 155.25910942615786 232.9829178969767 152.45849609375 235.7685546875 C151.9997862243652 236.2275566101074 151.54107635498048 236.68655853271486 151.06846618652344 237.1594696044922 C149.5581508978824 238.6683967501973 148.0408861232617 240.1701245431209 146.5234375 241.671875 C145.47210829786525 242.71947224229666 144.4212211480389 243.76751328346575 143.37075805664063 244.81597900390625 C140.6099898372488 247.5691251974231 137.84326750714354 250.3162112710006 135.07525634765625 253.06207275390625 C132.24967072156096 255.86716915659377 129.4297655534184 258.677963209575 126.609375 261.48828125 C121.07845625503921 266.99777532166786 115.54123411278306 272.50087876990494 110 278 C106.99824535548879 276.56528815542555 105.0105577364281 275.21808632676493 102.75 272.76171875 C102.14776611328125 272.11307861328123 101.5455322265625 271.4644384765625 100.925048828125 270.796142578125 C100.28978271484374 270.10029052734376 99.65451660156248 269.4044384765625 99 268.6875 C98.33572998046873 267.9690893554687 97.67145996093751 267.2506787109375 96.987060546875 266.510498046875 C94.986360121583 264.34489024257243 92.9930372224066 262.1726585003844 91 260 C89.92391297618349 258.8352571893596 88.8471494666071 257.67113879859437 87.76953125 256.5078125 C85.3283937361445 253.8713998933939 82.89344972944065 251.22937019362507 80.46044921875 248.58544921875 C78.95605153482649 246.95228998113726 77.44910468405186 245.3215185118721 75.94140625 243.69140625 C69.59237407984165 236.82579144648855 63.28090763318738 229.928002598563 57 223 C60.046367434063995 241.19056116847725 63.538363411461205 259.2852101170355 67.10686779022217 277.3786344528198 C67.90829283770864 281.4451110620903 68.70675300834756 285.51216991257735 69.50555419921875 289.57916259765625 C70.863411489133 296.49061693184194 72.22295468207244 303.4017376969215 73.58370971679688 310.3126220703125 C75.69605218666521 321.0408737683929 77.80452965186134 331.7698831702467 79.912353515625 342.4990234375 C80.61428254293617 346.0717204437929 81.31623755715754 349.64441234374897 82.01820373535156 353.21710205078125 C82.19115217387679 354.09734125852583 82.36410061240196 354.97758046627047 82.54228991270065 355.88449358940125 C84.09785888214464 363.80141616148273 85.65427224938912 371.7181726300541 87.21076107025146 379.63491439819336 C91.93793337470993 403.6786661066071 96.66012779119819 427.7233851584398 101.36514282226563 451.771484375 C102.24966028913673 456.29187438576866 103.13616166862312 460.8118728305959 104.02316474914551 465.3317756652832 C104.66159069689371 468.5870223147051 105.2984589596075 471.84257201575974 105.9347915649414 475.09822845458984 C106.22093541584383 476.5606808705272 106.50770275644544 478.0230114620358 106.79515838623047 479.4852066040039 C107.17563681338083 481.4211131644647 107.55360143755092 483.3575132979545 107.931396484375 485.2939453125 C108.13989730834959 486.3584893798828 108.34839813232423 487.42303344726565 108.56321716308594 488.51983642578125 C109 491.0000000000001 109 491.0000000000001 109 493 C81.27999999999997 493 53.56 493 25 493 C21.039999999999964 481.12 17.08000000000004 469.24 13 457 C9.257812500078046 445.8085937502333 9.257812500078046 445.8085937502333 7.67822265625 441.085693359375 C0.5178699170706977 419.6641955064988 -6.5168305010551535 398.2030961707898 -13.47265625 376.71435546875 C-14.656084424641847 373.05899068448986 -15.844533148635719 369.4052941611708 -17.035736083984375 365.75245666503906 C-17.985764876217104 362.83613973638154 -18.930119328796195 359.9179882358755 -19.875 357 C-20.03895263671876 356.49883666992184 -20.03895263671876 356.49883666992184 -20.86865234375 353.962646484375 C-21.156918945312498 353.0674731445313 -21.445185546874995 352.1722998046875 -21.7421875 351.25 C-21.98823730468746 350.49203125 -22.234287109375032 349.7340625 -22.48779296875 348.953125 C-23 347 -23 347 -23 344 C-23.659999999999968 344 -24.319999999999993 344 -25 344 C-25.04980010986327 344.2917133331299 -25.04980010986327 344.2917133331299 -25.30181884765625 345.76795959472656 C-26.578791218987874 352.71545169179205 -28.582998324429923 359.2547841914626 -30.859375 365.93359375 C-31.049841537475572 366.5007736968994 -31.049841537475572 366.5007736968994 -32.01371765136719 369.3710479736328 C-32.83010955884157 371.8003623060328 -33.649169935338364 374.2287812415373 -34.470672607421875 376.6563720703125 C-36.42556238183391 382.4341646575516 -38.363923116370984 388.21748463094974 -40.30329704284668 394.0004997253418 C-40.95759917300029 395.95091167404036 -41.61260665802797 397.90108567281857 -42.26771545410156 399.8512268066406 C-46.054713635643566 411.1302478828484 -49.76620399632782 422.4328534796403 -53.4375 433.75 C-53.71520233154297 434.60511169433596 -53.99290466308594 435.46022338867186 -54.279022216796875 436.34124755859375 C-57.066635692241334 444.925942399984 -59.84315885101637 453.51421954073913 -62.61967468261719 462.1025085449219 C-63.748595419858646 465.5937306230485 -64.8784658981009 469.08464507217195 -66.00833129882813 472.5755615234375 C-66.79337693812465 475.00336081900696 -67.57637352522715 477.43181368569094 -68.359130859375 479.8603515625 C-68.8291967466237 481.3144749717235 -69.29932638364141 482.7685777750685 -69.76953125 484.22265625 C-69.98233734130861 484.88493728637695 -70.19514343261719 485.5472183227539 -70.41439819335938 486.2295684814453 C-71.16986930070465 488.5612749528391 -71.90207686096892 490.80415372193784 -73 493 C-100.72 493 -128.44 493 -157 493 C-151.25635298058188 461.98430609514213 -151.25635298058188 461.98430609514213 -148.840576171875 449.640380859375 C-148.55999971227118 448.2015588463819 -148.27953740139606 446.76271457024376 -147.99917602539063 445.32385063171387 C-147.25356867225696 441.49892090599616 -146.50641548440416 437.6742947922541 -145.75892043113708 433.8497335910797 C-144.95752937091413 429.74795764385317 -144.15760502044628 425.6458956238942 -143.3574981689453 421.5438690185547 C-142.00026412068004 414.5864864091228 -140.6421343365906 407.6292791648125 -139.283447265625 400.67218017578125 C-137.3530012255357 390.78712248704403 -135.4250238961964 380.9015843295204 -133.49754691123962 371.01594734191895 C-121.78607816869072 310.95225408650094 -121.78607816869072 310.95225408650094 -115.98137855529785 281.46509742736816 C-115.37952277455565 278.40675050952643 -114.77836872021999 275.3482666855968 -114.17753601074219 272.2897186279297 C-113.99032517433164 271.33673920631406 -113.80311433792116 270.3837597846985 -113.61023044586182 269.4019021987915 C-113.24935500547747 267.56476344217907 -112.88851578599483 265.72761757011875 -112.52771663665771 263.8904638290405 C-111.52432953026852 258.78390757125135 -110.51572140081117 253.67841864093913 -109.50298595428467 248.57370853424072 C-108.90455815921439 245.55180313001608 -108.31060057753228 242.52903326054798 -107.7180233001709 239.5059757232666 C-107.32754520862613 237.52176460050623 -106.93120058681762 235.5387107205437 -106.53462219238281 233.5557098388672 C-106.42385093688966 232.98843421936033 -106.42385093688966 232.98843421936033 -105.86328125 230.11767578125 C-105.67032470703126 229.14275177001957 -105.47736816406251 228.16782775878903 -105.278564453125 227.16336059570313 C-105.18663818359374 226.44945159912106 -105.09471191406249 225.73554260253906 -105 225 C-105.32999999999998 224.66999999999996 -105.66 224.34000000000003 -106 224 C-114.17426656013049 232.65383586784617 -122.33493889884792 241.31613064963574 -130.359375 250.109375 C-133.2284033230507 253.25002730629814 -136.11250130977956 256.3763438464789 -139 259.5 C-144.68382780358615 265.6509790103188 -150.34535783624145 271.8221921242402 -156 278 C-159.658811766801 276.4604386635912 -161.98291789697672 274.2591094261578 -164.7685546875 271.45849609375 C-165.22755661010743 270.9997862243652 -165.68655853271486 270.5410763549805 -166.1594696044922 270.06846618652344 C-167.66839675019742 268.5581508978823 -169.17012454312083 267.04088612326177 -170.671875 265.5234375 C-171.71947224229666 264.47210829786525 -172.76751328346575 263.4212211480389 -173.81597900390625 262.3707580566406 C-176.56912519742306 259.60998983724886 -179.31621127100072 256.8432675071435 -182.06207275390625 254.07525634765625 C-184.8671691565937 251.24967072156096 -187.677963209575 248.4297655534184 -190.48828125 245.609375 C-195.99777532166786 240.0784562550392 -201.50087876990494 234.54123411278306 -207 229 C-205.3738425992341 225.6087851842858 -203.474166676968 222.96260549761973 -201.0625 220.0625 C-200.2594140625 219.0944140625 -199.456328125 218.126328125 -198.62890625 217.12890625 C-195.4633544023134 213.35289769948267 -192.2783854539682 209.5932854548092 -189.088134765625 205.838134765625 C-186.18867644339684 202.4211506769751 -183.32910244990126 198.9757544384501 -180.5 195.5 C-176.7521220197874 190.89546419573884 -172.93016555659824 186.35980808594158 -169.0859375 181.8359375 C-166.1875517709804 178.41940460154674 -163.3284489962672 174.97495162398542 -160.5 171.5 C-156.7521220197874 166.89546419573878 -152.93016555659827 162.3598080859416 -149.0859375 157.8359375 C-145.44680181231647 153.54623006926687 -141.88274956828718 149.1991625325619 -138.33203125 144.8359375 C-135.19684037005393 141.02329331433694 -132.0058624120548 137.25926435652192 -128.8046875 133.501953125 C-126.80375277186727 131.1498218885372 -124.84161938956538 128.79298043050676 -122.96484375 126.33984375 C-114.8832028559303 116.71578232743985 -102.1680811859622 112.2737936227729 -90 111 C-87.33270471308629 110.96184931235689 -84.66774772614411 110.9870514224558 -82 111 C-82.00888244628908 110.17695877075195 -82.01776489257813 109.3539175415039 -82.02691650390625 108.50593566894531 C-82.10753625949735 100.69574543165999 -82.16820259946235 92.88576096656479 -82.20724868774414 85.07526111602783 C-82.22799852113619 81.06114050751523 -82.25608078203953 77.04736775543604 -82.3017578125 73.033447265625 C-82.34567179125318 69.14952432284413 -82.36923148625291 65.26593294588534 -82.37950897216797 61.38178062438965 C-82.38681966795974 59.91040525238836 -82.4010920599182 58.4390451060563 -82.42292022705078 56.96781349182129 C-82.65827101597404 40.42578847019138 -78.58303447817303 25.8802431706265 -67.08984375 13.553466796875 C-49.89826920073165 -3.9583547016920306 -22.78810330960539 -10.098518084723096 0 0 Z M-55.40234375 26.88671875 C-62.22039836147053 35.90522130453682 -65.33865141594464 46.08813837369922 -65.22705078125 57.251953125 C-65.22734283447267 58.033406982421866 -65.22763488769533 58.81486083984376 -65.22793579101563 59.6199951171875 C-65.22655504983362 62.17386421618366 -65.21105380410745 64.72743258606837 -65.1953125 67.28125 C-65.19157789287829 69.06343425180557 -65.18873303655943 70.84562057011473 -65.18673706054688 72.6278076171875 C-65.17913584716825 77.29668949426063 -65.1595178489955 81.96544504603865 -65.1373291015625 86.63427734375 C-65.11679467849302 91.40720918512838 -65.10771915740821 96.18016162693601 -65.09765625 100.953125 C-65.0762683747617 110.30213854258548 -65.04217524347928 119.65105872662241 -65 129 C-65.76030517578124 128.979052734375 -66.52061035156248 128.95810546875 -67.303955078125 128.9365234375 C-70.8066644788517 128.85248606975043 -74.30916076954838 128.8010637680649 -77.8125 128.75 C-79.00810546874999 128.716484375 -80.2037109375 128.68296875 -81.435546875 128.6484375 C-93.29400174016777 128.5191900355295 -101.8835714022403 131.03432247854886 -110.46484375 139.31640625 C-115.21770941470797 144.34755988891274 -119.6357471171687 149.63139362887873 -124 155 C-124.7618359375 155.930703125 -125.52367187499999 156.86140625 -126.30859375 157.8203125 C-127.77028657543363 159.60769445766036 -129.2299217933229 161.39676106036814 -130.6875 163.1875 C-133.7236736573326 166.88014363729638 -136.8184997031749 170.52121788274172 -139.9140625 174.1640625 C-142.81244822901962 177.5805953984533 -145.6715510037328 181.02504837601458 -148.5 184.5 C-151.788236118599 188.53983294570733 -155.1272644223879 192.5308767118932 -158.5 196.5 C-162.62848691489154 201.35952108415472 -166.69270525248226 206.26590427750537 -170.71875 211.2109375 C-174.77578806072614 216.17108334821654 -178.89013644533918 221.08360789807796 -183 226 C-178.03805145013024 231.99500996926884 -172.65233760016065 237.4642703733349 -167.125 242.9375 C-166.245859375 243.81212890625 -165.36671875000002 244.6867578125 -164.4609375 245.587890625 C-162.30956540343396 247.7275704819108 -160.15588207956316 249.864865971247 -158 252 C-154.77197130536723 250.61003228227844 -152.93647118268694 249.05571565794736 -150.703125 246.359375 C-147.1772265408767 242.19513496680753 -143.49781156823937 238.21436272910944 -139.75 234.25 C-135.12290231901164 229.33338559260346 -130.50434664051485 224.41019961978589 -125.9375 219.4375 C-125.50050781250002 218.96248046875002 -125.50050781250002 218.96248046875002 -123.2890625 216.55859375 C-121.37833172774708 214.42287932026338 -119.58857055524345 212.24620687869023 -117.8125 210 C-114.26132965152104 205.85020379277745 -110.13066236889736 203.5235762927294 -104.734375 202.62109375 C-99.03286923140541 202.32050416015912 -95.60561075732002 203.68396025472958 -91 207 C-86.89743405020619 211.51282254477323 -86.7257157892571 215.81135386175552 -86.78814315795898 221.6686954498291 C-87.20564685273538 228.2336566978238 -88.60612116682921 234.64206459175625 -89.89892578125 241.078857421875 C-90.21207362262408 242.6777481275371 -90.52430298956503 244.27681894710014 -90.835693359375 245.8760528564453 C-91.68273035083041 250.21253448144319 -92.54250966810972 254.54640167792195 -93.40454721450806 258.8799226284027 C-94.32117111006536 263.49985806162283 -95.22568178976627 268.122165040965 -96.13156127929688 272.7442169189453 C-97.86325621831256 281.57037403641624 -99.60538968447202 290.39443635019796 -101.3514221906662 299.217767059803 C-103.28103593365631 308.97090589760955 -105.20040901187997 318.7260478538214 -107.11820840835571 328.48151564598083 C-108.0603104114021 333.2736402720861 -109.00288688475013 338.06567155629756 -109.94549560546875 342.8576965332031 C-110.13144562482836 343.8030574333668 -110.31739564418791 344.7484183335304 -110.50898051261902 345.72242653369904 C-112.18790472113523 354.2571154363598 -113.86910674494425 362.79135497809904 -115.5505485534668 371.32554817199707 C-117.1884521664663 379.6388721131735 -118.82538542697648 387.952387027106 -120.46183204650879 396.2659978866577 C-120.82114855344477 398.09139845714674 -121.18049694570547 399.9167927515312 -121.53987693786621 401.7421808242798 C-123.60192421570099 412.21633767645665 -125.66087815957292 422.6910857984179 -127.70922982692719 433.167930662632 C-128.48386430859168 437.1298208685625 -129.25999853109673 441.091400612939 -130.0403175354004 445.0521755218506 C-130.755846560761 448.6843395316682 -131.46699631776562 452.3173321268033 -132.17461252212524 455.95104575157166 C-132.55386987130476 457.89266510747643 -132.93773882165704 459.83338191033243 -133.32175827026367 461.7740650177002 C-133.43342142105104 462.3499231624603 -133.43342142105104 462.3499231624603 -133.99850463867188 465.2641143798828 C-134.095901556015 465.7611444330215 -134.095901556015 465.7611444330215 -134.58878898620605 468.27641773223877 C-135 471 -135 471 -135 476 C-118.82999999999998 476 -102.66 476 -86 476 C-71.57905384088741 432.87320818454066 -71.57905384088741 432.87320818454066 -65.01956176757813 412.684814453125 C-64.1823254733078 410.1090807152415 -63.343162560054225 407.53398096336457 -62.503662109375 404.958984375 C-59.481611300317525 395.68115726528396 -56.48401370445259 386.39604161052574 -53.51676940917969 377.10052490234375 C-51.89974556688753 372.0385363408095 -50.26890439765663 366.98100476576957 -48.637847900390625 361.92352294921875 C-47.84305222231171 359.4497610571236 -47.053245264269435 356.97439031265316 -46.268646240234375 354.49737548828125 C-45.1695907612235 351.0292082830297 -44.053456881308875 347.56696371538027 -42.93359375 344.10546875 C-42.61013977050777 343.0699537658691 -42.28668579101566 342.0344387817383 -41.95343017578125 340.96754455566406 C-39.85663499153338 334.5607485019365 -37.74325021107529 329.3529001326759 -31.8125 325.625 C-26.24588420915694 324.38797426870156 -21.026654095618028 324.2869180033937 -15.625 326.1875 C-9.991781391582435 330.07710332485976 -8.043076401898134 334.879012563392 -6.0458984375 341.1435546875 C-5.912012963294956 341.5487835693359 -5.912012963294956 341.5487835693359 -5.234471321105957 343.5994873046875 C-4.349314819844267 346.28707889255026 -3.479358045808567 348.9793372191017 -2.609375 351.671875 C-1.9862683805821462 353.5739716870682 -1.36222103969709 355.4757604312825 -0.7372894287109375 357.37725830078125 C0.9275818505870461 362.45173335399096 2.57949119648913 367.53034006368836 4.228885650634766 372.60986328125 C5.925835313025004 377.82833264078306 7.634733229537687 383.04288488940784 9.342529296875 388.2578125 C12.342862891725758 397.4251593927687 15.333579694921525 406.5956035334404 18.319100379943848 415.76778411865234 C21.039283787130444 424.12388402676476 23.7696920633864 432.4766073839835 26.50390625 440.828125 C29.414253610741355 449.72073888857994 32.31966337660333 458.6149245197404 35.21327209472656 467.51300048828125 C36.1342343088412 470.3447543470218 37.05834783450683 473.17504350352044 38 476 C54.170000000000016 476 70.34000000000003 476 87 476 C86.3995847653108 469.9958476531083 85.8232236274381 464.4861953506617 84.67645263671875 458.64259338378906 C84.61119121193883 458.3066886588931 84.61119121193883 458.3066886588931 84.28092885017395 456.60680717229843 C83.84885904687621 454.3887708056174 83.41029560432014 452.17207261075447 82.9716796875 449.955322265625 C82.65725691628109 448.34836963952614 82.34324264718816 446.741337039302 82.02960205078125 445.1342315673828 C81.17753909980019 440.7742817318158 80.31982131914879 436.4154614452334 79.46112728118896 432.05681347846985 C78.54824894614313 427.41768912918127 77.6407834455747 422.77750604621303 76.73272705078125 418.13743591308594 C74.99879796713032 409.28142140825076 73.26028244781315 400.4263139669977 71.52001690864563 391.5715426802635 C69.59240662730042 381.76271415895496 67.66899392635389 371.95306474130433 65.74637699127197 362.14325642585754 C65.1798646592606 359.25285700827817 64.61322976044562 356.362481643095 64.04656219482422 353.47211265563965 C62.17688941168785 343.9351695184356 60.308339948863704 334.3980077674387 58.4415283203125 324.8605041503906 C57.8908819739882 322.04775868949633 57.34019166246236 319.2350218441695 56.78945827484131 316.4222934246063 C56.42703569102173 314.5713021589934 56.06465255540422 312.72030316900157 55.70230960845947 310.86929631233215 C53.63248276779109 300.29749599773334 51.553247518194325 289.72765370278773 49.454896688461304 279.16147595644 C48.194977009005584 272.8169328511482 46.94122153762953 266.47119552821005 45.692381143569946 260.1244623064995 C44.844397093347766 255.81748488257892 43.9878254964911 251.51234607319117 43.12416172027588 247.208487033844 C42.4810087700493 243.9894990482901 41.851409518193464 240.7678887200883 41.2197265625 237.546630859375 C40.991781539916985 236.42569219589234 40.76383651733397 235.30475353240968 40.52898406982422 234.14984703063965 C39.0210882302797 226.36288010226008 37.54421991459793 218.2141002472165 40.1875 210.5625 C42.89238101155445 206.73835788021617 45.54978758950824 204.4834041368306 50 203 C56.50775639186827 202.217015503148 61.69666569185381 203.05092844890478 67 207 C69.70557865948274 209.64664526293956 72.13177749848211 212.497469298333 74.58349609375 215.3779296875 C77.42169356038954 218.62801310155606 80.41213234493665 221.73900181504246 83.375 224.875 C100.52487800627426 243.11066573719097 100.52487800627426 243.11066573719097 108 252 C111.90851198792768 250.41568546991414 114.5236735593785 247.73364905368953 117.421875 244.7734375 C117.67429962158201 244.51959793090822 117.67429962158201 244.51959793090822 118.95172119140625 243.23501586914063 C120.55592096394145 241.61966157949638 122.15300855828133 239.99747790555818 123.75 238.375 C124.83938107497966 237.27558302210082 125.92921989956892 236.17661941370363 127.01953125 235.078125 C129.685018848965 232.3906398044378 132.34415143302738 229.69700978701394 135 227 C131.24760574521156 221.8852030724001 127.35863002579913 216.9656408448339 123.1875 212.1875 C118.7995753018638 207.11605991077718 114.50512640970823 201.983709014487 110.27734375 196.77734375 C107.71795946315694 193.656036326423 105.1140620901283 190.57549970093527 102.5 187.5 C98.3789220803784 182.6504594893733 94.3300851726824 177.74839035500978 90.3125 172.8125 C87.27799808881662 169.12188956747966 84.18573442414129 165.48206633278406 81.09033203125 161.842529296875 C78.14041095543274 158.3675697656664 75.24335594002127 154.85546927086247 72.375 151.3125 C55.83168765810569 131.11255534011127 55.83168765810569 131.11255534011127 44 129 C39.35123213930649 128.75804682584476 34.715921219096174 128.81155534782565 30.0625 128.875 C28.806308593750032 128.8840234375 27.550117187500007 128.89304687499998 26.255859375 128.90234375 C23.170374776834308 128.92580751120278 20.08528795193689 128.95863798765063 17 129 C17.00888244628902 128.02662185668947 17.017764892578157 127.05324371337889 17.02691650390625 126.05036926269531 C17.108393827450243 116.827462714597 17.16815186391443 107.60463024533647 17.20724868774414 98.38144397735596 C17.22802528373353 93.64094220348846 17.25615892355131 88.9007335374827 17.3017578125 84.160400390625 C17.345573029218087 79.57622631682472 17.369211535248837 74.99233220070805 17.37950897216797 70.4079647064209 C17.386836894226917 68.66865323485669 17.401144511573875 66.92935515702541 17.42292022705078 65.19016456604004 C17.605864438063804 49.95754564919365 15.932672602349271 36.280698807635616 4.89453125 24.8125 C-4.445176105882865 16.067576072977175 -14.202634583799181 12.480929381814803 -26.984375 12.75390625 C-37.81685800571324 13.637904215492142 -47.98020133866078 18.97327613176364 -55.40234375 26.88671875 Z " fill="#000000" transform="translate(324,39)"/>
<path d="M0 0 C3.341952032294728 1.1139840107649093 3.6162642762722044 1.4251704803577923 5.1875 4.375 C8.15767519988907 10.774064716363398 8.080790280362578 16.965087355142884 5.73828125 23.54296875 C2.5067664077093923 29.62776594525218 -2.7361601281761523 34.33018384739432 -7.598388671875 39.119873046875 C-9.312043723157558 40.812049442052626 -11.00322553487996 42.524600183890186 -12.693359375 44.240234375 C-13.790386191295568 45.33461840447319 -14.88865294788667 46.427761202403474 -15.98828125 47.51953125 C-16.486448516845712 48.025795440673846 -16.984615783691424 48.532059631347636 -17.497879028320313 49.05366516113281 C-22.370970458768625 53.800610672053324 -27.53506949637608 56.427243788256135 -34.4375 56.4375 C-39.89449820847511 56.30936606416566 -43.36308919447504 54.79964425993961 -48 52 C-48 48 -48 48 -46.177734375 45.69671630859375 C-45.751376953124975 45.27480010986329 -45.751376953124975 45.27480010986329 -43.59375 43.1396484375 C-43.12557861328128 42.67089294433595 -42.6574072265625 42.20213745117189 -42.175048828125 41.71917724609375 C-40.62599207837934 40.172906114174964 -39.063252735155004 38.64128181642343 -37.5 37.109375 C-36.422958942713194 36.039794619061865 -35.346797942865294 34.969327369019254 -34.271484375 33.89801025390625 C-31.43940274085361 31.081198495126728 -28.595514926312205 28.27660454457964 -25.7490234375 25.474365234375 C-22.846306590208542 22.612571670385705 -19.954885342700834 19.739415971893948 -17.0625 16.8671875 C-11.386010266328412 11.233592538072912 -5.697001224532357 5.612851387313071 0 0 Z " fill="#000000" transform="translate(492,278)"/>
<path d="M0 0 C3.6588117668010796 1.5395613364088376 5.982917896976673 3.7408905738421367 8.7685546875 6.54150390625 C9.227556610107428 7.000213775634791 9.686558532714841 7.458923645019524 10.159469604492188 7.9315338134765625 C11.668396750197402 9.441849102117715 13.170124543120878 10.959113876738286 14.671875 12.4765625 C15.71947224229666 13.527891702134752 16.767513283465746 14.57877885196109 17.81597900390625 15.629241943359375 C20.569125197423062 18.39001016275114 23.316211271000697 21.156732492856463 26.06207275390625 23.92474365234375 C28.86716915659366 26.750329278438983 31.67796320957501 29.570234446581594 34.48828125 32.390625 C39.99777532166786 37.921543744960786 45.50087876990494 43.45876588721694 51 49 C49.64534026004503 52.1371067662115 49.13838775559827 52.91755623070742 46.0625 54.75 C39.866967724983 57.08623196203769 33.63275738069672 56.93364303588584 27.453125 54.7421875 C21.372783994608938 51.50533180925311 16.669169823589655 46.263183754222155 11.880126953125 41.401611328125 C10.187950557947374 39.68795627684244 8.475399816109828 37.99677446512004 6.759765625 36.306640625 C5.665381595526796 35.20961380870443 4.57223879759654 34.11134705211333 3.48046875 33.01171875 C2.974204559326168 32.51355148315429 2.46794036865235 32.015384216308576 1.9463348388671875 31.502120971679688 C-2.800610672053324 26.629029541231375 -5.427243788256135 21.46493050362392 -5.4375 14.5625 C-5.3028957798959055 9.140941134696334 -3.9821736283769127 3.982173628376927 0 0 Z " fill="#000000" transform="translate(106,278)"/>
<path d="M0 0 C0.5808158111572084 -0.0048037719726607975 0.5808158111572084 -0.0048037719726607975 3.5200958251953125 -0.02911376953125 C4.1482192230224655 -0.031238708496061918 4.1482192230224655 -0.031238708496061918 7.326904296875 -0.0419921875 C7.972450180053727 -0.04484222412111194 7.972450180053727 -0.04484222412111194 11.239303588867188 -0.05926513671875 C13.973830087477552 -0.06976512935045776 16.70832727930042 -0.07561408692913574 19.44287109375 -0.0791015625 C22.936530920033988 -0.08457910824699866 26.429799604732693 -0.10859494619558063 29.92333698272705 -0.13707351684570313 C33.266184974064174 -0.16024853542603523 36.60898015936277 -0.16215289395881882 39.951904296875 -0.1669921875 C40.576991348266574 -0.17316558837887897 40.576991348266574 -0.17316558837887897 43.74031066894531 -0.20440673828125 C51.52247231180894 -0.18446371727202404 56.34150559747127 0.2972205830697021 62.151123046875 5.8486328125 C64.338623046875 9.1611328125 64.338623046875 9.1611328125 65.338623046875 17.1611328125 C37.61862304687497 17.1611328125 9.898623046875002 17.1611328125 -18.661376953125 17.1611328125 C-17.555447936667463 10.525558713754776 -16.046007431280145 7.3131164147375785 -11.098876953125 2.8486328125 C-7.335721953134907 0.24337165866074884 -4.465728084857858 0.029795691111644373 0 0 Z " fill="#000000" transform="translate(367.661376953125,547.8388671875)"/>
<path d="M0 0 C0.6408226776123058 -0.0019134521484147626 0.6408226776123058 -0.0019134521484147626 3.8837738037109375 -0.0115966796875 C6.584416639516149 -0.017463348989736005 9.284526950377852 -0.009020594392382009 11.985107421875 0.009765625 C15.430580813027973 0.03257793404520726 18.874809113112747 0.019401809353780664 22.320237159729004 -0.00452423095703125 C25.630255586955087 -0.02252624591562835 28.93994630918121 -0.009890974592849489 32.25 0 C33.47932754516603 -0.008096923828134095 34.70865509033203 -0.01619384765626819 35.97523498535156 -0.0245361328125 C42.709938218930176 0.04899176502476621 47.13282580877487 0.40396045746797427 52.55859375 4.53125 C56.46957514637512 9.16267533781263 56.64608309741783 11.143675431924748 57.55859375 17.53125 C29.83859375 17.53125 2.1185937500000023 17.53125 -26.44140625 17.53125 C-25.20456414473685 8.873355263157919 -25.20456414473685 8.873355263157919 -21.44140625 4.53125 C-14.407755129967995 -0.01856368242067674 -8.23262444441167 -0.054313332539891235 0 0 Z " fill="#000000" transform="translate(193.44140625,547.46875)"/>
<path d="M0 0 C1.2677929687499727 -0.029003906249997158 2.5355859375000023 -0.058007812499994316 3.841796875 -0.087890625 C10.850315667904965 -0.1355676235911858 15.726942296757215 -0.12588225427649036 21.3125 4.3125 C24.981776184005923 8.340427239585424 25.3125 11.826638212883822 25.3125 17.3125 C8.8125 17.3125 -7.6875 17.3125 -24.6875 17.3125 C-24.6875 11.055638148106368 -24.400135085763054 9.928208485002713 -20.6875 5.3125 C-13.977185845625172 -0.5989672312349654 -8.70619933456237 0.06539458688955335 0 0 Z " fill="#000000" transform="translate(299.6875,92.6875)"/>
</svg>
