<?xml version="1.0" encoding="UTF-8"?>
<!-- Generator: visioncortex VTracer 0.6.12 -->
<svg version="1.1" xmlns="http://www.w3.org/2000/svg" width="601" height="601">
<path d="M0 0 C2.818262951839756 0.4910536745603906 5.641334767394881 0.9458760873381209 8.465911865234375 1.3989105224609375 C11.235724897568218 1.8515310306156039 14.000077968849496 2.3328252270559346 16.76385498046875 2.820831298828125 C18.14722512852302 3.061712737173508 19.53205671117638 3.2943633756058546 20.91827392578125 3.518280029296875 C29.917089443592147 4.989868910438986 35.67211921784855 6.736279006876913 41.8583984375 13.498046875 C43.01641463288843 14.580294432604234 44.18302854737988 15.653421632613174 45.3583984375 16.716796875 C45.89320831298829 17.219460754394532 46.428018188476585 17.722124633789065 46.979034423828125 18.240020751953125 C48.21747772904166 19.39850610478487 49.46625952356419 20.546051659090352 50.725799560546875 21.681564331054688 C54.1135251563785 24.76690614810647 57.189583352969805 27.805031549602006 59.94873046875 31.469970703125 C65.68476898862485 38.61388738137151 70.96629036350066 42.683532023648695 80.267578125 43.73583984375 C88.31055329994354 44.28749355610208 96.38346390997441 44.03503234925989 104.43280029296875 43.7584228515625 C110.49880709002923 43.56627014109398 116.56801559990669 43.51472473578053 122.63644790649414 43.4504337310791 C124.73262104103134 43.4169028544795 126.82550797353571 43.350384994216824 128.92062377929688 43.27714538574219 C137.29057331879483 43.09080573269242 145.19869707071138 43.3810303774988 151.75802612304688 49.17643737792969 C157.62983210691294 55.41569003435188 159.20042138363704 61.75082721255393 159.0615234375 70.142578125 C158.8583984375 72.498046875 158.8583984375 72.498046875 157.8583984375 74.498046875 C162.8083984375 74.498046875 167.75839843749998 74.498046875 172.8583984375 74.498046875 C173.0646484375 73.38429687500002 173.27089843750002 72.27054687499998 173.4833984375 71.123046875 C176.0857676928136 61.0344098989213 182.15218053047954 53.998044795883374 190.8583984375 48.498046875 C199.9162289705564 43.54213959725351 207.0048464414313 44.498046875 217.8583984375 44.498046875 C217.8583984375 69.57804687499998 217.8583984375 94.65804687499997 217.8583984375 120.498046875 C204.30076442604496 120.498046875 192.7881514655221 118.79263653906764 182.4560546875 109.291015625 C177.27582333841775 103.47750415989299 174.26610175032505 97.09964476425534 172.8583984375 89.498046875 C170.87839843749998 89.66304687499996 170.87839843749998 89.66304687499996 160.8583984375 90.498046875 C170.20686109481892 111.82227373168217 179.57168984425607 133.1391473954148 188.9833984375 154.435546875 C189.37177886962888 155.31449615478516 189.76015930175782 156.19344543457032 190.16030883789063 157.09902954101563 C190.92109053529578 158.8205607291252 191.68202848052448 160.5420228772972 192.44313049316406 162.26341247558594 C193.17450163870092 163.91767205315227 193.9054988037401 165.57209703119736 194.63609313964844 167.22669982910156 C196.47324550397173 171.38360879143102 198.3222096392907 175.5347343600273 200.189453125 179.67822265625 C200.37624130249026 180.0940888214111 200.37624130249026 180.0940888214111 201.32150268554688 182.19862365722656 C202.0331586373403 183.7817691622206 202.7477999135429 185.3635771127146 203.46585083007813 186.94383239746094 C205.8583984375 192.2743434093161 205.8583984375 192.2743434093161 205.8583984375 194.498046875 C206.8690234375 194.41554687500002 207.8796484375 194.33304687500004 208.9208984375 194.248046875 C227.95564667874635 194.38185881342702 247.02238295554446 206.08877944687958 260.4833984375 218.623046875 C268.5484849412751 227.0061116997125 274.79510768742716 237.63770725991571 278.8583984375 248.498046875 C279.2502734375 249.4867578125 279.64214843750005 250.47546875 280.0458984375 251.494140625 C284.43357490099083 264.6724050031931 283.1897979883022 278.7909932320995 282.8583984375 292.498046875 C277.90839843749995 292.498046875 272.9583984375 292.498046875 267.8583984375 292.498046875 C267.9408984375 293.838671875 268.0233984375 295.179296875 268.1083984375 296.560546875 C268.0363819475102 313.55643851259043 259.5203052622322 329.54504721220894 247.8583984375 341.498046875 C234.43064104926998 353.41918351840764 218.38565267746793 360.13752336124503 200.4208984375 359.873046875 C199.41099853515624 359.8621704101563 198.40109863281248 359.8512939453125 197.360595703125 359.840087890625 C177.61405235223646 359.4178467877455 161.95475184800785 350.9531541766579 148.2333984375 336.998046875 C137.11834105287898 324.2275554118184 133.13121261645432 309.04463120140645 131.8583984375 292.498046875 C83.01839843749997 292.498046875 34.17839843749999 292.498046875 -16.1416015625 292.498046875 C-16.801601562499997 298.108046875 -17.461601562499993 303.718046875 -18.1416015625 309.498046875 C-24.09984104430285 328.2239423892375 -35.24214790591327 342.49673278116035 -52.1416015625 352.498046875 C-67.86158454704565 360.4062591739739 -86.7327862619282 362.452417044796 -103.8291015625 357.873046875 C-105.95334540513281 357.13694798948336 -108.05997070773856 356.34720319554845 -110.1416015625 355.498046875 C-111.14964843749999 355.0971484375 -112.15769531249998 354.69624999999996 -113.1962890625 354.283203125 C-129.19895765473672 347.1131762882186 -141.6079455752025 333.7275553416678 -148.1416015625 317.498046875 C-151.17357059363172 308.968770059554 -152.630574146226 301.54403967393074 -152.1416015625 292.498046875 C-157.0916015625 292.498046875 -162.0416015625 292.498046875 -167.1416015625 292.498046875 C-167.91921883947822 263.1429946690725 -164.42283283101398 240.61800933493123 -144.1220703125 218.275390625 C-141.56511130629383 215.6538347596897 -139.20087255812308 213.53756087208205 -136.1416015625 211.498046875 C-136.73328125 211.44906249999997 -136.73328125 211.44906249999997 -139.7275390625 211.201171875 C-154.19893116420818 209.8885149072646 -163.88431984714595 207.5401384013153 -174.1416015625 196.498046875 C-176.13899324456844 193.95113355791273 -177.70073141763658 191.3915015561485 -179.1416015625 188.498046875 C-179.4406640625 187.930859375 -179.4406640625 187.930859375 -180.9541015625 185.060546875 C-184.05642229602444 176.0388555464749 -183.3493622678839 163.68935512902328 -179.5947265625 154.990234375 C-174.22700824629393 145.78430887570033 -165.86963545562782 138.06149215327423 -155.5986328125 134.861328125 C-147.7989622332784 132.83718990873956 -139.8844550444551 133.0496566491451 -131.881103515625 133.10693359375 C-129.21285713948242 133.12299417385265 -126.54612971231538 133.10703157983636 -123.8779296875 133.087890625 C-104.6305160147428 133.06414110984025 -92.51273011161271 137.77336433670808 -77.6728515625 149.693359375 C-72.95632713448072 153.47123338231154 -68.06332538755484 156.99257419144055 -63.1416015625 160.498046875 C-63.41874999999999 159.822578125 -63.695898437500006 159.147109375 -63.9814453125 158.451171875 C-64.16255859374999 158.00515625000003 -64.16255859374999 158.00515625000003 -65.0791015625 155.748046875 C-65.25892578125001 155.3071875 -65.25892578125001 155.3071875 -66.1689453125 153.076171875 C-72.01462204512345 137.58160704154022 -65.57758434494386 122.38696863577792 -60.8291015625 107.498046875 C-60.06717882933651 105.06114415996723 -59.307208145885795 102.62363036022083 -58.549072265625 100.185546875 C-57.35157327603008 96.3387777988105 -56.152626557802904 92.49255187733945 -54.94352722167969 88.6494140625 C-52.09879785763269 79.60469201197196 -49.31704569635923 70.54240127728099 -46.57440757751465 61.466217041015625 C-45.92665865538925 59.32314262482274 -45.27773614233274 57.180427359788894 -44.62837219238281 55.037841796875 C-44.41620402336122 54.337785186767576 -44.204035854339594 53.63772857666015 -43.98543834686279 52.91645812988281 C-43.560454085665924 51.51434438681494 -43.13545683878246 50.1122345796737 -42.71044635772705 48.71012878417969 C-41.66967439454905 45.27570658646249 -40.63058118571033 41.84079513646424 -39.595062255859375 38.40478515625 C-38.435238970462336 34.558331607087695 -37.263457200104625 30.71561320504327 -36.0908203125 26.873046875 C-35.92030151367186 26.30444946289063 -35.92030151367186 26.30444946289063 -35.057373046875 23.427001953125 C-32.10838815275034 13.815090506671652 -29.521833776889792 5.7017765731320935 -20.3173828125 0.458984375 C-13.601456837248662 -2.4832308141577357 -6.978947763725984 -1.2247728788746883 0 0 Z M-15.1416015625 16.498046875 C-16.220046997070313 18.499069213867188 -16.220046997070313 18.499069213867188 -17.058837890625 21.055419921875 C-17.39017730712891 22.048833923339828 -17.721516723632817 23.042247924804684 -18.062896728515625 24.065765380859375 C-18.418869323730462 25.198418273925768 -18.7748419189453 26.33107116699219 -19.1416015625 27.498046875 C-19.341542205810555 28.124596710205083 -19.341542205810555 28.124596710205083 -20.353363037109375 31.295318603515625 C-21.75179154861101 35.71514954630544 -23.109134626185607 40.147293236887435 -24.4658203125 44.580078125 C-24.976411263894505 46.24133370732147 -25.48722444988644 47.90252099947455 -25.998245239257813 49.56364440917969 C-27.068179607771413 53.04361243973392 -28.13627411994105 56.524137592616114 -29.202880859375 60.005126953125 C-30.540344977685493 64.37000591625525 -31.881065330050944 68.73387528580145 -33.222944259643555 73.09739875793457 C-35.81194184193089 81.51634228859785 -38.39056199544507 89.93837211024908 -40.958723068237305 98.36369514465332 C-42.37339900969769 102.99979196566301 -43.802023878062414 107.6312252541988 -45.24533748626709 112.25848484039307 C-46.10787571124834 115.0290504872234 -46.9617350063767 117.80224127496228 -47.81376075744629 120.5760555267334 C-48.390902324674016 122.4442789684498 -48.97939070932617 124.30898544894717 -49.56828308105469 126.17353820800781 C-52.340765069288295 135.24277457902548 -53.42575687521057 142.18836041985253 -49.5322265625 151.099609375 C-45.59953478946295 157.88239799478856 -39.56292538840839 161.40676391386683 -32.1416015625 163.498046875 C-29.04481182387977 163.88255006654958 -25.99721409365887 163.87951922574035 -22.8798828125 163.838623046875 C-21.99113967895508 163.839061126709 -21.10239654541016 163.839499206543 -20.186721801757813 163.83995056152344 C-17.275617798974963 163.83787565896904 -14.36510382773048 163.81460632636606 -11.4541015625 163.791015625 C-9.42529616814727 163.78541504827695 -7.3964866957000766 163.7811471315058 -5.36767578125 163.7781524658203 C-0.04771574067805773 163.76674007797772 5.271995606330734 163.73730402598568 10.59185791015625 163.70404052734375 C16.985446792697132 163.66784296327472 23.379119182285535 163.65416132210441 29.772781372070313 163.63668060302734 C39.46815962077915 163.60766450713334 49.16299300644391 163.55015195992007 58.8583984375 163.498046875 C58.8583984375 185.938046875 58.8583984375 208.378046875 58.8583984375 231.498046875 C66.11839843749999 231.498046875 73.37839843749998 231.498046875 80.8583984375 231.498046875 C81.51568422725222 221.2136219859836 82.1686048079718 210.9289442347811 82.81415557861328 200.6437759399414 C83.11418038877628 195.86634853688543 83.41600693025248 191.08905012077224 83.72216796875 186.31201171875 C84.01837305452341 181.6892214016683 84.30956219520476 177.06613839032195 84.59748840332031 172.4428253173828 C84.70737002471697 170.6919712611401 84.81896292385318 168.9412236095813 84.93241882324219 167.1905975341797 C85.63861998931884 156.27256289097875 86.00749573677496 145.44084199226359 85.8583984375 134.498046875 C84.8923115539551 134.49218063354493 83.92622467041019 134.48631439208987 82.93086242675781 134.4802703857422 C73.82296362242965 134.42303821867466 64.71530346727474 134.35027402341854 55.60764789581299 134.26233196258545 C50.92537980031352 134.21761914907694 46.243198899808476 134.1783650270816 41.560791015625 134.151611328125 C37.041340075631865 134.12558743987347 32.522224508339434 134.08519152847953 28.002981185913086 134.0348606109619 C26.279473483632103 134.01818570287026 24.555907764861956 134.00667530262848 22.83233070373535 134.00043296813965 C20.416590699724225 133.99079855047523 18.001709882713953 133.9627481426894 15.586181640625 133.930419921875 C14.87480041503909 133.93185501098634 14.163419189453123 133.93329010009768 13.43048095703125 133.9347686767578 C9.071100971760757 133.8523494747402 6.354629985071824 133.11496864267832 2.8583984375 130.498046875 C-0.4597491608657265 126.91641674993343 -0.7747850550264275 124.27404784455382 -0.62255859375 119.52197265625 C0.3943648462775684 113.12826010387369 3.300481642314679 107.30702019201277 5.9208984375 101.435546875 C6.52136079590133 100.05323737350756 7.119904197169859 98.67009275585968 7.716552734375 97.2861328125 C8.886460275000559 94.57753536553173 10.064434113440882 91.87273768680956 11.2509765625 89.17138671875 C13.277365172271061 84.55223774879565 15.239313708158022 79.90756681827764 17.1708984375 75.248046875 C17.45392822265626 74.58281005859374 17.736958007812518 73.9175732421875 18.028564453125 73.232177734375 C19.18424264533047 70.46041708146993 19.8583984375 68.5395183536121 19.8583984375 65.498046875 C18.86839843749999 64.79679687499998 17.878398437499982 64.095546875 16.8583984375 63.373046875 C14.696330199727925 61.705602738793715 13.953052947771027 60.95317731188658 13.3896484375 58.244140625 C13.359565745988618 55.901451023550095 13.389134651703046 53.79473213433312 13.8583984375 51.498046875 C16.12163010646202 49.23481520603801 16.76638046526665 49.0590126049116 19.8583984375 48.810546875 C25.594389237753035 48.9388278194146 28.32516081986205 52.04263999347944 32.2451171875 55.919921875 C34.89202082069693 58.53121693914048 37.64970970352647 60.85591763344536 40.5458984375 63.185546875 C45.76588776996658 67.39163843120599 45.76588776996658 67.39163843120599 47.171600341796875 69.00852966308594 C50.865690872485175 72.9445063911241 53.78119225271615 73.93318434127059 59.160888671875 74.17919921875 C61.66312429064163 74.17825480070178 64.1654926328049 74.14468002237291 66.6669921875 74.083984375 C68.00218285428377 74.07277703006616 69.33739839673109 74.06424411064808 70.67262268066406 74.05825805664063 C74.1667130411031 74.03547899717779 77.65927832443964 73.976656924564 81.15277099609375 73.9100341796875 C84.72566094853534 73.8483712254774 88.29880026512126 73.82119234645586 91.8720703125 73.791015625 C98.8681981638913 73.72689725861869 105.86306780764949 73.62146596324436 112.8583984375 73.498046875 C113.18839843750004 68.878046875 113.51839843749997 64.25804687499999 113.8583984375 59.498046875 C112.45670410156254 59.52012207031251 111.05500976562496 59.54219726562499 109.61083984375 59.56494140625 C104.37343538429434 59.63405862967639 99.13767829718165 59.63674264861319 93.89990234375 59.6201171875 C91.64005030964904 59.62205503403487 89.38013784437425 59.64162945504975 87.12060546875 59.6796875 C67.28181789370149 59.99472779673653 67.28181789370149 59.99472779673653 62.23291015625 56.32373046875 C59.76408232658423 53.84219310070759 57.83944583398835 51.37202390206858 55.8583984375 48.498046875 C54.52091860465043 47.248310046237606 53.15103579856486 46.031061882224634 51.7333984375 44.873046875 C48.982911575907565 42.52022076448117 46.39812029370387 40.077297476047534 43.8583984375 37.498046875 C40.031016892629 33.61813264225822 36.017854107969015 30.016978003058398 31.8583984375 26.498046875 C31.430268554687473 26.08917236328125 31.430268554687473 26.08917236328125 29.263671875 24.02001953125 C25.5851149750265 20.969811761576437 21.94861292024484 20.215707359941007 17.3193359375 19.408203125 C16.516058654785184 19.255162200927742 15.71278137207031 19.102121276855485 14.885162353515625 18.944442749023438 C13.197568795288191 18.6273818920821 11.508235582960879 18.319456775739013 9.8173828125 18.020263671875 C7.229570144428919 17.559865783177173 4.649950792942462 17.06541339850108 2.0693359375 16.56640625 C0.4238782653800115 16.261636644922362 -1.2219450428158893 15.95883313372832 -2.8681640625 15.658203125 C-3.638026428222645 15.510449371337899 -4.407888793945318 15.362695617675797 -5.201080322265625 15.210464477539063 C-9.235568556315002 14.515812183731839 -11.727325187953397 14.13292888261114 -15.1416015625 16.498046875 Z M129.8583984375 62.498046875 C128.7958984375 65.935546875 128.7958984375 65.935546875 128.8583984375 69.498046875 C130.4208984375 71.935546875 130.4208984375 71.935546875 132.8583984375 73.498046875 C136.5169213602806 74.10780069546342 138.16352722940798 73.94347713659747 141.2958984375 71.935546875 C142.8583984375 69.498046875 142.8583984375 69.498046875 142.9208984375 65.935546875 C141.8583984375 62.498046875 141.8583984375 62.498046875 139.4208984375 60.560546875 C135.2304616522735 58.823048695759724 133.37856593179208 59.69996502056273 129.8583984375 62.498046875 Z M193.7646484375 67.576171875 C189.59491339261774 71.78008507598787 188.26773905831368 76.36944507617292 187.7919921875 82.126953125 C187.9669181141524 88.37283768253064 190.38012077189427 94.14416581121668 194.8583984375 98.498046875 C196.01339843749997 99.15804687499997 196.01339843749997 99.15804687499997 201.8583984375 102.498046875 C201.8583984375 89.29804687500001 201.8583984375 76.098046875 201.8583984375 62.498046875 C198.3652996040721 62.498046875 196.2548459103915 65.32055822201858 193.7646484375 67.576171875 Z M32.8583984375 77.498046875 C30.435057921787234 83.17538170334774 28.014042063798172 88.85369979524626 25.59521484375 94.532958984375 C24.771316185007038 96.46650244149998 23.94677283454837 98.39977131839271 23.12158203125 100.332763671875 C21.93842345564974 103.10459315600946 20.757555549472954 105.87738849538795 19.5771484375 108.650390625 C19.205294189453127 109.52018051147462 18.833439941406255 110.38997039794924 18.4503173828125 111.28611755371094 C18.109964599609384 112.08687210083008 17.769611816406268 112.88762664794922 17.4189453125 113.712646484375 C17.116942138671902 114.42102157592774 16.814938964843748 115.12939666748048 16.5037841796875 115.85923767089844 C15.8583984375 117.498046875 15.8583984375 117.498046875 15.8583984375 118.498046875 C16.780239257812468 118.50169250488284 17.702080078124993 118.50533813476562 18.65185546875 118.50909423828125 C27.361534574437428 118.54704286475788 36.07084184426867 118.60397357565364 44.78025817871094 118.68194961547852 C49.25732843116202 118.72137107268412 53.73420357002993 118.75358556303183 58.21142578125 118.76904296875 C62.536452563908256 118.7842448768194 66.86094275176254 118.81875250269468 71.18572998046875 118.8663558959961 C72.8313936578362 118.88113340372104 74.47713396186458 118.88908579996678 76.12286376953125 118.88993072509766 C93.05311439216018 118.907356448933 93.05311439216018 118.907356448933 98.8583984375 123.498046875 C103.20908977965706 130.6040540965887 101.90990964163842 138.36590327816663 101.3466796875 146.396484375 C101.2559786735174 147.87292355040967 101.16683548012429 149.34945914454102 101.07914733886719 150.82608032226563 C100.84359922289093 154.7234305183875 100.58745859942542 158.6191571679518 100.32672119140625 162.514892578125 C100.07341071000462 166.34838406243057 99.83850880456816 170.18298700814353 99.6025390625 174.017578125 C99.22516075668585 180.11412529267568 98.83924241273263 186.21007032302947 98.44677734375 192.3056640625 C97.90000696399949 200.81419313359885 97.3616407712633 209.3231735052097 96.84776878356934 217.83375930786133 C96.76015465376008 219.2754493583485 96.67123900255933 220.71706104984275 96.58086585998535 222.1585807800293 C96.45529081296922 224.16426179601604 96.3348752215532 226.17026374675243 96.214599609375 228.17626953125 C96.1455290222168 229.3047329711914 96.07645843505861 230.43319641113283 96.00529479980469 231.59585571289063 C95.80588374107043 236.89306021006985 95.8583984375 242.1970903334614 95.8583984375 247.498046875 C78.36839843749999 247.498046875 60.87839843749998 247.498046875 42.8583984375 247.498046875 C42.8583984375 225.058046875 42.8583984375 202.618046875 42.8583984375 179.498046875 C37.90839843750001 179.498046875 32.95839843750002 179.498046875 27.8583984375 179.498046875 C27.920273437499986 181.313046875 27.982148437499973 183.128046875 28.0458984375 184.998046875 C28.029477742661527 191.96863183393424 27.1558343415997 196.76596093498955 22.5458984375 202.248046875 C19.8583984375 204.498046875 19.8583984375 204.498046875 16.6083984375 205.998046875 C13.308869684648755 208.99761846850112 13.298508329677105 210.0452996019252 12.8583984375 214.373046875 C12.507135596889185 226.41055422054762 13.661040666329 238.57158818957362 21.9833984375 247.873046875 C30.487895254298678 252.67993638014707 38.43249404086805 254.09617450920302 48.1044921875 253.994140625 C49.23685806274415 253.99559585571285 50.369223937988295 253.9970510864258 51.53590393066406 253.99855041503906 C53.914994199499404 253.99690088021327 56.29409620239903 253.98544676212236 58.673095703125 253.964599609375 C62.28285826692405 253.9356514494524 65.89114761765018 253.94401179208387 69.5009765625 253.95703125 C71.82715546691179 253.95079199938777 74.15332979680909 253.94239960793743 76.4794921875 253.931640625 C77.54235946655274 253.93457626342774 78.60522674560548 253.9375119018555 79.70030212402344 253.94053649902344 C94.72739082090851 253.75452276699076 107.57273085447844 249.4212279961772 118.5380859375 239.005859375 C127.89629615635585 228.89143014855983 132.4521936903455 216.45873002125506 134.6708984375 203.060546875 C134.73293457031252 202.69155273437502 134.73293457031252 202.69155273437502 135.046875 200.82421875 C136.68766264338342 189.6242700574066 136.0250532997038 178.46660161509624 134.4208984375 167.310546875 C134.33819702148435 166.7132678222656 134.33819702148435 166.7132678222656 133.919677734375 163.690673828125 C133.25674307812653 158.9562218612391 132.5586903383089 154.22709786900236 131.8583984375 149.498046875 C131.77497192382816 148.93422302246097 131.77497192382816 148.93422302246097 131.352783203125 146.0809326171875 C130.07511484553902 137.46303973207023 128.78279098769656 128.84743461337052 127.4802360534668 120.23327255249023 C127.17038241183252 118.18213093411543 126.86162339607256 116.13082669901286 126.55300903320313 114.07949829101563 C125.96891752661014 110.20124053515048 125.37706887133021 106.32418866176374 124.7841796875 102.447265625 C124.60514099121093 101.25696746826173 124.42610229492186 100.06666931152347 124.24163818359375 98.84030151367188 C124.07432189941403 97.75500152587892 123.90700561523437 96.66970153808597 123.734619140625 95.551513671875 C123.58902053833009 94.5960917663574 123.44342193603518 93.64066986083981 123.29341125488281 92.65629577636719 C122.8583984375 90.498046875 122.8583984375 90.498046875 121.8583984375 89.498046875 C119.59534469722541 89.43188707177649 117.33021567269896 89.43636188616478 115.06640625 89.46728515625 C113.592147045285 89.48340041764601 112.11788321821524 89.49909676128641 110.64361572265625 89.51443481445313 C109.85712898254394 89.52397312164305 109.07064224243163 89.53351142883298 108.26032257080078 89.54333877563477 C103.21155649115258 89.5949245311383 98.16245558809106 89.58913204946936 93.11346817016602 89.59469795227051 C88.68409695351738 89.6028767873496 84.25649426638074 89.63026111837712 79.82763671875 89.7001953125 C75.53980113935745 89.76677602799589 71.25476572940158 89.77852630563842 66.96651458740234 89.75494003295898 C65.34155629034501 89.75554546267955 63.716474463526026 89.77531699954818 62.092018127441406 89.81570816040039 C51.61171382536622 90.06269219513649 45.40668969940481 88.72613586781424 37.66971206665039 81.34704780578613 C36.39164245751493 80.07164972358333 35.12396164319216 78.78585585395626 33.8583984375 77.498046875 C33.528398437500016 77.498046875 33.19839843750003 77.498046875 32.8583984375 77.498046875 Z M138.8583984375 89.498046875 C139.42361211490777 97.95642756163545 140.47740515170972 106.27958372639841 141.7855224609375 114.65352058410645 C142.11738474654658 116.77823710868591 142.4440340784871 118.90370327386415 142.76953125 121.02940368652344 C143.46125537812748 125.54049440646207 144.15956681584464 130.0505526628998 144.8583984375 134.560546875 C145.66941750484494 139.79903089568006 146.47761071197698 145.0379319087483 147.2806396484375 150.27764701843262 C147.5996234327497 152.35116227489993 147.92271570608034 154.42400768279083 148.24609375 156.49684143066406 C152.66780384284584 185.28126500689018 153.24372456791724 216.86420681708825 136.1669921875 241.986328125 C134.47452221186524 244.23916847288075 132.71533349369264 246.37934123819866 130.8583984375 248.498046875 C130.31441406250002 249.12453125000002 129.77042968749998 249.75101562500004 129.2099609375 250.396484375 C118.70941389414628 261.68580490517843 102.93761159046352 267.7377048474965 87.75798034667969 268.6932067871094 C84.4162893885964 268.7764761580846 81.08002958564146 268.8014718422844 77.7373046875 268.798828125 C76.51615463256837 268.8031132507324 75.29500457763675 268.80739837646485 74.03684997558594 268.8118133544922 C71.46947852171104 268.81752397845565 68.90209089881455 268.81808121773486 66.334716796875 268.813720703125 C62.435425753065715 268.81055865561893 58.53689299364288 268.8340698924984 54.6376953125 268.859375 C52.129232716448996 268.8616483101884 49.62076810496353 268.8623513421762 47.1123046875 268.861328125 C46.537123489379894 268.86593299865723 46.537123489379894 268.86593299865723 43.62635803222656 268.8892364501953 C30.85260430334006 268.81721702748246 19.719942177290875 266.22335187114925 9.8583984375 257.787109375 C-0.7955148292441834 246.90358590854152 -2.1992520872045134 230.71617193443126 -2.157958984375 216.234619140625 C-2.1555973815918037 215.15890151977538 -2.1532357788086074 214.08318389892577 -2.1508026123046875 212.97486877441406 C-2.147766265869137 212.15751754760743 -2.144729919433587 211.3401663208008 -2.1416015625 210.498046875 C-14.060009174306174 210.42830511823541 -25.9783676296164 210.37511328560043 -37.89693832397461 210.3426103591919 C-43.43217974068398 210.32700467719627 -48.96728076374444 210.30586011005408 -54.50244140625 210.271728515625 C-59.851690835257386 210.23895255708135 -65.20080585383698 210.2211555907013 -70.5501480102539 210.21341514587402 C-72.58332685570562 210.20790422282118 -74.61649897459228 210.19714337353264 -76.64962005615234 210.1808567047119 C-98.42113152760851 210.01350749951735 -115.93875001772746 213.92127151047367 -132.1416015625 229.498046875 C-144.74469503477323 242.40458561546598 -151.1416015625 258.53536709235243 -151.1416015625 276.498046875 C-13.201601562500002 276.498046875 124.7383984375 276.498046875 266.8583984375 276.498046875 C266.8583984375 257.4221646364919 260.3818479929767 241.9883201665935 246.9521484375 228.330078125 C235.096408530573 217.01567867366782 219.26541454662288 210.0033913994045 202.8583984375 210.373046875 C202.083671875 210.3820703125 201.3089453125 210.39109374999998 200.5107421875 210.400390625 C198.62649001136162 210.42365299754493 196.74240012202176 210.4595104769075 194.8583984375 210.498046875 C194.68865005493166 209.95603637695314 194.51890167236326 209.41402587890627 194.34400939941406 208.8555908203125 C192.50231554963392 203.13658827703182 190.29518181802626 197.68920777947903 187.8232421875 192.216796875 C187.4323742675781 191.3419061279297 187.04150634765625 190.46701538085938 186.6387939453125 189.56561279296875 C185.79868064840514 187.6861989790683 184.95669797379998 185.8076198609047 184.11300659179688 183.9298095703125 C181.85292895140987 178.89908275188066 179.60682928240823 173.86211197180614 177.3583984375 168.826171875 C176.89888290405275 167.7980438232422 176.43936737060545 166.76991577148436 175.96592712402344 165.71063232421875 C171.74832780069545 156.26865937773715 167.5803913968992 146.8053189106351 163.42977905273438 137.333740234375 C162.30486338640708 134.76849048127104 161.17731322648626 132.20441374661368 160.049072265625 129.640625 C157.07860645773275 122.88528616267536 154.11175921761594 116.12987620124125 151.2403106689453 109.33172607421875 C150.4635619065461 107.49316778471086 149.68075749142804 105.65717145029811 148.897705078125 103.8212890625 C147.987041476591 101.6814732599658 147.0881252950021 99.53660020059368 146.203857421875 97.3857421875 C145.81399658203122 96.474052734375 145.4241357421875 95.56236328124999 145.0224609375 94.623046875 C144.6971337890625 93.84187500000002 144.37180664062498 93.06070312500003 144.03662109375 92.255859375 C142.52549770267137 90.00138601906008 141.4393273365951 90.02075009008854 138.8583984375 89.498046875 Z M-159.5791015625 155.462890625 C-160.0947265625 156.11386718749998 -160.6103515625 156.76484375 -161.1416015625 157.435546875 C-161.6778515625 158.08394531249996 -162.2141015625 158.73234375000004 -162.7666015625 159.400390625 C-166.5650736858375 165.19521883588698 -166.89165426446374 170.73807821932667 -166.1416015625 177.498046875 C-164.15482067119532 184.44583154878404 -159.37807640435352 188.96693266863838 -153.2978515625 192.599609375 C-148.62641400142616 194.5460416921141 -143.72085907765128 194.6249868573849 -138.72117614746094 194.63848876953125 C-137.44961669921875 194.6441989135742 -136.17805725097656 194.64990905761715 -134.8679656982422 194.65579223632813 C-133.4714661630131 194.65703733012765 -132.074966516691 194.6581624817942 -130.678466796875 194.6591796875 C-129.19802731822142 194.66381227213043 -127.71758902412395 194.66883752298412 -126.23715209960938 194.67422485351563 C-122.22696942770665 194.6873025257238 -118.21680345821451 194.69378393208996 -114.20660281181335 194.69823551177979 C-111.7002488353985 194.70117181229563 -109.19389937655043 194.70527751446053 -106.68754768371582 194.7097396850586 C-98.84243683848632 194.7233981551875 -90.99733637503002 194.73307467420295 -83.15221446752548 194.73694157600403 C-74.10100790474854 194.74142799131795 -65.04995192681218 194.7590097589523 -55.99879115819931 194.7879421710968 C-48.996523709450855 194.80954796748063 -41.99429868781715 194.81964515253878 -34.99199825525284 194.82098269462585 C-30.811754710157572 194.82203088173213 -26.63165304285087 194.8279424006688 -22.451444625854492 194.8458023071289 C-18.522220068551547 194.86226550791116 -14.593244381162606 194.86444714477057 -10.663997650146484 194.85566329956055 C-9.222847202518068 194.85489216477123 -7.781683450602003 194.85924574685868 -6.340566635131836 194.86912155151367 C-4.372099462845 194.8818197764657 -2.4035324996095255 194.87418026539171 -0.4350433349609375 194.86553955078125 C0.6660807132720947 194.86700611114503 1.767204761505127 194.8684726715088 2.90169620513916 194.8699836730957 C6.290343579437518 194.4437105636573 8.133988482185003 193.5301068575592 10.8583984375 191.498046875 C12.8583984375 188.498046875 12.8583984375 188.498046875 12.6708984375 185.998046875 C11.801623542364666 183.3233548899682 11.028743533948926 182.23432295215912 8.8583984375 180.498046875 C6.004188154664433 179.07094173358223 3.5866712799501954 179.38116783305134 0.39599609375 179.387939453125 C-0.9803365243653559 179.38739652112577 -2.3566691256004617 179.3868094956856 -3.733001708984375 179.3861846923828 C-4.464608879089354 179.38761285781857 -5.196216049194334 179.38904102325438 -5.949993133544922 179.39051246643066 C-9.838151211642526 179.39403889676555 -13.726165927532264 179.36819947257118 -17.6142578125 179.34765625 C-22.555948413058132 179.32341796548218 -27.49722340367063 179.30751208832322 -32.43896484375 179.322998046875 C-36.43577820542632 179.33475285652844 -40.4315586028801 179.31700804938492 -44.4282112121582 179.28055381774902 C-45.942203854819354 179.27200997161913 -47.456297162973556 179.2739079571017 -48.97025680541992 179.2870578765869 C-62.93756226734271 179.39917898418616 -72.70499270117588 175.24087528043628 -83.2666015625 166.060546875 C-84.63466170757377 164.91654595140756 -86.00444802116994 163.774606023493 -87.3759765625 162.634765625 C-88.02244140624998 162.09384277343747 -88.66890625000002 161.552919921875 -89.3349609375 160.99560546875 C-91.68055542994205 159.05129781785274 -94.06450740491465 157.18127354152125 -96.5166015625 155.373046875 C-97.18433593750001 154.87546874999998 -97.85207031250002 154.37789062499996 -98.5400390625 153.865234375 C-107.61526553044354 149.09597121617082 -116.7111890601972 148.9979642342608 -126.7275390625 149.052001953125 C-129.13725790359914 149.06053149999377 -131.54461438945472 149.03163923506952 -133.9541015625 149 C-143.4579864099793 148.95529416132945 -151.8542408444709 149.23595962953743 -159.5791015625 155.462890625 Z M-136.1416015625 292.498046875 C-137.11890514039538 304.958667493166 -131.87201347351768 316.70341560907906 -123.9541015625 326.091796875 C-113.62258522169387 337.08558990431936 -101.63981241183933 343.3257130042931 -86.56396484375 343.898193359375 C-71.24854405103235 344.14061622108466 -58.36840752543736 338.9260632410821 -47.0205078125 328.541015625 C-43.40143344404271 324.6059306048271 -40.741275304761615 320.14835384907104 -38.1416015625 315.498046875 C-37.7278125 314.7671484375 -37.3140234375 314.03625 -36.8876953125 313.283203125 C-33.55635975121169 306.6819957581667 -32.990490614145074 299.784344568287 -32.1416015625 292.498046875 C-36.761601562500005 292.498046875 -41.38160156250001 292.498046875 -46.1416015625 292.498046875 C-46.360742187499994 293.4764453125 -46.57988281249999 294.45484375 -46.8056640625 295.462890625 C-49.74488085393966 307.8977942953209 -54.38541304736316 316.92254367594495 -65.1416015625 324.498046875 C-74.3078240555069 329.7379969313888 -86.00894710818565 330.13414544828345 -96.1728515625 327.802734375 C-106.06691971055972 324.168801937904 -113.66892984090342 317.4655799138583 -118.3642578125 308.044921875 C-120.58591382036859 302.85309493188055 -121.72505193678282 298.12146682218196 -122.1416015625 292.498046875 C-126.7616015625 292.498046875 -131.3816015625 292.498046875 -136.1416015625 292.498046875 Z M-106.1416015625 292.498046875 C-105.11059831979054 300.7460728166755 -103.76847480364947 304.63861174356043 -97.5166015625 309.853515625 C-91.65229700404484 313.9145465317302 -86.06176988503404 314.1616246593526 -79.1416015625 313.498046875 C-72.98697539649231 311.7545862204654 -68.49850298785583 307.8837298471441 -65.1416015625 302.498046875 C-62.1416015625 295.49049970518865 -62.1416015625 295.49049970518865 -62.1416015625 292.498046875 C-76.66160156250001 292.498046875 -91.18160156250002 292.498046875 -106.1416015625 292.498046875 Z M147.8583984375 292.498046875 C148.55169344072533 307.75053694595744 154.50062049599956 320.6415525460563 165.4833984375 331.248046875 C178.1562057238723 341.6623340509297 192.89591765692347 344.8700692942582 208.8583984375 343.498046875 C223.14988191580966 340.9617262151937 234.98451659080234 332.68879514770515 243.6083984375 321.158203125 C249.15274792589878 312.60604403914493 252.66218347138772 302.7463060570684 251.8583984375 292.498046875 C247.2383984375 292.498046875 242.6183984375 292.498046875 237.8583984375 292.498046875 C237.67277343749998 293.549921875 237.67277343749998 293.549921875 236.7333984375 298.873046875 C234.45879265784038 309.35739258496585 229.8843680665475 317.46030148646906 220.8583984375 323.498046875 C210.85275342959181 329.4620773335716 199.84366389388856 330.21603066910285 188.6083984375 327.798828125 C178.5572496127495 324.4903249701863 171.89480697579194 318.7498819954987 166.8583984375 309.498046875 C164.28219617833116 304.0536032341654 163.05284920120198 298.3784198655328 161.8583984375 292.498046875 C157.2383984375 292.498046875 152.6183984375 292.498046875 147.8583984375 292.498046875 Z M177.8583984375 292.498046875 C179.8782921374737 301.5875685248817 181.2721720407078 304.6717696778377 187.8583984375 310.498046875 C193.53928504459486 314.03520268696474 199.33421818903906 314.32532045117375 205.8583984375 313.498046875 C212.12765800945596 311.68836369959 216.22050686487074 307.7993165022196 219.8583984375 302.498046875 C221.87723667047214 298.64390115750774 221.8583984375 297.0896245001556 221.8583984375 292.498046875 C207.33839843750002 292.498046875 192.81839843749998 292.498046875 177.8583984375 292.498046875 Z " fill="#000000" transform="translate(242.1416015625,166.501953125)"/>
<path d="M0 0 C8.156401520550105 5.959391009964207 13.559174502245355 12.658802788052384 15.3203125 22.6953125 C18.41787000739248 50.98370711209742 13.186581567437656 71.51079573650759 -1.6796875 95.6953125 C-2.009687499999984 96.02531249999998 -2.339687499999968 96.3553125 -2.6796875 96.6953125 C-10.930653699112781 96.60743372855339 -19.12046458499958 94.49731075943245 -27.1484375 92.7890625 C-28.51932942739262 92.50104429188059 -29.89030266276859 92.2134128461006 -31.2613525390625 91.9261474609375 C-34.11276028734278 91.32756465085112 -36.963397269900895 90.72548126663901 -39.8134765625 90.12060546875 C-43.468543265721166 89.34501814392013 -47.125078214756854 88.57663316414727 -50.78215789794922 87.81060028076172 C-53.60325546907984 87.21917240755076 -56.42374331856735 86.62488084457803 -59.24403381347656 86.02961730957031 C-60.5931206731845 85.7450592777401 -61.94235318830923 85.4611908935224 -63.29173278808594 85.17802429199219 C-65.16838398310651 84.78358026941345 -67.04417589764552 84.38505462670096 -68.919921875 83.986328125 C-69.98674194335936 83.76062133789063 -71.05356201171875 83.53491455078125 -72.1527099609375 83.3023681640625 C-74.67968750000003 82.6953125 -74.67968750000003 82.6953125 -76.6796875 81.6953125 C-77.21713368426782 79.18882415664416 -77.62727698148922 76.75776791070916 -77.96875 74.22265625 C-78.07690032958985 73.46618301391601 -78.1850506591797 72.70970977783202 -78.29647827148438 71.93031311035156 C-78.52426354779342 70.32272281147164 -78.7475707728288 68.71449274420439 -78.966796875 67.105712890625 C-79.3001815472469 64.66578995334987 -79.64886451603087 62.22843989646748 -80 59.791015625 C-80.21967484620902 58.22669209555818 -80.43845231357017 56.66224223696527 -80.65625 55.09765625 C-80.75934478759766 54.37650131225587 -80.86243957519531 53.65534637451171 -80.96865844726563 52.91233825683594 C-83.11955787385196 36.90619083560128 -79.66157371103333 22.471808125679757 -69.9921875 9.5078125 C-52.628590570126505 -11.19868253039121 -22.241598447368688 -14.231762350567095 0 0 Z M-57.6796875 20.6953125 C-67.35752965330411 33.47888039608287 -65.73372805558654 45.19536111929949 -63.6796875 60.3828125 C-62.821211605754286 66.41226428849146 -62.821211605754286 66.41226428849146 -61.6796875 68.6953125 C-59.795318603515625 69.31546020507813 -59.795318603515625 69.31546020507813 -57.29931640625 69.84033203125 C-56.368099670410146 70.04038848876954 -55.43688293457032 70.24044494628907 -54.477447509765625 70.44656372070313 C-53.46395233154297 70.65497894287108 -52.450457153320315 70.86339416503907 -51.40625 71.078125 C-50.371565856933586 71.29725555419921 -49.33688171386717 71.51638610839842 -48.270843505859375 71.74215698242188 C-46.07756109687364 72.20498698801453 -43.88340650655289 72.66369973045596 -41.6884765625 73.11865234375 C-38.32422958128842 73.81626026755967 -34.962756063635084 74.52612220315942 -31.6015625 75.23828125 C-29.474110231585485 75.68561884251972 -27.346510685116186 76.13225669776577 -25.21875 76.578125 C-24.209303283691384 76.79058868408202 -23.199856567382824 77.00305236816405 -22.159820556640625 77.22195434570313 C-21.69106002807615 77.31883041381838 -21.69106002807615 77.31883041381838 -19.31884765625 77.80908203125 C-18.493575744628913 77.98069854736326 -17.668303833007826 78.15231506347658 -16.818023681640625 78.32913208007813 C-14.6796875 78.6953125 -14.6796875 78.6953125 -11.6796875 78.6953125 C-10.674845464321606 76.73945925198313 -9.675949449299196 74.78055013172298 -8.6796875 72.8203125 C-8.122812500000009 71.729765625 -7.565937500000018 70.63921875 -6.9921875 69.515625 C-5.6796875 66.6953125 -5.6796875 66.6953125 -5.6796875 64.6953125 C-6.886250000000018 64.39238281249999 -8.092812500000036 64.089453125 -9.3359375 63.77734375 C-29.902743537885954 58.46174753394514 -29.902743537885954 58.46174753394514 -36.55078125 47.68359375 C-39.0571883452248 43.26919509439648 -39.13802239293551 39.728508639088346 -38.6796875 34.6953125 C-37.28933246265012 30.60148933446989 -35.528180709337505 27.901906798459862 -31.85107421875 25.540283203125 C-26.681073105407677 23.528435457085237 -20.776673504998257 24.005685464949835 -15.3046875 23.9453125 C-13.996289062500011 23.9156640625 -12.687890625000023 23.886015625 -11.33984375 23.85546875 C-8.119730233915107 23.784955315341207 -4.900333188846503 23.73216344692308 -1.6796875 23.6953125 C-4.4996576124272 16.266969329448926 -9.769719786659152 12.843300988924184 -16.78515625 9.45703125 C-31.986658054065458 3.3450872256850204 -47.280430515437786 9.0758274629585 -57.6796875 20.6953125 Z M-22.6796875 39.6953125 C-20.343061981035703 44.36856353792864 -19.398562314232777 44.80776257430689 -14.6796875 46.6953125 C-10.031429802531875 48.01286441776824 -5.538746805184076 49.008800197108656 -0.6796875 48.6953125 C-0.6796875 45.7253125 -0.6796875 42.7553125 -0.6796875 39.6953125 C-7.939687499999991 39.6953125 -15.199687499999982 39.6953125 -22.6796875 39.6953125 Z " fill="#000000" transform="translate(300.6796875,69.3046875)"/>
</svg>
