<?xml version="1.0" encoding="UTF-8"?>
<!-- Generator: visioncortex VTracer 0.6.12 -->
<svg version="1.1" xmlns="http://www.w3.org/2000/svg" width="600" height="600">
<path d="M0 0 C0.9797680664062227 0.3349951171875034 1.9595361328125023 0.6699902343749997 2.968994140625 1.01513671875 C6.1725936157619685 2.1131111245850605 9.371411083500163 3.2243576996784356 12.5703125 4.3359375 C14.8215249516374 5.110597138240202 17.07299348034121 5.88451296701966 19.32470703125 6.65771484375 C26.11976263926107 8.99487119723615 32.908476688198164 11.350031875921715 39.6953125 13.7109375 C40.18878173828125 13.882543945312499 40.18878173828125 13.882543945312499 42.68603515625 14.7509765625 C50.74259746952771 17.553859423845964 58.79664565978612 20.363896980951125 66.84716796875 23.18408203125 C79.4407527685409 27.59332892832262 92.06098406773367 31.919954609240875 104.6953125 36.2109375 C120.1066117688539 41.44521427759642 135.48780275994903 46.7591578386055 150.848388671875 52.140380859375 C161.05458338013523 55.71485299483038 171.2694801943935 59.26069361306388 181.5078125 62.7421875 C182.48923217773438 63.07593383789063 183.47065185546876 63.40968017578125 184.4818115234375 63.7535400390625 C189.17586028908374 65.34852594490654 193.87123749247945 66.93947879389364 198.568359375 68.525390625 C200.28776711470118 69.10805315147807 202.00716846133537 69.69073454401729 203.7265625 70.2734375 C204.45431884765617 70.51775512695312 205.18207519531256 70.76207275390625 205.931884765625 71.0137939453125 C211.83883143234186 73.01856613198173 217.68889294592407 75.17057389694067 223.5399169921875 77.331787109375 C224.4212517929077 77.65693046569824 225.3025865936279 77.98207382202149 226.21062850952148 78.31707000732422 C228.37233493005192 79.11463364745131 230.53389159883955 79.91260048901663 232.6953125 80.7109375 C232.7656687775626 105.47776441623122 232.81843026006652 130.2445761595873 232.8507490158081 155.01148319244385 C232.8661599158038 166.513467621783 232.88713776026475 178.0153896391794 232.921630859375 189.517333984375 C232.95171138435023 199.55273704858536 232.97092937246248 209.5880948700186 232.97757798433304 219.62354177236557 C232.98145892594732 224.9278625931115 232.99045634478762 230.23205408226306 233.0125026702881 235.53633308410645 C233.24952798533525 294.9252404877979 221.5922020029318 346.92705584084933 182.6953125 393.7109375 C181.82673322866918 394.77336418254 180.95824318590257 395.8358638196923 180.08984375 396.8984375 C169.83792355165514 409.3248920346208 158.88037466554914 421.1629840267611 146.6953125 431.7109375 C145.95796875000002 432.3980078125 145.22062499999998 433.085078125 144.4609375 433.79296875 C137.3244709441554 440.4385038817009 129.62303031623537 446.2789744489895 121.8251953125 452.1162109375 C119.86814458409509 453.58153135908884 117.91817390330863 455.05581189781856 115.96875 456.53125 C90.92854170028704 475.33695745774367 63.64147626419208 490.70138357859855 35.6953125 504.7109375 C34.75800292968751 505.1816064453126 33.820693359375014 505.65227539062494 32.85498046875 506.13720703125 C22.559201291412307 511.269053700944 12.092809246499485 515.918281962288 1.4453125 520.2734375 C0.409389648437525 520.703662109375 -0.6265332031250068 521.13388671875 -1.69384765625 521.5771484375 C-11.852404852129553 525.6392492325988 -18.540385924819702 526.770953754304 -28.7421875 522.5234375 C-29.638327636718714 522.165400390625 -30.53446777343754 521.80736328125 -31.457763671875 521.4384765625 C-43.26823180728877 516.6346976817997 -54.807836287791304 511.2144165934236 -66.3046875 505.7109375 C-67.31434570312501 505.23140624999996 -68.32400390625 504.7518749999999 -69.3642578125 504.2578125 C-101.91219109700887 488.7252687890052 -133.1436356705047 469.2801821943416 -161.3046875 446.7109375 C-161.80806640625 446.31326171875 -161.80806640625 446.31326171875 -164.35546875 444.30078125 C-170.74920159854378 439.17313411403916 -176.7890042902697 433.6944874653277 -182.7841796875 428.11376953125 C-184.29109321520457 426.7234796901789 -185.813939964612 425.3533046738591 -187.34375 423.98828125 C-209.76906653606898 403.9176229502183 -228.5392871976993 379.4445352310846 -242.3046875 352.7109375 C-242.7302392578125 351.89109375 -243.155791015625 351.07125 -243.59423828125 350.2265625 C-251.86427922883829 334.12483290589006 -257.7763722090548 317.5927016160035 -261.6171875 299.8984375 C-261.7646240234375 299.2195849609375 -261.912060546875 298.540732421875 -262.06396484375 297.84130859375 C-264.9655202325417 283.2995157601224 -265.5942267045552 268.8432771548842 -265.53173828125 254.064208984375 C-265.5311725479776 252.16024786392973 -265.53149388191343 250.2562863089713 -265.5326232910156 248.35232543945313 C-265.5331914821913 243.23981950591116 -265.5215246968407 238.12740956285938 -265.50747537612915 233.0149257183075 C-265.4948779741221 227.65115532461328 -265.4937904754811 222.28738214878098 -265.4914245605469 216.92359924316406 C-265.48523605248806 206.7916361841859 -265.4688612215849 196.6597168608658 -265.4487255811691 186.52777296304703 C-265.42628422436917 174.98225992088766 -265.4153525372833 163.43674466747575 -265.40533471107483 151.89121520519257 C-265.38449235012774 128.1644318288616 -265.34936810188145 104.43768712749085 -265.3046875 80.7109375 C-260.3226249606551 78.95809651744497 -255.34034927801258 77.20586305525119 -250.3578929901123 75.45414161682129 C-248.67042630183977 74.86077633050836 -246.98301341511225 74.2672580114363 -245.2956600189209 73.67357063293457 C-230.65610936596886 68.52290574490719 -215.9927940586341 63.444839108233694 -201.31094360351563 58.415985107421875 C-195.13323505847404 56.29935693672641 -188.95708070595808 54.17819899319926 -182.7807788848877 52.05747032165527 C-181.37513882579725 51.57484000731222 -179.96948271207884 51.09225644878832 -178.56381034851074 50.60972023010254 C-164.57522798708865 45.80772016749363 -150.59493575031885 40.9818823901378 -136.6171875 36.1484375 C-114.33234623085875 28.443459147446518 -92.03962489403972 20.761581656510458 -69.743408203125 13.089599609375 C-68.54804946899415 12.677950592041014 -67.35269073486327 12.266301574707029 -66.12110900878906 11.842178344726563 C-63.75510054535357 11.02869469489709 -61.38827838191273 10.217573506199741 -59.02061462402344 9.408920288085938 C-53.45560179263509 7.504796497751471 -47.902539247026425 5.576541789866276 -42.3765926361084 3.562037467956543 C-39.74320402950627 2.603652420202792 -37.105019260852146 1.658882487519584 -34.46640396118164 0.7149982452392578 C-32.61849056373467 0.047566494228775014 -30.777707941522294 -0.6395061748230333 -28.937225341796875 -1.3271636962890625 C-17.816917310564577 -5.292856316759568 -10.886148877075641 -3.813956432205572 0 0 Z M-22.533935546875 15.428955078125 C-23.639790039062518 15.808845825195313 -24.745644531250036 16.188736572265626 -25.885009765625 16.58013916015625 C-27.09987060546871 17.000997924804686 -28.314731445312532 17.421856689453122 -29.56640625 17.85546875 C-30.846589214025585 18.29654767027499 -32.12686472693946 18.737358057311823 -33.4072265625 19.17791748046875 C-36.87769792150925 20.37293926620233 -40.34684099133449 21.57177511300332 -43.81576156616211 22.771289825439453 C-47.4692675002957 24.033899294306607 -51.123986682701684 25.292987306455515 -54.778564453125 26.552490234375 C-62.93457248236467 29.36411491159211 -71.088808592374 32.18085518183108 -79.24273681640625 34.998504638671875 C-82.409076343837 36.09251932457708 -85.57563022751893 37.18591258776512 -88.7421875 38.279296875 C-97.72485097405854 41.381000818412076 -106.70732534749484 44.48324871937953 -115.688720703125 47.588623046875 C-130.89860059243773 52.84712130749021 -146.11396902600427 58.08951016873597 -161.33204555511475 63.32422351837158 C-173.32420540428382 67.44941361756955 -185.3146905138545 71.57946549920722 -197.3046875 75.7109375 C-197.92003356933594 75.92292785644531 -197.92003356933594 75.92292785644531 -201.0340576171875 76.9957275390625 C-208.12040235630488 79.43740581090404 -215.20561580680342 81.88231731557657 -222.28912353515625 84.33221435546875 C-224.45263090844568 85.08001806468583 -226.61648601831536 85.82681653536235 -228.78070068359375 86.57257080078125 C-231.73236408823107 87.58990150216614 -234.68275244313577 88.610843455133 -237.6328125 89.6328125 C-238.50561859130858 89.93277130126953 -239.37842468261718 90.23273010253905 -240.27767944335938 90.54177856445313 C-246.1904286526404 92.5966786526404 -246.1904286526404 92.5966786526404 -247.3046875 93.7109375 C-247.40896250570316 96.04637166431908 -247.4480209719954 98.3524834564833 -247.44512939453125 100.68869018554688 C-247.4481005167961 101.42751249432564 -247.45107163906096 102.1663348031044 -247.45413279533386 102.92754566669464 C-247.46285849535684 105.42289974364834 -247.46433139224254 107.91820605802536 -247.4658203125 110.41357421875 C-247.4704463831429 112.19567976313431 -247.47547075404287 113.97778431200311 -247.48086547851563 115.7598876953125 C-247.49402662029235 120.62045295562791 -247.50044362021507 125.4810043714057 -247.50487613677979 130.3415846824646 C-247.50780568553265 133.38354904100822 -247.5119106452443 136.4255096179379 -247.5163803100586 139.46747207641602 C-247.53007552801301 148.9987987944407 -247.53972778028518 158.53011686783833 -247.54358220100403 168.0614527463913 C-247.54804432938295 179.03464555907883 -247.5654972774122 190.0077126476499 -247.5945827960968 200.98086726665497 C-247.61630633776838 209.47453493904874 -247.62629241853688 217.96816756486055 -247.62762331962585 226.4618626832962 C-247.62866531657716 231.52681818476458 -247.63444076349566 236.59165584325922 -247.6524429321289 241.6565818786621 C-247.6691049154367 246.43855604662508 -247.67099267579295 251.22032622030588 -247.66230392456055 256.0023193359375 C-247.66154267289548 257.74235714837675 -247.66575310894285 259.4824067324906 -247.67576217651367 261.22241592407227 C-247.76015742191106 276.83132261449754 -246.1152830634794 292.2057560746776 -241.6171875 307.2109375 C-241.4893688964844 307.644384765625 -241.4893688964844 307.644384765625 -240.842529296875 309.837890625 C-233.69079508667187 333.2861995109119 -222.1296132792666 355.242650720308 -207.3046875 374.7109375 C-206.6073046875 375.62875 -205.909921875 376.5465625 -205.19140625 377.4921875 C-203.2731288726352 379.93868618417537 -201.3026121347459 382.3290833179055 -199.3046875 384.7109375 C-198.89347656249998 385.2109326171875 -198.482265625 385.710927734375 -198.05859375 386.22607421875 C-192.04641802951352 393.5299963893265 -185.7410495419777 400.45427158075574 -179.0546875 407.1484375 C-178.40564453125 407.7982861328125 -177.7566015625 408.448134765625 -177.087890625 409.11767578125 C-172.64987927217004 413.5049991871568 -168.0505595741352 417.65988060110203 -163.3046875 421.7109375 C-162.6666015625 422.25580810546876 -162.028515625 422.8006787109375 -161.37109375 423.362060546875 C-150.7355495214557 432.371387090979 -139.74048256839473 440.74562747568774 -128.3046875 448.7109375 C-127.6951220703125 449.137939453125 -127.08555664062499 449.56494140625 -126.45751953125 450.0048828125 C-100.70948132347459 467.9397729734778 -72.79133529989997 483.3180526527526 -44.2724609375 496.35400390625 C-42.214228097368846 497.295074828054 -40.160468609941745 498.2459673967728 -38.1103515625 499.20458984375 C-34.897212298277566 500.69781106534447 -31.667473669448043 502.14706013305613 -28.4296875 503.5859375 C-27.449355468750014 504.04572998046876 -26.469023437500027 504.5055224609375 -25.458984375 504.979248046875 C-20.912913024024135 506.9425023268924 -17.60992644018779 508.2848906927128 -12.765625 506.74609375 C-11.26496719923648 506.09852909635197 -9.77801166514837 505.41848942038223 -8.3046875 504.7109375 C-6.628633068274553 504.0222302837783 -4.951497147243913 503.33615067309574 -3.2734375 502.65234375 C-1.4480024617813 501.8651896778317 0.3748011530965414 501.0719129522736 2.1953125 500.2734375 C3.1886962890624773 499.8380566406249 4.182080078125011 499.4026757812501 5.20556640625 498.9541015625 C63.02292661120026 473.40416255715377 124.45836086272777 437.8566854895585 164.52734375 387.43359375 C165.93327380678727 385.66794825525994 167.3669348256176 383.92389927199105 168.83203125 382.20703125 C196.8408187460583 349.2703062770769 215.16358894894756 306.38629251681243 214.92236328125 262.90283203125 C214.9217973223714 261.482065918686 214.92211931836005 260.0612992240003 214.92324829101563 258.6405334472656 C214.92381560846286 254.8315136510161 214.91216350251443 251.02262314803522 214.89810037612915 247.21363306045532 C214.8854879414322 243.2151726722421 214.88441431666115 239.21670841384355 214.88204956054688 235.21823120117188 C214.87586537798018 227.66798502880886 214.85949658838842 220.1177976689371 214.83935058116913 212.56757724285126 C214.81689553467527 203.96282968027128 214.805974139643 195.35807911785056 214.79595971107483 186.7533094882965 C214.77512718413163 169.07248564465544 214.74001160827163 151.39171632250756 214.6953125 133.7109375 C208.55946188215205 138.78659270071418 202.9543973256857 144.31668531119743 197.3380584716797 149.9546661376953 C196.29833294793025 150.9946720251334 195.25838518742376 152.03445577471413 194.21823579072952 153.07403773069382 C191.37387099203914 155.91810819369152 188.53262197047331 158.76527335806207 185.6918808221817 161.61296260356903 C182.62287819195132 164.68835768334117 179.55095496559068 167.7608330070076 176.4793701171875 170.83364868164063 C171.16206047885015 176.153840679681 165.84652909827088 181.47580396835974 160.5321559906006 186.79892921447754 C152.84684342893695 194.49680585518195 145.15828451870954 202.19143357327428 137.4688380137086 209.88518055528402 C124.99024468436181 222.37083576810886 112.51352167262075 234.85835804922522 100.038330078125 247.347412109375 C99.29216890193521 248.0944010975212 98.54600772574543 248.8413900856674 97.77723560482264 249.61101510375738 C92.47904576401805 254.91510715250035 87.18092242142018 260.2192656221835 81.8828125 265.5234375 C75.8220693017816 271.59111221803715 69.76129325036283 277.6587541158404 63.700439453125 283.726318359375 C62.953673433885 284.473912505284 62.206907414644945 285.2215066511929 61.43751212209463 285.9917551651597 C49.00213233206239 298.4408035492933 36.56480199803286 310.8879014457164 24.126068890094757 323.3335992693901 C16.451668630460688 331.01248767189253 8.779056240243676 338.6931543617571 1.108715333044529 346.3760976418853 C-4.140190619244322 351.6334064875481 -9.390842767591778 356.88896692210864 -14.642894722521305 362.1431329026818 C-17.676302921503748 365.1778906640939 -20.70886081131505 368.2134863396186 -23.739255905151367 371.25125312805176 C-26.509504466633246 374.0282154370388 -29.28201153117925 376.8029012480434 -32.05638285726309 379.57574447244406 C-33.06313855887271 380.5827731617976 -34.069034217236776 381.5906624938336 -35.07401154190302 382.59946594387293 C-36.43310720044917 383.9634981802978 -37.795547877410286 385.3241951230186 -39.15818500518799 386.68468952178955 C-39.916109479069746 387.44353578865525 -40.67403395295139 388.202382055521 -41.4549258351326 388.9842236638069 C-44.45182801728038 391.7817691865177 -47.0133711549953 392.2515737050029 -51.125685691833496 392.1643705368042 C-53.758726730504975 391.6164555283263 -54.82064473562775 390.7698387754511 -56.79371643066406 388.9560089111328 C-57.49084306716918 388.3152775001526 -58.1879697036743 387.67454608917234 -58.90622138977051 387.0143985748291 C-63.95233367146034 382.1681665724193 -68.91282298409016 377.2412551953531 -73.855224609375 372.289794921875 C-75.10579139165355 371.0405852414546 -76.35657035657138 369.7915879438832 -77.6075439453125 368.54278564453125 C-80.98332975703198 365.17153455967116 -84.35597409271085 361.79715739336876 -87.72790217399597 358.422048330307 C-91.26131920102159 354.8860905489013 -94.79718554441314 351.35258335654595 -98.33265686035156 347.8186798095703 C-104.26141196146091 341.89173996628466 -110.18806407247553 335.9627033798373 -116.113525390625 330.032470703125 C-122.96912386319994 323.17141577463474 -129.828337691061 316.31399103309144 -136.68941110372543 309.4584113955498 C-142.5843723822502 303.56798163819315 -148.47739087344212 297.6756135664691 -154.36877638101578 291.7816074490547 C-157.88601488026652 288.2628083301531 -161.40392946330985 284.74469228243186 -164.92359733581543 281.2283229827881 C-168.2263052243942 277.9284948671081 -171.52657424696332 274.6262471392664 -174.82494354248047 271.32208251953125 C-176.03791213921636 270.1077875465041 -177.2517401459388 268.8943503727554 -178.4664707183838 267.68181800842285 C-180.11891446599697 266.0320901360759 -181.76827365519802 264.37934017598207 -183.41685485839844 262.7257537841797 C-184.3420841884613 261.80014742851256 -185.26731351852416 260.87454107284543 -186.22058010101318 259.9208860397339 C-189.23814703411128 256.7211144537823 -189.84394591726453 254.34347758849924 -189.7666473388672 249.89845275878906 C-189.19976093346497 247.21407944863648 -188.26651125981812 246.09565679927005 -186.413330078125 244.085693359375 C-185.7748110961914 243.39079803466797 -185.1362921142578 242.69590270996093 -184.47842407226563 241.97994995117188 C-180.3920597264128 237.71447836686627 -176.24785565965843 233.51209335305975 -172.06640625 229.33984375 C-171.0945656581718 228.36732793636008 -170.12287341652458 227.39466385536957 -169.1513214111328 226.42185974121094 C-167.13171362099078 224.40078945685025 -165.1103378272836 222.38150950086606 -163.087646484375 220.363525390625 C-160.4939313902359 217.77555291480996 -157.9047941709377 215.18305385572214 -155.31692790985107 212.58923435211182 C-153.31906771462252 210.5877683203554 -151.31884167770554 208.5886804051964 -149.31788063049316 206.5903148651123 C-147.89731205170034 205.17073671901625 -146.478755543283 203.74914602428666 -145.0602264404297 202.32752990722656 C-144.63114234924316 201.90002189636232 -144.63114234924316 201.90002189636232 -142.459716796875 199.736572265625 C-141.70361618041994 198.98126724243164 -140.94751556396483 198.22596221923828 -140.1685028076172 197.44776916503906 C-137.1659871420936 194.6498179617494 -134.61980607975255 194.18752736082308 -130.50406646728516 194.23718929290771 C-127.74811956767638 194.83082273305234 -126.55077324802494 195.88406456448027 -124.4896240234375 197.79090881347656 C-123.79507614135741 198.4290658760071 -123.10052825927733 199.0672229385376 -122.38493347167969 199.72471809387207 C-119.20860059073297 202.75748157201235 -116.06722750253942 205.81708200395684 -112.970703125 208.931396484375 C-112.28678497314453 209.61516860961913 -111.60286682128907 210.2989407348633 -110.89822387695313 211.00343322753906 C-108.66674618512792 213.23560052743883 -106.43881891404203 215.47127507725736 -104.2109375 217.70703125 C-102.65317338127457 219.26666293628136 -101.09518648236445 220.8260721379998 -99.5369873046875 222.38526916503906 C-95.45777934828635 226.46827562078283 -91.38158480983017 230.55427739706636 -87.3060302734375 234.64093017578125 C-83.13814289482679 238.8190892987002 -78.9673852639512 242.9943811237963 -74.796875 247.169921875 C-66.6300156413262 255.34747146223748 -58.46633986698953 263.52819126612826 -50.3046875 271.7109375 C-47.22384404696038 270.33720932170894 -45.11440892759947 268.76978071058625 -42.73587417602539 266.388219833374 C-42.041681053638456 265.69800880789757 -41.34748793125152 265.0077977824211 -40.63225865364075 264.29667127132416 C-39.877393205165845 263.5359801399708 -39.12252775669094 262.7752890086174 -38.34478759765625 261.9915466308594 C-37.53691008329395 261.18537796616556 -36.729032568931586 260.37920930147175 -35.896673917770386 259.5486112833023 C-33.181869891532074 256.8371101862964 -30.47429131851726 254.11850638348096 -27.7666015625 251.39990234375 C-25.82613499739091 249.45775905984522 -23.884160939394008 247.51712569443146 -21.942245483398438 245.57643127441406 C-17.757610201075295 241.39284498426855 -13.576654056783582 237.20561073036913 -9.398170471191406 233.0158805847168 C-3.3567719082194003 226.95823194275874 2.690137940353168 220.90610966941347 8.738409668207169 214.85532446205616 C18.551039579930432 205.0383166771924 28.359194311782005 195.2168503290978 38.16455078125 185.392578125 C47.689877364553695 175.84889513779564 57.21730105338355 166.30731376847334 66.74755859375 156.7685546875 C67.33494582861664 156.1806420056522 67.92233306348322 155.59272932380438 68.52751991152763 154.987001106143 C71.4742649991855 152.03764595447905 74.42105142551861 149.08833210951016 77.36785840988159 146.13903880119324 C101.81675587664131 121.66940595813901 126.25839735387427 97.19253642701511 150.6953125 72.7109375 C149.25841920424426 69.83715090848855 147.59447383337113 69.78991056019461 144.57958984375 68.765869140625 C143.47373535156248 68.38615463256835 142.36788085937502 68.00644012451173 141.228515625 67.61521911621094 C140.00841796875 67.20465774536133 138.7883203125 66.79409637451172 137.53125 66.37109375 C136.24863225583903 65.93357616841554 134.96624767777143 65.49537452115115 133.68408203125 65.05653381347656 C130.9285668851153 64.11493059238595 128.1715483325189 63.17792058136314 125.41326904296875 62.24444580078125 C121.04073228721444 60.764564135155524 116.67167744172184 59.27459626100537 112.30322265625 57.78271484375 C107.82176353911427 56.25272635455633 103.34011274244932 54.72331613295121 98.85726928710938 53.1973876953125 C86.04033760633308 48.83445062350309 73.23849040327923 44.42880813373755 60.443267822265625 40.0025634765625 C57.08257557793763 38.84017901045827 53.721392508516715 37.67922357792558 50.360107421875 36.5185546875 C39.27381383610049 32.68877286334697 28.193654779347696 28.841967902825132 17.12109375 24.97265625 C16.036307373046895 24.593913574218746 14.951520996093734 24.2151708984375 13.8338623046875 23.824951171875 C8.696302811739258 22.031216650852457 3.5597621958660284 20.234690643920757 -1.57470703125 18.43212890625 C-3.3765823920828097 17.802279496375007 -5.178500369341748 17.172551985326365 -6.98046875 16.54296875 C-7.80149581909177 16.25338790893555 -8.622522888183596 15.963807067871095 -9.468429565429688 15.665451049804688 C-14.95061408026072 13.755170639707316 -17.12532854006986 13.56278632290536 -22.533935546875 15.428955078125 Z M166.83505761623383 80.07554906606674 C166.19061720013616 80.72205043613911 165.54617678403855 81.36855180621147 164.8822078704834 82.03464412689209 C164.1335138165951 82.77599068582057 163.38481976270674 83.51733724474907 162.61343801021576 84.28114885091782 C161.79768162846563 85.10923871815204 160.98192524671555 85.93732858538628 160.14144897460938 86.79051208496094 C159.26964575409892 87.65960317194461 158.3978425335884 88.5286942589283 157.49962103366852 89.42412143945694 C155.0766171992085 91.84360408277598 152.6629414963158 94.27176648866296 150.25271129608154 96.70393526554108 C147.65327381369906 99.32266039225323 145.04231241216144 101.9298495668186 142.4326934814453 104.53842163085938 C137.9108940442742 109.06153582573072 133.39643527499487 113.59187163549188 128.88679122924805 118.12710380554199 C122.36488674018847 124.68590510076103 115.8315221356155 131.2331918159967 109.295185521245 137.77760685235262 C98.68915569118218 148.39727801034377 88.09172650252697 159.02548819432513 77.5 169.659423828125 C67.21334569271175 179.987021347756 56.923928857922874 190.3118498813347 46.6298828125 200.632080078125 C46.31285863362251 200.94991240557283 46.31285863362251 200.94991240557283 44.70852415263653 202.55833660811186 C37.79057206230539 209.49375933618958 30.871809684026687 216.42837322368447 23.952417373657227 223.36235904693604 C23.344777298644203 223.9712869538739 22.73713722363118 224.5802148608118 22.111083813011646 225.20759512856603 C17.11402214422219 230.21523843384477 17.11402214422219 230.21523843384477 14.82493408024311 232.50901544839144 C7.704947702916513 239.64366664670206 0.5874725226431678 246.78080288820354 -6.525597438216209 253.92234993726015 C-10.98561523448086 258.4001811375887 -15.447154636783694 262.87649188139994 -19.909903064370155 267.35160165280104 C-22.984334977059007 270.43477154054085 -26.056677349513564 273.520002938414 -29.127420760691166 276.6068462394178 C-31.41787664918894 278.90801969080337 -33.711569485724795 281.2059626360376 -36.004791259765625 283.50437927246094 C-36.82500908493995 284.3302384179831 -37.645226910114275 285.15609756350517 -38.49029982089996 286.0069827437401 C-39.23377838015557 286.75093704998494 -39.97725693941118 287.4948913562298 -40.74326515197754 288.26138973236084 C-41.38738086342812 288.9080534547567 -42.0314965748787 289.5547171771526 -42.695130944252014 290.22097676992416 C-45.26447790560337 292.5994120356388 -47.69703068603303 293.37885039730884 -51.225982666015625 293.28465270996094 C-61.11614430454597 290.5550029452461 -72.03271585376513 275.1066969852978 -79.15625 267.95703125 C-80.6663145398943 266.44509794216503 -82.17660275045338 264.9333879987649 -83.68710327148438 263.42189025878906 C-87.63147928547488 259.4737251767965 -91.57284099511054 255.52256465930128 -95.5135498046875 251.57073974609375 C-99.54755636348489 247.52644079446964 -103.5844517148289 243.48502753949077 -107.62109375 239.443359375 C-115.51843036785331 231.53534923350202 -123.41258068435818 223.62416669602771 -131.3046875 215.7109375 C-134.39647885581178 217.08709110257735 -136.50107503263598 218.6625219545213 -138.8798828125 221.05908203125 C-139.5602862548828 221.73963653564454 -140.24068969726562 222.42019104003907 -140.94171142578125 223.12136840820313 C-141.30324310302734 223.4880613708496 -141.30324310302734 223.4880613708496 -143.1328125 225.34375 C-143.88181823730469 226.09558563232423 -144.63082397460937 226.84742126464846 -145.40252685546875 227.62203979492188 C-147.79131769958403 230.02201650908432 -150.17305647036085 232.42885759040706 -152.5546875 234.8359375 C-154.1740191913571 236.4653010223787 -155.79380551779275 238.09421284407506 -157.4140625 239.72265625 C-161.38289359764863 243.71352661407275 -165.34555204229196 247.71045121794714 -169.3046875 251.7109375 C-164.0001935294634 258.14773219564233 -158.1524297626336 263.9977313350612 -152.25048828125 269.878662109375 C-151.13610194599482 270.9927659547816 -150.02193658870334 272.1070908710508 -148.90797424316406 273.22161865234375 C-145.90032927575334 276.2295491808779 -142.88962277838542 279.2343980230696 -139.87833642959595 282.2386825084686 C-136.725512974896 285.3852321825984 -133.57554278405962 288.53463564089145 -130.42526245117188 291.68373107910156 C-124.46696026485344 297.6389317844232 -118.50611474307584 303.5915799196215 -112.5443400144577 309.54330402612686 C-105.75395579833312 316.32249029391824 -98.96642887795196 323.104534310703 -92.17913460731506 329.88681399822235 C-78.22415147324136 343.83135954402445 -64.26560305841952 357.7723315107532 -50.3046875 371.7109375 C-44.092911028955996 366.56525991210054 -38.387591782041966 360.9703384049872 -32.66822814941406 355.2889404296875 C-31.598170833576432 354.2293568994872 -30.52792515403513 353.1699635671401 -29.457508504390717 352.1107430458069 C-26.529461230358436 349.2119924517503 -23.6044915374182 346.31015419822563 -20.680136799812317 343.40767908096313 C-18.168556833390767 340.9156109309226 -15.655239283487333 338.4252985223536 -13.14198399335146 335.9349201321602 C10.671928873448678 312.33653064109785 34.43521793464299 288.6870527603822 58.18730068206787 265.02645111083984 C61.27571772052869 261.95014111846746 64.36424789930379 258.87394476814734 67.452880859375 255.7978515625 C68.22050095982848 255.03333830654617 68.98812106028197 254.26882505059245 69.77900237590075 253.4811447262764 C82.22535532642479 241.08666855119776 94.6976490723817 228.71862199602526 107.18005632609129 216.36046832799911 C120.00254907686082 203.66455886409614 132.79840037721448 190.94226270449496 145.56950241327286 178.19465684890747 C152.7379590691944 171.04084767330158 159.91799934412876 163.89954314092694 167.12872123718262 156.78831481933594 C173.2665590316447 150.73516322032765 179.38027778792951 144.658918181478 185.4637110158801 138.5510714650154 C188.56735409319617 135.43647898469774 191.68120189871638 132.33432300008423 194.82666397094727 129.26192092895508 C197.70870193666315 126.44631805402531 200.55626516722134 123.60000242689853 203.3803310468793 120.72629076242447 C204.40492107565808 119.69511195298048 205.4413803988831 118.67555764383195 206.49071913212538 117.66957420110703 C210.902862498093 113.4290855933636 214.3282347452955 110.07630081188086 215.28860867023468 103.8878755569458 C215.3027418032301 100.43444942305806 215.13620180991256 97.13368917417145 214.6953125 93.7109375 C206.7281238820774 90.41411436767692 198.6384496803944 87.51619359872639 190.48876953125 84.70947265625 C188.30150471975276 83.95444519486173 186.11758995110313 83.19020431167715 183.93359375 82.42578125 C182.5340494979493 81.94214271708628 181.1343166012805 81.45904965731224 179.734375 80.9765625 C179.08642974853518 80.74849914550781 178.4384844970703 80.52043579101563 177.77090454101563 80.28546142578125 C170.10961526411887 77.67345928845005 170.10961526411887 77.67345928845005 166.83505761623383 80.07554906606674 Z " fill="#000000" transform="translate(316.3046875,39.2890625)"/>
</svg>
